%TF.GenerationSoftware,KiCad,Pcbnew,8.0.0*%
%TF.CreationDate,2024-05-10T19:52:19+02:00*%
%TF.ProjectId,plc_io_module,706c635f-696f-45f6-9d6f-64756c652e6b,1.0.0*%
%TF.SameCoordinates,Original*%
%TF.FileFunction,Drillmap*%
%TF.FilePolarity,Positive*%
%FSLAX45Y45*%
G04 Gerber Fmt 4.5, Leading zero omitted, Abs format (unit mm)*
G04 Created by KiCad (PCBNEW 8.0.0) date 2024-05-10 19:52:19*
%MOMM*%
%LPD*%
G01*
G04 APERTURE LIST*
%ADD10C,0.050000*%
%ADD11C,0.200000*%
%ADD12C,0.430000*%
G04 APERTURE END LIST*
D10*
X9906000Y-5588000D02*
X19151600Y-5588000D01*
X19151600Y-14224000D01*
X9906000Y-14224000D01*
X9906000Y-5588000D01*
D11*
D12*
X10402200Y-6033400D02*
X10832200Y-6463400D01*
X10832200Y-6033400D02*
X10402200Y-6463400D01*
X10402200Y-13247000D02*
X10832200Y-13677000D01*
X10832200Y-13247000D02*
X10402200Y-13677000D01*
X18225400Y-6033400D02*
X18655400Y-6463400D01*
X18655400Y-6033400D02*
X18225400Y-6463400D01*
X18225400Y-13247000D02*
X18655400Y-13677000D01*
X18655400Y-13247000D02*
X18225400Y-13677000D01*
D11*
X10164277Y-14537984D02*
X10164277Y-14337984D01*
X10164277Y-14337984D02*
X10211896Y-14337984D01*
X10211896Y-14337984D02*
X10240467Y-14347508D01*
X10240467Y-14347508D02*
X10259515Y-14366555D01*
X10259515Y-14366555D02*
X10269039Y-14385603D01*
X10269039Y-14385603D02*
X10278563Y-14423698D01*
X10278563Y-14423698D02*
X10278563Y-14452269D01*
X10278563Y-14452269D02*
X10269039Y-14490365D01*
X10269039Y-14490365D02*
X10259515Y-14509412D01*
X10259515Y-14509412D02*
X10240467Y-14528460D01*
X10240467Y-14528460D02*
X10211896Y-14537984D01*
X10211896Y-14537984D02*
X10164277Y-14537984D01*
X10364277Y-14537984D02*
X10364277Y-14404650D01*
X10364277Y-14442746D02*
X10373801Y-14423698D01*
X10373801Y-14423698D02*
X10383324Y-14414174D01*
X10383324Y-14414174D02*
X10402372Y-14404650D01*
X10402372Y-14404650D02*
X10421420Y-14404650D01*
X10488086Y-14537984D02*
X10488086Y-14404650D01*
X10488086Y-14337984D02*
X10478563Y-14347508D01*
X10478563Y-14347508D02*
X10488086Y-14357031D01*
X10488086Y-14357031D02*
X10497610Y-14347508D01*
X10497610Y-14347508D02*
X10488086Y-14337984D01*
X10488086Y-14337984D02*
X10488086Y-14357031D01*
X10611896Y-14537984D02*
X10592848Y-14528460D01*
X10592848Y-14528460D02*
X10583324Y-14509412D01*
X10583324Y-14509412D02*
X10583324Y-14337984D01*
X10716658Y-14537984D02*
X10697610Y-14528460D01*
X10697610Y-14528460D02*
X10688086Y-14509412D01*
X10688086Y-14509412D02*
X10688086Y-14337984D01*
X10945229Y-14537984D02*
X10945229Y-14337984D01*
X10945229Y-14337984D02*
X11011896Y-14480841D01*
X11011896Y-14480841D02*
X11078563Y-14337984D01*
X11078563Y-14337984D02*
X11078563Y-14537984D01*
X11259515Y-14537984D02*
X11259515Y-14433222D01*
X11259515Y-14433222D02*
X11249991Y-14414174D01*
X11249991Y-14414174D02*
X11230943Y-14404650D01*
X11230943Y-14404650D02*
X11192848Y-14404650D01*
X11192848Y-14404650D02*
X11173801Y-14414174D01*
X11259515Y-14528460D02*
X11240467Y-14537984D01*
X11240467Y-14537984D02*
X11192848Y-14537984D01*
X11192848Y-14537984D02*
X11173801Y-14528460D01*
X11173801Y-14528460D02*
X11164277Y-14509412D01*
X11164277Y-14509412D02*
X11164277Y-14490365D01*
X11164277Y-14490365D02*
X11173801Y-14471317D01*
X11173801Y-14471317D02*
X11192848Y-14461793D01*
X11192848Y-14461793D02*
X11240467Y-14461793D01*
X11240467Y-14461793D02*
X11259515Y-14452269D01*
X11354753Y-14404650D02*
X11354753Y-14604650D01*
X11354753Y-14414174D02*
X11373801Y-14404650D01*
X11373801Y-14404650D02*
X11411896Y-14404650D01*
X11411896Y-14404650D02*
X11430943Y-14414174D01*
X11430943Y-14414174D02*
X11440467Y-14423698D01*
X11440467Y-14423698D02*
X11449991Y-14442746D01*
X11449991Y-14442746D02*
X11449991Y-14499888D01*
X11449991Y-14499888D02*
X11440467Y-14518936D01*
X11440467Y-14518936D02*
X11430943Y-14528460D01*
X11430943Y-14528460D02*
X11411896Y-14537984D01*
X11411896Y-14537984D02*
X11373801Y-14537984D01*
X11373801Y-14537984D02*
X11354753Y-14528460D01*
X11535705Y-14518936D02*
X11545229Y-14528460D01*
X11545229Y-14528460D02*
X11535705Y-14537984D01*
X11535705Y-14537984D02*
X11526182Y-14528460D01*
X11526182Y-14528460D02*
X11535705Y-14518936D01*
X11535705Y-14518936D02*
X11535705Y-14537984D01*
X11535705Y-14414174D02*
X11545229Y-14423698D01*
X11545229Y-14423698D02*
X11535705Y-14433222D01*
X11535705Y-14433222D02*
X11526182Y-14423698D01*
X11526182Y-14423698D02*
X11535705Y-14414174D01*
X11535705Y-14414174D02*
X11535705Y-14433222D01*
X9703500Y-14766500D02*
X9903500Y-14966500D01*
X9903500Y-14766500D02*
X9703500Y-14966500D01*
X10249991Y-14824650D02*
X10249991Y-14957984D01*
X10202372Y-14748460D02*
X10154753Y-14891317D01*
X10154753Y-14891317D02*
X10278563Y-14891317D01*
X10354753Y-14938936D02*
X10364277Y-14948460D01*
X10364277Y-14948460D02*
X10354753Y-14957984D01*
X10354753Y-14957984D02*
X10345229Y-14948460D01*
X10345229Y-14948460D02*
X10354753Y-14938936D01*
X10354753Y-14938936D02*
X10354753Y-14957984D01*
X10430944Y-14757984D02*
X10554753Y-14757984D01*
X10554753Y-14757984D02*
X10488086Y-14834174D01*
X10488086Y-14834174D02*
X10516658Y-14834174D01*
X10516658Y-14834174D02*
X10535705Y-14843698D01*
X10535705Y-14843698D02*
X10545229Y-14853222D01*
X10545229Y-14853222D02*
X10554753Y-14872269D01*
X10554753Y-14872269D02*
X10554753Y-14919888D01*
X10554753Y-14919888D02*
X10545229Y-14938936D01*
X10545229Y-14938936D02*
X10535705Y-14948460D01*
X10535705Y-14948460D02*
X10516658Y-14957984D01*
X10516658Y-14957984D02*
X10459515Y-14957984D01*
X10459515Y-14957984D02*
X10440467Y-14948460D01*
X10440467Y-14948460D02*
X10430944Y-14938936D01*
X10678563Y-14757984D02*
X10697610Y-14757984D01*
X10697610Y-14757984D02*
X10716658Y-14767508D01*
X10716658Y-14767508D02*
X10726182Y-14777031D01*
X10726182Y-14777031D02*
X10735705Y-14796079D01*
X10735705Y-14796079D02*
X10745229Y-14834174D01*
X10745229Y-14834174D02*
X10745229Y-14881793D01*
X10745229Y-14881793D02*
X10735705Y-14919888D01*
X10735705Y-14919888D02*
X10726182Y-14938936D01*
X10726182Y-14938936D02*
X10716658Y-14948460D01*
X10716658Y-14948460D02*
X10697610Y-14957984D01*
X10697610Y-14957984D02*
X10678563Y-14957984D01*
X10678563Y-14957984D02*
X10659515Y-14948460D01*
X10659515Y-14948460D02*
X10649991Y-14938936D01*
X10649991Y-14938936D02*
X10640467Y-14919888D01*
X10640467Y-14919888D02*
X10630944Y-14881793D01*
X10630944Y-14881793D02*
X10630944Y-14834174D01*
X10630944Y-14834174D02*
X10640467Y-14796079D01*
X10640467Y-14796079D02*
X10649991Y-14777031D01*
X10649991Y-14777031D02*
X10659515Y-14767508D01*
X10659515Y-14767508D02*
X10678563Y-14757984D01*
X10869039Y-14757984D02*
X10888086Y-14757984D01*
X10888086Y-14757984D02*
X10907134Y-14767508D01*
X10907134Y-14767508D02*
X10916658Y-14777031D01*
X10916658Y-14777031D02*
X10926182Y-14796079D01*
X10926182Y-14796079D02*
X10935705Y-14834174D01*
X10935705Y-14834174D02*
X10935705Y-14881793D01*
X10935705Y-14881793D02*
X10926182Y-14919888D01*
X10926182Y-14919888D02*
X10916658Y-14938936D01*
X10916658Y-14938936D02*
X10907134Y-14948460D01*
X10907134Y-14948460D02*
X10888086Y-14957984D01*
X10888086Y-14957984D02*
X10869039Y-14957984D01*
X10869039Y-14957984D02*
X10849991Y-14948460D01*
X10849991Y-14948460D02*
X10840467Y-14938936D01*
X10840467Y-14938936D02*
X10830944Y-14919888D01*
X10830944Y-14919888D02*
X10821420Y-14881793D01*
X10821420Y-14881793D02*
X10821420Y-14834174D01*
X10821420Y-14834174D02*
X10830944Y-14796079D01*
X10830944Y-14796079D02*
X10840467Y-14777031D01*
X10840467Y-14777031D02*
X10849991Y-14767508D01*
X10849991Y-14767508D02*
X10869039Y-14757984D01*
X11021420Y-14957984D02*
X11021420Y-14824650D01*
X11021420Y-14843698D02*
X11030944Y-14834174D01*
X11030944Y-14834174D02*
X11049991Y-14824650D01*
X11049991Y-14824650D02*
X11078563Y-14824650D01*
X11078563Y-14824650D02*
X11097610Y-14834174D01*
X11097610Y-14834174D02*
X11107134Y-14853222D01*
X11107134Y-14853222D02*
X11107134Y-14957984D01*
X11107134Y-14853222D02*
X11116658Y-14834174D01*
X11116658Y-14834174D02*
X11135705Y-14824650D01*
X11135705Y-14824650D02*
X11164277Y-14824650D01*
X11164277Y-14824650D02*
X11183325Y-14834174D01*
X11183325Y-14834174D02*
X11192848Y-14853222D01*
X11192848Y-14853222D02*
X11192848Y-14957984D01*
X11288086Y-14957984D02*
X11288086Y-14824650D01*
X11288086Y-14843698D02*
X11297610Y-14834174D01*
X11297610Y-14834174D02*
X11316658Y-14824650D01*
X11316658Y-14824650D02*
X11345229Y-14824650D01*
X11345229Y-14824650D02*
X11364277Y-14834174D01*
X11364277Y-14834174D02*
X11373801Y-14853222D01*
X11373801Y-14853222D02*
X11373801Y-14957984D01*
X11373801Y-14853222D02*
X11383324Y-14834174D01*
X11383324Y-14834174D02*
X11402372Y-14824650D01*
X11402372Y-14824650D02*
X11430943Y-14824650D01*
X11430943Y-14824650D02*
X11449991Y-14834174D01*
X11449991Y-14834174D02*
X11459515Y-14853222D01*
X11459515Y-14853222D02*
X11459515Y-14957984D01*
X11849991Y-14748460D02*
X11678563Y-15005603D01*
X12107134Y-14757984D02*
X12126182Y-14757984D01*
X12126182Y-14757984D02*
X12145229Y-14767508D01*
X12145229Y-14767508D02*
X12154753Y-14777031D01*
X12154753Y-14777031D02*
X12164277Y-14796079D01*
X12164277Y-14796079D02*
X12173801Y-14834174D01*
X12173801Y-14834174D02*
X12173801Y-14881793D01*
X12173801Y-14881793D02*
X12164277Y-14919888D01*
X12164277Y-14919888D02*
X12154753Y-14938936D01*
X12154753Y-14938936D02*
X12145229Y-14948460D01*
X12145229Y-14948460D02*
X12126182Y-14957984D01*
X12126182Y-14957984D02*
X12107134Y-14957984D01*
X12107134Y-14957984D02*
X12088086Y-14948460D01*
X12088086Y-14948460D02*
X12078563Y-14938936D01*
X12078563Y-14938936D02*
X12069039Y-14919888D01*
X12069039Y-14919888D02*
X12059515Y-14881793D01*
X12059515Y-14881793D02*
X12059515Y-14834174D01*
X12059515Y-14834174D02*
X12069039Y-14796079D01*
X12069039Y-14796079D02*
X12078563Y-14777031D01*
X12078563Y-14777031D02*
X12088086Y-14767508D01*
X12088086Y-14767508D02*
X12107134Y-14757984D01*
X12259515Y-14938936D02*
X12269039Y-14948460D01*
X12269039Y-14948460D02*
X12259515Y-14957984D01*
X12259515Y-14957984D02*
X12249991Y-14948460D01*
X12249991Y-14948460D02*
X12259515Y-14938936D01*
X12259515Y-14938936D02*
X12259515Y-14957984D01*
X12459515Y-14957984D02*
X12345229Y-14957984D01*
X12402372Y-14957984D02*
X12402372Y-14757984D01*
X12402372Y-14757984D02*
X12383325Y-14786555D01*
X12383325Y-14786555D02*
X12364277Y-14805603D01*
X12364277Y-14805603D02*
X12345229Y-14815127D01*
X12630944Y-14757984D02*
X12592848Y-14757984D01*
X12592848Y-14757984D02*
X12573801Y-14767508D01*
X12573801Y-14767508D02*
X12564277Y-14777031D01*
X12564277Y-14777031D02*
X12545229Y-14805603D01*
X12545229Y-14805603D02*
X12535706Y-14843698D01*
X12535706Y-14843698D02*
X12535706Y-14919888D01*
X12535706Y-14919888D02*
X12545229Y-14938936D01*
X12545229Y-14938936D02*
X12554753Y-14948460D01*
X12554753Y-14948460D02*
X12573801Y-14957984D01*
X12573801Y-14957984D02*
X12611896Y-14957984D01*
X12611896Y-14957984D02*
X12630944Y-14948460D01*
X12630944Y-14948460D02*
X12640467Y-14938936D01*
X12640467Y-14938936D02*
X12649991Y-14919888D01*
X12649991Y-14919888D02*
X12649991Y-14872269D01*
X12649991Y-14872269D02*
X12640467Y-14853222D01*
X12640467Y-14853222D02*
X12630944Y-14843698D01*
X12630944Y-14843698D02*
X12611896Y-14834174D01*
X12611896Y-14834174D02*
X12573801Y-14834174D01*
X12573801Y-14834174D02*
X12554753Y-14843698D01*
X12554753Y-14843698D02*
X12545229Y-14853222D01*
X12545229Y-14853222D02*
X12535706Y-14872269D01*
X12745229Y-14957984D02*
X12783325Y-14957984D01*
X12783325Y-14957984D02*
X12802372Y-14948460D01*
X12802372Y-14948460D02*
X12811896Y-14938936D01*
X12811896Y-14938936D02*
X12830944Y-14910365D01*
X12830944Y-14910365D02*
X12840467Y-14872269D01*
X12840467Y-14872269D02*
X12840467Y-14796079D01*
X12840467Y-14796079D02*
X12830944Y-14777031D01*
X12830944Y-14777031D02*
X12821420Y-14767508D01*
X12821420Y-14767508D02*
X12802372Y-14757984D01*
X12802372Y-14757984D02*
X12764277Y-14757984D01*
X12764277Y-14757984D02*
X12745229Y-14767508D01*
X12745229Y-14767508D02*
X12735706Y-14777031D01*
X12735706Y-14777031D02*
X12726182Y-14796079D01*
X12726182Y-14796079D02*
X12726182Y-14843698D01*
X12726182Y-14843698D02*
X12735706Y-14862746D01*
X12735706Y-14862746D02*
X12745229Y-14872269D01*
X12745229Y-14872269D02*
X12764277Y-14881793D01*
X12764277Y-14881793D02*
X12802372Y-14881793D01*
X12802372Y-14881793D02*
X12821420Y-14872269D01*
X12821420Y-14872269D02*
X12830944Y-14862746D01*
X12830944Y-14862746D02*
X12840467Y-14843698D01*
X12907134Y-14757984D02*
X13030944Y-14757984D01*
X13030944Y-14757984D02*
X12964277Y-14834174D01*
X12964277Y-14834174D02*
X12992848Y-14834174D01*
X12992848Y-14834174D02*
X13011896Y-14843698D01*
X13011896Y-14843698D02*
X13021420Y-14853222D01*
X13021420Y-14853222D02*
X13030944Y-14872269D01*
X13030944Y-14872269D02*
X13030944Y-14919888D01*
X13030944Y-14919888D02*
X13021420Y-14938936D01*
X13021420Y-14938936D02*
X13011896Y-14948460D01*
X13011896Y-14948460D02*
X12992848Y-14957984D01*
X12992848Y-14957984D02*
X12935706Y-14957984D01*
X12935706Y-14957984D02*
X12916658Y-14948460D01*
X12916658Y-14948460D02*
X12907134Y-14938936D01*
X13107134Y-14757984D02*
X13107134Y-14796079D01*
X13183325Y-14757984D02*
X13183325Y-14796079D01*
X13478563Y-15034174D02*
X13469039Y-15024650D01*
X13469039Y-15024650D02*
X13449991Y-14996079D01*
X13449991Y-14996079D02*
X13440468Y-14977031D01*
X13440468Y-14977031D02*
X13430944Y-14948460D01*
X13430944Y-14948460D02*
X13421420Y-14900841D01*
X13421420Y-14900841D02*
X13421420Y-14862746D01*
X13421420Y-14862746D02*
X13430944Y-14815127D01*
X13430944Y-14815127D02*
X13440468Y-14786555D01*
X13440468Y-14786555D02*
X13449991Y-14767508D01*
X13449991Y-14767508D02*
X13469039Y-14738936D01*
X13469039Y-14738936D02*
X13478563Y-14729412D01*
X13640468Y-14824650D02*
X13640468Y-14957984D01*
X13592848Y-14748460D02*
X13545229Y-14891317D01*
X13545229Y-14891317D02*
X13669039Y-14891317D01*
X13897610Y-14957984D02*
X13897610Y-14757984D01*
X13983325Y-14957984D02*
X13983325Y-14853222D01*
X13983325Y-14853222D02*
X13973801Y-14834174D01*
X13973801Y-14834174D02*
X13954753Y-14824650D01*
X13954753Y-14824650D02*
X13926182Y-14824650D01*
X13926182Y-14824650D02*
X13907134Y-14834174D01*
X13907134Y-14834174D02*
X13897610Y-14843698D01*
X14107134Y-14957984D02*
X14088087Y-14948460D01*
X14088087Y-14948460D02*
X14078563Y-14938936D01*
X14078563Y-14938936D02*
X14069039Y-14919888D01*
X14069039Y-14919888D02*
X14069039Y-14862746D01*
X14069039Y-14862746D02*
X14078563Y-14843698D01*
X14078563Y-14843698D02*
X14088087Y-14834174D01*
X14088087Y-14834174D02*
X14107134Y-14824650D01*
X14107134Y-14824650D02*
X14135706Y-14824650D01*
X14135706Y-14824650D02*
X14154753Y-14834174D01*
X14154753Y-14834174D02*
X14164277Y-14843698D01*
X14164277Y-14843698D02*
X14173801Y-14862746D01*
X14173801Y-14862746D02*
X14173801Y-14919888D01*
X14173801Y-14919888D02*
X14164277Y-14938936D01*
X14164277Y-14938936D02*
X14154753Y-14948460D01*
X14154753Y-14948460D02*
X14135706Y-14957984D01*
X14135706Y-14957984D02*
X14107134Y-14957984D01*
X14288087Y-14957984D02*
X14269039Y-14948460D01*
X14269039Y-14948460D02*
X14259515Y-14929412D01*
X14259515Y-14929412D02*
X14259515Y-14757984D01*
X14440468Y-14948460D02*
X14421420Y-14957984D01*
X14421420Y-14957984D02*
X14383325Y-14957984D01*
X14383325Y-14957984D02*
X14364277Y-14948460D01*
X14364277Y-14948460D02*
X14354753Y-14929412D01*
X14354753Y-14929412D02*
X14354753Y-14853222D01*
X14354753Y-14853222D02*
X14364277Y-14834174D01*
X14364277Y-14834174D02*
X14383325Y-14824650D01*
X14383325Y-14824650D02*
X14421420Y-14824650D01*
X14421420Y-14824650D02*
X14440468Y-14834174D01*
X14440468Y-14834174D02*
X14449991Y-14853222D01*
X14449991Y-14853222D02*
X14449991Y-14872269D01*
X14449991Y-14872269D02*
X14354753Y-14891317D01*
X14526182Y-14948460D02*
X14545230Y-14957984D01*
X14545230Y-14957984D02*
X14583325Y-14957984D01*
X14583325Y-14957984D02*
X14602372Y-14948460D01*
X14602372Y-14948460D02*
X14611896Y-14929412D01*
X14611896Y-14929412D02*
X14611896Y-14919888D01*
X14611896Y-14919888D02*
X14602372Y-14900841D01*
X14602372Y-14900841D02*
X14583325Y-14891317D01*
X14583325Y-14891317D02*
X14554753Y-14891317D01*
X14554753Y-14891317D02*
X14535706Y-14881793D01*
X14535706Y-14881793D02*
X14526182Y-14862746D01*
X14526182Y-14862746D02*
X14526182Y-14853222D01*
X14526182Y-14853222D02*
X14535706Y-14834174D01*
X14535706Y-14834174D02*
X14554753Y-14824650D01*
X14554753Y-14824650D02*
X14583325Y-14824650D01*
X14583325Y-14824650D02*
X14602372Y-14834174D01*
X14678563Y-15034174D02*
X14688087Y-15024650D01*
X14688087Y-15024650D02*
X14707134Y-14996079D01*
X14707134Y-14996079D02*
X14716658Y-14977031D01*
X14716658Y-14977031D02*
X14726182Y-14948460D01*
X14726182Y-14948460D02*
X14735706Y-14900841D01*
X14735706Y-14900841D02*
X14735706Y-14862746D01*
X14735706Y-14862746D02*
X14726182Y-14815127D01*
X14726182Y-14815127D02*
X14716658Y-14786555D01*
X14716658Y-14786555D02*
X14707134Y-14767508D01*
X14707134Y-14767508D02*
X14688087Y-14738936D01*
X14688087Y-14738936D02*
X14678563Y-14729412D01*
X15040468Y-15034174D02*
X15030944Y-15024650D01*
X15030944Y-15024650D02*
X15011896Y-14996079D01*
X15011896Y-14996079D02*
X15002372Y-14977031D01*
X15002372Y-14977031D02*
X14992849Y-14948460D01*
X14992849Y-14948460D02*
X14983325Y-14900841D01*
X14983325Y-14900841D02*
X14983325Y-14862746D01*
X14983325Y-14862746D02*
X14992849Y-14815127D01*
X14992849Y-14815127D02*
X15002372Y-14786555D01*
X15002372Y-14786555D02*
X15011896Y-14767508D01*
X15011896Y-14767508D02*
X15030944Y-14738936D01*
X15030944Y-14738936D02*
X15040468Y-14729412D01*
X15116658Y-14824650D02*
X15116658Y-14957984D01*
X15116658Y-14843698D02*
X15126182Y-14834174D01*
X15126182Y-14834174D02*
X15145230Y-14824650D01*
X15145230Y-14824650D02*
X15173801Y-14824650D01*
X15173801Y-14824650D02*
X15192849Y-14834174D01*
X15192849Y-14834174D02*
X15202372Y-14853222D01*
X15202372Y-14853222D02*
X15202372Y-14957984D01*
X15326182Y-14957984D02*
X15307134Y-14948460D01*
X15307134Y-14948460D02*
X15297611Y-14938936D01*
X15297611Y-14938936D02*
X15288087Y-14919888D01*
X15288087Y-14919888D02*
X15288087Y-14862746D01*
X15288087Y-14862746D02*
X15297611Y-14843698D01*
X15297611Y-14843698D02*
X15307134Y-14834174D01*
X15307134Y-14834174D02*
X15326182Y-14824650D01*
X15326182Y-14824650D02*
X15354753Y-14824650D01*
X15354753Y-14824650D02*
X15373801Y-14834174D01*
X15373801Y-14834174D02*
X15383325Y-14843698D01*
X15383325Y-14843698D02*
X15392849Y-14862746D01*
X15392849Y-14862746D02*
X15392849Y-14919888D01*
X15392849Y-14919888D02*
X15383325Y-14938936D01*
X15383325Y-14938936D02*
X15373801Y-14948460D01*
X15373801Y-14948460D02*
X15354753Y-14957984D01*
X15354753Y-14957984D02*
X15326182Y-14957984D01*
X15449992Y-14824650D02*
X15526182Y-14824650D01*
X15478563Y-14757984D02*
X15478563Y-14929412D01*
X15478563Y-14929412D02*
X15488087Y-14948460D01*
X15488087Y-14948460D02*
X15507134Y-14957984D01*
X15507134Y-14957984D02*
X15526182Y-14957984D01*
X15745230Y-14824650D02*
X15745230Y-15024650D01*
X15745230Y-14834174D02*
X15764277Y-14824650D01*
X15764277Y-14824650D02*
X15802373Y-14824650D01*
X15802373Y-14824650D02*
X15821420Y-14834174D01*
X15821420Y-14834174D02*
X15830944Y-14843698D01*
X15830944Y-14843698D02*
X15840468Y-14862746D01*
X15840468Y-14862746D02*
X15840468Y-14919888D01*
X15840468Y-14919888D02*
X15830944Y-14938936D01*
X15830944Y-14938936D02*
X15821420Y-14948460D01*
X15821420Y-14948460D02*
X15802373Y-14957984D01*
X15802373Y-14957984D02*
X15764277Y-14957984D01*
X15764277Y-14957984D02*
X15745230Y-14948460D01*
X15954753Y-14957984D02*
X15935706Y-14948460D01*
X15935706Y-14948460D02*
X15926182Y-14929412D01*
X15926182Y-14929412D02*
X15926182Y-14757984D01*
X16116658Y-14957984D02*
X16116658Y-14853222D01*
X16116658Y-14853222D02*
X16107134Y-14834174D01*
X16107134Y-14834174D02*
X16088087Y-14824650D01*
X16088087Y-14824650D02*
X16049992Y-14824650D01*
X16049992Y-14824650D02*
X16030944Y-14834174D01*
X16116658Y-14948460D02*
X16097611Y-14957984D01*
X16097611Y-14957984D02*
X16049992Y-14957984D01*
X16049992Y-14957984D02*
X16030944Y-14948460D01*
X16030944Y-14948460D02*
X16021420Y-14929412D01*
X16021420Y-14929412D02*
X16021420Y-14910365D01*
X16021420Y-14910365D02*
X16030944Y-14891317D01*
X16030944Y-14891317D02*
X16049992Y-14881793D01*
X16049992Y-14881793D02*
X16097611Y-14881793D01*
X16097611Y-14881793D02*
X16116658Y-14872269D01*
X16183325Y-14824650D02*
X16259515Y-14824650D01*
X16211896Y-14757984D02*
X16211896Y-14929412D01*
X16211896Y-14929412D02*
X16221420Y-14948460D01*
X16221420Y-14948460D02*
X16240468Y-14957984D01*
X16240468Y-14957984D02*
X16259515Y-14957984D01*
X16402373Y-14948460D02*
X16383325Y-14957984D01*
X16383325Y-14957984D02*
X16345230Y-14957984D01*
X16345230Y-14957984D02*
X16326182Y-14948460D01*
X16326182Y-14948460D02*
X16316658Y-14929412D01*
X16316658Y-14929412D02*
X16316658Y-14853222D01*
X16316658Y-14853222D02*
X16326182Y-14834174D01*
X16326182Y-14834174D02*
X16345230Y-14824650D01*
X16345230Y-14824650D02*
X16383325Y-14824650D01*
X16383325Y-14824650D02*
X16402373Y-14834174D01*
X16402373Y-14834174D02*
X16411896Y-14853222D01*
X16411896Y-14853222D02*
X16411896Y-14872269D01*
X16411896Y-14872269D02*
X16316658Y-14891317D01*
X16583325Y-14957984D02*
X16583325Y-14757984D01*
X16583325Y-14948460D02*
X16564277Y-14957984D01*
X16564277Y-14957984D02*
X16526182Y-14957984D01*
X16526182Y-14957984D02*
X16507134Y-14948460D01*
X16507134Y-14948460D02*
X16497611Y-14938936D01*
X16497611Y-14938936D02*
X16488087Y-14919888D01*
X16488087Y-14919888D02*
X16488087Y-14862746D01*
X16488087Y-14862746D02*
X16497611Y-14843698D01*
X16497611Y-14843698D02*
X16507134Y-14834174D01*
X16507134Y-14834174D02*
X16526182Y-14824650D01*
X16526182Y-14824650D02*
X16564277Y-14824650D01*
X16564277Y-14824650D02*
X16583325Y-14834174D01*
X16659515Y-15034174D02*
X16669039Y-15024650D01*
X16669039Y-15024650D02*
X16688087Y-14996079D01*
X16688087Y-14996079D02*
X16697611Y-14977031D01*
X16697611Y-14977031D02*
X16707134Y-14948460D01*
X16707134Y-14948460D02*
X16716658Y-14900841D01*
X16716658Y-14900841D02*
X16716658Y-14862746D01*
X16716658Y-14862746D02*
X16707134Y-14815127D01*
X16707134Y-14815127D02*
X16697611Y-14786555D01*
X16697611Y-14786555D02*
X16688087Y-14767508D01*
X16688087Y-14767508D02*
X16669039Y-14738936D01*
X16669039Y-14738936D02*
X16659515Y-14729412D01*
M02*
