%TF.GenerationSoftware,KiCad,Pcbnew,8.0.0*%
%TF.CreationDate,2024-05-10T19:48:46+02:00*%
%TF.ProjectId,plc_io_module,706c635f-696f-45f6-9d6f-64756c652e6b,1.0.0*%
%TF.SameCoordinates,Original*%
%TF.FileFunction,AssemblyDrawing,Bot*%
%FSLAX46Y46*%
G04 Gerber Fmt 4.6, Leading zero omitted, Abs format (unit mm)*
G04 Created by KiCad (PCBNEW 8.0.0) date 2024-05-10 19:48:46*
%MOMM*%
%LPD*%
G01*
G04 APERTURE LIST*
%ADD10C,0.120000*%
%ADD11C,0.080000*%
%ADD12C,0.150000*%
%ADD13C,0.100000*%
%TA.AperFunction,Profile*%
%ADD14C,0.050000*%
%TD*%
G04 APERTURE END LIST*
D10*
X154973664Y-96513714D02*
X155011760Y-96475618D01*
X155011760Y-96475618D02*
X155049855Y-96361333D01*
X155049855Y-96361333D02*
X155049855Y-96285142D01*
X155049855Y-96285142D02*
X155011760Y-96170856D01*
X155011760Y-96170856D02*
X154935569Y-96094666D01*
X154935569Y-96094666D02*
X154859379Y-96056571D01*
X154859379Y-96056571D02*
X154706998Y-96018475D01*
X154706998Y-96018475D02*
X154592712Y-96018475D01*
X154592712Y-96018475D02*
X154440331Y-96056571D01*
X154440331Y-96056571D02*
X154364140Y-96094666D01*
X154364140Y-96094666D02*
X154287950Y-96170856D01*
X154287950Y-96170856D02*
X154249855Y-96285142D01*
X154249855Y-96285142D02*
X154249855Y-96361333D01*
X154249855Y-96361333D02*
X154287950Y-96475618D01*
X154287950Y-96475618D02*
X154326045Y-96513714D01*
X155049855Y-97275618D02*
X155049855Y-96818475D01*
X155049855Y-97047047D02*
X154249855Y-97047047D01*
X154249855Y-97047047D02*
X154364140Y-96970856D01*
X154364140Y-96970856D02*
X154440331Y-96894666D01*
X154440331Y-96894666D02*
X154478426Y-96818475D01*
X155049855Y-97656571D02*
X155049855Y-97808952D01*
X155049855Y-97808952D02*
X155011760Y-97885142D01*
X155011760Y-97885142D02*
X154973664Y-97923238D01*
X154973664Y-97923238D02*
X154859379Y-97999428D01*
X154859379Y-97999428D02*
X154706998Y-98037523D01*
X154706998Y-98037523D02*
X154402236Y-98037523D01*
X154402236Y-98037523D02*
X154326045Y-97999428D01*
X154326045Y-97999428D02*
X154287950Y-97961333D01*
X154287950Y-97961333D02*
X154249855Y-97885142D01*
X154249855Y-97885142D02*
X154249855Y-97732761D01*
X154249855Y-97732761D02*
X154287950Y-97656571D01*
X154287950Y-97656571D02*
X154326045Y-97618476D01*
X154326045Y-97618476D02*
X154402236Y-97580380D01*
X154402236Y-97580380D02*
X154592712Y-97580380D01*
X154592712Y-97580380D02*
X154668902Y-97618476D01*
X154668902Y-97618476D02*
X154706998Y-97656571D01*
X154706998Y-97656571D02*
X154745093Y-97732761D01*
X154745093Y-97732761D02*
X154745093Y-97885142D01*
X154745093Y-97885142D02*
X154706998Y-97961333D01*
X154706998Y-97961333D02*
X154668902Y-97999428D01*
X154668902Y-97999428D02*
X154592712Y-98037523D01*
D11*
X159993149Y-104365071D02*
X159755054Y-104198405D01*
X159993149Y-104079357D02*
X159493149Y-104079357D01*
X159493149Y-104079357D02*
X159493149Y-104269833D01*
X159493149Y-104269833D02*
X159516959Y-104317452D01*
X159516959Y-104317452D02*
X159540768Y-104341262D01*
X159540768Y-104341262D02*
X159588387Y-104365071D01*
X159588387Y-104365071D02*
X159659816Y-104365071D01*
X159659816Y-104365071D02*
X159707435Y-104341262D01*
X159707435Y-104341262D02*
X159731244Y-104317452D01*
X159731244Y-104317452D02*
X159755054Y-104269833D01*
X159755054Y-104269833D02*
X159755054Y-104079357D01*
X159493149Y-104817452D02*
X159493149Y-104579357D01*
X159493149Y-104579357D02*
X159731244Y-104555548D01*
X159731244Y-104555548D02*
X159707435Y-104579357D01*
X159707435Y-104579357D02*
X159683625Y-104626976D01*
X159683625Y-104626976D02*
X159683625Y-104746024D01*
X159683625Y-104746024D02*
X159707435Y-104793643D01*
X159707435Y-104793643D02*
X159731244Y-104817452D01*
X159731244Y-104817452D02*
X159778863Y-104841262D01*
X159778863Y-104841262D02*
X159897911Y-104841262D01*
X159897911Y-104841262D02*
X159945530Y-104817452D01*
X159945530Y-104817452D02*
X159969340Y-104793643D01*
X159969340Y-104793643D02*
X159993149Y-104746024D01*
X159993149Y-104746024D02*
X159993149Y-104626976D01*
X159993149Y-104626976D02*
X159969340Y-104579357D01*
X159969340Y-104579357D02*
X159945530Y-104555548D01*
X159493149Y-105007928D02*
X159493149Y-105317452D01*
X159493149Y-105317452D02*
X159683625Y-105150785D01*
X159683625Y-105150785D02*
X159683625Y-105222214D01*
X159683625Y-105222214D02*
X159707435Y-105269833D01*
X159707435Y-105269833D02*
X159731244Y-105293642D01*
X159731244Y-105293642D02*
X159778863Y-105317452D01*
X159778863Y-105317452D02*
X159897911Y-105317452D01*
X159897911Y-105317452D02*
X159945530Y-105293642D01*
X159945530Y-105293642D02*
X159969340Y-105269833D01*
X159969340Y-105269833D02*
X159993149Y-105222214D01*
X159993149Y-105222214D02*
X159993149Y-105079357D01*
X159993149Y-105079357D02*
X159969340Y-105031738D01*
X159969340Y-105031738D02*
X159945530Y-105007928D01*
D10*
X154973664Y-88893714D02*
X155011760Y-88855618D01*
X155011760Y-88855618D02*
X155049855Y-88741333D01*
X155049855Y-88741333D02*
X155049855Y-88665142D01*
X155049855Y-88665142D02*
X155011760Y-88550856D01*
X155011760Y-88550856D02*
X154935569Y-88474666D01*
X154935569Y-88474666D02*
X154859379Y-88436571D01*
X154859379Y-88436571D02*
X154706998Y-88398475D01*
X154706998Y-88398475D02*
X154592712Y-88398475D01*
X154592712Y-88398475D02*
X154440331Y-88436571D01*
X154440331Y-88436571D02*
X154364140Y-88474666D01*
X154364140Y-88474666D02*
X154287950Y-88550856D01*
X154287950Y-88550856D02*
X154249855Y-88665142D01*
X154249855Y-88665142D02*
X154249855Y-88741333D01*
X154249855Y-88741333D02*
X154287950Y-88855618D01*
X154287950Y-88855618D02*
X154326045Y-88893714D01*
X155049855Y-89655618D02*
X155049855Y-89198475D01*
X155049855Y-89427047D02*
X154249855Y-89427047D01*
X154249855Y-89427047D02*
X154364140Y-89350856D01*
X154364140Y-89350856D02*
X154440331Y-89274666D01*
X154440331Y-89274666D02*
X154478426Y-89198475D01*
X154592712Y-90112761D02*
X154554617Y-90036571D01*
X154554617Y-90036571D02*
X154516521Y-89998476D01*
X154516521Y-89998476D02*
X154440331Y-89960380D01*
X154440331Y-89960380D02*
X154402236Y-89960380D01*
X154402236Y-89960380D02*
X154326045Y-89998476D01*
X154326045Y-89998476D02*
X154287950Y-90036571D01*
X154287950Y-90036571D02*
X154249855Y-90112761D01*
X154249855Y-90112761D02*
X154249855Y-90265142D01*
X154249855Y-90265142D02*
X154287950Y-90341333D01*
X154287950Y-90341333D02*
X154326045Y-90379428D01*
X154326045Y-90379428D02*
X154402236Y-90417523D01*
X154402236Y-90417523D02*
X154440331Y-90417523D01*
X154440331Y-90417523D02*
X154516521Y-90379428D01*
X154516521Y-90379428D02*
X154554617Y-90341333D01*
X154554617Y-90341333D02*
X154592712Y-90265142D01*
X154592712Y-90265142D02*
X154592712Y-90112761D01*
X154592712Y-90112761D02*
X154630807Y-90036571D01*
X154630807Y-90036571D02*
X154668902Y-89998476D01*
X154668902Y-89998476D02*
X154745093Y-89960380D01*
X154745093Y-89960380D02*
X154897474Y-89960380D01*
X154897474Y-89960380D02*
X154973664Y-89998476D01*
X154973664Y-89998476D02*
X155011760Y-90036571D01*
X155011760Y-90036571D02*
X155049855Y-90112761D01*
X155049855Y-90112761D02*
X155049855Y-90265142D01*
X155049855Y-90265142D02*
X155011760Y-90341333D01*
X155011760Y-90341333D02*
X154973664Y-90379428D01*
X154973664Y-90379428D02*
X154897474Y-90417523D01*
X154897474Y-90417523D02*
X154745093Y-90417523D01*
X154745093Y-90417523D02*
X154668902Y-90379428D01*
X154668902Y-90379428D02*
X154630807Y-90341333D01*
X154630807Y-90341333D02*
X154592712Y-90265142D01*
X154973664Y-134613714D02*
X155011760Y-134575618D01*
X155011760Y-134575618D02*
X155049855Y-134461333D01*
X155049855Y-134461333D02*
X155049855Y-134385142D01*
X155049855Y-134385142D02*
X155011760Y-134270856D01*
X155011760Y-134270856D02*
X154935569Y-134194666D01*
X154935569Y-134194666D02*
X154859379Y-134156571D01*
X154859379Y-134156571D02*
X154706998Y-134118475D01*
X154706998Y-134118475D02*
X154592712Y-134118475D01*
X154592712Y-134118475D02*
X154440331Y-134156571D01*
X154440331Y-134156571D02*
X154364140Y-134194666D01*
X154364140Y-134194666D02*
X154287950Y-134270856D01*
X154287950Y-134270856D02*
X154249855Y-134385142D01*
X154249855Y-134385142D02*
X154249855Y-134461333D01*
X154249855Y-134461333D02*
X154287950Y-134575618D01*
X154287950Y-134575618D02*
X154326045Y-134613714D01*
X154326045Y-134918475D02*
X154287950Y-134956571D01*
X154287950Y-134956571D02*
X154249855Y-135032761D01*
X154249855Y-135032761D02*
X154249855Y-135223237D01*
X154249855Y-135223237D02*
X154287950Y-135299428D01*
X154287950Y-135299428D02*
X154326045Y-135337523D01*
X154326045Y-135337523D02*
X154402236Y-135375618D01*
X154402236Y-135375618D02*
X154478426Y-135375618D01*
X154478426Y-135375618D02*
X154592712Y-135337523D01*
X154592712Y-135337523D02*
X155049855Y-134880380D01*
X155049855Y-134880380D02*
X155049855Y-135375618D01*
X154516521Y-136061333D02*
X155049855Y-136061333D01*
X154211760Y-135870857D02*
X154783188Y-135680380D01*
X154783188Y-135680380D02*
X154783188Y-136175619D01*
D11*
X150181428Y-83539149D02*
X150348094Y-83301054D01*
X150467142Y-83539149D02*
X150467142Y-83039149D01*
X150467142Y-83039149D02*
X150276666Y-83039149D01*
X150276666Y-83039149D02*
X150229047Y-83062959D01*
X150229047Y-83062959D02*
X150205237Y-83086768D01*
X150205237Y-83086768D02*
X150181428Y-83134387D01*
X150181428Y-83134387D02*
X150181428Y-83205816D01*
X150181428Y-83205816D02*
X150205237Y-83253435D01*
X150205237Y-83253435D02*
X150229047Y-83277244D01*
X150229047Y-83277244D02*
X150276666Y-83301054D01*
X150276666Y-83301054D02*
X150467142Y-83301054D01*
X149752856Y-83039149D02*
X149848094Y-83039149D01*
X149848094Y-83039149D02*
X149895713Y-83062959D01*
X149895713Y-83062959D02*
X149919523Y-83086768D01*
X149919523Y-83086768D02*
X149967142Y-83158197D01*
X149967142Y-83158197D02*
X149990951Y-83253435D01*
X149990951Y-83253435D02*
X149990951Y-83443911D01*
X149990951Y-83443911D02*
X149967142Y-83491530D01*
X149967142Y-83491530D02*
X149943332Y-83515340D01*
X149943332Y-83515340D02*
X149895713Y-83539149D01*
X149895713Y-83539149D02*
X149800475Y-83539149D01*
X149800475Y-83539149D02*
X149752856Y-83515340D01*
X149752856Y-83515340D02*
X149729047Y-83491530D01*
X149729047Y-83491530D02*
X149705237Y-83443911D01*
X149705237Y-83443911D02*
X149705237Y-83324863D01*
X149705237Y-83324863D02*
X149729047Y-83277244D01*
X149729047Y-83277244D02*
X149752856Y-83253435D01*
X149752856Y-83253435D02*
X149800475Y-83229625D01*
X149800475Y-83229625D02*
X149895713Y-83229625D01*
X149895713Y-83229625D02*
X149943332Y-83253435D01*
X149943332Y-83253435D02*
X149967142Y-83277244D01*
X149967142Y-83277244D02*
X149990951Y-83324863D01*
X149276666Y-83039149D02*
X149371904Y-83039149D01*
X149371904Y-83039149D02*
X149419523Y-83062959D01*
X149419523Y-83062959D02*
X149443333Y-83086768D01*
X149443333Y-83086768D02*
X149490952Y-83158197D01*
X149490952Y-83158197D02*
X149514761Y-83253435D01*
X149514761Y-83253435D02*
X149514761Y-83443911D01*
X149514761Y-83443911D02*
X149490952Y-83491530D01*
X149490952Y-83491530D02*
X149467142Y-83515340D01*
X149467142Y-83515340D02*
X149419523Y-83539149D01*
X149419523Y-83539149D02*
X149324285Y-83539149D01*
X149324285Y-83539149D02*
X149276666Y-83515340D01*
X149276666Y-83515340D02*
X149252857Y-83491530D01*
X149252857Y-83491530D02*
X149229047Y-83443911D01*
X149229047Y-83443911D02*
X149229047Y-83324863D01*
X149229047Y-83324863D02*
X149252857Y-83277244D01*
X149252857Y-83277244D02*
X149276666Y-83253435D01*
X149276666Y-83253435D02*
X149324285Y-83229625D01*
X149324285Y-83229625D02*
X149419523Y-83229625D01*
X149419523Y-83229625D02*
X149467142Y-83253435D01*
X149467142Y-83253435D02*
X149490952Y-83277244D01*
X149490952Y-83277244D02*
X149514761Y-83324863D01*
X150181428Y-91159149D02*
X150348094Y-90921054D01*
X150467142Y-91159149D02*
X150467142Y-90659149D01*
X150467142Y-90659149D02*
X150276666Y-90659149D01*
X150276666Y-90659149D02*
X150229047Y-90682959D01*
X150229047Y-90682959D02*
X150205237Y-90706768D01*
X150205237Y-90706768D02*
X150181428Y-90754387D01*
X150181428Y-90754387D02*
X150181428Y-90825816D01*
X150181428Y-90825816D02*
X150205237Y-90873435D01*
X150205237Y-90873435D02*
X150229047Y-90897244D01*
X150229047Y-90897244D02*
X150276666Y-90921054D01*
X150276666Y-90921054D02*
X150467142Y-90921054D01*
X149752856Y-90659149D02*
X149848094Y-90659149D01*
X149848094Y-90659149D02*
X149895713Y-90682959D01*
X149895713Y-90682959D02*
X149919523Y-90706768D01*
X149919523Y-90706768D02*
X149967142Y-90778197D01*
X149967142Y-90778197D02*
X149990951Y-90873435D01*
X149990951Y-90873435D02*
X149990951Y-91063911D01*
X149990951Y-91063911D02*
X149967142Y-91111530D01*
X149967142Y-91111530D02*
X149943332Y-91135340D01*
X149943332Y-91135340D02*
X149895713Y-91159149D01*
X149895713Y-91159149D02*
X149800475Y-91159149D01*
X149800475Y-91159149D02*
X149752856Y-91135340D01*
X149752856Y-91135340D02*
X149729047Y-91111530D01*
X149729047Y-91111530D02*
X149705237Y-91063911D01*
X149705237Y-91063911D02*
X149705237Y-90944863D01*
X149705237Y-90944863D02*
X149729047Y-90897244D01*
X149729047Y-90897244D02*
X149752856Y-90873435D01*
X149752856Y-90873435D02*
X149800475Y-90849625D01*
X149800475Y-90849625D02*
X149895713Y-90849625D01*
X149895713Y-90849625D02*
X149943332Y-90873435D01*
X149943332Y-90873435D02*
X149967142Y-90897244D01*
X149967142Y-90897244D02*
X149990951Y-90944863D01*
X149538571Y-90659149D02*
X149205238Y-90659149D01*
X149205238Y-90659149D02*
X149419523Y-91159149D01*
X157453149Y-111985071D02*
X157215054Y-111818405D01*
X157453149Y-111699357D02*
X156953149Y-111699357D01*
X156953149Y-111699357D02*
X156953149Y-111889833D01*
X156953149Y-111889833D02*
X156976959Y-111937452D01*
X156976959Y-111937452D02*
X157000768Y-111961262D01*
X157000768Y-111961262D02*
X157048387Y-111985071D01*
X157048387Y-111985071D02*
X157119816Y-111985071D01*
X157119816Y-111985071D02*
X157167435Y-111961262D01*
X157167435Y-111961262D02*
X157191244Y-111937452D01*
X157191244Y-111937452D02*
X157215054Y-111889833D01*
X157215054Y-111889833D02*
X157215054Y-111699357D01*
X156953149Y-112413643D02*
X156953149Y-112318405D01*
X156953149Y-112318405D02*
X156976959Y-112270786D01*
X156976959Y-112270786D02*
X157000768Y-112246976D01*
X157000768Y-112246976D02*
X157072197Y-112199357D01*
X157072197Y-112199357D02*
X157167435Y-112175548D01*
X157167435Y-112175548D02*
X157357911Y-112175548D01*
X157357911Y-112175548D02*
X157405530Y-112199357D01*
X157405530Y-112199357D02*
X157429340Y-112223167D01*
X157429340Y-112223167D02*
X157453149Y-112270786D01*
X157453149Y-112270786D02*
X157453149Y-112366024D01*
X157453149Y-112366024D02*
X157429340Y-112413643D01*
X157429340Y-112413643D02*
X157405530Y-112437452D01*
X157405530Y-112437452D02*
X157357911Y-112461262D01*
X157357911Y-112461262D02*
X157238863Y-112461262D01*
X157238863Y-112461262D02*
X157191244Y-112437452D01*
X157191244Y-112437452D02*
X157167435Y-112413643D01*
X157167435Y-112413643D02*
X157143625Y-112366024D01*
X157143625Y-112366024D02*
X157143625Y-112270786D01*
X157143625Y-112270786D02*
X157167435Y-112223167D01*
X157167435Y-112223167D02*
X157191244Y-112199357D01*
X157191244Y-112199357D02*
X157238863Y-112175548D01*
X157000768Y-112651738D02*
X156976959Y-112675547D01*
X156976959Y-112675547D02*
X156953149Y-112723166D01*
X156953149Y-112723166D02*
X156953149Y-112842214D01*
X156953149Y-112842214D02*
X156976959Y-112889833D01*
X156976959Y-112889833D02*
X157000768Y-112913642D01*
X157000768Y-112913642D02*
X157048387Y-112937452D01*
X157048387Y-112937452D02*
X157096006Y-112937452D01*
X157096006Y-112937452D02*
X157167435Y-112913642D01*
X157167435Y-112913642D02*
X157453149Y-112627928D01*
X157453149Y-112627928D02*
X157453149Y-112937452D01*
D12*
X105626819Y-98726666D02*
X106341104Y-98726666D01*
X106341104Y-98726666D02*
X106483961Y-98679047D01*
X106483961Y-98679047D02*
X106579200Y-98583809D01*
X106579200Y-98583809D02*
X106626819Y-98440952D01*
X106626819Y-98440952D02*
X106626819Y-98345714D01*
X105626819Y-99679047D02*
X105626819Y-99202857D01*
X105626819Y-99202857D02*
X106103009Y-99155238D01*
X106103009Y-99155238D02*
X106055390Y-99202857D01*
X106055390Y-99202857D02*
X106007771Y-99298095D01*
X106007771Y-99298095D02*
X106007771Y-99536190D01*
X106007771Y-99536190D02*
X106055390Y-99631428D01*
X106055390Y-99631428D02*
X106103009Y-99679047D01*
X106103009Y-99679047D02*
X106198247Y-99726666D01*
X106198247Y-99726666D02*
X106436342Y-99726666D01*
X106436342Y-99726666D02*
X106531580Y-99679047D01*
X106531580Y-99679047D02*
X106579200Y-99631428D01*
X106579200Y-99631428D02*
X106626819Y-99536190D01*
X106626819Y-99536190D02*
X106626819Y-99298095D01*
X106626819Y-99298095D02*
X106579200Y-99202857D01*
X106579200Y-99202857D02*
X106531580Y-99155238D01*
D11*
X150181428Y-137133149D02*
X150348094Y-136895054D01*
X150467142Y-137133149D02*
X150467142Y-136633149D01*
X150467142Y-136633149D02*
X150276666Y-136633149D01*
X150276666Y-136633149D02*
X150229047Y-136656959D01*
X150229047Y-136656959D02*
X150205237Y-136680768D01*
X150205237Y-136680768D02*
X150181428Y-136728387D01*
X150181428Y-136728387D02*
X150181428Y-136799816D01*
X150181428Y-136799816D02*
X150205237Y-136847435D01*
X150205237Y-136847435D02*
X150229047Y-136871244D01*
X150229047Y-136871244D02*
X150276666Y-136895054D01*
X150276666Y-136895054D02*
X150467142Y-136895054D01*
X150014761Y-136633149D02*
X149681428Y-136633149D01*
X149681428Y-136633149D02*
X149895713Y-137133149D01*
X149538571Y-136633149D02*
X149229047Y-136633149D01*
X149229047Y-136633149D02*
X149395714Y-136823625D01*
X149395714Y-136823625D02*
X149324285Y-136823625D01*
X149324285Y-136823625D02*
X149276666Y-136847435D01*
X149276666Y-136847435D02*
X149252857Y-136871244D01*
X149252857Y-136871244D02*
X149229047Y-136918863D01*
X149229047Y-136918863D02*
X149229047Y-137037911D01*
X149229047Y-137037911D02*
X149252857Y-137085530D01*
X149252857Y-137085530D02*
X149276666Y-137109340D01*
X149276666Y-137109340D02*
X149324285Y-137133149D01*
X149324285Y-137133149D02*
X149467142Y-137133149D01*
X149467142Y-137133149D02*
X149514761Y-137109340D01*
X149514761Y-137109340D02*
X149538571Y-137085530D01*
X159993149Y-89125071D02*
X159755054Y-88958405D01*
X159993149Y-88839357D02*
X159493149Y-88839357D01*
X159493149Y-88839357D02*
X159493149Y-89029833D01*
X159493149Y-89029833D02*
X159516959Y-89077452D01*
X159516959Y-89077452D02*
X159540768Y-89101262D01*
X159540768Y-89101262D02*
X159588387Y-89125071D01*
X159588387Y-89125071D02*
X159659816Y-89125071D01*
X159659816Y-89125071D02*
X159707435Y-89101262D01*
X159707435Y-89101262D02*
X159731244Y-89077452D01*
X159731244Y-89077452D02*
X159755054Y-89029833D01*
X159755054Y-89029833D02*
X159755054Y-88839357D01*
X159493149Y-89577452D02*
X159493149Y-89339357D01*
X159493149Y-89339357D02*
X159731244Y-89315548D01*
X159731244Y-89315548D02*
X159707435Y-89339357D01*
X159707435Y-89339357D02*
X159683625Y-89386976D01*
X159683625Y-89386976D02*
X159683625Y-89506024D01*
X159683625Y-89506024D02*
X159707435Y-89553643D01*
X159707435Y-89553643D02*
X159731244Y-89577452D01*
X159731244Y-89577452D02*
X159778863Y-89601262D01*
X159778863Y-89601262D02*
X159897911Y-89601262D01*
X159897911Y-89601262D02*
X159945530Y-89577452D01*
X159945530Y-89577452D02*
X159969340Y-89553643D01*
X159969340Y-89553643D02*
X159993149Y-89506024D01*
X159993149Y-89506024D02*
X159993149Y-89386976D01*
X159993149Y-89386976D02*
X159969340Y-89339357D01*
X159969340Y-89339357D02*
X159945530Y-89315548D01*
X159993149Y-90077452D02*
X159993149Y-89791738D01*
X159993149Y-89934595D02*
X159493149Y-89934595D01*
X159493149Y-89934595D02*
X159564578Y-89886976D01*
X159564578Y-89886976D02*
X159612197Y-89839357D01*
X159612197Y-89839357D02*
X159636006Y-89791738D01*
D10*
X154973664Y-111753714D02*
X155011760Y-111715618D01*
X155011760Y-111715618D02*
X155049855Y-111601333D01*
X155049855Y-111601333D02*
X155049855Y-111525142D01*
X155049855Y-111525142D02*
X155011760Y-111410856D01*
X155011760Y-111410856D02*
X154935569Y-111334666D01*
X154935569Y-111334666D02*
X154859379Y-111296571D01*
X154859379Y-111296571D02*
X154706998Y-111258475D01*
X154706998Y-111258475D02*
X154592712Y-111258475D01*
X154592712Y-111258475D02*
X154440331Y-111296571D01*
X154440331Y-111296571D02*
X154364140Y-111334666D01*
X154364140Y-111334666D02*
X154287950Y-111410856D01*
X154287950Y-111410856D02*
X154249855Y-111525142D01*
X154249855Y-111525142D02*
X154249855Y-111601333D01*
X154249855Y-111601333D02*
X154287950Y-111715618D01*
X154287950Y-111715618D02*
X154326045Y-111753714D01*
X154326045Y-112058475D02*
X154287950Y-112096571D01*
X154287950Y-112096571D02*
X154249855Y-112172761D01*
X154249855Y-112172761D02*
X154249855Y-112363237D01*
X154249855Y-112363237D02*
X154287950Y-112439428D01*
X154287950Y-112439428D02*
X154326045Y-112477523D01*
X154326045Y-112477523D02*
X154402236Y-112515618D01*
X154402236Y-112515618D02*
X154478426Y-112515618D01*
X154478426Y-112515618D02*
X154592712Y-112477523D01*
X154592712Y-112477523D02*
X155049855Y-112020380D01*
X155049855Y-112020380D02*
X155049855Y-112515618D01*
X155049855Y-113277523D02*
X155049855Y-112820380D01*
X155049855Y-113048952D02*
X154249855Y-113048952D01*
X154249855Y-113048952D02*
X154364140Y-112972761D01*
X154364140Y-112972761D02*
X154440331Y-112896571D01*
X154440331Y-112896571D02*
X154478426Y-112820380D01*
D11*
X157453149Y-96745071D02*
X157215054Y-96578405D01*
X157453149Y-96459357D02*
X156953149Y-96459357D01*
X156953149Y-96459357D02*
X156953149Y-96649833D01*
X156953149Y-96649833D02*
X156976959Y-96697452D01*
X156976959Y-96697452D02*
X157000768Y-96721262D01*
X157000768Y-96721262D02*
X157048387Y-96745071D01*
X157048387Y-96745071D02*
X157119816Y-96745071D01*
X157119816Y-96745071D02*
X157167435Y-96721262D01*
X157167435Y-96721262D02*
X157191244Y-96697452D01*
X157191244Y-96697452D02*
X157215054Y-96649833D01*
X157215054Y-96649833D02*
X157215054Y-96459357D01*
X156953149Y-97173643D02*
X156953149Y-97078405D01*
X156953149Y-97078405D02*
X156976959Y-97030786D01*
X156976959Y-97030786D02*
X157000768Y-97006976D01*
X157000768Y-97006976D02*
X157072197Y-96959357D01*
X157072197Y-96959357D02*
X157167435Y-96935548D01*
X157167435Y-96935548D02*
X157357911Y-96935548D01*
X157357911Y-96935548D02*
X157405530Y-96959357D01*
X157405530Y-96959357D02*
X157429340Y-96983167D01*
X157429340Y-96983167D02*
X157453149Y-97030786D01*
X157453149Y-97030786D02*
X157453149Y-97126024D01*
X157453149Y-97126024D02*
X157429340Y-97173643D01*
X157429340Y-97173643D02*
X157405530Y-97197452D01*
X157405530Y-97197452D02*
X157357911Y-97221262D01*
X157357911Y-97221262D02*
X157238863Y-97221262D01*
X157238863Y-97221262D02*
X157191244Y-97197452D01*
X157191244Y-97197452D02*
X157167435Y-97173643D01*
X157167435Y-97173643D02*
X157143625Y-97126024D01*
X157143625Y-97126024D02*
X157143625Y-97030786D01*
X157143625Y-97030786D02*
X157167435Y-96983167D01*
X157167435Y-96983167D02*
X157191244Y-96959357D01*
X157191244Y-96959357D02*
X157238863Y-96935548D01*
X156953149Y-97530785D02*
X156953149Y-97578404D01*
X156953149Y-97578404D02*
X156976959Y-97626023D01*
X156976959Y-97626023D02*
X157000768Y-97649833D01*
X157000768Y-97649833D02*
X157048387Y-97673642D01*
X157048387Y-97673642D02*
X157143625Y-97697452D01*
X157143625Y-97697452D02*
X157262673Y-97697452D01*
X157262673Y-97697452D02*
X157357911Y-97673642D01*
X157357911Y-97673642D02*
X157405530Y-97649833D01*
X157405530Y-97649833D02*
X157429340Y-97626023D01*
X157429340Y-97626023D02*
X157453149Y-97578404D01*
X157453149Y-97578404D02*
X157453149Y-97530785D01*
X157453149Y-97530785D02*
X157429340Y-97483166D01*
X157429340Y-97483166D02*
X157405530Y-97459357D01*
X157405530Y-97459357D02*
X157357911Y-97435547D01*
X157357911Y-97435547D02*
X157262673Y-97411738D01*
X157262673Y-97411738D02*
X157143625Y-97411738D01*
X157143625Y-97411738D02*
X157048387Y-97435547D01*
X157048387Y-97435547D02*
X157000768Y-97459357D01*
X157000768Y-97459357D02*
X156976959Y-97483166D01*
X156976959Y-97483166D02*
X156953149Y-97530785D01*
X150181428Y-129259149D02*
X150348094Y-129021054D01*
X150467142Y-129259149D02*
X150467142Y-128759149D01*
X150467142Y-128759149D02*
X150276666Y-128759149D01*
X150276666Y-128759149D02*
X150229047Y-128782959D01*
X150229047Y-128782959D02*
X150205237Y-128806768D01*
X150205237Y-128806768D02*
X150181428Y-128854387D01*
X150181428Y-128854387D02*
X150181428Y-128925816D01*
X150181428Y-128925816D02*
X150205237Y-128973435D01*
X150205237Y-128973435D02*
X150229047Y-128997244D01*
X150229047Y-128997244D02*
X150276666Y-129021054D01*
X150276666Y-129021054D02*
X150467142Y-129021054D01*
X150014761Y-128759149D02*
X149681428Y-128759149D01*
X149681428Y-128759149D02*
X149895713Y-129259149D01*
X149514761Y-128806768D02*
X149490952Y-128782959D01*
X149490952Y-128782959D02*
X149443333Y-128759149D01*
X149443333Y-128759149D02*
X149324285Y-128759149D01*
X149324285Y-128759149D02*
X149276666Y-128782959D01*
X149276666Y-128782959D02*
X149252857Y-128806768D01*
X149252857Y-128806768D02*
X149229047Y-128854387D01*
X149229047Y-128854387D02*
X149229047Y-128902006D01*
X149229047Y-128902006D02*
X149252857Y-128973435D01*
X149252857Y-128973435D02*
X149538571Y-129259149D01*
X149538571Y-129259149D02*
X149229047Y-129259149D01*
D10*
X154973664Y-119373714D02*
X155011760Y-119335618D01*
X155011760Y-119335618D02*
X155049855Y-119221333D01*
X155049855Y-119221333D02*
X155049855Y-119145142D01*
X155049855Y-119145142D02*
X155011760Y-119030856D01*
X155011760Y-119030856D02*
X154935569Y-118954666D01*
X154935569Y-118954666D02*
X154859379Y-118916571D01*
X154859379Y-118916571D02*
X154706998Y-118878475D01*
X154706998Y-118878475D02*
X154592712Y-118878475D01*
X154592712Y-118878475D02*
X154440331Y-118916571D01*
X154440331Y-118916571D02*
X154364140Y-118954666D01*
X154364140Y-118954666D02*
X154287950Y-119030856D01*
X154287950Y-119030856D02*
X154249855Y-119145142D01*
X154249855Y-119145142D02*
X154249855Y-119221333D01*
X154249855Y-119221333D02*
X154287950Y-119335618D01*
X154287950Y-119335618D02*
X154326045Y-119373714D01*
X154326045Y-119678475D02*
X154287950Y-119716571D01*
X154287950Y-119716571D02*
X154249855Y-119792761D01*
X154249855Y-119792761D02*
X154249855Y-119983237D01*
X154249855Y-119983237D02*
X154287950Y-120059428D01*
X154287950Y-120059428D02*
X154326045Y-120097523D01*
X154326045Y-120097523D02*
X154402236Y-120135618D01*
X154402236Y-120135618D02*
X154478426Y-120135618D01*
X154478426Y-120135618D02*
X154592712Y-120097523D01*
X154592712Y-120097523D02*
X155049855Y-119640380D01*
X155049855Y-119640380D02*
X155049855Y-120135618D01*
X154326045Y-120440380D02*
X154287950Y-120478476D01*
X154287950Y-120478476D02*
X154249855Y-120554666D01*
X154249855Y-120554666D02*
X154249855Y-120745142D01*
X154249855Y-120745142D02*
X154287950Y-120821333D01*
X154287950Y-120821333D02*
X154326045Y-120859428D01*
X154326045Y-120859428D02*
X154402236Y-120897523D01*
X154402236Y-120897523D02*
X154478426Y-120897523D01*
X154478426Y-120897523D02*
X154592712Y-120859428D01*
X154592712Y-120859428D02*
X155049855Y-120402285D01*
X155049855Y-120402285D02*
X155049855Y-120897523D01*
D11*
X162373428Y-79475149D02*
X162540094Y-79237054D01*
X162659142Y-79475149D02*
X162659142Y-78975149D01*
X162659142Y-78975149D02*
X162468666Y-78975149D01*
X162468666Y-78975149D02*
X162421047Y-78998959D01*
X162421047Y-78998959D02*
X162397237Y-79022768D01*
X162397237Y-79022768D02*
X162373428Y-79070387D01*
X162373428Y-79070387D02*
X162373428Y-79141816D01*
X162373428Y-79141816D02*
X162397237Y-79189435D01*
X162397237Y-79189435D02*
X162421047Y-79213244D01*
X162421047Y-79213244D02*
X162468666Y-79237054D01*
X162468666Y-79237054D02*
X162659142Y-79237054D01*
X161921047Y-78975149D02*
X162159142Y-78975149D01*
X162159142Y-78975149D02*
X162182951Y-79213244D01*
X162182951Y-79213244D02*
X162159142Y-79189435D01*
X162159142Y-79189435D02*
X162111523Y-79165625D01*
X162111523Y-79165625D02*
X161992475Y-79165625D01*
X161992475Y-79165625D02*
X161944856Y-79189435D01*
X161944856Y-79189435D02*
X161921047Y-79213244D01*
X161921047Y-79213244D02*
X161897237Y-79260863D01*
X161897237Y-79260863D02*
X161897237Y-79379911D01*
X161897237Y-79379911D02*
X161921047Y-79427530D01*
X161921047Y-79427530D02*
X161944856Y-79451340D01*
X161944856Y-79451340D02*
X161992475Y-79475149D01*
X161992475Y-79475149D02*
X162111523Y-79475149D01*
X162111523Y-79475149D02*
X162159142Y-79451340D01*
X162159142Y-79451340D02*
X162182951Y-79427530D01*
X161587714Y-78975149D02*
X161540095Y-78975149D01*
X161540095Y-78975149D02*
X161492476Y-78998959D01*
X161492476Y-78998959D02*
X161468666Y-79022768D01*
X161468666Y-79022768D02*
X161444857Y-79070387D01*
X161444857Y-79070387D02*
X161421047Y-79165625D01*
X161421047Y-79165625D02*
X161421047Y-79284673D01*
X161421047Y-79284673D02*
X161444857Y-79379911D01*
X161444857Y-79379911D02*
X161468666Y-79427530D01*
X161468666Y-79427530D02*
X161492476Y-79451340D01*
X161492476Y-79451340D02*
X161540095Y-79475149D01*
X161540095Y-79475149D02*
X161587714Y-79475149D01*
X161587714Y-79475149D02*
X161635333Y-79451340D01*
X161635333Y-79451340D02*
X161659142Y-79427530D01*
X161659142Y-79427530D02*
X161682952Y-79379911D01*
X161682952Y-79379911D02*
X161706761Y-79284673D01*
X161706761Y-79284673D02*
X161706761Y-79165625D01*
X161706761Y-79165625D02*
X161682952Y-79070387D01*
X161682952Y-79070387D02*
X161659142Y-79022768D01*
X161659142Y-79022768D02*
X161635333Y-78998959D01*
X161635333Y-78998959D02*
X161587714Y-78975149D01*
X159993149Y-96745071D02*
X159755054Y-96578405D01*
X159993149Y-96459357D02*
X159493149Y-96459357D01*
X159493149Y-96459357D02*
X159493149Y-96649833D01*
X159493149Y-96649833D02*
X159516959Y-96697452D01*
X159516959Y-96697452D02*
X159540768Y-96721262D01*
X159540768Y-96721262D02*
X159588387Y-96745071D01*
X159588387Y-96745071D02*
X159659816Y-96745071D01*
X159659816Y-96745071D02*
X159707435Y-96721262D01*
X159707435Y-96721262D02*
X159731244Y-96697452D01*
X159731244Y-96697452D02*
X159755054Y-96649833D01*
X159755054Y-96649833D02*
X159755054Y-96459357D01*
X159493149Y-97197452D02*
X159493149Y-96959357D01*
X159493149Y-96959357D02*
X159731244Y-96935548D01*
X159731244Y-96935548D02*
X159707435Y-96959357D01*
X159707435Y-96959357D02*
X159683625Y-97006976D01*
X159683625Y-97006976D02*
X159683625Y-97126024D01*
X159683625Y-97126024D02*
X159707435Y-97173643D01*
X159707435Y-97173643D02*
X159731244Y-97197452D01*
X159731244Y-97197452D02*
X159778863Y-97221262D01*
X159778863Y-97221262D02*
X159897911Y-97221262D01*
X159897911Y-97221262D02*
X159945530Y-97197452D01*
X159945530Y-97197452D02*
X159969340Y-97173643D01*
X159969340Y-97173643D02*
X159993149Y-97126024D01*
X159993149Y-97126024D02*
X159993149Y-97006976D01*
X159993149Y-97006976D02*
X159969340Y-96959357D01*
X159969340Y-96959357D02*
X159945530Y-96935548D01*
X159540768Y-97411738D02*
X159516959Y-97435547D01*
X159516959Y-97435547D02*
X159493149Y-97483166D01*
X159493149Y-97483166D02*
X159493149Y-97602214D01*
X159493149Y-97602214D02*
X159516959Y-97649833D01*
X159516959Y-97649833D02*
X159540768Y-97673642D01*
X159540768Y-97673642D02*
X159588387Y-97697452D01*
X159588387Y-97697452D02*
X159636006Y-97697452D01*
X159636006Y-97697452D02*
X159707435Y-97673642D01*
X159707435Y-97673642D02*
X159993149Y-97387928D01*
X159993149Y-97387928D02*
X159993149Y-97697452D01*
X159993149Y-111985071D02*
X159755054Y-111818405D01*
X159993149Y-111699357D02*
X159493149Y-111699357D01*
X159493149Y-111699357D02*
X159493149Y-111889833D01*
X159493149Y-111889833D02*
X159516959Y-111937452D01*
X159516959Y-111937452D02*
X159540768Y-111961262D01*
X159540768Y-111961262D02*
X159588387Y-111985071D01*
X159588387Y-111985071D02*
X159659816Y-111985071D01*
X159659816Y-111985071D02*
X159707435Y-111961262D01*
X159707435Y-111961262D02*
X159731244Y-111937452D01*
X159731244Y-111937452D02*
X159755054Y-111889833D01*
X159755054Y-111889833D02*
X159755054Y-111699357D01*
X159493149Y-112437452D02*
X159493149Y-112199357D01*
X159493149Y-112199357D02*
X159731244Y-112175548D01*
X159731244Y-112175548D02*
X159707435Y-112199357D01*
X159707435Y-112199357D02*
X159683625Y-112246976D01*
X159683625Y-112246976D02*
X159683625Y-112366024D01*
X159683625Y-112366024D02*
X159707435Y-112413643D01*
X159707435Y-112413643D02*
X159731244Y-112437452D01*
X159731244Y-112437452D02*
X159778863Y-112461262D01*
X159778863Y-112461262D02*
X159897911Y-112461262D01*
X159897911Y-112461262D02*
X159945530Y-112437452D01*
X159945530Y-112437452D02*
X159969340Y-112413643D01*
X159969340Y-112413643D02*
X159993149Y-112366024D01*
X159993149Y-112366024D02*
X159993149Y-112246976D01*
X159993149Y-112246976D02*
X159969340Y-112199357D01*
X159969340Y-112199357D02*
X159945530Y-112175548D01*
X159659816Y-112889833D02*
X159993149Y-112889833D01*
X159469340Y-112770785D02*
X159826482Y-112651738D01*
X159826482Y-112651738D02*
X159826482Y-112961261D01*
X159993149Y-119605071D02*
X159755054Y-119438405D01*
X159993149Y-119319357D02*
X159493149Y-119319357D01*
X159493149Y-119319357D02*
X159493149Y-119509833D01*
X159493149Y-119509833D02*
X159516959Y-119557452D01*
X159516959Y-119557452D02*
X159540768Y-119581262D01*
X159540768Y-119581262D02*
X159588387Y-119605071D01*
X159588387Y-119605071D02*
X159659816Y-119605071D01*
X159659816Y-119605071D02*
X159707435Y-119581262D01*
X159707435Y-119581262D02*
X159731244Y-119557452D01*
X159731244Y-119557452D02*
X159755054Y-119509833D01*
X159755054Y-119509833D02*
X159755054Y-119319357D01*
X159493149Y-120057452D02*
X159493149Y-119819357D01*
X159493149Y-119819357D02*
X159731244Y-119795548D01*
X159731244Y-119795548D02*
X159707435Y-119819357D01*
X159707435Y-119819357D02*
X159683625Y-119866976D01*
X159683625Y-119866976D02*
X159683625Y-119986024D01*
X159683625Y-119986024D02*
X159707435Y-120033643D01*
X159707435Y-120033643D02*
X159731244Y-120057452D01*
X159731244Y-120057452D02*
X159778863Y-120081262D01*
X159778863Y-120081262D02*
X159897911Y-120081262D01*
X159897911Y-120081262D02*
X159945530Y-120057452D01*
X159945530Y-120057452D02*
X159969340Y-120033643D01*
X159969340Y-120033643D02*
X159993149Y-119986024D01*
X159993149Y-119986024D02*
X159993149Y-119866976D01*
X159993149Y-119866976D02*
X159969340Y-119819357D01*
X159969340Y-119819357D02*
X159945530Y-119795548D01*
X159493149Y-120533642D02*
X159493149Y-120295547D01*
X159493149Y-120295547D02*
X159731244Y-120271738D01*
X159731244Y-120271738D02*
X159707435Y-120295547D01*
X159707435Y-120295547D02*
X159683625Y-120343166D01*
X159683625Y-120343166D02*
X159683625Y-120462214D01*
X159683625Y-120462214D02*
X159707435Y-120509833D01*
X159707435Y-120509833D02*
X159731244Y-120533642D01*
X159731244Y-120533642D02*
X159778863Y-120557452D01*
X159778863Y-120557452D02*
X159897911Y-120557452D01*
X159897911Y-120557452D02*
X159945530Y-120533642D01*
X159945530Y-120533642D02*
X159969340Y-120509833D01*
X159969340Y-120509833D02*
X159993149Y-120462214D01*
X159993149Y-120462214D02*
X159993149Y-120343166D01*
X159993149Y-120343166D02*
X159969340Y-120295547D01*
X159969340Y-120295547D02*
X159945530Y-120271738D01*
X150181428Y-98779149D02*
X150348094Y-98541054D01*
X150467142Y-98779149D02*
X150467142Y-98279149D01*
X150467142Y-98279149D02*
X150276666Y-98279149D01*
X150276666Y-98279149D02*
X150229047Y-98302959D01*
X150229047Y-98302959D02*
X150205237Y-98326768D01*
X150205237Y-98326768D02*
X150181428Y-98374387D01*
X150181428Y-98374387D02*
X150181428Y-98445816D01*
X150181428Y-98445816D02*
X150205237Y-98493435D01*
X150205237Y-98493435D02*
X150229047Y-98517244D01*
X150229047Y-98517244D02*
X150276666Y-98541054D01*
X150276666Y-98541054D02*
X150467142Y-98541054D01*
X149752856Y-98279149D02*
X149848094Y-98279149D01*
X149848094Y-98279149D02*
X149895713Y-98302959D01*
X149895713Y-98302959D02*
X149919523Y-98326768D01*
X149919523Y-98326768D02*
X149967142Y-98398197D01*
X149967142Y-98398197D02*
X149990951Y-98493435D01*
X149990951Y-98493435D02*
X149990951Y-98683911D01*
X149990951Y-98683911D02*
X149967142Y-98731530D01*
X149967142Y-98731530D02*
X149943332Y-98755340D01*
X149943332Y-98755340D02*
X149895713Y-98779149D01*
X149895713Y-98779149D02*
X149800475Y-98779149D01*
X149800475Y-98779149D02*
X149752856Y-98755340D01*
X149752856Y-98755340D02*
X149729047Y-98731530D01*
X149729047Y-98731530D02*
X149705237Y-98683911D01*
X149705237Y-98683911D02*
X149705237Y-98564863D01*
X149705237Y-98564863D02*
X149729047Y-98517244D01*
X149729047Y-98517244D02*
X149752856Y-98493435D01*
X149752856Y-98493435D02*
X149800475Y-98469625D01*
X149800475Y-98469625D02*
X149895713Y-98469625D01*
X149895713Y-98469625D02*
X149943332Y-98493435D01*
X149943332Y-98493435D02*
X149967142Y-98517244D01*
X149967142Y-98517244D02*
X149990951Y-98564863D01*
X149419523Y-98493435D02*
X149467142Y-98469625D01*
X149467142Y-98469625D02*
X149490952Y-98445816D01*
X149490952Y-98445816D02*
X149514761Y-98398197D01*
X149514761Y-98398197D02*
X149514761Y-98374387D01*
X149514761Y-98374387D02*
X149490952Y-98326768D01*
X149490952Y-98326768D02*
X149467142Y-98302959D01*
X149467142Y-98302959D02*
X149419523Y-98279149D01*
X149419523Y-98279149D02*
X149324285Y-98279149D01*
X149324285Y-98279149D02*
X149276666Y-98302959D01*
X149276666Y-98302959D02*
X149252857Y-98326768D01*
X149252857Y-98326768D02*
X149229047Y-98374387D01*
X149229047Y-98374387D02*
X149229047Y-98398197D01*
X149229047Y-98398197D02*
X149252857Y-98445816D01*
X149252857Y-98445816D02*
X149276666Y-98469625D01*
X149276666Y-98469625D02*
X149324285Y-98493435D01*
X149324285Y-98493435D02*
X149419523Y-98493435D01*
X149419523Y-98493435D02*
X149467142Y-98517244D01*
X149467142Y-98517244D02*
X149490952Y-98541054D01*
X149490952Y-98541054D02*
X149514761Y-98588673D01*
X149514761Y-98588673D02*
X149514761Y-98683911D01*
X149514761Y-98683911D02*
X149490952Y-98731530D01*
X149490952Y-98731530D02*
X149467142Y-98755340D01*
X149467142Y-98755340D02*
X149419523Y-98779149D01*
X149419523Y-98779149D02*
X149324285Y-98779149D01*
X149324285Y-98779149D02*
X149276666Y-98755340D01*
X149276666Y-98755340D02*
X149252857Y-98731530D01*
X149252857Y-98731530D02*
X149229047Y-98683911D01*
X149229047Y-98683911D02*
X149229047Y-98588673D01*
X149229047Y-98588673D02*
X149252857Y-98541054D01*
X149252857Y-98541054D02*
X149276666Y-98517244D01*
X149276666Y-98517244D02*
X149324285Y-98493435D01*
X157453149Y-119605071D02*
X157215054Y-119438405D01*
X157453149Y-119319357D02*
X156953149Y-119319357D01*
X156953149Y-119319357D02*
X156953149Y-119509833D01*
X156953149Y-119509833D02*
X156976959Y-119557452D01*
X156976959Y-119557452D02*
X157000768Y-119581262D01*
X157000768Y-119581262D02*
X157048387Y-119605071D01*
X157048387Y-119605071D02*
X157119816Y-119605071D01*
X157119816Y-119605071D02*
X157167435Y-119581262D01*
X157167435Y-119581262D02*
X157191244Y-119557452D01*
X157191244Y-119557452D02*
X157215054Y-119509833D01*
X157215054Y-119509833D02*
X157215054Y-119319357D01*
X156953149Y-120033643D02*
X156953149Y-119938405D01*
X156953149Y-119938405D02*
X156976959Y-119890786D01*
X156976959Y-119890786D02*
X157000768Y-119866976D01*
X157000768Y-119866976D02*
X157072197Y-119819357D01*
X157072197Y-119819357D02*
X157167435Y-119795548D01*
X157167435Y-119795548D02*
X157357911Y-119795548D01*
X157357911Y-119795548D02*
X157405530Y-119819357D01*
X157405530Y-119819357D02*
X157429340Y-119843167D01*
X157429340Y-119843167D02*
X157453149Y-119890786D01*
X157453149Y-119890786D02*
X157453149Y-119986024D01*
X157453149Y-119986024D02*
X157429340Y-120033643D01*
X157429340Y-120033643D02*
X157405530Y-120057452D01*
X157405530Y-120057452D02*
X157357911Y-120081262D01*
X157357911Y-120081262D02*
X157238863Y-120081262D01*
X157238863Y-120081262D02*
X157191244Y-120057452D01*
X157191244Y-120057452D02*
X157167435Y-120033643D01*
X157167435Y-120033643D02*
X157143625Y-119986024D01*
X157143625Y-119986024D02*
X157143625Y-119890786D01*
X157143625Y-119890786D02*
X157167435Y-119843167D01*
X157167435Y-119843167D02*
X157191244Y-119819357D01*
X157191244Y-119819357D02*
X157238863Y-119795548D01*
X156953149Y-120247928D02*
X156953149Y-120557452D01*
X156953149Y-120557452D02*
X157143625Y-120390785D01*
X157143625Y-120390785D02*
X157143625Y-120462214D01*
X157143625Y-120462214D02*
X157167435Y-120509833D01*
X157167435Y-120509833D02*
X157191244Y-120533642D01*
X157191244Y-120533642D02*
X157238863Y-120557452D01*
X157238863Y-120557452D02*
X157357911Y-120557452D01*
X157357911Y-120557452D02*
X157405530Y-120533642D01*
X157405530Y-120533642D02*
X157429340Y-120509833D01*
X157429340Y-120509833D02*
X157453149Y-120462214D01*
X157453149Y-120462214D02*
X157453149Y-120319357D01*
X157453149Y-120319357D02*
X157429340Y-120271738D01*
X157429340Y-120271738D02*
X157405530Y-120247928D01*
D10*
X154973664Y-126993714D02*
X155011760Y-126955618D01*
X155011760Y-126955618D02*
X155049855Y-126841333D01*
X155049855Y-126841333D02*
X155049855Y-126765142D01*
X155049855Y-126765142D02*
X155011760Y-126650856D01*
X155011760Y-126650856D02*
X154935569Y-126574666D01*
X154935569Y-126574666D02*
X154859379Y-126536571D01*
X154859379Y-126536571D02*
X154706998Y-126498475D01*
X154706998Y-126498475D02*
X154592712Y-126498475D01*
X154592712Y-126498475D02*
X154440331Y-126536571D01*
X154440331Y-126536571D02*
X154364140Y-126574666D01*
X154364140Y-126574666D02*
X154287950Y-126650856D01*
X154287950Y-126650856D02*
X154249855Y-126765142D01*
X154249855Y-126765142D02*
X154249855Y-126841333D01*
X154249855Y-126841333D02*
X154287950Y-126955618D01*
X154287950Y-126955618D02*
X154326045Y-126993714D01*
X154326045Y-127298475D02*
X154287950Y-127336571D01*
X154287950Y-127336571D02*
X154249855Y-127412761D01*
X154249855Y-127412761D02*
X154249855Y-127603237D01*
X154249855Y-127603237D02*
X154287950Y-127679428D01*
X154287950Y-127679428D02*
X154326045Y-127717523D01*
X154326045Y-127717523D02*
X154402236Y-127755618D01*
X154402236Y-127755618D02*
X154478426Y-127755618D01*
X154478426Y-127755618D02*
X154592712Y-127717523D01*
X154592712Y-127717523D02*
X155049855Y-127260380D01*
X155049855Y-127260380D02*
X155049855Y-127755618D01*
X154249855Y-128022285D02*
X154249855Y-128517523D01*
X154249855Y-128517523D02*
X154554617Y-128250857D01*
X154554617Y-128250857D02*
X154554617Y-128365142D01*
X154554617Y-128365142D02*
X154592712Y-128441333D01*
X154592712Y-128441333D02*
X154630807Y-128479428D01*
X154630807Y-128479428D02*
X154706998Y-128517523D01*
X154706998Y-128517523D02*
X154897474Y-128517523D01*
X154897474Y-128517523D02*
X154973664Y-128479428D01*
X154973664Y-128479428D02*
X155011760Y-128441333D01*
X155011760Y-128441333D02*
X155049855Y-128365142D01*
X155049855Y-128365142D02*
X155049855Y-128136571D01*
X155049855Y-128136571D02*
X155011760Y-128060380D01*
X155011760Y-128060380D02*
X154973664Y-128022285D01*
D11*
X157453149Y-127225071D02*
X157215054Y-127058405D01*
X157453149Y-126939357D02*
X156953149Y-126939357D01*
X156953149Y-126939357D02*
X156953149Y-127129833D01*
X156953149Y-127129833D02*
X156976959Y-127177452D01*
X156976959Y-127177452D02*
X157000768Y-127201262D01*
X157000768Y-127201262D02*
X157048387Y-127225071D01*
X157048387Y-127225071D02*
X157119816Y-127225071D01*
X157119816Y-127225071D02*
X157167435Y-127201262D01*
X157167435Y-127201262D02*
X157191244Y-127177452D01*
X157191244Y-127177452D02*
X157215054Y-127129833D01*
X157215054Y-127129833D02*
X157215054Y-126939357D01*
X156953149Y-127653643D02*
X156953149Y-127558405D01*
X156953149Y-127558405D02*
X156976959Y-127510786D01*
X156976959Y-127510786D02*
X157000768Y-127486976D01*
X157000768Y-127486976D02*
X157072197Y-127439357D01*
X157072197Y-127439357D02*
X157167435Y-127415548D01*
X157167435Y-127415548D02*
X157357911Y-127415548D01*
X157357911Y-127415548D02*
X157405530Y-127439357D01*
X157405530Y-127439357D02*
X157429340Y-127463167D01*
X157429340Y-127463167D02*
X157453149Y-127510786D01*
X157453149Y-127510786D02*
X157453149Y-127606024D01*
X157453149Y-127606024D02*
X157429340Y-127653643D01*
X157429340Y-127653643D02*
X157405530Y-127677452D01*
X157405530Y-127677452D02*
X157357911Y-127701262D01*
X157357911Y-127701262D02*
X157238863Y-127701262D01*
X157238863Y-127701262D02*
X157191244Y-127677452D01*
X157191244Y-127677452D02*
X157167435Y-127653643D01*
X157167435Y-127653643D02*
X157143625Y-127606024D01*
X157143625Y-127606024D02*
X157143625Y-127510786D01*
X157143625Y-127510786D02*
X157167435Y-127463167D01*
X157167435Y-127463167D02*
X157191244Y-127439357D01*
X157191244Y-127439357D02*
X157238863Y-127415548D01*
X157119816Y-128129833D02*
X157453149Y-128129833D01*
X156929340Y-128010785D02*
X157286482Y-127891738D01*
X157286482Y-127891738D02*
X157286482Y-128201261D01*
X150181428Y-114019149D02*
X150348094Y-113781054D01*
X150467142Y-114019149D02*
X150467142Y-113519149D01*
X150467142Y-113519149D02*
X150276666Y-113519149D01*
X150276666Y-113519149D02*
X150229047Y-113542959D01*
X150229047Y-113542959D02*
X150205237Y-113566768D01*
X150205237Y-113566768D02*
X150181428Y-113614387D01*
X150181428Y-113614387D02*
X150181428Y-113685816D01*
X150181428Y-113685816D02*
X150205237Y-113733435D01*
X150205237Y-113733435D02*
X150229047Y-113757244D01*
X150229047Y-113757244D02*
X150276666Y-113781054D01*
X150276666Y-113781054D02*
X150467142Y-113781054D01*
X150014761Y-113519149D02*
X149681428Y-113519149D01*
X149681428Y-113519149D02*
X149895713Y-114019149D01*
X149395714Y-113519149D02*
X149348095Y-113519149D01*
X149348095Y-113519149D02*
X149300476Y-113542959D01*
X149300476Y-113542959D02*
X149276666Y-113566768D01*
X149276666Y-113566768D02*
X149252857Y-113614387D01*
X149252857Y-113614387D02*
X149229047Y-113709625D01*
X149229047Y-113709625D02*
X149229047Y-113828673D01*
X149229047Y-113828673D02*
X149252857Y-113923911D01*
X149252857Y-113923911D02*
X149276666Y-113971530D01*
X149276666Y-113971530D02*
X149300476Y-113995340D01*
X149300476Y-113995340D02*
X149348095Y-114019149D01*
X149348095Y-114019149D02*
X149395714Y-114019149D01*
X149395714Y-114019149D02*
X149443333Y-113995340D01*
X149443333Y-113995340D02*
X149467142Y-113971530D01*
X149467142Y-113971530D02*
X149490952Y-113923911D01*
X149490952Y-113923911D02*
X149514761Y-113828673D01*
X149514761Y-113828673D02*
X149514761Y-113709625D01*
X149514761Y-113709625D02*
X149490952Y-113614387D01*
X149490952Y-113614387D02*
X149467142Y-113566768D01*
X149467142Y-113566768D02*
X149443333Y-113542959D01*
X149443333Y-113542959D02*
X149395714Y-113519149D01*
X159993149Y-134845071D02*
X159755054Y-134678405D01*
X159993149Y-134559357D02*
X159493149Y-134559357D01*
X159493149Y-134559357D02*
X159493149Y-134749833D01*
X159493149Y-134749833D02*
X159516959Y-134797452D01*
X159516959Y-134797452D02*
X159540768Y-134821262D01*
X159540768Y-134821262D02*
X159588387Y-134845071D01*
X159588387Y-134845071D02*
X159659816Y-134845071D01*
X159659816Y-134845071D02*
X159707435Y-134821262D01*
X159707435Y-134821262D02*
X159731244Y-134797452D01*
X159731244Y-134797452D02*
X159755054Y-134749833D01*
X159755054Y-134749833D02*
X159755054Y-134559357D01*
X159493149Y-135297452D02*
X159493149Y-135059357D01*
X159493149Y-135059357D02*
X159731244Y-135035548D01*
X159731244Y-135035548D02*
X159707435Y-135059357D01*
X159707435Y-135059357D02*
X159683625Y-135106976D01*
X159683625Y-135106976D02*
X159683625Y-135226024D01*
X159683625Y-135226024D02*
X159707435Y-135273643D01*
X159707435Y-135273643D02*
X159731244Y-135297452D01*
X159731244Y-135297452D02*
X159778863Y-135321262D01*
X159778863Y-135321262D02*
X159897911Y-135321262D01*
X159897911Y-135321262D02*
X159945530Y-135297452D01*
X159945530Y-135297452D02*
X159969340Y-135273643D01*
X159969340Y-135273643D02*
X159993149Y-135226024D01*
X159993149Y-135226024D02*
X159993149Y-135106976D01*
X159993149Y-135106976D02*
X159969340Y-135059357D01*
X159969340Y-135059357D02*
X159945530Y-135035548D01*
X159493149Y-135487928D02*
X159493149Y-135821261D01*
X159493149Y-135821261D02*
X159993149Y-135606976D01*
X150181428Y-106399149D02*
X150348094Y-106161054D01*
X150467142Y-106399149D02*
X150467142Y-105899149D01*
X150467142Y-105899149D02*
X150276666Y-105899149D01*
X150276666Y-105899149D02*
X150229047Y-105922959D01*
X150229047Y-105922959D02*
X150205237Y-105946768D01*
X150205237Y-105946768D02*
X150181428Y-105994387D01*
X150181428Y-105994387D02*
X150181428Y-106065816D01*
X150181428Y-106065816D02*
X150205237Y-106113435D01*
X150205237Y-106113435D02*
X150229047Y-106137244D01*
X150229047Y-106137244D02*
X150276666Y-106161054D01*
X150276666Y-106161054D02*
X150467142Y-106161054D01*
X149752856Y-105899149D02*
X149848094Y-105899149D01*
X149848094Y-105899149D02*
X149895713Y-105922959D01*
X149895713Y-105922959D02*
X149919523Y-105946768D01*
X149919523Y-105946768D02*
X149967142Y-106018197D01*
X149967142Y-106018197D02*
X149990951Y-106113435D01*
X149990951Y-106113435D02*
X149990951Y-106303911D01*
X149990951Y-106303911D02*
X149967142Y-106351530D01*
X149967142Y-106351530D02*
X149943332Y-106375340D01*
X149943332Y-106375340D02*
X149895713Y-106399149D01*
X149895713Y-106399149D02*
X149800475Y-106399149D01*
X149800475Y-106399149D02*
X149752856Y-106375340D01*
X149752856Y-106375340D02*
X149729047Y-106351530D01*
X149729047Y-106351530D02*
X149705237Y-106303911D01*
X149705237Y-106303911D02*
X149705237Y-106184863D01*
X149705237Y-106184863D02*
X149729047Y-106137244D01*
X149729047Y-106137244D02*
X149752856Y-106113435D01*
X149752856Y-106113435D02*
X149800475Y-106089625D01*
X149800475Y-106089625D02*
X149895713Y-106089625D01*
X149895713Y-106089625D02*
X149943332Y-106113435D01*
X149943332Y-106113435D02*
X149967142Y-106137244D01*
X149967142Y-106137244D02*
X149990951Y-106184863D01*
X149467142Y-106399149D02*
X149371904Y-106399149D01*
X149371904Y-106399149D02*
X149324285Y-106375340D01*
X149324285Y-106375340D02*
X149300476Y-106351530D01*
X149300476Y-106351530D02*
X149252857Y-106280101D01*
X149252857Y-106280101D02*
X149229047Y-106184863D01*
X149229047Y-106184863D02*
X149229047Y-105994387D01*
X149229047Y-105994387D02*
X149252857Y-105946768D01*
X149252857Y-105946768D02*
X149276666Y-105922959D01*
X149276666Y-105922959D02*
X149324285Y-105899149D01*
X149324285Y-105899149D02*
X149419523Y-105899149D01*
X149419523Y-105899149D02*
X149467142Y-105922959D01*
X149467142Y-105922959D02*
X149490952Y-105946768D01*
X149490952Y-105946768D02*
X149514761Y-105994387D01*
X149514761Y-105994387D02*
X149514761Y-106113435D01*
X149514761Y-106113435D02*
X149490952Y-106161054D01*
X149490952Y-106161054D02*
X149467142Y-106184863D01*
X149467142Y-106184863D02*
X149419523Y-106208673D01*
X149419523Y-106208673D02*
X149324285Y-106208673D01*
X149324285Y-106208673D02*
X149276666Y-106184863D01*
X149276666Y-106184863D02*
X149252857Y-106161054D01*
X149252857Y-106161054D02*
X149229047Y-106113435D01*
X157453149Y-81466571D02*
X157215054Y-81299905D01*
X157453149Y-81180857D02*
X156953149Y-81180857D01*
X156953149Y-81180857D02*
X156953149Y-81371333D01*
X156953149Y-81371333D02*
X156976959Y-81418952D01*
X156976959Y-81418952D02*
X157000768Y-81442762D01*
X157000768Y-81442762D02*
X157048387Y-81466571D01*
X157048387Y-81466571D02*
X157119816Y-81466571D01*
X157119816Y-81466571D02*
X157167435Y-81442762D01*
X157167435Y-81442762D02*
X157191244Y-81418952D01*
X157191244Y-81418952D02*
X157215054Y-81371333D01*
X157215054Y-81371333D02*
X157215054Y-81180857D01*
X156953149Y-81918952D02*
X156953149Y-81680857D01*
X156953149Y-81680857D02*
X157191244Y-81657048D01*
X157191244Y-81657048D02*
X157167435Y-81680857D01*
X157167435Y-81680857D02*
X157143625Y-81728476D01*
X157143625Y-81728476D02*
X157143625Y-81847524D01*
X157143625Y-81847524D02*
X157167435Y-81895143D01*
X157167435Y-81895143D02*
X157191244Y-81918952D01*
X157191244Y-81918952D02*
X157238863Y-81942762D01*
X157238863Y-81942762D02*
X157357911Y-81942762D01*
X157357911Y-81942762D02*
X157405530Y-81918952D01*
X157405530Y-81918952D02*
X157429340Y-81895143D01*
X157429340Y-81895143D02*
X157453149Y-81847524D01*
X157453149Y-81847524D02*
X157453149Y-81728476D01*
X157453149Y-81728476D02*
X157429340Y-81680857D01*
X157429340Y-81680857D02*
X157405530Y-81657048D01*
X157167435Y-82228476D02*
X157143625Y-82180857D01*
X157143625Y-82180857D02*
X157119816Y-82157047D01*
X157119816Y-82157047D02*
X157072197Y-82133238D01*
X157072197Y-82133238D02*
X157048387Y-82133238D01*
X157048387Y-82133238D02*
X157000768Y-82157047D01*
X157000768Y-82157047D02*
X156976959Y-82180857D01*
X156976959Y-82180857D02*
X156953149Y-82228476D01*
X156953149Y-82228476D02*
X156953149Y-82323714D01*
X156953149Y-82323714D02*
X156976959Y-82371333D01*
X156976959Y-82371333D02*
X157000768Y-82395142D01*
X157000768Y-82395142D02*
X157048387Y-82418952D01*
X157048387Y-82418952D02*
X157072197Y-82418952D01*
X157072197Y-82418952D02*
X157119816Y-82395142D01*
X157119816Y-82395142D02*
X157143625Y-82371333D01*
X157143625Y-82371333D02*
X157167435Y-82323714D01*
X157167435Y-82323714D02*
X157167435Y-82228476D01*
X157167435Y-82228476D02*
X157191244Y-82180857D01*
X157191244Y-82180857D02*
X157215054Y-82157047D01*
X157215054Y-82157047D02*
X157262673Y-82133238D01*
X157262673Y-82133238D02*
X157357911Y-82133238D01*
X157357911Y-82133238D02*
X157405530Y-82157047D01*
X157405530Y-82157047D02*
X157429340Y-82180857D01*
X157429340Y-82180857D02*
X157453149Y-82228476D01*
X157453149Y-82228476D02*
X157453149Y-82323714D01*
X157453149Y-82323714D02*
X157429340Y-82371333D01*
X157429340Y-82371333D02*
X157405530Y-82395142D01*
X157405530Y-82395142D02*
X157357911Y-82418952D01*
X157357911Y-82418952D02*
X157262673Y-82418952D01*
X157262673Y-82418952D02*
X157215054Y-82395142D01*
X157215054Y-82395142D02*
X157191244Y-82371333D01*
X157191244Y-82371333D02*
X157167435Y-82323714D01*
X157453149Y-134845071D02*
X157215054Y-134678405D01*
X157453149Y-134559357D02*
X156953149Y-134559357D01*
X156953149Y-134559357D02*
X156953149Y-134749833D01*
X156953149Y-134749833D02*
X156976959Y-134797452D01*
X156976959Y-134797452D02*
X157000768Y-134821262D01*
X157000768Y-134821262D02*
X157048387Y-134845071D01*
X157048387Y-134845071D02*
X157119816Y-134845071D01*
X157119816Y-134845071D02*
X157167435Y-134821262D01*
X157167435Y-134821262D02*
X157191244Y-134797452D01*
X157191244Y-134797452D02*
X157215054Y-134749833D01*
X157215054Y-134749833D02*
X157215054Y-134559357D01*
X156953149Y-135273643D02*
X156953149Y-135178405D01*
X156953149Y-135178405D02*
X156976959Y-135130786D01*
X156976959Y-135130786D02*
X157000768Y-135106976D01*
X157000768Y-135106976D02*
X157072197Y-135059357D01*
X157072197Y-135059357D02*
X157167435Y-135035548D01*
X157167435Y-135035548D02*
X157357911Y-135035548D01*
X157357911Y-135035548D02*
X157405530Y-135059357D01*
X157405530Y-135059357D02*
X157429340Y-135083167D01*
X157429340Y-135083167D02*
X157453149Y-135130786D01*
X157453149Y-135130786D02*
X157453149Y-135226024D01*
X157453149Y-135226024D02*
X157429340Y-135273643D01*
X157429340Y-135273643D02*
X157405530Y-135297452D01*
X157405530Y-135297452D02*
X157357911Y-135321262D01*
X157357911Y-135321262D02*
X157238863Y-135321262D01*
X157238863Y-135321262D02*
X157191244Y-135297452D01*
X157191244Y-135297452D02*
X157167435Y-135273643D01*
X157167435Y-135273643D02*
X157143625Y-135226024D01*
X157143625Y-135226024D02*
X157143625Y-135130786D01*
X157143625Y-135130786D02*
X157167435Y-135083167D01*
X157167435Y-135083167D02*
X157191244Y-135059357D01*
X157191244Y-135059357D02*
X157238863Y-135035548D01*
X156953149Y-135773642D02*
X156953149Y-135535547D01*
X156953149Y-135535547D02*
X157191244Y-135511738D01*
X157191244Y-135511738D02*
X157167435Y-135535547D01*
X157167435Y-135535547D02*
X157143625Y-135583166D01*
X157143625Y-135583166D02*
X157143625Y-135702214D01*
X157143625Y-135702214D02*
X157167435Y-135749833D01*
X157167435Y-135749833D02*
X157191244Y-135773642D01*
X157191244Y-135773642D02*
X157238863Y-135797452D01*
X157238863Y-135797452D02*
X157357911Y-135797452D01*
X157357911Y-135797452D02*
X157405530Y-135773642D01*
X157405530Y-135773642D02*
X157429340Y-135749833D01*
X157429340Y-135749833D02*
X157453149Y-135702214D01*
X157453149Y-135702214D02*
X157453149Y-135583166D01*
X157453149Y-135583166D02*
X157429340Y-135535547D01*
X157429340Y-135535547D02*
X157405530Y-135511738D01*
X157453149Y-89125071D02*
X157215054Y-88958405D01*
X157453149Y-88839357D02*
X156953149Y-88839357D01*
X156953149Y-88839357D02*
X156953149Y-89029833D01*
X156953149Y-89029833D02*
X156976959Y-89077452D01*
X156976959Y-89077452D02*
X157000768Y-89101262D01*
X157000768Y-89101262D02*
X157048387Y-89125071D01*
X157048387Y-89125071D02*
X157119816Y-89125071D01*
X157119816Y-89125071D02*
X157167435Y-89101262D01*
X157167435Y-89101262D02*
X157191244Y-89077452D01*
X157191244Y-89077452D02*
X157215054Y-89029833D01*
X157215054Y-89029833D02*
X157215054Y-88839357D01*
X156953149Y-89577452D02*
X156953149Y-89339357D01*
X156953149Y-89339357D02*
X157191244Y-89315548D01*
X157191244Y-89315548D02*
X157167435Y-89339357D01*
X157167435Y-89339357D02*
X157143625Y-89386976D01*
X157143625Y-89386976D02*
X157143625Y-89506024D01*
X157143625Y-89506024D02*
X157167435Y-89553643D01*
X157167435Y-89553643D02*
X157191244Y-89577452D01*
X157191244Y-89577452D02*
X157238863Y-89601262D01*
X157238863Y-89601262D02*
X157357911Y-89601262D01*
X157357911Y-89601262D02*
X157405530Y-89577452D01*
X157405530Y-89577452D02*
X157429340Y-89553643D01*
X157429340Y-89553643D02*
X157453149Y-89506024D01*
X157453149Y-89506024D02*
X157453149Y-89386976D01*
X157453149Y-89386976D02*
X157429340Y-89339357D01*
X157429340Y-89339357D02*
X157405530Y-89315548D01*
X157453149Y-89839357D02*
X157453149Y-89934595D01*
X157453149Y-89934595D02*
X157429340Y-89982214D01*
X157429340Y-89982214D02*
X157405530Y-90006023D01*
X157405530Y-90006023D02*
X157334101Y-90053642D01*
X157334101Y-90053642D02*
X157238863Y-90077452D01*
X157238863Y-90077452D02*
X157048387Y-90077452D01*
X157048387Y-90077452D02*
X157000768Y-90053642D01*
X157000768Y-90053642D02*
X156976959Y-90029833D01*
X156976959Y-90029833D02*
X156953149Y-89982214D01*
X156953149Y-89982214D02*
X156953149Y-89886976D01*
X156953149Y-89886976D02*
X156976959Y-89839357D01*
X156976959Y-89839357D02*
X157000768Y-89815547D01*
X157000768Y-89815547D02*
X157048387Y-89791738D01*
X157048387Y-89791738D02*
X157167435Y-89791738D01*
X157167435Y-89791738D02*
X157215054Y-89815547D01*
X157215054Y-89815547D02*
X157238863Y-89839357D01*
X157238863Y-89839357D02*
X157262673Y-89886976D01*
X157262673Y-89886976D02*
X157262673Y-89982214D01*
X157262673Y-89982214D02*
X157238863Y-90029833D01*
X157238863Y-90029833D02*
X157215054Y-90053642D01*
X157215054Y-90053642D02*
X157167435Y-90077452D01*
X159993149Y-127225071D02*
X159755054Y-127058405D01*
X159993149Y-126939357D02*
X159493149Y-126939357D01*
X159493149Y-126939357D02*
X159493149Y-127129833D01*
X159493149Y-127129833D02*
X159516959Y-127177452D01*
X159516959Y-127177452D02*
X159540768Y-127201262D01*
X159540768Y-127201262D02*
X159588387Y-127225071D01*
X159588387Y-127225071D02*
X159659816Y-127225071D01*
X159659816Y-127225071D02*
X159707435Y-127201262D01*
X159707435Y-127201262D02*
X159731244Y-127177452D01*
X159731244Y-127177452D02*
X159755054Y-127129833D01*
X159755054Y-127129833D02*
X159755054Y-126939357D01*
X159493149Y-127677452D02*
X159493149Y-127439357D01*
X159493149Y-127439357D02*
X159731244Y-127415548D01*
X159731244Y-127415548D02*
X159707435Y-127439357D01*
X159707435Y-127439357D02*
X159683625Y-127486976D01*
X159683625Y-127486976D02*
X159683625Y-127606024D01*
X159683625Y-127606024D02*
X159707435Y-127653643D01*
X159707435Y-127653643D02*
X159731244Y-127677452D01*
X159731244Y-127677452D02*
X159778863Y-127701262D01*
X159778863Y-127701262D02*
X159897911Y-127701262D01*
X159897911Y-127701262D02*
X159945530Y-127677452D01*
X159945530Y-127677452D02*
X159969340Y-127653643D01*
X159969340Y-127653643D02*
X159993149Y-127606024D01*
X159993149Y-127606024D02*
X159993149Y-127486976D01*
X159993149Y-127486976D02*
X159969340Y-127439357D01*
X159969340Y-127439357D02*
X159945530Y-127415548D01*
X159493149Y-128129833D02*
X159493149Y-128034595D01*
X159493149Y-128034595D02*
X159516959Y-127986976D01*
X159516959Y-127986976D02*
X159540768Y-127963166D01*
X159540768Y-127963166D02*
X159612197Y-127915547D01*
X159612197Y-127915547D02*
X159707435Y-127891738D01*
X159707435Y-127891738D02*
X159897911Y-127891738D01*
X159897911Y-127891738D02*
X159945530Y-127915547D01*
X159945530Y-127915547D02*
X159969340Y-127939357D01*
X159969340Y-127939357D02*
X159993149Y-127986976D01*
X159993149Y-127986976D02*
X159993149Y-128082214D01*
X159993149Y-128082214D02*
X159969340Y-128129833D01*
X159969340Y-128129833D02*
X159945530Y-128153642D01*
X159945530Y-128153642D02*
X159897911Y-128177452D01*
X159897911Y-128177452D02*
X159778863Y-128177452D01*
X159778863Y-128177452D02*
X159731244Y-128153642D01*
X159731244Y-128153642D02*
X159707435Y-128129833D01*
X159707435Y-128129833D02*
X159683625Y-128082214D01*
X159683625Y-128082214D02*
X159683625Y-127986976D01*
X159683625Y-127986976D02*
X159707435Y-127939357D01*
X159707435Y-127939357D02*
X159731244Y-127915547D01*
X159731244Y-127915547D02*
X159778863Y-127891738D01*
X157453149Y-104365071D02*
X157215054Y-104198405D01*
X157453149Y-104079357D02*
X156953149Y-104079357D01*
X156953149Y-104079357D02*
X156953149Y-104269833D01*
X156953149Y-104269833D02*
X156976959Y-104317452D01*
X156976959Y-104317452D02*
X157000768Y-104341262D01*
X157000768Y-104341262D02*
X157048387Y-104365071D01*
X157048387Y-104365071D02*
X157119816Y-104365071D01*
X157119816Y-104365071D02*
X157167435Y-104341262D01*
X157167435Y-104341262D02*
X157191244Y-104317452D01*
X157191244Y-104317452D02*
X157215054Y-104269833D01*
X157215054Y-104269833D02*
X157215054Y-104079357D01*
X156953149Y-104793643D02*
X156953149Y-104698405D01*
X156953149Y-104698405D02*
X156976959Y-104650786D01*
X156976959Y-104650786D02*
X157000768Y-104626976D01*
X157000768Y-104626976D02*
X157072197Y-104579357D01*
X157072197Y-104579357D02*
X157167435Y-104555548D01*
X157167435Y-104555548D02*
X157357911Y-104555548D01*
X157357911Y-104555548D02*
X157405530Y-104579357D01*
X157405530Y-104579357D02*
X157429340Y-104603167D01*
X157429340Y-104603167D02*
X157453149Y-104650786D01*
X157453149Y-104650786D02*
X157453149Y-104746024D01*
X157453149Y-104746024D02*
X157429340Y-104793643D01*
X157429340Y-104793643D02*
X157405530Y-104817452D01*
X157405530Y-104817452D02*
X157357911Y-104841262D01*
X157357911Y-104841262D02*
X157238863Y-104841262D01*
X157238863Y-104841262D02*
X157191244Y-104817452D01*
X157191244Y-104817452D02*
X157167435Y-104793643D01*
X157167435Y-104793643D02*
X157143625Y-104746024D01*
X157143625Y-104746024D02*
X157143625Y-104650786D01*
X157143625Y-104650786D02*
X157167435Y-104603167D01*
X157167435Y-104603167D02*
X157191244Y-104579357D01*
X157191244Y-104579357D02*
X157238863Y-104555548D01*
X157453149Y-105317452D02*
X157453149Y-105031738D01*
X157453149Y-105174595D02*
X156953149Y-105174595D01*
X156953149Y-105174595D02*
X157024578Y-105126976D01*
X157024578Y-105126976D02*
X157072197Y-105079357D01*
X157072197Y-105079357D02*
X157096006Y-105031738D01*
X150181428Y-121639149D02*
X150348094Y-121401054D01*
X150467142Y-121639149D02*
X150467142Y-121139149D01*
X150467142Y-121139149D02*
X150276666Y-121139149D01*
X150276666Y-121139149D02*
X150229047Y-121162959D01*
X150229047Y-121162959D02*
X150205237Y-121186768D01*
X150205237Y-121186768D02*
X150181428Y-121234387D01*
X150181428Y-121234387D02*
X150181428Y-121305816D01*
X150181428Y-121305816D02*
X150205237Y-121353435D01*
X150205237Y-121353435D02*
X150229047Y-121377244D01*
X150229047Y-121377244D02*
X150276666Y-121401054D01*
X150276666Y-121401054D02*
X150467142Y-121401054D01*
X150014761Y-121139149D02*
X149681428Y-121139149D01*
X149681428Y-121139149D02*
X149895713Y-121639149D01*
X149229047Y-121639149D02*
X149514761Y-121639149D01*
X149371904Y-121639149D02*
X149371904Y-121139149D01*
X149371904Y-121139149D02*
X149419523Y-121210578D01*
X149419523Y-121210578D02*
X149467142Y-121258197D01*
X149467142Y-121258197D02*
X149514761Y-121282006D01*
D10*
X154973664Y-81273714D02*
X155011760Y-81235618D01*
X155011760Y-81235618D02*
X155049855Y-81121333D01*
X155049855Y-81121333D02*
X155049855Y-81045142D01*
X155049855Y-81045142D02*
X155011760Y-80930856D01*
X155011760Y-80930856D02*
X154935569Y-80854666D01*
X154935569Y-80854666D02*
X154859379Y-80816571D01*
X154859379Y-80816571D02*
X154706998Y-80778475D01*
X154706998Y-80778475D02*
X154592712Y-80778475D01*
X154592712Y-80778475D02*
X154440331Y-80816571D01*
X154440331Y-80816571D02*
X154364140Y-80854666D01*
X154364140Y-80854666D02*
X154287950Y-80930856D01*
X154287950Y-80930856D02*
X154249855Y-81045142D01*
X154249855Y-81045142D02*
X154249855Y-81121333D01*
X154249855Y-81121333D02*
X154287950Y-81235618D01*
X154287950Y-81235618D02*
X154326045Y-81273714D01*
X155049855Y-82035618D02*
X155049855Y-81578475D01*
X155049855Y-81807047D02*
X154249855Y-81807047D01*
X154249855Y-81807047D02*
X154364140Y-81730856D01*
X154364140Y-81730856D02*
X154440331Y-81654666D01*
X154440331Y-81654666D02*
X154478426Y-81578475D01*
X154249855Y-82302285D02*
X154249855Y-82835619D01*
X154249855Y-82835619D02*
X155049855Y-82492761D01*
X154973664Y-104133714D02*
X155011760Y-104095618D01*
X155011760Y-104095618D02*
X155049855Y-103981333D01*
X155049855Y-103981333D02*
X155049855Y-103905142D01*
X155049855Y-103905142D02*
X155011760Y-103790856D01*
X155011760Y-103790856D02*
X154935569Y-103714666D01*
X154935569Y-103714666D02*
X154859379Y-103676571D01*
X154859379Y-103676571D02*
X154706998Y-103638475D01*
X154706998Y-103638475D02*
X154592712Y-103638475D01*
X154592712Y-103638475D02*
X154440331Y-103676571D01*
X154440331Y-103676571D02*
X154364140Y-103714666D01*
X154364140Y-103714666D02*
X154287950Y-103790856D01*
X154287950Y-103790856D02*
X154249855Y-103905142D01*
X154249855Y-103905142D02*
X154249855Y-103981333D01*
X154249855Y-103981333D02*
X154287950Y-104095618D01*
X154287950Y-104095618D02*
X154326045Y-104133714D01*
X154326045Y-104438475D02*
X154287950Y-104476571D01*
X154287950Y-104476571D02*
X154249855Y-104552761D01*
X154249855Y-104552761D02*
X154249855Y-104743237D01*
X154249855Y-104743237D02*
X154287950Y-104819428D01*
X154287950Y-104819428D02*
X154326045Y-104857523D01*
X154326045Y-104857523D02*
X154402236Y-104895618D01*
X154402236Y-104895618D02*
X154478426Y-104895618D01*
X154478426Y-104895618D02*
X154592712Y-104857523D01*
X154592712Y-104857523D02*
X155049855Y-104400380D01*
X155049855Y-104400380D02*
X155049855Y-104895618D01*
X154249855Y-105390857D02*
X154249855Y-105467047D01*
X154249855Y-105467047D02*
X154287950Y-105543238D01*
X154287950Y-105543238D02*
X154326045Y-105581333D01*
X154326045Y-105581333D02*
X154402236Y-105619428D01*
X154402236Y-105619428D02*
X154554617Y-105657523D01*
X154554617Y-105657523D02*
X154745093Y-105657523D01*
X154745093Y-105657523D02*
X154897474Y-105619428D01*
X154897474Y-105619428D02*
X154973664Y-105581333D01*
X154973664Y-105581333D02*
X155011760Y-105543238D01*
X155011760Y-105543238D02*
X155049855Y-105467047D01*
X155049855Y-105467047D02*
X155049855Y-105390857D01*
X155049855Y-105390857D02*
X155011760Y-105314666D01*
X155011760Y-105314666D02*
X154973664Y-105276571D01*
X154973664Y-105276571D02*
X154897474Y-105238476D01*
X154897474Y-105238476D02*
X154745093Y-105200380D01*
X154745093Y-105200380D02*
X154554617Y-105200380D01*
X154554617Y-105200380D02*
X154402236Y-105238476D01*
X154402236Y-105238476D02*
X154326045Y-105276571D01*
X154326045Y-105276571D02*
X154287950Y-105314666D01*
X154287950Y-105314666D02*
X154249855Y-105390857D01*
D13*
%TO.C,C19*%
X153886000Y-95428000D02*
X155486000Y-95428000D01*
X153886000Y-98628000D02*
X153886000Y-95428000D01*
X155486000Y-95428000D02*
X155486000Y-98628000D01*
X155486000Y-98628000D02*
X153886000Y-98628000D01*
%TO.C,R53*%
X159141000Y-103686500D02*
X160391000Y-103686500D01*
X159141000Y-105686500D02*
X159141000Y-103686500D01*
X160391000Y-103686500D02*
X160391000Y-105686500D01*
X160391000Y-105686500D02*
X159141000Y-105686500D01*
%TO.C,C18*%
X153886000Y-87808000D02*
X155486000Y-87808000D01*
X153886000Y-91008000D02*
X153886000Y-87808000D01*
X155486000Y-87808000D02*
X155486000Y-91008000D01*
X155486000Y-91008000D02*
X153886000Y-91008000D01*
%TO.C,C24*%
X153886000Y-133528000D02*
X155486000Y-133528000D01*
X153886000Y-136728000D02*
X153886000Y-133528000D01*
X155486000Y-133528000D02*
X155486000Y-136728000D01*
X155486000Y-136728000D02*
X153886000Y-136728000D01*
%TO.C,R66*%
X148860000Y-82687000D02*
X150860000Y-82687000D01*
X148860000Y-83937000D02*
X148860000Y-82687000D01*
X150860000Y-82687000D02*
X150860000Y-83937000D01*
X150860000Y-83937000D02*
X148860000Y-83937000D01*
%TO.C,R67*%
X148860000Y-90307000D02*
X150860000Y-90307000D01*
X148860000Y-91557000D02*
X148860000Y-90307000D01*
X150860000Y-90307000D02*
X150860000Y-91557000D01*
X150860000Y-91557000D02*
X148860000Y-91557000D01*
%TO.C,R62*%
X156601000Y-111306500D02*
X157851000Y-111306500D01*
X156601000Y-113306500D02*
X156601000Y-111306500D01*
X157851000Y-111306500D02*
X157851000Y-113306500D01*
X157851000Y-113306500D02*
X156601000Y-113306500D01*
%TO.C,J5*%
X102572000Y-82230000D02*
X103632000Y-82230000D01*
X102572000Y-82870000D02*
X102572000Y-82230000D01*
X102572000Y-84770000D02*
X103632000Y-84770000D01*
X102572000Y-85410000D02*
X102572000Y-84770000D01*
X102572000Y-87310000D02*
X103632000Y-87310000D01*
X102572000Y-87950000D02*
X102572000Y-87310000D01*
X102572000Y-89850000D02*
X103632000Y-89850000D01*
X102572000Y-90490000D02*
X102572000Y-89850000D01*
X102572000Y-92390000D02*
X103632000Y-92390000D01*
X102572000Y-93030000D02*
X102572000Y-92390000D01*
X102572000Y-94930000D02*
X103632000Y-94930000D01*
X102572000Y-95570000D02*
X102572000Y-94930000D01*
X102572000Y-97470000D02*
X103632000Y-97470000D01*
X102572000Y-98110000D02*
X102572000Y-97470000D01*
X102572000Y-100010000D02*
X103632000Y-100010000D01*
X102572000Y-100650000D02*
X102572000Y-100010000D01*
X102572000Y-102550000D02*
X103632000Y-102550000D01*
X102572000Y-103190000D02*
X102572000Y-102550000D01*
X102572000Y-105090000D02*
X103632000Y-105090000D01*
X102572000Y-105730000D02*
X102572000Y-105090000D01*
X102572000Y-107630000D02*
X103632000Y-107630000D01*
X102572000Y-108270000D02*
X102572000Y-107630000D01*
X102572000Y-110170000D02*
X103632000Y-110170000D01*
X102572000Y-110810000D02*
X102572000Y-110170000D01*
X102572000Y-112710000D02*
X103632000Y-112710000D01*
X102572000Y-113350000D02*
X102572000Y-112710000D01*
X102572000Y-115250000D02*
X103632000Y-115250000D01*
X102572000Y-115890000D02*
X102572000Y-115250000D01*
X103632000Y-81280000D02*
X107762000Y-81280000D01*
X103632000Y-82870000D02*
X102572000Y-82870000D01*
X103632000Y-85410000D02*
X102572000Y-85410000D01*
X103632000Y-87950000D02*
X102572000Y-87950000D01*
X103632000Y-90490000D02*
X102572000Y-90490000D01*
X103632000Y-93030000D02*
X102572000Y-93030000D01*
X103632000Y-95570000D02*
X102572000Y-95570000D01*
X103632000Y-98110000D02*
X102572000Y-98110000D01*
X103632000Y-100650000D02*
X102572000Y-100650000D01*
X103632000Y-103190000D02*
X102572000Y-103190000D01*
X103632000Y-105730000D02*
X102572000Y-105730000D01*
X103632000Y-108270000D02*
X102572000Y-108270000D01*
X103632000Y-110810000D02*
X102572000Y-110810000D01*
X103632000Y-113350000D02*
X102572000Y-113350000D01*
X103632000Y-115890000D02*
X102572000Y-115890000D01*
X103632000Y-116840000D02*
X103632000Y-81280000D01*
X107762000Y-81280000D02*
X108712000Y-82230000D01*
X108712000Y-82230000D02*
X108712000Y-116840000D01*
X108712000Y-82870000D02*
X109772000Y-82870000D01*
X108712000Y-85410000D02*
X109772000Y-85410000D01*
X108712000Y-87950000D02*
X109772000Y-87950000D01*
X108712000Y-90490000D02*
X109772000Y-90490000D01*
X108712000Y-93030000D02*
X109772000Y-93030000D01*
X108712000Y-95570000D02*
X109772000Y-95570000D01*
X108712000Y-98110000D02*
X109772000Y-98110000D01*
X108712000Y-100650000D02*
X109772000Y-100650000D01*
X108712000Y-103190000D02*
X109772000Y-103190000D01*
X108712000Y-105730000D02*
X109772000Y-105730000D01*
X108712000Y-108270000D02*
X109772000Y-108270000D01*
X108712000Y-110810000D02*
X109772000Y-110810000D01*
X108712000Y-113350000D02*
X109772000Y-113350000D01*
X108712000Y-115890000D02*
X109772000Y-115890000D01*
X108712000Y-116840000D02*
X103632000Y-116840000D01*
X109772000Y-82230000D02*
X108712000Y-82230000D01*
X109772000Y-82870000D02*
X109772000Y-82230000D01*
X109772000Y-84770000D02*
X108712000Y-84770000D01*
X109772000Y-85410000D02*
X109772000Y-84770000D01*
X109772000Y-87310000D02*
X108712000Y-87310000D01*
X109772000Y-87950000D02*
X109772000Y-87310000D01*
X109772000Y-89850000D02*
X108712000Y-89850000D01*
X109772000Y-90490000D02*
X109772000Y-89850000D01*
X109772000Y-92390000D02*
X108712000Y-92390000D01*
X109772000Y-93030000D02*
X109772000Y-92390000D01*
X109772000Y-94930000D02*
X108712000Y-94930000D01*
X109772000Y-95570000D02*
X109772000Y-94930000D01*
X109772000Y-97470000D02*
X108712000Y-97470000D01*
X109772000Y-98110000D02*
X109772000Y-97470000D01*
X109772000Y-100010000D02*
X108712000Y-100010000D01*
X109772000Y-100650000D02*
X109772000Y-100010000D01*
X109772000Y-102550000D02*
X108712000Y-102550000D01*
X109772000Y-103190000D02*
X109772000Y-102550000D01*
X109772000Y-105090000D02*
X108712000Y-105090000D01*
X109772000Y-105730000D02*
X109772000Y-105090000D01*
X109772000Y-107630000D02*
X108712000Y-107630000D01*
X109772000Y-108270000D02*
X109772000Y-107630000D01*
X109772000Y-110170000D02*
X108712000Y-110170000D01*
X109772000Y-110810000D02*
X109772000Y-110170000D01*
X109772000Y-112710000D02*
X108712000Y-112710000D01*
X109772000Y-113350000D02*
X109772000Y-112710000D01*
X109772000Y-115250000D02*
X108712000Y-115250000D01*
X109772000Y-115890000D02*
X109772000Y-115250000D01*
%TO.C,R73*%
X148860000Y-136281000D02*
X150860000Y-136281000D01*
X148860000Y-137531000D02*
X148860000Y-136281000D01*
X150860000Y-136281000D02*
X150860000Y-137531000D01*
X150860000Y-137531000D02*
X148860000Y-137531000D01*
%TO.C,R51*%
X159141000Y-88446500D02*
X160391000Y-88446500D01*
X159141000Y-90446500D02*
X159141000Y-88446500D01*
X160391000Y-88446500D02*
X160391000Y-90446500D01*
X160391000Y-90446500D02*
X159141000Y-90446500D01*
%TO.C,C21*%
X153886000Y-110668000D02*
X155486000Y-110668000D01*
X153886000Y-113868000D02*
X153886000Y-110668000D01*
X155486000Y-110668000D02*
X155486000Y-113868000D01*
X155486000Y-113868000D02*
X153886000Y-113868000D01*
%TO.C,R60*%
X156601000Y-96066500D02*
X157851000Y-96066500D01*
X156601000Y-98066500D02*
X156601000Y-96066500D01*
X157851000Y-96066500D02*
X157851000Y-98066500D01*
X157851000Y-98066500D02*
X156601000Y-98066500D01*
%TO.C,R72*%
X148860000Y-128407000D02*
X150860000Y-128407000D01*
X148860000Y-129657000D02*
X148860000Y-128407000D01*
X150860000Y-128407000D02*
X150860000Y-129657000D01*
X150860000Y-129657000D02*
X148860000Y-129657000D01*
%TO.C,C22*%
X153886000Y-118288000D02*
X155486000Y-118288000D01*
X153886000Y-121488000D02*
X153886000Y-118288000D01*
X155486000Y-118288000D02*
X155486000Y-121488000D01*
X155486000Y-121488000D02*
X153886000Y-121488000D01*
%TO.C,R50*%
X158887000Y-80788000D02*
X160137000Y-80788000D01*
X158887000Y-82788000D02*
X158887000Y-80788000D01*
X160137000Y-80788000D02*
X160137000Y-82788000D01*
X160137000Y-82788000D02*
X158887000Y-82788000D01*
%TO.C,R52*%
X159141000Y-96066500D02*
X160391000Y-96066500D01*
X159141000Y-98066500D02*
X159141000Y-96066500D01*
X160391000Y-96066500D02*
X160391000Y-98066500D01*
X160391000Y-98066500D02*
X159141000Y-98066500D01*
%TO.C,R54*%
X159141000Y-111306500D02*
X160391000Y-111306500D01*
X159141000Y-113306500D02*
X159141000Y-111306500D01*
X160391000Y-111306500D02*
X160391000Y-113306500D01*
X160391000Y-113306500D02*
X159141000Y-113306500D01*
%TO.C,R55*%
X159141000Y-118926500D02*
X160391000Y-118926500D01*
X159141000Y-120926500D02*
X159141000Y-118926500D01*
X160391000Y-118926500D02*
X160391000Y-120926500D01*
X160391000Y-120926500D02*
X159141000Y-120926500D01*
%TO.C,R68*%
X148860000Y-97927000D02*
X150860000Y-97927000D01*
X148860000Y-99177000D02*
X148860000Y-97927000D01*
X150860000Y-97927000D02*
X150860000Y-99177000D01*
X150860000Y-99177000D02*
X148860000Y-99177000D01*
%TO.C,R63*%
X156601000Y-118926500D02*
X157851000Y-118926500D01*
X156601000Y-120926500D02*
X156601000Y-118926500D01*
X157851000Y-118926500D02*
X157851000Y-120926500D01*
X157851000Y-120926500D02*
X156601000Y-120926500D01*
%TO.C,C23*%
X153886000Y-125908000D02*
X155486000Y-125908000D01*
X153886000Y-129108000D02*
X153886000Y-125908000D01*
X155486000Y-125908000D02*
X155486000Y-129108000D01*
X155486000Y-129108000D02*
X153886000Y-129108000D01*
%TO.C,R64*%
X156601000Y-126546500D02*
X157851000Y-126546500D01*
X156601000Y-128546500D02*
X156601000Y-126546500D01*
X157851000Y-126546500D02*
X157851000Y-128546500D01*
X157851000Y-128546500D02*
X156601000Y-128546500D01*
%TO.C,R70*%
X148860000Y-113167000D02*
X150860000Y-113167000D01*
X148860000Y-114417000D02*
X148860000Y-113167000D01*
X150860000Y-113167000D02*
X150860000Y-114417000D01*
X150860000Y-114417000D02*
X148860000Y-114417000D01*
%TO.C,R57*%
X159141000Y-134166500D02*
X160391000Y-134166500D01*
X159141000Y-136166500D02*
X159141000Y-134166500D01*
X160391000Y-134166500D02*
X160391000Y-136166500D01*
X160391000Y-136166500D02*
X159141000Y-136166500D01*
%TO.C,R69*%
X148860000Y-105547000D02*
X150860000Y-105547000D01*
X148860000Y-106797000D02*
X148860000Y-105547000D01*
X150860000Y-105547000D02*
X150860000Y-106797000D01*
X150860000Y-106797000D02*
X148860000Y-106797000D01*
%TO.C,R58*%
X156601000Y-80788000D02*
X157851000Y-80788000D01*
X156601000Y-82788000D02*
X156601000Y-80788000D01*
X157851000Y-80788000D02*
X157851000Y-82788000D01*
X157851000Y-82788000D02*
X156601000Y-82788000D01*
%TO.C,R65*%
X156601000Y-134166500D02*
X157851000Y-134166500D01*
X156601000Y-136166500D02*
X156601000Y-134166500D01*
X157851000Y-134166500D02*
X157851000Y-136166500D01*
X157851000Y-136166500D02*
X156601000Y-136166500D01*
%TO.C,R59*%
X156601000Y-88446500D02*
X157851000Y-88446500D01*
X156601000Y-90446500D02*
X156601000Y-88446500D01*
X157851000Y-88446500D02*
X157851000Y-90446500D01*
X157851000Y-90446500D02*
X156601000Y-90446500D01*
%TO.C,R56*%
X159141000Y-126546500D02*
X160391000Y-126546500D01*
X159141000Y-128546500D02*
X159141000Y-126546500D01*
X160391000Y-126546500D02*
X160391000Y-128546500D01*
X160391000Y-128546500D02*
X159141000Y-128546500D01*
%TO.C,R61*%
X156601000Y-103686500D02*
X157851000Y-103686500D01*
X156601000Y-105686500D02*
X156601000Y-103686500D01*
X157851000Y-103686500D02*
X157851000Y-105686500D01*
X157851000Y-105686500D02*
X156601000Y-105686500D01*
%TO.C,R71*%
X148860000Y-120787000D02*
X150860000Y-120787000D01*
X148860000Y-122037000D02*
X148860000Y-120787000D01*
X150860000Y-120787000D02*
X150860000Y-122037000D01*
X150860000Y-122037000D02*
X148860000Y-122037000D01*
%TO.C,C17*%
X153886000Y-80188000D02*
X155486000Y-80188000D01*
X153886000Y-83388000D02*
X153886000Y-80188000D01*
X155486000Y-80188000D02*
X155486000Y-83388000D01*
X155486000Y-83388000D02*
X153886000Y-83388000D01*
%TO.C,C20*%
X153886000Y-103048000D02*
X155486000Y-103048000D01*
X153886000Y-106248000D02*
X153886000Y-103048000D01*
X155486000Y-103048000D02*
X155486000Y-106248000D01*
X155486000Y-106248000D02*
X153886000Y-106248000D01*
%TD*%
D14*
X99060000Y-55880000D02*
X191516000Y-55880000D01*
X191516000Y-142240000D01*
X99060000Y-142240000D01*
X99060000Y-55880000D01*
M02*
