%TF.GenerationSoftware,KiCad,Pcbnew,8.0.0*%
%TF.CreationDate,2024-05-10T19:48:46+02:00*%
%TF.ProjectId,plc_io_module,706c635f-696f-45f6-9d6f-64756c652e6b,1.0.0*%
%TF.SameCoordinates,Original*%
%TF.FileFunction,AssemblyDrawing,Top*%
%FSLAX46Y46*%
G04 Gerber Fmt 4.6, Leading zero omitted, Abs format (unit mm)*
G04 Created by KiCad (PCBNEW 8.0.0) date 2024-05-10 19:48:46*
%MOMM*%
%LPD*%
G01*
G04 APERTURE LIST*
%ADD10C,0.120000*%
%ADD11C,0.150000*%
%ADD12C,0.080000*%
%ADD13C,0.075000*%
%ADD14C,0.100000*%
%TA.AperFunction,Profile*%
%ADD15C,0.050000*%
%TD*%
G04 APERTURE END LIST*
D10*
X141867264Y-104044685D02*
X141905360Y-104082781D01*
X141905360Y-104082781D02*
X141943455Y-104197066D01*
X141943455Y-104197066D02*
X141943455Y-104273257D01*
X141943455Y-104273257D02*
X141905360Y-104387543D01*
X141905360Y-104387543D02*
X141829169Y-104463733D01*
X141829169Y-104463733D02*
X141752979Y-104501828D01*
X141752979Y-104501828D02*
X141600598Y-104539924D01*
X141600598Y-104539924D02*
X141486312Y-104539924D01*
X141486312Y-104539924D02*
X141333931Y-104501828D01*
X141333931Y-104501828D02*
X141257740Y-104463733D01*
X141257740Y-104463733D02*
X141181550Y-104387543D01*
X141181550Y-104387543D02*
X141143455Y-104273257D01*
X141143455Y-104273257D02*
X141143455Y-104197066D01*
X141143455Y-104197066D02*
X141181550Y-104082781D01*
X141181550Y-104082781D02*
X141219645Y-104044685D01*
X141943455Y-103282781D02*
X141943455Y-103739924D01*
X141943455Y-103511352D02*
X141143455Y-103511352D01*
X141143455Y-103511352D02*
X141257740Y-103587543D01*
X141257740Y-103587543D02*
X141333931Y-103663733D01*
X141333931Y-103663733D02*
X141372026Y-103739924D01*
X141143455Y-102597066D02*
X141143455Y-102749447D01*
X141143455Y-102749447D02*
X141181550Y-102825638D01*
X141181550Y-102825638D02*
X141219645Y-102863733D01*
X141219645Y-102863733D02*
X141333931Y-102939923D01*
X141333931Y-102939923D02*
X141486312Y-102978019D01*
X141486312Y-102978019D02*
X141791074Y-102978019D01*
X141791074Y-102978019D02*
X141867264Y-102939923D01*
X141867264Y-102939923D02*
X141905360Y-102901828D01*
X141905360Y-102901828D02*
X141943455Y-102825638D01*
X141943455Y-102825638D02*
X141943455Y-102673257D01*
X141943455Y-102673257D02*
X141905360Y-102597066D01*
X141905360Y-102597066D02*
X141867264Y-102558971D01*
X141867264Y-102558971D02*
X141791074Y-102520876D01*
X141791074Y-102520876D02*
X141600598Y-102520876D01*
X141600598Y-102520876D02*
X141524407Y-102558971D01*
X141524407Y-102558971D02*
X141486312Y-102597066D01*
X141486312Y-102597066D02*
X141448217Y-102673257D01*
X141448217Y-102673257D02*
X141448217Y-102825638D01*
X141448217Y-102825638D02*
X141486312Y-102901828D01*
X141486312Y-102901828D02*
X141524407Y-102939923D01*
X141524407Y-102939923D02*
X141600598Y-102978019D01*
X138169714Y-99855664D02*
X138131618Y-99893760D01*
X138131618Y-99893760D02*
X138017333Y-99931855D01*
X138017333Y-99931855D02*
X137941142Y-99931855D01*
X137941142Y-99931855D02*
X137826856Y-99893760D01*
X137826856Y-99893760D02*
X137750666Y-99817569D01*
X137750666Y-99817569D02*
X137712571Y-99741379D01*
X137712571Y-99741379D02*
X137674475Y-99588998D01*
X137674475Y-99588998D02*
X137674475Y-99474712D01*
X137674475Y-99474712D02*
X137712571Y-99322331D01*
X137712571Y-99322331D02*
X137750666Y-99246140D01*
X137750666Y-99246140D02*
X137826856Y-99169950D01*
X137826856Y-99169950D02*
X137941142Y-99131855D01*
X137941142Y-99131855D02*
X138017333Y-99131855D01*
X138017333Y-99131855D02*
X138131618Y-99169950D01*
X138131618Y-99169950D02*
X138169714Y-99208045D01*
X138931618Y-99931855D02*
X138474475Y-99931855D01*
X138703047Y-99931855D02*
X138703047Y-99131855D01*
X138703047Y-99131855D02*
X138626856Y-99246140D01*
X138626856Y-99246140D02*
X138550666Y-99322331D01*
X138550666Y-99322331D02*
X138474475Y-99360426D01*
X139655428Y-99131855D02*
X139274476Y-99131855D01*
X139274476Y-99131855D02*
X139236380Y-99512807D01*
X139236380Y-99512807D02*
X139274476Y-99474712D01*
X139274476Y-99474712D02*
X139350666Y-99436617D01*
X139350666Y-99436617D02*
X139541142Y-99436617D01*
X139541142Y-99436617D02*
X139617333Y-99474712D01*
X139617333Y-99474712D02*
X139655428Y-99512807D01*
X139655428Y-99512807D02*
X139693523Y-99588998D01*
X139693523Y-99588998D02*
X139693523Y-99779474D01*
X139693523Y-99779474D02*
X139655428Y-99855664D01*
X139655428Y-99855664D02*
X139617333Y-99893760D01*
X139617333Y-99893760D02*
X139541142Y-99931855D01*
X139541142Y-99931855D02*
X139350666Y-99931855D01*
X139350666Y-99931855D02*
X139274476Y-99893760D01*
X139274476Y-99893760D02*
X139236380Y-99855664D01*
D11*
X117602095Y-93688819D02*
X117602095Y-94498342D01*
X117602095Y-94498342D02*
X117649714Y-94593580D01*
X117649714Y-94593580D02*
X117697333Y-94641200D01*
X117697333Y-94641200D02*
X117792571Y-94688819D01*
X117792571Y-94688819D02*
X117983047Y-94688819D01*
X117983047Y-94688819D02*
X118078285Y-94641200D01*
X118078285Y-94641200D02*
X118125904Y-94593580D01*
X118125904Y-94593580D02*
X118173523Y-94498342D01*
X118173523Y-94498342D02*
X118173523Y-93688819D01*
X119173523Y-94688819D02*
X118602095Y-94688819D01*
X118887809Y-94688819D02*
X118887809Y-93688819D01*
X118887809Y-93688819D02*
X118792571Y-93831676D01*
X118792571Y-93831676D02*
X118697333Y-93926914D01*
X118697333Y-93926914D02*
X118602095Y-93974533D01*
D10*
X163000045Y-97485142D02*
X162961950Y-97561332D01*
X162961950Y-97561332D02*
X162885760Y-97637523D01*
X162885760Y-97637523D02*
X162771474Y-97751809D01*
X162771474Y-97751809D02*
X162733379Y-97827999D01*
X162733379Y-97827999D02*
X162733379Y-97904190D01*
X162923855Y-97866094D02*
X162885760Y-97942285D01*
X162885760Y-97942285D02*
X162809569Y-98018475D01*
X162809569Y-98018475D02*
X162657188Y-98056571D01*
X162657188Y-98056571D02*
X162390521Y-98056571D01*
X162390521Y-98056571D02*
X162238140Y-98018475D01*
X162238140Y-98018475D02*
X162161950Y-97942285D01*
X162161950Y-97942285D02*
X162123855Y-97866094D01*
X162123855Y-97866094D02*
X162123855Y-97713713D01*
X162123855Y-97713713D02*
X162161950Y-97637523D01*
X162161950Y-97637523D02*
X162238140Y-97561332D01*
X162238140Y-97561332D02*
X162390521Y-97523237D01*
X162390521Y-97523237D02*
X162657188Y-97523237D01*
X162657188Y-97523237D02*
X162809569Y-97561332D01*
X162809569Y-97561332D02*
X162885760Y-97637523D01*
X162885760Y-97637523D02*
X162923855Y-97713713D01*
X162923855Y-97713713D02*
X162923855Y-97866094D01*
X162923855Y-96761333D02*
X162923855Y-97218476D01*
X162923855Y-96989904D02*
X162123855Y-96989904D01*
X162123855Y-96989904D02*
X162238140Y-97066095D01*
X162238140Y-97066095D02*
X162314331Y-97142285D01*
X162314331Y-97142285D02*
X162352426Y-97218476D01*
X162923855Y-95999428D02*
X162923855Y-96456571D01*
X162923855Y-96227999D02*
X162123855Y-96227999D01*
X162123855Y-96227999D02*
X162238140Y-96304190D01*
X162238140Y-96304190D02*
X162314331Y-96380380D01*
X162314331Y-96380380D02*
X162352426Y-96456571D01*
X151824045Y-81826690D02*
X151785950Y-81902880D01*
X151785950Y-81902880D02*
X151709760Y-81979071D01*
X151709760Y-81979071D02*
X151595474Y-82093357D01*
X151595474Y-82093357D02*
X151557379Y-82169547D01*
X151557379Y-82169547D02*
X151557379Y-82245738D01*
X151747855Y-82207642D02*
X151709760Y-82283833D01*
X151709760Y-82283833D02*
X151633569Y-82360023D01*
X151633569Y-82360023D02*
X151481188Y-82398119D01*
X151481188Y-82398119D02*
X151214521Y-82398119D01*
X151214521Y-82398119D02*
X151062140Y-82360023D01*
X151062140Y-82360023D02*
X150985950Y-82283833D01*
X150985950Y-82283833D02*
X150947855Y-82207642D01*
X150947855Y-82207642D02*
X150947855Y-82055261D01*
X150947855Y-82055261D02*
X150985950Y-81979071D01*
X150985950Y-81979071D02*
X151062140Y-81902880D01*
X151062140Y-81902880D02*
X151214521Y-81864785D01*
X151214521Y-81864785D02*
X151481188Y-81864785D01*
X151481188Y-81864785D02*
X151633569Y-81902880D01*
X151633569Y-81902880D02*
X151709760Y-81979071D01*
X151709760Y-81979071D02*
X151747855Y-82055261D01*
X151747855Y-82055261D02*
X151747855Y-82207642D01*
X151747855Y-81102881D02*
X151747855Y-81560024D01*
X151747855Y-81331452D02*
X150947855Y-81331452D01*
X150947855Y-81331452D02*
X151062140Y-81407643D01*
X151062140Y-81407643D02*
X151138331Y-81483833D01*
X151138331Y-81483833D02*
X151176426Y-81560024D01*
D12*
X157199149Y-114113428D02*
X156961054Y-114280094D01*
X157199149Y-114399142D02*
X156699149Y-114399142D01*
X156699149Y-114399142D02*
X156699149Y-114208666D01*
X156699149Y-114208666D02*
X156722959Y-114161047D01*
X156722959Y-114161047D02*
X156746768Y-114137237D01*
X156746768Y-114137237D02*
X156794387Y-114113428D01*
X156794387Y-114113428D02*
X156865816Y-114113428D01*
X156865816Y-114113428D02*
X156913435Y-114137237D01*
X156913435Y-114137237D02*
X156937244Y-114161047D01*
X156937244Y-114161047D02*
X156961054Y-114208666D01*
X156961054Y-114208666D02*
X156961054Y-114399142D01*
X156746768Y-113922951D02*
X156722959Y-113899142D01*
X156722959Y-113899142D02*
X156699149Y-113851523D01*
X156699149Y-113851523D02*
X156699149Y-113732475D01*
X156699149Y-113732475D02*
X156722959Y-113684856D01*
X156722959Y-113684856D02*
X156746768Y-113661047D01*
X156746768Y-113661047D02*
X156794387Y-113637237D01*
X156794387Y-113637237D02*
X156842006Y-113637237D01*
X156842006Y-113637237D02*
X156913435Y-113661047D01*
X156913435Y-113661047D02*
X157199149Y-113946761D01*
X157199149Y-113946761D02*
X157199149Y-113637237D01*
X156865816Y-113208666D02*
X157199149Y-113208666D01*
X156675340Y-113327714D02*
X157032482Y-113446761D01*
X157032482Y-113446761D02*
X157032482Y-113137238D01*
D10*
X174176045Y-112725142D02*
X174137950Y-112801332D01*
X174137950Y-112801332D02*
X174061760Y-112877523D01*
X174061760Y-112877523D02*
X173947474Y-112991809D01*
X173947474Y-112991809D02*
X173909379Y-113067999D01*
X173909379Y-113067999D02*
X173909379Y-113144190D01*
X174099855Y-113106094D02*
X174061760Y-113182285D01*
X174061760Y-113182285D02*
X173985569Y-113258475D01*
X173985569Y-113258475D02*
X173833188Y-113296571D01*
X173833188Y-113296571D02*
X173566521Y-113296571D01*
X173566521Y-113296571D02*
X173414140Y-113258475D01*
X173414140Y-113258475D02*
X173337950Y-113182285D01*
X173337950Y-113182285D02*
X173299855Y-113106094D01*
X173299855Y-113106094D02*
X173299855Y-112953713D01*
X173299855Y-112953713D02*
X173337950Y-112877523D01*
X173337950Y-112877523D02*
X173414140Y-112801332D01*
X173414140Y-112801332D02*
X173566521Y-112763237D01*
X173566521Y-112763237D02*
X173833188Y-112763237D01*
X173833188Y-112763237D02*
X173985569Y-112801332D01*
X173985569Y-112801332D02*
X174061760Y-112877523D01*
X174061760Y-112877523D02*
X174099855Y-112953713D01*
X174099855Y-112953713D02*
X174099855Y-113106094D01*
X173376045Y-112458476D02*
X173337950Y-112420380D01*
X173337950Y-112420380D02*
X173299855Y-112344190D01*
X173299855Y-112344190D02*
X173299855Y-112153714D01*
X173299855Y-112153714D02*
X173337950Y-112077523D01*
X173337950Y-112077523D02*
X173376045Y-112039428D01*
X173376045Y-112039428D02*
X173452236Y-112001333D01*
X173452236Y-112001333D02*
X173528426Y-112001333D01*
X173528426Y-112001333D02*
X173642712Y-112039428D01*
X173642712Y-112039428D02*
X174099855Y-112496571D01*
X174099855Y-112496571D02*
X174099855Y-112001333D01*
X174099855Y-111239428D02*
X174099855Y-111696571D01*
X174099855Y-111467999D02*
X173299855Y-111467999D01*
X173299855Y-111467999D02*
X173414140Y-111544190D01*
X173414140Y-111544190D02*
X173490331Y-111620380D01*
X173490331Y-111620380D02*
X173528426Y-111696571D01*
X120618267Y-60739664D02*
X120580171Y-60777760D01*
X120580171Y-60777760D02*
X120465886Y-60815855D01*
X120465886Y-60815855D02*
X120389695Y-60815855D01*
X120389695Y-60815855D02*
X120275409Y-60777760D01*
X120275409Y-60777760D02*
X120199219Y-60701569D01*
X120199219Y-60701569D02*
X120161124Y-60625379D01*
X120161124Y-60625379D02*
X120123028Y-60472998D01*
X120123028Y-60472998D02*
X120123028Y-60358712D01*
X120123028Y-60358712D02*
X120161124Y-60206331D01*
X120161124Y-60206331D02*
X120199219Y-60130140D01*
X120199219Y-60130140D02*
X120275409Y-60053950D01*
X120275409Y-60053950D02*
X120389695Y-60015855D01*
X120389695Y-60015855D02*
X120465886Y-60015855D01*
X120465886Y-60015855D02*
X120580171Y-60053950D01*
X120580171Y-60053950D02*
X120618267Y-60092045D01*
X121303981Y-60282521D02*
X121303981Y-60815855D01*
X121113505Y-59977760D02*
X120923028Y-60549188D01*
X120923028Y-60549188D02*
X121418267Y-60549188D01*
D12*
X157199149Y-133417428D02*
X156961054Y-133584094D01*
X157199149Y-133703142D02*
X156699149Y-133703142D01*
X156699149Y-133703142D02*
X156699149Y-133512666D01*
X156699149Y-133512666D02*
X156722959Y-133465047D01*
X156722959Y-133465047D02*
X156746768Y-133441237D01*
X156746768Y-133441237D02*
X156794387Y-133417428D01*
X156794387Y-133417428D02*
X156865816Y-133417428D01*
X156865816Y-133417428D02*
X156913435Y-133441237D01*
X156913435Y-133441237D02*
X156937244Y-133465047D01*
X156937244Y-133465047D02*
X156961054Y-133512666D01*
X156961054Y-133512666D02*
X156961054Y-133703142D01*
X156746768Y-133226951D02*
X156722959Y-133203142D01*
X156722959Y-133203142D02*
X156699149Y-133155523D01*
X156699149Y-133155523D02*
X156699149Y-133036475D01*
X156699149Y-133036475D02*
X156722959Y-132988856D01*
X156722959Y-132988856D02*
X156746768Y-132965047D01*
X156746768Y-132965047D02*
X156794387Y-132941237D01*
X156794387Y-132941237D02*
X156842006Y-132941237D01*
X156842006Y-132941237D02*
X156913435Y-132965047D01*
X156913435Y-132965047D02*
X157199149Y-133250761D01*
X157199149Y-133250761D02*
X157199149Y-132941237D01*
X157199149Y-132703142D02*
X157199149Y-132607904D01*
X157199149Y-132607904D02*
X157175340Y-132560285D01*
X157175340Y-132560285D02*
X157151530Y-132536476D01*
X157151530Y-132536476D02*
X157080101Y-132488857D01*
X157080101Y-132488857D02*
X156984863Y-132465047D01*
X156984863Y-132465047D02*
X156794387Y-132465047D01*
X156794387Y-132465047D02*
X156746768Y-132488857D01*
X156746768Y-132488857D02*
X156722959Y-132512666D01*
X156722959Y-132512666D02*
X156699149Y-132560285D01*
X156699149Y-132560285D02*
X156699149Y-132655523D01*
X156699149Y-132655523D02*
X156722959Y-132703142D01*
X156722959Y-132703142D02*
X156746768Y-132726952D01*
X156746768Y-132726952D02*
X156794387Y-132750761D01*
X156794387Y-132750761D02*
X156913435Y-132750761D01*
X156913435Y-132750761D02*
X156961054Y-132726952D01*
X156961054Y-132726952D02*
X156984863Y-132703142D01*
X156984863Y-132703142D02*
X157008673Y-132655523D01*
X157008673Y-132655523D02*
X157008673Y-132560285D01*
X157008673Y-132560285D02*
X156984863Y-132512666D01*
X156984863Y-132512666D02*
X156961054Y-132488857D01*
X156961054Y-132488857D02*
X156913435Y-132465047D01*
X157199149Y-129353428D02*
X156961054Y-129520094D01*
X157199149Y-129639142D02*
X156699149Y-129639142D01*
X156699149Y-129639142D02*
X156699149Y-129448666D01*
X156699149Y-129448666D02*
X156722959Y-129401047D01*
X156722959Y-129401047D02*
X156746768Y-129377237D01*
X156746768Y-129377237D02*
X156794387Y-129353428D01*
X156794387Y-129353428D02*
X156865816Y-129353428D01*
X156865816Y-129353428D02*
X156913435Y-129377237D01*
X156913435Y-129377237D02*
X156937244Y-129401047D01*
X156937244Y-129401047D02*
X156961054Y-129448666D01*
X156961054Y-129448666D02*
X156961054Y-129639142D01*
X156746768Y-129162951D02*
X156722959Y-129139142D01*
X156722959Y-129139142D02*
X156699149Y-129091523D01*
X156699149Y-129091523D02*
X156699149Y-128972475D01*
X156699149Y-128972475D02*
X156722959Y-128924856D01*
X156722959Y-128924856D02*
X156746768Y-128901047D01*
X156746768Y-128901047D02*
X156794387Y-128877237D01*
X156794387Y-128877237D02*
X156842006Y-128877237D01*
X156842006Y-128877237D02*
X156913435Y-128901047D01*
X156913435Y-128901047D02*
X157199149Y-129186761D01*
X157199149Y-129186761D02*
X157199149Y-128877237D01*
X156913435Y-128591523D02*
X156889625Y-128639142D01*
X156889625Y-128639142D02*
X156865816Y-128662952D01*
X156865816Y-128662952D02*
X156818197Y-128686761D01*
X156818197Y-128686761D02*
X156794387Y-128686761D01*
X156794387Y-128686761D02*
X156746768Y-128662952D01*
X156746768Y-128662952D02*
X156722959Y-128639142D01*
X156722959Y-128639142D02*
X156699149Y-128591523D01*
X156699149Y-128591523D02*
X156699149Y-128496285D01*
X156699149Y-128496285D02*
X156722959Y-128448666D01*
X156722959Y-128448666D02*
X156746768Y-128424857D01*
X156746768Y-128424857D02*
X156794387Y-128401047D01*
X156794387Y-128401047D02*
X156818197Y-128401047D01*
X156818197Y-128401047D02*
X156865816Y-128424857D01*
X156865816Y-128424857D02*
X156889625Y-128448666D01*
X156889625Y-128448666D02*
X156913435Y-128496285D01*
X156913435Y-128496285D02*
X156913435Y-128591523D01*
X156913435Y-128591523D02*
X156937244Y-128639142D01*
X156937244Y-128639142D02*
X156961054Y-128662952D01*
X156961054Y-128662952D02*
X157008673Y-128686761D01*
X157008673Y-128686761D02*
X157103911Y-128686761D01*
X157103911Y-128686761D02*
X157151530Y-128662952D01*
X157151530Y-128662952D02*
X157175340Y-128639142D01*
X157175340Y-128639142D02*
X157199149Y-128591523D01*
X157199149Y-128591523D02*
X157199149Y-128496285D01*
X157199149Y-128496285D02*
X157175340Y-128448666D01*
X157175340Y-128448666D02*
X157151530Y-128424857D01*
X157151530Y-128424857D02*
X157103911Y-128401047D01*
X157103911Y-128401047D02*
X157008673Y-128401047D01*
X157008673Y-128401047D02*
X156961054Y-128424857D01*
X156961054Y-128424857D02*
X156937244Y-128448666D01*
X156937244Y-128448666D02*
X156913435Y-128496285D01*
D11*
X105626819Y-99393333D02*
X106341104Y-99393333D01*
X106341104Y-99393333D02*
X106483961Y-99440952D01*
X106483961Y-99440952D02*
X106579200Y-99536190D01*
X106579200Y-99536190D02*
X106626819Y-99679047D01*
X106626819Y-99679047D02*
X106626819Y-99774285D01*
X106626819Y-98393333D02*
X106626819Y-98964761D01*
X106626819Y-98679047D02*
X105626819Y-98679047D01*
X105626819Y-98679047D02*
X105769676Y-98774285D01*
X105769676Y-98774285D02*
X105864914Y-98869523D01*
X105864914Y-98869523D02*
X105912533Y-98964761D01*
D10*
X128049664Y-110369332D02*
X128087760Y-110407428D01*
X128087760Y-110407428D02*
X128125855Y-110521713D01*
X128125855Y-110521713D02*
X128125855Y-110597904D01*
X128125855Y-110597904D02*
X128087760Y-110712190D01*
X128087760Y-110712190D02*
X128011569Y-110788380D01*
X128011569Y-110788380D02*
X127935379Y-110826475D01*
X127935379Y-110826475D02*
X127782998Y-110864571D01*
X127782998Y-110864571D02*
X127668712Y-110864571D01*
X127668712Y-110864571D02*
X127516331Y-110826475D01*
X127516331Y-110826475D02*
X127440140Y-110788380D01*
X127440140Y-110788380D02*
X127363950Y-110712190D01*
X127363950Y-110712190D02*
X127325855Y-110597904D01*
X127325855Y-110597904D02*
X127325855Y-110521713D01*
X127325855Y-110521713D02*
X127363950Y-110407428D01*
X127363950Y-110407428D02*
X127402045Y-110369332D01*
X127325855Y-109683618D02*
X127325855Y-109835999D01*
X127325855Y-109835999D02*
X127363950Y-109912190D01*
X127363950Y-109912190D02*
X127402045Y-109950285D01*
X127402045Y-109950285D02*
X127516331Y-110026475D01*
X127516331Y-110026475D02*
X127668712Y-110064571D01*
X127668712Y-110064571D02*
X127973474Y-110064571D01*
X127973474Y-110064571D02*
X128049664Y-110026475D01*
X128049664Y-110026475D02*
X128087760Y-109988380D01*
X128087760Y-109988380D02*
X128125855Y-109912190D01*
X128125855Y-109912190D02*
X128125855Y-109759809D01*
X128125855Y-109759809D02*
X128087760Y-109683618D01*
X128087760Y-109683618D02*
X128049664Y-109645523D01*
X128049664Y-109645523D02*
X127973474Y-109607428D01*
X127973474Y-109607428D02*
X127782998Y-109607428D01*
X127782998Y-109607428D02*
X127706807Y-109645523D01*
X127706807Y-109645523D02*
X127668712Y-109683618D01*
X127668712Y-109683618D02*
X127630617Y-109759809D01*
X127630617Y-109759809D02*
X127630617Y-109912190D01*
X127630617Y-109912190D02*
X127668712Y-109988380D01*
X127668712Y-109988380D02*
X127706807Y-110026475D01*
X127706807Y-110026475D02*
X127782998Y-110064571D01*
D12*
X130472666Y-124687149D02*
X130306000Y-124449054D01*
X130186952Y-124687149D02*
X130186952Y-124187149D01*
X130186952Y-124187149D02*
X130377428Y-124187149D01*
X130377428Y-124187149D02*
X130425047Y-124210959D01*
X130425047Y-124210959D02*
X130448857Y-124234768D01*
X130448857Y-124234768D02*
X130472666Y-124282387D01*
X130472666Y-124282387D02*
X130472666Y-124353816D01*
X130472666Y-124353816D02*
X130448857Y-124401435D01*
X130448857Y-124401435D02*
X130425047Y-124425244D01*
X130425047Y-124425244D02*
X130377428Y-124449054D01*
X130377428Y-124449054D02*
X130186952Y-124449054D01*
X130639333Y-124187149D02*
X130948857Y-124187149D01*
X130948857Y-124187149D02*
X130782190Y-124377625D01*
X130782190Y-124377625D02*
X130853619Y-124377625D01*
X130853619Y-124377625D02*
X130901238Y-124401435D01*
X130901238Y-124401435D02*
X130925047Y-124425244D01*
X130925047Y-124425244D02*
X130948857Y-124472863D01*
X130948857Y-124472863D02*
X130948857Y-124591911D01*
X130948857Y-124591911D02*
X130925047Y-124639530D01*
X130925047Y-124639530D02*
X130901238Y-124663340D01*
X130901238Y-124663340D02*
X130853619Y-124687149D01*
X130853619Y-124687149D02*
X130710762Y-124687149D01*
X130710762Y-124687149D02*
X130663143Y-124663340D01*
X130663143Y-124663340D02*
X130639333Y-124639530D01*
X150595149Y-72711428D02*
X150357054Y-72878094D01*
X150595149Y-72997142D02*
X150095149Y-72997142D01*
X150095149Y-72997142D02*
X150095149Y-72806666D01*
X150095149Y-72806666D02*
X150118959Y-72759047D01*
X150118959Y-72759047D02*
X150142768Y-72735237D01*
X150142768Y-72735237D02*
X150190387Y-72711428D01*
X150190387Y-72711428D02*
X150261816Y-72711428D01*
X150261816Y-72711428D02*
X150309435Y-72735237D01*
X150309435Y-72735237D02*
X150333244Y-72759047D01*
X150333244Y-72759047D02*
X150357054Y-72806666D01*
X150357054Y-72806666D02*
X150357054Y-72997142D01*
X150595149Y-72235237D02*
X150595149Y-72520951D01*
X150595149Y-72378094D02*
X150095149Y-72378094D01*
X150095149Y-72378094D02*
X150166578Y-72425713D01*
X150166578Y-72425713D02*
X150214197Y-72473332D01*
X150214197Y-72473332D02*
X150238006Y-72520951D01*
X150095149Y-72068571D02*
X150095149Y-71759047D01*
X150095149Y-71759047D02*
X150285625Y-71925714D01*
X150285625Y-71925714D02*
X150285625Y-71854285D01*
X150285625Y-71854285D02*
X150309435Y-71806666D01*
X150309435Y-71806666D02*
X150333244Y-71782857D01*
X150333244Y-71782857D02*
X150380863Y-71759047D01*
X150380863Y-71759047D02*
X150499911Y-71759047D01*
X150499911Y-71759047D02*
X150547530Y-71782857D01*
X150547530Y-71782857D02*
X150571340Y-71806666D01*
X150571340Y-71806666D02*
X150595149Y-71854285D01*
X150595149Y-71854285D02*
X150595149Y-71997142D01*
X150595149Y-71997142D02*
X150571340Y-72044761D01*
X150571340Y-72044761D02*
X150547530Y-72068571D01*
D10*
X151824045Y-127584190D02*
X151785950Y-127660380D01*
X151785950Y-127660380D02*
X151709760Y-127736571D01*
X151709760Y-127736571D02*
X151595474Y-127850857D01*
X151595474Y-127850857D02*
X151557379Y-127927047D01*
X151557379Y-127927047D02*
X151557379Y-128003238D01*
X151747855Y-127965142D02*
X151709760Y-128041333D01*
X151709760Y-128041333D02*
X151633569Y-128117523D01*
X151633569Y-128117523D02*
X151481188Y-128155619D01*
X151481188Y-128155619D02*
X151214521Y-128155619D01*
X151214521Y-128155619D02*
X151062140Y-128117523D01*
X151062140Y-128117523D02*
X150985950Y-128041333D01*
X150985950Y-128041333D02*
X150947855Y-127965142D01*
X150947855Y-127965142D02*
X150947855Y-127812761D01*
X150947855Y-127812761D02*
X150985950Y-127736571D01*
X150985950Y-127736571D02*
X151062140Y-127660380D01*
X151062140Y-127660380D02*
X151214521Y-127622285D01*
X151214521Y-127622285D02*
X151481188Y-127622285D01*
X151481188Y-127622285D02*
X151633569Y-127660380D01*
X151633569Y-127660380D02*
X151709760Y-127736571D01*
X151709760Y-127736571D02*
X151747855Y-127812761D01*
X151747855Y-127812761D02*
X151747855Y-127965142D01*
X150947855Y-127355619D02*
X150947855Y-126822285D01*
X150947855Y-126822285D02*
X151747855Y-127165143D01*
D11*
X105410095Y-62938819D02*
X105410095Y-61938819D01*
X105410095Y-62415009D02*
X105981523Y-62415009D01*
X105981523Y-62938819D02*
X105981523Y-61938819D01*
X106981523Y-62938819D02*
X106410095Y-62938819D01*
X106695809Y-62938819D02*
X106695809Y-61938819D01*
X106695809Y-61938819D02*
X106600571Y-62081676D01*
X106600571Y-62081676D02*
X106505333Y-62176914D01*
X106505333Y-62176914D02*
X106410095Y-62224533D01*
X136064666Y-130518819D02*
X136064666Y-131233104D01*
X136064666Y-131233104D02*
X136017047Y-131375961D01*
X136017047Y-131375961D02*
X135921809Y-131471200D01*
X135921809Y-131471200D02*
X135778952Y-131518819D01*
X135778952Y-131518819D02*
X135683714Y-131518819D01*
X136493238Y-130614057D02*
X136540857Y-130566438D01*
X136540857Y-130566438D02*
X136636095Y-130518819D01*
X136636095Y-130518819D02*
X136874190Y-130518819D01*
X136874190Y-130518819D02*
X136969428Y-130566438D01*
X136969428Y-130566438D02*
X137017047Y-130614057D01*
X137017047Y-130614057D02*
X137064666Y-130709295D01*
X137064666Y-130709295D02*
X137064666Y-130804533D01*
X137064666Y-130804533D02*
X137017047Y-130947390D01*
X137017047Y-130947390D02*
X136445619Y-131518819D01*
X136445619Y-131518819D02*
X137064666Y-131518819D01*
D10*
X174176045Y-89865142D02*
X174137950Y-89941332D01*
X174137950Y-89941332D02*
X174061760Y-90017523D01*
X174061760Y-90017523D02*
X173947474Y-90131809D01*
X173947474Y-90131809D02*
X173909379Y-90207999D01*
X173909379Y-90207999D02*
X173909379Y-90284190D01*
X174099855Y-90246094D02*
X174061760Y-90322285D01*
X174061760Y-90322285D02*
X173985569Y-90398475D01*
X173985569Y-90398475D02*
X173833188Y-90436571D01*
X173833188Y-90436571D02*
X173566521Y-90436571D01*
X173566521Y-90436571D02*
X173414140Y-90398475D01*
X173414140Y-90398475D02*
X173337950Y-90322285D01*
X173337950Y-90322285D02*
X173299855Y-90246094D01*
X173299855Y-90246094D02*
X173299855Y-90093713D01*
X173299855Y-90093713D02*
X173337950Y-90017523D01*
X173337950Y-90017523D02*
X173414140Y-89941332D01*
X173414140Y-89941332D02*
X173566521Y-89903237D01*
X173566521Y-89903237D02*
X173833188Y-89903237D01*
X173833188Y-89903237D02*
X173985569Y-89941332D01*
X173985569Y-89941332D02*
X174061760Y-90017523D01*
X174061760Y-90017523D02*
X174099855Y-90093713D01*
X174099855Y-90093713D02*
X174099855Y-90246094D01*
X174099855Y-89141333D02*
X174099855Y-89598476D01*
X174099855Y-89369904D02*
X173299855Y-89369904D01*
X173299855Y-89369904D02*
X173414140Y-89446095D01*
X173414140Y-89446095D02*
X173490331Y-89522285D01*
X173490331Y-89522285D02*
X173528426Y-89598476D01*
X173642712Y-88684190D02*
X173604617Y-88760380D01*
X173604617Y-88760380D02*
X173566521Y-88798475D01*
X173566521Y-88798475D02*
X173490331Y-88836571D01*
X173490331Y-88836571D02*
X173452236Y-88836571D01*
X173452236Y-88836571D02*
X173376045Y-88798475D01*
X173376045Y-88798475D02*
X173337950Y-88760380D01*
X173337950Y-88760380D02*
X173299855Y-88684190D01*
X173299855Y-88684190D02*
X173299855Y-88531809D01*
X173299855Y-88531809D02*
X173337950Y-88455618D01*
X173337950Y-88455618D02*
X173376045Y-88417523D01*
X173376045Y-88417523D02*
X173452236Y-88379428D01*
X173452236Y-88379428D02*
X173490331Y-88379428D01*
X173490331Y-88379428D02*
X173566521Y-88417523D01*
X173566521Y-88417523D02*
X173604617Y-88455618D01*
X173604617Y-88455618D02*
X173642712Y-88531809D01*
X173642712Y-88531809D02*
X173642712Y-88684190D01*
X173642712Y-88684190D02*
X173680807Y-88760380D01*
X173680807Y-88760380D02*
X173718902Y-88798475D01*
X173718902Y-88798475D02*
X173795093Y-88836571D01*
X173795093Y-88836571D02*
X173947474Y-88836571D01*
X173947474Y-88836571D02*
X174023664Y-88798475D01*
X174023664Y-88798475D02*
X174061760Y-88760380D01*
X174061760Y-88760380D02*
X174099855Y-88684190D01*
X174099855Y-88684190D02*
X174099855Y-88531809D01*
X174099855Y-88531809D02*
X174061760Y-88455618D01*
X174061760Y-88455618D02*
X174023664Y-88417523D01*
X174023664Y-88417523D02*
X173947474Y-88379428D01*
X173947474Y-88379428D02*
X173795093Y-88379428D01*
X173795093Y-88379428D02*
X173718902Y-88417523D01*
X173718902Y-88417523D02*
X173680807Y-88455618D01*
X173680807Y-88455618D02*
X173642712Y-88531809D01*
X151824045Y-135204190D02*
X151785950Y-135280380D01*
X151785950Y-135280380D02*
X151709760Y-135356571D01*
X151709760Y-135356571D02*
X151595474Y-135470857D01*
X151595474Y-135470857D02*
X151557379Y-135547047D01*
X151557379Y-135547047D02*
X151557379Y-135623238D01*
X151747855Y-135585142D02*
X151709760Y-135661333D01*
X151709760Y-135661333D02*
X151633569Y-135737523D01*
X151633569Y-135737523D02*
X151481188Y-135775619D01*
X151481188Y-135775619D02*
X151214521Y-135775619D01*
X151214521Y-135775619D02*
X151062140Y-135737523D01*
X151062140Y-135737523D02*
X150985950Y-135661333D01*
X150985950Y-135661333D02*
X150947855Y-135585142D01*
X150947855Y-135585142D02*
X150947855Y-135432761D01*
X150947855Y-135432761D02*
X150985950Y-135356571D01*
X150985950Y-135356571D02*
X151062140Y-135280380D01*
X151062140Y-135280380D02*
X151214521Y-135242285D01*
X151214521Y-135242285D02*
X151481188Y-135242285D01*
X151481188Y-135242285D02*
X151633569Y-135280380D01*
X151633569Y-135280380D02*
X151709760Y-135356571D01*
X151709760Y-135356571D02*
X151747855Y-135432761D01*
X151747855Y-135432761D02*
X151747855Y-135585142D01*
X151290712Y-134785143D02*
X151252617Y-134861333D01*
X151252617Y-134861333D02*
X151214521Y-134899428D01*
X151214521Y-134899428D02*
X151138331Y-134937524D01*
X151138331Y-134937524D02*
X151100236Y-134937524D01*
X151100236Y-134937524D02*
X151024045Y-134899428D01*
X151024045Y-134899428D02*
X150985950Y-134861333D01*
X150985950Y-134861333D02*
X150947855Y-134785143D01*
X150947855Y-134785143D02*
X150947855Y-134632762D01*
X150947855Y-134632762D02*
X150985950Y-134556571D01*
X150985950Y-134556571D02*
X151024045Y-134518476D01*
X151024045Y-134518476D02*
X151100236Y-134480381D01*
X151100236Y-134480381D02*
X151138331Y-134480381D01*
X151138331Y-134480381D02*
X151214521Y-134518476D01*
X151214521Y-134518476D02*
X151252617Y-134556571D01*
X151252617Y-134556571D02*
X151290712Y-134632762D01*
X151290712Y-134632762D02*
X151290712Y-134785143D01*
X151290712Y-134785143D02*
X151328807Y-134861333D01*
X151328807Y-134861333D02*
X151366902Y-134899428D01*
X151366902Y-134899428D02*
X151443093Y-134937524D01*
X151443093Y-134937524D02*
X151595474Y-134937524D01*
X151595474Y-134937524D02*
X151671664Y-134899428D01*
X151671664Y-134899428D02*
X151709760Y-134861333D01*
X151709760Y-134861333D02*
X151747855Y-134785143D01*
X151747855Y-134785143D02*
X151747855Y-134632762D01*
X151747855Y-134632762D02*
X151709760Y-134556571D01*
X151709760Y-134556571D02*
X151671664Y-134518476D01*
X151671664Y-134518476D02*
X151595474Y-134480381D01*
X151595474Y-134480381D02*
X151443093Y-134480381D01*
X151443093Y-134480381D02*
X151366902Y-134518476D01*
X151366902Y-134518476D02*
X151328807Y-134556571D01*
X151328807Y-134556571D02*
X151290712Y-134632762D01*
D12*
X171890571Y-71855149D02*
X171723905Y-71617054D01*
X171604857Y-71855149D02*
X171604857Y-71355149D01*
X171604857Y-71355149D02*
X171795333Y-71355149D01*
X171795333Y-71355149D02*
X171842952Y-71378959D01*
X171842952Y-71378959D02*
X171866762Y-71402768D01*
X171866762Y-71402768D02*
X171890571Y-71450387D01*
X171890571Y-71450387D02*
X171890571Y-71521816D01*
X171890571Y-71521816D02*
X171866762Y-71569435D01*
X171866762Y-71569435D02*
X171842952Y-71593244D01*
X171842952Y-71593244D02*
X171795333Y-71617054D01*
X171795333Y-71617054D02*
X171604857Y-71617054D01*
X172319143Y-71521816D02*
X172319143Y-71855149D01*
X172200095Y-71331340D02*
X172081048Y-71688482D01*
X172081048Y-71688482D02*
X172390571Y-71688482D01*
X172652476Y-71569435D02*
X172604857Y-71545625D01*
X172604857Y-71545625D02*
X172581047Y-71521816D01*
X172581047Y-71521816D02*
X172557238Y-71474197D01*
X172557238Y-71474197D02*
X172557238Y-71450387D01*
X172557238Y-71450387D02*
X172581047Y-71402768D01*
X172581047Y-71402768D02*
X172604857Y-71378959D01*
X172604857Y-71378959D02*
X172652476Y-71355149D01*
X172652476Y-71355149D02*
X172747714Y-71355149D01*
X172747714Y-71355149D02*
X172795333Y-71378959D01*
X172795333Y-71378959D02*
X172819142Y-71402768D01*
X172819142Y-71402768D02*
X172842952Y-71450387D01*
X172842952Y-71450387D02*
X172842952Y-71474197D01*
X172842952Y-71474197D02*
X172819142Y-71521816D01*
X172819142Y-71521816D02*
X172795333Y-71545625D01*
X172795333Y-71545625D02*
X172747714Y-71569435D01*
X172747714Y-71569435D02*
X172652476Y-71569435D01*
X172652476Y-71569435D02*
X172604857Y-71593244D01*
X172604857Y-71593244D02*
X172581047Y-71617054D01*
X172581047Y-71617054D02*
X172557238Y-71664673D01*
X172557238Y-71664673D02*
X172557238Y-71759911D01*
X172557238Y-71759911D02*
X172581047Y-71807530D01*
X172581047Y-71807530D02*
X172604857Y-71831340D01*
X172604857Y-71831340D02*
X172652476Y-71855149D01*
X172652476Y-71855149D02*
X172747714Y-71855149D01*
X172747714Y-71855149D02*
X172795333Y-71831340D01*
X172795333Y-71831340D02*
X172819142Y-71807530D01*
X172819142Y-71807530D02*
X172842952Y-71759911D01*
X172842952Y-71759911D02*
X172842952Y-71664673D01*
X172842952Y-71664673D02*
X172819142Y-71617054D01*
X172819142Y-71617054D02*
X172795333Y-71593244D01*
X172795333Y-71593244D02*
X172747714Y-71569435D01*
D10*
X163000045Y-120345142D02*
X162961950Y-120421332D01*
X162961950Y-120421332D02*
X162885760Y-120497523D01*
X162885760Y-120497523D02*
X162771474Y-120611809D01*
X162771474Y-120611809D02*
X162733379Y-120687999D01*
X162733379Y-120687999D02*
X162733379Y-120764190D01*
X162923855Y-120726094D02*
X162885760Y-120802285D01*
X162885760Y-120802285D02*
X162809569Y-120878475D01*
X162809569Y-120878475D02*
X162657188Y-120916571D01*
X162657188Y-120916571D02*
X162390521Y-120916571D01*
X162390521Y-120916571D02*
X162238140Y-120878475D01*
X162238140Y-120878475D02*
X162161950Y-120802285D01*
X162161950Y-120802285D02*
X162123855Y-120726094D01*
X162123855Y-120726094D02*
X162123855Y-120573713D01*
X162123855Y-120573713D02*
X162161950Y-120497523D01*
X162161950Y-120497523D02*
X162238140Y-120421332D01*
X162238140Y-120421332D02*
X162390521Y-120383237D01*
X162390521Y-120383237D02*
X162657188Y-120383237D01*
X162657188Y-120383237D02*
X162809569Y-120421332D01*
X162809569Y-120421332D02*
X162885760Y-120497523D01*
X162885760Y-120497523D02*
X162923855Y-120573713D01*
X162923855Y-120573713D02*
X162923855Y-120726094D01*
X162923855Y-119621333D02*
X162923855Y-120078476D01*
X162923855Y-119849904D02*
X162123855Y-119849904D01*
X162123855Y-119849904D02*
X162238140Y-119926095D01*
X162238140Y-119926095D02*
X162314331Y-120002285D01*
X162314331Y-120002285D02*
X162352426Y-120078476D01*
X162390521Y-118935618D02*
X162923855Y-118935618D01*
X162085760Y-119126094D02*
X162657188Y-119316571D01*
X162657188Y-119316571D02*
X162657188Y-118821332D01*
D12*
X146023149Y-103169833D02*
X145785054Y-103336499D01*
X146023149Y-103455547D02*
X145523149Y-103455547D01*
X145523149Y-103455547D02*
X145523149Y-103265071D01*
X145523149Y-103265071D02*
X145546959Y-103217452D01*
X145546959Y-103217452D02*
X145570768Y-103193642D01*
X145570768Y-103193642D02*
X145618387Y-103169833D01*
X145618387Y-103169833D02*
X145689816Y-103169833D01*
X145689816Y-103169833D02*
X145737435Y-103193642D01*
X145737435Y-103193642D02*
X145761244Y-103217452D01*
X145761244Y-103217452D02*
X145785054Y-103265071D01*
X145785054Y-103265071D02*
X145785054Y-103455547D01*
X145737435Y-102884118D02*
X145713625Y-102931737D01*
X145713625Y-102931737D02*
X145689816Y-102955547D01*
X145689816Y-102955547D02*
X145642197Y-102979356D01*
X145642197Y-102979356D02*
X145618387Y-102979356D01*
X145618387Y-102979356D02*
X145570768Y-102955547D01*
X145570768Y-102955547D02*
X145546959Y-102931737D01*
X145546959Y-102931737D02*
X145523149Y-102884118D01*
X145523149Y-102884118D02*
X145523149Y-102788880D01*
X145523149Y-102788880D02*
X145546959Y-102741261D01*
X145546959Y-102741261D02*
X145570768Y-102717452D01*
X145570768Y-102717452D02*
X145618387Y-102693642D01*
X145618387Y-102693642D02*
X145642197Y-102693642D01*
X145642197Y-102693642D02*
X145689816Y-102717452D01*
X145689816Y-102717452D02*
X145713625Y-102741261D01*
X145713625Y-102741261D02*
X145737435Y-102788880D01*
X145737435Y-102788880D02*
X145737435Y-102884118D01*
X145737435Y-102884118D02*
X145761244Y-102931737D01*
X145761244Y-102931737D02*
X145785054Y-102955547D01*
X145785054Y-102955547D02*
X145832673Y-102979356D01*
X145832673Y-102979356D02*
X145927911Y-102979356D01*
X145927911Y-102979356D02*
X145975530Y-102955547D01*
X145975530Y-102955547D02*
X145999340Y-102931737D01*
X145999340Y-102931737D02*
X146023149Y-102884118D01*
X146023149Y-102884118D02*
X146023149Y-102788880D01*
X146023149Y-102788880D02*
X145999340Y-102741261D01*
X145999340Y-102741261D02*
X145975530Y-102717452D01*
X145975530Y-102717452D02*
X145927911Y-102693642D01*
X145927911Y-102693642D02*
X145832673Y-102693642D01*
X145832673Y-102693642D02*
X145785054Y-102717452D01*
X145785054Y-102717452D02*
X145761244Y-102741261D01*
X145761244Y-102741261D02*
X145737435Y-102788880D01*
X146023149Y-87967333D02*
X145785054Y-88133999D01*
X146023149Y-88253047D02*
X145523149Y-88253047D01*
X145523149Y-88253047D02*
X145523149Y-88062571D01*
X145523149Y-88062571D02*
X145546959Y-88014952D01*
X145546959Y-88014952D02*
X145570768Y-87991142D01*
X145570768Y-87991142D02*
X145618387Y-87967333D01*
X145618387Y-87967333D02*
X145689816Y-87967333D01*
X145689816Y-87967333D02*
X145737435Y-87991142D01*
X145737435Y-87991142D02*
X145761244Y-88014952D01*
X145761244Y-88014952D02*
X145785054Y-88062571D01*
X145785054Y-88062571D02*
X145785054Y-88253047D01*
X145523149Y-87538761D02*
X145523149Y-87633999D01*
X145523149Y-87633999D02*
X145546959Y-87681618D01*
X145546959Y-87681618D02*
X145570768Y-87705428D01*
X145570768Y-87705428D02*
X145642197Y-87753047D01*
X145642197Y-87753047D02*
X145737435Y-87776856D01*
X145737435Y-87776856D02*
X145927911Y-87776856D01*
X145927911Y-87776856D02*
X145975530Y-87753047D01*
X145975530Y-87753047D02*
X145999340Y-87729237D01*
X145999340Y-87729237D02*
X146023149Y-87681618D01*
X146023149Y-87681618D02*
X146023149Y-87586380D01*
X146023149Y-87586380D02*
X145999340Y-87538761D01*
X145999340Y-87538761D02*
X145975530Y-87514952D01*
X145975530Y-87514952D02*
X145927911Y-87491142D01*
X145927911Y-87491142D02*
X145808863Y-87491142D01*
X145808863Y-87491142D02*
X145761244Y-87514952D01*
X145761244Y-87514952D02*
X145737435Y-87538761D01*
X145737435Y-87538761D02*
X145713625Y-87586380D01*
X145713625Y-87586380D02*
X145713625Y-87681618D01*
X145713625Y-87681618D02*
X145737435Y-87729237D01*
X145737435Y-87729237D02*
X145761244Y-87753047D01*
X145761244Y-87753047D02*
X145808863Y-87776856D01*
D11*
X137025142Y-83163580D02*
X136977523Y-83211200D01*
X136977523Y-83211200D02*
X136834666Y-83258819D01*
X136834666Y-83258819D02*
X136739428Y-83258819D01*
X136739428Y-83258819D02*
X136596571Y-83211200D01*
X136596571Y-83211200D02*
X136501333Y-83115961D01*
X136501333Y-83115961D02*
X136453714Y-83020723D01*
X136453714Y-83020723D02*
X136406095Y-82830247D01*
X136406095Y-82830247D02*
X136406095Y-82687390D01*
X136406095Y-82687390D02*
X136453714Y-82496914D01*
X136453714Y-82496914D02*
X136501333Y-82401676D01*
X136501333Y-82401676D02*
X136596571Y-82306438D01*
X136596571Y-82306438D02*
X136739428Y-82258819D01*
X136739428Y-82258819D02*
X136834666Y-82258819D01*
X136834666Y-82258819D02*
X136977523Y-82306438D01*
X136977523Y-82306438D02*
X137025142Y-82354057D01*
X137977523Y-83258819D02*
X137406095Y-83258819D01*
X137691809Y-83258819D02*
X137691809Y-82258819D01*
X137691809Y-82258819D02*
X137596571Y-82401676D01*
X137596571Y-82401676D02*
X137501333Y-82496914D01*
X137501333Y-82496914D02*
X137406095Y-82544533D01*
X138929904Y-83258819D02*
X138358476Y-83258819D01*
X138644190Y-83258819D02*
X138644190Y-82258819D01*
X138644190Y-82258819D02*
X138548952Y-82401676D01*
X138548952Y-82401676D02*
X138453714Y-82496914D01*
X138453714Y-82496914D02*
X138358476Y-82544533D01*
D12*
X168375149Y-87697428D02*
X168137054Y-87864094D01*
X168375149Y-87983142D02*
X167875149Y-87983142D01*
X167875149Y-87983142D02*
X167875149Y-87792666D01*
X167875149Y-87792666D02*
X167898959Y-87745047D01*
X167898959Y-87745047D02*
X167922768Y-87721237D01*
X167922768Y-87721237D02*
X167970387Y-87697428D01*
X167970387Y-87697428D02*
X168041816Y-87697428D01*
X168041816Y-87697428D02*
X168089435Y-87721237D01*
X168089435Y-87721237D02*
X168113244Y-87745047D01*
X168113244Y-87745047D02*
X168137054Y-87792666D01*
X168137054Y-87792666D02*
X168137054Y-87983142D01*
X167875149Y-87530761D02*
X167875149Y-87221237D01*
X167875149Y-87221237D02*
X168065625Y-87387904D01*
X168065625Y-87387904D02*
X168065625Y-87316475D01*
X168065625Y-87316475D02*
X168089435Y-87268856D01*
X168089435Y-87268856D02*
X168113244Y-87245047D01*
X168113244Y-87245047D02*
X168160863Y-87221237D01*
X168160863Y-87221237D02*
X168279911Y-87221237D01*
X168279911Y-87221237D02*
X168327530Y-87245047D01*
X168327530Y-87245047D02*
X168351340Y-87268856D01*
X168351340Y-87268856D02*
X168375149Y-87316475D01*
X168375149Y-87316475D02*
X168375149Y-87459332D01*
X168375149Y-87459332D02*
X168351340Y-87506951D01*
X168351340Y-87506951D02*
X168327530Y-87530761D01*
X167875149Y-87054571D02*
X167875149Y-86745047D01*
X167875149Y-86745047D02*
X168065625Y-86911714D01*
X168065625Y-86911714D02*
X168065625Y-86840285D01*
X168065625Y-86840285D02*
X168089435Y-86792666D01*
X168089435Y-86792666D02*
X168113244Y-86768857D01*
X168113244Y-86768857D02*
X168160863Y-86745047D01*
X168160863Y-86745047D02*
X168279911Y-86745047D01*
X168279911Y-86745047D02*
X168327530Y-86768857D01*
X168327530Y-86768857D02*
X168351340Y-86792666D01*
X168351340Y-86792666D02*
X168375149Y-86840285D01*
X168375149Y-86840285D02*
X168375149Y-86983142D01*
X168375149Y-86983142D02*
X168351340Y-87030761D01*
X168351340Y-87030761D02*
X168327530Y-87054571D01*
X168412649Y-80077428D02*
X168174554Y-80244094D01*
X168412649Y-80363142D02*
X167912649Y-80363142D01*
X167912649Y-80363142D02*
X167912649Y-80172666D01*
X167912649Y-80172666D02*
X167936459Y-80125047D01*
X167936459Y-80125047D02*
X167960268Y-80101237D01*
X167960268Y-80101237D02*
X168007887Y-80077428D01*
X168007887Y-80077428D02*
X168079316Y-80077428D01*
X168079316Y-80077428D02*
X168126935Y-80101237D01*
X168126935Y-80101237D02*
X168150744Y-80125047D01*
X168150744Y-80125047D02*
X168174554Y-80172666D01*
X168174554Y-80172666D02*
X168174554Y-80363142D01*
X167912649Y-79910761D02*
X167912649Y-79601237D01*
X167912649Y-79601237D02*
X168103125Y-79767904D01*
X168103125Y-79767904D02*
X168103125Y-79696475D01*
X168103125Y-79696475D02*
X168126935Y-79648856D01*
X168126935Y-79648856D02*
X168150744Y-79625047D01*
X168150744Y-79625047D02*
X168198363Y-79601237D01*
X168198363Y-79601237D02*
X168317411Y-79601237D01*
X168317411Y-79601237D02*
X168365030Y-79625047D01*
X168365030Y-79625047D02*
X168388840Y-79648856D01*
X168388840Y-79648856D02*
X168412649Y-79696475D01*
X168412649Y-79696475D02*
X168412649Y-79839332D01*
X168412649Y-79839332D02*
X168388840Y-79886951D01*
X168388840Y-79886951D02*
X168365030Y-79910761D01*
X168412649Y-79125047D02*
X168412649Y-79410761D01*
X168412649Y-79267904D02*
X167912649Y-79267904D01*
X167912649Y-79267904D02*
X167984078Y-79315523D01*
X167984078Y-79315523D02*
X168031697Y-79363142D01*
X168031697Y-79363142D02*
X168055506Y-79410761D01*
D11*
X183642095Y-62938819D02*
X183642095Y-61938819D01*
X183642095Y-62415009D02*
X184213523Y-62415009D01*
X184213523Y-62938819D02*
X184213523Y-61938819D01*
X184594476Y-61938819D02*
X185213523Y-61938819D01*
X185213523Y-61938819D02*
X184880190Y-62319771D01*
X184880190Y-62319771D02*
X185023047Y-62319771D01*
X185023047Y-62319771D02*
X185118285Y-62367390D01*
X185118285Y-62367390D02*
X185165904Y-62415009D01*
X185165904Y-62415009D02*
X185213523Y-62510247D01*
X185213523Y-62510247D02*
X185213523Y-62748342D01*
X185213523Y-62748342D02*
X185165904Y-62843580D01*
X185165904Y-62843580D02*
X185118285Y-62891200D01*
X185118285Y-62891200D02*
X185023047Y-62938819D01*
X185023047Y-62938819D02*
X184737333Y-62938819D01*
X184737333Y-62938819D02*
X184642095Y-62891200D01*
X184642095Y-62891200D02*
X184594476Y-62843580D01*
D12*
X119042666Y-63981149D02*
X118876000Y-63743054D01*
X118756952Y-63981149D02*
X118756952Y-63481149D01*
X118756952Y-63481149D02*
X118947428Y-63481149D01*
X118947428Y-63481149D02*
X118995047Y-63504959D01*
X118995047Y-63504959D02*
X119018857Y-63528768D01*
X119018857Y-63528768D02*
X119042666Y-63576387D01*
X119042666Y-63576387D02*
X119042666Y-63647816D01*
X119042666Y-63647816D02*
X119018857Y-63695435D01*
X119018857Y-63695435D02*
X118995047Y-63719244D01*
X118995047Y-63719244D02*
X118947428Y-63743054D01*
X118947428Y-63743054D02*
X118756952Y-63743054D01*
X119518857Y-63981149D02*
X119233143Y-63981149D01*
X119376000Y-63981149D02*
X119376000Y-63481149D01*
X119376000Y-63481149D02*
X119328381Y-63552578D01*
X119328381Y-63552578D02*
X119280762Y-63600197D01*
X119280762Y-63600197D02*
X119233143Y-63624006D01*
D11*
X153077666Y-64930819D02*
X153077666Y-65645104D01*
X153077666Y-65645104D02*
X153030047Y-65787961D01*
X153030047Y-65787961D02*
X152934809Y-65883200D01*
X152934809Y-65883200D02*
X152791952Y-65930819D01*
X152791952Y-65930819D02*
X152696714Y-65930819D01*
X153458619Y-64930819D02*
X154077666Y-64930819D01*
X154077666Y-64930819D02*
X153744333Y-65311771D01*
X153744333Y-65311771D02*
X153887190Y-65311771D01*
X153887190Y-65311771D02*
X153982428Y-65359390D01*
X153982428Y-65359390D02*
X154030047Y-65407009D01*
X154030047Y-65407009D02*
X154077666Y-65502247D01*
X154077666Y-65502247D02*
X154077666Y-65740342D01*
X154077666Y-65740342D02*
X154030047Y-65835580D01*
X154030047Y-65835580D02*
X153982428Y-65883200D01*
X153982428Y-65883200D02*
X153887190Y-65930819D01*
X153887190Y-65930819D02*
X153601476Y-65930819D01*
X153601476Y-65930819D02*
X153506238Y-65883200D01*
X153506238Y-65883200D02*
X153458619Y-65835580D01*
D12*
X157199149Y-118177428D02*
X156961054Y-118344094D01*
X157199149Y-118463142D02*
X156699149Y-118463142D01*
X156699149Y-118463142D02*
X156699149Y-118272666D01*
X156699149Y-118272666D02*
X156722959Y-118225047D01*
X156722959Y-118225047D02*
X156746768Y-118201237D01*
X156746768Y-118201237D02*
X156794387Y-118177428D01*
X156794387Y-118177428D02*
X156865816Y-118177428D01*
X156865816Y-118177428D02*
X156913435Y-118201237D01*
X156913435Y-118201237D02*
X156937244Y-118225047D01*
X156937244Y-118225047D02*
X156961054Y-118272666D01*
X156961054Y-118272666D02*
X156961054Y-118463142D01*
X156746768Y-117986951D02*
X156722959Y-117963142D01*
X156722959Y-117963142D02*
X156699149Y-117915523D01*
X156699149Y-117915523D02*
X156699149Y-117796475D01*
X156699149Y-117796475D02*
X156722959Y-117748856D01*
X156722959Y-117748856D02*
X156746768Y-117725047D01*
X156746768Y-117725047D02*
X156794387Y-117701237D01*
X156794387Y-117701237D02*
X156842006Y-117701237D01*
X156842006Y-117701237D02*
X156913435Y-117725047D01*
X156913435Y-117725047D02*
X157199149Y-118010761D01*
X157199149Y-118010761D02*
X157199149Y-117701237D01*
X156699149Y-117248857D02*
X156699149Y-117486952D01*
X156699149Y-117486952D02*
X156937244Y-117510761D01*
X156937244Y-117510761D02*
X156913435Y-117486952D01*
X156913435Y-117486952D02*
X156889625Y-117439333D01*
X156889625Y-117439333D02*
X156889625Y-117320285D01*
X156889625Y-117320285D02*
X156913435Y-117272666D01*
X156913435Y-117272666D02*
X156937244Y-117248857D01*
X156937244Y-117248857D02*
X156984863Y-117225047D01*
X156984863Y-117225047D02*
X157103911Y-117225047D01*
X157103911Y-117225047D02*
X157151530Y-117248857D01*
X157151530Y-117248857D02*
X157175340Y-117272666D01*
X157175340Y-117272666D02*
X157199149Y-117320285D01*
X157199149Y-117320285D02*
X157199149Y-117439333D01*
X157199149Y-117439333D02*
X157175340Y-117486952D01*
X157175340Y-117486952D02*
X157151530Y-117510761D01*
D11*
X134074819Y-108203904D02*
X134884342Y-108203904D01*
X134884342Y-108203904D02*
X134979580Y-108156285D01*
X134979580Y-108156285D02*
X135027200Y-108108666D01*
X135027200Y-108108666D02*
X135074819Y-108013428D01*
X135074819Y-108013428D02*
X135074819Y-107822952D01*
X135074819Y-107822952D02*
X135027200Y-107727714D01*
X135027200Y-107727714D02*
X134979580Y-107680095D01*
X134979580Y-107680095D02*
X134884342Y-107632476D01*
X134884342Y-107632476D02*
X134074819Y-107632476D01*
X134074819Y-107251523D02*
X134074819Y-106632476D01*
X134074819Y-106632476D02*
X134455771Y-106965809D01*
X134455771Y-106965809D02*
X134455771Y-106822952D01*
X134455771Y-106822952D02*
X134503390Y-106727714D01*
X134503390Y-106727714D02*
X134551009Y-106680095D01*
X134551009Y-106680095D02*
X134646247Y-106632476D01*
X134646247Y-106632476D02*
X134884342Y-106632476D01*
X134884342Y-106632476D02*
X134979580Y-106680095D01*
X134979580Y-106680095D02*
X135027200Y-106727714D01*
X135027200Y-106727714D02*
X135074819Y-106822952D01*
X135074819Y-106822952D02*
X135074819Y-107108666D01*
X135074819Y-107108666D02*
X135027200Y-107203904D01*
X135027200Y-107203904D02*
X134979580Y-107251523D01*
D12*
X168375149Y-136973428D02*
X168137054Y-137140094D01*
X168375149Y-137259142D02*
X167875149Y-137259142D01*
X167875149Y-137259142D02*
X167875149Y-137068666D01*
X167875149Y-137068666D02*
X167898959Y-137021047D01*
X167898959Y-137021047D02*
X167922768Y-136997237D01*
X167922768Y-136997237D02*
X167970387Y-136973428D01*
X167970387Y-136973428D02*
X168041816Y-136973428D01*
X168041816Y-136973428D02*
X168089435Y-136997237D01*
X168089435Y-136997237D02*
X168113244Y-137021047D01*
X168113244Y-137021047D02*
X168137054Y-137068666D01*
X168137054Y-137068666D02*
X168137054Y-137259142D01*
X168041816Y-136544856D02*
X168375149Y-136544856D01*
X167851340Y-136663904D02*
X168208482Y-136782951D01*
X168208482Y-136782951D02*
X168208482Y-136473428D01*
X167875149Y-136068666D02*
X167875149Y-136163904D01*
X167875149Y-136163904D02*
X167898959Y-136211523D01*
X167898959Y-136211523D02*
X167922768Y-136235333D01*
X167922768Y-136235333D02*
X167994197Y-136282952D01*
X167994197Y-136282952D02*
X168089435Y-136306761D01*
X168089435Y-136306761D02*
X168279911Y-136306761D01*
X168279911Y-136306761D02*
X168327530Y-136282952D01*
X168327530Y-136282952D02*
X168351340Y-136259142D01*
X168351340Y-136259142D02*
X168375149Y-136211523D01*
X168375149Y-136211523D02*
X168375149Y-136116285D01*
X168375149Y-136116285D02*
X168351340Y-136068666D01*
X168351340Y-136068666D02*
X168327530Y-136044857D01*
X168327530Y-136044857D02*
X168279911Y-136021047D01*
X168279911Y-136021047D02*
X168160863Y-136021047D01*
X168160863Y-136021047D02*
X168113244Y-136044857D01*
X168113244Y-136044857D02*
X168089435Y-136068666D01*
X168089435Y-136068666D02*
X168065625Y-136116285D01*
X168065625Y-136116285D02*
X168065625Y-136211523D01*
X168065625Y-136211523D02*
X168089435Y-136259142D01*
X168089435Y-136259142D02*
X168113244Y-136282952D01*
X168113244Y-136282952D02*
X168160863Y-136306761D01*
X157199149Y-121770928D02*
X156961054Y-121937594D01*
X157199149Y-122056642D02*
X156699149Y-122056642D01*
X156699149Y-122056642D02*
X156699149Y-121866166D01*
X156699149Y-121866166D02*
X156722959Y-121818547D01*
X156722959Y-121818547D02*
X156746768Y-121794737D01*
X156746768Y-121794737D02*
X156794387Y-121770928D01*
X156794387Y-121770928D02*
X156865816Y-121770928D01*
X156865816Y-121770928D02*
X156913435Y-121794737D01*
X156913435Y-121794737D02*
X156937244Y-121818547D01*
X156937244Y-121818547D02*
X156961054Y-121866166D01*
X156961054Y-121866166D02*
X156961054Y-122056642D01*
X156746768Y-121580451D02*
X156722959Y-121556642D01*
X156722959Y-121556642D02*
X156699149Y-121509023D01*
X156699149Y-121509023D02*
X156699149Y-121389975D01*
X156699149Y-121389975D02*
X156722959Y-121342356D01*
X156722959Y-121342356D02*
X156746768Y-121318547D01*
X156746768Y-121318547D02*
X156794387Y-121294737D01*
X156794387Y-121294737D02*
X156842006Y-121294737D01*
X156842006Y-121294737D02*
X156913435Y-121318547D01*
X156913435Y-121318547D02*
X157199149Y-121604261D01*
X157199149Y-121604261D02*
X157199149Y-121294737D01*
X156699149Y-120866166D02*
X156699149Y-120961404D01*
X156699149Y-120961404D02*
X156722959Y-121009023D01*
X156722959Y-121009023D02*
X156746768Y-121032833D01*
X156746768Y-121032833D02*
X156818197Y-121080452D01*
X156818197Y-121080452D02*
X156913435Y-121104261D01*
X156913435Y-121104261D02*
X157103911Y-121104261D01*
X157103911Y-121104261D02*
X157151530Y-121080452D01*
X157151530Y-121080452D02*
X157175340Y-121056642D01*
X157175340Y-121056642D02*
X157199149Y-121009023D01*
X157199149Y-121009023D02*
X157199149Y-120913785D01*
X157199149Y-120913785D02*
X157175340Y-120866166D01*
X157175340Y-120866166D02*
X157151530Y-120842357D01*
X157151530Y-120842357D02*
X157103911Y-120818547D01*
X157103911Y-120818547D02*
X156984863Y-120818547D01*
X156984863Y-120818547D02*
X156937244Y-120842357D01*
X156937244Y-120842357D02*
X156913435Y-120866166D01*
X156913435Y-120866166D02*
X156889625Y-120913785D01*
X156889625Y-120913785D02*
X156889625Y-121009023D01*
X156889625Y-121009023D02*
X156913435Y-121056642D01*
X156913435Y-121056642D02*
X156937244Y-121080452D01*
X156937244Y-121080452D02*
X156984863Y-121104261D01*
X152627149Y-72711428D02*
X152389054Y-72878094D01*
X152627149Y-72997142D02*
X152127149Y-72997142D01*
X152127149Y-72997142D02*
X152127149Y-72806666D01*
X152127149Y-72806666D02*
X152150959Y-72759047D01*
X152150959Y-72759047D02*
X152174768Y-72735237D01*
X152174768Y-72735237D02*
X152222387Y-72711428D01*
X152222387Y-72711428D02*
X152293816Y-72711428D01*
X152293816Y-72711428D02*
X152341435Y-72735237D01*
X152341435Y-72735237D02*
X152365244Y-72759047D01*
X152365244Y-72759047D02*
X152389054Y-72806666D01*
X152389054Y-72806666D02*
X152389054Y-72997142D01*
X152627149Y-72235237D02*
X152627149Y-72520951D01*
X152627149Y-72378094D02*
X152127149Y-72378094D01*
X152127149Y-72378094D02*
X152198578Y-72425713D01*
X152198578Y-72425713D02*
X152246197Y-72473332D01*
X152246197Y-72473332D02*
X152270006Y-72520951D01*
X152293816Y-71806666D02*
X152627149Y-71806666D01*
X152103340Y-71925714D02*
X152460482Y-72044761D01*
X152460482Y-72044761D02*
X152460482Y-71735238D01*
X168375149Y-102899928D02*
X168137054Y-103066594D01*
X168375149Y-103185642D02*
X167875149Y-103185642D01*
X167875149Y-103185642D02*
X167875149Y-102995166D01*
X167875149Y-102995166D02*
X167898959Y-102947547D01*
X167898959Y-102947547D02*
X167922768Y-102923737D01*
X167922768Y-102923737D02*
X167970387Y-102899928D01*
X167970387Y-102899928D02*
X168041816Y-102899928D01*
X168041816Y-102899928D02*
X168089435Y-102923737D01*
X168089435Y-102923737D02*
X168113244Y-102947547D01*
X168113244Y-102947547D02*
X168137054Y-102995166D01*
X168137054Y-102995166D02*
X168137054Y-103185642D01*
X167875149Y-102733261D02*
X167875149Y-102423737D01*
X167875149Y-102423737D02*
X168065625Y-102590404D01*
X168065625Y-102590404D02*
X168065625Y-102518975D01*
X168065625Y-102518975D02*
X168089435Y-102471356D01*
X168089435Y-102471356D02*
X168113244Y-102447547D01*
X168113244Y-102447547D02*
X168160863Y-102423737D01*
X168160863Y-102423737D02*
X168279911Y-102423737D01*
X168279911Y-102423737D02*
X168327530Y-102447547D01*
X168327530Y-102447547D02*
X168351340Y-102471356D01*
X168351340Y-102471356D02*
X168375149Y-102518975D01*
X168375149Y-102518975D02*
X168375149Y-102661832D01*
X168375149Y-102661832D02*
X168351340Y-102709451D01*
X168351340Y-102709451D02*
X168327530Y-102733261D01*
X167875149Y-102257071D02*
X167875149Y-101923738D01*
X167875149Y-101923738D02*
X168375149Y-102138023D01*
D11*
X126761333Y-63473566D02*
X126761333Y-64266900D01*
X126761333Y-64266900D02*
X126808000Y-64360233D01*
X126808000Y-64360233D02*
X126854666Y-64406900D01*
X126854666Y-64406900D02*
X126948000Y-64453566D01*
X126948000Y-64453566D02*
X127134666Y-64453566D01*
X127134666Y-64453566D02*
X127228000Y-64406900D01*
X127228000Y-64406900D02*
X127274666Y-64360233D01*
X127274666Y-64360233D02*
X127321333Y-64266900D01*
X127321333Y-64266900D02*
X127321333Y-63473566D01*
X127741333Y-63566900D02*
X127788000Y-63520233D01*
X127788000Y-63520233D02*
X127881333Y-63473566D01*
X127881333Y-63473566D02*
X128114667Y-63473566D01*
X128114667Y-63473566D02*
X128208000Y-63520233D01*
X128208000Y-63520233D02*
X128254667Y-63566900D01*
X128254667Y-63566900D02*
X128301333Y-63660233D01*
X128301333Y-63660233D02*
X128301333Y-63753566D01*
X128301333Y-63753566D02*
X128254667Y-63893566D01*
X128254667Y-63893566D02*
X127694667Y-64453566D01*
X127694667Y-64453566D02*
X128301333Y-64453566D01*
D10*
X151824045Y-89484190D02*
X151785950Y-89560380D01*
X151785950Y-89560380D02*
X151709760Y-89636571D01*
X151709760Y-89636571D02*
X151595474Y-89750857D01*
X151595474Y-89750857D02*
X151557379Y-89827047D01*
X151557379Y-89827047D02*
X151557379Y-89903238D01*
X151747855Y-89865142D02*
X151709760Y-89941333D01*
X151709760Y-89941333D02*
X151633569Y-90017523D01*
X151633569Y-90017523D02*
X151481188Y-90055619D01*
X151481188Y-90055619D02*
X151214521Y-90055619D01*
X151214521Y-90055619D02*
X151062140Y-90017523D01*
X151062140Y-90017523D02*
X150985950Y-89941333D01*
X150985950Y-89941333D02*
X150947855Y-89865142D01*
X150947855Y-89865142D02*
X150947855Y-89712761D01*
X150947855Y-89712761D02*
X150985950Y-89636571D01*
X150985950Y-89636571D02*
X151062140Y-89560380D01*
X151062140Y-89560380D02*
X151214521Y-89522285D01*
X151214521Y-89522285D02*
X151481188Y-89522285D01*
X151481188Y-89522285D02*
X151633569Y-89560380D01*
X151633569Y-89560380D02*
X151709760Y-89636571D01*
X151709760Y-89636571D02*
X151747855Y-89712761D01*
X151747855Y-89712761D02*
X151747855Y-89865142D01*
X151024045Y-89217524D02*
X150985950Y-89179428D01*
X150985950Y-89179428D02*
X150947855Y-89103238D01*
X150947855Y-89103238D02*
X150947855Y-88912762D01*
X150947855Y-88912762D02*
X150985950Y-88836571D01*
X150985950Y-88836571D02*
X151024045Y-88798476D01*
X151024045Y-88798476D02*
X151100236Y-88760381D01*
X151100236Y-88760381D02*
X151176426Y-88760381D01*
X151176426Y-88760381D02*
X151290712Y-88798476D01*
X151290712Y-88798476D02*
X151747855Y-89255619D01*
X151747855Y-89255619D02*
X151747855Y-88760381D01*
D11*
X139297580Y-73032857D02*
X139345200Y-73080476D01*
X139345200Y-73080476D02*
X139392819Y-73223333D01*
X139392819Y-73223333D02*
X139392819Y-73318571D01*
X139392819Y-73318571D02*
X139345200Y-73461428D01*
X139345200Y-73461428D02*
X139249961Y-73556666D01*
X139249961Y-73556666D02*
X139154723Y-73604285D01*
X139154723Y-73604285D02*
X138964247Y-73651904D01*
X138964247Y-73651904D02*
X138821390Y-73651904D01*
X138821390Y-73651904D02*
X138630914Y-73604285D01*
X138630914Y-73604285D02*
X138535676Y-73556666D01*
X138535676Y-73556666D02*
X138440438Y-73461428D01*
X138440438Y-73461428D02*
X138392819Y-73318571D01*
X138392819Y-73318571D02*
X138392819Y-73223333D01*
X138392819Y-73223333D02*
X138440438Y-73080476D01*
X138440438Y-73080476D02*
X138488057Y-73032857D01*
X139392819Y-72080476D02*
X139392819Y-72651904D01*
X139392819Y-72366190D02*
X138392819Y-72366190D01*
X138392819Y-72366190D02*
X138535676Y-72461428D01*
X138535676Y-72461428D02*
X138630914Y-72556666D01*
X138630914Y-72556666D02*
X138678533Y-72651904D01*
X138392819Y-71747142D02*
X138392819Y-71128095D01*
X138392819Y-71128095D02*
X138773771Y-71461428D01*
X138773771Y-71461428D02*
X138773771Y-71318571D01*
X138773771Y-71318571D02*
X138821390Y-71223333D01*
X138821390Y-71223333D02*
X138869009Y-71175714D01*
X138869009Y-71175714D02*
X138964247Y-71128095D01*
X138964247Y-71128095D02*
X139202342Y-71128095D01*
X139202342Y-71128095D02*
X139297580Y-71175714D01*
X139297580Y-71175714D02*
X139345200Y-71223333D01*
X139345200Y-71223333D02*
X139392819Y-71318571D01*
X139392819Y-71318571D02*
X139392819Y-71604285D01*
X139392819Y-71604285D02*
X139345200Y-71699523D01*
X139345200Y-71699523D02*
X139297580Y-71747142D01*
D10*
X134145664Y-72523332D02*
X134183760Y-72561428D01*
X134183760Y-72561428D02*
X134221855Y-72675713D01*
X134221855Y-72675713D02*
X134221855Y-72751904D01*
X134221855Y-72751904D02*
X134183760Y-72866190D01*
X134183760Y-72866190D02*
X134107569Y-72942380D01*
X134107569Y-72942380D02*
X134031379Y-72980475D01*
X134031379Y-72980475D02*
X133878998Y-73018571D01*
X133878998Y-73018571D02*
X133764712Y-73018571D01*
X133764712Y-73018571D02*
X133612331Y-72980475D01*
X133612331Y-72980475D02*
X133536140Y-72942380D01*
X133536140Y-72942380D02*
X133459950Y-72866190D01*
X133459950Y-72866190D02*
X133421855Y-72751904D01*
X133421855Y-72751904D02*
X133421855Y-72675713D01*
X133421855Y-72675713D02*
X133459950Y-72561428D01*
X133459950Y-72561428D02*
X133498045Y-72523332D01*
X134221855Y-72142380D02*
X134221855Y-71989999D01*
X134221855Y-71989999D02*
X134183760Y-71913809D01*
X134183760Y-71913809D02*
X134145664Y-71875713D01*
X134145664Y-71875713D02*
X134031379Y-71799523D01*
X134031379Y-71799523D02*
X133878998Y-71761428D01*
X133878998Y-71761428D02*
X133574236Y-71761428D01*
X133574236Y-71761428D02*
X133498045Y-71799523D01*
X133498045Y-71799523D02*
X133459950Y-71837618D01*
X133459950Y-71837618D02*
X133421855Y-71913809D01*
X133421855Y-71913809D02*
X133421855Y-72066190D01*
X133421855Y-72066190D02*
X133459950Y-72142380D01*
X133459950Y-72142380D02*
X133498045Y-72180475D01*
X133498045Y-72180475D02*
X133574236Y-72218571D01*
X133574236Y-72218571D02*
X133764712Y-72218571D01*
X133764712Y-72218571D02*
X133840902Y-72180475D01*
X133840902Y-72180475D02*
X133878998Y-72142380D01*
X133878998Y-72142380D02*
X133917093Y-72066190D01*
X133917093Y-72066190D02*
X133917093Y-71913809D01*
X133917093Y-71913809D02*
X133878998Y-71837618D01*
X133878998Y-71837618D02*
X133840902Y-71799523D01*
X133840902Y-71799523D02*
X133764712Y-71761428D01*
D12*
X168375149Y-110557428D02*
X168137054Y-110724094D01*
X168375149Y-110843142D02*
X167875149Y-110843142D01*
X167875149Y-110843142D02*
X167875149Y-110652666D01*
X167875149Y-110652666D02*
X167898959Y-110605047D01*
X167898959Y-110605047D02*
X167922768Y-110581237D01*
X167922768Y-110581237D02*
X167970387Y-110557428D01*
X167970387Y-110557428D02*
X168041816Y-110557428D01*
X168041816Y-110557428D02*
X168089435Y-110581237D01*
X168089435Y-110581237D02*
X168113244Y-110605047D01*
X168113244Y-110605047D02*
X168137054Y-110652666D01*
X168137054Y-110652666D02*
X168137054Y-110843142D01*
X167875149Y-110390761D02*
X167875149Y-110081237D01*
X167875149Y-110081237D02*
X168065625Y-110247904D01*
X168065625Y-110247904D02*
X168065625Y-110176475D01*
X168065625Y-110176475D02*
X168089435Y-110128856D01*
X168089435Y-110128856D02*
X168113244Y-110105047D01*
X168113244Y-110105047D02*
X168160863Y-110081237D01*
X168160863Y-110081237D02*
X168279911Y-110081237D01*
X168279911Y-110081237D02*
X168327530Y-110105047D01*
X168327530Y-110105047D02*
X168351340Y-110128856D01*
X168351340Y-110128856D02*
X168375149Y-110176475D01*
X168375149Y-110176475D02*
X168375149Y-110319332D01*
X168375149Y-110319332D02*
X168351340Y-110366951D01*
X168351340Y-110366951D02*
X168327530Y-110390761D01*
X168375149Y-109843142D02*
X168375149Y-109747904D01*
X168375149Y-109747904D02*
X168351340Y-109700285D01*
X168351340Y-109700285D02*
X168327530Y-109676476D01*
X168327530Y-109676476D02*
X168256101Y-109628857D01*
X168256101Y-109628857D02*
X168160863Y-109605047D01*
X168160863Y-109605047D02*
X167970387Y-109605047D01*
X167970387Y-109605047D02*
X167922768Y-109628857D01*
X167922768Y-109628857D02*
X167898959Y-109652666D01*
X167898959Y-109652666D02*
X167875149Y-109700285D01*
X167875149Y-109700285D02*
X167875149Y-109795523D01*
X167875149Y-109795523D02*
X167898959Y-109843142D01*
X167898959Y-109843142D02*
X167922768Y-109866952D01*
X167922768Y-109866952D02*
X167970387Y-109890761D01*
X167970387Y-109890761D02*
X168089435Y-109890761D01*
X168089435Y-109890761D02*
X168137054Y-109866952D01*
X168137054Y-109866952D02*
X168160863Y-109843142D01*
X168160863Y-109843142D02*
X168184673Y-109795523D01*
X168184673Y-109795523D02*
X168184673Y-109700285D01*
X168184673Y-109700285D02*
X168160863Y-109652666D01*
X168160863Y-109652666D02*
X168137054Y-109628857D01*
X168137054Y-109628857D02*
X168089435Y-109605047D01*
D10*
X151824045Y-104724190D02*
X151785950Y-104800380D01*
X151785950Y-104800380D02*
X151709760Y-104876571D01*
X151709760Y-104876571D02*
X151595474Y-104990857D01*
X151595474Y-104990857D02*
X151557379Y-105067047D01*
X151557379Y-105067047D02*
X151557379Y-105143238D01*
X151747855Y-105105142D02*
X151709760Y-105181333D01*
X151709760Y-105181333D02*
X151633569Y-105257523D01*
X151633569Y-105257523D02*
X151481188Y-105295619D01*
X151481188Y-105295619D02*
X151214521Y-105295619D01*
X151214521Y-105295619D02*
X151062140Y-105257523D01*
X151062140Y-105257523D02*
X150985950Y-105181333D01*
X150985950Y-105181333D02*
X150947855Y-105105142D01*
X150947855Y-105105142D02*
X150947855Y-104952761D01*
X150947855Y-104952761D02*
X150985950Y-104876571D01*
X150985950Y-104876571D02*
X151062140Y-104800380D01*
X151062140Y-104800380D02*
X151214521Y-104762285D01*
X151214521Y-104762285D02*
X151481188Y-104762285D01*
X151481188Y-104762285D02*
X151633569Y-104800380D01*
X151633569Y-104800380D02*
X151709760Y-104876571D01*
X151709760Y-104876571D02*
X151747855Y-104952761D01*
X151747855Y-104952761D02*
X151747855Y-105105142D01*
X151214521Y-104076571D02*
X151747855Y-104076571D01*
X150909760Y-104267047D02*
X151481188Y-104457524D01*
X151481188Y-104457524D02*
X151481188Y-103962285D01*
X174176045Y-105105142D02*
X174137950Y-105181332D01*
X174137950Y-105181332D02*
X174061760Y-105257523D01*
X174061760Y-105257523D02*
X173947474Y-105371809D01*
X173947474Y-105371809D02*
X173909379Y-105447999D01*
X173909379Y-105447999D02*
X173909379Y-105524190D01*
X174099855Y-105486094D02*
X174061760Y-105562285D01*
X174061760Y-105562285D02*
X173985569Y-105638475D01*
X173985569Y-105638475D02*
X173833188Y-105676571D01*
X173833188Y-105676571D02*
X173566521Y-105676571D01*
X173566521Y-105676571D02*
X173414140Y-105638475D01*
X173414140Y-105638475D02*
X173337950Y-105562285D01*
X173337950Y-105562285D02*
X173299855Y-105486094D01*
X173299855Y-105486094D02*
X173299855Y-105333713D01*
X173299855Y-105333713D02*
X173337950Y-105257523D01*
X173337950Y-105257523D02*
X173414140Y-105181332D01*
X173414140Y-105181332D02*
X173566521Y-105143237D01*
X173566521Y-105143237D02*
X173833188Y-105143237D01*
X173833188Y-105143237D02*
X173985569Y-105181332D01*
X173985569Y-105181332D02*
X174061760Y-105257523D01*
X174061760Y-105257523D02*
X174099855Y-105333713D01*
X174099855Y-105333713D02*
X174099855Y-105486094D01*
X173376045Y-104838476D02*
X173337950Y-104800380D01*
X173337950Y-104800380D02*
X173299855Y-104724190D01*
X173299855Y-104724190D02*
X173299855Y-104533714D01*
X173299855Y-104533714D02*
X173337950Y-104457523D01*
X173337950Y-104457523D02*
X173376045Y-104419428D01*
X173376045Y-104419428D02*
X173452236Y-104381333D01*
X173452236Y-104381333D02*
X173528426Y-104381333D01*
X173528426Y-104381333D02*
X173642712Y-104419428D01*
X173642712Y-104419428D02*
X174099855Y-104876571D01*
X174099855Y-104876571D02*
X174099855Y-104381333D01*
X173299855Y-103886094D02*
X173299855Y-103809904D01*
X173299855Y-103809904D02*
X173337950Y-103733713D01*
X173337950Y-103733713D02*
X173376045Y-103695618D01*
X173376045Y-103695618D02*
X173452236Y-103657523D01*
X173452236Y-103657523D02*
X173604617Y-103619428D01*
X173604617Y-103619428D02*
X173795093Y-103619428D01*
X173795093Y-103619428D02*
X173947474Y-103657523D01*
X173947474Y-103657523D02*
X174023664Y-103695618D01*
X174023664Y-103695618D02*
X174061760Y-103733713D01*
X174061760Y-103733713D02*
X174099855Y-103809904D01*
X174099855Y-103809904D02*
X174099855Y-103886094D01*
X174099855Y-103886094D02*
X174061760Y-103962285D01*
X174061760Y-103962285D02*
X174023664Y-104000380D01*
X174023664Y-104000380D02*
X173947474Y-104038475D01*
X173947474Y-104038475D02*
X173795093Y-104076571D01*
X173795093Y-104076571D02*
X173604617Y-104076571D01*
X173604617Y-104076571D02*
X173452236Y-104038475D01*
X173452236Y-104038475D02*
X173376045Y-104000380D01*
X173376045Y-104000380D02*
X173337950Y-103962285D01*
X173337950Y-103962285D02*
X173299855Y-103886094D01*
X138169714Y-92743664D02*
X138131618Y-92781760D01*
X138131618Y-92781760D02*
X138017333Y-92819855D01*
X138017333Y-92819855D02*
X137941142Y-92819855D01*
X137941142Y-92819855D02*
X137826856Y-92781760D01*
X137826856Y-92781760D02*
X137750666Y-92705569D01*
X137750666Y-92705569D02*
X137712571Y-92629379D01*
X137712571Y-92629379D02*
X137674475Y-92476998D01*
X137674475Y-92476998D02*
X137674475Y-92362712D01*
X137674475Y-92362712D02*
X137712571Y-92210331D01*
X137712571Y-92210331D02*
X137750666Y-92134140D01*
X137750666Y-92134140D02*
X137826856Y-92057950D01*
X137826856Y-92057950D02*
X137941142Y-92019855D01*
X137941142Y-92019855D02*
X138017333Y-92019855D01*
X138017333Y-92019855D02*
X138131618Y-92057950D01*
X138131618Y-92057950D02*
X138169714Y-92096045D01*
X138931618Y-92819855D02*
X138474475Y-92819855D01*
X138703047Y-92819855D02*
X138703047Y-92019855D01*
X138703047Y-92019855D02*
X138626856Y-92134140D01*
X138626856Y-92134140D02*
X138550666Y-92210331D01*
X138550666Y-92210331D02*
X138474475Y-92248426D01*
X139617333Y-92286521D02*
X139617333Y-92819855D01*
X139426857Y-91981760D02*
X139236380Y-92553188D01*
X139236380Y-92553188D02*
X139731619Y-92553188D01*
D12*
X168375149Y-114113428D02*
X168137054Y-114280094D01*
X168375149Y-114399142D02*
X167875149Y-114399142D01*
X167875149Y-114399142D02*
X167875149Y-114208666D01*
X167875149Y-114208666D02*
X167898959Y-114161047D01*
X167898959Y-114161047D02*
X167922768Y-114137237D01*
X167922768Y-114137237D02*
X167970387Y-114113428D01*
X167970387Y-114113428D02*
X168041816Y-114113428D01*
X168041816Y-114113428D02*
X168089435Y-114137237D01*
X168089435Y-114137237D02*
X168113244Y-114161047D01*
X168113244Y-114161047D02*
X168137054Y-114208666D01*
X168137054Y-114208666D02*
X168137054Y-114399142D01*
X168041816Y-113684856D02*
X168375149Y-113684856D01*
X167851340Y-113803904D02*
X168208482Y-113922951D01*
X168208482Y-113922951D02*
X168208482Y-113613428D01*
X167875149Y-113327714D02*
X167875149Y-113280095D01*
X167875149Y-113280095D02*
X167898959Y-113232476D01*
X167898959Y-113232476D02*
X167922768Y-113208666D01*
X167922768Y-113208666D02*
X167970387Y-113184857D01*
X167970387Y-113184857D02*
X168065625Y-113161047D01*
X168065625Y-113161047D02*
X168184673Y-113161047D01*
X168184673Y-113161047D02*
X168279911Y-113184857D01*
X168279911Y-113184857D02*
X168327530Y-113208666D01*
X168327530Y-113208666D02*
X168351340Y-113232476D01*
X168351340Y-113232476D02*
X168375149Y-113280095D01*
X168375149Y-113280095D02*
X168375149Y-113327714D01*
X168375149Y-113327714D02*
X168351340Y-113375333D01*
X168351340Y-113375333D02*
X168327530Y-113399142D01*
X168327530Y-113399142D02*
X168279911Y-113422952D01*
X168279911Y-113422952D02*
X168184673Y-113446761D01*
X168184673Y-113446761D02*
X168065625Y-113446761D01*
X168065625Y-113446761D02*
X167970387Y-113422952D01*
X167970387Y-113422952D02*
X167922768Y-113399142D01*
X167922768Y-113399142D02*
X167898959Y-113375333D01*
X167898959Y-113375333D02*
X167875149Y-113327714D01*
D13*
X138303047Y-95739409D02*
X138303047Y-96144171D01*
X138303047Y-96144171D02*
X138326857Y-96191790D01*
X138326857Y-96191790D02*
X138350666Y-96215600D01*
X138350666Y-96215600D02*
X138398285Y-96239409D01*
X138398285Y-96239409D02*
X138493523Y-96239409D01*
X138493523Y-96239409D02*
X138541142Y-96215600D01*
X138541142Y-96215600D02*
X138564952Y-96191790D01*
X138564952Y-96191790D02*
X138588761Y-96144171D01*
X138588761Y-96144171D02*
X138588761Y-95739409D01*
X139041143Y-95906076D02*
X139041143Y-96239409D01*
X138922095Y-95715600D02*
X138803048Y-96072742D01*
X138803048Y-96072742D02*
X139112571Y-96072742D01*
D11*
X183642095Y-135074819D02*
X183642095Y-134074819D01*
X183642095Y-134551009D02*
X184213523Y-134551009D01*
X184213523Y-135074819D02*
X184213523Y-134074819D01*
X185118285Y-134408152D02*
X185118285Y-135074819D01*
X184880190Y-134027200D02*
X184642095Y-134741485D01*
X184642095Y-134741485D02*
X185261142Y-134741485D01*
D10*
X121191664Y-85807532D02*
X121229760Y-85845628D01*
X121229760Y-85845628D02*
X121267855Y-85959913D01*
X121267855Y-85959913D02*
X121267855Y-86036104D01*
X121267855Y-86036104D02*
X121229760Y-86150390D01*
X121229760Y-86150390D02*
X121153569Y-86226580D01*
X121153569Y-86226580D02*
X121077379Y-86264675D01*
X121077379Y-86264675D02*
X120924998Y-86302771D01*
X120924998Y-86302771D02*
X120810712Y-86302771D01*
X120810712Y-86302771D02*
X120658331Y-86264675D01*
X120658331Y-86264675D02*
X120582140Y-86226580D01*
X120582140Y-86226580D02*
X120505950Y-86150390D01*
X120505950Y-86150390D02*
X120467855Y-86036104D01*
X120467855Y-86036104D02*
X120467855Y-85959913D01*
X120467855Y-85959913D02*
X120505950Y-85845628D01*
X120505950Y-85845628D02*
X120544045Y-85807532D01*
X120467855Y-85083723D02*
X120467855Y-85464675D01*
X120467855Y-85464675D02*
X120848807Y-85502771D01*
X120848807Y-85502771D02*
X120810712Y-85464675D01*
X120810712Y-85464675D02*
X120772617Y-85388485D01*
X120772617Y-85388485D02*
X120772617Y-85198009D01*
X120772617Y-85198009D02*
X120810712Y-85121818D01*
X120810712Y-85121818D02*
X120848807Y-85083723D01*
X120848807Y-85083723D02*
X120924998Y-85045628D01*
X120924998Y-85045628D02*
X121115474Y-85045628D01*
X121115474Y-85045628D02*
X121191664Y-85083723D01*
X121191664Y-85083723D02*
X121229760Y-85121818D01*
X121229760Y-85121818D02*
X121267855Y-85198009D01*
X121267855Y-85198009D02*
X121267855Y-85388485D01*
X121267855Y-85388485D02*
X121229760Y-85464675D01*
X121229760Y-85464675D02*
X121191664Y-85502771D01*
D12*
X119042666Y-66013149D02*
X118876000Y-65775054D01*
X118756952Y-66013149D02*
X118756952Y-65513149D01*
X118756952Y-65513149D02*
X118947428Y-65513149D01*
X118947428Y-65513149D02*
X118995047Y-65536959D01*
X118995047Y-65536959D02*
X119018857Y-65560768D01*
X119018857Y-65560768D02*
X119042666Y-65608387D01*
X119042666Y-65608387D02*
X119042666Y-65679816D01*
X119042666Y-65679816D02*
X119018857Y-65727435D01*
X119018857Y-65727435D02*
X118995047Y-65751244D01*
X118995047Y-65751244D02*
X118947428Y-65775054D01*
X118947428Y-65775054D02*
X118756952Y-65775054D01*
X119233143Y-65560768D02*
X119256952Y-65536959D01*
X119256952Y-65536959D02*
X119304571Y-65513149D01*
X119304571Y-65513149D02*
X119423619Y-65513149D01*
X119423619Y-65513149D02*
X119471238Y-65536959D01*
X119471238Y-65536959D02*
X119495047Y-65560768D01*
X119495047Y-65560768D02*
X119518857Y-65608387D01*
X119518857Y-65608387D02*
X119518857Y-65656006D01*
X119518857Y-65656006D02*
X119495047Y-65727435D01*
X119495047Y-65727435D02*
X119209333Y-66013149D01*
X119209333Y-66013149D02*
X119518857Y-66013149D01*
D10*
X113800264Y-85807532D02*
X113838360Y-85845628D01*
X113838360Y-85845628D02*
X113876455Y-85959913D01*
X113876455Y-85959913D02*
X113876455Y-86036104D01*
X113876455Y-86036104D02*
X113838360Y-86150390D01*
X113838360Y-86150390D02*
X113762169Y-86226580D01*
X113762169Y-86226580D02*
X113685979Y-86264675D01*
X113685979Y-86264675D02*
X113533598Y-86302771D01*
X113533598Y-86302771D02*
X113419312Y-86302771D01*
X113419312Y-86302771D02*
X113266931Y-86264675D01*
X113266931Y-86264675D02*
X113190740Y-86226580D01*
X113190740Y-86226580D02*
X113114550Y-86150390D01*
X113114550Y-86150390D02*
X113076455Y-86036104D01*
X113076455Y-86036104D02*
X113076455Y-85959913D01*
X113076455Y-85959913D02*
X113114550Y-85845628D01*
X113114550Y-85845628D02*
X113152645Y-85807532D01*
X113876455Y-85045628D02*
X113876455Y-85502771D01*
X113876455Y-85274199D02*
X113076455Y-85274199D01*
X113076455Y-85274199D02*
X113190740Y-85350390D01*
X113190740Y-85350390D02*
X113266931Y-85426580D01*
X113266931Y-85426580D02*
X113305026Y-85502771D01*
X163000045Y-89865142D02*
X162961950Y-89941332D01*
X162961950Y-89941332D02*
X162885760Y-90017523D01*
X162885760Y-90017523D02*
X162771474Y-90131809D01*
X162771474Y-90131809D02*
X162733379Y-90207999D01*
X162733379Y-90207999D02*
X162733379Y-90284190D01*
X162923855Y-90246094D02*
X162885760Y-90322285D01*
X162885760Y-90322285D02*
X162809569Y-90398475D01*
X162809569Y-90398475D02*
X162657188Y-90436571D01*
X162657188Y-90436571D02*
X162390521Y-90436571D01*
X162390521Y-90436571D02*
X162238140Y-90398475D01*
X162238140Y-90398475D02*
X162161950Y-90322285D01*
X162161950Y-90322285D02*
X162123855Y-90246094D01*
X162123855Y-90246094D02*
X162123855Y-90093713D01*
X162123855Y-90093713D02*
X162161950Y-90017523D01*
X162161950Y-90017523D02*
X162238140Y-89941332D01*
X162238140Y-89941332D02*
X162390521Y-89903237D01*
X162390521Y-89903237D02*
X162657188Y-89903237D01*
X162657188Y-89903237D02*
X162809569Y-89941332D01*
X162809569Y-89941332D02*
X162885760Y-90017523D01*
X162885760Y-90017523D02*
X162923855Y-90093713D01*
X162923855Y-90093713D02*
X162923855Y-90246094D01*
X162923855Y-89141333D02*
X162923855Y-89598476D01*
X162923855Y-89369904D02*
X162123855Y-89369904D01*
X162123855Y-89369904D02*
X162238140Y-89446095D01*
X162238140Y-89446095D02*
X162314331Y-89522285D01*
X162314331Y-89522285D02*
X162352426Y-89598476D01*
X162123855Y-88646094D02*
X162123855Y-88569904D01*
X162123855Y-88569904D02*
X162161950Y-88493713D01*
X162161950Y-88493713D02*
X162200045Y-88455618D01*
X162200045Y-88455618D02*
X162276236Y-88417523D01*
X162276236Y-88417523D02*
X162428617Y-88379428D01*
X162428617Y-88379428D02*
X162619093Y-88379428D01*
X162619093Y-88379428D02*
X162771474Y-88417523D01*
X162771474Y-88417523D02*
X162847664Y-88455618D01*
X162847664Y-88455618D02*
X162885760Y-88493713D01*
X162885760Y-88493713D02*
X162923855Y-88569904D01*
X162923855Y-88569904D02*
X162923855Y-88646094D01*
X162923855Y-88646094D02*
X162885760Y-88722285D01*
X162885760Y-88722285D02*
X162847664Y-88760380D01*
X162847664Y-88760380D02*
X162771474Y-88798475D01*
X162771474Y-88798475D02*
X162619093Y-88836571D01*
X162619093Y-88836571D02*
X162428617Y-88836571D01*
X162428617Y-88836571D02*
X162276236Y-88798475D01*
X162276236Y-88798475D02*
X162200045Y-88760380D01*
X162200045Y-88760380D02*
X162161950Y-88722285D01*
X162161950Y-88722285D02*
X162123855Y-88646094D01*
D12*
X157199149Y-136973428D02*
X156961054Y-137140094D01*
X157199149Y-137259142D02*
X156699149Y-137259142D01*
X156699149Y-137259142D02*
X156699149Y-137068666D01*
X156699149Y-137068666D02*
X156722959Y-137021047D01*
X156722959Y-137021047D02*
X156746768Y-136997237D01*
X156746768Y-136997237D02*
X156794387Y-136973428D01*
X156794387Y-136973428D02*
X156865816Y-136973428D01*
X156865816Y-136973428D02*
X156913435Y-136997237D01*
X156913435Y-136997237D02*
X156937244Y-137021047D01*
X156937244Y-137021047D02*
X156961054Y-137068666D01*
X156961054Y-137068666D02*
X156961054Y-137259142D01*
X156699149Y-136806761D02*
X156699149Y-136497237D01*
X156699149Y-136497237D02*
X156889625Y-136663904D01*
X156889625Y-136663904D02*
X156889625Y-136592475D01*
X156889625Y-136592475D02*
X156913435Y-136544856D01*
X156913435Y-136544856D02*
X156937244Y-136521047D01*
X156937244Y-136521047D02*
X156984863Y-136497237D01*
X156984863Y-136497237D02*
X157103911Y-136497237D01*
X157103911Y-136497237D02*
X157151530Y-136521047D01*
X157151530Y-136521047D02*
X157175340Y-136544856D01*
X157175340Y-136544856D02*
X157199149Y-136592475D01*
X157199149Y-136592475D02*
X157199149Y-136735332D01*
X157199149Y-136735332D02*
X157175340Y-136782951D01*
X157175340Y-136782951D02*
X157151530Y-136806761D01*
X156699149Y-136187714D02*
X156699149Y-136140095D01*
X156699149Y-136140095D02*
X156722959Y-136092476D01*
X156722959Y-136092476D02*
X156746768Y-136068666D01*
X156746768Y-136068666D02*
X156794387Y-136044857D01*
X156794387Y-136044857D02*
X156889625Y-136021047D01*
X156889625Y-136021047D02*
X157008673Y-136021047D01*
X157008673Y-136021047D02*
X157103911Y-136044857D01*
X157103911Y-136044857D02*
X157151530Y-136068666D01*
X157151530Y-136068666D02*
X157175340Y-136092476D01*
X157175340Y-136092476D02*
X157199149Y-136140095D01*
X157199149Y-136140095D02*
X157199149Y-136187714D01*
X157199149Y-136187714D02*
X157175340Y-136235333D01*
X157175340Y-136235333D02*
X157151530Y-136259142D01*
X157151530Y-136259142D02*
X157103911Y-136282952D01*
X157103911Y-136282952D02*
X157008673Y-136306761D01*
X157008673Y-136306761D02*
X156889625Y-136306761D01*
X156889625Y-136306761D02*
X156794387Y-136282952D01*
X156794387Y-136282952D02*
X156746768Y-136259142D01*
X156746768Y-136259142D02*
X156722959Y-136235333D01*
X156722959Y-136235333D02*
X156699149Y-136187714D01*
D10*
X163000045Y-135585142D02*
X162961950Y-135661332D01*
X162961950Y-135661332D02*
X162885760Y-135737523D01*
X162885760Y-135737523D02*
X162771474Y-135851809D01*
X162771474Y-135851809D02*
X162733379Y-135927999D01*
X162733379Y-135927999D02*
X162733379Y-136004190D01*
X162923855Y-135966094D02*
X162885760Y-136042285D01*
X162885760Y-136042285D02*
X162809569Y-136118475D01*
X162809569Y-136118475D02*
X162657188Y-136156571D01*
X162657188Y-136156571D02*
X162390521Y-136156571D01*
X162390521Y-136156571D02*
X162238140Y-136118475D01*
X162238140Y-136118475D02*
X162161950Y-136042285D01*
X162161950Y-136042285D02*
X162123855Y-135966094D01*
X162123855Y-135966094D02*
X162123855Y-135813713D01*
X162123855Y-135813713D02*
X162161950Y-135737523D01*
X162161950Y-135737523D02*
X162238140Y-135661332D01*
X162238140Y-135661332D02*
X162390521Y-135623237D01*
X162390521Y-135623237D02*
X162657188Y-135623237D01*
X162657188Y-135623237D02*
X162809569Y-135661332D01*
X162809569Y-135661332D02*
X162885760Y-135737523D01*
X162885760Y-135737523D02*
X162923855Y-135813713D01*
X162923855Y-135813713D02*
X162923855Y-135966094D01*
X162923855Y-134861333D02*
X162923855Y-135318476D01*
X162923855Y-135089904D02*
X162123855Y-135089904D01*
X162123855Y-135089904D02*
X162238140Y-135166095D01*
X162238140Y-135166095D02*
X162314331Y-135242285D01*
X162314331Y-135242285D02*
X162352426Y-135318476D01*
X162123855Y-134175618D02*
X162123855Y-134327999D01*
X162123855Y-134327999D02*
X162161950Y-134404190D01*
X162161950Y-134404190D02*
X162200045Y-134442285D01*
X162200045Y-134442285D02*
X162314331Y-134518475D01*
X162314331Y-134518475D02*
X162466712Y-134556571D01*
X162466712Y-134556571D02*
X162771474Y-134556571D01*
X162771474Y-134556571D02*
X162847664Y-134518475D01*
X162847664Y-134518475D02*
X162885760Y-134480380D01*
X162885760Y-134480380D02*
X162923855Y-134404190D01*
X162923855Y-134404190D02*
X162923855Y-134251809D01*
X162923855Y-134251809D02*
X162885760Y-134175618D01*
X162885760Y-134175618D02*
X162847664Y-134137523D01*
X162847664Y-134137523D02*
X162771474Y-134099428D01*
X162771474Y-134099428D02*
X162580998Y-134099428D01*
X162580998Y-134099428D02*
X162504807Y-134137523D01*
X162504807Y-134137523D02*
X162466712Y-134175618D01*
X162466712Y-134175618D02*
X162428617Y-134251809D01*
X162428617Y-134251809D02*
X162428617Y-134404190D01*
X162428617Y-134404190D02*
X162466712Y-134480380D01*
X162466712Y-134480380D02*
X162504807Y-134518475D01*
X162504807Y-134518475D02*
X162580998Y-134556571D01*
X174176045Y-97485142D02*
X174137950Y-97561332D01*
X174137950Y-97561332D02*
X174061760Y-97637523D01*
X174061760Y-97637523D02*
X173947474Y-97751809D01*
X173947474Y-97751809D02*
X173909379Y-97827999D01*
X173909379Y-97827999D02*
X173909379Y-97904190D01*
X174099855Y-97866094D02*
X174061760Y-97942285D01*
X174061760Y-97942285D02*
X173985569Y-98018475D01*
X173985569Y-98018475D02*
X173833188Y-98056571D01*
X173833188Y-98056571D02*
X173566521Y-98056571D01*
X173566521Y-98056571D02*
X173414140Y-98018475D01*
X173414140Y-98018475D02*
X173337950Y-97942285D01*
X173337950Y-97942285D02*
X173299855Y-97866094D01*
X173299855Y-97866094D02*
X173299855Y-97713713D01*
X173299855Y-97713713D02*
X173337950Y-97637523D01*
X173337950Y-97637523D02*
X173414140Y-97561332D01*
X173414140Y-97561332D02*
X173566521Y-97523237D01*
X173566521Y-97523237D02*
X173833188Y-97523237D01*
X173833188Y-97523237D02*
X173985569Y-97561332D01*
X173985569Y-97561332D02*
X174061760Y-97637523D01*
X174061760Y-97637523D02*
X174099855Y-97713713D01*
X174099855Y-97713713D02*
X174099855Y-97866094D01*
X174099855Y-96761333D02*
X174099855Y-97218476D01*
X174099855Y-96989904D02*
X173299855Y-96989904D01*
X173299855Y-96989904D02*
X173414140Y-97066095D01*
X173414140Y-97066095D02*
X173490331Y-97142285D01*
X173490331Y-97142285D02*
X173528426Y-97218476D01*
X174099855Y-96380380D02*
X174099855Y-96227999D01*
X174099855Y-96227999D02*
X174061760Y-96151809D01*
X174061760Y-96151809D02*
X174023664Y-96113713D01*
X174023664Y-96113713D02*
X173909379Y-96037523D01*
X173909379Y-96037523D02*
X173756998Y-95999428D01*
X173756998Y-95999428D02*
X173452236Y-95999428D01*
X173452236Y-95999428D02*
X173376045Y-96037523D01*
X173376045Y-96037523D02*
X173337950Y-96075618D01*
X173337950Y-96075618D02*
X173299855Y-96151809D01*
X173299855Y-96151809D02*
X173299855Y-96304190D01*
X173299855Y-96304190D02*
X173337950Y-96380380D01*
X173337950Y-96380380D02*
X173376045Y-96418475D01*
X173376045Y-96418475D02*
X173452236Y-96456571D01*
X173452236Y-96456571D02*
X173642712Y-96456571D01*
X173642712Y-96456571D02*
X173718902Y-96418475D01*
X173718902Y-96418475D02*
X173756998Y-96380380D01*
X173756998Y-96380380D02*
X173795093Y-96304190D01*
X173795093Y-96304190D02*
X173795093Y-96151809D01*
X173795093Y-96151809D02*
X173756998Y-96075618D01*
X173756998Y-96075618D02*
X173718902Y-96037523D01*
X173718902Y-96037523D02*
X173642712Y-95999428D01*
D11*
X123898819Y-74334666D02*
X123898819Y-74810856D01*
X123898819Y-74810856D02*
X122898819Y-74810856D01*
X123898819Y-73477523D02*
X123898819Y-74048951D01*
X123898819Y-73763237D02*
X122898819Y-73763237D01*
X122898819Y-73763237D02*
X123041676Y-73858475D01*
X123041676Y-73858475D02*
X123136914Y-73953713D01*
X123136914Y-73953713D02*
X123184533Y-74048951D01*
D12*
X146023149Y-95587333D02*
X145785054Y-95753999D01*
X146023149Y-95873047D02*
X145523149Y-95873047D01*
X145523149Y-95873047D02*
X145523149Y-95682571D01*
X145523149Y-95682571D02*
X145546959Y-95634952D01*
X145546959Y-95634952D02*
X145570768Y-95611142D01*
X145570768Y-95611142D02*
X145618387Y-95587333D01*
X145618387Y-95587333D02*
X145689816Y-95587333D01*
X145689816Y-95587333D02*
X145737435Y-95611142D01*
X145737435Y-95611142D02*
X145761244Y-95634952D01*
X145761244Y-95634952D02*
X145785054Y-95682571D01*
X145785054Y-95682571D02*
X145785054Y-95873047D01*
X145523149Y-95420666D02*
X145523149Y-95087333D01*
X145523149Y-95087333D02*
X146023149Y-95301618D01*
D10*
X174176045Y-82245142D02*
X174137950Y-82321332D01*
X174137950Y-82321332D02*
X174061760Y-82397523D01*
X174061760Y-82397523D02*
X173947474Y-82511809D01*
X173947474Y-82511809D02*
X173909379Y-82587999D01*
X173909379Y-82587999D02*
X173909379Y-82664190D01*
X174099855Y-82626094D02*
X174061760Y-82702285D01*
X174061760Y-82702285D02*
X173985569Y-82778475D01*
X173985569Y-82778475D02*
X173833188Y-82816571D01*
X173833188Y-82816571D02*
X173566521Y-82816571D01*
X173566521Y-82816571D02*
X173414140Y-82778475D01*
X173414140Y-82778475D02*
X173337950Y-82702285D01*
X173337950Y-82702285D02*
X173299855Y-82626094D01*
X173299855Y-82626094D02*
X173299855Y-82473713D01*
X173299855Y-82473713D02*
X173337950Y-82397523D01*
X173337950Y-82397523D02*
X173414140Y-82321332D01*
X173414140Y-82321332D02*
X173566521Y-82283237D01*
X173566521Y-82283237D02*
X173833188Y-82283237D01*
X173833188Y-82283237D02*
X173985569Y-82321332D01*
X173985569Y-82321332D02*
X174061760Y-82397523D01*
X174061760Y-82397523D02*
X174099855Y-82473713D01*
X174099855Y-82473713D02*
X174099855Y-82626094D01*
X174099855Y-81521333D02*
X174099855Y-81978476D01*
X174099855Y-81749904D02*
X173299855Y-81749904D01*
X173299855Y-81749904D02*
X173414140Y-81826095D01*
X173414140Y-81826095D02*
X173490331Y-81902285D01*
X173490331Y-81902285D02*
X173528426Y-81978476D01*
X173299855Y-81254666D02*
X173299855Y-80721332D01*
X173299855Y-80721332D02*
X174099855Y-81064190D01*
D12*
X146023149Y-133925428D02*
X145785054Y-134092094D01*
X146023149Y-134211142D02*
X145523149Y-134211142D01*
X145523149Y-134211142D02*
X145523149Y-134020666D01*
X145523149Y-134020666D02*
X145546959Y-133973047D01*
X145546959Y-133973047D02*
X145570768Y-133949237D01*
X145570768Y-133949237D02*
X145618387Y-133925428D01*
X145618387Y-133925428D02*
X145689816Y-133925428D01*
X145689816Y-133925428D02*
X145737435Y-133949237D01*
X145737435Y-133949237D02*
X145761244Y-133973047D01*
X145761244Y-133973047D02*
X145785054Y-134020666D01*
X145785054Y-134020666D02*
X145785054Y-134211142D01*
X146023149Y-133449237D02*
X146023149Y-133734951D01*
X146023149Y-133592094D02*
X145523149Y-133592094D01*
X145523149Y-133592094D02*
X145594578Y-133639713D01*
X145594578Y-133639713D02*
X145642197Y-133687332D01*
X145642197Y-133687332D02*
X145666006Y-133734951D01*
X145570768Y-133258761D02*
X145546959Y-133234952D01*
X145546959Y-133234952D02*
X145523149Y-133187333D01*
X145523149Y-133187333D02*
X145523149Y-133068285D01*
X145523149Y-133068285D02*
X145546959Y-133020666D01*
X145546959Y-133020666D02*
X145570768Y-132996857D01*
X145570768Y-132996857D02*
X145618387Y-132973047D01*
X145618387Y-132973047D02*
X145666006Y-132973047D01*
X145666006Y-132973047D02*
X145737435Y-132996857D01*
X145737435Y-132996857D02*
X146023149Y-133282571D01*
X146023149Y-133282571D02*
X146023149Y-132973047D01*
X171890571Y-68807149D02*
X171723905Y-68569054D01*
X171604857Y-68807149D02*
X171604857Y-68307149D01*
X171604857Y-68307149D02*
X171795333Y-68307149D01*
X171795333Y-68307149D02*
X171842952Y-68330959D01*
X171842952Y-68330959D02*
X171866762Y-68354768D01*
X171866762Y-68354768D02*
X171890571Y-68402387D01*
X171890571Y-68402387D02*
X171890571Y-68473816D01*
X171890571Y-68473816D02*
X171866762Y-68521435D01*
X171866762Y-68521435D02*
X171842952Y-68545244D01*
X171842952Y-68545244D02*
X171795333Y-68569054D01*
X171795333Y-68569054D02*
X171604857Y-68569054D01*
X172319143Y-68473816D02*
X172319143Y-68807149D01*
X172200095Y-68283340D02*
X172081048Y-68640482D01*
X172081048Y-68640482D02*
X172390571Y-68640482D01*
X172533428Y-68307149D02*
X172866761Y-68307149D01*
X172866761Y-68307149D02*
X172652476Y-68807149D01*
X157199149Y-125797428D02*
X156961054Y-125964094D01*
X157199149Y-126083142D02*
X156699149Y-126083142D01*
X156699149Y-126083142D02*
X156699149Y-125892666D01*
X156699149Y-125892666D02*
X156722959Y-125845047D01*
X156722959Y-125845047D02*
X156746768Y-125821237D01*
X156746768Y-125821237D02*
X156794387Y-125797428D01*
X156794387Y-125797428D02*
X156865816Y-125797428D01*
X156865816Y-125797428D02*
X156913435Y-125821237D01*
X156913435Y-125821237D02*
X156937244Y-125845047D01*
X156937244Y-125845047D02*
X156961054Y-125892666D01*
X156961054Y-125892666D02*
X156961054Y-126083142D01*
X156746768Y-125606951D02*
X156722959Y-125583142D01*
X156722959Y-125583142D02*
X156699149Y-125535523D01*
X156699149Y-125535523D02*
X156699149Y-125416475D01*
X156699149Y-125416475D02*
X156722959Y-125368856D01*
X156722959Y-125368856D02*
X156746768Y-125345047D01*
X156746768Y-125345047D02*
X156794387Y-125321237D01*
X156794387Y-125321237D02*
X156842006Y-125321237D01*
X156842006Y-125321237D02*
X156913435Y-125345047D01*
X156913435Y-125345047D02*
X157199149Y-125630761D01*
X157199149Y-125630761D02*
X157199149Y-125321237D01*
X156699149Y-125154571D02*
X156699149Y-124821238D01*
X156699149Y-124821238D02*
X157199149Y-125035523D01*
X168375149Y-121770928D02*
X168137054Y-121937594D01*
X168375149Y-122056642D02*
X167875149Y-122056642D01*
X167875149Y-122056642D02*
X167875149Y-121866166D01*
X167875149Y-121866166D02*
X167898959Y-121818547D01*
X167898959Y-121818547D02*
X167922768Y-121794737D01*
X167922768Y-121794737D02*
X167970387Y-121770928D01*
X167970387Y-121770928D02*
X168041816Y-121770928D01*
X168041816Y-121770928D02*
X168089435Y-121794737D01*
X168089435Y-121794737D02*
X168113244Y-121818547D01*
X168113244Y-121818547D02*
X168137054Y-121866166D01*
X168137054Y-121866166D02*
X168137054Y-122056642D01*
X168041816Y-121342356D02*
X168375149Y-121342356D01*
X167851340Y-121461404D02*
X168208482Y-121580451D01*
X168208482Y-121580451D02*
X168208482Y-121270928D01*
X167922768Y-121104261D02*
X167898959Y-121080452D01*
X167898959Y-121080452D02*
X167875149Y-121032833D01*
X167875149Y-121032833D02*
X167875149Y-120913785D01*
X167875149Y-120913785D02*
X167898959Y-120866166D01*
X167898959Y-120866166D02*
X167922768Y-120842357D01*
X167922768Y-120842357D02*
X167970387Y-120818547D01*
X167970387Y-120818547D02*
X168018006Y-120818547D01*
X168018006Y-120818547D02*
X168089435Y-120842357D01*
X168089435Y-120842357D02*
X168375149Y-121128071D01*
X168375149Y-121128071D02*
X168375149Y-120818547D01*
D11*
X138122819Y-63412666D02*
X137646628Y-63745999D01*
X138122819Y-63984094D02*
X137122819Y-63984094D01*
X137122819Y-63984094D02*
X137122819Y-63603142D01*
X137122819Y-63603142D02*
X137170438Y-63507904D01*
X137170438Y-63507904D02*
X137218057Y-63460285D01*
X137218057Y-63460285D02*
X137313295Y-63412666D01*
X137313295Y-63412666D02*
X137456152Y-63412666D01*
X137456152Y-63412666D02*
X137551390Y-63460285D01*
X137551390Y-63460285D02*
X137599009Y-63507904D01*
X137599009Y-63507904D02*
X137646628Y-63603142D01*
X137646628Y-63603142D02*
X137646628Y-63984094D01*
X137456152Y-62555523D02*
X138122819Y-62555523D01*
X137075200Y-62793618D02*
X137789485Y-63031713D01*
X137789485Y-63031713D02*
X137789485Y-62412666D01*
X105410095Y-135074819D02*
X105410095Y-134074819D01*
X105410095Y-134551009D02*
X105981523Y-134551009D01*
X105981523Y-135074819D02*
X105981523Y-134074819D01*
X106410095Y-134170057D02*
X106457714Y-134122438D01*
X106457714Y-134122438D02*
X106552952Y-134074819D01*
X106552952Y-134074819D02*
X106791047Y-134074819D01*
X106791047Y-134074819D02*
X106886285Y-134122438D01*
X106886285Y-134122438D02*
X106933904Y-134170057D01*
X106933904Y-134170057D02*
X106981523Y-134265295D01*
X106981523Y-134265295D02*
X106981523Y-134360533D01*
X106981523Y-134360533D02*
X106933904Y-134503390D01*
X106933904Y-134503390D02*
X106362476Y-135074819D01*
X106362476Y-135074819D02*
X106981523Y-135074819D01*
X132439580Y-95162666D02*
X132487200Y-95210285D01*
X132487200Y-95210285D02*
X132534819Y-95353142D01*
X132534819Y-95353142D02*
X132534819Y-95448380D01*
X132534819Y-95448380D02*
X132487200Y-95591237D01*
X132487200Y-95591237D02*
X132391961Y-95686475D01*
X132391961Y-95686475D02*
X132296723Y-95734094D01*
X132296723Y-95734094D02*
X132106247Y-95781713D01*
X132106247Y-95781713D02*
X131963390Y-95781713D01*
X131963390Y-95781713D02*
X131772914Y-95734094D01*
X131772914Y-95734094D02*
X131677676Y-95686475D01*
X131677676Y-95686475D02*
X131582438Y-95591237D01*
X131582438Y-95591237D02*
X131534819Y-95448380D01*
X131534819Y-95448380D02*
X131534819Y-95353142D01*
X131534819Y-95353142D02*
X131582438Y-95210285D01*
X131582438Y-95210285D02*
X131630057Y-95162666D01*
X131963390Y-94591237D02*
X131915771Y-94686475D01*
X131915771Y-94686475D02*
X131868152Y-94734094D01*
X131868152Y-94734094D02*
X131772914Y-94781713D01*
X131772914Y-94781713D02*
X131725295Y-94781713D01*
X131725295Y-94781713D02*
X131630057Y-94734094D01*
X131630057Y-94734094D02*
X131582438Y-94686475D01*
X131582438Y-94686475D02*
X131534819Y-94591237D01*
X131534819Y-94591237D02*
X131534819Y-94400761D01*
X131534819Y-94400761D02*
X131582438Y-94305523D01*
X131582438Y-94305523D02*
X131630057Y-94257904D01*
X131630057Y-94257904D02*
X131725295Y-94210285D01*
X131725295Y-94210285D02*
X131772914Y-94210285D01*
X131772914Y-94210285D02*
X131868152Y-94257904D01*
X131868152Y-94257904D02*
X131915771Y-94305523D01*
X131915771Y-94305523D02*
X131963390Y-94400761D01*
X131963390Y-94400761D02*
X131963390Y-94591237D01*
X131963390Y-94591237D02*
X132011009Y-94686475D01*
X132011009Y-94686475D02*
X132058628Y-94734094D01*
X132058628Y-94734094D02*
X132153866Y-94781713D01*
X132153866Y-94781713D02*
X132344342Y-94781713D01*
X132344342Y-94781713D02*
X132439580Y-94734094D01*
X132439580Y-94734094D02*
X132487200Y-94686475D01*
X132487200Y-94686475D02*
X132534819Y-94591237D01*
X132534819Y-94591237D02*
X132534819Y-94400761D01*
X132534819Y-94400761D02*
X132487200Y-94305523D01*
X132487200Y-94305523D02*
X132439580Y-94257904D01*
X132439580Y-94257904D02*
X132344342Y-94210285D01*
X132344342Y-94210285D02*
X132153866Y-94210285D01*
X132153866Y-94210285D02*
X132058628Y-94257904D01*
X132058628Y-94257904D02*
X132011009Y-94305523D01*
X132011009Y-94305523D02*
X131963390Y-94400761D01*
D12*
X145847149Y-118619428D02*
X145609054Y-118786094D01*
X145847149Y-118905142D02*
X145347149Y-118905142D01*
X145347149Y-118905142D02*
X145347149Y-118714666D01*
X145347149Y-118714666D02*
X145370959Y-118667047D01*
X145370959Y-118667047D02*
X145394768Y-118643237D01*
X145394768Y-118643237D02*
X145442387Y-118619428D01*
X145442387Y-118619428D02*
X145513816Y-118619428D01*
X145513816Y-118619428D02*
X145561435Y-118643237D01*
X145561435Y-118643237D02*
X145585244Y-118667047D01*
X145585244Y-118667047D02*
X145609054Y-118714666D01*
X145609054Y-118714666D02*
X145609054Y-118905142D01*
X145847149Y-118143237D02*
X145847149Y-118428951D01*
X145847149Y-118286094D02*
X145347149Y-118286094D01*
X145347149Y-118286094D02*
X145418578Y-118333713D01*
X145418578Y-118333713D02*
X145466197Y-118381332D01*
X145466197Y-118381332D02*
X145490006Y-118428951D01*
X145347149Y-117833714D02*
X145347149Y-117786095D01*
X145347149Y-117786095D02*
X145370959Y-117738476D01*
X145370959Y-117738476D02*
X145394768Y-117714666D01*
X145394768Y-117714666D02*
X145442387Y-117690857D01*
X145442387Y-117690857D02*
X145537625Y-117667047D01*
X145537625Y-117667047D02*
X145656673Y-117667047D01*
X145656673Y-117667047D02*
X145751911Y-117690857D01*
X145751911Y-117690857D02*
X145799530Y-117714666D01*
X145799530Y-117714666D02*
X145823340Y-117738476D01*
X145823340Y-117738476D02*
X145847149Y-117786095D01*
X145847149Y-117786095D02*
X145847149Y-117833714D01*
X145847149Y-117833714D02*
X145823340Y-117881333D01*
X145823340Y-117881333D02*
X145799530Y-117905142D01*
X145799530Y-117905142D02*
X145751911Y-117928952D01*
X145751911Y-117928952D02*
X145656673Y-117952761D01*
X145656673Y-117952761D02*
X145537625Y-117952761D01*
X145537625Y-117952761D02*
X145442387Y-117928952D01*
X145442387Y-117928952D02*
X145394768Y-117905142D01*
X145394768Y-117905142D02*
X145370959Y-117881333D01*
X145370959Y-117881333D02*
X145347149Y-117833714D01*
X168375149Y-118177428D02*
X168137054Y-118344094D01*
X168375149Y-118463142D02*
X167875149Y-118463142D01*
X167875149Y-118463142D02*
X167875149Y-118272666D01*
X167875149Y-118272666D02*
X167898959Y-118225047D01*
X167898959Y-118225047D02*
X167922768Y-118201237D01*
X167922768Y-118201237D02*
X167970387Y-118177428D01*
X167970387Y-118177428D02*
X168041816Y-118177428D01*
X168041816Y-118177428D02*
X168089435Y-118201237D01*
X168089435Y-118201237D02*
X168113244Y-118225047D01*
X168113244Y-118225047D02*
X168137054Y-118272666D01*
X168137054Y-118272666D02*
X168137054Y-118463142D01*
X168041816Y-117748856D02*
X168375149Y-117748856D01*
X167851340Y-117867904D02*
X168208482Y-117986951D01*
X168208482Y-117986951D02*
X168208482Y-117677428D01*
X168375149Y-117225047D02*
X168375149Y-117510761D01*
X168375149Y-117367904D02*
X167875149Y-117367904D01*
X167875149Y-117367904D02*
X167946578Y-117415523D01*
X167946578Y-117415523D02*
X167994197Y-117463142D01*
X167994197Y-117463142D02*
X168018006Y-117510761D01*
X146023149Y-126305428D02*
X145785054Y-126472094D01*
X146023149Y-126591142D02*
X145523149Y-126591142D01*
X145523149Y-126591142D02*
X145523149Y-126400666D01*
X145523149Y-126400666D02*
X145546959Y-126353047D01*
X145546959Y-126353047D02*
X145570768Y-126329237D01*
X145570768Y-126329237D02*
X145618387Y-126305428D01*
X145618387Y-126305428D02*
X145689816Y-126305428D01*
X145689816Y-126305428D02*
X145737435Y-126329237D01*
X145737435Y-126329237D02*
X145761244Y-126353047D01*
X145761244Y-126353047D02*
X145785054Y-126400666D01*
X145785054Y-126400666D02*
X145785054Y-126591142D01*
X146023149Y-125829237D02*
X146023149Y-126114951D01*
X146023149Y-125972094D02*
X145523149Y-125972094D01*
X145523149Y-125972094D02*
X145594578Y-126019713D01*
X145594578Y-126019713D02*
X145642197Y-126067332D01*
X145642197Y-126067332D02*
X145666006Y-126114951D01*
X146023149Y-125353047D02*
X146023149Y-125638761D01*
X146023149Y-125495904D02*
X145523149Y-125495904D01*
X145523149Y-125495904D02*
X145594578Y-125543523D01*
X145594578Y-125543523D02*
X145642197Y-125591142D01*
X145642197Y-125591142D02*
X145666006Y-125638761D01*
D11*
X129772819Y-71858094D02*
X128772819Y-71858094D01*
X128772819Y-71858094D02*
X128772819Y-71619999D01*
X128772819Y-71619999D02*
X128820438Y-71477142D01*
X128820438Y-71477142D02*
X128915676Y-71381904D01*
X128915676Y-71381904D02*
X129010914Y-71334285D01*
X129010914Y-71334285D02*
X129201390Y-71286666D01*
X129201390Y-71286666D02*
X129344247Y-71286666D01*
X129344247Y-71286666D02*
X129534723Y-71334285D01*
X129534723Y-71334285D02*
X129629961Y-71381904D01*
X129629961Y-71381904D02*
X129725200Y-71477142D01*
X129725200Y-71477142D02*
X129772819Y-71619999D01*
X129772819Y-71619999D02*
X129772819Y-71858094D01*
X129772819Y-70334285D02*
X129772819Y-70905713D01*
X129772819Y-70619999D02*
X128772819Y-70619999D01*
X128772819Y-70619999D02*
X128915676Y-70715237D01*
X128915676Y-70715237D02*
X129010914Y-70810475D01*
X129010914Y-70810475D02*
X129058533Y-70905713D01*
D12*
X157199149Y-102899928D02*
X156961054Y-103066594D01*
X157199149Y-103185642D02*
X156699149Y-103185642D01*
X156699149Y-103185642D02*
X156699149Y-102995166D01*
X156699149Y-102995166D02*
X156722959Y-102947547D01*
X156722959Y-102947547D02*
X156746768Y-102923737D01*
X156746768Y-102923737D02*
X156794387Y-102899928D01*
X156794387Y-102899928D02*
X156865816Y-102899928D01*
X156865816Y-102899928D02*
X156913435Y-102923737D01*
X156913435Y-102923737D02*
X156937244Y-102947547D01*
X156937244Y-102947547D02*
X156961054Y-102995166D01*
X156961054Y-102995166D02*
X156961054Y-103185642D01*
X156746768Y-102709451D02*
X156722959Y-102685642D01*
X156722959Y-102685642D02*
X156699149Y-102638023D01*
X156699149Y-102638023D02*
X156699149Y-102518975D01*
X156699149Y-102518975D02*
X156722959Y-102471356D01*
X156722959Y-102471356D02*
X156746768Y-102447547D01*
X156746768Y-102447547D02*
X156794387Y-102423737D01*
X156794387Y-102423737D02*
X156842006Y-102423737D01*
X156842006Y-102423737D02*
X156913435Y-102447547D01*
X156913435Y-102447547D02*
X157199149Y-102733261D01*
X157199149Y-102733261D02*
X157199149Y-102423737D01*
X157199149Y-101947547D02*
X157199149Y-102233261D01*
X157199149Y-102090404D02*
X156699149Y-102090404D01*
X156699149Y-102090404D02*
X156770578Y-102138023D01*
X156770578Y-102138023D02*
X156818197Y-102185642D01*
X156818197Y-102185642D02*
X156842006Y-102233261D01*
D10*
X137701664Y-116084285D02*
X137739760Y-116122381D01*
X137739760Y-116122381D02*
X137777855Y-116236666D01*
X137777855Y-116236666D02*
X137777855Y-116312857D01*
X137777855Y-116312857D02*
X137739760Y-116427143D01*
X137739760Y-116427143D02*
X137663569Y-116503333D01*
X137663569Y-116503333D02*
X137587379Y-116541428D01*
X137587379Y-116541428D02*
X137434998Y-116579524D01*
X137434998Y-116579524D02*
X137320712Y-116579524D01*
X137320712Y-116579524D02*
X137168331Y-116541428D01*
X137168331Y-116541428D02*
X137092140Y-116503333D01*
X137092140Y-116503333D02*
X137015950Y-116427143D01*
X137015950Y-116427143D02*
X136977855Y-116312857D01*
X136977855Y-116312857D02*
X136977855Y-116236666D01*
X136977855Y-116236666D02*
X137015950Y-116122381D01*
X137015950Y-116122381D02*
X137054045Y-116084285D01*
X137777855Y-115322381D02*
X137777855Y-115779524D01*
X137777855Y-115550952D02*
X136977855Y-115550952D01*
X136977855Y-115550952D02*
X137092140Y-115627143D01*
X137092140Y-115627143D02*
X137168331Y-115703333D01*
X137168331Y-115703333D02*
X137206426Y-115779524D01*
X137054045Y-115017619D02*
X137015950Y-114979523D01*
X137015950Y-114979523D02*
X136977855Y-114903333D01*
X136977855Y-114903333D02*
X136977855Y-114712857D01*
X136977855Y-114712857D02*
X137015950Y-114636666D01*
X137015950Y-114636666D02*
X137054045Y-114598571D01*
X137054045Y-114598571D02*
X137130236Y-114560476D01*
X137130236Y-114560476D02*
X137206426Y-114560476D01*
X137206426Y-114560476D02*
X137320712Y-114598571D01*
X137320712Y-114598571D02*
X137777855Y-115055714D01*
X137777855Y-115055714D02*
X137777855Y-114560476D01*
D12*
X168375149Y-98873428D02*
X168137054Y-99040094D01*
X168375149Y-99159142D02*
X167875149Y-99159142D01*
X167875149Y-99159142D02*
X167875149Y-98968666D01*
X167875149Y-98968666D02*
X167898959Y-98921047D01*
X167898959Y-98921047D02*
X167922768Y-98897237D01*
X167922768Y-98897237D02*
X167970387Y-98873428D01*
X167970387Y-98873428D02*
X168041816Y-98873428D01*
X168041816Y-98873428D02*
X168089435Y-98897237D01*
X168089435Y-98897237D02*
X168113244Y-98921047D01*
X168113244Y-98921047D02*
X168137054Y-98968666D01*
X168137054Y-98968666D02*
X168137054Y-99159142D01*
X167875149Y-98706761D02*
X167875149Y-98397237D01*
X167875149Y-98397237D02*
X168065625Y-98563904D01*
X168065625Y-98563904D02*
X168065625Y-98492475D01*
X168065625Y-98492475D02*
X168089435Y-98444856D01*
X168089435Y-98444856D02*
X168113244Y-98421047D01*
X168113244Y-98421047D02*
X168160863Y-98397237D01*
X168160863Y-98397237D02*
X168279911Y-98397237D01*
X168279911Y-98397237D02*
X168327530Y-98421047D01*
X168327530Y-98421047D02*
X168351340Y-98444856D01*
X168351340Y-98444856D02*
X168375149Y-98492475D01*
X168375149Y-98492475D02*
X168375149Y-98635332D01*
X168375149Y-98635332D02*
X168351340Y-98682951D01*
X168351340Y-98682951D02*
X168327530Y-98706761D01*
X167875149Y-97968666D02*
X167875149Y-98063904D01*
X167875149Y-98063904D02*
X167898959Y-98111523D01*
X167898959Y-98111523D02*
X167922768Y-98135333D01*
X167922768Y-98135333D02*
X167994197Y-98182952D01*
X167994197Y-98182952D02*
X168089435Y-98206761D01*
X168089435Y-98206761D02*
X168279911Y-98206761D01*
X168279911Y-98206761D02*
X168327530Y-98182952D01*
X168327530Y-98182952D02*
X168351340Y-98159142D01*
X168351340Y-98159142D02*
X168375149Y-98111523D01*
X168375149Y-98111523D02*
X168375149Y-98016285D01*
X168375149Y-98016285D02*
X168351340Y-97968666D01*
X168351340Y-97968666D02*
X168327530Y-97944857D01*
X168327530Y-97944857D02*
X168279911Y-97921047D01*
X168279911Y-97921047D02*
X168160863Y-97921047D01*
X168160863Y-97921047D02*
X168113244Y-97944857D01*
X168113244Y-97944857D02*
X168089435Y-97968666D01*
X168089435Y-97968666D02*
X168065625Y-98016285D01*
X168065625Y-98016285D02*
X168065625Y-98111523D01*
X168065625Y-98111523D02*
X168089435Y-98159142D01*
X168089435Y-98159142D02*
X168113244Y-98182952D01*
X168113244Y-98182952D02*
X168160863Y-98206761D01*
D10*
X151824045Y-97104190D02*
X151785950Y-97180380D01*
X151785950Y-97180380D02*
X151709760Y-97256571D01*
X151709760Y-97256571D02*
X151595474Y-97370857D01*
X151595474Y-97370857D02*
X151557379Y-97447047D01*
X151557379Y-97447047D02*
X151557379Y-97523238D01*
X151747855Y-97485142D02*
X151709760Y-97561333D01*
X151709760Y-97561333D02*
X151633569Y-97637523D01*
X151633569Y-97637523D02*
X151481188Y-97675619D01*
X151481188Y-97675619D02*
X151214521Y-97675619D01*
X151214521Y-97675619D02*
X151062140Y-97637523D01*
X151062140Y-97637523D02*
X150985950Y-97561333D01*
X150985950Y-97561333D02*
X150947855Y-97485142D01*
X150947855Y-97485142D02*
X150947855Y-97332761D01*
X150947855Y-97332761D02*
X150985950Y-97256571D01*
X150985950Y-97256571D02*
X151062140Y-97180380D01*
X151062140Y-97180380D02*
X151214521Y-97142285D01*
X151214521Y-97142285D02*
X151481188Y-97142285D01*
X151481188Y-97142285D02*
X151633569Y-97180380D01*
X151633569Y-97180380D02*
X151709760Y-97256571D01*
X151709760Y-97256571D02*
X151747855Y-97332761D01*
X151747855Y-97332761D02*
X151747855Y-97485142D01*
X150947855Y-96875619D02*
X150947855Y-96380381D01*
X150947855Y-96380381D02*
X151252617Y-96647047D01*
X151252617Y-96647047D02*
X151252617Y-96532762D01*
X151252617Y-96532762D02*
X151290712Y-96456571D01*
X151290712Y-96456571D02*
X151328807Y-96418476D01*
X151328807Y-96418476D02*
X151404998Y-96380381D01*
X151404998Y-96380381D02*
X151595474Y-96380381D01*
X151595474Y-96380381D02*
X151671664Y-96418476D01*
X151671664Y-96418476D02*
X151709760Y-96456571D01*
X151709760Y-96456571D02*
X151747855Y-96532762D01*
X151747855Y-96532762D02*
X151747855Y-96761333D01*
X151747855Y-96761333D02*
X151709760Y-96837524D01*
X151709760Y-96837524D02*
X151671664Y-96875619D01*
D12*
X168375149Y-129353428D02*
X168137054Y-129520094D01*
X168375149Y-129639142D02*
X167875149Y-129639142D01*
X167875149Y-129639142D02*
X167875149Y-129448666D01*
X167875149Y-129448666D02*
X167898959Y-129401047D01*
X167898959Y-129401047D02*
X167922768Y-129377237D01*
X167922768Y-129377237D02*
X167970387Y-129353428D01*
X167970387Y-129353428D02*
X168041816Y-129353428D01*
X168041816Y-129353428D02*
X168089435Y-129377237D01*
X168089435Y-129377237D02*
X168113244Y-129401047D01*
X168113244Y-129401047D02*
X168137054Y-129448666D01*
X168137054Y-129448666D02*
X168137054Y-129639142D01*
X168041816Y-128924856D02*
X168375149Y-128924856D01*
X167851340Y-129043904D02*
X168208482Y-129162951D01*
X168208482Y-129162951D02*
X168208482Y-128853428D01*
X168041816Y-128448666D02*
X168375149Y-128448666D01*
X167851340Y-128567714D02*
X168208482Y-128686761D01*
X168208482Y-128686761D02*
X168208482Y-128377238D01*
D10*
X120175664Y-129927332D02*
X120213760Y-129965428D01*
X120213760Y-129965428D02*
X120251855Y-130079713D01*
X120251855Y-130079713D02*
X120251855Y-130155904D01*
X120251855Y-130155904D02*
X120213760Y-130270190D01*
X120213760Y-130270190D02*
X120137569Y-130346380D01*
X120137569Y-130346380D02*
X120061379Y-130384475D01*
X120061379Y-130384475D02*
X119908998Y-130422571D01*
X119908998Y-130422571D02*
X119794712Y-130422571D01*
X119794712Y-130422571D02*
X119642331Y-130384475D01*
X119642331Y-130384475D02*
X119566140Y-130346380D01*
X119566140Y-130346380D02*
X119489950Y-130270190D01*
X119489950Y-130270190D02*
X119451855Y-130155904D01*
X119451855Y-130155904D02*
X119451855Y-130079713D01*
X119451855Y-130079713D02*
X119489950Y-129965428D01*
X119489950Y-129965428D02*
X119528045Y-129927332D01*
X119451855Y-129660666D02*
X119451855Y-129165428D01*
X119451855Y-129165428D02*
X119756617Y-129432094D01*
X119756617Y-129432094D02*
X119756617Y-129317809D01*
X119756617Y-129317809D02*
X119794712Y-129241618D01*
X119794712Y-129241618D02*
X119832807Y-129203523D01*
X119832807Y-129203523D02*
X119908998Y-129165428D01*
X119908998Y-129165428D02*
X120099474Y-129165428D01*
X120099474Y-129165428D02*
X120175664Y-129203523D01*
X120175664Y-129203523D02*
X120213760Y-129241618D01*
X120213760Y-129241618D02*
X120251855Y-129317809D01*
X120251855Y-129317809D02*
X120251855Y-129546380D01*
X120251855Y-129546380D02*
X120213760Y-129622571D01*
X120213760Y-129622571D02*
X120175664Y-129660666D01*
D11*
X123930628Y-127476190D02*
X124406819Y-127476190D01*
X123406819Y-127809523D02*
X123930628Y-127476190D01*
X123930628Y-127476190D02*
X123406819Y-127142857D01*
X124406819Y-126285714D02*
X124406819Y-126857142D01*
X124406819Y-126571428D02*
X123406819Y-126571428D01*
X123406819Y-126571428D02*
X123549676Y-126666666D01*
X123549676Y-126666666D02*
X123644914Y-126761904D01*
X123644914Y-126761904D02*
X123692533Y-126857142D01*
D12*
X168375149Y-125759928D02*
X168137054Y-125926594D01*
X168375149Y-126045642D02*
X167875149Y-126045642D01*
X167875149Y-126045642D02*
X167875149Y-125855166D01*
X167875149Y-125855166D02*
X167898959Y-125807547D01*
X167898959Y-125807547D02*
X167922768Y-125783737D01*
X167922768Y-125783737D02*
X167970387Y-125759928D01*
X167970387Y-125759928D02*
X168041816Y-125759928D01*
X168041816Y-125759928D02*
X168089435Y-125783737D01*
X168089435Y-125783737D02*
X168113244Y-125807547D01*
X168113244Y-125807547D02*
X168137054Y-125855166D01*
X168137054Y-125855166D02*
X168137054Y-126045642D01*
X168041816Y-125331356D02*
X168375149Y-125331356D01*
X167851340Y-125450404D02*
X168208482Y-125569451D01*
X168208482Y-125569451D02*
X168208482Y-125259928D01*
X167875149Y-125117071D02*
X167875149Y-124807547D01*
X167875149Y-124807547D02*
X168065625Y-124974214D01*
X168065625Y-124974214D02*
X168065625Y-124902785D01*
X168065625Y-124902785D02*
X168089435Y-124855166D01*
X168089435Y-124855166D02*
X168113244Y-124831357D01*
X168113244Y-124831357D02*
X168160863Y-124807547D01*
X168160863Y-124807547D02*
X168279911Y-124807547D01*
X168279911Y-124807547D02*
X168327530Y-124831357D01*
X168327530Y-124831357D02*
X168351340Y-124855166D01*
X168351340Y-124855166D02*
X168375149Y-124902785D01*
X168375149Y-124902785D02*
X168375149Y-125045642D01*
X168375149Y-125045642D02*
X168351340Y-125093261D01*
X168351340Y-125093261D02*
X168327530Y-125117071D01*
X157236649Y-98873428D02*
X156998554Y-99040094D01*
X157236649Y-99159142D02*
X156736649Y-99159142D01*
X156736649Y-99159142D02*
X156736649Y-98968666D01*
X156736649Y-98968666D02*
X156760459Y-98921047D01*
X156760459Y-98921047D02*
X156784268Y-98897237D01*
X156784268Y-98897237D02*
X156831887Y-98873428D01*
X156831887Y-98873428D02*
X156903316Y-98873428D01*
X156903316Y-98873428D02*
X156950935Y-98897237D01*
X156950935Y-98897237D02*
X156974744Y-98921047D01*
X156974744Y-98921047D02*
X156998554Y-98968666D01*
X156998554Y-98968666D02*
X156998554Y-99159142D01*
X156784268Y-98682951D02*
X156760459Y-98659142D01*
X156760459Y-98659142D02*
X156736649Y-98611523D01*
X156736649Y-98611523D02*
X156736649Y-98492475D01*
X156736649Y-98492475D02*
X156760459Y-98444856D01*
X156760459Y-98444856D02*
X156784268Y-98421047D01*
X156784268Y-98421047D02*
X156831887Y-98397237D01*
X156831887Y-98397237D02*
X156879506Y-98397237D01*
X156879506Y-98397237D02*
X156950935Y-98421047D01*
X156950935Y-98421047D02*
X157236649Y-98706761D01*
X157236649Y-98706761D02*
X157236649Y-98397237D01*
X156736649Y-98087714D02*
X156736649Y-98040095D01*
X156736649Y-98040095D02*
X156760459Y-97992476D01*
X156760459Y-97992476D02*
X156784268Y-97968666D01*
X156784268Y-97968666D02*
X156831887Y-97944857D01*
X156831887Y-97944857D02*
X156927125Y-97921047D01*
X156927125Y-97921047D02*
X157046173Y-97921047D01*
X157046173Y-97921047D02*
X157141411Y-97944857D01*
X157141411Y-97944857D02*
X157189030Y-97968666D01*
X157189030Y-97968666D02*
X157212840Y-97992476D01*
X157212840Y-97992476D02*
X157236649Y-98040095D01*
X157236649Y-98040095D02*
X157236649Y-98087714D01*
X157236649Y-98087714D02*
X157212840Y-98135333D01*
X157212840Y-98135333D02*
X157189030Y-98159142D01*
X157189030Y-98159142D02*
X157141411Y-98182952D01*
X157141411Y-98182952D02*
X157046173Y-98206761D01*
X157046173Y-98206761D02*
X156927125Y-98206761D01*
X156927125Y-98206761D02*
X156831887Y-98182952D01*
X156831887Y-98182952D02*
X156784268Y-98159142D01*
X156784268Y-98159142D02*
X156760459Y-98135333D01*
X156760459Y-98135333D02*
X156736649Y-98087714D01*
D10*
X163000045Y-81864190D02*
X162961950Y-81940380D01*
X162961950Y-81940380D02*
X162885760Y-82016571D01*
X162885760Y-82016571D02*
X162771474Y-82130857D01*
X162771474Y-82130857D02*
X162733379Y-82207047D01*
X162733379Y-82207047D02*
X162733379Y-82283238D01*
X162923855Y-82245142D02*
X162885760Y-82321333D01*
X162885760Y-82321333D02*
X162809569Y-82397523D01*
X162809569Y-82397523D02*
X162657188Y-82435619D01*
X162657188Y-82435619D02*
X162390521Y-82435619D01*
X162390521Y-82435619D02*
X162238140Y-82397523D01*
X162238140Y-82397523D02*
X162161950Y-82321333D01*
X162161950Y-82321333D02*
X162123855Y-82245142D01*
X162123855Y-82245142D02*
X162123855Y-82092761D01*
X162123855Y-82092761D02*
X162161950Y-82016571D01*
X162161950Y-82016571D02*
X162238140Y-81940380D01*
X162238140Y-81940380D02*
X162390521Y-81902285D01*
X162390521Y-81902285D02*
X162657188Y-81902285D01*
X162657188Y-81902285D02*
X162809569Y-81940380D01*
X162809569Y-81940380D02*
X162885760Y-82016571D01*
X162885760Y-82016571D02*
X162923855Y-82092761D01*
X162923855Y-82092761D02*
X162923855Y-82245142D01*
X162923855Y-81521333D02*
X162923855Y-81368952D01*
X162923855Y-81368952D02*
X162885760Y-81292762D01*
X162885760Y-81292762D02*
X162847664Y-81254666D01*
X162847664Y-81254666D02*
X162733379Y-81178476D01*
X162733379Y-81178476D02*
X162580998Y-81140381D01*
X162580998Y-81140381D02*
X162276236Y-81140381D01*
X162276236Y-81140381D02*
X162200045Y-81178476D01*
X162200045Y-81178476D02*
X162161950Y-81216571D01*
X162161950Y-81216571D02*
X162123855Y-81292762D01*
X162123855Y-81292762D02*
X162123855Y-81445143D01*
X162123855Y-81445143D02*
X162161950Y-81521333D01*
X162161950Y-81521333D02*
X162200045Y-81559428D01*
X162200045Y-81559428D02*
X162276236Y-81597524D01*
X162276236Y-81597524D02*
X162466712Y-81597524D01*
X162466712Y-81597524D02*
X162542902Y-81559428D01*
X162542902Y-81559428D02*
X162580998Y-81521333D01*
X162580998Y-81521333D02*
X162619093Y-81445143D01*
X162619093Y-81445143D02*
X162619093Y-81292762D01*
X162619093Y-81292762D02*
X162580998Y-81216571D01*
X162580998Y-81216571D02*
X162542902Y-81178476D01*
X162542902Y-81178476D02*
X162466712Y-81140381D01*
D11*
X180966819Y-104473333D02*
X181681104Y-104473333D01*
X181681104Y-104473333D02*
X181823961Y-104520952D01*
X181823961Y-104520952D02*
X181919200Y-104616190D01*
X181919200Y-104616190D02*
X181966819Y-104759047D01*
X181966819Y-104759047D02*
X181966819Y-104854285D01*
X181300152Y-103568571D02*
X181966819Y-103568571D01*
X180919200Y-103806666D02*
X181633485Y-104044761D01*
X181633485Y-104044761D02*
X181633485Y-103425714D01*
D12*
X146023149Y-110319333D02*
X145785054Y-110485999D01*
X146023149Y-110605047D02*
X145523149Y-110605047D01*
X145523149Y-110605047D02*
X145523149Y-110414571D01*
X145523149Y-110414571D02*
X145546959Y-110366952D01*
X145546959Y-110366952D02*
X145570768Y-110343142D01*
X145570768Y-110343142D02*
X145618387Y-110319333D01*
X145618387Y-110319333D02*
X145689816Y-110319333D01*
X145689816Y-110319333D02*
X145737435Y-110343142D01*
X145737435Y-110343142D02*
X145761244Y-110366952D01*
X145761244Y-110366952D02*
X145785054Y-110414571D01*
X145785054Y-110414571D02*
X145785054Y-110605047D01*
X146023149Y-110081237D02*
X146023149Y-109985999D01*
X146023149Y-109985999D02*
X145999340Y-109938380D01*
X145999340Y-109938380D02*
X145975530Y-109914571D01*
X145975530Y-109914571D02*
X145904101Y-109866952D01*
X145904101Y-109866952D02*
X145808863Y-109843142D01*
X145808863Y-109843142D02*
X145618387Y-109843142D01*
X145618387Y-109843142D02*
X145570768Y-109866952D01*
X145570768Y-109866952D02*
X145546959Y-109890761D01*
X145546959Y-109890761D02*
X145523149Y-109938380D01*
X145523149Y-109938380D02*
X145523149Y-110033618D01*
X145523149Y-110033618D02*
X145546959Y-110081237D01*
X145546959Y-110081237D02*
X145570768Y-110105047D01*
X145570768Y-110105047D02*
X145618387Y-110128856D01*
X145618387Y-110128856D02*
X145737435Y-110128856D01*
X145737435Y-110128856D02*
X145785054Y-110105047D01*
X145785054Y-110105047D02*
X145808863Y-110081237D01*
X145808863Y-110081237D02*
X145832673Y-110033618D01*
X145832673Y-110033618D02*
X145832673Y-109938380D01*
X145832673Y-109938380D02*
X145808863Y-109890761D01*
X145808863Y-109890761D02*
X145785054Y-109866952D01*
X145785054Y-109866952D02*
X145737435Y-109843142D01*
X168359149Y-91253428D02*
X168121054Y-91420094D01*
X168359149Y-91539142D02*
X167859149Y-91539142D01*
X167859149Y-91539142D02*
X167859149Y-91348666D01*
X167859149Y-91348666D02*
X167882959Y-91301047D01*
X167882959Y-91301047D02*
X167906768Y-91277237D01*
X167906768Y-91277237D02*
X167954387Y-91253428D01*
X167954387Y-91253428D02*
X168025816Y-91253428D01*
X168025816Y-91253428D02*
X168073435Y-91277237D01*
X168073435Y-91277237D02*
X168097244Y-91301047D01*
X168097244Y-91301047D02*
X168121054Y-91348666D01*
X168121054Y-91348666D02*
X168121054Y-91539142D01*
X167859149Y-91086761D02*
X167859149Y-90777237D01*
X167859149Y-90777237D02*
X168049625Y-90943904D01*
X168049625Y-90943904D02*
X168049625Y-90872475D01*
X168049625Y-90872475D02*
X168073435Y-90824856D01*
X168073435Y-90824856D02*
X168097244Y-90801047D01*
X168097244Y-90801047D02*
X168144863Y-90777237D01*
X168144863Y-90777237D02*
X168263911Y-90777237D01*
X168263911Y-90777237D02*
X168311530Y-90801047D01*
X168311530Y-90801047D02*
X168335340Y-90824856D01*
X168335340Y-90824856D02*
X168359149Y-90872475D01*
X168359149Y-90872475D02*
X168359149Y-91015332D01*
X168359149Y-91015332D02*
X168335340Y-91062951D01*
X168335340Y-91062951D02*
X168311530Y-91086761D01*
X168025816Y-90348666D02*
X168359149Y-90348666D01*
X167835340Y-90467714D02*
X168192482Y-90586761D01*
X168192482Y-90586761D02*
X168192482Y-90277238D01*
X146060649Y-80309833D02*
X145822554Y-80476499D01*
X146060649Y-80595547D02*
X145560649Y-80595547D01*
X145560649Y-80595547D02*
X145560649Y-80405071D01*
X145560649Y-80405071D02*
X145584459Y-80357452D01*
X145584459Y-80357452D02*
X145608268Y-80333642D01*
X145608268Y-80333642D02*
X145655887Y-80309833D01*
X145655887Y-80309833D02*
X145727316Y-80309833D01*
X145727316Y-80309833D02*
X145774935Y-80333642D01*
X145774935Y-80333642D02*
X145798744Y-80357452D01*
X145798744Y-80357452D02*
X145822554Y-80405071D01*
X145822554Y-80405071D02*
X145822554Y-80595547D01*
X145560649Y-79857452D02*
X145560649Y-80095547D01*
X145560649Y-80095547D02*
X145798744Y-80119356D01*
X145798744Y-80119356D02*
X145774935Y-80095547D01*
X145774935Y-80095547D02*
X145751125Y-80047928D01*
X145751125Y-80047928D02*
X145751125Y-79928880D01*
X145751125Y-79928880D02*
X145774935Y-79881261D01*
X145774935Y-79881261D02*
X145798744Y-79857452D01*
X145798744Y-79857452D02*
X145846363Y-79833642D01*
X145846363Y-79833642D02*
X145965411Y-79833642D01*
X145965411Y-79833642D02*
X146013030Y-79857452D01*
X146013030Y-79857452D02*
X146036840Y-79881261D01*
X146036840Y-79881261D02*
X146060649Y-79928880D01*
X146060649Y-79928880D02*
X146060649Y-80047928D01*
X146060649Y-80047928D02*
X146036840Y-80095547D01*
X146036840Y-80095547D02*
X146013030Y-80119356D01*
D10*
X129152667Y-114587664D02*
X129114571Y-114625760D01*
X129114571Y-114625760D02*
X129000286Y-114663855D01*
X129000286Y-114663855D02*
X128924095Y-114663855D01*
X128924095Y-114663855D02*
X128809809Y-114625760D01*
X128809809Y-114625760D02*
X128733619Y-114549569D01*
X128733619Y-114549569D02*
X128695524Y-114473379D01*
X128695524Y-114473379D02*
X128657428Y-114320998D01*
X128657428Y-114320998D02*
X128657428Y-114206712D01*
X128657428Y-114206712D02*
X128695524Y-114054331D01*
X128695524Y-114054331D02*
X128733619Y-113978140D01*
X128733619Y-113978140D02*
X128809809Y-113901950D01*
X128809809Y-113901950D02*
X128924095Y-113863855D01*
X128924095Y-113863855D02*
X129000286Y-113863855D01*
X129000286Y-113863855D02*
X129114571Y-113901950D01*
X129114571Y-113901950D02*
X129152667Y-113940045D01*
X129419333Y-113863855D02*
X129952667Y-113863855D01*
X129952667Y-113863855D02*
X129609809Y-114663855D01*
X151824045Y-119964190D02*
X151785950Y-120040380D01*
X151785950Y-120040380D02*
X151709760Y-120116571D01*
X151709760Y-120116571D02*
X151595474Y-120230857D01*
X151595474Y-120230857D02*
X151557379Y-120307047D01*
X151557379Y-120307047D02*
X151557379Y-120383238D01*
X151747855Y-120345142D02*
X151709760Y-120421333D01*
X151709760Y-120421333D02*
X151633569Y-120497523D01*
X151633569Y-120497523D02*
X151481188Y-120535619D01*
X151481188Y-120535619D02*
X151214521Y-120535619D01*
X151214521Y-120535619D02*
X151062140Y-120497523D01*
X151062140Y-120497523D02*
X150985950Y-120421333D01*
X150985950Y-120421333D02*
X150947855Y-120345142D01*
X150947855Y-120345142D02*
X150947855Y-120192761D01*
X150947855Y-120192761D02*
X150985950Y-120116571D01*
X150985950Y-120116571D02*
X151062140Y-120040380D01*
X151062140Y-120040380D02*
X151214521Y-120002285D01*
X151214521Y-120002285D02*
X151481188Y-120002285D01*
X151481188Y-120002285D02*
X151633569Y-120040380D01*
X151633569Y-120040380D02*
X151709760Y-120116571D01*
X151709760Y-120116571D02*
X151747855Y-120192761D01*
X151747855Y-120192761D02*
X151747855Y-120345142D01*
X150947855Y-119316571D02*
X150947855Y-119468952D01*
X150947855Y-119468952D02*
X150985950Y-119545143D01*
X150985950Y-119545143D02*
X151024045Y-119583238D01*
X151024045Y-119583238D02*
X151138331Y-119659428D01*
X151138331Y-119659428D02*
X151290712Y-119697524D01*
X151290712Y-119697524D02*
X151595474Y-119697524D01*
X151595474Y-119697524D02*
X151671664Y-119659428D01*
X151671664Y-119659428D02*
X151709760Y-119621333D01*
X151709760Y-119621333D02*
X151747855Y-119545143D01*
X151747855Y-119545143D02*
X151747855Y-119392762D01*
X151747855Y-119392762D02*
X151709760Y-119316571D01*
X151709760Y-119316571D02*
X151671664Y-119278476D01*
X151671664Y-119278476D02*
X151595474Y-119240381D01*
X151595474Y-119240381D02*
X151404998Y-119240381D01*
X151404998Y-119240381D02*
X151328807Y-119278476D01*
X151328807Y-119278476D02*
X151290712Y-119316571D01*
X151290712Y-119316571D02*
X151252617Y-119392762D01*
X151252617Y-119392762D02*
X151252617Y-119545143D01*
X151252617Y-119545143D02*
X151290712Y-119621333D01*
X151290712Y-119621333D02*
X151328807Y-119659428D01*
X151328807Y-119659428D02*
X151404998Y-119697524D01*
D12*
X157199149Y-87697428D02*
X156961054Y-87864094D01*
X157199149Y-87983142D02*
X156699149Y-87983142D01*
X156699149Y-87983142D02*
X156699149Y-87792666D01*
X156699149Y-87792666D02*
X156722959Y-87745047D01*
X156722959Y-87745047D02*
X156746768Y-87721237D01*
X156746768Y-87721237D02*
X156794387Y-87697428D01*
X156794387Y-87697428D02*
X156865816Y-87697428D01*
X156865816Y-87697428D02*
X156913435Y-87721237D01*
X156913435Y-87721237D02*
X156937244Y-87745047D01*
X156937244Y-87745047D02*
X156961054Y-87792666D01*
X156961054Y-87792666D02*
X156961054Y-87983142D01*
X157199149Y-87221237D02*
X157199149Y-87506951D01*
X157199149Y-87364094D02*
X156699149Y-87364094D01*
X156699149Y-87364094D02*
X156770578Y-87411713D01*
X156770578Y-87411713D02*
X156818197Y-87459332D01*
X156818197Y-87459332D02*
X156842006Y-87506951D01*
X156699149Y-87054571D02*
X156699149Y-86721238D01*
X156699149Y-86721238D02*
X157199149Y-86935523D01*
X157199149Y-91253428D02*
X156961054Y-91420094D01*
X157199149Y-91539142D02*
X156699149Y-91539142D01*
X156699149Y-91539142D02*
X156699149Y-91348666D01*
X156699149Y-91348666D02*
X156722959Y-91301047D01*
X156722959Y-91301047D02*
X156746768Y-91277237D01*
X156746768Y-91277237D02*
X156794387Y-91253428D01*
X156794387Y-91253428D02*
X156865816Y-91253428D01*
X156865816Y-91253428D02*
X156913435Y-91277237D01*
X156913435Y-91277237D02*
X156937244Y-91301047D01*
X156937244Y-91301047D02*
X156961054Y-91348666D01*
X156961054Y-91348666D02*
X156961054Y-91539142D01*
X157199149Y-90777237D02*
X157199149Y-91062951D01*
X157199149Y-90920094D02*
X156699149Y-90920094D01*
X156699149Y-90920094D02*
X156770578Y-90967713D01*
X156770578Y-90967713D02*
X156818197Y-91015332D01*
X156818197Y-91015332D02*
X156842006Y-91062951D01*
X156913435Y-90491523D02*
X156889625Y-90539142D01*
X156889625Y-90539142D02*
X156865816Y-90562952D01*
X156865816Y-90562952D02*
X156818197Y-90586761D01*
X156818197Y-90586761D02*
X156794387Y-90586761D01*
X156794387Y-90586761D02*
X156746768Y-90562952D01*
X156746768Y-90562952D02*
X156722959Y-90539142D01*
X156722959Y-90539142D02*
X156699149Y-90491523D01*
X156699149Y-90491523D02*
X156699149Y-90396285D01*
X156699149Y-90396285D02*
X156722959Y-90348666D01*
X156722959Y-90348666D02*
X156746768Y-90324857D01*
X156746768Y-90324857D02*
X156794387Y-90301047D01*
X156794387Y-90301047D02*
X156818197Y-90301047D01*
X156818197Y-90301047D02*
X156865816Y-90324857D01*
X156865816Y-90324857D02*
X156889625Y-90348666D01*
X156889625Y-90348666D02*
X156913435Y-90396285D01*
X156913435Y-90396285D02*
X156913435Y-90491523D01*
X156913435Y-90491523D02*
X156937244Y-90539142D01*
X156937244Y-90539142D02*
X156961054Y-90562952D01*
X156961054Y-90562952D02*
X157008673Y-90586761D01*
X157008673Y-90586761D02*
X157103911Y-90586761D01*
X157103911Y-90586761D02*
X157151530Y-90562952D01*
X157151530Y-90562952D02*
X157175340Y-90539142D01*
X157175340Y-90539142D02*
X157199149Y-90491523D01*
X157199149Y-90491523D02*
X157199149Y-90396285D01*
X157199149Y-90396285D02*
X157175340Y-90348666D01*
X157175340Y-90348666D02*
X157151530Y-90324857D01*
X157151530Y-90324857D02*
X157103911Y-90301047D01*
X157103911Y-90301047D02*
X157008673Y-90301047D01*
X157008673Y-90301047D02*
X156961054Y-90324857D01*
X156961054Y-90324857D02*
X156937244Y-90348666D01*
X156937244Y-90348666D02*
X156913435Y-90396285D01*
X157236649Y-83633428D02*
X156998554Y-83800094D01*
X157236649Y-83919142D02*
X156736649Y-83919142D01*
X156736649Y-83919142D02*
X156736649Y-83728666D01*
X156736649Y-83728666D02*
X156760459Y-83681047D01*
X156760459Y-83681047D02*
X156784268Y-83657237D01*
X156784268Y-83657237D02*
X156831887Y-83633428D01*
X156831887Y-83633428D02*
X156903316Y-83633428D01*
X156903316Y-83633428D02*
X156950935Y-83657237D01*
X156950935Y-83657237D02*
X156974744Y-83681047D01*
X156974744Y-83681047D02*
X156998554Y-83728666D01*
X156998554Y-83728666D02*
X156998554Y-83919142D01*
X157236649Y-83157237D02*
X157236649Y-83442951D01*
X157236649Y-83300094D02*
X156736649Y-83300094D01*
X156736649Y-83300094D02*
X156808078Y-83347713D01*
X156808078Y-83347713D02*
X156855697Y-83395332D01*
X156855697Y-83395332D02*
X156879506Y-83442951D01*
X156736649Y-82728666D02*
X156736649Y-82823904D01*
X156736649Y-82823904D02*
X156760459Y-82871523D01*
X156760459Y-82871523D02*
X156784268Y-82895333D01*
X156784268Y-82895333D02*
X156855697Y-82942952D01*
X156855697Y-82942952D02*
X156950935Y-82966761D01*
X156950935Y-82966761D02*
X157141411Y-82966761D01*
X157141411Y-82966761D02*
X157189030Y-82942952D01*
X157189030Y-82942952D02*
X157212840Y-82919142D01*
X157212840Y-82919142D02*
X157236649Y-82871523D01*
X157236649Y-82871523D02*
X157236649Y-82776285D01*
X157236649Y-82776285D02*
X157212840Y-82728666D01*
X157212840Y-82728666D02*
X157189030Y-82704857D01*
X157189030Y-82704857D02*
X157141411Y-82681047D01*
X157141411Y-82681047D02*
X157022363Y-82681047D01*
X157022363Y-82681047D02*
X156974744Y-82704857D01*
X156974744Y-82704857D02*
X156950935Y-82728666D01*
X156950935Y-82728666D02*
X156927125Y-82776285D01*
X156927125Y-82776285D02*
X156927125Y-82871523D01*
X156927125Y-82871523D02*
X156950935Y-82919142D01*
X156950935Y-82919142D02*
X156974744Y-82942952D01*
X156974744Y-82942952D02*
X157022363Y-82966761D01*
X157199149Y-110557428D02*
X156961054Y-110724094D01*
X157199149Y-110843142D02*
X156699149Y-110843142D01*
X156699149Y-110843142D02*
X156699149Y-110652666D01*
X156699149Y-110652666D02*
X156722959Y-110605047D01*
X156722959Y-110605047D02*
X156746768Y-110581237D01*
X156746768Y-110581237D02*
X156794387Y-110557428D01*
X156794387Y-110557428D02*
X156865816Y-110557428D01*
X156865816Y-110557428D02*
X156913435Y-110581237D01*
X156913435Y-110581237D02*
X156937244Y-110605047D01*
X156937244Y-110605047D02*
X156961054Y-110652666D01*
X156961054Y-110652666D02*
X156961054Y-110843142D01*
X156746768Y-110366951D02*
X156722959Y-110343142D01*
X156722959Y-110343142D02*
X156699149Y-110295523D01*
X156699149Y-110295523D02*
X156699149Y-110176475D01*
X156699149Y-110176475D02*
X156722959Y-110128856D01*
X156722959Y-110128856D02*
X156746768Y-110105047D01*
X156746768Y-110105047D02*
X156794387Y-110081237D01*
X156794387Y-110081237D02*
X156842006Y-110081237D01*
X156842006Y-110081237D02*
X156913435Y-110105047D01*
X156913435Y-110105047D02*
X157199149Y-110390761D01*
X157199149Y-110390761D02*
X157199149Y-110081237D01*
X156699149Y-109914571D02*
X156699149Y-109605047D01*
X156699149Y-109605047D02*
X156889625Y-109771714D01*
X156889625Y-109771714D02*
X156889625Y-109700285D01*
X156889625Y-109700285D02*
X156913435Y-109652666D01*
X156913435Y-109652666D02*
X156937244Y-109628857D01*
X156937244Y-109628857D02*
X156984863Y-109605047D01*
X156984863Y-109605047D02*
X157103911Y-109605047D01*
X157103911Y-109605047D02*
X157151530Y-109628857D01*
X157151530Y-109628857D02*
X157175340Y-109652666D01*
X157175340Y-109652666D02*
X157199149Y-109700285D01*
X157199149Y-109700285D02*
X157199149Y-109843142D01*
X157199149Y-109843142D02*
X157175340Y-109890761D01*
X157175340Y-109890761D02*
X157151530Y-109914571D01*
D11*
X127053180Y-84923333D02*
X127053180Y-84447143D01*
X127053180Y-84447143D02*
X128053180Y-84447143D01*
X127957942Y-85209048D02*
X128005561Y-85256667D01*
X128005561Y-85256667D02*
X128053180Y-85351905D01*
X128053180Y-85351905D02*
X128053180Y-85590000D01*
X128053180Y-85590000D02*
X128005561Y-85685238D01*
X128005561Y-85685238D02*
X127957942Y-85732857D01*
X127957942Y-85732857D02*
X127862704Y-85780476D01*
X127862704Y-85780476D02*
X127767466Y-85780476D01*
X127767466Y-85780476D02*
X127624609Y-85732857D01*
X127624609Y-85732857D02*
X127053180Y-85161429D01*
X127053180Y-85161429D02*
X127053180Y-85780476D01*
D10*
X163000045Y-112725142D02*
X162961950Y-112801332D01*
X162961950Y-112801332D02*
X162885760Y-112877523D01*
X162885760Y-112877523D02*
X162771474Y-112991809D01*
X162771474Y-112991809D02*
X162733379Y-113067999D01*
X162733379Y-113067999D02*
X162733379Y-113144190D01*
X162923855Y-113106094D02*
X162885760Y-113182285D01*
X162885760Y-113182285D02*
X162809569Y-113258475D01*
X162809569Y-113258475D02*
X162657188Y-113296571D01*
X162657188Y-113296571D02*
X162390521Y-113296571D01*
X162390521Y-113296571D02*
X162238140Y-113258475D01*
X162238140Y-113258475D02*
X162161950Y-113182285D01*
X162161950Y-113182285D02*
X162123855Y-113106094D01*
X162123855Y-113106094D02*
X162123855Y-112953713D01*
X162123855Y-112953713D02*
X162161950Y-112877523D01*
X162161950Y-112877523D02*
X162238140Y-112801332D01*
X162238140Y-112801332D02*
X162390521Y-112763237D01*
X162390521Y-112763237D02*
X162657188Y-112763237D01*
X162657188Y-112763237D02*
X162809569Y-112801332D01*
X162809569Y-112801332D02*
X162885760Y-112877523D01*
X162885760Y-112877523D02*
X162923855Y-112953713D01*
X162923855Y-112953713D02*
X162923855Y-113106094D01*
X162923855Y-112001333D02*
X162923855Y-112458476D01*
X162923855Y-112229904D02*
X162123855Y-112229904D01*
X162123855Y-112229904D02*
X162238140Y-112306095D01*
X162238140Y-112306095D02*
X162314331Y-112382285D01*
X162314331Y-112382285D02*
X162352426Y-112458476D01*
X162123855Y-111734666D02*
X162123855Y-111239428D01*
X162123855Y-111239428D02*
X162428617Y-111506094D01*
X162428617Y-111506094D02*
X162428617Y-111391809D01*
X162428617Y-111391809D02*
X162466712Y-111315618D01*
X162466712Y-111315618D02*
X162504807Y-111277523D01*
X162504807Y-111277523D02*
X162580998Y-111239428D01*
X162580998Y-111239428D02*
X162771474Y-111239428D01*
X162771474Y-111239428D02*
X162847664Y-111277523D01*
X162847664Y-111277523D02*
X162885760Y-111315618D01*
X162885760Y-111315618D02*
X162923855Y-111391809D01*
X162923855Y-111391809D02*
X162923855Y-111620380D01*
X162923855Y-111620380D02*
X162885760Y-111696571D01*
X162885760Y-111696571D02*
X162847664Y-111734666D01*
D12*
X168412649Y-83633428D02*
X168174554Y-83800094D01*
X168412649Y-83919142D02*
X167912649Y-83919142D01*
X167912649Y-83919142D02*
X167912649Y-83728666D01*
X167912649Y-83728666D02*
X167936459Y-83681047D01*
X167936459Y-83681047D02*
X167960268Y-83657237D01*
X167960268Y-83657237D02*
X168007887Y-83633428D01*
X168007887Y-83633428D02*
X168079316Y-83633428D01*
X168079316Y-83633428D02*
X168126935Y-83657237D01*
X168126935Y-83657237D02*
X168150744Y-83681047D01*
X168150744Y-83681047D02*
X168174554Y-83728666D01*
X168174554Y-83728666D02*
X168174554Y-83919142D01*
X167912649Y-83466761D02*
X167912649Y-83157237D01*
X167912649Y-83157237D02*
X168103125Y-83323904D01*
X168103125Y-83323904D02*
X168103125Y-83252475D01*
X168103125Y-83252475D02*
X168126935Y-83204856D01*
X168126935Y-83204856D02*
X168150744Y-83181047D01*
X168150744Y-83181047D02*
X168198363Y-83157237D01*
X168198363Y-83157237D02*
X168317411Y-83157237D01*
X168317411Y-83157237D02*
X168365030Y-83181047D01*
X168365030Y-83181047D02*
X168388840Y-83204856D01*
X168388840Y-83204856D02*
X168412649Y-83252475D01*
X168412649Y-83252475D02*
X168412649Y-83395332D01*
X168412649Y-83395332D02*
X168388840Y-83442951D01*
X168388840Y-83442951D02*
X168365030Y-83466761D01*
X167960268Y-82966761D02*
X167936459Y-82942952D01*
X167936459Y-82942952D02*
X167912649Y-82895333D01*
X167912649Y-82895333D02*
X167912649Y-82776285D01*
X167912649Y-82776285D02*
X167936459Y-82728666D01*
X167936459Y-82728666D02*
X167960268Y-82704857D01*
X167960268Y-82704857D02*
X168007887Y-82681047D01*
X168007887Y-82681047D02*
X168055506Y-82681047D01*
X168055506Y-82681047D02*
X168126935Y-82704857D01*
X168126935Y-82704857D02*
X168412649Y-82990571D01*
X168412649Y-82990571D02*
X168412649Y-82681047D01*
X168375149Y-95317428D02*
X168137054Y-95484094D01*
X168375149Y-95603142D02*
X167875149Y-95603142D01*
X167875149Y-95603142D02*
X167875149Y-95412666D01*
X167875149Y-95412666D02*
X167898959Y-95365047D01*
X167898959Y-95365047D02*
X167922768Y-95341237D01*
X167922768Y-95341237D02*
X167970387Y-95317428D01*
X167970387Y-95317428D02*
X168041816Y-95317428D01*
X168041816Y-95317428D02*
X168089435Y-95341237D01*
X168089435Y-95341237D02*
X168113244Y-95365047D01*
X168113244Y-95365047D02*
X168137054Y-95412666D01*
X168137054Y-95412666D02*
X168137054Y-95603142D01*
X167875149Y-95150761D02*
X167875149Y-94841237D01*
X167875149Y-94841237D02*
X168065625Y-95007904D01*
X168065625Y-95007904D02*
X168065625Y-94936475D01*
X168065625Y-94936475D02*
X168089435Y-94888856D01*
X168089435Y-94888856D02*
X168113244Y-94865047D01*
X168113244Y-94865047D02*
X168160863Y-94841237D01*
X168160863Y-94841237D02*
X168279911Y-94841237D01*
X168279911Y-94841237D02*
X168327530Y-94865047D01*
X168327530Y-94865047D02*
X168351340Y-94888856D01*
X168351340Y-94888856D02*
X168375149Y-94936475D01*
X168375149Y-94936475D02*
X168375149Y-95079332D01*
X168375149Y-95079332D02*
X168351340Y-95126951D01*
X168351340Y-95126951D02*
X168327530Y-95150761D01*
X167875149Y-94388857D02*
X167875149Y-94626952D01*
X167875149Y-94626952D02*
X168113244Y-94650761D01*
X168113244Y-94650761D02*
X168089435Y-94626952D01*
X168089435Y-94626952D02*
X168065625Y-94579333D01*
X168065625Y-94579333D02*
X168065625Y-94460285D01*
X168065625Y-94460285D02*
X168089435Y-94412666D01*
X168089435Y-94412666D02*
X168113244Y-94388857D01*
X168113244Y-94388857D02*
X168160863Y-94365047D01*
X168160863Y-94365047D02*
X168279911Y-94365047D01*
X168279911Y-94365047D02*
X168327530Y-94388857D01*
X168327530Y-94388857D02*
X168351340Y-94412666D01*
X168351340Y-94412666D02*
X168375149Y-94460285D01*
X168375149Y-94460285D02*
X168375149Y-94579333D01*
X168375149Y-94579333D02*
X168351340Y-94626952D01*
X168351340Y-94626952D02*
X168327530Y-94650761D01*
D10*
X134653664Y-66808285D02*
X134691760Y-66846381D01*
X134691760Y-66846381D02*
X134729855Y-66960666D01*
X134729855Y-66960666D02*
X134729855Y-67036857D01*
X134729855Y-67036857D02*
X134691760Y-67151143D01*
X134691760Y-67151143D02*
X134615569Y-67227333D01*
X134615569Y-67227333D02*
X134539379Y-67265428D01*
X134539379Y-67265428D02*
X134386998Y-67303524D01*
X134386998Y-67303524D02*
X134272712Y-67303524D01*
X134272712Y-67303524D02*
X134120331Y-67265428D01*
X134120331Y-67265428D02*
X134044140Y-67227333D01*
X134044140Y-67227333D02*
X133967950Y-67151143D01*
X133967950Y-67151143D02*
X133929855Y-67036857D01*
X133929855Y-67036857D02*
X133929855Y-66960666D01*
X133929855Y-66960666D02*
X133967950Y-66846381D01*
X133967950Y-66846381D02*
X134006045Y-66808285D01*
X134729855Y-66046381D02*
X134729855Y-66503524D01*
X134729855Y-66274952D02*
X133929855Y-66274952D01*
X133929855Y-66274952D02*
X134044140Y-66351143D01*
X134044140Y-66351143D02*
X134120331Y-66427333D01*
X134120331Y-66427333D02*
X134158426Y-66503524D01*
X133929855Y-65551142D02*
X133929855Y-65474952D01*
X133929855Y-65474952D02*
X133967950Y-65398761D01*
X133967950Y-65398761D02*
X134006045Y-65360666D01*
X134006045Y-65360666D02*
X134082236Y-65322571D01*
X134082236Y-65322571D02*
X134234617Y-65284476D01*
X134234617Y-65284476D02*
X134425093Y-65284476D01*
X134425093Y-65284476D02*
X134577474Y-65322571D01*
X134577474Y-65322571D02*
X134653664Y-65360666D01*
X134653664Y-65360666D02*
X134691760Y-65398761D01*
X134691760Y-65398761D02*
X134729855Y-65474952D01*
X134729855Y-65474952D02*
X134729855Y-65551142D01*
X134729855Y-65551142D02*
X134691760Y-65627333D01*
X134691760Y-65627333D02*
X134653664Y-65665428D01*
X134653664Y-65665428D02*
X134577474Y-65703523D01*
X134577474Y-65703523D02*
X134425093Y-65741619D01*
X134425093Y-65741619D02*
X134234617Y-65741619D01*
X134234617Y-65741619D02*
X134082236Y-65703523D01*
X134082236Y-65703523D02*
X134006045Y-65665428D01*
X134006045Y-65665428D02*
X133967950Y-65627333D01*
X133967950Y-65627333D02*
X133929855Y-65551142D01*
X174176045Y-120345142D02*
X174137950Y-120421332D01*
X174137950Y-120421332D02*
X174061760Y-120497523D01*
X174061760Y-120497523D02*
X173947474Y-120611809D01*
X173947474Y-120611809D02*
X173909379Y-120687999D01*
X173909379Y-120687999D02*
X173909379Y-120764190D01*
X174099855Y-120726094D02*
X174061760Y-120802285D01*
X174061760Y-120802285D02*
X173985569Y-120878475D01*
X173985569Y-120878475D02*
X173833188Y-120916571D01*
X173833188Y-120916571D02*
X173566521Y-120916571D01*
X173566521Y-120916571D02*
X173414140Y-120878475D01*
X173414140Y-120878475D02*
X173337950Y-120802285D01*
X173337950Y-120802285D02*
X173299855Y-120726094D01*
X173299855Y-120726094D02*
X173299855Y-120573713D01*
X173299855Y-120573713D02*
X173337950Y-120497523D01*
X173337950Y-120497523D02*
X173414140Y-120421332D01*
X173414140Y-120421332D02*
X173566521Y-120383237D01*
X173566521Y-120383237D02*
X173833188Y-120383237D01*
X173833188Y-120383237D02*
X173985569Y-120421332D01*
X173985569Y-120421332D02*
X174061760Y-120497523D01*
X174061760Y-120497523D02*
X174099855Y-120573713D01*
X174099855Y-120573713D02*
X174099855Y-120726094D01*
X173376045Y-120078476D02*
X173337950Y-120040380D01*
X173337950Y-120040380D02*
X173299855Y-119964190D01*
X173299855Y-119964190D02*
X173299855Y-119773714D01*
X173299855Y-119773714D02*
X173337950Y-119697523D01*
X173337950Y-119697523D02*
X173376045Y-119659428D01*
X173376045Y-119659428D02*
X173452236Y-119621333D01*
X173452236Y-119621333D02*
X173528426Y-119621333D01*
X173528426Y-119621333D02*
X173642712Y-119659428D01*
X173642712Y-119659428D02*
X174099855Y-120116571D01*
X174099855Y-120116571D02*
X174099855Y-119621333D01*
X173376045Y-119316571D02*
X173337950Y-119278475D01*
X173337950Y-119278475D02*
X173299855Y-119202285D01*
X173299855Y-119202285D02*
X173299855Y-119011809D01*
X173299855Y-119011809D02*
X173337950Y-118935618D01*
X173337950Y-118935618D02*
X173376045Y-118897523D01*
X173376045Y-118897523D02*
X173452236Y-118859428D01*
X173452236Y-118859428D02*
X173528426Y-118859428D01*
X173528426Y-118859428D02*
X173642712Y-118897523D01*
X173642712Y-118897523D02*
X174099855Y-119354666D01*
X174099855Y-119354666D02*
X174099855Y-118859428D01*
X163000045Y-127965142D02*
X162961950Y-128041332D01*
X162961950Y-128041332D02*
X162885760Y-128117523D01*
X162885760Y-128117523D02*
X162771474Y-128231809D01*
X162771474Y-128231809D02*
X162733379Y-128307999D01*
X162733379Y-128307999D02*
X162733379Y-128384190D01*
X162923855Y-128346094D02*
X162885760Y-128422285D01*
X162885760Y-128422285D02*
X162809569Y-128498475D01*
X162809569Y-128498475D02*
X162657188Y-128536571D01*
X162657188Y-128536571D02*
X162390521Y-128536571D01*
X162390521Y-128536571D02*
X162238140Y-128498475D01*
X162238140Y-128498475D02*
X162161950Y-128422285D01*
X162161950Y-128422285D02*
X162123855Y-128346094D01*
X162123855Y-128346094D02*
X162123855Y-128193713D01*
X162123855Y-128193713D02*
X162161950Y-128117523D01*
X162161950Y-128117523D02*
X162238140Y-128041332D01*
X162238140Y-128041332D02*
X162390521Y-128003237D01*
X162390521Y-128003237D02*
X162657188Y-128003237D01*
X162657188Y-128003237D02*
X162809569Y-128041332D01*
X162809569Y-128041332D02*
X162885760Y-128117523D01*
X162885760Y-128117523D02*
X162923855Y-128193713D01*
X162923855Y-128193713D02*
X162923855Y-128346094D01*
X162923855Y-127241333D02*
X162923855Y-127698476D01*
X162923855Y-127469904D02*
X162123855Y-127469904D01*
X162123855Y-127469904D02*
X162238140Y-127546095D01*
X162238140Y-127546095D02*
X162314331Y-127622285D01*
X162314331Y-127622285D02*
X162352426Y-127698476D01*
X162123855Y-126517523D02*
X162123855Y-126898475D01*
X162123855Y-126898475D02*
X162504807Y-126936571D01*
X162504807Y-126936571D02*
X162466712Y-126898475D01*
X162466712Y-126898475D02*
X162428617Y-126822285D01*
X162428617Y-126822285D02*
X162428617Y-126631809D01*
X162428617Y-126631809D02*
X162466712Y-126555618D01*
X162466712Y-126555618D02*
X162504807Y-126517523D01*
X162504807Y-126517523D02*
X162580998Y-126479428D01*
X162580998Y-126479428D02*
X162771474Y-126479428D01*
X162771474Y-126479428D02*
X162847664Y-126517523D01*
X162847664Y-126517523D02*
X162885760Y-126555618D01*
X162885760Y-126555618D02*
X162923855Y-126631809D01*
X162923855Y-126631809D02*
X162923855Y-126822285D01*
X162923855Y-126822285D02*
X162885760Y-126898475D01*
X162885760Y-126898475D02*
X162847664Y-126936571D01*
D12*
X157199149Y-95317428D02*
X156961054Y-95484094D01*
X157199149Y-95603142D02*
X156699149Y-95603142D01*
X156699149Y-95603142D02*
X156699149Y-95412666D01*
X156699149Y-95412666D02*
X156722959Y-95365047D01*
X156722959Y-95365047D02*
X156746768Y-95341237D01*
X156746768Y-95341237D02*
X156794387Y-95317428D01*
X156794387Y-95317428D02*
X156865816Y-95317428D01*
X156865816Y-95317428D02*
X156913435Y-95341237D01*
X156913435Y-95341237D02*
X156937244Y-95365047D01*
X156937244Y-95365047D02*
X156961054Y-95412666D01*
X156961054Y-95412666D02*
X156961054Y-95603142D01*
X157199149Y-94841237D02*
X157199149Y-95126951D01*
X157199149Y-94984094D02*
X156699149Y-94984094D01*
X156699149Y-94984094D02*
X156770578Y-95031713D01*
X156770578Y-95031713D02*
X156818197Y-95079332D01*
X156818197Y-95079332D02*
X156842006Y-95126951D01*
X157199149Y-94603142D02*
X157199149Y-94507904D01*
X157199149Y-94507904D02*
X157175340Y-94460285D01*
X157175340Y-94460285D02*
X157151530Y-94436476D01*
X157151530Y-94436476D02*
X157080101Y-94388857D01*
X157080101Y-94388857D02*
X156984863Y-94365047D01*
X156984863Y-94365047D02*
X156794387Y-94365047D01*
X156794387Y-94365047D02*
X156746768Y-94388857D01*
X156746768Y-94388857D02*
X156722959Y-94412666D01*
X156722959Y-94412666D02*
X156699149Y-94460285D01*
X156699149Y-94460285D02*
X156699149Y-94555523D01*
X156699149Y-94555523D02*
X156722959Y-94603142D01*
X156722959Y-94603142D02*
X156746768Y-94626952D01*
X156746768Y-94626952D02*
X156794387Y-94650761D01*
X156794387Y-94650761D02*
X156913435Y-94650761D01*
X156913435Y-94650761D02*
X156961054Y-94626952D01*
X156961054Y-94626952D02*
X156984863Y-94603142D01*
X156984863Y-94603142D02*
X157008673Y-94555523D01*
X157008673Y-94555523D02*
X157008673Y-94460285D01*
X157008673Y-94460285D02*
X156984863Y-94412666D01*
X156984863Y-94412666D02*
X156961054Y-94388857D01*
X156961054Y-94388857D02*
X156913435Y-94365047D01*
D10*
X174213545Y-127965142D02*
X174175450Y-128041332D01*
X174175450Y-128041332D02*
X174099260Y-128117523D01*
X174099260Y-128117523D02*
X173984974Y-128231809D01*
X173984974Y-128231809D02*
X173946879Y-128307999D01*
X173946879Y-128307999D02*
X173946879Y-128384190D01*
X174137355Y-128346094D02*
X174099260Y-128422285D01*
X174099260Y-128422285D02*
X174023069Y-128498475D01*
X174023069Y-128498475D02*
X173870688Y-128536571D01*
X173870688Y-128536571D02*
X173604021Y-128536571D01*
X173604021Y-128536571D02*
X173451640Y-128498475D01*
X173451640Y-128498475D02*
X173375450Y-128422285D01*
X173375450Y-128422285D02*
X173337355Y-128346094D01*
X173337355Y-128346094D02*
X173337355Y-128193713D01*
X173337355Y-128193713D02*
X173375450Y-128117523D01*
X173375450Y-128117523D02*
X173451640Y-128041332D01*
X173451640Y-128041332D02*
X173604021Y-128003237D01*
X173604021Y-128003237D02*
X173870688Y-128003237D01*
X173870688Y-128003237D02*
X174023069Y-128041332D01*
X174023069Y-128041332D02*
X174099260Y-128117523D01*
X174099260Y-128117523D02*
X174137355Y-128193713D01*
X174137355Y-128193713D02*
X174137355Y-128346094D01*
X173413545Y-127698476D02*
X173375450Y-127660380D01*
X173375450Y-127660380D02*
X173337355Y-127584190D01*
X173337355Y-127584190D02*
X173337355Y-127393714D01*
X173337355Y-127393714D02*
X173375450Y-127317523D01*
X173375450Y-127317523D02*
X173413545Y-127279428D01*
X173413545Y-127279428D02*
X173489736Y-127241333D01*
X173489736Y-127241333D02*
X173565926Y-127241333D01*
X173565926Y-127241333D02*
X173680212Y-127279428D01*
X173680212Y-127279428D02*
X174137355Y-127736571D01*
X174137355Y-127736571D02*
X174137355Y-127241333D01*
X173337355Y-126974666D02*
X173337355Y-126479428D01*
X173337355Y-126479428D02*
X173642117Y-126746094D01*
X173642117Y-126746094D02*
X173642117Y-126631809D01*
X173642117Y-126631809D02*
X173680212Y-126555618D01*
X173680212Y-126555618D02*
X173718307Y-126517523D01*
X173718307Y-126517523D02*
X173794498Y-126479428D01*
X173794498Y-126479428D02*
X173984974Y-126479428D01*
X173984974Y-126479428D02*
X174061164Y-126517523D01*
X174061164Y-126517523D02*
X174099260Y-126555618D01*
X174099260Y-126555618D02*
X174137355Y-126631809D01*
X174137355Y-126631809D02*
X174137355Y-126860380D01*
X174137355Y-126860380D02*
X174099260Y-126936571D01*
X174099260Y-126936571D02*
X174061164Y-126974666D01*
X151824045Y-112344190D02*
X151785950Y-112420380D01*
X151785950Y-112420380D02*
X151709760Y-112496571D01*
X151709760Y-112496571D02*
X151595474Y-112610857D01*
X151595474Y-112610857D02*
X151557379Y-112687047D01*
X151557379Y-112687047D02*
X151557379Y-112763238D01*
X151747855Y-112725142D02*
X151709760Y-112801333D01*
X151709760Y-112801333D02*
X151633569Y-112877523D01*
X151633569Y-112877523D02*
X151481188Y-112915619D01*
X151481188Y-112915619D02*
X151214521Y-112915619D01*
X151214521Y-112915619D02*
X151062140Y-112877523D01*
X151062140Y-112877523D02*
X150985950Y-112801333D01*
X150985950Y-112801333D02*
X150947855Y-112725142D01*
X150947855Y-112725142D02*
X150947855Y-112572761D01*
X150947855Y-112572761D02*
X150985950Y-112496571D01*
X150985950Y-112496571D02*
X151062140Y-112420380D01*
X151062140Y-112420380D02*
X151214521Y-112382285D01*
X151214521Y-112382285D02*
X151481188Y-112382285D01*
X151481188Y-112382285D02*
X151633569Y-112420380D01*
X151633569Y-112420380D02*
X151709760Y-112496571D01*
X151709760Y-112496571D02*
X151747855Y-112572761D01*
X151747855Y-112572761D02*
X151747855Y-112725142D01*
X150947855Y-111658476D02*
X150947855Y-112039428D01*
X150947855Y-112039428D02*
X151328807Y-112077524D01*
X151328807Y-112077524D02*
X151290712Y-112039428D01*
X151290712Y-112039428D02*
X151252617Y-111963238D01*
X151252617Y-111963238D02*
X151252617Y-111772762D01*
X151252617Y-111772762D02*
X151290712Y-111696571D01*
X151290712Y-111696571D02*
X151328807Y-111658476D01*
X151328807Y-111658476D02*
X151404998Y-111620381D01*
X151404998Y-111620381D02*
X151595474Y-111620381D01*
X151595474Y-111620381D02*
X151671664Y-111658476D01*
X151671664Y-111658476D02*
X151709760Y-111696571D01*
X151709760Y-111696571D02*
X151747855Y-111772762D01*
X151747855Y-111772762D02*
X151747855Y-111963238D01*
X151747855Y-111963238D02*
X151709760Y-112039428D01*
X151709760Y-112039428D02*
X151671664Y-112077524D01*
D12*
X168375149Y-133417428D02*
X168137054Y-133584094D01*
X168375149Y-133703142D02*
X167875149Y-133703142D01*
X167875149Y-133703142D02*
X167875149Y-133512666D01*
X167875149Y-133512666D02*
X167898959Y-133465047D01*
X167898959Y-133465047D02*
X167922768Y-133441237D01*
X167922768Y-133441237D02*
X167970387Y-133417428D01*
X167970387Y-133417428D02*
X168041816Y-133417428D01*
X168041816Y-133417428D02*
X168089435Y-133441237D01*
X168089435Y-133441237D02*
X168113244Y-133465047D01*
X168113244Y-133465047D02*
X168137054Y-133512666D01*
X168137054Y-133512666D02*
X168137054Y-133703142D01*
X168041816Y-132988856D02*
X168375149Y-132988856D01*
X167851340Y-133107904D02*
X168208482Y-133226951D01*
X168208482Y-133226951D02*
X168208482Y-132917428D01*
X167875149Y-132488857D02*
X167875149Y-132726952D01*
X167875149Y-132726952D02*
X168113244Y-132750761D01*
X168113244Y-132750761D02*
X168089435Y-132726952D01*
X168089435Y-132726952D02*
X168065625Y-132679333D01*
X168065625Y-132679333D02*
X168065625Y-132560285D01*
X168065625Y-132560285D02*
X168089435Y-132512666D01*
X168089435Y-132512666D02*
X168113244Y-132488857D01*
X168113244Y-132488857D02*
X168160863Y-132465047D01*
X168160863Y-132465047D02*
X168279911Y-132465047D01*
X168279911Y-132465047D02*
X168327530Y-132488857D01*
X168327530Y-132488857D02*
X168351340Y-132512666D01*
X168351340Y-132512666D02*
X168375149Y-132560285D01*
X168375149Y-132560285D02*
X168375149Y-132679333D01*
X168375149Y-132679333D02*
X168351340Y-132726952D01*
X168351340Y-132726952D02*
X168327530Y-132750761D01*
D10*
X120175664Y-124593332D02*
X120213760Y-124631428D01*
X120213760Y-124631428D02*
X120251855Y-124745713D01*
X120251855Y-124745713D02*
X120251855Y-124821904D01*
X120251855Y-124821904D02*
X120213760Y-124936190D01*
X120213760Y-124936190D02*
X120137569Y-125012380D01*
X120137569Y-125012380D02*
X120061379Y-125050475D01*
X120061379Y-125050475D02*
X119908998Y-125088571D01*
X119908998Y-125088571D02*
X119794712Y-125088571D01*
X119794712Y-125088571D02*
X119642331Y-125050475D01*
X119642331Y-125050475D02*
X119566140Y-125012380D01*
X119566140Y-125012380D02*
X119489950Y-124936190D01*
X119489950Y-124936190D02*
X119451855Y-124821904D01*
X119451855Y-124821904D02*
X119451855Y-124745713D01*
X119451855Y-124745713D02*
X119489950Y-124631428D01*
X119489950Y-124631428D02*
X119528045Y-124593332D01*
X119528045Y-124288571D02*
X119489950Y-124250475D01*
X119489950Y-124250475D02*
X119451855Y-124174285D01*
X119451855Y-124174285D02*
X119451855Y-123983809D01*
X119451855Y-123983809D02*
X119489950Y-123907618D01*
X119489950Y-123907618D02*
X119528045Y-123869523D01*
X119528045Y-123869523D02*
X119604236Y-123831428D01*
X119604236Y-123831428D02*
X119680426Y-123831428D01*
X119680426Y-123831428D02*
X119794712Y-123869523D01*
X119794712Y-123869523D02*
X120251855Y-124326666D01*
X120251855Y-124326666D02*
X120251855Y-123831428D01*
X163000045Y-105105142D02*
X162961950Y-105181332D01*
X162961950Y-105181332D02*
X162885760Y-105257523D01*
X162885760Y-105257523D02*
X162771474Y-105371809D01*
X162771474Y-105371809D02*
X162733379Y-105447999D01*
X162733379Y-105447999D02*
X162733379Y-105524190D01*
X162923855Y-105486094D02*
X162885760Y-105562285D01*
X162885760Y-105562285D02*
X162809569Y-105638475D01*
X162809569Y-105638475D02*
X162657188Y-105676571D01*
X162657188Y-105676571D02*
X162390521Y-105676571D01*
X162390521Y-105676571D02*
X162238140Y-105638475D01*
X162238140Y-105638475D02*
X162161950Y-105562285D01*
X162161950Y-105562285D02*
X162123855Y-105486094D01*
X162123855Y-105486094D02*
X162123855Y-105333713D01*
X162123855Y-105333713D02*
X162161950Y-105257523D01*
X162161950Y-105257523D02*
X162238140Y-105181332D01*
X162238140Y-105181332D02*
X162390521Y-105143237D01*
X162390521Y-105143237D02*
X162657188Y-105143237D01*
X162657188Y-105143237D02*
X162809569Y-105181332D01*
X162809569Y-105181332D02*
X162885760Y-105257523D01*
X162885760Y-105257523D02*
X162923855Y-105333713D01*
X162923855Y-105333713D02*
X162923855Y-105486094D01*
X162923855Y-104381333D02*
X162923855Y-104838476D01*
X162923855Y-104609904D02*
X162123855Y-104609904D01*
X162123855Y-104609904D02*
X162238140Y-104686095D01*
X162238140Y-104686095D02*
X162314331Y-104762285D01*
X162314331Y-104762285D02*
X162352426Y-104838476D01*
X162200045Y-104076571D02*
X162161950Y-104038475D01*
X162161950Y-104038475D02*
X162123855Y-103962285D01*
X162123855Y-103962285D02*
X162123855Y-103771809D01*
X162123855Y-103771809D02*
X162161950Y-103695618D01*
X162161950Y-103695618D02*
X162200045Y-103657523D01*
X162200045Y-103657523D02*
X162276236Y-103619428D01*
X162276236Y-103619428D02*
X162352426Y-103619428D01*
X162352426Y-103619428D02*
X162466712Y-103657523D01*
X162466712Y-103657523D02*
X162923855Y-104114666D01*
X162923855Y-104114666D02*
X162923855Y-103619428D01*
X174176045Y-135585142D02*
X174137950Y-135661332D01*
X174137950Y-135661332D02*
X174061760Y-135737523D01*
X174061760Y-135737523D02*
X173947474Y-135851809D01*
X173947474Y-135851809D02*
X173909379Y-135927999D01*
X173909379Y-135927999D02*
X173909379Y-136004190D01*
X174099855Y-135966094D02*
X174061760Y-136042285D01*
X174061760Y-136042285D02*
X173985569Y-136118475D01*
X173985569Y-136118475D02*
X173833188Y-136156571D01*
X173833188Y-136156571D02*
X173566521Y-136156571D01*
X173566521Y-136156571D02*
X173414140Y-136118475D01*
X173414140Y-136118475D02*
X173337950Y-136042285D01*
X173337950Y-136042285D02*
X173299855Y-135966094D01*
X173299855Y-135966094D02*
X173299855Y-135813713D01*
X173299855Y-135813713D02*
X173337950Y-135737523D01*
X173337950Y-135737523D02*
X173414140Y-135661332D01*
X173414140Y-135661332D02*
X173566521Y-135623237D01*
X173566521Y-135623237D02*
X173833188Y-135623237D01*
X173833188Y-135623237D02*
X173985569Y-135661332D01*
X173985569Y-135661332D02*
X174061760Y-135737523D01*
X174061760Y-135737523D02*
X174099855Y-135813713D01*
X174099855Y-135813713D02*
X174099855Y-135966094D01*
X173376045Y-135318476D02*
X173337950Y-135280380D01*
X173337950Y-135280380D02*
X173299855Y-135204190D01*
X173299855Y-135204190D02*
X173299855Y-135013714D01*
X173299855Y-135013714D02*
X173337950Y-134937523D01*
X173337950Y-134937523D02*
X173376045Y-134899428D01*
X173376045Y-134899428D02*
X173452236Y-134861333D01*
X173452236Y-134861333D02*
X173528426Y-134861333D01*
X173528426Y-134861333D02*
X173642712Y-134899428D01*
X173642712Y-134899428D02*
X174099855Y-135356571D01*
X174099855Y-135356571D02*
X174099855Y-134861333D01*
X173566521Y-134175618D02*
X174099855Y-134175618D01*
X173261760Y-134366094D02*
X173833188Y-134556571D01*
X173833188Y-134556571D02*
X173833188Y-134061332D01*
D12*
X171890571Y-74903149D02*
X171723905Y-74665054D01*
X171604857Y-74903149D02*
X171604857Y-74403149D01*
X171604857Y-74403149D02*
X171795333Y-74403149D01*
X171795333Y-74403149D02*
X171842952Y-74426959D01*
X171842952Y-74426959D02*
X171866762Y-74450768D01*
X171866762Y-74450768D02*
X171890571Y-74498387D01*
X171890571Y-74498387D02*
X171890571Y-74569816D01*
X171890571Y-74569816D02*
X171866762Y-74617435D01*
X171866762Y-74617435D02*
X171842952Y-74641244D01*
X171842952Y-74641244D02*
X171795333Y-74665054D01*
X171795333Y-74665054D02*
X171604857Y-74665054D01*
X172319143Y-74569816D02*
X172319143Y-74903149D01*
X172200095Y-74379340D02*
X172081048Y-74736482D01*
X172081048Y-74736482D02*
X172390571Y-74736482D01*
X172604857Y-74903149D02*
X172700095Y-74903149D01*
X172700095Y-74903149D02*
X172747714Y-74879340D01*
X172747714Y-74879340D02*
X172771523Y-74855530D01*
X172771523Y-74855530D02*
X172819142Y-74784101D01*
X172819142Y-74784101D02*
X172842952Y-74688863D01*
X172842952Y-74688863D02*
X172842952Y-74498387D01*
X172842952Y-74498387D02*
X172819142Y-74450768D01*
X172819142Y-74450768D02*
X172795333Y-74426959D01*
X172795333Y-74426959D02*
X172747714Y-74403149D01*
X172747714Y-74403149D02*
X172652476Y-74403149D01*
X172652476Y-74403149D02*
X172604857Y-74426959D01*
X172604857Y-74426959D02*
X172581047Y-74450768D01*
X172581047Y-74450768D02*
X172557238Y-74498387D01*
X172557238Y-74498387D02*
X172557238Y-74617435D01*
X172557238Y-74617435D02*
X172581047Y-74665054D01*
X172581047Y-74665054D02*
X172604857Y-74688863D01*
X172604857Y-74688863D02*
X172652476Y-74712673D01*
X172652476Y-74712673D02*
X172747714Y-74712673D01*
X172747714Y-74712673D02*
X172795333Y-74688863D01*
X172795333Y-74688863D02*
X172819142Y-74665054D01*
X172819142Y-74665054D02*
X172842952Y-74617435D01*
X168375149Y-106493428D02*
X168137054Y-106660094D01*
X168375149Y-106779142D02*
X167875149Y-106779142D01*
X167875149Y-106779142D02*
X167875149Y-106588666D01*
X167875149Y-106588666D02*
X167898959Y-106541047D01*
X167898959Y-106541047D02*
X167922768Y-106517237D01*
X167922768Y-106517237D02*
X167970387Y-106493428D01*
X167970387Y-106493428D02*
X168041816Y-106493428D01*
X168041816Y-106493428D02*
X168089435Y-106517237D01*
X168089435Y-106517237D02*
X168113244Y-106541047D01*
X168113244Y-106541047D02*
X168137054Y-106588666D01*
X168137054Y-106588666D02*
X168137054Y-106779142D01*
X167875149Y-106326761D02*
X167875149Y-106017237D01*
X167875149Y-106017237D02*
X168065625Y-106183904D01*
X168065625Y-106183904D02*
X168065625Y-106112475D01*
X168065625Y-106112475D02*
X168089435Y-106064856D01*
X168089435Y-106064856D02*
X168113244Y-106041047D01*
X168113244Y-106041047D02*
X168160863Y-106017237D01*
X168160863Y-106017237D02*
X168279911Y-106017237D01*
X168279911Y-106017237D02*
X168327530Y-106041047D01*
X168327530Y-106041047D02*
X168351340Y-106064856D01*
X168351340Y-106064856D02*
X168375149Y-106112475D01*
X168375149Y-106112475D02*
X168375149Y-106255332D01*
X168375149Y-106255332D02*
X168351340Y-106302951D01*
X168351340Y-106302951D02*
X168327530Y-106326761D01*
X168089435Y-105731523D02*
X168065625Y-105779142D01*
X168065625Y-105779142D02*
X168041816Y-105802952D01*
X168041816Y-105802952D02*
X167994197Y-105826761D01*
X167994197Y-105826761D02*
X167970387Y-105826761D01*
X167970387Y-105826761D02*
X167922768Y-105802952D01*
X167922768Y-105802952D02*
X167898959Y-105779142D01*
X167898959Y-105779142D02*
X167875149Y-105731523D01*
X167875149Y-105731523D02*
X167875149Y-105636285D01*
X167875149Y-105636285D02*
X167898959Y-105588666D01*
X167898959Y-105588666D02*
X167922768Y-105564857D01*
X167922768Y-105564857D02*
X167970387Y-105541047D01*
X167970387Y-105541047D02*
X167994197Y-105541047D01*
X167994197Y-105541047D02*
X168041816Y-105564857D01*
X168041816Y-105564857D02*
X168065625Y-105588666D01*
X168065625Y-105588666D02*
X168089435Y-105636285D01*
X168089435Y-105636285D02*
X168089435Y-105731523D01*
X168089435Y-105731523D02*
X168113244Y-105779142D01*
X168113244Y-105779142D02*
X168137054Y-105802952D01*
X168137054Y-105802952D02*
X168184673Y-105826761D01*
X168184673Y-105826761D02*
X168279911Y-105826761D01*
X168279911Y-105826761D02*
X168327530Y-105802952D01*
X168327530Y-105802952D02*
X168351340Y-105779142D01*
X168351340Y-105779142D02*
X168375149Y-105731523D01*
X168375149Y-105731523D02*
X168375149Y-105636285D01*
X168375149Y-105636285D02*
X168351340Y-105588666D01*
X168351340Y-105588666D02*
X168327530Y-105564857D01*
X168327530Y-105564857D02*
X168279911Y-105541047D01*
X168279911Y-105541047D02*
X168184673Y-105541047D01*
X168184673Y-105541047D02*
X168137054Y-105564857D01*
X168137054Y-105564857D02*
X168113244Y-105588666D01*
X168113244Y-105588666D02*
X168089435Y-105636285D01*
X157236649Y-80039928D02*
X156998554Y-80206594D01*
X157236649Y-80325642D02*
X156736649Y-80325642D01*
X156736649Y-80325642D02*
X156736649Y-80135166D01*
X156736649Y-80135166D02*
X156760459Y-80087547D01*
X156760459Y-80087547D02*
X156784268Y-80063737D01*
X156784268Y-80063737D02*
X156831887Y-80039928D01*
X156831887Y-80039928D02*
X156903316Y-80039928D01*
X156903316Y-80039928D02*
X156950935Y-80063737D01*
X156950935Y-80063737D02*
X156974744Y-80087547D01*
X156974744Y-80087547D02*
X156998554Y-80135166D01*
X156998554Y-80135166D02*
X156998554Y-80325642D01*
X157236649Y-79563737D02*
X157236649Y-79849451D01*
X157236649Y-79706594D02*
X156736649Y-79706594D01*
X156736649Y-79706594D02*
X156808078Y-79754213D01*
X156808078Y-79754213D02*
X156855697Y-79801832D01*
X156855697Y-79801832D02*
X156879506Y-79849451D01*
X156736649Y-79111357D02*
X156736649Y-79349452D01*
X156736649Y-79349452D02*
X156974744Y-79373261D01*
X156974744Y-79373261D02*
X156950935Y-79349452D01*
X156950935Y-79349452D02*
X156927125Y-79301833D01*
X156927125Y-79301833D02*
X156927125Y-79182785D01*
X156927125Y-79182785D02*
X156950935Y-79135166D01*
X156950935Y-79135166D02*
X156974744Y-79111357D01*
X156974744Y-79111357D02*
X157022363Y-79087547D01*
X157022363Y-79087547D02*
X157141411Y-79087547D01*
X157141411Y-79087547D02*
X157189030Y-79111357D01*
X157189030Y-79111357D02*
X157212840Y-79135166D01*
X157212840Y-79135166D02*
X157236649Y-79182785D01*
X157236649Y-79182785D02*
X157236649Y-79301833D01*
X157236649Y-79301833D02*
X157212840Y-79349452D01*
X157212840Y-79349452D02*
X157189030Y-79373261D01*
X157199149Y-106493428D02*
X156961054Y-106660094D01*
X157199149Y-106779142D02*
X156699149Y-106779142D01*
X156699149Y-106779142D02*
X156699149Y-106588666D01*
X156699149Y-106588666D02*
X156722959Y-106541047D01*
X156722959Y-106541047D02*
X156746768Y-106517237D01*
X156746768Y-106517237D02*
X156794387Y-106493428D01*
X156794387Y-106493428D02*
X156865816Y-106493428D01*
X156865816Y-106493428D02*
X156913435Y-106517237D01*
X156913435Y-106517237D02*
X156937244Y-106541047D01*
X156937244Y-106541047D02*
X156961054Y-106588666D01*
X156961054Y-106588666D02*
X156961054Y-106779142D01*
X156746768Y-106302951D02*
X156722959Y-106279142D01*
X156722959Y-106279142D02*
X156699149Y-106231523D01*
X156699149Y-106231523D02*
X156699149Y-106112475D01*
X156699149Y-106112475D02*
X156722959Y-106064856D01*
X156722959Y-106064856D02*
X156746768Y-106041047D01*
X156746768Y-106041047D02*
X156794387Y-106017237D01*
X156794387Y-106017237D02*
X156842006Y-106017237D01*
X156842006Y-106017237D02*
X156913435Y-106041047D01*
X156913435Y-106041047D02*
X157199149Y-106326761D01*
X157199149Y-106326761D02*
X157199149Y-106017237D01*
X156746768Y-105826761D02*
X156722959Y-105802952D01*
X156722959Y-105802952D02*
X156699149Y-105755333D01*
X156699149Y-105755333D02*
X156699149Y-105636285D01*
X156699149Y-105636285D02*
X156722959Y-105588666D01*
X156722959Y-105588666D02*
X156746768Y-105564857D01*
X156746768Y-105564857D02*
X156794387Y-105541047D01*
X156794387Y-105541047D02*
X156842006Y-105541047D01*
X156842006Y-105541047D02*
X156913435Y-105564857D01*
X156913435Y-105564857D02*
X157199149Y-105850571D01*
X157199149Y-105850571D02*
X157199149Y-105541047D01*
D14*
%TO.C,C16*%
X140779600Y-101930400D02*
X142379600Y-101930400D01*
X140779600Y-105130400D02*
X140779600Y-101930400D01*
X142379600Y-101930400D02*
X142379600Y-105130400D01*
X142379600Y-105130400D02*
X140779600Y-105130400D01*
%TO.C,C15*%
X137084000Y-98768000D02*
X140284000Y-98768000D01*
X137084000Y-100368000D02*
X137084000Y-98768000D01*
X140284000Y-98768000D02*
X140284000Y-100368000D01*
X140284000Y-100368000D02*
X137084000Y-100368000D01*
%TO.C,U1*%
X114614000Y-90084000D02*
X115614000Y-89084000D01*
X114614000Y-99384000D02*
X114614000Y-90084000D01*
X115614000Y-89084000D02*
X122114000Y-89084000D01*
X122114000Y-89084000D02*
X122114000Y-99384000D01*
X122114000Y-99384000D02*
X114614000Y-99384000D01*
%TO.C,Q11*%
X160710000Y-94678000D02*
X160710000Y-100378000D01*
X160710000Y-94678000D02*
X161710000Y-93678000D01*
X160710000Y-100378000D02*
X164410000Y-100378000D01*
X161710000Y-93678000D02*
X164410000Y-93678000D01*
X164410000Y-93678000D02*
X164410000Y-100378000D01*
%TO.C,Q1*%
X149534000Y-79400500D02*
X149534000Y-85100500D01*
X149534000Y-79400500D02*
X150534000Y-78400500D01*
X149534000Y-85100500D02*
X153234000Y-85100500D01*
X150534000Y-78400500D02*
X153234000Y-78400500D01*
X153234000Y-78400500D02*
X153234000Y-85100500D01*
%TO.C,R24*%
X156347000Y-112792000D02*
X157597000Y-112792000D01*
X156347000Y-114792000D02*
X156347000Y-112792000D01*
X157597000Y-112792000D02*
X157597000Y-114792000D01*
X157597000Y-114792000D02*
X156347000Y-114792000D01*
%TO.C,Q21*%
X171886000Y-109918000D02*
X171886000Y-115618000D01*
X171886000Y-109918000D02*
X172886000Y-108918000D01*
X171886000Y-115618000D02*
X175586000Y-115618000D01*
X172886000Y-108918000D02*
X175586000Y-108918000D01*
X175586000Y-108918000D02*
X175586000Y-115618000D01*
%TO.C,C4*%
X119151600Y-59652000D02*
X122351600Y-59652000D01*
X119151600Y-61252000D02*
X119151600Y-59652000D01*
X122351600Y-59652000D02*
X122351600Y-61252000D01*
X122351600Y-61252000D02*
X119151600Y-61252000D01*
%TO.C,R29*%
X156347000Y-132096000D02*
X157597000Y-132096000D01*
X156347000Y-134096000D02*
X156347000Y-132096000D01*
X157597000Y-132096000D02*
X157597000Y-134096000D01*
X157597000Y-134096000D02*
X156347000Y-134096000D01*
%TO.C,R28*%
X156347000Y-128032000D02*
X157597000Y-128032000D01*
X156347000Y-130032000D02*
X156347000Y-128032000D01*
X157597000Y-128032000D02*
X157597000Y-130032000D01*
X157597000Y-130032000D02*
X156347000Y-130032000D01*
%TO.C,J1*%
X102572000Y-82230000D02*
X102572000Y-82870000D01*
X102572000Y-82870000D02*
X103632000Y-82870000D01*
X102572000Y-84770000D02*
X102572000Y-85410000D01*
X102572000Y-85410000D02*
X103632000Y-85410000D01*
X102572000Y-87310000D02*
X102572000Y-87950000D01*
X102572000Y-87950000D02*
X103632000Y-87950000D01*
X102572000Y-89850000D02*
X102572000Y-90490000D01*
X102572000Y-90490000D02*
X103632000Y-90490000D01*
X102572000Y-92390000D02*
X102572000Y-93030000D01*
X102572000Y-93030000D02*
X103632000Y-93030000D01*
X102572000Y-94930000D02*
X102572000Y-95570000D01*
X102572000Y-95570000D02*
X103632000Y-95570000D01*
X102572000Y-97470000D02*
X102572000Y-98110000D01*
X102572000Y-98110000D02*
X103632000Y-98110000D01*
X102572000Y-100010000D02*
X102572000Y-100650000D01*
X102572000Y-100650000D02*
X103632000Y-100650000D01*
X102572000Y-102550000D02*
X102572000Y-103190000D01*
X102572000Y-103190000D02*
X103632000Y-103190000D01*
X102572000Y-105090000D02*
X102572000Y-105730000D01*
X102572000Y-105730000D02*
X103632000Y-105730000D01*
X102572000Y-107630000D02*
X102572000Y-108270000D01*
X102572000Y-108270000D02*
X103632000Y-108270000D01*
X102572000Y-110170000D02*
X102572000Y-110810000D01*
X102572000Y-110810000D02*
X103632000Y-110810000D01*
X102572000Y-112710000D02*
X102572000Y-113350000D01*
X102572000Y-113350000D02*
X103632000Y-113350000D01*
X102572000Y-115250000D02*
X102572000Y-115890000D01*
X102572000Y-115890000D02*
X103632000Y-115890000D01*
X103632000Y-82230000D02*
X102572000Y-82230000D01*
X103632000Y-82230000D02*
X104582000Y-81280000D01*
X103632000Y-84770000D02*
X102572000Y-84770000D01*
X103632000Y-87310000D02*
X102572000Y-87310000D01*
X103632000Y-89850000D02*
X102572000Y-89850000D01*
X103632000Y-92390000D02*
X102572000Y-92390000D01*
X103632000Y-94930000D02*
X102572000Y-94930000D01*
X103632000Y-97470000D02*
X102572000Y-97470000D01*
X103632000Y-100010000D02*
X102572000Y-100010000D01*
X103632000Y-102550000D02*
X102572000Y-102550000D01*
X103632000Y-105090000D02*
X102572000Y-105090000D01*
X103632000Y-107630000D02*
X102572000Y-107630000D01*
X103632000Y-110170000D02*
X102572000Y-110170000D01*
X103632000Y-112710000D02*
X102572000Y-112710000D01*
X103632000Y-115250000D02*
X102572000Y-115250000D01*
X103632000Y-116840000D02*
X103632000Y-82230000D01*
X104582000Y-81280000D02*
X108712000Y-81280000D01*
X108712000Y-81280000D02*
X108712000Y-116840000D01*
X108712000Y-82230000D02*
X109772000Y-82230000D01*
X108712000Y-84770000D02*
X109772000Y-84770000D01*
X108712000Y-87310000D02*
X109772000Y-87310000D01*
X108712000Y-89850000D02*
X109772000Y-89850000D01*
X108712000Y-92390000D02*
X109772000Y-92390000D01*
X108712000Y-94930000D02*
X109772000Y-94930000D01*
X108712000Y-97470000D02*
X109772000Y-97470000D01*
X108712000Y-100010000D02*
X109772000Y-100010000D01*
X108712000Y-102550000D02*
X109772000Y-102550000D01*
X108712000Y-105090000D02*
X109772000Y-105090000D01*
X108712000Y-107630000D02*
X109772000Y-107630000D01*
X108712000Y-110170000D02*
X109772000Y-110170000D01*
X108712000Y-112710000D02*
X109772000Y-112710000D01*
X108712000Y-115250000D02*
X109772000Y-115250000D01*
X108712000Y-116840000D02*
X103632000Y-116840000D01*
X109772000Y-82230000D02*
X109772000Y-82870000D01*
X109772000Y-82870000D02*
X108712000Y-82870000D01*
X109772000Y-84770000D02*
X109772000Y-85410000D01*
X109772000Y-85410000D02*
X108712000Y-85410000D01*
X109772000Y-87310000D02*
X109772000Y-87950000D01*
X109772000Y-87950000D02*
X108712000Y-87950000D01*
X109772000Y-89850000D02*
X109772000Y-90490000D01*
X109772000Y-90490000D02*
X108712000Y-90490000D01*
X109772000Y-92390000D02*
X109772000Y-93030000D01*
X109772000Y-93030000D02*
X108712000Y-93030000D01*
X109772000Y-94930000D02*
X109772000Y-95570000D01*
X109772000Y-95570000D02*
X108712000Y-95570000D01*
X109772000Y-97470000D02*
X109772000Y-98110000D01*
X109772000Y-98110000D02*
X108712000Y-98110000D01*
X109772000Y-100010000D02*
X109772000Y-100650000D01*
X109772000Y-100650000D02*
X108712000Y-100650000D01*
X109772000Y-102550000D02*
X109772000Y-103190000D01*
X109772000Y-103190000D02*
X108712000Y-103190000D01*
X109772000Y-105090000D02*
X109772000Y-105730000D01*
X109772000Y-105730000D02*
X108712000Y-105730000D01*
X109772000Y-107630000D02*
X109772000Y-108270000D01*
X109772000Y-108270000D02*
X108712000Y-108270000D01*
X109772000Y-110170000D02*
X109772000Y-110810000D01*
X109772000Y-110810000D02*
X108712000Y-110810000D01*
X109772000Y-112710000D02*
X109772000Y-113350000D01*
X109772000Y-113350000D02*
X108712000Y-113350000D01*
X109772000Y-115250000D02*
X109772000Y-115890000D01*
X109772000Y-115890000D02*
X108712000Y-115890000D01*
%TO.C,C6*%
X126962000Y-108636000D02*
X128562000Y-108636000D01*
X126962000Y-111836000D02*
X126962000Y-108636000D01*
X128562000Y-108636000D02*
X128562000Y-111836000D01*
X128562000Y-111836000D02*
X126962000Y-111836000D01*
%TO.C,R3*%
X129556000Y-123835000D02*
X131556000Y-123835000D01*
X129556000Y-125085000D02*
X129556000Y-123835000D01*
X131556000Y-123835000D02*
X131556000Y-125085000D01*
X131556000Y-125085000D02*
X129556000Y-125085000D01*
%TO.C,R13*%
X149743000Y-71390000D02*
X150993000Y-71390000D01*
X149743000Y-73390000D02*
X149743000Y-71390000D01*
X150993000Y-71390000D02*
X150993000Y-73390000D01*
X150993000Y-73390000D02*
X149743000Y-73390000D01*
%TO.C,Q7*%
X149534000Y-125158000D02*
X149534000Y-130858000D01*
X149534000Y-125158000D02*
X150534000Y-124158000D01*
X149534000Y-130858000D02*
X153234000Y-130858000D01*
X150534000Y-124158000D02*
X153234000Y-124158000D01*
X153234000Y-124158000D02*
X153234000Y-130858000D01*
%TO.C,J2*%
X128758000Y-126614000D02*
X143038000Y-126614000D01*
X128758000Y-135514000D02*
X128758000Y-126614000D01*
X129948000Y-127814000D02*
X134348000Y-127814000D01*
X129948000Y-134314000D02*
X129948000Y-127814000D01*
X134348000Y-127814000D02*
X134348000Y-126614000D01*
X134348000Y-127814000D02*
X134348000Y-127814000D01*
X138448000Y-126614000D02*
X138448000Y-127814000D01*
X138448000Y-127814000D02*
X142848000Y-127814000D01*
X142848000Y-127814000D02*
X142848000Y-134314000D01*
X142848000Y-134314000D02*
X129948000Y-134314000D01*
X143038000Y-126614000D02*
X144038000Y-127614000D01*
X144038000Y-127614000D02*
X144038000Y-135514000D01*
X144038000Y-135514000D02*
X128758000Y-135514000D01*
%TO.C,Q18*%
X171886000Y-87058000D02*
X171886000Y-92758000D01*
X171886000Y-87058000D02*
X172886000Y-86058000D01*
X171886000Y-92758000D02*
X175586000Y-92758000D01*
X172886000Y-86058000D02*
X175586000Y-86058000D01*
X175586000Y-86058000D02*
X175586000Y-92758000D01*
%TO.C,Q8*%
X149534000Y-132778000D02*
X149534000Y-138478000D01*
X149534000Y-132778000D02*
X150534000Y-131778000D01*
X149534000Y-138478000D02*
X153234000Y-138478000D01*
X150534000Y-131778000D02*
X153234000Y-131778000D01*
X153234000Y-131778000D02*
X153234000Y-138478000D01*
%TO.C,R48*%
X171212000Y-71003000D02*
X173212000Y-71003000D01*
X171212000Y-72253000D02*
X171212000Y-71003000D01*
X173212000Y-71003000D02*
X173212000Y-72253000D01*
X173212000Y-72253000D02*
X171212000Y-72253000D01*
%TO.C,Q14*%
X160710000Y-117538000D02*
X160710000Y-123238000D01*
X160710000Y-117538000D02*
X161710000Y-116538000D01*
X160710000Y-123238000D02*
X164410000Y-123238000D01*
X161710000Y-116538000D02*
X164410000Y-116538000D01*
X164410000Y-116538000D02*
X164410000Y-123238000D01*
%TO.C,R8*%
X145171000Y-102086500D02*
X146421000Y-102086500D01*
X145171000Y-104086500D02*
X145171000Y-102086500D01*
X146421000Y-102086500D02*
X146421000Y-104086500D01*
X146421000Y-104086500D02*
X145171000Y-104086500D01*
%TO.C,R6*%
X145171000Y-86884000D02*
X146421000Y-86884000D01*
X145171000Y-88884000D02*
X145171000Y-86884000D01*
X146421000Y-86884000D02*
X146421000Y-88884000D01*
X146421000Y-88884000D02*
X145171000Y-88884000D01*
%TO.C,C11*%
X132518000Y-78654000D02*
X132518000Y-86954000D01*
X132518000Y-78654000D02*
X133518000Y-77654000D01*
X132518000Y-86954000D02*
X133518000Y-87954000D01*
X133109675Y-81104000D02*
X134109675Y-81104000D01*
X133518000Y-77654000D02*
X142818000Y-77654000D01*
X133518000Y-87954000D02*
X142818000Y-87954000D01*
X133609675Y-80604000D02*
X133609675Y-81604000D01*
X142818000Y-77654000D02*
X142818000Y-87954000D01*
X142668000Y-82804000D02*
G75*
G02*
X132668000Y-82804000I-5000000J0D01*
G01*
X132668000Y-82804000D02*
G75*
G02*
X142668000Y-82804000I5000000J0D01*
G01*
%TO.C,R33*%
X167523000Y-86376000D02*
X168773000Y-86376000D01*
X167523000Y-88376000D02*
X167523000Y-86376000D01*
X168773000Y-86376000D02*
X168773000Y-88376000D01*
X168773000Y-88376000D02*
X167523000Y-88376000D01*
%TO.C,R31*%
X167560500Y-78756000D02*
X168810500Y-78756000D01*
X167560500Y-80756000D02*
X167560500Y-78756000D01*
X168810500Y-78756000D02*
X168810500Y-80756000D01*
X168810500Y-80756000D02*
X167560500Y-80756000D01*
%TO.C,R1*%
X118126000Y-63129000D02*
X120126000Y-63129000D01*
X118126000Y-64379000D02*
X118126000Y-63129000D01*
X120126000Y-63129000D02*
X120126000Y-64379000D01*
X120126000Y-64379000D02*
X118126000Y-64379000D01*
%TO.C,J3*%
X148331000Y-56476000D02*
X158491000Y-56476000D01*
X148331000Y-58276000D02*
X158491000Y-58276000D01*
X148331000Y-64476000D02*
X158491000Y-64476000D01*
X148331000Y-66976000D02*
X148331000Y-56476000D01*
X148331000Y-66976000D02*
X158491000Y-66976000D01*
X148831000Y-67476000D02*
X148331000Y-66976000D01*
X151985000Y-60348000D02*
X149543000Y-62790000D01*
X152199000Y-60562000D02*
X149757000Y-63003000D01*
X157065000Y-60348000D02*
X154624000Y-62790000D01*
X157279000Y-60562000D02*
X154838000Y-63003000D01*
X158491000Y-56476000D02*
X158491000Y-67476000D01*
X158491000Y-67476000D02*
X148831000Y-67476000D01*
X152621000Y-61676000D02*
G75*
G02*
X149121000Y-61676000I-1750000J0D01*
G01*
X149121000Y-61676000D02*
G75*
G02*
X152621000Y-61676000I1750000J0D01*
G01*
X157701000Y-61676000D02*
G75*
G02*
X154201000Y-61676000I-1750000J0D01*
G01*
X154201000Y-61676000D02*
G75*
G02*
X157701000Y-61676000I1750000J0D01*
G01*
%TO.C,D2*%
X174797000Y-67580000D02*
X174797000Y-69580000D01*
X174797000Y-69580000D02*
X179797000Y-69580000D01*
X179797000Y-67580000D02*
X174797000Y-67580000D01*
X179797000Y-69580000D02*
X179797000Y-67580000D01*
%TO.C,R25*%
X156347000Y-116856000D02*
X157597000Y-116856000D01*
X156347000Y-118856000D02*
X156347000Y-116856000D01*
X157597000Y-116856000D02*
X157597000Y-118856000D01*
X157597000Y-118856000D02*
X156347000Y-118856000D01*
%TO.C,U3*%
X131120000Y-103942000D02*
X138120000Y-103942000D01*
X131120000Y-109942000D02*
X131120000Y-103942000D01*
X132120000Y-110942000D02*
X131120000Y-109942000D01*
X138120000Y-103942000D02*
X138120000Y-110942000D01*
X138120000Y-110942000D02*
X132120000Y-110942000D01*
%TO.C,R46*%
X167523000Y-135652000D02*
X168773000Y-135652000D01*
X167523000Y-137652000D02*
X167523000Y-135652000D01*
X168773000Y-135652000D02*
X168773000Y-137652000D01*
X168773000Y-137652000D02*
X167523000Y-137652000D01*
%TO.C,R26*%
X156347000Y-120449500D02*
X157597000Y-120449500D01*
X156347000Y-122449500D02*
X156347000Y-120449500D01*
X157597000Y-120449500D02*
X157597000Y-122449500D01*
X157597000Y-122449500D02*
X156347000Y-122449500D01*
%TO.C,R14*%
X151775000Y-71390000D02*
X153025000Y-71390000D01*
X151775000Y-73390000D02*
X151775000Y-71390000D01*
X153025000Y-71390000D02*
X153025000Y-73390000D01*
X153025000Y-73390000D02*
X151775000Y-73390000D01*
%TO.C,R37*%
X167523000Y-101578500D02*
X168773000Y-101578500D01*
X167523000Y-103578500D02*
X167523000Y-101578500D01*
X168773000Y-101578500D02*
X168773000Y-103578500D01*
X168773000Y-103578500D02*
X167523000Y-103578500D01*
%TO.C,U2*%
X125558000Y-62533000D02*
X126533000Y-61558000D01*
X125558000Y-66458000D02*
X125558000Y-62533000D01*
X126533000Y-61558000D02*
X129458000Y-61558000D01*
X129458000Y-61558000D02*
X129458000Y-66458000D01*
X129458000Y-66458000D02*
X125558000Y-66458000D01*
%TO.C,Q2*%
X149534000Y-87058000D02*
X149534000Y-92758000D01*
X149534000Y-87058000D02*
X150534000Y-86058000D01*
X149534000Y-92758000D02*
X153234000Y-92758000D01*
X150534000Y-86058000D02*
X153234000Y-86058000D01*
X153234000Y-86058000D02*
X153234000Y-92758000D01*
%TO.C,C13*%
X135638000Y-70090000D02*
X135638000Y-75690000D01*
X136638000Y-69090000D02*
X135638000Y-70090000D01*
X140268000Y-69685162D02*
X140268000Y-70315162D01*
X140583000Y-70000162D02*
X139953000Y-70000162D01*
X141238000Y-69090000D02*
X136638000Y-69090000D01*
X141238000Y-69090000D02*
X142238000Y-70090000D01*
X142238000Y-70090000D02*
X142238000Y-75690000D01*
X142238000Y-75690000D02*
X135638000Y-75690000D01*
X142088000Y-72390000D02*
G75*
G02*
X135788000Y-72390000I-3150000J0D01*
G01*
X135788000Y-72390000D02*
G75*
G02*
X142088000Y-72390000I3150000J0D01*
G01*
%TO.C,C9*%
X133058000Y-70790000D02*
X134658000Y-70790000D01*
X133058000Y-73990000D02*
X133058000Y-70790000D01*
X134658000Y-70790000D02*
X134658000Y-73990000D01*
X134658000Y-73990000D02*
X133058000Y-73990000D01*
%TO.C,R39*%
X167523000Y-109236000D02*
X168773000Y-109236000D01*
X167523000Y-111236000D02*
X167523000Y-109236000D01*
X168773000Y-109236000D02*
X168773000Y-111236000D01*
X168773000Y-111236000D02*
X167523000Y-111236000D01*
%TO.C,Q4*%
X149534000Y-102298000D02*
X149534000Y-107998000D01*
X149534000Y-102298000D02*
X150534000Y-101298000D01*
X149534000Y-107998000D02*
X153234000Y-107998000D01*
X150534000Y-101298000D02*
X153234000Y-101298000D01*
X153234000Y-101298000D02*
X153234000Y-107998000D01*
%TO.C,D4*%
X174797000Y-73676000D02*
X174797000Y-75676000D01*
X174797000Y-75676000D02*
X179797000Y-75676000D01*
X179797000Y-73676000D02*
X174797000Y-73676000D01*
X179797000Y-75676000D02*
X179797000Y-73676000D01*
%TO.C,Q20*%
X171886000Y-102298000D02*
X171886000Y-107998000D01*
X171886000Y-102298000D02*
X172886000Y-101298000D01*
X171886000Y-107998000D02*
X175586000Y-107998000D01*
X172886000Y-101298000D02*
X175586000Y-101298000D01*
X175586000Y-101298000D02*
X175586000Y-107998000D01*
%TO.C,C14*%
X137084000Y-91656000D02*
X140284000Y-91656000D01*
X137084000Y-93256000D02*
X137084000Y-91656000D01*
X140284000Y-91656000D02*
X140284000Y-93256000D01*
X140284000Y-93256000D02*
X137084000Y-93256000D01*
%TO.C,R40*%
X167523000Y-112792000D02*
X168773000Y-112792000D01*
X167523000Y-114792000D02*
X167523000Y-112792000D01*
X168773000Y-112792000D02*
X168773000Y-114792000D01*
X168773000Y-114792000D02*
X167523000Y-114792000D01*
%TO.C,U4*%
X137134000Y-96912000D02*
X137134000Y-95112000D01*
X139584000Y-95112000D02*
X137134000Y-95112000D01*
X139584000Y-95112000D02*
X140234000Y-95762000D01*
X140234000Y-96912000D02*
X137134000Y-96912000D01*
X140234000Y-96912000D02*
X140234000Y-95762000D01*
%TO.C,C5*%
X120104000Y-84074200D02*
X121704000Y-84074200D01*
X120104000Y-87274200D02*
X120104000Y-84074200D01*
X121704000Y-84074200D02*
X121704000Y-87274200D01*
X121704000Y-87274200D02*
X120104000Y-87274200D01*
%TO.C,R2*%
X118126000Y-65161000D02*
X120126000Y-65161000D01*
X118126000Y-66411000D02*
X118126000Y-65161000D01*
X120126000Y-65161000D02*
X120126000Y-66411000D01*
X120126000Y-66411000D02*
X118126000Y-66411000D01*
%TO.C,C1*%
X112712600Y-84074200D02*
X114312600Y-84074200D01*
X112712600Y-87274200D02*
X112712600Y-84074200D01*
X114312600Y-84074200D02*
X114312600Y-87274200D01*
X114312600Y-87274200D02*
X112712600Y-87274200D01*
%TO.C,Q10*%
X160710000Y-87058000D02*
X160710000Y-92758000D01*
X160710000Y-87058000D02*
X161710000Y-86058000D01*
X160710000Y-92758000D02*
X164410000Y-92758000D01*
X161710000Y-86058000D02*
X164410000Y-86058000D01*
X164410000Y-86058000D02*
X164410000Y-92758000D01*
%TO.C,R30*%
X156347000Y-135652000D02*
X157597000Y-135652000D01*
X156347000Y-137652000D02*
X156347000Y-135652000D01*
X157597000Y-135652000D02*
X157597000Y-137652000D01*
X157597000Y-137652000D02*
X156347000Y-137652000D01*
%TO.C,Q16*%
X160710000Y-132778000D02*
X160710000Y-138478000D01*
X160710000Y-132778000D02*
X161710000Y-131778000D01*
X160710000Y-138478000D02*
X164410000Y-138478000D01*
X161710000Y-131778000D02*
X164410000Y-131778000D01*
X164410000Y-131778000D02*
X164410000Y-138478000D01*
%TO.C,Q19*%
X171886000Y-94678000D02*
X171886000Y-100378000D01*
X171886000Y-94678000D02*
X172886000Y-93678000D01*
X171886000Y-100378000D02*
X175586000Y-100378000D01*
X172886000Y-93678000D02*
X175586000Y-93678000D01*
X175586000Y-93678000D02*
X175586000Y-100378000D01*
%TO.C,L1*%
X117244000Y-67968000D02*
X117244000Y-80368000D01*
X117244000Y-80368000D02*
X120144000Y-80368000D01*
X117944000Y-73568000D02*
X118144000Y-72668000D01*
X117944000Y-74768000D02*
X117944000Y-73568000D01*
X118144000Y-72668000D02*
X118344000Y-72068000D01*
X118144000Y-75768000D02*
X117944000Y-74768000D01*
X118344000Y-70268000D02*
X118444000Y-69868000D01*
X118344000Y-72068000D02*
X118544000Y-71568000D01*
X118344000Y-78168000D02*
X118444000Y-77668000D01*
X118444000Y-69868000D02*
X118644000Y-69568000D01*
X118444000Y-76568000D02*
X118144000Y-75768000D01*
X118444000Y-77668000D02*
X118744000Y-77268000D01*
X118444000Y-78668000D02*
X118344000Y-78168000D01*
X118544000Y-70868000D02*
X118344000Y-70268000D01*
X118544000Y-71568000D02*
X118744000Y-71168000D01*
X118644000Y-69568000D02*
X118844000Y-69268000D01*
X118744000Y-71168000D02*
X118544000Y-70868000D01*
X118744000Y-77268000D02*
X118844000Y-77168000D01*
X118844000Y-69268000D02*
X119344000Y-69068000D01*
X118844000Y-77168000D02*
X118444000Y-76568000D01*
X118844000Y-78968000D02*
X118444000Y-78668000D01*
X119144000Y-79168000D02*
X118844000Y-78968000D01*
X119344000Y-69068000D02*
X119844000Y-69168000D01*
X119644000Y-79268000D02*
X119144000Y-79168000D01*
X119844000Y-69168000D02*
X120244000Y-69368000D01*
X120044000Y-79168000D02*
X119644000Y-79268000D01*
X120144000Y-67968000D02*
X117244000Y-67968000D01*
X120144000Y-79068000D02*
X120044000Y-79168000D01*
X126744000Y-79068000D02*
X127044000Y-79168000D01*
X126944000Y-69168000D02*
X126644000Y-69368000D01*
X127044000Y-79168000D02*
X127444000Y-79268000D01*
X127444000Y-69068000D02*
X126944000Y-69168000D01*
X127444000Y-79268000D02*
X127744000Y-79168000D01*
X127744000Y-79168000D02*
X128144000Y-78968000D01*
X127944000Y-69268000D02*
X127444000Y-69068000D01*
X128044000Y-77168000D02*
X128344000Y-76768000D01*
X128144000Y-71168000D02*
X128344000Y-70868000D01*
X128144000Y-78968000D02*
X128344000Y-78668000D01*
X128244000Y-69568000D02*
X127944000Y-69268000D01*
X128344000Y-70868000D02*
X128544000Y-70468000D01*
X128344000Y-71568000D02*
X128144000Y-71168000D01*
X128344000Y-76768000D02*
X128544000Y-76368000D01*
X128344000Y-77468000D02*
X128044000Y-77168000D01*
X128344000Y-78668000D02*
X128544000Y-78368000D01*
X128444000Y-69968000D02*
X128244000Y-69568000D01*
X128444000Y-77768000D02*
X128344000Y-77468000D01*
X128544000Y-70468000D02*
X128444000Y-69968000D01*
X128544000Y-76368000D02*
X128744000Y-75868000D01*
X128544000Y-78068000D02*
X128444000Y-77768000D01*
X128544000Y-78368000D02*
X128544000Y-78068000D01*
X128744000Y-72468000D02*
X128344000Y-71568000D01*
X128744000Y-75868000D02*
X128944000Y-75068000D01*
X128944000Y-73368000D02*
X128744000Y-72468000D01*
X128944000Y-75068000D02*
X129044000Y-74168000D01*
X129044000Y-74168000D02*
X128944000Y-73368000D01*
X129644000Y-67968000D02*
X126744000Y-67968000D01*
X129644000Y-80368000D02*
X126744000Y-80368000D01*
X129644000Y-80368000D02*
X129644000Y-67968000D01*
X120834512Y-72068000D02*
G75*
G02*
X120053488Y-72068000I-390512J0D01*
G01*
X120053488Y-72068000D02*
G75*
G02*
X120834512Y-72068000I390512J0D01*
G01*
%TO.C,R7*%
X145171000Y-94504000D02*
X146421000Y-94504000D01*
X145171000Y-96504000D02*
X145171000Y-94504000D01*
X146421000Y-94504000D02*
X146421000Y-96504000D01*
X146421000Y-96504000D02*
X145171000Y-96504000D01*
%TO.C,Q17*%
X171886000Y-79438000D02*
X171886000Y-85138000D01*
X171886000Y-79438000D02*
X172886000Y-78438000D01*
X171886000Y-85138000D02*
X175586000Y-85138000D01*
X172886000Y-78438000D02*
X175586000Y-78438000D01*
X175586000Y-78438000D02*
X175586000Y-85138000D01*
%TO.C,R12*%
X145171000Y-132604000D02*
X146421000Y-132604000D01*
X145171000Y-134604000D02*
X145171000Y-132604000D01*
X146421000Y-132604000D02*
X146421000Y-134604000D01*
X146421000Y-134604000D02*
X145171000Y-134604000D01*
%TO.C,R47*%
X171212000Y-67955000D02*
X173212000Y-67955000D01*
X171212000Y-69205000D02*
X171212000Y-67955000D01*
X173212000Y-67955000D02*
X173212000Y-69205000D01*
X173212000Y-69205000D02*
X171212000Y-69205000D01*
%TO.C,R27*%
X156347000Y-124476000D02*
X157597000Y-124476000D01*
X156347000Y-126476000D02*
X156347000Y-124476000D01*
X157597000Y-124476000D02*
X157597000Y-126476000D01*
X157597000Y-126476000D02*
X156347000Y-126476000D01*
%TO.C,R42*%
X167523000Y-120449500D02*
X168773000Y-120449500D01*
X167523000Y-122449500D02*
X167523000Y-120449500D01*
X168773000Y-120449500D02*
X168773000Y-122449500D01*
X168773000Y-122449500D02*
X167523000Y-122449500D01*
%TO.C,R4*%
X136068000Y-60996000D02*
X139268000Y-60996000D01*
X136068000Y-65496000D02*
X136068000Y-60996000D01*
X139268000Y-60996000D02*
X139268000Y-65496000D01*
X139268000Y-65496000D02*
X136068000Y-65496000D01*
%TO.C,C8*%
X128780000Y-92696000D02*
X128780000Y-98296000D01*
X129780000Y-91696000D02*
X128780000Y-92696000D01*
X133410000Y-92291162D02*
X133410000Y-92921162D01*
X133725000Y-92606162D02*
X133095000Y-92606162D01*
X134380000Y-91696000D02*
X129780000Y-91696000D01*
X134380000Y-91696000D02*
X135380000Y-92696000D01*
X135380000Y-92696000D02*
X135380000Y-98296000D01*
X135380000Y-98296000D02*
X128780000Y-98296000D01*
X135230000Y-94996000D02*
G75*
G02*
X128930000Y-94996000I-3150000J0D01*
G01*
X128930000Y-94996000D02*
G75*
G02*
X135230000Y-94996000I3150000J0D01*
G01*
%TO.C,R10*%
X144995000Y-117298000D02*
X146245000Y-117298000D01*
X144995000Y-119298000D02*
X144995000Y-117298000D01*
X146245000Y-117298000D02*
X146245000Y-119298000D01*
X146245000Y-119298000D02*
X144995000Y-119298000D01*
%TO.C,R41*%
X167523000Y-116856000D02*
X168773000Y-116856000D01*
X167523000Y-118856000D02*
X167523000Y-116856000D01*
X168773000Y-116856000D02*
X168773000Y-118856000D01*
X168773000Y-118856000D02*
X167523000Y-118856000D01*
%TO.C,R11*%
X145171000Y-124984000D02*
X146421000Y-124984000D01*
X145171000Y-126984000D02*
X145171000Y-124984000D01*
X146421000Y-124984000D02*
X146421000Y-126984000D01*
X146421000Y-126984000D02*
X145171000Y-126984000D01*
%TO.C,D1*%
X130468000Y-69820000D02*
X132168000Y-69820000D01*
X130468000Y-72420000D02*
X130468000Y-69820000D01*
X130768000Y-71470000D02*
X131868000Y-71470000D01*
X130918000Y-70870000D02*
X131718000Y-70870000D01*
X131318000Y-70370000D02*
X131318000Y-70870000D01*
X131318000Y-71470000D02*
X130918000Y-70870000D01*
X131318000Y-71470000D02*
X131718000Y-70870000D01*
X131318000Y-71870000D02*
X131318000Y-71470000D01*
X132168000Y-69820000D02*
X132168000Y-72420000D01*
X132168000Y-72420000D02*
X130468000Y-72420000D01*
%TO.C,R21*%
X156347000Y-101578500D02*
X157597000Y-101578500D01*
X156347000Y-103578500D02*
X156347000Y-101578500D01*
X157597000Y-101578500D02*
X157597000Y-103578500D01*
X157597000Y-103578500D02*
X156347000Y-103578500D01*
%TO.C,C12*%
X136614000Y-113970000D02*
X138214000Y-113970000D01*
X136614000Y-117170000D02*
X136614000Y-113970000D01*
X138214000Y-113970000D02*
X138214000Y-117170000D01*
X138214000Y-117170000D02*
X136614000Y-117170000D01*
%TO.C,R36*%
X167523000Y-97552000D02*
X168773000Y-97552000D01*
X167523000Y-99552000D02*
X167523000Y-97552000D01*
X168773000Y-97552000D02*
X168773000Y-99552000D01*
X168773000Y-99552000D02*
X167523000Y-99552000D01*
%TO.C,Q3*%
X149534000Y-94678000D02*
X149534000Y-100378000D01*
X149534000Y-94678000D02*
X150534000Y-93678000D01*
X149534000Y-100378000D02*
X153234000Y-100378000D01*
X150534000Y-93678000D02*
X153234000Y-93678000D01*
X153234000Y-93678000D02*
X153234000Y-100378000D01*
%TO.C,R44*%
X167523000Y-128032000D02*
X168773000Y-128032000D01*
X167523000Y-130032000D02*
X167523000Y-128032000D01*
X168773000Y-128032000D02*
X168773000Y-130032000D01*
X168773000Y-130032000D02*
X167523000Y-130032000D01*
%TO.C,C3*%
X119088000Y-128194000D02*
X120688000Y-128194000D01*
X119088000Y-131394000D02*
X119088000Y-128194000D01*
X120688000Y-128194000D02*
X120688000Y-131394000D01*
X120688000Y-131394000D02*
X119088000Y-131394000D01*
%TO.C,Y1*%
X121627000Y-123875000D02*
X121627000Y-130125000D01*
X121952000Y-124000000D02*
X121952000Y-130000000D01*
X125952000Y-124000000D02*
X125952000Y-130000000D01*
X126277000Y-123875000D02*
X126277000Y-130125000D01*
X121627000Y-123875000D02*
G75*
G02*
X126277000Y-123875000I2325000J0D01*
G01*
X121952000Y-124000000D02*
G75*
G02*
X125952000Y-124000000I2000000J0D01*
G01*
X125952000Y-130000000D02*
G75*
G02*
X121952000Y-130000000I-2000000J0D01*
G01*
X126277000Y-130125000D02*
G75*
G02*
X121627000Y-130125000I-2325000J0D01*
G01*
%TO.C,R43*%
X167523000Y-124438500D02*
X168773000Y-124438500D01*
X167523000Y-126438500D02*
X167523000Y-124438500D01*
X168773000Y-124438500D02*
X168773000Y-126438500D01*
X168773000Y-126438500D02*
X167523000Y-126438500D01*
%TO.C,R20*%
X156384500Y-97552000D02*
X157634500Y-97552000D01*
X156384500Y-99552000D02*
X156384500Y-97552000D01*
X157634500Y-97552000D02*
X157634500Y-99552000D01*
X157634500Y-99552000D02*
X156384500Y-99552000D01*
%TO.C,Q9*%
X160710000Y-79438000D02*
X160710000Y-85138000D01*
X160710000Y-79438000D02*
X161710000Y-78438000D01*
X160710000Y-85138000D02*
X164410000Y-85138000D01*
X161710000Y-78438000D02*
X164410000Y-78438000D01*
X164410000Y-78438000D02*
X164410000Y-85138000D01*
%TO.C,J4*%
X179312000Y-79240000D02*
X179812000Y-78740000D01*
X179312000Y-129540000D02*
X179312000Y-79240000D01*
X179812000Y-78740000D02*
X179812000Y-129540000D01*
X179812000Y-78740000D02*
X190512000Y-78740000D01*
X182312000Y-78740000D02*
X182312000Y-129540000D01*
X185885000Y-82797000D02*
X183095000Y-80007000D01*
X185885000Y-87877000D02*
X183095000Y-85088000D01*
X185885000Y-92957000D02*
X183095000Y-90168000D01*
X185885000Y-98037000D02*
X183095000Y-95248000D01*
X185885000Y-103117000D02*
X183095000Y-100328000D01*
X185885000Y-108197000D02*
X183095000Y-105408000D01*
X185885000Y-113277000D02*
X183095000Y-110488000D01*
X185885000Y-118357000D02*
X183095000Y-115568000D01*
X185885000Y-123437000D02*
X183095000Y-120648000D01*
X185885000Y-128517000D02*
X183095000Y-125728000D01*
X186129000Y-82553000D02*
X183339000Y-79763000D01*
X186129000Y-87633000D02*
X183339000Y-84844000D01*
X186129000Y-92713000D02*
X183339000Y-89924000D01*
X186129000Y-97793000D02*
X183339000Y-95004000D01*
X186129000Y-102873000D02*
X183339000Y-100084000D01*
X186129000Y-107953000D02*
X183339000Y-105164000D01*
X186129000Y-113033000D02*
X183339000Y-110244000D01*
X186129000Y-118113000D02*
X183339000Y-115324000D01*
X186129000Y-123193000D02*
X183339000Y-120404000D01*
X186129000Y-128273000D02*
X183339000Y-125484000D01*
X188512000Y-78740000D02*
X188512000Y-129540000D01*
X190512000Y-78740000D02*
X190512000Y-129540000D01*
X190512000Y-129540000D02*
X179312000Y-129540000D01*
X186612000Y-81280000D02*
G75*
G02*
X182612000Y-81280000I-2000000J0D01*
G01*
X182612000Y-81280000D02*
G75*
G02*
X186612000Y-81280000I2000000J0D01*
G01*
X186612000Y-86360000D02*
G75*
G02*
X182612000Y-86360000I-2000000J0D01*
G01*
X182612000Y-86360000D02*
G75*
G02*
X186612000Y-86360000I2000000J0D01*
G01*
X186612000Y-91440000D02*
G75*
G02*
X182612000Y-91440000I-2000000J0D01*
G01*
X182612000Y-91440000D02*
G75*
G02*
X186612000Y-91440000I2000000J0D01*
G01*
X186612000Y-96520000D02*
G75*
G02*
X182612000Y-96520000I-2000000J0D01*
G01*
X182612000Y-96520000D02*
G75*
G02*
X186612000Y-96520000I2000000J0D01*
G01*
X186612000Y-101600000D02*
G75*
G02*
X182612000Y-101600000I-2000000J0D01*
G01*
X182612000Y-101600000D02*
G75*
G02*
X186612000Y-101600000I2000000J0D01*
G01*
X186612000Y-106680000D02*
G75*
G02*
X182612000Y-106680000I-2000000J0D01*
G01*
X182612000Y-106680000D02*
G75*
G02*
X186612000Y-106680000I2000000J0D01*
G01*
X186612000Y-111760000D02*
G75*
G02*
X182612000Y-111760000I-2000000J0D01*
G01*
X182612000Y-111760000D02*
G75*
G02*
X186612000Y-111760000I2000000J0D01*
G01*
X186612000Y-116840000D02*
G75*
G02*
X182612000Y-116840000I-2000000J0D01*
G01*
X182612000Y-116840000D02*
G75*
G02*
X186612000Y-116840000I2000000J0D01*
G01*
X186612000Y-121920000D02*
G75*
G02*
X182612000Y-121920000I-2000000J0D01*
G01*
X182612000Y-121920000D02*
G75*
G02*
X186612000Y-121920000I2000000J0D01*
G01*
X186612000Y-127000000D02*
G75*
G02*
X182612000Y-127000000I-2000000J0D01*
G01*
X182612000Y-127000000D02*
G75*
G02*
X186612000Y-127000000I2000000J0D01*
G01*
%TO.C,R9*%
X145171000Y-109236000D02*
X146421000Y-109236000D01*
X145171000Y-111236000D02*
X145171000Y-109236000D01*
X146421000Y-109236000D02*
X146421000Y-111236000D01*
X146421000Y-111236000D02*
X145171000Y-111236000D01*
%TO.C,R34*%
X167507000Y-89932000D02*
X168757000Y-89932000D01*
X167507000Y-91932000D02*
X167507000Y-89932000D01*
X168757000Y-89932000D02*
X168757000Y-91932000D01*
X168757000Y-91932000D02*
X167507000Y-91932000D01*
%TO.C,R5*%
X145208500Y-79226500D02*
X146458500Y-79226500D01*
X145208500Y-81226500D02*
X145208500Y-79226500D01*
X146458500Y-79226500D02*
X146458500Y-81226500D01*
X146458500Y-81226500D02*
X145208500Y-81226500D01*
%TO.C,C7*%
X127686000Y-113500000D02*
X130886000Y-113500000D01*
X127686000Y-115100000D02*
X127686000Y-113500000D01*
X130886000Y-113500000D02*
X130886000Y-115100000D01*
X130886000Y-115100000D02*
X127686000Y-115100000D01*
%TO.C,Q6*%
X149534000Y-117538000D02*
X149534000Y-123238000D01*
X149534000Y-117538000D02*
X150534000Y-116538000D01*
X149534000Y-123238000D02*
X153234000Y-123238000D01*
X150534000Y-116538000D02*
X153234000Y-116538000D01*
X153234000Y-116538000D02*
X153234000Y-123238000D01*
%TO.C,R17*%
X156347000Y-86376000D02*
X157597000Y-86376000D01*
X156347000Y-88376000D02*
X156347000Y-86376000D01*
X157597000Y-86376000D02*
X157597000Y-88376000D01*
X157597000Y-88376000D02*
X156347000Y-88376000D01*
%TO.C,D3*%
X174797000Y-70628000D02*
X174797000Y-72628000D01*
X174797000Y-72628000D02*
X179797000Y-72628000D01*
X179797000Y-70628000D02*
X174797000Y-70628000D01*
X179797000Y-72628000D02*
X179797000Y-70628000D01*
%TO.C,R18*%
X156347000Y-89932000D02*
X157597000Y-89932000D01*
X156347000Y-91932000D02*
X156347000Y-89932000D01*
X157597000Y-89932000D02*
X157597000Y-91932000D01*
X157597000Y-91932000D02*
X156347000Y-91932000D01*
%TO.C,R16*%
X156384500Y-82312000D02*
X157634500Y-82312000D01*
X156384500Y-84312000D02*
X156384500Y-82312000D01*
X157634500Y-82312000D02*
X157634500Y-84312000D01*
X157634500Y-84312000D02*
X156384500Y-84312000D01*
%TO.C,R23*%
X156347000Y-109236000D02*
X157597000Y-109236000D01*
X156347000Y-111236000D02*
X156347000Y-109236000D01*
X157597000Y-109236000D02*
X157597000Y-111236000D01*
X157597000Y-111236000D02*
X156347000Y-111236000D01*
%TO.C,L2*%
X130508000Y-82090000D02*
X124508000Y-82090000D01*
X124508000Y-88090000D01*
X130508000Y-88090000D01*
X130508000Y-82090000D01*
%TO.C,Q13*%
X160710000Y-109918000D02*
X160710000Y-115618000D01*
X160710000Y-109918000D02*
X161710000Y-108918000D01*
X160710000Y-115618000D02*
X164410000Y-115618000D01*
X161710000Y-108918000D02*
X164410000Y-108918000D01*
X164410000Y-108918000D02*
X164410000Y-115618000D01*
%TO.C,R32*%
X167560500Y-82312000D02*
X168810500Y-82312000D01*
X167560500Y-84312000D02*
X167560500Y-82312000D01*
X168810500Y-82312000D02*
X168810500Y-84312000D01*
X168810500Y-84312000D02*
X167560500Y-84312000D01*
%TO.C,R35*%
X167523000Y-93996000D02*
X168773000Y-93996000D01*
X167523000Y-95996000D02*
X167523000Y-93996000D01*
X168773000Y-93996000D02*
X168773000Y-95996000D01*
X168773000Y-95996000D02*
X167523000Y-95996000D01*
%TO.C,C10*%
X133566000Y-64694000D02*
X135166000Y-64694000D01*
X133566000Y-67894000D02*
X133566000Y-64694000D01*
X135166000Y-64694000D02*
X135166000Y-67894000D01*
X135166000Y-67894000D02*
X133566000Y-67894000D01*
%TO.C,Q22*%
X171886000Y-117538000D02*
X171886000Y-123238000D01*
X171886000Y-117538000D02*
X172886000Y-116538000D01*
X171886000Y-123238000D02*
X175586000Y-123238000D01*
X172886000Y-116538000D02*
X175586000Y-116538000D01*
X175586000Y-116538000D02*
X175586000Y-123238000D01*
%TO.C,Q15*%
X160710000Y-125158000D02*
X160710000Y-130858000D01*
X160710000Y-125158000D02*
X161710000Y-124158000D01*
X160710000Y-130858000D02*
X164410000Y-130858000D01*
X161710000Y-124158000D02*
X164410000Y-124158000D01*
X164410000Y-124158000D02*
X164410000Y-130858000D01*
%TO.C,R19*%
X156347000Y-93996000D02*
X157597000Y-93996000D01*
X156347000Y-95996000D02*
X156347000Y-93996000D01*
X157597000Y-93996000D02*
X157597000Y-95996000D01*
X157597000Y-95996000D02*
X156347000Y-95996000D01*
%TO.C,Q23*%
X171923500Y-125158000D02*
X171923500Y-130858000D01*
X171923500Y-125158000D02*
X172923500Y-124158000D01*
X171923500Y-130858000D02*
X175623500Y-130858000D01*
X172923500Y-124158000D02*
X175623500Y-124158000D01*
X175623500Y-124158000D02*
X175623500Y-130858000D01*
%TO.C,Q5*%
X149534000Y-109918000D02*
X149534000Y-115618000D01*
X149534000Y-109918000D02*
X150534000Y-108918000D01*
X149534000Y-115618000D02*
X153234000Y-115618000D01*
X150534000Y-108918000D02*
X153234000Y-108918000D01*
X153234000Y-108918000D02*
X153234000Y-115618000D01*
%TO.C,R45*%
X167523000Y-132096000D02*
X168773000Y-132096000D01*
X167523000Y-134096000D02*
X167523000Y-132096000D01*
X168773000Y-132096000D02*
X168773000Y-134096000D01*
X168773000Y-134096000D02*
X167523000Y-134096000D01*
%TO.C,C2*%
X119088000Y-122860000D02*
X120688000Y-122860000D01*
X119088000Y-126060000D02*
X119088000Y-122860000D01*
X120688000Y-122860000D02*
X120688000Y-126060000D01*
X120688000Y-126060000D02*
X119088000Y-126060000D01*
%TO.C,Q12*%
X160710000Y-102298000D02*
X160710000Y-107998000D01*
X160710000Y-102298000D02*
X161710000Y-101298000D01*
X160710000Y-107998000D02*
X164410000Y-107998000D01*
X161710000Y-101298000D02*
X164410000Y-101298000D01*
X164410000Y-101298000D02*
X164410000Y-107998000D01*
%TO.C,Q24*%
X171886000Y-132778000D02*
X171886000Y-138478000D01*
X171886000Y-132778000D02*
X172886000Y-131778000D01*
X171886000Y-138478000D02*
X175586000Y-138478000D01*
X172886000Y-131778000D02*
X175586000Y-131778000D01*
X175586000Y-131778000D02*
X175586000Y-138478000D01*
%TO.C,R49*%
X171212000Y-74051000D02*
X173212000Y-74051000D01*
X171212000Y-75301000D02*
X171212000Y-74051000D01*
X173212000Y-74051000D02*
X173212000Y-75301000D01*
X173212000Y-75301000D02*
X171212000Y-75301000D01*
%TO.C,R38*%
X167523000Y-105172000D02*
X168773000Y-105172000D01*
X167523000Y-107172000D02*
X167523000Y-105172000D01*
X168773000Y-105172000D02*
X168773000Y-107172000D01*
X168773000Y-107172000D02*
X167523000Y-107172000D01*
%TO.C,R15*%
X156384500Y-78718500D02*
X157634500Y-78718500D01*
X156384500Y-80718500D02*
X156384500Y-78718500D01*
X157634500Y-78718500D02*
X157634500Y-80718500D01*
X157634500Y-80718500D02*
X156384500Y-80718500D01*
%TO.C,R22*%
X156347000Y-105172000D02*
X157597000Y-105172000D01*
X156347000Y-107172000D02*
X156347000Y-105172000D01*
X157597000Y-105172000D02*
X157597000Y-107172000D01*
X157597000Y-107172000D02*
X156347000Y-107172000D01*
%TD*%
D15*
X99060000Y-55880000D02*
X191516000Y-55880000D01*
X191516000Y-142240000D01*
X99060000Y-142240000D01*
X99060000Y-55880000D01*
M02*
