%TF.GenerationSoftware,KiCad,Pcbnew,8.0.0*%
%TF.CreationDate,2024-05-10T19:52:19+02:00*%
%TF.ProjectId,plc_io_module,706c635f-696f-45f6-9d6f-64756c652e6b,1.0.0*%
%TF.SameCoordinates,Original*%
%TF.FileFunction,Drillmap*%
%TF.FilePolarity,Positive*%
%FSLAX45Y45*%
G04 Gerber Fmt 4.5, Leading zero omitted, Abs format (unit mm)*
G04 Created by KiCad (PCBNEW 8.0.0) date 2024-05-10 19:52:19*
%MOMM*%
%LPD*%
G01*
G04 APERTURE LIST*
%ADD10C,0.050000*%
%ADD11C,0.200000*%
%ADD12C,0.100000*%
%ADD13C,0.130000*%
%ADD14C,0.140000*%
G04 APERTURE END LIST*
D10*
X9906000Y-5588000D02*
X19151600Y-5588000D01*
X19151600Y-14224000D01*
X9906000Y-14224000D01*
X9906000Y-5588000D01*
D11*
D12*
X10347960Y-8892540D02*
X10373360Y-8917940D01*
X10373360Y-8892540D02*
X10347960Y-8917940D01*
X10350500Y-8389620D02*
X10375900Y-8415020D01*
X10375900Y-8389620D02*
X10350500Y-8415020D01*
X10350500Y-9138920D02*
X10375900Y-9164320D01*
X10375900Y-9138920D02*
X10350500Y-9164320D01*
X10350500Y-9380220D02*
X10375900Y-9405620D01*
X10375900Y-9380220D02*
X10350500Y-9405620D01*
X10350500Y-10147300D02*
X10375900Y-10172700D01*
X10375900Y-10147300D02*
X10350500Y-10172700D01*
X10350500Y-10401300D02*
X10375900Y-10426700D01*
X10375900Y-10401300D02*
X10350500Y-10426700D01*
X10350500Y-10655300D02*
X10375900Y-10680700D01*
X10375900Y-10655300D02*
X10350500Y-10680700D01*
X10350500Y-10883900D02*
X10375900Y-10909300D01*
X10375900Y-10883900D02*
X10350500Y-10909300D01*
X10350500Y-11163300D02*
X10375900Y-11188700D01*
X10375900Y-11163300D02*
X10350500Y-11188700D01*
X10350500Y-11417300D02*
X10375900Y-11442700D01*
X10375900Y-11417300D02*
X10350500Y-11442700D01*
X10353040Y-8135620D02*
X10378440Y-8161020D01*
X10378440Y-8135620D02*
X10353040Y-8161020D01*
X10353040Y-8636000D02*
X10378440Y-8661400D01*
X10378440Y-8636000D02*
X10353040Y-8661400D01*
X10353040Y-9652000D02*
X10378440Y-9677400D01*
X10378440Y-9652000D02*
X10353040Y-9677400D01*
X10604500Y-11544300D02*
X10629900Y-11569700D01*
X10629900Y-11544300D02*
X10604500Y-11569700D01*
X10858500Y-8143240D02*
X10883900Y-8168640D01*
X10883900Y-8143240D02*
X10858500Y-8168640D01*
X10858500Y-9154160D02*
X10883900Y-9179560D01*
X10883900Y-9154160D02*
X10858500Y-9179560D01*
X10858500Y-9639300D02*
X10883900Y-9664700D01*
X10883900Y-9639300D02*
X10858500Y-9664700D01*
X10858500Y-9918700D02*
X10883900Y-9944100D01*
X10883900Y-9918700D02*
X10858500Y-9944100D01*
X10858500Y-10147300D02*
X10883900Y-10172700D01*
X10883900Y-10147300D02*
X10858500Y-10172700D01*
X10858500Y-10401300D02*
X10883900Y-10426700D01*
X10883900Y-10401300D02*
X10858500Y-10426700D01*
X10858500Y-10655300D02*
X10883900Y-10680700D01*
X10883900Y-10655300D02*
X10858500Y-10680700D01*
X10858500Y-10909300D02*
X10883900Y-10934700D01*
X10883900Y-10909300D02*
X10858500Y-10934700D01*
X10858500Y-11188700D02*
X10883900Y-11214100D01*
X10883900Y-11188700D02*
X10858500Y-11214100D01*
X10858500Y-11417300D02*
X10883900Y-11442700D01*
X10883900Y-11417300D02*
X10858500Y-11442700D01*
X10861041Y-8394700D02*
X10886441Y-8420100D01*
X10886441Y-8394700D02*
X10861041Y-8420100D01*
X11054080Y-9004300D02*
X11079480Y-9029700D01*
X11079480Y-9004300D02*
X11054080Y-9029700D01*
X11056620Y-8757920D02*
X11082020Y-8783320D01*
X11082020Y-8757920D02*
X11056620Y-8783320D01*
X11066780Y-9514840D02*
X11092180Y-9540240D01*
X11092180Y-9514840D02*
X11066780Y-9540240D01*
X11149100Y-9249675D02*
X11174500Y-9275075D01*
X11174500Y-9249675D02*
X11149100Y-9275075D01*
X11198860Y-9316720D02*
X11224260Y-9342120D01*
X11224260Y-9316720D02*
X11198860Y-9342120D01*
X11219180Y-9093200D02*
X11244580Y-9118600D01*
X11244580Y-9093200D02*
X11219180Y-9118600D01*
X11333480Y-8252460D02*
X11358880Y-8277860D01*
X11358880Y-8252460D02*
X11333480Y-8277860D01*
X11356340Y-8844280D02*
X11381740Y-8869680D01*
X11381740Y-8844280D02*
X11356340Y-8869680D01*
X11358880Y-9949180D02*
X11384280Y-9974580D01*
X11384280Y-9949180D02*
X11358880Y-9974580D01*
X11358880Y-10454640D02*
X11384280Y-10480040D01*
X11384280Y-10454640D02*
X11358880Y-10480040D01*
X11795299Y-11134900D02*
X11820699Y-11160300D01*
X11820699Y-11134900D02*
X11795299Y-11160300D01*
X11798299Y-6235700D02*
X11823699Y-6261100D01*
X11823699Y-6235700D02*
X11798299Y-6261100D01*
X11798300Y-11595100D02*
X11823700Y-11620500D01*
X11823700Y-11595100D02*
X11798300Y-11620500D01*
X11798300Y-12052300D02*
X11823700Y-12077700D01*
X11823700Y-12052300D02*
X11798300Y-12077700D01*
X11823700Y-13119100D02*
X11849100Y-13144500D01*
X11849100Y-13119100D02*
X11823700Y-13144500D01*
X11849100Y-12280900D02*
X11874500Y-12306300D01*
X11874500Y-12280900D02*
X11849100Y-12306300D01*
X11892280Y-6169660D02*
X11917680Y-6195060D01*
X11917680Y-6169660D02*
X11892280Y-6195060D01*
X11922760Y-11595100D02*
X11948160Y-11620500D01*
X11948160Y-11595100D02*
X11922760Y-11620500D01*
X11925300Y-11132815D02*
X11950700Y-11158215D01*
X11950700Y-11132815D02*
X11925300Y-11158215D01*
X12001500Y-6235700D02*
X12026900Y-6261100D01*
X12026900Y-6235700D02*
X12001500Y-6261100D01*
X12052300Y-11595100D02*
X12077700Y-11620500D01*
X12077700Y-11595100D02*
X12052300Y-11620500D01*
X12052300Y-12052300D02*
X12077700Y-12077700D01*
X12077700Y-12052300D02*
X12052300Y-12077700D01*
X12055300Y-11134900D02*
X12080700Y-11160300D01*
X12080700Y-11134900D02*
X12055300Y-11160300D01*
X12082780Y-8252460D02*
X12108180Y-8277860D01*
X12108180Y-8252460D02*
X12082780Y-8277860D01*
X12120880Y-9093200D02*
X12146280Y-9118600D01*
X12146280Y-9093200D02*
X12120880Y-9118600D01*
X12214860Y-8849360D02*
X12240260Y-8874760D01*
X12240260Y-8849360D02*
X12214860Y-8874760D01*
X12232640Y-6225540D02*
X12258040Y-6250940D01*
X12258040Y-6225540D02*
X12232640Y-6250940D01*
X12291060Y-9939020D02*
X12316460Y-9964420D01*
X12316460Y-9939020D02*
X12291060Y-9964420D01*
X12357100Y-6436400D02*
X12382500Y-6461800D01*
X12382500Y-6436400D02*
X12357100Y-6461800D01*
X12357100Y-6578600D02*
X12382500Y-6604000D01*
X12382500Y-6578600D02*
X12357100Y-6604000D01*
X12453620Y-9751060D02*
X12479020Y-9776460D01*
X12479020Y-9751060D02*
X12453620Y-9776460D01*
X12636500Y-11417300D02*
X12661900Y-11442700D01*
X12661900Y-11417300D02*
X12636500Y-11442700D01*
X12890500Y-10952500D02*
X12915900Y-10977900D01*
X12915900Y-10952500D02*
X12890500Y-10977900D01*
X12890500Y-11036298D02*
X12915900Y-11061698D01*
X12915900Y-11036298D02*
X12890500Y-11061698D01*
X12941300Y-12280900D02*
X12966700Y-12306300D01*
X12966700Y-12280900D02*
X12941300Y-12306300D01*
X12964160Y-11125200D02*
X12989560Y-11150600D01*
X12989560Y-11125200D02*
X12964160Y-11150600D01*
X13042900Y-6718300D02*
X13068300Y-6743700D01*
X13068300Y-6718300D02*
X13042900Y-6743700D01*
X13042900Y-6794500D02*
X13068300Y-6819900D01*
X13068300Y-6794500D02*
X13042900Y-6819900D01*
X13119100Y-6718300D02*
X13144500Y-6743700D01*
X13144500Y-6718300D02*
X13119100Y-6743700D01*
X13119100Y-6794500D02*
X13144500Y-6819900D01*
X13144500Y-6794500D02*
X13119100Y-6819900D01*
X13121640Y-11234420D02*
X13147040Y-11259820D01*
X13147040Y-11234420D02*
X13121640Y-11259820D01*
X13144498Y-6591300D02*
X13169898Y-6616700D01*
X13169898Y-6591300D02*
X13144498Y-6616700D01*
X13153175Y-10927600D02*
X13178575Y-10953000D01*
X13178575Y-10927600D02*
X13153175Y-10953000D01*
X13184422Y-10526086D02*
X13209822Y-10551486D01*
X13209822Y-10526086D02*
X13184422Y-10551486D01*
X13195300Y-6718300D02*
X13220700Y-6743700D01*
X13220700Y-6718300D02*
X13195300Y-6743700D01*
X13195300Y-6794500D02*
X13220700Y-6819900D01*
X13220700Y-6794500D02*
X13195300Y-6819900D01*
X13195300Y-10835640D02*
X13220700Y-10861040D01*
X13220700Y-10835640D02*
X13195300Y-10861040D01*
X13218160Y-10126980D02*
X13243560Y-10152380D01*
X13243560Y-10126980D02*
X13218160Y-10152380D01*
X13251595Y-10475983D02*
X13276995Y-10501383D01*
X13276995Y-10475983D02*
X13251595Y-10501383D01*
X13253210Y-11365452D02*
X13278610Y-11390852D01*
X13278610Y-11365452D02*
X13253210Y-11390852D01*
X13253720Y-10693400D02*
X13279120Y-10718800D01*
X13279120Y-10693400D02*
X13253720Y-10718800D01*
X13256260Y-10774680D02*
X13281660Y-10800080D01*
X13281660Y-10774680D02*
X13256260Y-10800080D01*
X13294360Y-10116820D02*
X13319760Y-10142220D01*
X13319760Y-10116820D02*
X13294360Y-10142220D01*
X13327380Y-11305540D02*
X13352780Y-11330940D01*
X13352780Y-11305540D02*
X13327380Y-11330940D01*
X13373100Y-10457180D02*
X13398500Y-10482580D01*
X13398500Y-10457180D02*
X13373100Y-10482580D01*
X13375640Y-10114280D02*
X13401040Y-10139680D01*
X13401040Y-10114280D02*
X13375640Y-10139680D01*
X13398500Y-9740900D02*
X13423900Y-9766300D01*
X13423900Y-9740900D02*
X13398500Y-9766300D01*
X13398500Y-9817100D02*
X13423900Y-9842500D01*
X13423900Y-9817100D02*
X13398500Y-9842500D01*
X13398500Y-9893300D02*
X13423900Y-9918700D01*
X13423900Y-9893300D02*
X13398500Y-9918700D01*
X13467081Y-10104120D02*
X13492481Y-10129520D01*
X13492481Y-10104120D02*
X13467081Y-10129520D01*
X13516227Y-11010297D02*
X13541627Y-11035697D01*
X13541627Y-11010297D02*
X13516227Y-11035697D01*
X13528020Y-9740900D02*
X13553420Y-9766300D01*
X13553420Y-9740900D02*
X13528020Y-9766300D01*
X13528020Y-9817100D02*
X13553420Y-9842500D01*
X13553420Y-9817100D02*
X13528020Y-9842500D01*
X13528020Y-9893300D02*
X13553420Y-9918700D01*
X13553420Y-9893300D02*
X13528020Y-9918700D01*
X13543260Y-10109200D02*
X13568660Y-10134600D01*
X13568660Y-10109200D02*
X13543260Y-10134600D01*
X13563800Y-11351006D02*
X13589200Y-11376406D01*
X13589200Y-11351006D02*
X13563800Y-11376406D01*
X13626651Y-10100921D02*
X13652051Y-10126321D01*
X13652051Y-10100921D02*
X13626651Y-10126321D01*
X13637260Y-11280140D02*
X13662660Y-11305540D01*
X13662660Y-11280140D02*
X13637260Y-11305540D01*
X13726160Y-10109200D02*
X13751560Y-10134600D01*
X13751560Y-10109200D02*
X13726160Y-10134600D01*
X13728700Y-10629900D02*
X13754100Y-10655300D01*
X13754100Y-10629900D02*
X13728700Y-10655300D01*
X13728700Y-11849100D02*
X13754100Y-11874500D01*
X13754100Y-11849100D02*
X13728700Y-11874500D01*
X13738860Y-11272520D02*
X13764260Y-11297920D01*
X13764260Y-11272520D02*
X13738860Y-11297920D01*
X13779500Y-11153140D02*
X13804900Y-11178540D01*
X13804900Y-11153140D02*
X13779500Y-11178540D01*
X13802360Y-10132060D02*
X13827760Y-10157460D01*
X13827760Y-10132060D02*
X13802360Y-10157460D01*
X13843000Y-10195560D02*
X13868400Y-10220960D01*
X13868400Y-10195560D02*
X13843000Y-10220960D01*
X13869145Y-9322545D02*
X13894545Y-9347945D01*
X13894545Y-9322545D02*
X13869145Y-9347945D01*
X13886180Y-11066780D02*
X13911580Y-11092180D01*
X13911580Y-11066780D02*
X13886180Y-11092180D01*
X13997940Y-10718800D02*
X14023340Y-10744200D01*
X14023340Y-10718800D02*
X13997940Y-10744200D01*
X13999369Y-10490449D02*
X14024769Y-10515849D01*
X14024769Y-10490449D02*
X13999369Y-10515849D01*
X14008100Y-7429500D02*
X14033500Y-7454900D01*
X14033500Y-7429500D02*
X14008100Y-7454900D01*
X14008100Y-7505700D02*
X14033500Y-7531100D01*
X14033500Y-7505700D02*
X14008100Y-7531100D01*
X14008100Y-7581900D02*
X14033500Y-7607300D01*
X14033500Y-7581900D02*
X14008100Y-7607300D01*
X14010740Y-10407423D02*
X14036140Y-10432823D01*
X14036140Y-10407423D02*
X14010740Y-10432823D01*
X14058900Y-8013700D02*
X14084300Y-8039100D01*
X14084300Y-8013700D02*
X14058900Y-8039100D01*
X14058900Y-9791702D02*
X14084300Y-9817102D01*
X14084300Y-9791702D02*
X14058900Y-9817102D01*
X14067949Y-10835889D02*
X14093349Y-10861289D01*
X14093349Y-10835889D02*
X14067949Y-10861289D01*
X14069060Y-11021535D02*
X14094460Y-11046935D01*
X14094460Y-11021535D02*
X14069060Y-11046935D01*
X14069060Y-10922000D02*
X14094460Y-10947400D01*
X14094460Y-10922000D02*
X14069060Y-10947400D01*
X14069409Y-10752101D02*
X14094809Y-10777501D01*
X14094809Y-10752101D02*
X14069409Y-10777501D01*
X14076680Y-11808460D02*
X14102080Y-11833860D01*
X14102080Y-11808460D02*
X14076680Y-11833860D01*
X14112240Y-11915140D02*
X14137640Y-11940540D01*
X14137640Y-11915140D02*
X14112240Y-11940540D01*
X14135100Y-8013700D02*
X14160500Y-8039100D01*
X14160500Y-8013700D02*
X14135100Y-8039100D01*
X14211300Y-8013700D02*
X14236700Y-8039100D01*
X14236700Y-8013700D02*
X14211300Y-8039100D01*
X14363700Y-10375900D02*
X14389100Y-10401300D01*
X14389100Y-10375900D02*
X14363700Y-10401300D01*
X14411960Y-9654540D02*
X14437360Y-9679940D01*
X14437360Y-9654540D02*
X14411960Y-9679940D01*
X14439900Y-12649200D02*
X14465300Y-12674600D01*
X14465300Y-12649200D02*
X14439900Y-12674600D01*
X14444980Y-13342620D02*
X14470380Y-13368020D01*
X14470380Y-13342620D02*
X14444980Y-13368020D01*
X14450060Y-9738360D02*
X14475460Y-9763760D01*
X14475460Y-9738360D02*
X14450060Y-9763760D01*
X14488159Y-13126720D02*
X14513559Y-13152120D01*
X14513559Y-13126720D02*
X14488159Y-13152120D01*
X14511020Y-8958580D02*
X14536420Y-8983980D01*
X14536420Y-8958580D02*
X14511020Y-8983980D01*
X14551660Y-12352020D02*
X14577060Y-12377420D01*
X14577060Y-12352020D02*
X14551660Y-12377420D01*
X14559280Y-8227060D02*
X14584680Y-8252460D01*
X14584680Y-8227060D02*
X14559280Y-8252460D01*
X14566900Y-7759700D02*
X14592300Y-7785100D01*
X14592300Y-7759700D02*
X14566900Y-7785100D01*
X14581481Y-8587350D02*
X14606881Y-8612750D01*
X14606881Y-8587350D02*
X14581481Y-8612750D01*
X14973300Y-8470900D02*
X14998700Y-8496300D01*
X14998700Y-8470900D02*
X14973300Y-8496300D01*
X14973300Y-9232900D02*
X14998700Y-9258300D01*
X14998700Y-9232900D02*
X14973300Y-9258300D01*
X14973300Y-9994900D02*
X14998700Y-10020300D01*
X14998700Y-9994900D02*
X14973300Y-10020300D01*
X14973300Y-10756900D02*
X14998700Y-10782300D01*
X14998700Y-10756900D02*
X14973300Y-10782300D01*
X14973300Y-11518900D02*
X14998700Y-11544300D01*
X14998700Y-11518900D02*
X14973300Y-11544300D01*
X14973300Y-12280900D02*
X14998700Y-12306300D01*
X14998700Y-12280900D02*
X14973300Y-12306300D01*
X14973300Y-13042900D02*
X14998700Y-13068300D01*
X14998700Y-13042900D02*
X14973300Y-13068300D01*
X14973300Y-13804900D02*
X14998700Y-13830300D01*
X14998700Y-13804900D02*
X14973300Y-13830300D01*
X15024100Y-6972300D02*
X15049500Y-6997700D01*
X15049500Y-6972300D02*
X15024100Y-6997700D01*
X15074899Y-7708900D02*
X15100299Y-7734300D01*
X15100299Y-7708900D02*
X15074899Y-7734300D01*
X15278100Y-8013700D02*
X15303500Y-8039100D01*
X15303500Y-8013700D02*
X15278100Y-8039100D01*
X15278100Y-8775700D02*
X15303500Y-8801100D01*
X15303500Y-8775700D02*
X15278100Y-8801100D01*
X15278100Y-9537700D02*
X15303500Y-9563100D01*
X15303500Y-9537700D02*
X15278100Y-9563100D01*
X15278100Y-10299700D02*
X15303500Y-10325100D01*
X15303500Y-10299700D02*
X15278100Y-10325100D01*
X15278100Y-11061700D02*
X15303500Y-11087100D01*
X15303500Y-11061700D02*
X15278100Y-11087100D01*
X15278100Y-11823700D02*
X15303500Y-11849100D01*
X15303500Y-11823700D02*
X15278100Y-11849100D01*
X15278100Y-12585700D02*
X15303500Y-12611100D01*
X15303500Y-12585700D02*
X15278100Y-12611100D01*
X15278100Y-13347700D02*
X15303500Y-13373100D01*
X15303500Y-13347700D02*
X15278100Y-13373100D01*
X16687800Y-7297420D02*
X16713200Y-7322820D01*
X16713200Y-7297420D02*
X16687800Y-7322820D01*
X16926560Y-7366000D02*
X16951960Y-7391400D01*
X16951960Y-7366000D02*
X16926560Y-7391400D01*
X16949420Y-7472680D02*
X16974820Y-7498080D01*
X16974820Y-7472680D02*
X16949420Y-7498080D01*
X14224000Y-6350000D02*
G75*
G02*
X14173200Y-6350000I-25400J0D01*
G01*
X14173200Y-6350000D02*
G75*
G02*
X14224000Y-6350000I25400J0D01*
G01*
X14224000Y-6502400D02*
G75*
G02*
X14173200Y-6502400I-25400J0D01*
G01*
X14173200Y-6502400D02*
G75*
G02*
X14224000Y-6502400I25400J0D01*
G01*
X14224000Y-6654800D02*
G75*
G02*
X14173200Y-6654800I-25400J0D01*
G01*
X14173200Y-6654800D02*
G75*
G02*
X14224000Y-6654800I25400J0D01*
G01*
X15265400Y-6959600D02*
G75*
G02*
X15214600Y-6959600I-25400J0D01*
G01*
X15214600Y-6959600D02*
G75*
G02*
X15265400Y-6959600I25400J0D01*
G01*
X16179800Y-8432800D02*
G75*
G02*
X16129000Y-8432800I-25400J0D01*
G01*
X16129000Y-8432800D02*
G75*
G02*
X16179800Y-8432800I25400J0D01*
G01*
X16179800Y-9194800D02*
G75*
G02*
X16129000Y-9194800I-25400J0D01*
G01*
X16129000Y-9194800D02*
G75*
G02*
X16179800Y-9194800I25400J0D01*
G01*
X16179800Y-9956800D02*
G75*
G02*
X16129000Y-9956800I-25400J0D01*
G01*
X16129000Y-9956800D02*
G75*
G02*
X16179800Y-9956800I25400J0D01*
G01*
X16179800Y-10718800D02*
G75*
G02*
X16129000Y-10718800I-25400J0D01*
G01*
X16129000Y-10718800D02*
G75*
G02*
X16179800Y-10718800I25400J0D01*
G01*
X16179800Y-11480800D02*
G75*
G02*
X16129000Y-11480800I-25400J0D01*
G01*
X16129000Y-11480800D02*
G75*
G02*
X16179800Y-11480800I25400J0D01*
G01*
X16179800Y-12242800D02*
G75*
G02*
X16129000Y-12242800I-25400J0D01*
G01*
X16129000Y-12242800D02*
G75*
G02*
X16179800Y-12242800I25400J0D01*
G01*
X16179800Y-13004800D02*
G75*
G02*
X16129000Y-13004800I-25400J0D01*
G01*
X16129000Y-13004800D02*
G75*
G02*
X16179800Y-13004800I25400J0D01*
G01*
X16179800Y-13766800D02*
G75*
G02*
X16129000Y-13766800I-25400J0D01*
G01*
X16129000Y-13766800D02*
G75*
G02*
X16179800Y-13766800I25400J0D01*
G01*
X16205200Y-8026400D02*
G75*
G02*
X16154400Y-8026400I-25400J0D01*
G01*
X16154400Y-8026400D02*
G75*
G02*
X16205200Y-8026400I25400J0D01*
G01*
X16205200Y-8178800D02*
G75*
G02*
X16154400Y-8178800I-25400J0D01*
G01*
X16154400Y-8178800D02*
G75*
G02*
X16205200Y-8178800I25400J0D01*
G01*
X16205200Y-8788400D02*
G75*
G02*
X16154400Y-8788400I-25400J0D01*
G01*
X16154400Y-8788400D02*
G75*
G02*
X16205200Y-8788400I25400J0D01*
G01*
X16205200Y-9550400D02*
G75*
G02*
X16154400Y-9550400I-25400J0D01*
G01*
X16154400Y-9550400D02*
G75*
G02*
X16205200Y-9550400I25400J0D01*
G01*
X16205200Y-9702800D02*
G75*
G02*
X16154400Y-9702800I-25400J0D01*
G01*
X16154400Y-9702800D02*
G75*
G02*
X16205200Y-9702800I25400J0D01*
G01*
X16205200Y-10312400D02*
G75*
G02*
X16154400Y-10312400I-25400J0D01*
G01*
X16154400Y-10312400D02*
G75*
G02*
X16205200Y-10312400I25400J0D01*
G01*
X16205200Y-10464800D02*
G75*
G02*
X16154400Y-10464800I-25400J0D01*
G01*
X16154400Y-10464800D02*
G75*
G02*
X16205200Y-10464800I25400J0D01*
G01*
X16205200Y-11074400D02*
G75*
G02*
X16154400Y-11074400I-25400J0D01*
G01*
X16154400Y-11074400D02*
G75*
G02*
X16205200Y-11074400I25400J0D01*
G01*
X16205200Y-11226800D02*
G75*
G02*
X16154400Y-11226800I-25400J0D01*
G01*
X16154400Y-11226800D02*
G75*
G02*
X16205200Y-11226800I25400J0D01*
G01*
X16205200Y-11836400D02*
G75*
G02*
X16154400Y-11836400I-25400J0D01*
G01*
X16154400Y-11836400D02*
G75*
G02*
X16205200Y-11836400I25400J0D01*
G01*
X16205200Y-11988800D02*
G75*
G02*
X16154400Y-11988800I-25400J0D01*
G01*
X16154400Y-11988800D02*
G75*
G02*
X16205200Y-11988800I25400J0D01*
G01*
X16205200Y-12598400D02*
G75*
G02*
X16154400Y-12598400I-25400J0D01*
G01*
X16154400Y-12598400D02*
G75*
G02*
X16205200Y-12598400I25400J0D01*
G01*
X16205200Y-12750800D02*
G75*
G02*
X16154400Y-12750800I-25400J0D01*
G01*
X16154400Y-12750800D02*
G75*
G02*
X16205200Y-12750800I25400J0D01*
G01*
X16205200Y-13360400D02*
G75*
G02*
X16154400Y-13360400I-25400J0D01*
G01*
X16154400Y-13360400D02*
G75*
G02*
X16205200Y-13360400I25400J0D01*
G01*
X16205200Y-13512800D02*
G75*
G02*
X16154400Y-13512800I-25400J0D01*
G01*
X16154400Y-13512800D02*
G75*
G02*
X16205200Y-13512800I25400J0D01*
G01*
X16205519Y-8936572D02*
G75*
G02*
X16154719Y-8936572I-25400J0D01*
G01*
X16154719Y-8936572D02*
G75*
G02*
X16205519Y-8936572I25400J0D01*
G01*
X16332200Y-8432800D02*
G75*
G02*
X16281400Y-8432800I-25400J0D01*
G01*
X16281400Y-8432800D02*
G75*
G02*
X16332200Y-8432800I25400J0D01*
G01*
X16332200Y-9194800D02*
G75*
G02*
X16281400Y-9194800I-25400J0D01*
G01*
X16281400Y-9194800D02*
G75*
G02*
X16332200Y-9194800I25400J0D01*
G01*
X16332200Y-9956800D02*
G75*
G02*
X16281400Y-9956800I-25400J0D01*
G01*
X16281400Y-9956800D02*
G75*
G02*
X16332200Y-9956800I25400J0D01*
G01*
X16332200Y-10718800D02*
G75*
G02*
X16281400Y-10718800I-25400J0D01*
G01*
X16281400Y-10718800D02*
G75*
G02*
X16332200Y-10718800I25400J0D01*
G01*
X16332200Y-11480800D02*
G75*
G02*
X16281400Y-11480800I-25400J0D01*
G01*
X16281400Y-11480800D02*
G75*
G02*
X16332200Y-11480800I25400J0D01*
G01*
X16332200Y-12242800D02*
G75*
G02*
X16281400Y-12242800I-25400J0D01*
G01*
X16281400Y-12242800D02*
G75*
G02*
X16332200Y-12242800I25400J0D01*
G01*
X16332200Y-13004800D02*
G75*
G02*
X16281400Y-13004800I-25400J0D01*
G01*
X16281400Y-13004800D02*
G75*
G02*
X16332200Y-13004800I25400J0D01*
G01*
X16332200Y-13766800D02*
G75*
G02*
X16281400Y-13766800I-25400J0D01*
G01*
X16281400Y-13766800D02*
G75*
G02*
X16332200Y-13766800I25400J0D01*
G01*
X16357600Y-8026400D02*
G75*
G02*
X16306800Y-8026400I-25400J0D01*
G01*
X16306800Y-8026400D02*
G75*
G02*
X16357600Y-8026400I25400J0D01*
G01*
X16357600Y-8178800D02*
G75*
G02*
X16306800Y-8178800I-25400J0D01*
G01*
X16306800Y-8178800D02*
G75*
G02*
X16357600Y-8178800I25400J0D01*
G01*
X16357600Y-8788400D02*
G75*
G02*
X16306800Y-8788400I-25400J0D01*
G01*
X16306800Y-8788400D02*
G75*
G02*
X16357600Y-8788400I25400J0D01*
G01*
X16357600Y-8940800D02*
G75*
G02*
X16306800Y-8940800I-25400J0D01*
G01*
X16306800Y-8940800D02*
G75*
G02*
X16357600Y-8940800I25400J0D01*
G01*
X16357600Y-9550400D02*
G75*
G02*
X16306800Y-9550400I-25400J0D01*
G01*
X16306800Y-9550400D02*
G75*
G02*
X16357600Y-9550400I25400J0D01*
G01*
X16357600Y-9702800D02*
G75*
G02*
X16306800Y-9702800I-25400J0D01*
G01*
X16306800Y-9702800D02*
G75*
G02*
X16357600Y-9702800I25400J0D01*
G01*
X16357600Y-10312400D02*
G75*
G02*
X16306800Y-10312400I-25400J0D01*
G01*
X16306800Y-10312400D02*
G75*
G02*
X16357600Y-10312400I25400J0D01*
G01*
X16357600Y-10464800D02*
G75*
G02*
X16306800Y-10464800I-25400J0D01*
G01*
X16306800Y-10464800D02*
G75*
G02*
X16357600Y-10464800I25400J0D01*
G01*
X16357600Y-11074400D02*
G75*
G02*
X16306800Y-11074400I-25400J0D01*
G01*
X16306800Y-11074400D02*
G75*
G02*
X16357600Y-11074400I25400J0D01*
G01*
X16357600Y-11226800D02*
G75*
G02*
X16306800Y-11226800I-25400J0D01*
G01*
X16306800Y-11226800D02*
G75*
G02*
X16357600Y-11226800I25400J0D01*
G01*
X16357600Y-11836400D02*
G75*
G02*
X16306800Y-11836400I-25400J0D01*
G01*
X16306800Y-11836400D02*
G75*
G02*
X16357600Y-11836400I25400J0D01*
G01*
X16357600Y-11988800D02*
G75*
G02*
X16306800Y-11988800I-25400J0D01*
G01*
X16306800Y-11988800D02*
G75*
G02*
X16357600Y-11988800I25400J0D01*
G01*
X16357600Y-12598400D02*
G75*
G02*
X16306800Y-12598400I-25400J0D01*
G01*
X16306800Y-12598400D02*
G75*
G02*
X16357600Y-12598400I25400J0D01*
G01*
X16357600Y-12750800D02*
G75*
G02*
X16306800Y-12750800I-25400J0D01*
G01*
X16306800Y-12750800D02*
G75*
G02*
X16357600Y-12750800I25400J0D01*
G01*
X16357600Y-13360400D02*
G75*
G02*
X16306800Y-13360400I-25400J0D01*
G01*
X16306800Y-13360400D02*
G75*
G02*
X16357600Y-13360400I25400J0D01*
G01*
X16357600Y-13512800D02*
G75*
G02*
X16306800Y-13512800I-25400J0D01*
G01*
X16306800Y-13512800D02*
G75*
G02*
X16357600Y-13512800I25400J0D01*
G01*
X17272000Y-13004800D02*
G75*
G02*
X17221200Y-13004800I-25400J0D01*
G01*
X17221200Y-13004800D02*
G75*
G02*
X17272000Y-13004800I25400J0D01*
G01*
X17297400Y-8432800D02*
G75*
G02*
X17246600Y-8432800I-25400J0D01*
G01*
X17246600Y-8432800D02*
G75*
G02*
X17297400Y-8432800I25400J0D01*
G01*
X17297400Y-9194800D02*
G75*
G02*
X17246600Y-9194800I-25400J0D01*
G01*
X17246600Y-9194800D02*
G75*
G02*
X17297400Y-9194800I25400J0D01*
G01*
X17297400Y-9956800D02*
G75*
G02*
X17246600Y-9956800I-25400J0D01*
G01*
X17246600Y-9956800D02*
G75*
G02*
X17297400Y-9956800I25400J0D01*
G01*
X17297400Y-10718800D02*
G75*
G02*
X17246600Y-10718800I-25400J0D01*
G01*
X17246600Y-10718800D02*
G75*
G02*
X17297400Y-10718800I25400J0D01*
G01*
X17297400Y-11480800D02*
G75*
G02*
X17246600Y-11480800I-25400J0D01*
G01*
X17246600Y-11480800D02*
G75*
G02*
X17297400Y-11480800I25400J0D01*
G01*
X17297400Y-12242800D02*
G75*
G02*
X17246600Y-12242800I-25400J0D01*
G01*
X17246600Y-12242800D02*
G75*
G02*
X17297400Y-12242800I25400J0D01*
G01*
X17297400Y-13766800D02*
G75*
G02*
X17246600Y-13766800I-25400J0D01*
G01*
X17246600Y-13766800D02*
G75*
G02*
X17297400Y-13766800I25400J0D01*
G01*
X17322800Y-8026400D02*
G75*
G02*
X17272000Y-8026400I-25400J0D01*
G01*
X17272000Y-8026400D02*
G75*
G02*
X17322800Y-8026400I25400J0D01*
G01*
X17322800Y-8178800D02*
G75*
G02*
X17272000Y-8178800I-25400J0D01*
G01*
X17272000Y-8178800D02*
G75*
G02*
X17322800Y-8178800I25400J0D01*
G01*
X17322800Y-8788400D02*
G75*
G02*
X17272000Y-8788400I-25400J0D01*
G01*
X17272000Y-8788400D02*
G75*
G02*
X17322800Y-8788400I25400J0D01*
G01*
X17322800Y-9550400D02*
G75*
G02*
X17272000Y-9550400I-25400J0D01*
G01*
X17272000Y-9550400D02*
G75*
G02*
X17322800Y-9550400I25400J0D01*
G01*
X17322800Y-9702800D02*
G75*
G02*
X17272000Y-9702800I-25400J0D01*
G01*
X17272000Y-9702800D02*
G75*
G02*
X17322800Y-9702800I25400J0D01*
G01*
X17322800Y-10312400D02*
G75*
G02*
X17272000Y-10312400I-25400J0D01*
G01*
X17272000Y-10312400D02*
G75*
G02*
X17322800Y-10312400I25400J0D01*
G01*
X17322800Y-10464800D02*
G75*
G02*
X17272000Y-10464800I-25400J0D01*
G01*
X17272000Y-10464800D02*
G75*
G02*
X17322800Y-10464800I25400J0D01*
G01*
X17322800Y-11074400D02*
G75*
G02*
X17272000Y-11074400I-25400J0D01*
G01*
X17272000Y-11074400D02*
G75*
G02*
X17322800Y-11074400I25400J0D01*
G01*
X17322800Y-11226800D02*
G75*
G02*
X17272000Y-11226800I-25400J0D01*
G01*
X17272000Y-11226800D02*
G75*
G02*
X17322800Y-11226800I25400J0D01*
G01*
X17322800Y-11836400D02*
G75*
G02*
X17272000Y-11836400I-25400J0D01*
G01*
X17272000Y-11836400D02*
G75*
G02*
X17322800Y-11836400I25400J0D01*
G01*
X17322800Y-11988800D02*
G75*
G02*
X17272000Y-11988800I-25400J0D01*
G01*
X17272000Y-11988800D02*
G75*
G02*
X17322800Y-11988800I25400J0D01*
G01*
X17322800Y-12598400D02*
G75*
G02*
X17272000Y-12598400I-25400J0D01*
G01*
X17272000Y-12598400D02*
G75*
G02*
X17322800Y-12598400I25400J0D01*
G01*
X17322800Y-12750800D02*
G75*
G02*
X17272000Y-12750800I-25400J0D01*
G01*
X17272000Y-12750800D02*
G75*
G02*
X17322800Y-12750800I25400J0D01*
G01*
X17322800Y-13360400D02*
G75*
G02*
X17272000Y-13360400I-25400J0D01*
G01*
X17272000Y-13360400D02*
G75*
G02*
X17322800Y-13360400I25400J0D01*
G01*
X17322800Y-13512800D02*
G75*
G02*
X17272000Y-13512800I-25400J0D01*
G01*
X17272000Y-13512800D02*
G75*
G02*
X17322800Y-13512800I25400J0D01*
G01*
X17323119Y-8936572D02*
G75*
G02*
X17272319Y-8936572I-25400J0D01*
G01*
X17272319Y-8936572D02*
G75*
G02*
X17323119Y-8936572I25400J0D01*
G01*
X17424400Y-13004800D02*
G75*
G02*
X17373600Y-13004800I-25400J0D01*
G01*
X17373600Y-13004800D02*
G75*
G02*
X17424400Y-13004800I25400J0D01*
G01*
X17449800Y-8432800D02*
G75*
G02*
X17399000Y-8432800I-25400J0D01*
G01*
X17399000Y-8432800D02*
G75*
G02*
X17449800Y-8432800I25400J0D01*
G01*
X17449800Y-9194800D02*
G75*
G02*
X17399000Y-9194800I-25400J0D01*
G01*
X17399000Y-9194800D02*
G75*
G02*
X17449800Y-9194800I25400J0D01*
G01*
X17449800Y-9956800D02*
G75*
G02*
X17399000Y-9956800I-25400J0D01*
G01*
X17399000Y-9956800D02*
G75*
G02*
X17449800Y-9956800I25400J0D01*
G01*
X17449800Y-10718800D02*
G75*
G02*
X17399000Y-10718800I-25400J0D01*
G01*
X17399000Y-10718800D02*
G75*
G02*
X17449800Y-10718800I25400J0D01*
G01*
X17449800Y-11480800D02*
G75*
G02*
X17399000Y-11480800I-25400J0D01*
G01*
X17399000Y-11480800D02*
G75*
G02*
X17449800Y-11480800I25400J0D01*
G01*
X17449800Y-12242800D02*
G75*
G02*
X17399000Y-12242800I-25400J0D01*
G01*
X17399000Y-12242800D02*
G75*
G02*
X17449800Y-12242800I25400J0D01*
G01*
X17449800Y-13766800D02*
G75*
G02*
X17399000Y-13766800I-25400J0D01*
G01*
X17399000Y-13766800D02*
G75*
G02*
X17449800Y-13766800I25400J0D01*
G01*
X17475200Y-8026400D02*
G75*
G02*
X17424400Y-8026400I-25400J0D01*
G01*
X17424400Y-8026400D02*
G75*
G02*
X17475200Y-8026400I25400J0D01*
G01*
X17475200Y-8178800D02*
G75*
G02*
X17424400Y-8178800I-25400J0D01*
G01*
X17424400Y-8178800D02*
G75*
G02*
X17475200Y-8178800I25400J0D01*
G01*
X17475200Y-8788400D02*
G75*
G02*
X17424400Y-8788400I-25400J0D01*
G01*
X17424400Y-8788400D02*
G75*
G02*
X17475200Y-8788400I25400J0D01*
G01*
X17475200Y-8940800D02*
G75*
G02*
X17424400Y-8940800I-25400J0D01*
G01*
X17424400Y-8940800D02*
G75*
G02*
X17475200Y-8940800I25400J0D01*
G01*
X17475200Y-9550400D02*
G75*
G02*
X17424400Y-9550400I-25400J0D01*
G01*
X17424400Y-9550400D02*
G75*
G02*
X17475200Y-9550400I25400J0D01*
G01*
X17475200Y-9702800D02*
G75*
G02*
X17424400Y-9702800I-25400J0D01*
G01*
X17424400Y-9702800D02*
G75*
G02*
X17475200Y-9702800I25400J0D01*
G01*
X17475200Y-10312400D02*
G75*
G02*
X17424400Y-10312400I-25400J0D01*
G01*
X17424400Y-10312400D02*
G75*
G02*
X17475200Y-10312400I25400J0D01*
G01*
X17475200Y-10464800D02*
G75*
G02*
X17424400Y-10464800I-25400J0D01*
G01*
X17424400Y-10464800D02*
G75*
G02*
X17475200Y-10464800I25400J0D01*
G01*
X17475200Y-11074400D02*
G75*
G02*
X17424400Y-11074400I-25400J0D01*
G01*
X17424400Y-11074400D02*
G75*
G02*
X17475200Y-11074400I25400J0D01*
G01*
X17475200Y-11226800D02*
G75*
G02*
X17424400Y-11226800I-25400J0D01*
G01*
X17424400Y-11226800D02*
G75*
G02*
X17475200Y-11226800I25400J0D01*
G01*
X17475200Y-11836400D02*
G75*
G02*
X17424400Y-11836400I-25400J0D01*
G01*
X17424400Y-11836400D02*
G75*
G02*
X17475200Y-11836400I25400J0D01*
G01*
X17475200Y-11988800D02*
G75*
G02*
X17424400Y-11988800I-25400J0D01*
G01*
X17424400Y-11988800D02*
G75*
G02*
X17475200Y-11988800I25400J0D01*
G01*
X17475200Y-12598400D02*
G75*
G02*
X17424400Y-12598400I-25400J0D01*
G01*
X17424400Y-12598400D02*
G75*
G02*
X17475200Y-12598400I25400J0D01*
G01*
X17475200Y-12750800D02*
G75*
G02*
X17424400Y-12750800I-25400J0D01*
G01*
X17424400Y-12750800D02*
G75*
G02*
X17475200Y-12750800I25400J0D01*
G01*
X17475200Y-13360400D02*
G75*
G02*
X17424400Y-13360400I-25400J0D01*
G01*
X17424400Y-13360400D02*
G75*
G02*
X17475200Y-13360400I25400J0D01*
G01*
X17475200Y-13512800D02*
G75*
G02*
X17424400Y-13512800I-25400J0D01*
G01*
X17424400Y-13512800D02*
G75*
G02*
X17475200Y-13512800I25400J0D01*
G01*
X12395200Y-12415000D02*
X12395200Y-12495000D01*
X12355200Y-12455000D02*
X12435200Y-12455000D01*
X12395200Y-12905000D02*
X12395200Y-12985000D01*
X12355200Y-12945000D02*
X12435200Y-12945000D01*
X17634520Y-6889820D02*
X17634520Y-6826180D01*
X17570880Y-6826180D01*
X17570880Y-6889820D01*
X17634520Y-6889820D01*
X17634520Y-7194620D02*
X17634520Y-7130980D01*
X17570880Y-7130980D01*
X17570880Y-7194620D01*
X17634520Y-7194620D01*
X17634520Y-7499420D02*
X17634520Y-7435780D01*
X17570880Y-7435780D01*
X17570880Y-7499420D01*
X17634520Y-7499420D01*
X17888520Y-6889820D02*
X17888520Y-6826180D01*
X17824880Y-6826180D01*
X17824880Y-6889820D01*
X17888520Y-6889820D01*
X17888520Y-7194620D02*
X17888520Y-7130980D01*
X17824880Y-7130980D01*
X17824880Y-7194620D01*
X17888520Y-7194620D01*
X17888520Y-7499420D02*
X17888520Y-7435780D01*
X17824880Y-7435780D01*
X17824880Y-7499420D01*
X17888520Y-7499420D01*
X13385800Y-13029400D02*
X13435800Y-12979400D01*
X13385800Y-12929400D01*
X13335800Y-12979400D01*
X13385800Y-13029400D01*
X13385800Y-13283400D02*
X13435800Y-13233400D01*
X13385800Y-13183400D01*
X13335800Y-13233400D01*
X13385800Y-13283400D01*
X13639800Y-13029400D02*
X13689800Y-12979400D01*
X13639800Y-12929400D01*
X13589800Y-12979400D01*
X13639800Y-13029400D01*
X13639800Y-13283400D02*
X13689800Y-13233400D01*
X13639800Y-13183400D01*
X13589800Y-13233400D01*
X13639800Y-13283400D01*
X13893800Y-13029400D02*
X13943800Y-12979400D01*
X13893800Y-12929400D01*
X13843800Y-12979400D01*
X13893800Y-13029400D01*
X13893800Y-13283400D02*
X13943800Y-13233400D01*
X13893800Y-13183400D01*
X13843800Y-13233400D01*
X13893800Y-13283400D01*
D13*
X18396200Y-8063000D02*
X18526200Y-8193000D01*
X18526200Y-8063000D02*
X18396200Y-8193000D01*
X18526200Y-8128000D02*
G75*
G02*
X18396200Y-8128000I-65000J0D01*
G01*
X18396200Y-8128000D02*
G75*
G02*
X18526200Y-8128000I65000J0D01*
G01*
X18396200Y-8571000D02*
X18526200Y-8701000D01*
X18526200Y-8571000D02*
X18396200Y-8701000D01*
X18526200Y-8636000D02*
G75*
G02*
X18396200Y-8636000I-65000J0D01*
G01*
X18396200Y-8636000D02*
G75*
G02*
X18526200Y-8636000I65000J0D01*
G01*
X18396200Y-9079000D02*
X18526200Y-9209000D01*
X18526200Y-9079000D02*
X18396200Y-9209000D01*
X18526200Y-9144000D02*
G75*
G02*
X18396200Y-9144000I-65000J0D01*
G01*
X18396200Y-9144000D02*
G75*
G02*
X18526200Y-9144000I65000J0D01*
G01*
X18396200Y-9587000D02*
X18526200Y-9717000D01*
X18526200Y-9587000D02*
X18396200Y-9717000D01*
X18526200Y-9652000D02*
G75*
G02*
X18396200Y-9652000I-65000J0D01*
G01*
X18396200Y-9652000D02*
G75*
G02*
X18526200Y-9652000I65000J0D01*
G01*
X18396200Y-10095000D02*
X18526200Y-10225000D01*
X18526200Y-10095000D02*
X18396200Y-10225000D01*
X18526200Y-10160000D02*
G75*
G02*
X18396200Y-10160000I-65000J0D01*
G01*
X18396200Y-10160000D02*
G75*
G02*
X18526200Y-10160000I65000J0D01*
G01*
X18396200Y-10603000D02*
X18526200Y-10733000D01*
X18526200Y-10603000D02*
X18396200Y-10733000D01*
X18526200Y-10668000D02*
G75*
G02*
X18396200Y-10668000I-65000J0D01*
G01*
X18396200Y-10668000D02*
G75*
G02*
X18526200Y-10668000I65000J0D01*
G01*
X18396200Y-11111000D02*
X18526200Y-11241000D01*
X18526200Y-11111000D02*
X18396200Y-11241000D01*
X18526200Y-11176000D02*
G75*
G02*
X18396200Y-11176000I-65000J0D01*
G01*
X18396200Y-11176000D02*
G75*
G02*
X18526200Y-11176000I65000J0D01*
G01*
X18396200Y-11619000D02*
X18526200Y-11749000D01*
X18526200Y-11619000D02*
X18396200Y-11749000D01*
X18526200Y-11684000D02*
G75*
G02*
X18396200Y-11684000I-65000J0D01*
G01*
X18396200Y-11684000D02*
G75*
G02*
X18526200Y-11684000I65000J0D01*
G01*
X18396200Y-12127000D02*
X18526200Y-12257000D01*
X18526200Y-12127000D02*
X18396200Y-12257000D01*
X18526200Y-12192000D02*
G75*
G02*
X18396200Y-12192000I-65000J0D01*
G01*
X18396200Y-12192000D02*
G75*
G02*
X18526200Y-12192000I65000J0D01*
G01*
X18396200Y-12635000D02*
X18526200Y-12765000D01*
X18526200Y-12635000D02*
X18396200Y-12765000D01*
X18526200Y-12700000D02*
G75*
G02*
X18396200Y-12700000I-65000J0D01*
G01*
X18396200Y-12700000D02*
G75*
G02*
X18526200Y-12700000I65000J0D01*
G01*
D14*
X15017100Y-6127600D02*
X15157100Y-6267600D01*
X15157100Y-6127600D02*
X15017100Y-6267600D01*
X15087100Y-6127600D02*
X15087100Y-6267600D01*
X15017100Y-6197600D02*
X15157100Y-6197600D01*
X15525100Y-6127600D02*
X15665100Y-6267600D01*
X15665100Y-6127600D02*
X15525100Y-6267600D01*
X15595100Y-6127600D02*
X15595100Y-6267600D01*
X15525100Y-6197600D02*
X15665100Y-6197600D01*
D11*
X10164277Y-14537984D02*
X10164277Y-14337984D01*
X10164277Y-14337984D02*
X10211896Y-14337984D01*
X10211896Y-14337984D02*
X10240467Y-14347508D01*
X10240467Y-14347508D02*
X10259515Y-14366555D01*
X10259515Y-14366555D02*
X10269039Y-14385603D01*
X10269039Y-14385603D02*
X10278563Y-14423698D01*
X10278563Y-14423698D02*
X10278563Y-14452269D01*
X10278563Y-14452269D02*
X10269039Y-14490365D01*
X10269039Y-14490365D02*
X10259515Y-14509412D01*
X10259515Y-14509412D02*
X10240467Y-14528460D01*
X10240467Y-14528460D02*
X10211896Y-14537984D01*
X10211896Y-14537984D02*
X10164277Y-14537984D01*
X10364277Y-14537984D02*
X10364277Y-14404650D01*
X10364277Y-14442746D02*
X10373801Y-14423698D01*
X10373801Y-14423698D02*
X10383324Y-14414174D01*
X10383324Y-14414174D02*
X10402372Y-14404650D01*
X10402372Y-14404650D02*
X10421420Y-14404650D01*
X10488086Y-14537984D02*
X10488086Y-14404650D01*
X10488086Y-14337984D02*
X10478563Y-14347508D01*
X10478563Y-14347508D02*
X10488086Y-14357031D01*
X10488086Y-14357031D02*
X10497610Y-14347508D01*
X10497610Y-14347508D02*
X10488086Y-14337984D01*
X10488086Y-14337984D02*
X10488086Y-14357031D01*
X10611896Y-14537984D02*
X10592848Y-14528460D01*
X10592848Y-14528460D02*
X10583324Y-14509412D01*
X10583324Y-14509412D02*
X10583324Y-14337984D01*
X10716658Y-14537984D02*
X10697610Y-14528460D01*
X10697610Y-14528460D02*
X10688086Y-14509412D01*
X10688086Y-14509412D02*
X10688086Y-14337984D01*
X10945229Y-14537984D02*
X10945229Y-14337984D01*
X10945229Y-14337984D02*
X11011896Y-14480841D01*
X11011896Y-14480841D02*
X11078563Y-14337984D01*
X11078563Y-14337984D02*
X11078563Y-14537984D01*
X11259515Y-14537984D02*
X11259515Y-14433222D01*
X11259515Y-14433222D02*
X11249991Y-14414174D01*
X11249991Y-14414174D02*
X11230943Y-14404650D01*
X11230943Y-14404650D02*
X11192848Y-14404650D01*
X11192848Y-14404650D02*
X11173801Y-14414174D01*
X11259515Y-14528460D02*
X11240467Y-14537984D01*
X11240467Y-14537984D02*
X11192848Y-14537984D01*
X11192848Y-14537984D02*
X11173801Y-14528460D01*
X11173801Y-14528460D02*
X11164277Y-14509412D01*
X11164277Y-14509412D02*
X11164277Y-14490365D01*
X11164277Y-14490365D02*
X11173801Y-14471317D01*
X11173801Y-14471317D02*
X11192848Y-14461793D01*
X11192848Y-14461793D02*
X11240467Y-14461793D01*
X11240467Y-14461793D02*
X11259515Y-14452269D01*
X11354753Y-14404650D02*
X11354753Y-14604650D01*
X11354753Y-14414174D02*
X11373801Y-14404650D01*
X11373801Y-14404650D02*
X11411896Y-14404650D01*
X11411896Y-14404650D02*
X11430943Y-14414174D01*
X11430943Y-14414174D02*
X11440467Y-14423698D01*
X11440467Y-14423698D02*
X11449991Y-14442746D01*
X11449991Y-14442746D02*
X11449991Y-14499888D01*
X11449991Y-14499888D02*
X11440467Y-14518936D01*
X11440467Y-14518936D02*
X11430943Y-14528460D01*
X11430943Y-14528460D02*
X11411896Y-14537984D01*
X11411896Y-14537984D02*
X11373801Y-14537984D01*
X11373801Y-14537984D02*
X11354753Y-14528460D01*
X11535705Y-14518936D02*
X11545229Y-14528460D01*
X11545229Y-14528460D02*
X11535705Y-14537984D01*
X11535705Y-14537984D02*
X11526182Y-14528460D01*
X11526182Y-14528460D02*
X11535705Y-14518936D01*
X11535705Y-14518936D02*
X11535705Y-14537984D01*
X11535705Y-14414174D02*
X11545229Y-14423698D01*
X11545229Y-14423698D02*
X11535705Y-14433222D01*
X11535705Y-14433222D02*
X11526182Y-14423698D01*
X11526182Y-14423698D02*
X11535705Y-14414174D01*
X11535705Y-14414174D02*
X11535705Y-14433222D01*
D12*
X9878100Y-14853800D02*
X9903500Y-14879200D01*
X9903500Y-14853800D02*
X9878100Y-14879200D01*
D11*
X10202372Y-14757984D02*
X10221420Y-14757984D01*
X10221420Y-14757984D02*
X10240467Y-14767508D01*
X10240467Y-14767508D02*
X10249991Y-14777031D01*
X10249991Y-14777031D02*
X10259515Y-14796079D01*
X10259515Y-14796079D02*
X10269039Y-14834174D01*
X10269039Y-14834174D02*
X10269039Y-14881793D01*
X10269039Y-14881793D02*
X10259515Y-14919888D01*
X10259515Y-14919888D02*
X10249991Y-14938936D01*
X10249991Y-14938936D02*
X10240467Y-14948460D01*
X10240467Y-14948460D02*
X10221420Y-14957984D01*
X10221420Y-14957984D02*
X10202372Y-14957984D01*
X10202372Y-14957984D02*
X10183324Y-14948460D01*
X10183324Y-14948460D02*
X10173801Y-14938936D01*
X10173801Y-14938936D02*
X10164277Y-14919888D01*
X10164277Y-14919888D02*
X10154753Y-14881793D01*
X10154753Y-14881793D02*
X10154753Y-14834174D01*
X10154753Y-14834174D02*
X10164277Y-14796079D01*
X10164277Y-14796079D02*
X10173801Y-14777031D01*
X10173801Y-14777031D02*
X10183324Y-14767508D01*
X10183324Y-14767508D02*
X10202372Y-14757984D01*
X10354753Y-14938936D02*
X10364277Y-14948460D01*
X10364277Y-14948460D02*
X10354753Y-14957984D01*
X10354753Y-14957984D02*
X10345229Y-14948460D01*
X10345229Y-14948460D02*
X10354753Y-14938936D01*
X10354753Y-14938936D02*
X10354753Y-14957984D01*
X10440467Y-14777031D02*
X10449991Y-14767508D01*
X10449991Y-14767508D02*
X10469039Y-14757984D01*
X10469039Y-14757984D02*
X10516658Y-14757984D01*
X10516658Y-14757984D02*
X10535705Y-14767508D01*
X10535705Y-14767508D02*
X10545229Y-14777031D01*
X10545229Y-14777031D02*
X10554753Y-14796079D01*
X10554753Y-14796079D02*
X10554753Y-14815127D01*
X10554753Y-14815127D02*
X10545229Y-14843698D01*
X10545229Y-14843698D02*
X10430944Y-14957984D01*
X10430944Y-14957984D02*
X10554753Y-14957984D01*
X10735705Y-14757984D02*
X10640467Y-14757984D01*
X10640467Y-14757984D02*
X10630944Y-14853222D01*
X10630944Y-14853222D02*
X10640467Y-14843698D01*
X10640467Y-14843698D02*
X10659515Y-14834174D01*
X10659515Y-14834174D02*
X10707134Y-14834174D01*
X10707134Y-14834174D02*
X10726182Y-14843698D01*
X10726182Y-14843698D02*
X10735705Y-14853222D01*
X10735705Y-14853222D02*
X10745229Y-14872269D01*
X10745229Y-14872269D02*
X10745229Y-14919888D01*
X10745229Y-14919888D02*
X10735705Y-14938936D01*
X10735705Y-14938936D02*
X10726182Y-14948460D01*
X10726182Y-14948460D02*
X10707134Y-14957984D01*
X10707134Y-14957984D02*
X10659515Y-14957984D01*
X10659515Y-14957984D02*
X10640467Y-14948460D01*
X10640467Y-14948460D02*
X10630944Y-14938936D01*
X10916658Y-14824650D02*
X10916658Y-14957984D01*
X10869039Y-14748460D02*
X10821420Y-14891317D01*
X10821420Y-14891317D02*
X10945229Y-14891317D01*
X11021420Y-14957984D02*
X11021420Y-14824650D01*
X11021420Y-14843698D02*
X11030944Y-14834174D01*
X11030944Y-14834174D02*
X11049991Y-14824650D01*
X11049991Y-14824650D02*
X11078563Y-14824650D01*
X11078563Y-14824650D02*
X11097610Y-14834174D01*
X11097610Y-14834174D02*
X11107134Y-14853222D01*
X11107134Y-14853222D02*
X11107134Y-14957984D01*
X11107134Y-14853222D02*
X11116658Y-14834174D01*
X11116658Y-14834174D02*
X11135705Y-14824650D01*
X11135705Y-14824650D02*
X11164277Y-14824650D01*
X11164277Y-14824650D02*
X11183325Y-14834174D01*
X11183325Y-14834174D02*
X11192848Y-14853222D01*
X11192848Y-14853222D02*
X11192848Y-14957984D01*
X11288086Y-14957984D02*
X11288086Y-14824650D01*
X11288086Y-14843698D02*
X11297610Y-14834174D01*
X11297610Y-14834174D02*
X11316658Y-14824650D01*
X11316658Y-14824650D02*
X11345229Y-14824650D01*
X11345229Y-14824650D02*
X11364277Y-14834174D01*
X11364277Y-14834174D02*
X11373801Y-14853222D01*
X11373801Y-14853222D02*
X11373801Y-14957984D01*
X11373801Y-14853222D02*
X11383324Y-14834174D01*
X11383324Y-14834174D02*
X11402372Y-14824650D01*
X11402372Y-14824650D02*
X11430943Y-14824650D01*
X11430943Y-14824650D02*
X11449991Y-14834174D01*
X11449991Y-14834174D02*
X11459515Y-14853222D01*
X11459515Y-14853222D02*
X11459515Y-14957984D01*
X11849991Y-14748460D02*
X11678563Y-15005603D01*
X12107134Y-14757984D02*
X12126182Y-14757984D01*
X12126182Y-14757984D02*
X12145229Y-14767508D01*
X12145229Y-14767508D02*
X12154753Y-14777031D01*
X12154753Y-14777031D02*
X12164277Y-14796079D01*
X12164277Y-14796079D02*
X12173801Y-14834174D01*
X12173801Y-14834174D02*
X12173801Y-14881793D01*
X12173801Y-14881793D02*
X12164277Y-14919888D01*
X12164277Y-14919888D02*
X12154753Y-14938936D01*
X12154753Y-14938936D02*
X12145229Y-14948460D01*
X12145229Y-14948460D02*
X12126182Y-14957984D01*
X12126182Y-14957984D02*
X12107134Y-14957984D01*
X12107134Y-14957984D02*
X12088086Y-14948460D01*
X12088086Y-14948460D02*
X12078563Y-14938936D01*
X12078563Y-14938936D02*
X12069039Y-14919888D01*
X12069039Y-14919888D02*
X12059515Y-14881793D01*
X12059515Y-14881793D02*
X12059515Y-14834174D01*
X12059515Y-14834174D02*
X12069039Y-14796079D01*
X12069039Y-14796079D02*
X12078563Y-14777031D01*
X12078563Y-14777031D02*
X12088086Y-14767508D01*
X12088086Y-14767508D02*
X12107134Y-14757984D01*
X12259515Y-14938936D02*
X12269039Y-14948460D01*
X12269039Y-14948460D02*
X12259515Y-14957984D01*
X12259515Y-14957984D02*
X12249991Y-14948460D01*
X12249991Y-14948460D02*
X12259515Y-14938936D01*
X12259515Y-14938936D02*
X12259515Y-14957984D01*
X12392848Y-14757984D02*
X12411896Y-14757984D01*
X12411896Y-14757984D02*
X12430944Y-14767508D01*
X12430944Y-14767508D02*
X12440467Y-14777031D01*
X12440467Y-14777031D02*
X12449991Y-14796079D01*
X12449991Y-14796079D02*
X12459515Y-14834174D01*
X12459515Y-14834174D02*
X12459515Y-14881793D01*
X12459515Y-14881793D02*
X12449991Y-14919888D01*
X12449991Y-14919888D02*
X12440467Y-14938936D01*
X12440467Y-14938936D02*
X12430944Y-14948460D01*
X12430944Y-14948460D02*
X12411896Y-14957984D01*
X12411896Y-14957984D02*
X12392848Y-14957984D01*
X12392848Y-14957984D02*
X12373801Y-14948460D01*
X12373801Y-14948460D02*
X12364277Y-14938936D01*
X12364277Y-14938936D02*
X12354753Y-14919888D01*
X12354753Y-14919888D02*
X12345229Y-14881793D01*
X12345229Y-14881793D02*
X12345229Y-14834174D01*
X12345229Y-14834174D02*
X12354753Y-14796079D01*
X12354753Y-14796079D02*
X12364277Y-14777031D01*
X12364277Y-14777031D02*
X12373801Y-14767508D01*
X12373801Y-14767508D02*
X12392848Y-14757984D01*
X12649991Y-14957984D02*
X12535706Y-14957984D01*
X12592848Y-14957984D02*
X12592848Y-14757984D01*
X12592848Y-14757984D02*
X12573801Y-14786555D01*
X12573801Y-14786555D02*
X12554753Y-14805603D01*
X12554753Y-14805603D02*
X12535706Y-14815127D01*
X12773801Y-14757984D02*
X12792848Y-14757984D01*
X12792848Y-14757984D02*
X12811896Y-14767508D01*
X12811896Y-14767508D02*
X12821420Y-14777031D01*
X12821420Y-14777031D02*
X12830944Y-14796079D01*
X12830944Y-14796079D02*
X12840467Y-14834174D01*
X12840467Y-14834174D02*
X12840467Y-14881793D01*
X12840467Y-14881793D02*
X12830944Y-14919888D01*
X12830944Y-14919888D02*
X12821420Y-14938936D01*
X12821420Y-14938936D02*
X12811896Y-14948460D01*
X12811896Y-14948460D02*
X12792848Y-14957984D01*
X12792848Y-14957984D02*
X12773801Y-14957984D01*
X12773801Y-14957984D02*
X12754753Y-14948460D01*
X12754753Y-14948460D02*
X12745229Y-14938936D01*
X12745229Y-14938936D02*
X12735706Y-14919888D01*
X12735706Y-14919888D02*
X12726182Y-14881793D01*
X12726182Y-14881793D02*
X12726182Y-14834174D01*
X12726182Y-14834174D02*
X12735706Y-14796079D01*
X12735706Y-14796079D02*
X12745229Y-14777031D01*
X12745229Y-14777031D02*
X12754753Y-14767508D01*
X12754753Y-14767508D02*
X12773801Y-14757984D01*
X12964277Y-14757984D02*
X12983325Y-14757984D01*
X12983325Y-14757984D02*
X13002372Y-14767508D01*
X13002372Y-14767508D02*
X13011896Y-14777031D01*
X13011896Y-14777031D02*
X13021420Y-14796079D01*
X13021420Y-14796079D02*
X13030944Y-14834174D01*
X13030944Y-14834174D02*
X13030944Y-14881793D01*
X13030944Y-14881793D02*
X13021420Y-14919888D01*
X13021420Y-14919888D02*
X13011896Y-14938936D01*
X13011896Y-14938936D02*
X13002372Y-14948460D01*
X13002372Y-14948460D02*
X12983325Y-14957984D01*
X12983325Y-14957984D02*
X12964277Y-14957984D01*
X12964277Y-14957984D02*
X12945229Y-14948460D01*
X12945229Y-14948460D02*
X12935706Y-14938936D01*
X12935706Y-14938936D02*
X12926182Y-14919888D01*
X12926182Y-14919888D02*
X12916658Y-14881793D01*
X12916658Y-14881793D02*
X12916658Y-14834174D01*
X12916658Y-14834174D02*
X12926182Y-14796079D01*
X12926182Y-14796079D02*
X12935706Y-14777031D01*
X12935706Y-14777031D02*
X12945229Y-14767508D01*
X12945229Y-14767508D02*
X12964277Y-14757984D01*
X13107134Y-14757984D02*
X13107134Y-14796079D01*
X13183325Y-14757984D02*
X13183325Y-14796079D01*
X13478563Y-15034174D02*
X13469039Y-15024650D01*
X13469039Y-15024650D02*
X13449991Y-14996079D01*
X13449991Y-14996079D02*
X13440468Y-14977031D01*
X13440468Y-14977031D02*
X13430944Y-14948460D01*
X13430944Y-14948460D02*
X13421420Y-14900841D01*
X13421420Y-14900841D02*
X13421420Y-14862746D01*
X13421420Y-14862746D02*
X13430944Y-14815127D01*
X13430944Y-14815127D02*
X13440468Y-14786555D01*
X13440468Y-14786555D02*
X13449991Y-14767508D01*
X13449991Y-14767508D02*
X13469039Y-14738936D01*
X13469039Y-14738936D02*
X13478563Y-14729412D01*
X13659515Y-14957984D02*
X13545229Y-14957984D01*
X13602372Y-14957984D02*
X13602372Y-14757984D01*
X13602372Y-14757984D02*
X13583325Y-14786555D01*
X13583325Y-14786555D02*
X13564277Y-14805603D01*
X13564277Y-14805603D02*
X13545229Y-14815127D01*
X13840468Y-14757984D02*
X13745229Y-14757984D01*
X13745229Y-14757984D02*
X13735706Y-14853222D01*
X13735706Y-14853222D02*
X13745229Y-14843698D01*
X13745229Y-14843698D02*
X13764277Y-14834174D01*
X13764277Y-14834174D02*
X13811896Y-14834174D01*
X13811896Y-14834174D02*
X13830944Y-14843698D01*
X13830944Y-14843698D02*
X13840468Y-14853222D01*
X13840468Y-14853222D02*
X13849991Y-14872269D01*
X13849991Y-14872269D02*
X13849991Y-14919888D01*
X13849991Y-14919888D02*
X13840468Y-14938936D01*
X13840468Y-14938936D02*
X13830944Y-14948460D01*
X13830944Y-14948460D02*
X13811896Y-14957984D01*
X13811896Y-14957984D02*
X13764277Y-14957984D01*
X13764277Y-14957984D02*
X13745229Y-14948460D01*
X13745229Y-14948460D02*
X13735706Y-14938936D01*
X13973801Y-14757984D02*
X13992849Y-14757984D01*
X13992849Y-14757984D02*
X14011896Y-14767508D01*
X14011896Y-14767508D02*
X14021420Y-14777031D01*
X14021420Y-14777031D02*
X14030944Y-14796079D01*
X14030944Y-14796079D02*
X14040468Y-14834174D01*
X14040468Y-14834174D02*
X14040468Y-14881793D01*
X14040468Y-14881793D02*
X14030944Y-14919888D01*
X14030944Y-14919888D02*
X14021420Y-14938936D01*
X14021420Y-14938936D02*
X14011896Y-14948460D01*
X14011896Y-14948460D02*
X13992849Y-14957984D01*
X13992849Y-14957984D02*
X13973801Y-14957984D01*
X13973801Y-14957984D02*
X13954753Y-14948460D01*
X13954753Y-14948460D02*
X13945229Y-14938936D01*
X13945229Y-14938936D02*
X13935706Y-14919888D01*
X13935706Y-14919888D02*
X13926182Y-14881793D01*
X13926182Y-14881793D02*
X13926182Y-14834174D01*
X13926182Y-14834174D02*
X13935706Y-14796079D01*
X13935706Y-14796079D02*
X13945229Y-14777031D01*
X13945229Y-14777031D02*
X13954753Y-14767508D01*
X13954753Y-14767508D02*
X13973801Y-14757984D01*
X14278563Y-14957984D02*
X14278563Y-14757984D01*
X14364277Y-14957984D02*
X14364277Y-14853222D01*
X14364277Y-14853222D02*
X14354753Y-14834174D01*
X14354753Y-14834174D02*
X14335706Y-14824650D01*
X14335706Y-14824650D02*
X14307134Y-14824650D01*
X14307134Y-14824650D02*
X14288087Y-14834174D01*
X14288087Y-14834174D02*
X14278563Y-14843698D01*
X14488087Y-14957984D02*
X14469039Y-14948460D01*
X14469039Y-14948460D02*
X14459515Y-14938936D01*
X14459515Y-14938936D02*
X14449991Y-14919888D01*
X14449991Y-14919888D02*
X14449991Y-14862746D01*
X14449991Y-14862746D02*
X14459515Y-14843698D01*
X14459515Y-14843698D02*
X14469039Y-14834174D01*
X14469039Y-14834174D02*
X14488087Y-14824650D01*
X14488087Y-14824650D02*
X14516658Y-14824650D01*
X14516658Y-14824650D02*
X14535706Y-14834174D01*
X14535706Y-14834174D02*
X14545230Y-14843698D01*
X14545230Y-14843698D02*
X14554753Y-14862746D01*
X14554753Y-14862746D02*
X14554753Y-14919888D01*
X14554753Y-14919888D02*
X14545230Y-14938936D01*
X14545230Y-14938936D02*
X14535706Y-14948460D01*
X14535706Y-14948460D02*
X14516658Y-14957984D01*
X14516658Y-14957984D02*
X14488087Y-14957984D01*
X14669039Y-14957984D02*
X14649991Y-14948460D01*
X14649991Y-14948460D02*
X14640468Y-14929412D01*
X14640468Y-14929412D02*
X14640468Y-14757984D01*
X14821420Y-14948460D02*
X14802372Y-14957984D01*
X14802372Y-14957984D02*
X14764277Y-14957984D01*
X14764277Y-14957984D02*
X14745230Y-14948460D01*
X14745230Y-14948460D02*
X14735706Y-14929412D01*
X14735706Y-14929412D02*
X14735706Y-14853222D01*
X14735706Y-14853222D02*
X14745230Y-14834174D01*
X14745230Y-14834174D02*
X14764277Y-14824650D01*
X14764277Y-14824650D02*
X14802372Y-14824650D01*
X14802372Y-14824650D02*
X14821420Y-14834174D01*
X14821420Y-14834174D02*
X14830944Y-14853222D01*
X14830944Y-14853222D02*
X14830944Y-14872269D01*
X14830944Y-14872269D02*
X14735706Y-14891317D01*
X14907134Y-14948460D02*
X14926182Y-14957984D01*
X14926182Y-14957984D02*
X14964277Y-14957984D01*
X14964277Y-14957984D02*
X14983325Y-14948460D01*
X14983325Y-14948460D02*
X14992849Y-14929412D01*
X14992849Y-14929412D02*
X14992849Y-14919888D01*
X14992849Y-14919888D02*
X14983325Y-14900841D01*
X14983325Y-14900841D02*
X14964277Y-14891317D01*
X14964277Y-14891317D02*
X14935706Y-14891317D01*
X14935706Y-14891317D02*
X14916658Y-14881793D01*
X14916658Y-14881793D02*
X14907134Y-14862746D01*
X14907134Y-14862746D02*
X14907134Y-14853222D01*
X14907134Y-14853222D02*
X14916658Y-14834174D01*
X14916658Y-14834174D02*
X14935706Y-14824650D01*
X14935706Y-14824650D02*
X14964277Y-14824650D01*
X14964277Y-14824650D02*
X14983325Y-14834174D01*
X15059515Y-15034174D02*
X15069039Y-15024650D01*
X15069039Y-15024650D02*
X15088087Y-14996079D01*
X15088087Y-14996079D02*
X15097611Y-14977031D01*
X15097611Y-14977031D02*
X15107134Y-14948460D01*
X15107134Y-14948460D02*
X15116658Y-14900841D01*
X15116658Y-14900841D02*
X15116658Y-14862746D01*
X15116658Y-14862746D02*
X15107134Y-14815127D01*
X15107134Y-14815127D02*
X15097611Y-14786555D01*
X15097611Y-14786555D02*
X15088087Y-14767508D01*
X15088087Y-14767508D02*
X15069039Y-14738936D01*
X15069039Y-14738936D02*
X15059515Y-14729412D01*
D12*
X9903500Y-15130500D02*
G75*
G02*
X9852700Y-15130500I-25400J0D01*
G01*
X9852700Y-15130500D02*
G75*
G02*
X9903500Y-15130500I25400J0D01*
G01*
D11*
X10202372Y-15021984D02*
X10221420Y-15021984D01*
X10221420Y-15021984D02*
X10240467Y-15031508D01*
X10240467Y-15031508D02*
X10249991Y-15041031D01*
X10249991Y-15041031D02*
X10259515Y-15060079D01*
X10259515Y-15060079D02*
X10269039Y-15098174D01*
X10269039Y-15098174D02*
X10269039Y-15145793D01*
X10269039Y-15145793D02*
X10259515Y-15183888D01*
X10259515Y-15183888D02*
X10249991Y-15202936D01*
X10249991Y-15202936D02*
X10240467Y-15212460D01*
X10240467Y-15212460D02*
X10221420Y-15221984D01*
X10221420Y-15221984D02*
X10202372Y-15221984D01*
X10202372Y-15221984D02*
X10183324Y-15212460D01*
X10183324Y-15212460D02*
X10173801Y-15202936D01*
X10173801Y-15202936D02*
X10164277Y-15183888D01*
X10164277Y-15183888D02*
X10154753Y-15145793D01*
X10154753Y-15145793D02*
X10154753Y-15098174D01*
X10154753Y-15098174D02*
X10164277Y-15060079D01*
X10164277Y-15060079D02*
X10173801Y-15041031D01*
X10173801Y-15041031D02*
X10183324Y-15031508D01*
X10183324Y-15031508D02*
X10202372Y-15021984D01*
X10354753Y-15202936D02*
X10364277Y-15212460D01*
X10364277Y-15212460D02*
X10354753Y-15221984D01*
X10354753Y-15221984D02*
X10345229Y-15212460D01*
X10345229Y-15212460D02*
X10354753Y-15202936D01*
X10354753Y-15202936D02*
X10354753Y-15221984D01*
X10545229Y-15021984D02*
X10449991Y-15021984D01*
X10449991Y-15021984D02*
X10440467Y-15117222D01*
X10440467Y-15117222D02*
X10449991Y-15107698D01*
X10449991Y-15107698D02*
X10469039Y-15098174D01*
X10469039Y-15098174D02*
X10516658Y-15098174D01*
X10516658Y-15098174D02*
X10535705Y-15107698D01*
X10535705Y-15107698D02*
X10545229Y-15117222D01*
X10545229Y-15117222D02*
X10554753Y-15136269D01*
X10554753Y-15136269D02*
X10554753Y-15183888D01*
X10554753Y-15183888D02*
X10545229Y-15202936D01*
X10545229Y-15202936D02*
X10535705Y-15212460D01*
X10535705Y-15212460D02*
X10516658Y-15221984D01*
X10516658Y-15221984D02*
X10469039Y-15221984D01*
X10469039Y-15221984D02*
X10449991Y-15212460D01*
X10449991Y-15212460D02*
X10440467Y-15202936D01*
X10678563Y-15021984D02*
X10697610Y-15021984D01*
X10697610Y-15021984D02*
X10716658Y-15031508D01*
X10716658Y-15031508D02*
X10726182Y-15041031D01*
X10726182Y-15041031D02*
X10735705Y-15060079D01*
X10735705Y-15060079D02*
X10745229Y-15098174D01*
X10745229Y-15098174D02*
X10745229Y-15145793D01*
X10745229Y-15145793D02*
X10735705Y-15183888D01*
X10735705Y-15183888D02*
X10726182Y-15202936D01*
X10726182Y-15202936D02*
X10716658Y-15212460D01*
X10716658Y-15212460D02*
X10697610Y-15221984D01*
X10697610Y-15221984D02*
X10678563Y-15221984D01*
X10678563Y-15221984D02*
X10659515Y-15212460D01*
X10659515Y-15212460D02*
X10649991Y-15202936D01*
X10649991Y-15202936D02*
X10640467Y-15183888D01*
X10640467Y-15183888D02*
X10630944Y-15145793D01*
X10630944Y-15145793D02*
X10630944Y-15098174D01*
X10630944Y-15098174D02*
X10640467Y-15060079D01*
X10640467Y-15060079D02*
X10649991Y-15041031D01*
X10649991Y-15041031D02*
X10659515Y-15031508D01*
X10659515Y-15031508D02*
X10678563Y-15021984D01*
X10859515Y-15107698D02*
X10840467Y-15098174D01*
X10840467Y-15098174D02*
X10830944Y-15088650D01*
X10830944Y-15088650D02*
X10821420Y-15069603D01*
X10821420Y-15069603D02*
X10821420Y-15060079D01*
X10821420Y-15060079D02*
X10830944Y-15041031D01*
X10830944Y-15041031D02*
X10840467Y-15031508D01*
X10840467Y-15031508D02*
X10859515Y-15021984D01*
X10859515Y-15021984D02*
X10897610Y-15021984D01*
X10897610Y-15021984D02*
X10916658Y-15031508D01*
X10916658Y-15031508D02*
X10926182Y-15041031D01*
X10926182Y-15041031D02*
X10935705Y-15060079D01*
X10935705Y-15060079D02*
X10935705Y-15069603D01*
X10935705Y-15069603D02*
X10926182Y-15088650D01*
X10926182Y-15088650D02*
X10916658Y-15098174D01*
X10916658Y-15098174D02*
X10897610Y-15107698D01*
X10897610Y-15107698D02*
X10859515Y-15107698D01*
X10859515Y-15107698D02*
X10840467Y-15117222D01*
X10840467Y-15117222D02*
X10830944Y-15126746D01*
X10830944Y-15126746D02*
X10821420Y-15145793D01*
X10821420Y-15145793D02*
X10821420Y-15183888D01*
X10821420Y-15183888D02*
X10830944Y-15202936D01*
X10830944Y-15202936D02*
X10840467Y-15212460D01*
X10840467Y-15212460D02*
X10859515Y-15221984D01*
X10859515Y-15221984D02*
X10897610Y-15221984D01*
X10897610Y-15221984D02*
X10916658Y-15212460D01*
X10916658Y-15212460D02*
X10926182Y-15202936D01*
X10926182Y-15202936D02*
X10935705Y-15183888D01*
X10935705Y-15183888D02*
X10935705Y-15145793D01*
X10935705Y-15145793D02*
X10926182Y-15126746D01*
X10926182Y-15126746D02*
X10916658Y-15117222D01*
X10916658Y-15117222D02*
X10897610Y-15107698D01*
X11021420Y-15221984D02*
X11021420Y-15088650D01*
X11021420Y-15107698D02*
X11030944Y-15098174D01*
X11030944Y-15098174D02*
X11049991Y-15088650D01*
X11049991Y-15088650D02*
X11078563Y-15088650D01*
X11078563Y-15088650D02*
X11097610Y-15098174D01*
X11097610Y-15098174D02*
X11107134Y-15117222D01*
X11107134Y-15117222D02*
X11107134Y-15221984D01*
X11107134Y-15117222D02*
X11116658Y-15098174D01*
X11116658Y-15098174D02*
X11135705Y-15088650D01*
X11135705Y-15088650D02*
X11164277Y-15088650D01*
X11164277Y-15088650D02*
X11183325Y-15098174D01*
X11183325Y-15098174D02*
X11192848Y-15117222D01*
X11192848Y-15117222D02*
X11192848Y-15221984D01*
X11288086Y-15221984D02*
X11288086Y-15088650D01*
X11288086Y-15107698D02*
X11297610Y-15098174D01*
X11297610Y-15098174D02*
X11316658Y-15088650D01*
X11316658Y-15088650D02*
X11345229Y-15088650D01*
X11345229Y-15088650D02*
X11364277Y-15098174D01*
X11364277Y-15098174D02*
X11373801Y-15117222D01*
X11373801Y-15117222D02*
X11373801Y-15221984D01*
X11373801Y-15117222D02*
X11383324Y-15098174D01*
X11383324Y-15098174D02*
X11402372Y-15088650D01*
X11402372Y-15088650D02*
X11430943Y-15088650D01*
X11430943Y-15088650D02*
X11449991Y-15098174D01*
X11449991Y-15098174D02*
X11459515Y-15117222D01*
X11459515Y-15117222D02*
X11459515Y-15221984D01*
X11849991Y-15012460D02*
X11678563Y-15269603D01*
X12107134Y-15021984D02*
X12126182Y-15021984D01*
X12126182Y-15021984D02*
X12145229Y-15031508D01*
X12145229Y-15031508D02*
X12154753Y-15041031D01*
X12154753Y-15041031D02*
X12164277Y-15060079D01*
X12164277Y-15060079D02*
X12173801Y-15098174D01*
X12173801Y-15098174D02*
X12173801Y-15145793D01*
X12173801Y-15145793D02*
X12164277Y-15183888D01*
X12164277Y-15183888D02*
X12154753Y-15202936D01*
X12154753Y-15202936D02*
X12145229Y-15212460D01*
X12145229Y-15212460D02*
X12126182Y-15221984D01*
X12126182Y-15221984D02*
X12107134Y-15221984D01*
X12107134Y-15221984D02*
X12088086Y-15212460D01*
X12088086Y-15212460D02*
X12078563Y-15202936D01*
X12078563Y-15202936D02*
X12069039Y-15183888D01*
X12069039Y-15183888D02*
X12059515Y-15145793D01*
X12059515Y-15145793D02*
X12059515Y-15098174D01*
X12059515Y-15098174D02*
X12069039Y-15060079D01*
X12069039Y-15060079D02*
X12078563Y-15041031D01*
X12078563Y-15041031D02*
X12088086Y-15031508D01*
X12088086Y-15031508D02*
X12107134Y-15021984D01*
X12259515Y-15202936D02*
X12269039Y-15212460D01*
X12269039Y-15212460D02*
X12259515Y-15221984D01*
X12259515Y-15221984D02*
X12249991Y-15212460D01*
X12249991Y-15212460D02*
X12259515Y-15202936D01*
X12259515Y-15202936D02*
X12259515Y-15221984D01*
X12392848Y-15021984D02*
X12411896Y-15021984D01*
X12411896Y-15021984D02*
X12430944Y-15031508D01*
X12430944Y-15031508D02*
X12440467Y-15041031D01*
X12440467Y-15041031D02*
X12449991Y-15060079D01*
X12449991Y-15060079D02*
X12459515Y-15098174D01*
X12459515Y-15098174D02*
X12459515Y-15145793D01*
X12459515Y-15145793D02*
X12449991Y-15183888D01*
X12449991Y-15183888D02*
X12440467Y-15202936D01*
X12440467Y-15202936D02*
X12430944Y-15212460D01*
X12430944Y-15212460D02*
X12411896Y-15221984D01*
X12411896Y-15221984D02*
X12392848Y-15221984D01*
X12392848Y-15221984D02*
X12373801Y-15212460D01*
X12373801Y-15212460D02*
X12364277Y-15202936D01*
X12364277Y-15202936D02*
X12354753Y-15183888D01*
X12354753Y-15183888D02*
X12345229Y-15145793D01*
X12345229Y-15145793D02*
X12345229Y-15098174D01*
X12345229Y-15098174D02*
X12354753Y-15060079D01*
X12354753Y-15060079D02*
X12364277Y-15041031D01*
X12364277Y-15041031D02*
X12373801Y-15031508D01*
X12373801Y-15031508D02*
X12392848Y-15021984D01*
X12535706Y-15041031D02*
X12545229Y-15031508D01*
X12545229Y-15031508D02*
X12564277Y-15021984D01*
X12564277Y-15021984D02*
X12611896Y-15021984D01*
X12611896Y-15021984D02*
X12630944Y-15031508D01*
X12630944Y-15031508D02*
X12640467Y-15041031D01*
X12640467Y-15041031D02*
X12649991Y-15060079D01*
X12649991Y-15060079D02*
X12649991Y-15079127D01*
X12649991Y-15079127D02*
X12640467Y-15107698D01*
X12640467Y-15107698D02*
X12526182Y-15221984D01*
X12526182Y-15221984D02*
X12649991Y-15221984D01*
X12773801Y-15021984D02*
X12792848Y-15021984D01*
X12792848Y-15021984D02*
X12811896Y-15031508D01*
X12811896Y-15031508D02*
X12821420Y-15041031D01*
X12821420Y-15041031D02*
X12830944Y-15060079D01*
X12830944Y-15060079D02*
X12840467Y-15098174D01*
X12840467Y-15098174D02*
X12840467Y-15145793D01*
X12840467Y-15145793D02*
X12830944Y-15183888D01*
X12830944Y-15183888D02*
X12821420Y-15202936D01*
X12821420Y-15202936D02*
X12811896Y-15212460D01*
X12811896Y-15212460D02*
X12792848Y-15221984D01*
X12792848Y-15221984D02*
X12773801Y-15221984D01*
X12773801Y-15221984D02*
X12754753Y-15212460D01*
X12754753Y-15212460D02*
X12745229Y-15202936D01*
X12745229Y-15202936D02*
X12735706Y-15183888D01*
X12735706Y-15183888D02*
X12726182Y-15145793D01*
X12726182Y-15145793D02*
X12726182Y-15098174D01*
X12726182Y-15098174D02*
X12735706Y-15060079D01*
X12735706Y-15060079D02*
X12745229Y-15041031D01*
X12745229Y-15041031D02*
X12754753Y-15031508D01*
X12754753Y-15031508D02*
X12773801Y-15021984D01*
X12964277Y-15021984D02*
X12983325Y-15021984D01*
X12983325Y-15021984D02*
X13002372Y-15031508D01*
X13002372Y-15031508D02*
X13011896Y-15041031D01*
X13011896Y-15041031D02*
X13021420Y-15060079D01*
X13021420Y-15060079D02*
X13030944Y-15098174D01*
X13030944Y-15098174D02*
X13030944Y-15145793D01*
X13030944Y-15145793D02*
X13021420Y-15183888D01*
X13021420Y-15183888D02*
X13011896Y-15202936D01*
X13011896Y-15202936D02*
X13002372Y-15212460D01*
X13002372Y-15212460D02*
X12983325Y-15221984D01*
X12983325Y-15221984D02*
X12964277Y-15221984D01*
X12964277Y-15221984D02*
X12945229Y-15212460D01*
X12945229Y-15212460D02*
X12935706Y-15202936D01*
X12935706Y-15202936D02*
X12926182Y-15183888D01*
X12926182Y-15183888D02*
X12916658Y-15145793D01*
X12916658Y-15145793D02*
X12916658Y-15098174D01*
X12916658Y-15098174D02*
X12926182Y-15060079D01*
X12926182Y-15060079D02*
X12935706Y-15041031D01*
X12935706Y-15041031D02*
X12945229Y-15031508D01*
X12945229Y-15031508D02*
X12964277Y-15021984D01*
X13107134Y-15021984D02*
X13107134Y-15060079D01*
X13183325Y-15021984D02*
X13183325Y-15060079D01*
X13478563Y-15298174D02*
X13469039Y-15288650D01*
X13469039Y-15288650D02*
X13449991Y-15260079D01*
X13449991Y-15260079D02*
X13440468Y-15241031D01*
X13440468Y-15241031D02*
X13430944Y-15212460D01*
X13430944Y-15212460D02*
X13421420Y-15164841D01*
X13421420Y-15164841D02*
X13421420Y-15126746D01*
X13421420Y-15126746D02*
X13430944Y-15079127D01*
X13430944Y-15079127D02*
X13440468Y-15050555D01*
X13440468Y-15050555D02*
X13449991Y-15031508D01*
X13449991Y-15031508D02*
X13469039Y-15002936D01*
X13469039Y-15002936D02*
X13478563Y-14993412D01*
X13659515Y-15221984D02*
X13545229Y-15221984D01*
X13602372Y-15221984D02*
X13602372Y-15021984D01*
X13602372Y-15021984D02*
X13583325Y-15050555D01*
X13583325Y-15050555D02*
X13564277Y-15069603D01*
X13564277Y-15069603D02*
X13545229Y-15079127D01*
X13783325Y-15021984D02*
X13802372Y-15021984D01*
X13802372Y-15021984D02*
X13821420Y-15031508D01*
X13821420Y-15031508D02*
X13830944Y-15041031D01*
X13830944Y-15041031D02*
X13840468Y-15060079D01*
X13840468Y-15060079D02*
X13849991Y-15098174D01*
X13849991Y-15098174D02*
X13849991Y-15145793D01*
X13849991Y-15145793D02*
X13840468Y-15183888D01*
X13840468Y-15183888D02*
X13830944Y-15202936D01*
X13830944Y-15202936D02*
X13821420Y-15212460D01*
X13821420Y-15212460D02*
X13802372Y-15221984D01*
X13802372Y-15221984D02*
X13783325Y-15221984D01*
X13783325Y-15221984D02*
X13764277Y-15212460D01*
X13764277Y-15212460D02*
X13754753Y-15202936D01*
X13754753Y-15202936D02*
X13745229Y-15183888D01*
X13745229Y-15183888D02*
X13735706Y-15145793D01*
X13735706Y-15145793D02*
X13735706Y-15098174D01*
X13735706Y-15098174D02*
X13745229Y-15060079D01*
X13745229Y-15060079D02*
X13754753Y-15041031D01*
X13754753Y-15041031D02*
X13764277Y-15031508D01*
X13764277Y-15031508D02*
X13783325Y-15021984D01*
X13973801Y-15021984D02*
X13992849Y-15021984D01*
X13992849Y-15021984D02*
X14011896Y-15031508D01*
X14011896Y-15031508D02*
X14021420Y-15041031D01*
X14021420Y-15041031D02*
X14030944Y-15060079D01*
X14030944Y-15060079D02*
X14040468Y-15098174D01*
X14040468Y-15098174D02*
X14040468Y-15145793D01*
X14040468Y-15145793D02*
X14030944Y-15183888D01*
X14030944Y-15183888D02*
X14021420Y-15202936D01*
X14021420Y-15202936D02*
X14011896Y-15212460D01*
X14011896Y-15212460D02*
X13992849Y-15221984D01*
X13992849Y-15221984D02*
X13973801Y-15221984D01*
X13973801Y-15221984D02*
X13954753Y-15212460D01*
X13954753Y-15212460D02*
X13945229Y-15202936D01*
X13945229Y-15202936D02*
X13935706Y-15183888D01*
X13935706Y-15183888D02*
X13926182Y-15145793D01*
X13926182Y-15145793D02*
X13926182Y-15098174D01*
X13926182Y-15098174D02*
X13935706Y-15060079D01*
X13935706Y-15060079D02*
X13945229Y-15041031D01*
X13945229Y-15041031D02*
X13954753Y-15031508D01*
X13954753Y-15031508D02*
X13973801Y-15021984D01*
X14278563Y-15221984D02*
X14278563Y-15021984D01*
X14364277Y-15221984D02*
X14364277Y-15117222D01*
X14364277Y-15117222D02*
X14354753Y-15098174D01*
X14354753Y-15098174D02*
X14335706Y-15088650D01*
X14335706Y-15088650D02*
X14307134Y-15088650D01*
X14307134Y-15088650D02*
X14288087Y-15098174D01*
X14288087Y-15098174D02*
X14278563Y-15107698D01*
X14488087Y-15221984D02*
X14469039Y-15212460D01*
X14469039Y-15212460D02*
X14459515Y-15202936D01*
X14459515Y-15202936D02*
X14449991Y-15183888D01*
X14449991Y-15183888D02*
X14449991Y-15126746D01*
X14449991Y-15126746D02*
X14459515Y-15107698D01*
X14459515Y-15107698D02*
X14469039Y-15098174D01*
X14469039Y-15098174D02*
X14488087Y-15088650D01*
X14488087Y-15088650D02*
X14516658Y-15088650D01*
X14516658Y-15088650D02*
X14535706Y-15098174D01*
X14535706Y-15098174D02*
X14545230Y-15107698D01*
X14545230Y-15107698D02*
X14554753Y-15126746D01*
X14554753Y-15126746D02*
X14554753Y-15183888D01*
X14554753Y-15183888D02*
X14545230Y-15202936D01*
X14545230Y-15202936D02*
X14535706Y-15212460D01*
X14535706Y-15212460D02*
X14516658Y-15221984D01*
X14516658Y-15221984D02*
X14488087Y-15221984D01*
X14669039Y-15221984D02*
X14649991Y-15212460D01*
X14649991Y-15212460D02*
X14640468Y-15193412D01*
X14640468Y-15193412D02*
X14640468Y-15021984D01*
X14821420Y-15212460D02*
X14802372Y-15221984D01*
X14802372Y-15221984D02*
X14764277Y-15221984D01*
X14764277Y-15221984D02*
X14745230Y-15212460D01*
X14745230Y-15212460D02*
X14735706Y-15193412D01*
X14735706Y-15193412D02*
X14735706Y-15117222D01*
X14735706Y-15117222D02*
X14745230Y-15098174D01*
X14745230Y-15098174D02*
X14764277Y-15088650D01*
X14764277Y-15088650D02*
X14802372Y-15088650D01*
X14802372Y-15088650D02*
X14821420Y-15098174D01*
X14821420Y-15098174D02*
X14830944Y-15117222D01*
X14830944Y-15117222D02*
X14830944Y-15136269D01*
X14830944Y-15136269D02*
X14735706Y-15155317D01*
X14907134Y-15212460D02*
X14926182Y-15221984D01*
X14926182Y-15221984D02*
X14964277Y-15221984D01*
X14964277Y-15221984D02*
X14983325Y-15212460D01*
X14983325Y-15212460D02*
X14992849Y-15193412D01*
X14992849Y-15193412D02*
X14992849Y-15183888D01*
X14992849Y-15183888D02*
X14983325Y-15164841D01*
X14983325Y-15164841D02*
X14964277Y-15155317D01*
X14964277Y-15155317D02*
X14935706Y-15155317D01*
X14935706Y-15155317D02*
X14916658Y-15145793D01*
X14916658Y-15145793D02*
X14907134Y-15126746D01*
X14907134Y-15126746D02*
X14907134Y-15117222D01*
X14907134Y-15117222D02*
X14916658Y-15098174D01*
X14916658Y-15098174D02*
X14935706Y-15088650D01*
X14935706Y-15088650D02*
X14964277Y-15088650D01*
X14964277Y-15088650D02*
X14983325Y-15098174D01*
X15059515Y-15298174D02*
X15069039Y-15288650D01*
X15069039Y-15288650D02*
X15088087Y-15260079D01*
X15088087Y-15260079D02*
X15097611Y-15241031D01*
X15097611Y-15241031D02*
X15107134Y-15212460D01*
X15107134Y-15212460D02*
X15116658Y-15164841D01*
X15116658Y-15164841D02*
X15116658Y-15126746D01*
X15116658Y-15126746D02*
X15107134Y-15079127D01*
X15107134Y-15079127D02*
X15097611Y-15050555D01*
X15097611Y-15050555D02*
X15088087Y-15031508D01*
X15088087Y-15031508D02*
X15069039Y-15002936D01*
X15069039Y-15002936D02*
X15059515Y-14993412D01*
D12*
X9863500Y-15354500D02*
X9863500Y-15434500D01*
X9823500Y-15394500D02*
X9903500Y-15394500D01*
D11*
X10202372Y-15285984D02*
X10221420Y-15285984D01*
X10221420Y-15285984D02*
X10240467Y-15295508D01*
X10240467Y-15295508D02*
X10249991Y-15305031D01*
X10249991Y-15305031D02*
X10259515Y-15324079D01*
X10259515Y-15324079D02*
X10269039Y-15362174D01*
X10269039Y-15362174D02*
X10269039Y-15409793D01*
X10269039Y-15409793D02*
X10259515Y-15447888D01*
X10259515Y-15447888D02*
X10249991Y-15466936D01*
X10249991Y-15466936D02*
X10240467Y-15476460D01*
X10240467Y-15476460D02*
X10221420Y-15485984D01*
X10221420Y-15485984D02*
X10202372Y-15485984D01*
X10202372Y-15485984D02*
X10183324Y-15476460D01*
X10183324Y-15476460D02*
X10173801Y-15466936D01*
X10173801Y-15466936D02*
X10164277Y-15447888D01*
X10164277Y-15447888D02*
X10154753Y-15409793D01*
X10154753Y-15409793D02*
X10154753Y-15362174D01*
X10154753Y-15362174D02*
X10164277Y-15324079D01*
X10164277Y-15324079D02*
X10173801Y-15305031D01*
X10173801Y-15305031D02*
X10183324Y-15295508D01*
X10183324Y-15295508D02*
X10202372Y-15285984D01*
X10354753Y-15466936D02*
X10364277Y-15476460D01*
X10364277Y-15476460D02*
X10354753Y-15485984D01*
X10354753Y-15485984D02*
X10345229Y-15476460D01*
X10345229Y-15476460D02*
X10354753Y-15466936D01*
X10354753Y-15466936D02*
X10354753Y-15485984D01*
X10478563Y-15371698D02*
X10459515Y-15362174D01*
X10459515Y-15362174D02*
X10449991Y-15352650D01*
X10449991Y-15352650D02*
X10440467Y-15333603D01*
X10440467Y-15333603D02*
X10440467Y-15324079D01*
X10440467Y-15324079D02*
X10449991Y-15305031D01*
X10449991Y-15305031D02*
X10459515Y-15295508D01*
X10459515Y-15295508D02*
X10478563Y-15285984D01*
X10478563Y-15285984D02*
X10516658Y-15285984D01*
X10516658Y-15285984D02*
X10535705Y-15295508D01*
X10535705Y-15295508D02*
X10545229Y-15305031D01*
X10545229Y-15305031D02*
X10554753Y-15324079D01*
X10554753Y-15324079D02*
X10554753Y-15333603D01*
X10554753Y-15333603D02*
X10545229Y-15352650D01*
X10545229Y-15352650D02*
X10535705Y-15362174D01*
X10535705Y-15362174D02*
X10516658Y-15371698D01*
X10516658Y-15371698D02*
X10478563Y-15371698D01*
X10478563Y-15371698D02*
X10459515Y-15381222D01*
X10459515Y-15381222D02*
X10449991Y-15390746D01*
X10449991Y-15390746D02*
X10440467Y-15409793D01*
X10440467Y-15409793D02*
X10440467Y-15447888D01*
X10440467Y-15447888D02*
X10449991Y-15466936D01*
X10449991Y-15466936D02*
X10459515Y-15476460D01*
X10459515Y-15476460D02*
X10478563Y-15485984D01*
X10478563Y-15485984D02*
X10516658Y-15485984D01*
X10516658Y-15485984D02*
X10535705Y-15476460D01*
X10535705Y-15476460D02*
X10545229Y-15466936D01*
X10545229Y-15466936D02*
X10554753Y-15447888D01*
X10554753Y-15447888D02*
X10554753Y-15409793D01*
X10554753Y-15409793D02*
X10545229Y-15390746D01*
X10545229Y-15390746D02*
X10535705Y-15381222D01*
X10535705Y-15381222D02*
X10516658Y-15371698D01*
X10678563Y-15285984D02*
X10697610Y-15285984D01*
X10697610Y-15285984D02*
X10716658Y-15295508D01*
X10716658Y-15295508D02*
X10726182Y-15305031D01*
X10726182Y-15305031D02*
X10735705Y-15324079D01*
X10735705Y-15324079D02*
X10745229Y-15362174D01*
X10745229Y-15362174D02*
X10745229Y-15409793D01*
X10745229Y-15409793D02*
X10735705Y-15447888D01*
X10735705Y-15447888D02*
X10726182Y-15466936D01*
X10726182Y-15466936D02*
X10716658Y-15476460D01*
X10716658Y-15476460D02*
X10697610Y-15485984D01*
X10697610Y-15485984D02*
X10678563Y-15485984D01*
X10678563Y-15485984D02*
X10659515Y-15476460D01*
X10659515Y-15476460D02*
X10649991Y-15466936D01*
X10649991Y-15466936D02*
X10640467Y-15447888D01*
X10640467Y-15447888D02*
X10630944Y-15409793D01*
X10630944Y-15409793D02*
X10630944Y-15362174D01*
X10630944Y-15362174D02*
X10640467Y-15324079D01*
X10640467Y-15324079D02*
X10649991Y-15305031D01*
X10649991Y-15305031D02*
X10659515Y-15295508D01*
X10659515Y-15295508D02*
X10678563Y-15285984D01*
X10869039Y-15285984D02*
X10888086Y-15285984D01*
X10888086Y-15285984D02*
X10907134Y-15295508D01*
X10907134Y-15295508D02*
X10916658Y-15305031D01*
X10916658Y-15305031D02*
X10926182Y-15324079D01*
X10926182Y-15324079D02*
X10935705Y-15362174D01*
X10935705Y-15362174D02*
X10935705Y-15409793D01*
X10935705Y-15409793D02*
X10926182Y-15447888D01*
X10926182Y-15447888D02*
X10916658Y-15466936D01*
X10916658Y-15466936D02*
X10907134Y-15476460D01*
X10907134Y-15476460D02*
X10888086Y-15485984D01*
X10888086Y-15485984D02*
X10869039Y-15485984D01*
X10869039Y-15485984D02*
X10849991Y-15476460D01*
X10849991Y-15476460D02*
X10840467Y-15466936D01*
X10840467Y-15466936D02*
X10830944Y-15447888D01*
X10830944Y-15447888D02*
X10821420Y-15409793D01*
X10821420Y-15409793D02*
X10821420Y-15362174D01*
X10821420Y-15362174D02*
X10830944Y-15324079D01*
X10830944Y-15324079D02*
X10840467Y-15305031D01*
X10840467Y-15305031D02*
X10849991Y-15295508D01*
X10849991Y-15295508D02*
X10869039Y-15285984D01*
X11021420Y-15485984D02*
X11021420Y-15352650D01*
X11021420Y-15371698D02*
X11030944Y-15362174D01*
X11030944Y-15362174D02*
X11049991Y-15352650D01*
X11049991Y-15352650D02*
X11078563Y-15352650D01*
X11078563Y-15352650D02*
X11097610Y-15362174D01*
X11097610Y-15362174D02*
X11107134Y-15381222D01*
X11107134Y-15381222D02*
X11107134Y-15485984D01*
X11107134Y-15381222D02*
X11116658Y-15362174D01*
X11116658Y-15362174D02*
X11135705Y-15352650D01*
X11135705Y-15352650D02*
X11164277Y-15352650D01*
X11164277Y-15352650D02*
X11183325Y-15362174D01*
X11183325Y-15362174D02*
X11192848Y-15381222D01*
X11192848Y-15381222D02*
X11192848Y-15485984D01*
X11288086Y-15485984D02*
X11288086Y-15352650D01*
X11288086Y-15371698D02*
X11297610Y-15362174D01*
X11297610Y-15362174D02*
X11316658Y-15352650D01*
X11316658Y-15352650D02*
X11345229Y-15352650D01*
X11345229Y-15352650D02*
X11364277Y-15362174D01*
X11364277Y-15362174D02*
X11373801Y-15381222D01*
X11373801Y-15381222D02*
X11373801Y-15485984D01*
X11373801Y-15381222D02*
X11383324Y-15362174D01*
X11383324Y-15362174D02*
X11402372Y-15352650D01*
X11402372Y-15352650D02*
X11430943Y-15352650D01*
X11430943Y-15352650D02*
X11449991Y-15362174D01*
X11449991Y-15362174D02*
X11459515Y-15381222D01*
X11459515Y-15381222D02*
X11459515Y-15485984D01*
X11849991Y-15276460D02*
X11678563Y-15533603D01*
X12107134Y-15285984D02*
X12126182Y-15285984D01*
X12126182Y-15285984D02*
X12145229Y-15295508D01*
X12145229Y-15295508D02*
X12154753Y-15305031D01*
X12154753Y-15305031D02*
X12164277Y-15324079D01*
X12164277Y-15324079D02*
X12173801Y-15362174D01*
X12173801Y-15362174D02*
X12173801Y-15409793D01*
X12173801Y-15409793D02*
X12164277Y-15447888D01*
X12164277Y-15447888D02*
X12154753Y-15466936D01*
X12154753Y-15466936D02*
X12145229Y-15476460D01*
X12145229Y-15476460D02*
X12126182Y-15485984D01*
X12126182Y-15485984D02*
X12107134Y-15485984D01*
X12107134Y-15485984D02*
X12088086Y-15476460D01*
X12088086Y-15476460D02*
X12078563Y-15466936D01*
X12078563Y-15466936D02*
X12069039Y-15447888D01*
X12069039Y-15447888D02*
X12059515Y-15409793D01*
X12059515Y-15409793D02*
X12059515Y-15362174D01*
X12059515Y-15362174D02*
X12069039Y-15324079D01*
X12069039Y-15324079D02*
X12078563Y-15305031D01*
X12078563Y-15305031D02*
X12088086Y-15295508D01*
X12088086Y-15295508D02*
X12107134Y-15285984D01*
X12259515Y-15466936D02*
X12269039Y-15476460D01*
X12269039Y-15476460D02*
X12259515Y-15485984D01*
X12259515Y-15485984D02*
X12249991Y-15476460D01*
X12249991Y-15476460D02*
X12259515Y-15466936D01*
X12259515Y-15466936D02*
X12259515Y-15485984D01*
X12392848Y-15285984D02*
X12411896Y-15285984D01*
X12411896Y-15285984D02*
X12430944Y-15295508D01*
X12430944Y-15295508D02*
X12440467Y-15305031D01*
X12440467Y-15305031D02*
X12449991Y-15324079D01*
X12449991Y-15324079D02*
X12459515Y-15362174D01*
X12459515Y-15362174D02*
X12459515Y-15409793D01*
X12459515Y-15409793D02*
X12449991Y-15447888D01*
X12449991Y-15447888D02*
X12440467Y-15466936D01*
X12440467Y-15466936D02*
X12430944Y-15476460D01*
X12430944Y-15476460D02*
X12411896Y-15485984D01*
X12411896Y-15485984D02*
X12392848Y-15485984D01*
X12392848Y-15485984D02*
X12373801Y-15476460D01*
X12373801Y-15476460D02*
X12364277Y-15466936D01*
X12364277Y-15466936D02*
X12354753Y-15447888D01*
X12354753Y-15447888D02*
X12345229Y-15409793D01*
X12345229Y-15409793D02*
X12345229Y-15362174D01*
X12345229Y-15362174D02*
X12354753Y-15324079D01*
X12354753Y-15324079D02*
X12364277Y-15305031D01*
X12364277Y-15305031D02*
X12373801Y-15295508D01*
X12373801Y-15295508D02*
X12392848Y-15285984D01*
X12526182Y-15285984D02*
X12649991Y-15285984D01*
X12649991Y-15285984D02*
X12583325Y-15362174D01*
X12583325Y-15362174D02*
X12611896Y-15362174D01*
X12611896Y-15362174D02*
X12630944Y-15371698D01*
X12630944Y-15371698D02*
X12640467Y-15381222D01*
X12640467Y-15381222D02*
X12649991Y-15400269D01*
X12649991Y-15400269D02*
X12649991Y-15447888D01*
X12649991Y-15447888D02*
X12640467Y-15466936D01*
X12640467Y-15466936D02*
X12630944Y-15476460D01*
X12630944Y-15476460D02*
X12611896Y-15485984D01*
X12611896Y-15485984D02*
X12554753Y-15485984D01*
X12554753Y-15485984D02*
X12535706Y-15476460D01*
X12535706Y-15476460D02*
X12526182Y-15466936D01*
X12840467Y-15485984D02*
X12726182Y-15485984D01*
X12783325Y-15485984D02*
X12783325Y-15285984D01*
X12783325Y-15285984D02*
X12764277Y-15314555D01*
X12764277Y-15314555D02*
X12745229Y-15333603D01*
X12745229Y-15333603D02*
X12726182Y-15343127D01*
X13021420Y-15285984D02*
X12926182Y-15285984D01*
X12926182Y-15285984D02*
X12916658Y-15381222D01*
X12916658Y-15381222D02*
X12926182Y-15371698D01*
X12926182Y-15371698D02*
X12945229Y-15362174D01*
X12945229Y-15362174D02*
X12992848Y-15362174D01*
X12992848Y-15362174D02*
X13011896Y-15371698D01*
X13011896Y-15371698D02*
X13021420Y-15381222D01*
X13021420Y-15381222D02*
X13030944Y-15400269D01*
X13030944Y-15400269D02*
X13030944Y-15447888D01*
X13030944Y-15447888D02*
X13021420Y-15466936D01*
X13021420Y-15466936D02*
X13011896Y-15476460D01*
X13011896Y-15476460D02*
X12992848Y-15485984D01*
X12992848Y-15485984D02*
X12945229Y-15485984D01*
X12945229Y-15485984D02*
X12926182Y-15476460D01*
X12926182Y-15476460D02*
X12916658Y-15466936D01*
X13107134Y-15285984D02*
X13107134Y-15324079D01*
X13183325Y-15285984D02*
X13183325Y-15324079D01*
X13478563Y-15562174D02*
X13469039Y-15552650D01*
X13469039Y-15552650D02*
X13449991Y-15524079D01*
X13449991Y-15524079D02*
X13440468Y-15505031D01*
X13440468Y-15505031D02*
X13430944Y-15476460D01*
X13430944Y-15476460D02*
X13421420Y-15428841D01*
X13421420Y-15428841D02*
X13421420Y-15390746D01*
X13421420Y-15390746D02*
X13430944Y-15343127D01*
X13430944Y-15343127D02*
X13440468Y-15314555D01*
X13440468Y-15314555D02*
X13449991Y-15295508D01*
X13449991Y-15295508D02*
X13469039Y-15266936D01*
X13469039Y-15266936D02*
X13478563Y-15257412D01*
X13545229Y-15305031D02*
X13554753Y-15295508D01*
X13554753Y-15295508D02*
X13573801Y-15285984D01*
X13573801Y-15285984D02*
X13621420Y-15285984D01*
X13621420Y-15285984D02*
X13640468Y-15295508D01*
X13640468Y-15295508D02*
X13649991Y-15305031D01*
X13649991Y-15305031D02*
X13659515Y-15324079D01*
X13659515Y-15324079D02*
X13659515Y-15343127D01*
X13659515Y-15343127D02*
X13649991Y-15371698D01*
X13649991Y-15371698D02*
X13535706Y-15485984D01*
X13535706Y-15485984D02*
X13659515Y-15485984D01*
X13897610Y-15485984D02*
X13897610Y-15285984D01*
X13983325Y-15485984D02*
X13983325Y-15381222D01*
X13983325Y-15381222D02*
X13973801Y-15362174D01*
X13973801Y-15362174D02*
X13954753Y-15352650D01*
X13954753Y-15352650D02*
X13926182Y-15352650D01*
X13926182Y-15352650D02*
X13907134Y-15362174D01*
X13907134Y-15362174D02*
X13897610Y-15371698D01*
X14107134Y-15485984D02*
X14088087Y-15476460D01*
X14088087Y-15476460D02*
X14078563Y-15466936D01*
X14078563Y-15466936D02*
X14069039Y-15447888D01*
X14069039Y-15447888D02*
X14069039Y-15390746D01*
X14069039Y-15390746D02*
X14078563Y-15371698D01*
X14078563Y-15371698D02*
X14088087Y-15362174D01*
X14088087Y-15362174D02*
X14107134Y-15352650D01*
X14107134Y-15352650D02*
X14135706Y-15352650D01*
X14135706Y-15352650D02*
X14154753Y-15362174D01*
X14154753Y-15362174D02*
X14164277Y-15371698D01*
X14164277Y-15371698D02*
X14173801Y-15390746D01*
X14173801Y-15390746D02*
X14173801Y-15447888D01*
X14173801Y-15447888D02*
X14164277Y-15466936D01*
X14164277Y-15466936D02*
X14154753Y-15476460D01*
X14154753Y-15476460D02*
X14135706Y-15485984D01*
X14135706Y-15485984D02*
X14107134Y-15485984D01*
X14288087Y-15485984D02*
X14269039Y-15476460D01*
X14269039Y-15476460D02*
X14259515Y-15457412D01*
X14259515Y-15457412D02*
X14259515Y-15285984D01*
X14440468Y-15476460D02*
X14421420Y-15485984D01*
X14421420Y-15485984D02*
X14383325Y-15485984D01*
X14383325Y-15485984D02*
X14364277Y-15476460D01*
X14364277Y-15476460D02*
X14354753Y-15457412D01*
X14354753Y-15457412D02*
X14354753Y-15381222D01*
X14354753Y-15381222D02*
X14364277Y-15362174D01*
X14364277Y-15362174D02*
X14383325Y-15352650D01*
X14383325Y-15352650D02*
X14421420Y-15352650D01*
X14421420Y-15352650D02*
X14440468Y-15362174D01*
X14440468Y-15362174D02*
X14449991Y-15381222D01*
X14449991Y-15381222D02*
X14449991Y-15400269D01*
X14449991Y-15400269D02*
X14354753Y-15419317D01*
X14526182Y-15476460D02*
X14545230Y-15485984D01*
X14545230Y-15485984D02*
X14583325Y-15485984D01*
X14583325Y-15485984D02*
X14602372Y-15476460D01*
X14602372Y-15476460D02*
X14611896Y-15457412D01*
X14611896Y-15457412D02*
X14611896Y-15447888D01*
X14611896Y-15447888D02*
X14602372Y-15428841D01*
X14602372Y-15428841D02*
X14583325Y-15419317D01*
X14583325Y-15419317D02*
X14554753Y-15419317D01*
X14554753Y-15419317D02*
X14535706Y-15409793D01*
X14535706Y-15409793D02*
X14526182Y-15390746D01*
X14526182Y-15390746D02*
X14526182Y-15381222D01*
X14526182Y-15381222D02*
X14535706Y-15362174D01*
X14535706Y-15362174D02*
X14554753Y-15352650D01*
X14554753Y-15352650D02*
X14583325Y-15352650D01*
X14583325Y-15352650D02*
X14602372Y-15362174D01*
X14678563Y-15562174D02*
X14688087Y-15552650D01*
X14688087Y-15552650D02*
X14707134Y-15524079D01*
X14707134Y-15524079D02*
X14716658Y-15505031D01*
X14716658Y-15505031D02*
X14726182Y-15476460D01*
X14726182Y-15476460D02*
X14735706Y-15428841D01*
X14735706Y-15428841D02*
X14735706Y-15390746D01*
X14735706Y-15390746D02*
X14726182Y-15343127D01*
X14726182Y-15343127D02*
X14716658Y-15314555D01*
X14716658Y-15314555D02*
X14707134Y-15295508D01*
X14707134Y-15295508D02*
X14688087Y-15266936D01*
X14688087Y-15266936D02*
X14678563Y-15257412D01*
D12*
X9890320Y-15690320D02*
X9890320Y-15626680D01*
X9826680Y-15626680D01*
X9826680Y-15690320D01*
X9890320Y-15690320D01*
D11*
X10202372Y-15549984D02*
X10221420Y-15549984D01*
X10221420Y-15549984D02*
X10240467Y-15559508D01*
X10240467Y-15559508D02*
X10249991Y-15569031D01*
X10249991Y-15569031D02*
X10259515Y-15588079D01*
X10259515Y-15588079D02*
X10269039Y-15626174D01*
X10269039Y-15626174D02*
X10269039Y-15673793D01*
X10269039Y-15673793D02*
X10259515Y-15711888D01*
X10259515Y-15711888D02*
X10249991Y-15730936D01*
X10249991Y-15730936D02*
X10240467Y-15740460D01*
X10240467Y-15740460D02*
X10221420Y-15749984D01*
X10221420Y-15749984D02*
X10202372Y-15749984D01*
X10202372Y-15749984D02*
X10183324Y-15740460D01*
X10183324Y-15740460D02*
X10173801Y-15730936D01*
X10173801Y-15730936D02*
X10164277Y-15711888D01*
X10164277Y-15711888D02*
X10154753Y-15673793D01*
X10154753Y-15673793D02*
X10154753Y-15626174D01*
X10154753Y-15626174D02*
X10164277Y-15588079D01*
X10164277Y-15588079D02*
X10173801Y-15569031D01*
X10173801Y-15569031D02*
X10183324Y-15559508D01*
X10183324Y-15559508D02*
X10202372Y-15549984D01*
X10354753Y-15730936D02*
X10364277Y-15740460D01*
X10364277Y-15740460D02*
X10354753Y-15749984D01*
X10354753Y-15749984D02*
X10345229Y-15740460D01*
X10345229Y-15740460D02*
X10354753Y-15730936D01*
X10354753Y-15730936D02*
X10354753Y-15749984D01*
X10459515Y-15749984D02*
X10497610Y-15749984D01*
X10497610Y-15749984D02*
X10516658Y-15740460D01*
X10516658Y-15740460D02*
X10526182Y-15730936D01*
X10526182Y-15730936D02*
X10545229Y-15702365D01*
X10545229Y-15702365D02*
X10554753Y-15664269D01*
X10554753Y-15664269D02*
X10554753Y-15588079D01*
X10554753Y-15588079D02*
X10545229Y-15569031D01*
X10545229Y-15569031D02*
X10535705Y-15559508D01*
X10535705Y-15559508D02*
X10516658Y-15549984D01*
X10516658Y-15549984D02*
X10478563Y-15549984D01*
X10478563Y-15549984D02*
X10459515Y-15559508D01*
X10459515Y-15559508D02*
X10449991Y-15569031D01*
X10449991Y-15569031D02*
X10440467Y-15588079D01*
X10440467Y-15588079D02*
X10440467Y-15635698D01*
X10440467Y-15635698D02*
X10449991Y-15654746D01*
X10449991Y-15654746D02*
X10459515Y-15664269D01*
X10459515Y-15664269D02*
X10478563Y-15673793D01*
X10478563Y-15673793D02*
X10516658Y-15673793D01*
X10516658Y-15673793D02*
X10535705Y-15664269D01*
X10535705Y-15664269D02*
X10545229Y-15654746D01*
X10545229Y-15654746D02*
X10554753Y-15635698D01*
X10678563Y-15549984D02*
X10697610Y-15549984D01*
X10697610Y-15549984D02*
X10716658Y-15559508D01*
X10716658Y-15559508D02*
X10726182Y-15569031D01*
X10726182Y-15569031D02*
X10735705Y-15588079D01*
X10735705Y-15588079D02*
X10745229Y-15626174D01*
X10745229Y-15626174D02*
X10745229Y-15673793D01*
X10745229Y-15673793D02*
X10735705Y-15711888D01*
X10735705Y-15711888D02*
X10726182Y-15730936D01*
X10726182Y-15730936D02*
X10716658Y-15740460D01*
X10716658Y-15740460D02*
X10697610Y-15749984D01*
X10697610Y-15749984D02*
X10678563Y-15749984D01*
X10678563Y-15749984D02*
X10659515Y-15740460D01*
X10659515Y-15740460D02*
X10649991Y-15730936D01*
X10649991Y-15730936D02*
X10640467Y-15711888D01*
X10640467Y-15711888D02*
X10630944Y-15673793D01*
X10630944Y-15673793D02*
X10630944Y-15626174D01*
X10630944Y-15626174D02*
X10640467Y-15588079D01*
X10640467Y-15588079D02*
X10649991Y-15569031D01*
X10649991Y-15569031D02*
X10659515Y-15559508D01*
X10659515Y-15559508D02*
X10678563Y-15549984D01*
X10869039Y-15549984D02*
X10888086Y-15549984D01*
X10888086Y-15549984D02*
X10907134Y-15559508D01*
X10907134Y-15559508D02*
X10916658Y-15569031D01*
X10916658Y-15569031D02*
X10926182Y-15588079D01*
X10926182Y-15588079D02*
X10935705Y-15626174D01*
X10935705Y-15626174D02*
X10935705Y-15673793D01*
X10935705Y-15673793D02*
X10926182Y-15711888D01*
X10926182Y-15711888D02*
X10916658Y-15730936D01*
X10916658Y-15730936D02*
X10907134Y-15740460D01*
X10907134Y-15740460D02*
X10888086Y-15749984D01*
X10888086Y-15749984D02*
X10869039Y-15749984D01*
X10869039Y-15749984D02*
X10849991Y-15740460D01*
X10849991Y-15740460D02*
X10840467Y-15730936D01*
X10840467Y-15730936D02*
X10830944Y-15711888D01*
X10830944Y-15711888D02*
X10821420Y-15673793D01*
X10821420Y-15673793D02*
X10821420Y-15626174D01*
X10821420Y-15626174D02*
X10830944Y-15588079D01*
X10830944Y-15588079D02*
X10840467Y-15569031D01*
X10840467Y-15569031D02*
X10849991Y-15559508D01*
X10849991Y-15559508D02*
X10869039Y-15549984D01*
X11021420Y-15749984D02*
X11021420Y-15616650D01*
X11021420Y-15635698D02*
X11030944Y-15626174D01*
X11030944Y-15626174D02*
X11049991Y-15616650D01*
X11049991Y-15616650D02*
X11078563Y-15616650D01*
X11078563Y-15616650D02*
X11097610Y-15626174D01*
X11097610Y-15626174D02*
X11107134Y-15645222D01*
X11107134Y-15645222D02*
X11107134Y-15749984D01*
X11107134Y-15645222D02*
X11116658Y-15626174D01*
X11116658Y-15626174D02*
X11135705Y-15616650D01*
X11135705Y-15616650D02*
X11164277Y-15616650D01*
X11164277Y-15616650D02*
X11183325Y-15626174D01*
X11183325Y-15626174D02*
X11192848Y-15645222D01*
X11192848Y-15645222D02*
X11192848Y-15749984D01*
X11288086Y-15749984D02*
X11288086Y-15616650D01*
X11288086Y-15635698D02*
X11297610Y-15626174D01*
X11297610Y-15626174D02*
X11316658Y-15616650D01*
X11316658Y-15616650D02*
X11345229Y-15616650D01*
X11345229Y-15616650D02*
X11364277Y-15626174D01*
X11364277Y-15626174D02*
X11373801Y-15645222D01*
X11373801Y-15645222D02*
X11373801Y-15749984D01*
X11373801Y-15645222D02*
X11383324Y-15626174D01*
X11383324Y-15626174D02*
X11402372Y-15616650D01*
X11402372Y-15616650D02*
X11430943Y-15616650D01*
X11430943Y-15616650D02*
X11449991Y-15626174D01*
X11449991Y-15626174D02*
X11459515Y-15645222D01*
X11459515Y-15645222D02*
X11459515Y-15749984D01*
X11849991Y-15540460D02*
X11678563Y-15797603D01*
X12107134Y-15549984D02*
X12126182Y-15549984D01*
X12126182Y-15549984D02*
X12145229Y-15559508D01*
X12145229Y-15559508D02*
X12154753Y-15569031D01*
X12154753Y-15569031D02*
X12164277Y-15588079D01*
X12164277Y-15588079D02*
X12173801Y-15626174D01*
X12173801Y-15626174D02*
X12173801Y-15673793D01*
X12173801Y-15673793D02*
X12164277Y-15711888D01*
X12164277Y-15711888D02*
X12154753Y-15730936D01*
X12154753Y-15730936D02*
X12145229Y-15740460D01*
X12145229Y-15740460D02*
X12126182Y-15749984D01*
X12126182Y-15749984D02*
X12107134Y-15749984D01*
X12107134Y-15749984D02*
X12088086Y-15740460D01*
X12088086Y-15740460D02*
X12078563Y-15730936D01*
X12078563Y-15730936D02*
X12069039Y-15711888D01*
X12069039Y-15711888D02*
X12059515Y-15673793D01*
X12059515Y-15673793D02*
X12059515Y-15626174D01*
X12059515Y-15626174D02*
X12069039Y-15588079D01*
X12069039Y-15588079D02*
X12078563Y-15569031D01*
X12078563Y-15569031D02*
X12088086Y-15559508D01*
X12088086Y-15559508D02*
X12107134Y-15549984D01*
X12259515Y-15730936D02*
X12269039Y-15740460D01*
X12269039Y-15740460D02*
X12259515Y-15749984D01*
X12259515Y-15749984D02*
X12249991Y-15740460D01*
X12249991Y-15740460D02*
X12259515Y-15730936D01*
X12259515Y-15730936D02*
X12259515Y-15749984D01*
X12392848Y-15549984D02*
X12411896Y-15549984D01*
X12411896Y-15549984D02*
X12430944Y-15559508D01*
X12430944Y-15559508D02*
X12440467Y-15569031D01*
X12440467Y-15569031D02*
X12449991Y-15588079D01*
X12449991Y-15588079D02*
X12459515Y-15626174D01*
X12459515Y-15626174D02*
X12459515Y-15673793D01*
X12459515Y-15673793D02*
X12449991Y-15711888D01*
X12449991Y-15711888D02*
X12440467Y-15730936D01*
X12440467Y-15730936D02*
X12430944Y-15740460D01*
X12430944Y-15740460D02*
X12411896Y-15749984D01*
X12411896Y-15749984D02*
X12392848Y-15749984D01*
X12392848Y-15749984D02*
X12373801Y-15740460D01*
X12373801Y-15740460D02*
X12364277Y-15730936D01*
X12364277Y-15730936D02*
X12354753Y-15711888D01*
X12354753Y-15711888D02*
X12345229Y-15673793D01*
X12345229Y-15673793D02*
X12345229Y-15626174D01*
X12345229Y-15626174D02*
X12354753Y-15588079D01*
X12354753Y-15588079D02*
X12364277Y-15569031D01*
X12364277Y-15569031D02*
X12373801Y-15559508D01*
X12373801Y-15559508D02*
X12392848Y-15549984D01*
X12526182Y-15549984D02*
X12649991Y-15549984D01*
X12649991Y-15549984D02*
X12583325Y-15626174D01*
X12583325Y-15626174D02*
X12611896Y-15626174D01*
X12611896Y-15626174D02*
X12630944Y-15635698D01*
X12630944Y-15635698D02*
X12640467Y-15645222D01*
X12640467Y-15645222D02*
X12649991Y-15664269D01*
X12649991Y-15664269D02*
X12649991Y-15711888D01*
X12649991Y-15711888D02*
X12640467Y-15730936D01*
X12640467Y-15730936D02*
X12630944Y-15740460D01*
X12630944Y-15740460D02*
X12611896Y-15749984D01*
X12611896Y-15749984D02*
X12554753Y-15749984D01*
X12554753Y-15749984D02*
X12535706Y-15740460D01*
X12535706Y-15740460D02*
X12526182Y-15730936D01*
X12830944Y-15549984D02*
X12735706Y-15549984D01*
X12735706Y-15549984D02*
X12726182Y-15645222D01*
X12726182Y-15645222D02*
X12735706Y-15635698D01*
X12735706Y-15635698D02*
X12754753Y-15626174D01*
X12754753Y-15626174D02*
X12802372Y-15626174D01*
X12802372Y-15626174D02*
X12821420Y-15635698D01*
X12821420Y-15635698D02*
X12830944Y-15645222D01*
X12830944Y-15645222D02*
X12840467Y-15664269D01*
X12840467Y-15664269D02*
X12840467Y-15711888D01*
X12840467Y-15711888D02*
X12830944Y-15730936D01*
X12830944Y-15730936D02*
X12821420Y-15740460D01*
X12821420Y-15740460D02*
X12802372Y-15749984D01*
X12802372Y-15749984D02*
X12754753Y-15749984D01*
X12754753Y-15749984D02*
X12735706Y-15740460D01*
X12735706Y-15740460D02*
X12726182Y-15730936D01*
X13011896Y-15616650D02*
X13011896Y-15749984D01*
X12964277Y-15540460D02*
X12916658Y-15683317D01*
X12916658Y-15683317D02*
X13040467Y-15683317D01*
X13107134Y-15549984D02*
X13107134Y-15588079D01*
X13183325Y-15549984D02*
X13183325Y-15588079D01*
X13478563Y-15826174D02*
X13469039Y-15816650D01*
X13469039Y-15816650D02*
X13449991Y-15788079D01*
X13449991Y-15788079D02*
X13440468Y-15769031D01*
X13440468Y-15769031D02*
X13430944Y-15740460D01*
X13430944Y-15740460D02*
X13421420Y-15692841D01*
X13421420Y-15692841D02*
X13421420Y-15654746D01*
X13421420Y-15654746D02*
X13430944Y-15607127D01*
X13430944Y-15607127D02*
X13440468Y-15578555D01*
X13440468Y-15578555D02*
X13449991Y-15559508D01*
X13449991Y-15559508D02*
X13469039Y-15530936D01*
X13469039Y-15530936D02*
X13478563Y-15521412D01*
X13640468Y-15549984D02*
X13602372Y-15549984D01*
X13602372Y-15549984D02*
X13583325Y-15559508D01*
X13583325Y-15559508D02*
X13573801Y-15569031D01*
X13573801Y-15569031D02*
X13554753Y-15597603D01*
X13554753Y-15597603D02*
X13545229Y-15635698D01*
X13545229Y-15635698D02*
X13545229Y-15711888D01*
X13545229Y-15711888D02*
X13554753Y-15730936D01*
X13554753Y-15730936D02*
X13564277Y-15740460D01*
X13564277Y-15740460D02*
X13583325Y-15749984D01*
X13583325Y-15749984D02*
X13621420Y-15749984D01*
X13621420Y-15749984D02*
X13640468Y-15740460D01*
X13640468Y-15740460D02*
X13649991Y-15730936D01*
X13649991Y-15730936D02*
X13659515Y-15711888D01*
X13659515Y-15711888D02*
X13659515Y-15664269D01*
X13659515Y-15664269D02*
X13649991Y-15645222D01*
X13649991Y-15645222D02*
X13640468Y-15635698D01*
X13640468Y-15635698D02*
X13621420Y-15626174D01*
X13621420Y-15626174D02*
X13583325Y-15626174D01*
X13583325Y-15626174D02*
X13564277Y-15635698D01*
X13564277Y-15635698D02*
X13554753Y-15645222D01*
X13554753Y-15645222D02*
X13545229Y-15664269D01*
X13897610Y-15749984D02*
X13897610Y-15549984D01*
X13983325Y-15749984D02*
X13983325Y-15645222D01*
X13983325Y-15645222D02*
X13973801Y-15626174D01*
X13973801Y-15626174D02*
X13954753Y-15616650D01*
X13954753Y-15616650D02*
X13926182Y-15616650D01*
X13926182Y-15616650D02*
X13907134Y-15626174D01*
X13907134Y-15626174D02*
X13897610Y-15635698D01*
X14107134Y-15749984D02*
X14088087Y-15740460D01*
X14088087Y-15740460D02*
X14078563Y-15730936D01*
X14078563Y-15730936D02*
X14069039Y-15711888D01*
X14069039Y-15711888D02*
X14069039Y-15654746D01*
X14069039Y-15654746D02*
X14078563Y-15635698D01*
X14078563Y-15635698D02*
X14088087Y-15626174D01*
X14088087Y-15626174D02*
X14107134Y-15616650D01*
X14107134Y-15616650D02*
X14135706Y-15616650D01*
X14135706Y-15616650D02*
X14154753Y-15626174D01*
X14154753Y-15626174D02*
X14164277Y-15635698D01*
X14164277Y-15635698D02*
X14173801Y-15654746D01*
X14173801Y-15654746D02*
X14173801Y-15711888D01*
X14173801Y-15711888D02*
X14164277Y-15730936D01*
X14164277Y-15730936D02*
X14154753Y-15740460D01*
X14154753Y-15740460D02*
X14135706Y-15749984D01*
X14135706Y-15749984D02*
X14107134Y-15749984D01*
X14288087Y-15749984D02*
X14269039Y-15740460D01*
X14269039Y-15740460D02*
X14259515Y-15721412D01*
X14259515Y-15721412D02*
X14259515Y-15549984D01*
X14440468Y-15740460D02*
X14421420Y-15749984D01*
X14421420Y-15749984D02*
X14383325Y-15749984D01*
X14383325Y-15749984D02*
X14364277Y-15740460D01*
X14364277Y-15740460D02*
X14354753Y-15721412D01*
X14354753Y-15721412D02*
X14354753Y-15645222D01*
X14354753Y-15645222D02*
X14364277Y-15626174D01*
X14364277Y-15626174D02*
X14383325Y-15616650D01*
X14383325Y-15616650D02*
X14421420Y-15616650D01*
X14421420Y-15616650D02*
X14440468Y-15626174D01*
X14440468Y-15626174D02*
X14449991Y-15645222D01*
X14449991Y-15645222D02*
X14449991Y-15664269D01*
X14449991Y-15664269D02*
X14354753Y-15683317D01*
X14526182Y-15740460D02*
X14545230Y-15749984D01*
X14545230Y-15749984D02*
X14583325Y-15749984D01*
X14583325Y-15749984D02*
X14602372Y-15740460D01*
X14602372Y-15740460D02*
X14611896Y-15721412D01*
X14611896Y-15721412D02*
X14611896Y-15711888D01*
X14611896Y-15711888D02*
X14602372Y-15692841D01*
X14602372Y-15692841D02*
X14583325Y-15683317D01*
X14583325Y-15683317D02*
X14554753Y-15683317D01*
X14554753Y-15683317D02*
X14535706Y-15673793D01*
X14535706Y-15673793D02*
X14526182Y-15654746D01*
X14526182Y-15654746D02*
X14526182Y-15645222D01*
X14526182Y-15645222D02*
X14535706Y-15626174D01*
X14535706Y-15626174D02*
X14554753Y-15616650D01*
X14554753Y-15616650D02*
X14583325Y-15616650D01*
X14583325Y-15616650D02*
X14602372Y-15626174D01*
X14678563Y-15826174D02*
X14688087Y-15816650D01*
X14688087Y-15816650D02*
X14707134Y-15788079D01*
X14707134Y-15788079D02*
X14716658Y-15769031D01*
X14716658Y-15769031D02*
X14726182Y-15740460D01*
X14726182Y-15740460D02*
X14735706Y-15692841D01*
X14735706Y-15692841D02*
X14735706Y-15654746D01*
X14735706Y-15654746D02*
X14726182Y-15607127D01*
X14726182Y-15607127D02*
X14716658Y-15578555D01*
X14716658Y-15578555D02*
X14707134Y-15559508D01*
X14707134Y-15559508D02*
X14688087Y-15530936D01*
X14688087Y-15530936D02*
X14678563Y-15521412D01*
D12*
X9853500Y-15972500D02*
X9903500Y-15922500D01*
X9853500Y-15872500D01*
X9803500Y-15922500D01*
X9853500Y-15972500D01*
D11*
X10269039Y-16013984D02*
X10154753Y-16013984D01*
X10211896Y-16013984D02*
X10211896Y-15813984D01*
X10211896Y-15813984D02*
X10192848Y-15842555D01*
X10192848Y-15842555D02*
X10173801Y-15861603D01*
X10173801Y-15861603D02*
X10154753Y-15871127D01*
X10354753Y-15994936D02*
X10364277Y-16004460D01*
X10364277Y-16004460D02*
X10354753Y-16013984D01*
X10354753Y-16013984D02*
X10345229Y-16004460D01*
X10345229Y-16004460D02*
X10354753Y-15994936D01*
X10354753Y-15994936D02*
X10354753Y-16013984D01*
X10488086Y-15813984D02*
X10507134Y-15813984D01*
X10507134Y-15813984D02*
X10526182Y-15823508D01*
X10526182Y-15823508D02*
X10535705Y-15833031D01*
X10535705Y-15833031D02*
X10545229Y-15852079D01*
X10545229Y-15852079D02*
X10554753Y-15890174D01*
X10554753Y-15890174D02*
X10554753Y-15937793D01*
X10554753Y-15937793D02*
X10545229Y-15975888D01*
X10545229Y-15975888D02*
X10535705Y-15994936D01*
X10535705Y-15994936D02*
X10526182Y-16004460D01*
X10526182Y-16004460D02*
X10507134Y-16013984D01*
X10507134Y-16013984D02*
X10488086Y-16013984D01*
X10488086Y-16013984D02*
X10469039Y-16004460D01*
X10469039Y-16004460D02*
X10459515Y-15994936D01*
X10459515Y-15994936D02*
X10449991Y-15975888D01*
X10449991Y-15975888D02*
X10440467Y-15937793D01*
X10440467Y-15937793D02*
X10440467Y-15890174D01*
X10440467Y-15890174D02*
X10449991Y-15852079D01*
X10449991Y-15852079D02*
X10459515Y-15833031D01*
X10459515Y-15833031D02*
X10469039Y-15823508D01*
X10469039Y-15823508D02*
X10488086Y-15813984D01*
X10678563Y-15813984D02*
X10697610Y-15813984D01*
X10697610Y-15813984D02*
X10716658Y-15823508D01*
X10716658Y-15823508D02*
X10726182Y-15833031D01*
X10726182Y-15833031D02*
X10735705Y-15852079D01*
X10735705Y-15852079D02*
X10745229Y-15890174D01*
X10745229Y-15890174D02*
X10745229Y-15937793D01*
X10745229Y-15937793D02*
X10735705Y-15975888D01*
X10735705Y-15975888D02*
X10726182Y-15994936D01*
X10726182Y-15994936D02*
X10716658Y-16004460D01*
X10716658Y-16004460D02*
X10697610Y-16013984D01*
X10697610Y-16013984D02*
X10678563Y-16013984D01*
X10678563Y-16013984D02*
X10659515Y-16004460D01*
X10659515Y-16004460D02*
X10649991Y-15994936D01*
X10649991Y-15994936D02*
X10640467Y-15975888D01*
X10640467Y-15975888D02*
X10630944Y-15937793D01*
X10630944Y-15937793D02*
X10630944Y-15890174D01*
X10630944Y-15890174D02*
X10640467Y-15852079D01*
X10640467Y-15852079D02*
X10649991Y-15833031D01*
X10649991Y-15833031D02*
X10659515Y-15823508D01*
X10659515Y-15823508D02*
X10678563Y-15813984D01*
X10869039Y-15813984D02*
X10888086Y-15813984D01*
X10888086Y-15813984D02*
X10907134Y-15823508D01*
X10907134Y-15823508D02*
X10916658Y-15833031D01*
X10916658Y-15833031D02*
X10926182Y-15852079D01*
X10926182Y-15852079D02*
X10935705Y-15890174D01*
X10935705Y-15890174D02*
X10935705Y-15937793D01*
X10935705Y-15937793D02*
X10926182Y-15975888D01*
X10926182Y-15975888D02*
X10916658Y-15994936D01*
X10916658Y-15994936D02*
X10907134Y-16004460D01*
X10907134Y-16004460D02*
X10888086Y-16013984D01*
X10888086Y-16013984D02*
X10869039Y-16013984D01*
X10869039Y-16013984D02*
X10849991Y-16004460D01*
X10849991Y-16004460D02*
X10840467Y-15994936D01*
X10840467Y-15994936D02*
X10830944Y-15975888D01*
X10830944Y-15975888D02*
X10821420Y-15937793D01*
X10821420Y-15937793D02*
X10821420Y-15890174D01*
X10821420Y-15890174D02*
X10830944Y-15852079D01*
X10830944Y-15852079D02*
X10840467Y-15833031D01*
X10840467Y-15833031D02*
X10849991Y-15823508D01*
X10849991Y-15823508D02*
X10869039Y-15813984D01*
X11021420Y-16013984D02*
X11021420Y-15880650D01*
X11021420Y-15899698D02*
X11030944Y-15890174D01*
X11030944Y-15890174D02*
X11049991Y-15880650D01*
X11049991Y-15880650D02*
X11078563Y-15880650D01*
X11078563Y-15880650D02*
X11097610Y-15890174D01*
X11097610Y-15890174D02*
X11107134Y-15909222D01*
X11107134Y-15909222D02*
X11107134Y-16013984D01*
X11107134Y-15909222D02*
X11116658Y-15890174D01*
X11116658Y-15890174D02*
X11135705Y-15880650D01*
X11135705Y-15880650D02*
X11164277Y-15880650D01*
X11164277Y-15880650D02*
X11183325Y-15890174D01*
X11183325Y-15890174D02*
X11192848Y-15909222D01*
X11192848Y-15909222D02*
X11192848Y-16013984D01*
X11288086Y-16013984D02*
X11288086Y-15880650D01*
X11288086Y-15899698D02*
X11297610Y-15890174D01*
X11297610Y-15890174D02*
X11316658Y-15880650D01*
X11316658Y-15880650D02*
X11345229Y-15880650D01*
X11345229Y-15880650D02*
X11364277Y-15890174D01*
X11364277Y-15890174D02*
X11373801Y-15909222D01*
X11373801Y-15909222D02*
X11373801Y-16013984D01*
X11373801Y-15909222D02*
X11383324Y-15890174D01*
X11383324Y-15890174D02*
X11402372Y-15880650D01*
X11402372Y-15880650D02*
X11430943Y-15880650D01*
X11430943Y-15880650D02*
X11449991Y-15890174D01*
X11449991Y-15890174D02*
X11459515Y-15909222D01*
X11459515Y-15909222D02*
X11459515Y-16013984D01*
X11849991Y-15804460D02*
X11678563Y-16061603D01*
X12107134Y-15813984D02*
X12126182Y-15813984D01*
X12126182Y-15813984D02*
X12145229Y-15823508D01*
X12145229Y-15823508D02*
X12154753Y-15833031D01*
X12154753Y-15833031D02*
X12164277Y-15852079D01*
X12164277Y-15852079D02*
X12173801Y-15890174D01*
X12173801Y-15890174D02*
X12173801Y-15937793D01*
X12173801Y-15937793D02*
X12164277Y-15975888D01*
X12164277Y-15975888D02*
X12154753Y-15994936D01*
X12154753Y-15994936D02*
X12145229Y-16004460D01*
X12145229Y-16004460D02*
X12126182Y-16013984D01*
X12126182Y-16013984D02*
X12107134Y-16013984D01*
X12107134Y-16013984D02*
X12088086Y-16004460D01*
X12088086Y-16004460D02*
X12078563Y-15994936D01*
X12078563Y-15994936D02*
X12069039Y-15975888D01*
X12069039Y-15975888D02*
X12059515Y-15937793D01*
X12059515Y-15937793D02*
X12059515Y-15890174D01*
X12059515Y-15890174D02*
X12069039Y-15852079D01*
X12069039Y-15852079D02*
X12078563Y-15833031D01*
X12078563Y-15833031D02*
X12088086Y-15823508D01*
X12088086Y-15823508D02*
X12107134Y-15813984D01*
X12259515Y-15994936D02*
X12269039Y-16004460D01*
X12269039Y-16004460D02*
X12259515Y-16013984D01*
X12259515Y-16013984D02*
X12249991Y-16004460D01*
X12249991Y-16004460D02*
X12259515Y-15994936D01*
X12259515Y-15994936D02*
X12259515Y-16013984D01*
X12392848Y-15813984D02*
X12411896Y-15813984D01*
X12411896Y-15813984D02*
X12430944Y-15823508D01*
X12430944Y-15823508D02*
X12440467Y-15833031D01*
X12440467Y-15833031D02*
X12449991Y-15852079D01*
X12449991Y-15852079D02*
X12459515Y-15890174D01*
X12459515Y-15890174D02*
X12459515Y-15937793D01*
X12459515Y-15937793D02*
X12449991Y-15975888D01*
X12449991Y-15975888D02*
X12440467Y-15994936D01*
X12440467Y-15994936D02*
X12430944Y-16004460D01*
X12430944Y-16004460D02*
X12411896Y-16013984D01*
X12411896Y-16013984D02*
X12392848Y-16013984D01*
X12392848Y-16013984D02*
X12373801Y-16004460D01*
X12373801Y-16004460D02*
X12364277Y-15994936D01*
X12364277Y-15994936D02*
X12354753Y-15975888D01*
X12354753Y-15975888D02*
X12345229Y-15937793D01*
X12345229Y-15937793D02*
X12345229Y-15890174D01*
X12345229Y-15890174D02*
X12354753Y-15852079D01*
X12354753Y-15852079D02*
X12364277Y-15833031D01*
X12364277Y-15833031D02*
X12373801Y-15823508D01*
X12373801Y-15823508D02*
X12392848Y-15813984D01*
X12526182Y-15813984D02*
X12649991Y-15813984D01*
X12649991Y-15813984D02*
X12583325Y-15890174D01*
X12583325Y-15890174D02*
X12611896Y-15890174D01*
X12611896Y-15890174D02*
X12630944Y-15899698D01*
X12630944Y-15899698D02*
X12640467Y-15909222D01*
X12640467Y-15909222D02*
X12649991Y-15928269D01*
X12649991Y-15928269D02*
X12649991Y-15975888D01*
X12649991Y-15975888D02*
X12640467Y-15994936D01*
X12640467Y-15994936D02*
X12630944Y-16004460D01*
X12630944Y-16004460D02*
X12611896Y-16013984D01*
X12611896Y-16013984D02*
X12554753Y-16013984D01*
X12554753Y-16013984D02*
X12535706Y-16004460D01*
X12535706Y-16004460D02*
X12526182Y-15994936D01*
X12745229Y-16013984D02*
X12783325Y-16013984D01*
X12783325Y-16013984D02*
X12802372Y-16004460D01*
X12802372Y-16004460D02*
X12811896Y-15994936D01*
X12811896Y-15994936D02*
X12830944Y-15966365D01*
X12830944Y-15966365D02*
X12840467Y-15928269D01*
X12840467Y-15928269D02*
X12840467Y-15852079D01*
X12840467Y-15852079D02*
X12830944Y-15833031D01*
X12830944Y-15833031D02*
X12821420Y-15823508D01*
X12821420Y-15823508D02*
X12802372Y-15813984D01*
X12802372Y-15813984D02*
X12764277Y-15813984D01*
X12764277Y-15813984D02*
X12745229Y-15823508D01*
X12745229Y-15823508D02*
X12735706Y-15833031D01*
X12735706Y-15833031D02*
X12726182Y-15852079D01*
X12726182Y-15852079D02*
X12726182Y-15899698D01*
X12726182Y-15899698D02*
X12735706Y-15918746D01*
X12735706Y-15918746D02*
X12745229Y-15928269D01*
X12745229Y-15928269D02*
X12764277Y-15937793D01*
X12764277Y-15937793D02*
X12802372Y-15937793D01*
X12802372Y-15937793D02*
X12821420Y-15928269D01*
X12821420Y-15928269D02*
X12830944Y-15918746D01*
X12830944Y-15918746D02*
X12840467Y-15899698D01*
X13011896Y-15880650D02*
X13011896Y-16013984D01*
X12964277Y-15804460D02*
X12916658Y-15947317D01*
X12916658Y-15947317D02*
X13040467Y-15947317D01*
X13107134Y-15813984D02*
X13107134Y-15852079D01*
X13183325Y-15813984D02*
X13183325Y-15852079D01*
X13478563Y-16090174D02*
X13469039Y-16080650D01*
X13469039Y-16080650D02*
X13449991Y-16052079D01*
X13449991Y-16052079D02*
X13440468Y-16033031D01*
X13440468Y-16033031D02*
X13430944Y-16004460D01*
X13430944Y-16004460D02*
X13421420Y-15956841D01*
X13421420Y-15956841D02*
X13421420Y-15918746D01*
X13421420Y-15918746D02*
X13430944Y-15871127D01*
X13430944Y-15871127D02*
X13440468Y-15842555D01*
X13440468Y-15842555D02*
X13449991Y-15823508D01*
X13449991Y-15823508D02*
X13469039Y-15794936D01*
X13469039Y-15794936D02*
X13478563Y-15785412D01*
X13640468Y-15813984D02*
X13602372Y-15813984D01*
X13602372Y-15813984D02*
X13583325Y-15823508D01*
X13583325Y-15823508D02*
X13573801Y-15833031D01*
X13573801Y-15833031D02*
X13554753Y-15861603D01*
X13554753Y-15861603D02*
X13545229Y-15899698D01*
X13545229Y-15899698D02*
X13545229Y-15975888D01*
X13545229Y-15975888D02*
X13554753Y-15994936D01*
X13554753Y-15994936D02*
X13564277Y-16004460D01*
X13564277Y-16004460D02*
X13583325Y-16013984D01*
X13583325Y-16013984D02*
X13621420Y-16013984D01*
X13621420Y-16013984D02*
X13640468Y-16004460D01*
X13640468Y-16004460D02*
X13649991Y-15994936D01*
X13649991Y-15994936D02*
X13659515Y-15975888D01*
X13659515Y-15975888D02*
X13659515Y-15928269D01*
X13659515Y-15928269D02*
X13649991Y-15909222D01*
X13649991Y-15909222D02*
X13640468Y-15899698D01*
X13640468Y-15899698D02*
X13621420Y-15890174D01*
X13621420Y-15890174D02*
X13583325Y-15890174D01*
X13583325Y-15890174D02*
X13564277Y-15899698D01*
X13564277Y-15899698D02*
X13554753Y-15909222D01*
X13554753Y-15909222D02*
X13545229Y-15928269D01*
X13897610Y-16013984D02*
X13897610Y-15813984D01*
X13983325Y-16013984D02*
X13983325Y-15909222D01*
X13983325Y-15909222D02*
X13973801Y-15890174D01*
X13973801Y-15890174D02*
X13954753Y-15880650D01*
X13954753Y-15880650D02*
X13926182Y-15880650D01*
X13926182Y-15880650D02*
X13907134Y-15890174D01*
X13907134Y-15890174D02*
X13897610Y-15899698D01*
X14107134Y-16013984D02*
X14088087Y-16004460D01*
X14088087Y-16004460D02*
X14078563Y-15994936D01*
X14078563Y-15994936D02*
X14069039Y-15975888D01*
X14069039Y-15975888D02*
X14069039Y-15918746D01*
X14069039Y-15918746D02*
X14078563Y-15899698D01*
X14078563Y-15899698D02*
X14088087Y-15890174D01*
X14088087Y-15890174D02*
X14107134Y-15880650D01*
X14107134Y-15880650D02*
X14135706Y-15880650D01*
X14135706Y-15880650D02*
X14154753Y-15890174D01*
X14154753Y-15890174D02*
X14164277Y-15899698D01*
X14164277Y-15899698D02*
X14173801Y-15918746D01*
X14173801Y-15918746D02*
X14173801Y-15975888D01*
X14173801Y-15975888D02*
X14164277Y-15994936D01*
X14164277Y-15994936D02*
X14154753Y-16004460D01*
X14154753Y-16004460D02*
X14135706Y-16013984D01*
X14135706Y-16013984D02*
X14107134Y-16013984D01*
X14288087Y-16013984D02*
X14269039Y-16004460D01*
X14269039Y-16004460D02*
X14259515Y-15985412D01*
X14259515Y-15985412D02*
X14259515Y-15813984D01*
X14440468Y-16004460D02*
X14421420Y-16013984D01*
X14421420Y-16013984D02*
X14383325Y-16013984D01*
X14383325Y-16013984D02*
X14364277Y-16004460D01*
X14364277Y-16004460D02*
X14354753Y-15985412D01*
X14354753Y-15985412D02*
X14354753Y-15909222D01*
X14354753Y-15909222D02*
X14364277Y-15890174D01*
X14364277Y-15890174D02*
X14383325Y-15880650D01*
X14383325Y-15880650D02*
X14421420Y-15880650D01*
X14421420Y-15880650D02*
X14440468Y-15890174D01*
X14440468Y-15890174D02*
X14449991Y-15909222D01*
X14449991Y-15909222D02*
X14449991Y-15928269D01*
X14449991Y-15928269D02*
X14354753Y-15947317D01*
X14526182Y-16004460D02*
X14545230Y-16013984D01*
X14545230Y-16013984D02*
X14583325Y-16013984D01*
X14583325Y-16013984D02*
X14602372Y-16004460D01*
X14602372Y-16004460D02*
X14611896Y-15985412D01*
X14611896Y-15985412D02*
X14611896Y-15975888D01*
X14611896Y-15975888D02*
X14602372Y-15956841D01*
X14602372Y-15956841D02*
X14583325Y-15947317D01*
X14583325Y-15947317D02*
X14554753Y-15947317D01*
X14554753Y-15947317D02*
X14535706Y-15937793D01*
X14535706Y-15937793D02*
X14526182Y-15918746D01*
X14526182Y-15918746D02*
X14526182Y-15909222D01*
X14526182Y-15909222D02*
X14535706Y-15890174D01*
X14535706Y-15890174D02*
X14554753Y-15880650D01*
X14554753Y-15880650D02*
X14583325Y-15880650D01*
X14583325Y-15880650D02*
X14602372Y-15890174D01*
X14678563Y-16090174D02*
X14688087Y-16080650D01*
X14688087Y-16080650D02*
X14707134Y-16052079D01*
X14707134Y-16052079D02*
X14716658Y-16033031D01*
X14716658Y-16033031D02*
X14726182Y-16004460D01*
X14726182Y-16004460D02*
X14735706Y-15956841D01*
X14735706Y-15956841D02*
X14735706Y-15918746D01*
X14735706Y-15918746D02*
X14726182Y-15871127D01*
X14726182Y-15871127D02*
X14716658Y-15842555D01*
X14716658Y-15842555D02*
X14707134Y-15823508D01*
X14707134Y-15823508D02*
X14688087Y-15794936D01*
X14688087Y-15794936D02*
X14678563Y-15785412D01*
D13*
X9773500Y-16121500D02*
X9903500Y-16251500D01*
X9903500Y-16121500D02*
X9773500Y-16251500D01*
X9903500Y-16186500D02*
G75*
G02*
X9773500Y-16186500I-65000J0D01*
G01*
X9773500Y-16186500D02*
G75*
G02*
X9903500Y-16186500I65000J0D01*
G01*
D11*
X10269039Y-16277984D02*
X10154753Y-16277984D01*
X10211896Y-16277984D02*
X10211896Y-16077984D01*
X10211896Y-16077984D02*
X10192848Y-16106555D01*
X10192848Y-16106555D02*
X10173801Y-16125603D01*
X10173801Y-16125603D02*
X10154753Y-16135127D01*
X10354753Y-16258936D02*
X10364277Y-16268460D01*
X10364277Y-16268460D02*
X10354753Y-16277984D01*
X10354753Y-16277984D02*
X10345229Y-16268460D01*
X10345229Y-16268460D02*
X10354753Y-16258936D01*
X10354753Y-16258936D02*
X10354753Y-16277984D01*
X10430944Y-16077984D02*
X10554753Y-16077984D01*
X10554753Y-16077984D02*
X10488086Y-16154174D01*
X10488086Y-16154174D02*
X10516658Y-16154174D01*
X10516658Y-16154174D02*
X10535705Y-16163698D01*
X10535705Y-16163698D02*
X10545229Y-16173222D01*
X10545229Y-16173222D02*
X10554753Y-16192269D01*
X10554753Y-16192269D02*
X10554753Y-16239888D01*
X10554753Y-16239888D02*
X10545229Y-16258936D01*
X10545229Y-16258936D02*
X10535705Y-16268460D01*
X10535705Y-16268460D02*
X10516658Y-16277984D01*
X10516658Y-16277984D02*
X10459515Y-16277984D01*
X10459515Y-16277984D02*
X10440467Y-16268460D01*
X10440467Y-16268460D02*
X10430944Y-16258936D01*
X10678563Y-16077984D02*
X10697610Y-16077984D01*
X10697610Y-16077984D02*
X10716658Y-16087508D01*
X10716658Y-16087508D02*
X10726182Y-16097031D01*
X10726182Y-16097031D02*
X10735705Y-16116079D01*
X10735705Y-16116079D02*
X10745229Y-16154174D01*
X10745229Y-16154174D02*
X10745229Y-16201793D01*
X10745229Y-16201793D02*
X10735705Y-16239888D01*
X10735705Y-16239888D02*
X10726182Y-16258936D01*
X10726182Y-16258936D02*
X10716658Y-16268460D01*
X10716658Y-16268460D02*
X10697610Y-16277984D01*
X10697610Y-16277984D02*
X10678563Y-16277984D01*
X10678563Y-16277984D02*
X10659515Y-16268460D01*
X10659515Y-16268460D02*
X10649991Y-16258936D01*
X10649991Y-16258936D02*
X10640467Y-16239888D01*
X10640467Y-16239888D02*
X10630944Y-16201793D01*
X10630944Y-16201793D02*
X10630944Y-16154174D01*
X10630944Y-16154174D02*
X10640467Y-16116079D01*
X10640467Y-16116079D02*
X10649991Y-16097031D01*
X10649991Y-16097031D02*
X10659515Y-16087508D01*
X10659515Y-16087508D02*
X10678563Y-16077984D01*
X10869039Y-16077984D02*
X10888086Y-16077984D01*
X10888086Y-16077984D02*
X10907134Y-16087508D01*
X10907134Y-16087508D02*
X10916658Y-16097031D01*
X10916658Y-16097031D02*
X10926182Y-16116079D01*
X10926182Y-16116079D02*
X10935705Y-16154174D01*
X10935705Y-16154174D02*
X10935705Y-16201793D01*
X10935705Y-16201793D02*
X10926182Y-16239888D01*
X10926182Y-16239888D02*
X10916658Y-16258936D01*
X10916658Y-16258936D02*
X10907134Y-16268460D01*
X10907134Y-16268460D02*
X10888086Y-16277984D01*
X10888086Y-16277984D02*
X10869039Y-16277984D01*
X10869039Y-16277984D02*
X10849991Y-16268460D01*
X10849991Y-16268460D02*
X10840467Y-16258936D01*
X10840467Y-16258936D02*
X10830944Y-16239888D01*
X10830944Y-16239888D02*
X10821420Y-16201793D01*
X10821420Y-16201793D02*
X10821420Y-16154174D01*
X10821420Y-16154174D02*
X10830944Y-16116079D01*
X10830944Y-16116079D02*
X10840467Y-16097031D01*
X10840467Y-16097031D02*
X10849991Y-16087508D01*
X10849991Y-16087508D02*
X10869039Y-16077984D01*
X11021420Y-16277984D02*
X11021420Y-16144650D01*
X11021420Y-16163698D02*
X11030944Y-16154174D01*
X11030944Y-16154174D02*
X11049991Y-16144650D01*
X11049991Y-16144650D02*
X11078563Y-16144650D01*
X11078563Y-16144650D02*
X11097610Y-16154174D01*
X11097610Y-16154174D02*
X11107134Y-16173222D01*
X11107134Y-16173222D02*
X11107134Y-16277984D01*
X11107134Y-16173222D02*
X11116658Y-16154174D01*
X11116658Y-16154174D02*
X11135705Y-16144650D01*
X11135705Y-16144650D02*
X11164277Y-16144650D01*
X11164277Y-16144650D02*
X11183325Y-16154174D01*
X11183325Y-16154174D02*
X11192848Y-16173222D01*
X11192848Y-16173222D02*
X11192848Y-16277984D01*
X11288086Y-16277984D02*
X11288086Y-16144650D01*
X11288086Y-16163698D02*
X11297610Y-16154174D01*
X11297610Y-16154174D02*
X11316658Y-16144650D01*
X11316658Y-16144650D02*
X11345229Y-16144650D01*
X11345229Y-16144650D02*
X11364277Y-16154174D01*
X11364277Y-16154174D02*
X11373801Y-16173222D01*
X11373801Y-16173222D02*
X11373801Y-16277984D01*
X11373801Y-16173222D02*
X11383324Y-16154174D01*
X11383324Y-16154174D02*
X11402372Y-16144650D01*
X11402372Y-16144650D02*
X11430943Y-16144650D01*
X11430943Y-16144650D02*
X11449991Y-16154174D01*
X11449991Y-16154174D02*
X11459515Y-16173222D01*
X11459515Y-16173222D02*
X11459515Y-16277984D01*
X11849991Y-16068460D02*
X11678563Y-16325603D01*
X12107134Y-16077984D02*
X12126182Y-16077984D01*
X12126182Y-16077984D02*
X12145229Y-16087508D01*
X12145229Y-16087508D02*
X12154753Y-16097031D01*
X12154753Y-16097031D02*
X12164277Y-16116079D01*
X12164277Y-16116079D02*
X12173801Y-16154174D01*
X12173801Y-16154174D02*
X12173801Y-16201793D01*
X12173801Y-16201793D02*
X12164277Y-16239888D01*
X12164277Y-16239888D02*
X12154753Y-16258936D01*
X12154753Y-16258936D02*
X12145229Y-16268460D01*
X12145229Y-16268460D02*
X12126182Y-16277984D01*
X12126182Y-16277984D02*
X12107134Y-16277984D01*
X12107134Y-16277984D02*
X12088086Y-16268460D01*
X12088086Y-16268460D02*
X12078563Y-16258936D01*
X12078563Y-16258936D02*
X12069039Y-16239888D01*
X12069039Y-16239888D02*
X12059515Y-16201793D01*
X12059515Y-16201793D02*
X12059515Y-16154174D01*
X12059515Y-16154174D02*
X12069039Y-16116079D01*
X12069039Y-16116079D02*
X12078563Y-16097031D01*
X12078563Y-16097031D02*
X12088086Y-16087508D01*
X12088086Y-16087508D02*
X12107134Y-16077984D01*
X12259515Y-16258936D02*
X12269039Y-16268460D01*
X12269039Y-16268460D02*
X12259515Y-16277984D01*
X12259515Y-16277984D02*
X12249991Y-16268460D01*
X12249991Y-16268460D02*
X12259515Y-16258936D01*
X12259515Y-16258936D02*
X12259515Y-16277984D01*
X12392848Y-16077984D02*
X12411896Y-16077984D01*
X12411896Y-16077984D02*
X12430944Y-16087508D01*
X12430944Y-16087508D02*
X12440467Y-16097031D01*
X12440467Y-16097031D02*
X12449991Y-16116079D01*
X12449991Y-16116079D02*
X12459515Y-16154174D01*
X12459515Y-16154174D02*
X12459515Y-16201793D01*
X12459515Y-16201793D02*
X12449991Y-16239888D01*
X12449991Y-16239888D02*
X12440467Y-16258936D01*
X12440467Y-16258936D02*
X12430944Y-16268460D01*
X12430944Y-16268460D02*
X12411896Y-16277984D01*
X12411896Y-16277984D02*
X12392848Y-16277984D01*
X12392848Y-16277984D02*
X12373801Y-16268460D01*
X12373801Y-16268460D02*
X12364277Y-16258936D01*
X12364277Y-16258936D02*
X12354753Y-16239888D01*
X12354753Y-16239888D02*
X12345229Y-16201793D01*
X12345229Y-16201793D02*
X12345229Y-16154174D01*
X12345229Y-16154174D02*
X12354753Y-16116079D01*
X12354753Y-16116079D02*
X12364277Y-16097031D01*
X12364277Y-16097031D02*
X12373801Y-16087508D01*
X12373801Y-16087508D02*
X12392848Y-16077984D01*
X12640467Y-16077984D02*
X12545229Y-16077984D01*
X12545229Y-16077984D02*
X12535706Y-16173222D01*
X12535706Y-16173222D02*
X12545229Y-16163698D01*
X12545229Y-16163698D02*
X12564277Y-16154174D01*
X12564277Y-16154174D02*
X12611896Y-16154174D01*
X12611896Y-16154174D02*
X12630944Y-16163698D01*
X12630944Y-16163698D02*
X12640467Y-16173222D01*
X12640467Y-16173222D02*
X12649991Y-16192269D01*
X12649991Y-16192269D02*
X12649991Y-16239888D01*
X12649991Y-16239888D02*
X12640467Y-16258936D01*
X12640467Y-16258936D02*
X12630944Y-16268460D01*
X12630944Y-16268460D02*
X12611896Y-16277984D01*
X12611896Y-16277984D02*
X12564277Y-16277984D01*
X12564277Y-16277984D02*
X12545229Y-16268460D01*
X12545229Y-16268460D02*
X12535706Y-16258936D01*
X12840467Y-16277984D02*
X12726182Y-16277984D01*
X12783325Y-16277984D02*
X12783325Y-16077984D01*
X12783325Y-16077984D02*
X12764277Y-16106555D01*
X12764277Y-16106555D02*
X12745229Y-16125603D01*
X12745229Y-16125603D02*
X12726182Y-16135127D01*
X12916658Y-16097031D02*
X12926182Y-16087508D01*
X12926182Y-16087508D02*
X12945229Y-16077984D01*
X12945229Y-16077984D02*
X12992848Y-16077984D01*
X12992848Y-16077984D02*
X13011896Y-16087508D01*
X13011896Y-16087508D02*
X13021420Y-16097031D01*
X13021420Y-16097031D02*
X13030944Y-16116079D01*
X13030944Y-16116079D02*
X13030944Y-16135127D01*
X13030944Y-16135127D02*
X13021420Y-16163698D01*
X13021420Y-16163698D02*
X12907134Y-16277984D01*
X12907134Y-16277984D02*
X13030944Y-16277984D01*
X13107134Y-16077984D02*
X13107134Y-16116079D01*
X13183325Y-16077984D02*
X13183325Y-16116079D01*
X13478563Y-16354174D02*
X13469039Y-16344650D01*
X13469039Y-16344650D02*
X13449991Y-16316079D01*
X13449991Y-16316079D02*
X13440468Y-16297031D01*
X13440468Y-16297031D02*
X13430944Y-16268460D01*
X13430944Y-16268460D02*
X13421420Y-16220841D01*
X13421420Y-16220841D02*
X13421420Y-16182746D01*
X13421420Y-16182746D02*
X13430944Y-16135127D01*
X13430944Y-16135127D02*
X13440468Y-16106555D01*
X13440468Y-16106555D02*
X13449991Y-16087508D01*
X13449991Y-16087508D02*
X13469039Y-16058936D01*
X13469039Y-16058936D02*
X13478563Y-16049412D01*
X13659515Y-16277984D02*
X13545229Y-16277984D01*
X13602372Y-16277984D02*
X13602372Y-16077984D01*
X13602372Y-16077984D02*
X13583325Y-16106555D01*
X13583325Y-16106555D02*
X13564277Y-16125603D01*
X13564277Y-16125603D02*
X13545229Y-16135127D01*
X13783325Y-16077984D02*
X13802372Y-16077984D01*
X13802372Y-16077984D02*
X13821420Y-16087508D01*
X13821420Y-16087508D02*
X13830944Y-16097031D01*
X13830944Y-16097031D02*
X13840468Y-16116079D01*
X13840468Y-16116079D02*
X13849991Y-16154174D01*
X13849991Y-16154174D02*
X13849991Y-16201793D01*
X13849991Y-16201793D02*
X13840468Y-16239888D01*
X13840468Y-16239888D02*
X13830944Y-16258936D01*
X13830944Y-16258936D02*
X13821420Y-16268460D01*
X13821420Y-16268460D02*
X13802372Y-16277984D01*
X13802372Y-16277984D02*
X13783325Y-16277984D01*
X13783325Y-16277984D02*
X13764277Y-16268460D01*
X13764277Y-16268460D02*
X13754753Y-16258936D01*
X13754753Y-16258936D02*
X13745229Y-16239888D01*
X13745229Y-16239888D02*
X13735706Y-16201793D01*
X13735706Y-16201793D02*
X13735706Y-16154174D01*
X13735706Y-16154174D02*
X13745229Y-16116079D01*
X13745229Y-16116079D02*
X13754753Y-16097031D01*
X13754753Y-16097031D02*
X13764277Y-16087508D01*
X13764277Y-16087508D02*
X13783325Y-16077984D01*
X14088087Y-16277984D02*
X14088087Y-16077984D01*
X14173801Y-16277984D02*
X14173801Y-16173222D01*
X14173801Y-16173222D02*
X14164277Y-16154174D01*
X14164277Y-16154174D02*
X14145230Y-16144650D01*
X14145230Y-16144650D02*
X14116658Y-16144650D01*
X14116658Y-16144650D02*
X14097610Y-16154174D01*
X14097610Y-16154174D02*
X14088087Y-16163698D01*
X14297610Y-16277984D02*
X14278563Y-16268460D01*
X14278563Y-16268460D02*
X14269039Y-16258936D01*
X14269039Y-16258936D02*
X14259515Y-16239888D01*
X14259515Y-16239888D02*
X14259515Y-16182746D01*
X14259515Y-16182746D02*
X14269039Y-16163698D01*
X14269039Y-16163698D02*
X14278563Y-16154174D01*
X14278563Y-16154174D02*
X14297610Y-16144650D01*
X14297610Y-16144650D02*
X14326182Y-16144650D01*
X14326182Y-16144650D02*
X14345230Y-16154174D01*
X14345230Y-16154174D02*
X14354753Y-16163698D01*
X14354753Y-16163698D02*
X14364277Y-16182746D01*
X14364277Y-16182746D02*
X14364277Y-16239888D01*
X14364277Y-16239888D02*
X14354753Y-16258936D01*
X14354753Y-16258936D02*
X14345230Y-16268460D01*
X14345230Y-16268460D02*
X14326182Y-16277984D01*
X14326182Y-16277984D02*
X14297610Y-16277984D01*
X14478563Y-16277984D02*
X14459515Y-16268460D01*
X14459515Y-16268460D02*
X14449991Y-16249412D01*
X14449991Y-16249412D02*
X14449991Y-16077984D01*
X14630944Y-16268460D02*
X14611896Y-16277984D01*
X14611896Y-16277984D02*
X14573801Y-16277984D01*
X14573801Y-16277984D02*
X14554753Y-16268460D01*
X14554753Y-16268460D02*
X14545230Y-16249412D01*
X14545230Y-16249412D02*
X14545230Y-16173222D01*
X14545230Y-16173222D02*
X14554753Y-16154174D01*
X14554753Y-16154174D02*
X14573801Y-16144650D01*
X14573801Y-16144650D02*
X14611896Y-16144650D01*
X14611896Y-16144650D02*
X14630944Y-16154174D01*
X14630944Y-16154174D02*
X14640468Y-16173222D01*
X14640468Y-16173222D02*
X14640468Y-16192269D01*
X14640468Y-16192269D02*
X14545230Y-16211317D01*
X14716658Y-16268460D02*
X14735706Y-16277984D01*
X14735706Y-16277984D02*
X14773801Y-16277984D01*
X14773801Y-16277984D02*
X14792849Y-16268460D01*
X14792849Y-16268460D02*
X14802372Y-16249412D01*
X14802372Y-16249412D02*
X14802372Y-16239888D01*
X14802372Y-16239888D02*
X14792849Y-16220841D01*
X14792849Y-16220841D02*
X14773801Y-16211317D01*
X14773801Y-16211317D02*
X14745230Y-16211317D01*
X14745230Y-16211317D02*
X14726182Y-16201793D01*
X14726182Y-16201793D02*
X14716658Y-16182746D01*
X14716658Y-16182746D02*
X14716658Y-16173222D01*
X14716658Y-16173222D02*
X14726182Y-16154174D01*
X14726182Y-16154174D02*
X14745230Y-16144650D01*
X14745230Y-16144650D02*
X14773801Y-16144650D01*
X14773801Y-16144650D02*
X14792849Y-16154174D01*
X14869039Y-16354174D02*
X14878563Y-16344650D01*
X14878563Y-16344650D02*
X14897611Y-16316079D01*
X14897611Y-16316079D02*
X14907134Y-16297031D01*
X14907134Y-16297031D02*
X14916658Y-16268460D01*
X14916658Y-16268460D02*
X14926182Y-16220841D01*
X14926182Y-16220841D02*
X14926182Y-16182746D01*
X14926182Y-16182746D02*
X14916658Y-16135127D01*
X14916658Y-16135127D02*
X14907134Y-16106555D01*
X14907134Y-16106555D02*
X14897611Y-16087508D01*
X14897611Y-16087508D02*
X14878563Y-16058936D01*
X14878563Y-16058936D02*
X14869039Y-16049412D01*
D14*
X9763500Y-16380500D02*
X9903500Y-16520500D01*
X9903500Y-16380500D02*
X9763500Y-16520500D01*
X9833500Y-16380500D02*
X9833500Y-16520500D01*
X9763500Y-16450500D02*
X9903500Y-16450500D01*
D11*
X10269039Y-16541984D02*
X10154753Y-16541984D01*
X10211896Y-16541984D02*
X10211896Y-16341984D01*
X10211896Y-16341984D02*
X10192848Y-16370555D01*
X10192848Y-16370555D02*
X10173801Y-16389603D01*
X10173801Y-16389603D02*
X10154753Y-16399127D01*
X10354753Y-16522936D02*
X10364277Y-16532460D01*
X10364277Y-16532460D02*
X10354753Y-16541984D01*
X10354753Y-16541984D02*
X10345229Y-16532460D01*
X10345229Y-16532460D02*
X10354753Y-16522936D01*
X10354753Y-16522936D02*
X10354753Y-16541984D01*
X10535705Y-16408650D02*
X10535705Y-16541984D01*
X10488086Y-16332460D02*
X10440467Y-16475317D01*
X10440467Y-16475317D02*
X10564277Y-16475317D01*
X10678563Y-16341984D02*
X10697610Y-16341984D01*
X10697610Y-16341984D02*
X10716658Y-16351508D01*
X10716658Y-16351508D02*
X10726182Y-16361031D01*
X10726182Y-16361031D02*
X10735705Y-16380079D01*
X10735705Y-16380079D02*
X10745229Y-16418174D01*
X10745229Y-16418174D02*
X10745229Y-16465793D01*
X10745229Y-16465793D02*
X10735705Y-16503888D01*
X10735705Y-16503888D02*
X10726182Y-16522936D01*
X10726182Y-16522936D02*
X10716658Y-16532460D01*
X10716658Y-16532460D02*
X10697610Y-16541984D01*
X10697610Y-16541984D02*
X10678563Y-16541984D01*
X10678563Y-16541984D02*
X10659515Y-16532460D01*
X10659515Y-16532460D02*
X10649991Y-16522936D01*
X10649991Y-16522936D02*
X10640467Y-16503888D01*
X10640467Y-16503888D02*
X10630944Y-16465793D01*
X10630944Y-16465793D02*
X10630944Y-16418174D01*
X10630944Y-16418174D02*
X10640467Y-16380079D01*
X10640467Y-16380079D02*
X10649991Y-16361031D01*
X10649991Y-16361031D02*
X10659515Y-16351508D01*
X10659515Y-16351508D02*
X10678563Y-16341984D01*
X10869039Y-16341984D02*
X10888086Y-16341984D01*
X10888086Y-16341984D02*
X10907134Y-16351508D01*
X10907134Y-16351508D02*
X10916658Y-16361031D01*
X10916658Y-16361031D02*
X10926182Y-16380079D01*
X10926182Y-16380079D02*
X10935705Y-16418174D01*
X10935705Y-16418174D02*
X10935705Y-16465793D01*
X10935705Y-16465793D02*
X10926182Y-16503888D01*
X10926182Y-16503888D02*
X10916658Y-16522936D01*
X10916658Y-16522936D02*
X10907134Y-16532460D01*
X10907134Y-16532460D02*
X10888086Y-16541984D01*
X10888086Y-16541984D02*
X10869039Y-16541984D01*
X10869039Y-16541984D02*
X10849991Y-16532460D01*
X10849991Y-16532460D02*
X10840467Y-16522936D01*
X10840467Y-16522936D02*
X10830944Y-16503888D01*
X10830944Y-16503888D02*
X10821420Y-16465793D01*
X10821420Y-16465793D02*
X10821420Y-16418174D01*
X10821420Y-16418174D02*
X10830944Y-16380079D01*
X10830944Y-16380079D02*
X10840467Y-16361031D01*
X10840467Y-16361031D02*
X10849991Y-16351508D01*
X10849991Y-16351508D02*
X10869039Y-16341984D01*
X11021420Y-16541984D02*
X11021420Y-16408650D01*
X11021420Y-16427698D02*
X11030944Y-16418174D01*
X11030944Y-16418174D02*
X11049991Y-16408650D01*
X11049991Y-16408650D02*
X11078563Y-16408650D01*
X11078563Y-16408650D02*
X11097610Y-16418174D01*
X11097610Y-16418174D02*
X11107134Y-16437222D01*
X11107134Y-16437222D02*
X11107134Y-16541984D01*
X11107134Y-16437222D02*
X11116658Y-16418174D01*
X11116658Y-16418174D02*
X11135705Y-16408650D01*
X11135705Y-16408650D02*
X11164277Y-16408650D01*
X11164277Y-16408650D02*
X11183325Y-16418174D01*
X11183325Y-16418174D02*
X11192848Y-16437222D01*
X11192848Y-16437222D02*
X11192848Y-16541984D01*
X11288086Y-16541984D02*
X11288086Y-16408650D01*
X11288086Y-16427698D02*
X11297610Y-16418174D01*
X11297610Y-16418174D02*
X11316658Y-16408650D01*
X11316658Y-16408650D02*
X11345229Y-16408650D01*
X11345229Y-16408650D02*
X11364277Y-16418174D01*
X11364277Y-16418174D02*
X11373801Y-16437222D01*
X11373801Y-16437222D02*
X11373801Y-16541984D01*
X11373801Y-16437222D02*
X11383324Y-16418174D01*
X11383324Y-16418174D02*
X11402372Y-16408650D01*
X11402372Y-16408650D02*
X11430943Y-16408650D01*
X11430943Y-16408650D02*
X11449991Y-16418174D01*
X11449991Y-16418174D02*
X11459515Y-16437222D01*
X11459515Y-16437222D02*
X11459515Y-16541984D01*
X11849991Y-16332460D02*
X11678563Y-16589603D01*
X12107134Y-16341984D02*
X12126182Y-16341984D01*
X12126182Y-16341984D02*
X12145229Y-16351508D01*
X12145229Y-16351508D02*
X12154753Y-16361031D01*
X12154753Y-16361031D02*
X12164277Y-16380079D01*
X12164277Y-16380079D02*
X12173801Y-16418174D01*
X12173801Y-16418174D02*
X12173801Y-16465793D01*
X12173801Y-16465793D02*
X12164277Y-16503888D01*
X12164277Y-16503888D02*
X12154753Y-16522936D01*
X12154753Y-16522936D02*
X12145229Y-16532460D01*
X12145229Y-16532460D02*
X12126182Y-16541984D01*
X12126182Y-16541984D02*
X12107134Y-16541984D01*
X12107134Y-16541984D02*
X12088086Y-16532460D01*
X12088086Y-16532460D02*
X12078563Y-16522936D01*
X12078563Y-16522936D02*
X12069039Y-16503888D01*
X12069039Y-16503888D02*
X12059515Y-16465793D01*
X12059515Y-16465793D02*
X12059515Y-16418174D01*
X12059515Y-16418174D02*
X12069039Y-16380079D01*
X12069039Y-16380079D02*
X12078563Y-16361031D01*
X12078563Y-16361031D02*
X12088086Y-16351508D01*
X12088086Y-16351508D02*
X12107134Y-16341984D01*
X12259515Y-16522936D02*
X12269039Y-16532460D01*
X12269039Y-16532460D02*
X12259515Y-16541984D01*
X12259515Y-16541984D02*
X12249991Y-16532460D01*
X12249991Y-16532460D02*
X12259515Y-16522936D01*
X12259515Y-16522936D02*
X12259515Y-16541984D01*
X12392848Y-16341984D02*
X12411896Y-16341984D01*
X12411896Y-16341984D02*
X12430944Y-16351508D01*
X12430944Y-16351508D02*
X12440467Y-16361031D01*
X12440467Y-16361031D02*
X12449991Y-16380079D01*
X12449991Y-16380079D02*
X12459515Y-16418174D01*
X12459515Y-16418174D02*
X12459515Y-16465793D01*
X12459515Y-16465793D02*
X12449991Y-16503888D01*
X12449991Y-16503888D02*
X12440467Y-16522936D01*
X12440467Y-16522936D02*
X12430944Y-16532460D01*
X12430944Y-16532460D02*
X12411896Y-16541984D01*
X12411896Y-16541984D02*
X12392848Y-16541984D01*
X12392848Y-16541984D02*
X12373801Y-16532460D01*
X12373801Y-16532460D02*
X12364277Y-16522936D01*
X12364277Y-16522936D02*
X12354753Y-16503888D01*
X12354753Y-16503888D02*
X12345229Y-16465793D01*
X12345229Y-16465793D02*
X12345229Y-16418174D01*
X12345229Y-16418174D02*
X12354753Y-16380079D01*
X12354753Y-16380079D02*
X12364277Y-16361031D01*
X12364277Y-16361031D02*
X12373801Y-16351508D01*
X12373801Y-16351508D02*
X12392848Y-16341984D01*
X12640467Y-16341984D02*
X12545229Y-16341984D01*
X12545229Y-16341984D02*
X12535706Y-16437222D01*
X12535706Y-16437222D02*
X12545229Y-16427698D01*
X12545229Y-16427698D02*
X12564277Y-16418174D01*
X12564277Y-16418174D02*
X12611896Y-16418174D01*
X12611896Y-16418174D02*
X12630944Y-16427698D01*
X12630944Y-16427698D02*
X12640467Y-16437222D01*
X12640467Y-16437222D02*
X12649991Y-16456269D01*
X12649991Y-16456269D02*
X12649991Y-16503888D01*
X12649991Y-16503888D02*
X12640467Y-16522936D01*
X12640467Y-16522936D02*
X12630944Y-16532460D01*
X12630944Y-16532460D02*
X12611896Y-16541984D01*
X12611896Y-16541984D02*
X12564277Y-16541984D01*
X12564277Y-16541984D02*
X12545229Y-16532460D01*
X12545229Y-16532460D02*
X12535706Y-16522936D01*
X12830944Y-16341984D02*
X12735706Y-16341984D01*
X12735706Y-16341984D02*
X12726182Y-16437222D01*
X12726182Y-16437222D02*
X12735706Y-16427698D01*
X12735706Y-16427698D02*
X12754753Y-16418174D01*
X12754753Y-16418174D02*
X12802372Y-16418174D01*
X12802372Y-16418174D02*
X12821420Y-16427698D01*
X12821420Y-16427698D02*
X12830944Y-16437222D01*
X12830944Y-16437222D02*
X12840467Y-16456269D01*
X12840467Y-16456269D02*
X12840467Y-16503888D01*
X12840467Y-16503888D02*
X12830944Y-16522936D01*
X12830944Y-16522936D02*
X12821420Y-16532460D01*
X12821420Y-16532460D02*
X12802372Y-16541984D01*
X12802372Y-16541984D02*
X12754753Y-16541984D01*
X12754753Y-16541984D02*
X12735706Y-16532460D01*
X12735706Y-16532460D02*
X12726182Y-16522936D01*
X13030944Y-16541984D02*
X12916658Y-16541984D01*
X12973801Y-16541984D02*
X12973801Y-16341984D01*
X12973801Y-16341984D02*
X12954753Y-16370555D01*
X12954753Y-16370555D02*
X12935706Y-16389603D01*
X12935706Y-16389603D02*
X12916658Y-16399127D01*
X13107134Y-16341984D02*
X13107134Y-16380079D01*
X13183325Y-16341984D02*
X13183325Y-16380079D01*
X13478563Y-16618174D02*
X13469039Y-16608650D01*
X13469039Y-16608650D02*
X13449991Y-16580079D01*
X13449991Y-16580079D02*
X13440468Y-16561031D01*
X13440468Y-16561031D02*
X13430944Y-16532460D01*
X13430944Y-16532460D02*
X13421420Y-16484841D01*
X13421420Y-16484841D02*
X13421420Y-16446746D01*
X13421420Y-16446746D02*
X13430944Y-16399127D01*
X13430944Y-16399127D02*
X13440468Y-16370555D01*
X13440468Y-16370555D02*
X13449991Y-16351508D01*
X13449991Y-16351508D02*
X13469039Y-16322936D01*
X13469039Y-16322936D02*
X13478563Y-16313412D01*
X13545229Y-16361031D02*
X13554753Y-16351508D01*
X13554753Y-16351508D02*
X13573801Y-16341984D01*
X13573801Y-16341984D02*
X13621420Y-16341984D01*
X13621420Y-16341984D02*
X13640468Y-16351508D01*
X13640468Y-16351508D02*
X13649991Y-16361031D01*
X13649991Y-16361031D02*
X13659515Y-16380079D01*
X13659515Y-16380079D02*
X13659515Y-16399127D01*
X13659515Y-16399127D02*
X13649991Y-16427698D01*
X13649991Y-16427698D02*
X13535706Y-16541984D01*
X13535706Y-16541984D02*
X13659515Y-16541984D01*
X13897610Y-16541984D02*
X13897610Y-16341984D01*
X13983325Y-16541984D02*
X13983325Y-16437222D01*
X13983325Y-16437222D02*
X13973801Y-16418174D01*
X13973801Y-16418174D02*
X13954753Y-16408650D01*
X13954753Y-16408650D02*
X13926182Y-16408650D01*
X13926182Y-16408650D02*
X13907134Y-16418174D01*
X13907134Y-16418174D02*
X13897610Y-16427698D01*
X14107134Y-16541984D02*
X14088087Y-16532460D01*
X14088087Y-16532460D02*
X14078563Y-16522936D01*
X14078563Y-16522936D02*
X14069039Y-16503888D01*
X14069039Y-16503888D02*
X14069039Y-16446746D01*
X14069039Y-16446746D02*
X14078563Y-16427698D01*
X14078563Y-16427698D02*
X14088087Y-16418174D01*
X14088087Y-16418174D02*
X14107134Y-16408650D01*
X14107134Y-16408650D02*
X14135706Y-16408650D01*
X14135706Y-16408650D02*
X14154753Y-16418174D01*
X14154753Y-16418174D02*
X14164277Y-16427698D01*
X14164277Y-16427698D02*
X14173801Y-16446746D01*
X14173801Y-16446746D02*
X14173801Y-16503888D01*
X14173801Y-16503888D02*
X14164277Y-16522936D01*
X14164277Y-16522936D02*
X14154753Y-16532460D01*
X14154753Y-16532460D02*
X14135706Y-16541984D01*
X14135706Y-16541984D02*
X14107134Y-16541984D01*
X14288087Y-16541984D02*
X14269039Y-16532460D01*
X14269039Y-16532460D02*
X14259515Y-16513412D01*
X14259515Y-16513412D02*
X14259515Y-16341984D01*
X14440468Y-16532460D02*
X14421420Y-16541984D01*
X14421420Y-16541984D02*
X14383325Y-16541984D01*
X14383325Y-16541984D02*
X14364277Y-16532460D01*
X14364277Y-16532460D02*
X14354753Y-16513412D01*
X14354753Y-16513412D02*
X14354753Y-16437222D01*
X14354753Y-16437222D02*
X14364277Y-16418174D01*
X14364277Y-16418174D02*
X14383325Y-16408650D01*
X14383325Y-16408650D02*
X14421420Y-16408650D01*
X14421420Y-16408650D02*
X14440468Y-16418174D01*
X14440468Y-16418174D02*
X14449991Y-16437222D01*
X14449991Y-16437222D02*
X14449991Y-16456269D01*
X14449991Y-16456269D02*
X14354753Y-16475317D01*
X14526182Y-16532460D02*
X14545230Y-16541984D01*
X14545230Y-16541984D02*
X14583325Y-16541984D01*
X14583325Y-16541984D02*
X14602372Y-16532460D01*
X14602372Y-16532460D02*
X14611896Y-16513412D01*
X14611896Y-16513412D02*
X14611896Y-16503888D01*
X14611896Y-16503888D02*
X14602372Y-16484841D01*
X14602372Y-16484841D02*
X14583325Y-16475317D01*
X14583325Y-16475317D02*
X14554753Y-16475317D01*
X14554753Y-16475317D02*
X14535706Y-16465793D01*
X14535706Y-16465793D02*
X14526182Y-16446746D01*
X14526182Y-16446746D02*
X14526182Y-16437222D01*
X14526182Y-16437222D02*
X14535706Y-16418174D01*
X14535706Y-16418174D02*
X14554753Y-16408650D01*
X14554753Y-16408650D02*
X14583325Y-16408650D01*
X14583325Y-16408650D02*
X14602372Y-16418174D01*
X14678563Y-16618174D02*
X14688087Y-16608650D01*
X14688087Y-16608650D02*
X14707134Y-16580079D01*
X14707134Y-16580079D02*
X14716658Y-16561031D01*
X14716658Y-16561031D02*
X14726182Y-16532460D01*
X14726182Y-16532460D02*
X14735706Y-16484841D01*
X14735706Y-16484841D02*
X14735706Y-16446746D01*
X14735706Y-16446746D02*
X14726182Y-16399127D01*
X14726182Y-16399127D02*
X14716658Y-16370555D01*
X14716658Y-16370555D02*
X14707134Y-16351508D01*
X14707134Y-16351508D02*
X14688087Y-16322936D01*
X14688087Y-16322936D02*
X14678563Y-16313412D01*
M02*
