%TF.GenerationSoftware,KiCad,Pcbnew,8.0.0*%
%TF.CreationDate,2024-05-13T12:24:45+02:00*%
%TF.ProjectId,plc_io_module,706c635f-696f-45f6-9d6f-64756c652e6b,1.0.0*%
%TF.SameCoordinates,Original*%
%TF.FileFunction,Legend,Bot*%
%TF.FilePolarity,Positive*%
%FSLAX46Y46*%
G04 Gerber Fmt 4.6, Leading zero omitted, Abs format (unit mm)*
G04 Created by KiCad (PCBNEW 8.0.0) date 2024-05-13 12:24:45*
%MOMM*%
%LPD*%
G01*
G04 APERTURE LIST*
G04 Aperture macros list*
%AMRoundRect*
0 Rectangle with rounded corners*
0 $1 Rounding radius*
0 $2 $3 $4 $5 $6 $7 $8 $9 X,Y pos of 4 corners*
0 Add a 4 corners polygon primitive as box body*
4,1,4,$2,$3,$4,$5,$6,$7,$8,$9,$2,$3,0*
0 Add four circle primitives for the rounded corners*
1,1,$1+$1,$2,$3*
1,1,$1+$1,$4,$5*
1,1,$1+$1,$6,$7*
1,1,$1+$1,$8,$9*
0 Add four rect primitives between the rounded corners*
20,1,$1+$1,$2,$3,$4,$5,0*
20,1,$1+$1,$4,$5,$6,$7,0*
20,1,$1+$1,$6,$7,$8,$9,0*
20,1,$1+$1,$8,$9,$2,$3,0*%
G04 Aperture macros list end*
%ADD10C,0.250000*%
%ADD11C,0.150000*%
%ADD12C,0.120000*%
%ADD13C,4.300000*%
%ADD14RoundRect,0.250000X-0.600000X0.600000X-0.600000X-0.600000X0.600000X-0.600000X0.600000X0.600000X0*%
%ADD15C,1.700000*%
%ADD16R,2.600000X2.600000*%
%ADD17C,2.600000*%
%ADD18R,1.800000X1.800000*%
%ADD19C,1.800000*%
%ADD20C,1.500000*%
%ADD21RoundRect,0.250000X0.650000X-0.412500X0.650000X0.412500X-0.650000X0.412500X-0.650000X-0.412500X0*%
%ADD22RoundRect,0.250000X-0.450000X0.350000X-0.450000X-0.350000X0.450000X-0.350000X0.450000X0.350000X0*%
%ADD23RoundRect,0.250000X-0.350000X-0.450000X0.350000X-0.450000X0.350000X0.450000X-0.350000X0.450000X0*%
%ADD24RoundRect,0.250000X0.450000X-0.350000X0.450000X0.350000X-0.450000X0.350000X-0.450000X-0.350000X0*%
%ADD25R,3.150000X1.000000*%
G04 APERTURE END LIST*
D10*
G36*
X188319555Y-111314510D02*
G01*
X188302925Y-111354661D01*
X188300523Y-111379047D01*
X188302086Y-111456904D01*
X188301504Y-111458651D01*
X188302364Y-111470757D01*
X188302925Y-111498671D01*
X188304643Y-111502819D01*
X188304962Y-111507301D01*
X188313720Y-111530187D01*
X188363803Y-111625920D01*
X188369209Y-111638970D01*
X188373130Y-111643747D01*
X188374393Y-111646162D01*
X188376884Y-111648323D01*
X188384754Y-111657912D01*
X188429963Y-111702171D01*
X188322476Y-111730289D01*
X188020346Y-111732318D01*
X187871858Y-111696908D01*
X187815673Y-111642395D01*
X187788316Y-111590103D01*
X187786846Y-111458629D01*
X187810934Y-111408161D01*
X187868066Y-111349277D01*
X188004760Y-111313518D01*
X188306890Y-111311489D01*
X188319555Y-111314510D01*
G37*
G36*
X189007875Y-113102835D02*
G01*
X187366982Y-113102835D01*
X187366982Y-112489919D01*
X187491982Y-112489919D01*
X187507405Y-112536188D01*
X187539360Y-112573034D01*
X187582985Y-112594846D01*
X187631634Y-112598303D01*
X187655528Y-112592870D01*
X188205924Y-112407512D01*
X188206601Y-112588968D01*
X187972566Y-112589782D01*
X187927506Y-112608446D01*
X187893018Y-112642934D01*
X187874354Y-112687994D01*
X187874354Y-112736766D01*
X187893018Y-112781826D01*
X187927506Y-112816314D01*
X187972566Y-112834978D01*
X187996952Y-112837380D01*
X188207526Y-112836648D01*
X188207687Y-112879623D01*
X188226351Y-112924683D01*
X188260839Y-112959171D01*
X188305899Y-112977835D01*
X188354671Y-112977835D01*
X188399731Y-112959171D01*
X188434219Y-112924683D01*
X188452883Y-112879623D01*
X188455285Y-112855237D01*
X188455212Y-112835787D01*
X188688005Y-112834978D01*
X188733065Y-112816314D01*
X188767553Y-112781826D01*
X188786217Y-112736766D01*
X188786217Y-112687994D01*
X188767553Y-112642934D01*
X188733065Y-112608446D01*
X188688005Y-112589782D01*
X188663619Y-112587380D01*
X188454287Y-112588107D01*
X188452984Y-112239105D01*
X188454303Y-112220556D01*
X188452899Y-112216346D01*
X188452883Y-112211804D01*
X188445213Y-112193288D01*
X188438880Y-112174287D01*
X188435938Y-112170895D01*
X188434219Y-112166744D01*
X188420046Y-112152571D01*
X188406924Y-112137441D01*
X188402908Y-112135433D01*
X188399731Y-112132256D01*
X188381216Y-112124587D01*
X188363300Y-112115629D01*
X188358820Y-112115310D01*
X188354671Y-112113592D01*
X188334634Y-112113592D01*
X188314650Y-112112172D01*
X188308405Y-112113592D01*
X188305899Y-112113592D01*
X188302849Y-112114855D01*
X188290756Y-112117605D01*
X187554097Y-112365690D01*
X187517251Y-112397645D01*
X187495439Y-112441270D01*
X187491982Y-112489919D01*
X187366982Y-112489919D01*
X187366982Y-111426666D01*
X187538619Y-111426666D01*
X187540542Y-111598682D01*
X187539600Y-111601508D01*
X187540755Y-111617761D01*
X187541021Y-111641528D01*
X187542739Y-111645676D01*
X187543058Y-111650158D01*
X187551816Y-111673044D01*
X187601901Y-111768780D01*
X187607305Y-111781826D01*
X187611224Y-111786602D01*
X187612489Y-111789019D01*
X187614983Y-111791182D01*
X187622850Y-111800768D01*
X187710305Y-111885621D01*
X187713896Y-111891606D01*
X187724800Y-111899685D01*
X187737030Y-111911551D01*
X187745615Y-111915107D01*
X187753084Y-111920641D01*
X187776159Y-111928886D01*
X187960547Y-111972856D01*
X187972566Y-111977835D01*
X187987655Y-111979321D01*
X187990875Y-111980089D01*
X187992697Y-111979817D01*
X187996952Y-111980237D01*
X188322657Y-111978049D01*
X188336361Y-111980089D01*
X188351460Y-111977856D01*
X188354671Y-111977835D01*
X188356372Y-111977130D01*
X188360602Y-111976505D01*
X188537551Y-111930216D01*
X188545147Y-111930216D01*
X188558168Y-111924822D01*
X188574153Y-111920641D01*
X188581619Y-111915108D01*
X188590207Y-111911552D01*
X188609149Y-111896007D01*
X188613879Y-111891131D01*
X188660108Y-111979495D01*
X188696953Y-112011451D01*
X188743223Y-112026874D01*
X188791873Y-112023416D01*
X188835496Y-112001605D01*
X188867452Y-111964760D01*
X188882875Y-111918489D01*
X188879418Y-111869840D01*
X188870660Y-111846954D01*
X188820574Y-111751217D01*
X188815171Y-111738172D01*
X188811251Y-111733395D01*
X188809987Y-111730979D01*
X188807492Y-111728815D01*
X188799626Y-111719230D01*
X188766779Y-111687361D01*
X188767553Y-111686588D01*
X188772544Y-111674538D01*
X188784180Y-111650158D01*
X188784498Y-111645677D01*
X188786217Y-111641528D01*
X188788619Y-111617142D01*
X188786695Y-111445122D01*
X188787637Y-111442299D01*
X188786482Y-111426056D01*
X188786217Y-111402280D01*
X188784498Y-111398130D01*
X188784180Y-111393650D01*
X188775422Y-111370764D01*
X188725338Y-111275030D01*
X188719933Y-111261981D01*
X188716011Y-111257203D01*
X188714749Y-111254789D01*
X188712257Y-111252627D01*
X188704388Y-111243039D01*
X188616930Y-111158183D01*
X188613341Y-111152202D01*
X188602441Y-111144126D01*
X188590207Y-111132256D01*
X188581619Y-111128699D01*
X188574153Y-111123167D01*
X188551078Y-111114922D01*
X188366690Y-111070951D01*
X188354671Y-111065973D01*
X188339579Y-111064486D01*
X188336361Y-111063719D01*
X188334539Y-111063990D01*
X188330285Y-111063571D01*
X188004579Y-111065758D01*
X187990875Y-111063719D01*
X187975776Y-111065951D01*
X187972566Y-111065973D01*
X187970864Y-111066677D01*
X187966635Y-111067303D01*
X187789686Y-111113592D01*
X187782089Y-111113592D01*
X187769068Y-111118985D01*
X187753084Y-111123167D01*
X187745615Y-111128700D01*
X187737030Y-111132257D01*
X187718088Y-111147802D01*
X187623814Y-111244966D01*
X187612489Y-111254789D01*
X187609172Y-111260057D01*
X187607305Y-111261982D01*
X187606043Y-111265028D01*
X187599434Y-111275527D01*
X187561138Y-111355766D01*
X187559685Y-111357220D01*
X187554694Y-111369268D01*
X187543058Y-111393650D01*
X187542739Y-111398131D01*
X187541021Y-111402280D01*
X187538619Y-111426666D01*
X187366982Y-111426666D01*
X187366982Y-110784386D01*
X187541021Y-110784386D01*
X187559685Y-110829446D01*
X187594173Y-110863934D01*
X187639233Y-110882598D01*
X187663619Y-110885000D01*
X188688005Y-110882598D01*
X188733065Y-110863934D01*
X188767553Y-110829446D01*
X188786217Y-110784386D01*
X188786217Y-110735614D01*
X188767553Y-110690554D01*
X188733065Y-110656066D01*
X188688005Y-110637402D01*
X188663619Y-110635000D01*
X187639233Y-110637402D01*
X187594173Y-110656066D01*
X187559685Y-110690554D01*
X187541021Y-110735614D01*
X187541021Y-110784386D01*
X187366982Y-110784386D01*
X187366982Y-110510000D01*
X189007875Y-110510000D01*
X189007875Y-113102835D01*
G37*
G36*
X152775779Y-59013018D02*
G01*
X148612497Y-59013018D01*
X148612497Y-58121719D01*
X148737497Y-58121719D01*
X148756161Y-58166779D01*
X148790649Y-58201267D01*
X148835709Y-58219931D01*
X148860095Y-58222333D01*
X149117590Y-58221546D01*
X149118449Y-58502671D01*
X149137113Y-58547731D01*
X149171601Y-58582219D01*
X149216661Y-58600883D01*
X149265433Y-58600883D01*
X149310493Y-58582219D01*
X149344981Y-58547731D01*
X149363645Y-58502671D01*
X149366047Y-58478285D01*
X149365260Y-58220789D01*
X149646386Y-58219931D01*
X149691446Y-58201267D01*
X149725934Y-58166779D01*
X149744598Y-58121719D01*
X149744598Y-58072947D01*
X149725934Y-58027887D01*
X149691446Y-57993399D01*
X149646386Y-57974735D01*
X149622000Y-57972333D01*
X149364503Y-57973119D01*
X149363794Y-57740766D01*
X149880354Y-57740766D01*
X149899018Y-57785826D01*
X149899023Y-57785831D01*
X149914564Y-57804768D01*
X150464092Y-58351135D01*
X150497315Y-58446424D01*
X150498289Y-58494947D01*
X150474433Y-58544933D01*
X150455296Y-58565099D01*
X150404591Y-58591626D01*
X150225627Y-58593264D01*
X150174398Y-58568814D01*
X150120017Y-58517209D01*
X150074958Y-58498544D01*
X150026184Y-58498544D01*
X149981125Y-58517209D01*
X149946638Y-58551696D01*
X149927973Y-58596755D01*
X149927973Y-58645529D01*
X149946638Y-58690588D01*
X149962183Y-58709530D01*
X150013507Y-58758235D01*
X150021551Y-58767510D01*
X150026687Y-58770743D01*
X150028743Y-58772694D01*
X150031793Y-58773957D01*
X150042288Y-58780564D01*
X150122528Y-58818860D01*
X150123982Y-58820314D01*
X150136031Y-58825305D01*
X150160412Y-58836941D01*
X150164892Y-58837259D01*
X150169042Y-58838978D01*
X150193428Y-58841380D01*
X150412809Y-58839372D01*
X150415889Y-58840399D01*
X150432921Y-58839188D01*
X150455909Y-58838978D01*
X150460057Y-58837259D01*
X150464539Y-58836941D01*
X150487425Y-58828183D01*
X150583161Y-58778097D01*
X150596207Y-58772694D01*
X150600983Y-58768774D01*
X150603400Y-58767510D01*
X150605563Y-58765015D01*
X150615149Y-58757149D01*
X150663854Y-58705824D01*
X150673129Y-58697781D01*
X150676362Y-58692644D01*
X150678313Y-58690589D01*
X150679576Y-58687538D01*
X150686183Y-58677044D01*
X150724479Y-58596803D01*
X150725933Y-58595350D01*
X150730924Y-58583300D01*
X150742560Y-58558920D01*
X150742878Y-58554439D01*
X150744597Y-58550290D01*
X150746999Y-58525904D01*
X150745046Y-58428683D01*
X150746017Y-58415031D01*
X150744652Y-58409028D01*
X150744597Y-58406280D01*
X150743333Y-58403230D01*
X150740584Y-58391137D01*
X150696978Y-58266068D01*
X150696978Y-58263422D01*
X150691149Y-58249350D01*
X150682975Y-58225906D01*
X150680031Y-58222512D01*
X150678313Y-58218363D01*
X150662768Y-58199421D01*
X150527919Y-58065348D01*
X150878934Y-58065348D01*
X150880354Y-58071593D01*
X150880354Y-58074100D01*
X150881617Y-58077151D01*
X150884367Y-58089242D01*
X151132452Y-58825903D01*
X151164407Y-58862749D01*
X151208031Y-58884561D01*
X151256681Y-58888018D01*
X151302950Y-58872595D01*
X151339796Y-58840639D01*
X151361608Y-58797015D01*
X151365065Y-58748365D01*
X151359632Y-58724471D01*
X151351642Y-58700746D01*
X151736077Y-58700746D01*
X151739534Y-58749395D01*
X151761346Y-58793020D01*
X151798192Y-58824975D01*
X151844461Y-58840398D01*
X151893110Y-58836941D01*
X151936735Y-58815129D01*
X151968690Y-58778283D01*
X151978680Y-58755908D01*
X152193062Y-58107952D01*
X152418166Y-58778283D01*
X152450121Y-58815129D01*
X152493745Y-58836941D01*
X152542395Y-58840398D01*
X152588664Y-58824975D01*
X152625510Y-58793019D01*
X152647322Y-58749395D01*
X152650779Y-58700745D01*
X152645346Y-58676851D01*
X152314596Y-57691920D01*
X152313989Y-57683365D01*
X152307091Y-57669569D01*
X152302023Y-57654477D01*
X152296171Y-57647729D01*
X152292177Y-57639741D01*
X152280339Y-57629474D01*
X152270068Y-57617631D01*
X152262076Y-57613635D01*
X152255331Y-57607785D01*
X152240463Y-57602829D01*
X152226443Y-57595819D01*
X152217533Y-57595185D01*
X152209062Y-57592362D01*
X152193427Y-57593472D01*
X152177794Y-57592362D01*
X152169322Y-57595185D01*
X152160412Y-57595819D01*
X152146390Y-57602830D01*
X152131525Y-57607785D01*
X152124779Y-57613635D01*
X152116788Y-57617631D01*
X152106519Y-57629471D01*
X152094679Y-57639740D01*
X152090683Y-57647730D01*
X152084833Y-57654477D01*
X152074842Y-57676852D01*
X151736077Y-58700746D01*
X151351642Y-58700746D01*
X151174274Y-58174074D01*
X151355730Y-58173397D01*
X151356544Y-58407433D01*
X151375208Y-58452493D01*
X151409696Y-58486981D01*
X151454756Y-58505645D01*
X151503528Y-58505645D01*
X151548588Y-58486981D01*
X151583076Y-58452493D01*
X151601740Y-58407433D01*
X151604142Y-58383047D01*
X151603410Y-58172472D01*
X151646385Y-58172312D01*
X151691445Y-58153648D01*
X151725933Y-58119160D01*
X151744597Y-58074100D01*
X151744597Y-58025328D01*
X151725933Y-57980268D01*
X151691445Y-57945780D01*
X151646385Y-57927116D01*
X151621999Y-57924714D01*
X151602549Y-57924786D01*
X151601740Y-57691994D01*
X151583076Y-57646934D01*
X151548588Y-57612446D01*
X151503528Y-57593782D01*
X151454756Y-57593782D01*
X151409696Y-57612446D01*
X151375208Y-57646934D01*
X151356544Y-57691994D01*
X151354142Y-57716380D01*
X151354869Y-57925711D01*
X151005866Y-57927014D01*
X150987318Y-57925696D01*
X150983108Y-57927099D01*
X150978566Y-57927116D01*
X150960050Y-57934785D01*
X150941049Y-57941119D01*
X150937657Y-57944060D01*
X150933506Y-57945780D01*
X150919337Y-57959948D01*
X150904203Y-57973074D01*
X150902194Y-57977091D01*
X150899018Y-57980268D01*
X150891350Y-57998780D01*
X150882391Y-58016699D01*
X150882072Y-58021178D01*
X150880354Y-58025328D01*
X150880354Y-58045364D01*
X150878934Y-58065348D01*
X150527919Y-58065348D01*
X150301534Y-57840265D01*
X150646385Y-57838978D01*
X150691445Y-57820314D01*
X150725933Y-57785826D01*
X150744597Y-57740766D01*
X150744597Y-57691994D01*
X150725933Y-57646934D01*
X150691445Y-57612446D01*
X150646385Y-57593782D01*
X150621999Y-57591380D01*
X149978566Y-57593782D01*
X149978565Y-57593782D01*
X149965367Y-57599248D01*
X149933506Y-57612446D01*
X149899018Y-57646934D01*
X149880354Y-57691994D01*
X149880354Y-57740766D01*
X149363794Y-57740766D01*
X149363645Y-57691994D01*
X149344981Y-57646934D01*
X149310493Y-57612446D01*
X149265433Y-57593782D01*
X149216661Y-57593782D01*
X149171601Y-57612446D01*
X149137113Y-57646934D01*
X149118449Y-57691994D01*
X149116047Y-57716380D01*
X149116833Y-57973876D01*
X148835709Y-57974735D01*
X148790649Y-57993399D01*
X148756161Y-58027887D01*
X148737497Y-58072947D01*
X148737497Y-58121719D01*
X148612497Y-58121719D01*
X148612497Y-57466380D01*
X152775779Y-57466380D01*
X152775779Y-59013018D01*
G37*
G36*
X188319555Y-96074510D02*
G01*
X188302925Y-96114661D01*
X188300523Y-96139047D01*
X188302086Y-96216904D01*
X188301504Y-96218651D01*
X188302364Y-96230757D01*
X188302925Y-96258671D01*
X188304643Y-96262819D01*
X188304962Y-96267301D01*
X188313720Y-96290187D01*
X188363803Y-96385920D01*
X188369209Y-96398970D01*
X188373130Y-96403747D01*
X188374393Y-96406162D01*
X188376884Y-96408323D01*
X188384754Y-96417912D01*
X188429963Y-96462171D01*
X188322476Y-96490289D01*
X188020346Y-96492318D01*
X187871858Y-96456908D01*
X187815673Y-96402395D01*
X187788316Y-96350103D01*
X187786846Y-96218629D01*
X187810934Y-96168161D01*
X187868066Y-96109277D01*
X188004760Y-96073518D01*
X188306890Y-96071489D01*
X188319555Y-96074510D01*
G37*
G36*
X189007875Y-97815216D02*
G01*
X187413619Y-97815216D01*
X187413619Y-97281774D01*
X187538619Y-97281774D01*
X187541021Y-97293915D01*
X187541021Y-97306290D01*
X187545706Y-97317603D01*
X187548084Y-97329619D01*
X187554949Y-97339917D01*
X187559685Y-97351350D01*
X187568344Y-97360009D01*
X187575138Y-97370200D01*
X187585422Y-97377087D01*
X187594173Y-97385838D01*
X187605485Y-97390523D01*
X187615662Y-97397339D01*
X187627800Y-97399766D01*
X187639233Y-97404502D01*
X187663362Y-97406878D01*
X187663489Y-97406904D01*
X187663532Y-97406895D01*
X187663619Y-97406904D01*
X188540266Y-97404848D01*
X188541021Y-97592004D01*
X188559685Y-97637064D01*
X188594173Y-97671552D01*
X188639233Y-97690216D01*
X188688005Y-97690216D01*
X188733065Y-97671552D01*
X188767553Y-97637064D01*
X188786217Y-97592004D01*
X188788619Y-97567618D01*
X188786217Y-96971804D01*
X188767553Y-96926744D01*
X188733065Y-96892256D01*
X188688005Y-96873592D01*
X188639233Y-96873592D01*
X188594173Y-96892256D01*
X188559685Y-96926744D01*
X188541021Y-96971804D01*
X188538619Y-96996190D01*
X188539268Y-97157195D01*
X188006653Y-97158444D01*
X188006909Y-97157826D01*
X188013517Y-97147330D01*
X188069894Y-97029206D01*
X188073351Y-96980557D01*
X188057928Y-96934286D01*
X188025972Y-96897441D01*
X187982349Y-96875630D01*
X187933699Y-96872172D01*
X187887429Y-96887595D01*
X187850584Y-96919551D01*
X187837529Y-96940289D01*
X187802017Y-97014695D01*
X187733970Y-97084828D01*
X187603607Y-97174062D01*
X187594173Y-97177970D01*
X187586090Y-97186052D01*
X187575323Y-97193423D01*
X187568435Y-97203707D01*
X187559685Y-97212458D01*
X187554999Y-97223770D01*
X187548184Y-97233947D01*
X187545756Y-97246085D01*
X187541021Y-97257518D01*
X187541021Y-97269763D01*
X187538619Y-97281774D01*
X187413619Y-97281774D01*
X187413619Y-96186666D01*
X187538619Y-96186666D01*
X187540542Y-96358682D01*
X187539600Y-96361508D01*
X187540755Y-96377761D01*
X187541021Y-96401528D01*
X187542739Y-96405676D01*
X187543058Y-96410158D01*
X187551816Y-96433044D01*
X187601901Y-96528780D01*
X187607305Y-96541826D01*
X187611224Y-96546602D01*
X187612489Y-96549019D01*
X187614983Y-96551182D01*
X187622850Y-96560768D01*
X187710305Y-96645621D01*
X187713896Y-96651606D01*
X187724800Y-96659685D01*
X187737030Y-96671551D01*
X187745615Y-96675107D01*
X187753084Y-96680641D01*
X187776159Y-96688886D01*
X187960547Y-96732856D01*
X187972566Y-96737835D01*
X187987655Y-96739321D01*
X187990875Y-96740089D01*
X187992697Y-96739817D01*
X187996952Y-96740237D01*
X188322657Y-96738049D01*
X188336361Y-96740089D01*
X188351460Y-96737856D01*
X188354671Y-96737835D01*
X188356372Y-96737130D01*
X188360602Y-96736505D01*
X188537551Y-96690216D01*
X188545147Y-96690216D01*
X188558168Y-96684822D01*
X188574153Y-96680641D01*
X188581619Y-96675108D01*
X188590207Y-96671552D01*
X188609149Y-96656007D01*
X188613879Y-96651131D01*
X188660108Y-96739495D01*
X188696953Y-96771451D01*
X188743223Y-96786874D01*
X188791873Y-96783416D01*
X188835496Y-96761605D01*
X188867452Y-96724760D01*
X188882875Y-96678489D01*
X188879418Y-96629840D01*
X188870660Y-96606954D01*
X188820574Y-96511217D01*
X188815171Y-96498172D01*
X188811251Y-96493395D01*
X188809987Y-96490979D01*
X188807492Y-96488815D01*
X188799626Y-96479230D01*
X188766779Y-96447361D01*
X188767553Y-96446588D01*
X188772544Y-96434538D01*
X188784180Y-96410158D01*
X188784498Y-96405677D01*
X188786217Y-96401528D01*
X188788619Y-96377142D01*
X188786695Y-96205122D01*
X188787637Y-96202299D01*
X188786482Y-96186056D01*
X188786217Y-96162280D01*
X188784498Y-96158130D01*
X188784180Y-96153650D01*
X188775422Y-96130764D01*
X188725338Y-96035030D01*
X188719933Y-96021981D01*
X188716011Y-96017203D01*
X188714749Y-96014789D01*
X188712257Y-96012627D01*
X188704388Y-96003039D01*
X188616930Y-95918183D01*
X188613341Y-95912202D01*
X188602441Y-95904126D01*
X188590207Y-95892256D01*
X188581619Y-95888699D01*
X188574153Y-95883167D01*
X188551078Y-95874922D01*
X188366690Y-95830951D01*
X188354671Y-95825973D01*
X188339579Y-95824486D01*
X188336361Y-95823719D01*
X188334539Y-95823990D01*
X188330285Y-95823571D01*
X188004579Y-95825758D01*
X187990875Y-95823719D01*
X187975776Y-95825951D01*
X187972566Y-95825973D01*
X187970864Y-95826677D01*
X187966635Y-95827303D01*
X187789686Y-95873592D01*
X187782089Y-95873592D01*
X187769068Y-95878985D01*
X187753084Y-95883167D01*
X187745615Y-95888700D01*
X187737030Y-95892257D01*
X187718088Y-95907802D01*
X187623814Y-96004966D01*
X187612489Y-96014789D01*
X187609172Y-96020057D01*
X187607305Y-96021982D01*
X187606043Y-96025028D01*
X187599434Y-96035527D01*
X187561138Y-96115766D01*
X187559685Y-96117220D01*
X187554694Y-96129268D01*
X187543058Y-96153650D01*
X187542739Y-96158131D01*
X187541021Y-96162280D01*
X187538619Y-96186666D01*
X187413619Y-96186666D01*
X187413619Y-95544386D01*
X187541021Y-95544386D01*
X187559685Y-95589446D01*
X187594173Y-95623934D01*
X187639233Y-95642598D01*
X187663619Y-95645000D01*
X188688005Y-95642598D01*
X188733065Y-95623934D01*
X188767553Y-95589446D01*
X188786217Y-95544386D01*
X188786217Y-95495614D01*
X188767553Y-95450554D01*
X188733065Y-95416066D01*
X188688005Y-95397402D01*
X188663619Y-95395000D01*
X187639233Y-95397402D01*
X187594173Y-95416066D01*
X187559685Y-95450554D01*
X187541021Y-95495614D01*
X187541021Y-95544386D01*
X187413619Y-95544386D01*
X187413619Y-95270000D01*
X189007875Y-95270000D01*
X189007875Y-97815216D01*
G37*
G36*
X188540564Y-87334517D02*
G01*
X188509038Y-87433610D01*
X188450775Y-87493659D01*
X188388650Y-87526160D01*
X188226997Y-87568448D01*
X188114139Y-87570069D01*
X187952730Y-87531578D01*
X187883208Y-87498398D01*
X187821009Y-87438049D01*
X187788479Y-87344748D01*
X187787581Y-87246614D01*
X188539744Y-87244850D01*
X188540564Y-87334517D01*
G37*
G36*
X188913619Y-87943333D02*
G01*
X187413619Y-87943333D01*
X187413619Y-87121905D01*
X187538619Y-87121905D01*
X187540788Y-87358929D01*
X187539601Y-87375634D01*
X187540997Y-87381773D01*
X187541021Y-87384386D01*
X187542284Y-87387437D01*
X187545034Y-87399528D01*
X187588640Y-87524597D01*
X187588640Y-87527244D01*
X187594469Y-87541316D01*
X187602643Y-87564760D01*
X187605586Y-87568153D01*
X187607305Y-87572303D01*
X187622850Y-87591245D01*
X187720014Y-87685518D01*
X187729837Y-87696844D01*
X187735104Y-87700160D01*
X187737030Y-87702028D01*
X187740077Y-87703290D01*
X187750574Y-87709898D01*
X187840027Y-87752591D01*
X187848322Y-87758737D01*
X187866552Y-87765250D01*
X187868698Y-87766275D01*
X187869597Y-87766338D01*
X187871397Y-87766982D01*
X188055785Y-87810952D01*
X188067804Y-87815931D01*
X188082893Y-87817417D01*
X188086113Y-87818185D01*
X188087935Y-87817913D01*
X188092190Y-87818333D01*
X188228919Y-87816369D01*
X188241123Y-87818185D01*
X188256038Y-87815979D01*
X188259433Y-87815931D01*
X188261134Y-87815226D01*
X188265364Y-87814601D01*
X188446950Y-87767098D01*
X188458539Y-87766275D01*
X188476772Y-87759297D01*
X188478915Y-87758737D01*
X188479639Y-87758200D01*
X188481425Y-87757517D01*
X188577156Y-87707434D01*
X188590207Y-87702029D01*
X188594986Y-87698106D01*
X188597400Y-87696844D01*
X188599560Y-87694352D01*
X188609149Y-87686484D01*
X188690430Y-87602710D01*
X188692640Y-87601606D01*
X188702217Y-87590562D01*
X188719933Y-87572304D01*
X188721652Y-87568152D01*
X188724595Y-87564760D01*
X188734585Y-87542385D01*
X188780334Y-87398588D01*
X188786217Y-87384386D01*
X188786828Y-87378175D01*
X188787637Y-87375635D01*
X188787403Y-87372343D01*
X188788619Y-87360000D01*
X188786217Y-87097519D01*
X188767553Y-87052459D01*
X188733065Y-87017971D01*
X188688005Y-86999307D01*
X188663619Y-86996905D01*
X187639233Y-86999307D01*
X187594173Y-87017971D01*
X187559685Y-87052459D01*
X187541021Y-87097519D01*
X187538619Y-87121905D01*
X187413619Y-87121905D01*
X187413619Y-86083016D01*
X187538924Y-86083016D01*
X187541021Y-86090705D01*
X187541021Y-86098672D01*
X187547382Y-86114029D01*
X187551757Y-86130071D01*
X187556636Y-86136371D01*
X187559685Y-86143732D01*
X187571440Y-86155487D01*
X187581620Y-86168632D01*
X187591838Y-86175885D01*
X187594173Y-86178220D01*
X187596464Y-86179169D01*
X187601602Y-86182816D01*
X188197658Y-86521806D01*
X187639233Y-86523116D01*
X187594173Y-86541780D01*
X187559685Y-86576268D01*
X187541021Y-86621328D01*
X187541021Y-86670100D01*
X187559685Y-86715160D01*
X187594173Y-86749648D01*
X187639233Y-86768312D01*
X187663619Y-86770714D01*
X188656437Y-86768386D01*
X188672350Y-86770409D01*
X188679969Y-86768330D01*
X188688005Y-86768312D01*
X188703361Y-86761951D01*
X188719404Y-86757576D01*
X188725704Y-86752696D01*
X188733065Y-86749648D01*
X188744820Y-86737892D01*
X188757965Y-86727713D01*
X188761918Y-86720794D01*
X188767553Y-86715160D01*
X188773914Y-86699801D01*
X188782163Y-86685367D01*
X188783168Y-86677460D01*
X188786217Y-86670100D01*
X188786217Y-86653478D01*
X188788314Y-86636984D01*
X188786217Y-86629294D01*
X188786217Y-86621328D01*
X188779855Y-86605970D01*
X188775481Y-86589929D01*
X188770601Y-86583628D01*
X188767553Y-86576268D01*
X188755797Y-86564512D01*
X188745618Y-86551368D01*
X188735399Y-86544114D01*
X188733065Y-86541780D01*
X188730773Y-86540830D01*
X188725636Y-86537184D01*
X188129580Y-86198193D01*
X188688005Y-86196884D01*
X188733065Y-86178220D01*
X188767553Y-86143732D01*
X188786217Y-86098672D01*
X188786217Y-86049900D01*
X188767553Y-86004840D01*
X188733065Y-85970352D01*
X188688005Y-85951688D01*
X188663619Y-85949286D01*
X187670801Y-85951613D01*
X187654889Y-85949591D01*
X187647268Y-85951669D01*
X187639233Y-85951688D01*
X187623875Y-85958049D01*
X187607834Y-85962424D01*
X187601533Y-85967303D01*
X187594173Y-85970352D01*
X187582417Y-85982107D01*
X187569273Y-85992287D01*
X187565319Y-85999205D01*
X187559685Y-86004840D01*
X187553323Y-86020198D01*
X187545075Y-86034633D01*
X187544069Y-86042539D01*
X187541021Y-86049900D01*
X187541021Y-86066521D01*
X187538924Y-86083016D01*
X187413619Y-86083016D01*
X187413619Y-85360000D01*
X187538619Y-85360000D01*
X187540411Y-85484789D01*
X187539600Y-85487223D01*
X187540660Y-85502143D01*
X187541021Y-85527243D01*
X187542739Y-85531391D01*
X187543058Y-85535873D01*
X187551816Y-85558759D01*
X187612489Y-85674734D01*
X187649334Y-85706690D01*
X187695604Y-85722113D01*
X187744254Y-85718655D01*
X187787877Y-85696844D01*
X187819833Y-85659999D01*
X187835256Y-85613728D01*
X187831799Y-85565079D01*
X187823041Y-85542193D01*
X187788228Y-85475649D01*
X187786921Y-85384698D01*
X187818199Y-85286387D01*
X187876460Y-85226340D01*
X187938586Y-85193839D01*
X188100239Y-85151551D01*
X188213097Y-85149930D01*
X188374509Y-85188421D01*
X188444026Y-85221600D01*
X188506229Y-85281952D01*
X188538935Y-85375758D01*
X188540052Y-85431366D01*
X188511505Y-85521095D01*
X188358665Y-85522122D01*
X188357645Y-85430852D01*
X188338981Y-85385792D01*
X188304493Y-85351304D01*
X188259433Y-85332640D01*
X188210661Y-85332640D01*
X188165601Y-85351304D01*
X188131113Y-85385792D01*
X188112449Y-85430852D01*
X188110047Y-85455238D01*
X188112449Y-85670099D01*
X188112449Y-85670100D01*
X188131113Y-85715160D01*
X188165601Y-85749648D01*
X188210661Y-85768312D01*
X188235047Y-85770714D01*
X188592766Y-85768312D01*
X188637826Y-85749648D01*
X188637830Y-85749643D01*
X188656767Y-85734103D01*
X188691662Y-85697332D01*
X188692640Y-85696844D01*
X188698091Y-85690557D01*
X188719933Y-85667543D01*
X188721653Y-85663389D01*
X188724595Y-85659998D01*
X188734585Y-85637623D01*
X188780334Y-85493826D01*
X188786217Y-85479624D01*
X188786828Y-85473413D01*
X188787637Y-85470873D01*
X188787403Y-85467581D01*
X188788619Y-85455238D01*
X188786666Y-85358017D01*
X188787637Y-85344365D01*
X188786272Y-85338362D01*
X188786217Y-85335614D01*
X188784953Y-85332564D01*
X188782204Y-85320471D01*
X188738598Y-85195402D01*
X188738598Y-85192756D01*
X188732768Y-85178682D01*
X188724595Y-85155240D01*
X188721652Y-85151847D01*
X188719933Y-85147696D01*
X188704388Y-85128754D01*
X188607216Y-85034474D01*
X188597400Y-85023156D01*
X188592134Y-85019841D01*
X188590207Y-85017971D01*
X188587156Y-85016707D01*
X188576662Y-85010101D01*
X188487209Y-84967408D01*
X188478915Y-84961263D01*
X188460684Y-84954749D01*
X188458539Y-84953725D01*
X188457639Y-84953661D01*
X188455840Y-84953018D01*
X188271452Y-84909047D01*
X188259433Y-84904069D01*
X188244341Y-84902582D01*
X188241123Y-84901815D01*
X188239301Y-84902086D01*
X188235047Y-84901667D01*
X188098316Y-84903630D01*
X188086113Y-84901815D01*
X188071197Y-84904020D01*
X188067804Y-84904069D01*
X188066102Y-84904773D01*
X188061873Y-84905399D01*
X187880284Y-84952901D01*
X187868698Y-84953725D01*
X187850464Y-84960702D01*
X187848322Y-84961263D01*
X187847597Y-84961799D01*
X187845812Y-84962483D01*
X187750075Y-85012568D01*
X187737030Y-85017972D01*
X187732253Y-85021891D01*
X187729837Y-85023156D01*
X187727673Y-85025650D01*
X187718088Y-85033517D01*
X187636808Y-85117288D01*
X187634598Y-85118394D01*
X187625013Y-85129445D01*
X187607305Y-85147697D01*
X187605586Y-85151846D01*
X187602643Y-85155240D01*
X187592652Y-85177615D01*
X187546904Y-85321410D01*
X187541021Y-85335614D01*
X187540409Y-85341825D01*
X187539601Y-85344366D01*
X187539834Y-85347656D01*
X187538619Y-85360000D01*
X187413619Y-85360000D01*
X187413619Y-84776667D01*
X188913619Y-84776667D01*
X188913619Y-87943333D01*
G37*
G36*
X188319555Y-126554510D02*
G01*
X188302925Y-126594661D01*
X188300523Y-126619047D01*
X188302086Y-126696904D01*
X188301504Y-126698651D01*
X188302364Y-126710757D01*
X188302925Y-126738671D01*
X188304643Y-126742819D01*
X188304962Y-126747301D01*
X188313720Y-126770187D01*
X188363803Y-126865920D01*
X188369209Y-126878970D01*
X188373130Y-126883747D01*
X188374393Y-126886162D01*
X188376884Y-126888323D01*
X188384754Y-126897912D01*
X188429963Y-126942171D01*
X188322476Y-126970289D01*
X188020346Y-126972318D01*
X187871858Y-126936908D01*
X187815673Y-126882395D01*
X187788316Y-126830103D01*
X187786846Y-126698629D01*
X187810934Y-126648161D01*
X187868066Y-126589277D01*
X188004760Y-126553518D01*
X188306890Y-126551489D01*
X188319555Y-126554510D01*
G37*
G36*
X189007875Y-128343124D02*
G01*
X187413619Y-128343124D01*
X187413619Y-127428571D01*
X187538619Y-127428571D01*
X187540855Y-128072038D01*
X187540732Y-128072348D01*
X187540906Y-128086604D01*
X187541021Y-128119623D01*
X187541318Y-128120341D01*
X187541328Y-128121116D01*
X187550622Y-128142803D01*
X187559685Y-128164683D01*
X187560234Y-128165232D01*
X187560540Y-128165945D01*
X187577452Y-128182450D01*
X187594173Y-128199171D01*
X187594889Y-128199467D01*
X187595445Y-128200010D01*
X187617421Y-128208800D01*
X187639233Y-128217835D01*
X187640008Y-128217835D01*
X187640730Y-128218124D01*
X187664378Y-128217835D01*
X187688005Y-128217835D01*
X187688723Y-128217537D01*
X187689498Y-128217528D01*
X187712859Y-128210130D01*
X188734327Y-127769745D01*
X188768391Y-127734841D01*
X188786505Y-127689556D01*
X188785910Y-127640787D01*
X188766698Y-127595958D01*
X188731793Y-127561894D01*
X188686508Y-127543780D01*
X188637739Y-127544375D01*
X188614379Y-127551773D01*
X187787968Y-127908062D01*
X187786217Y-127404185D01*
X187767553Y-127359125D01*
X187733065Y-127324637D01*
X187688005Y-127305973D01*
X187639233Y-127305973D01*
X187594173Y-127324637D01*
X187559685Y-127359125D01*
X187541021Y-127404185D01*
X187538619Y-127428571D01*
X187413619Y-127428571D01*
X187413619Y-126666666D01*
X187538619Y-126666666D01*
X187540542Y-126838682D01*
X187539600Y-126841508D01*
X187540755Y-126857761D01*
X187541021Y-126881528D01*
X187542739Y-126885676D01*
X187543058Y-126890158D01*
X187551816Y-126913044D01*
X187601901Y-127008780D01*
X187607305Y-127021826D01*
X187611224Y-127026602D01*
X187612489Y-127029019D01*
X187614983Y-127031182D01*
X187622850Y-127040768D01*
X187710305Y-127125621D01*
X187713896Y-127131606D01*
X187724800Y-127139685D01*
X187737030Y-127151551D01*
X187745615Y-127155107D01*
X187753084Y-127160641D01*
X187776159Y-127168886D01*
X187960547Y-127212856D01*
X187972566Y-127217835D01*
X187987655Y-127219321D01*
X187990875Y-127220089D01*
X187992697Y-127219817D01*
X187996952Y-127220237D01*
X188322657Y-127218049D01*
X188336361Y-127220089D01*
X188351460Y-127217856D01*
X188354671Y-127217835D01*
X188356372Y-127217130D01*
X188360602Y-127216505D01*
X188537551Y-127170216D01*
X188545147Y-127170216D01*
X188558168Y-127164822D01*
X188574153Y-127160641D01*
X188581619Y-127155108D01*
X188590207Y-127151552D01*
X188609149Y-127136007D01*
X188613879Y-127131131D01*
X188660108Y-127219495D01*
X188696953Y-127251451D01*
X188743223Y-127266874D01*
X188791873Y-127263416D01*
X188835496Y-127241605D01*
X188867452Y-127204760D01*
X188882875Y-127158489D01*
X188879418Y-127109840D01*
X188870660Y-127086954D01*
X188820574Y-126991217D01*
X188815171Y-126978172D01*
X188811251Y-126973395D01*
X188809987Y-126970979D01*
X188807492Y-126968815D01*
X188799626Y-126959230D01*
X188766779Y-126927361D01*
X188767553Y-126926588D01*
X188772544Y-126914538D01*
X188784180Y-126890158D01*
X188784498Y-126885677D01*
X188786217Y-126881528D01*
X188788619Y-126857142D01*
X188786695Y-126685122D01*
X188787637Y-126682299D01*
X188786482Y-126666056D01*
X188786217Y-126642280D01*
X188784498Y-126638130D01*
X188784180Y-126633650D01*
X188775422Y-126610764D01*
X188725338Y-126515030D01*
X188719933Y-126501981D01*
X188716011Y-126497203D01*
X188714749Y-126494789D01*
X188712257Y-126492627D01*
X188704388Y-126483039D01*
X188616930Y-126398183D01*
X188613341Y-126392202D01*
X188602441Y-126384126D01*
X188590207Y-126372256D01*
X188581619Y-126368699D01*
X188574153Y-126363167D01*
X188551078Y-126354922D01*
X188366690Y-126310951D01*
X188354671Y-126305973D01*
X188339579Y-126304486D01*
X188336361Y-126303719D01*
X188334539Y-126303990D01*
X188330285Y-126303571D01*
X188004579Y-126305758D01*
X187990875Y-126303719D01*
X187975776Y-126305951D01*
X187972566Y-126305973D01*
X187970864Y-126306677D01*
X187966635Y-126307303D01*
X187789686Y-126353592D01*
X187782089Y-126353592D01*
X187769068Y-126358985D01*
X187753084Y-126363167D01*
X187745615Y-126368700D01*
X187737030Y-126372257D01*
X187718088Y-126387802D01*
X187623814Y-126484966D01*
X187612489Y-126494789D01*
X187609172Y-126500057D01*
X187607305Y-126501982D01*
X187606043Y-126505028D01*
X187599434Y-126515527D01*
X187561138Y-126595766D01*
X187559685Y-126597220D01*
X187554694Y-126609268D01*
X187543058Y-126633650D01*
X187542739Y-126638131D01*
X187541021Y-126642280D01*
X187538619Y-126666666D01*
X187413619Y-126666666D01*
X187413619Y-126024386D01*
X187541021Y-126024386D01*
X187559685Y-126069446D01*
X187594173Y-126103934D01*
X187639233Y-126122598D01*
X187663619Y-126125000D01*
X188688005Y-126122598D01*
X188733065Y-126103934D01*
X188767553Y-126069446D01*
X188786217Y-126024386D01*
X188786217Y-125975614D01*
X188767553Y-125930554D01*
X188733065Y-125896066D01*
X188688005Y-125877402D01*
X188663619Y-125875000D01*
X187639233Y-125877402D01*
X187594173Y-125896066D01*
X187559685Y-125930554D01*
X187541021Y-125975614D01*
X187541021Y-126024386D01*
X187413619Y-126024386D01*
X187413619Y-125750000D01*
X189007875Y-125750000D01*
X189007875Y-128343124D01*
G37*
G36*
X188422128Y-92077944D02*
G01*
X188492173Y-92111375D01*
X188512338Y-92130511D01*
X188539171Y-92181801D01*
X188539909Y-92218566D01*
X188516053Y-92268551D01*
X188496915Y-92288718D01*
X188436269Y-92320445D01*
X188274782Y-92362690D01*
X188067495Y-92364587D01*
X187905111Y-92325863D01*
X187835065Y-92292433D01*
X187814899Y-92273296D01*
X187788066Y-92222006D01*
X187787328Y-92185240D01*
X187811184Y-92135254D01*
X187830321Y-92115089D01*
X187890967Y-92083362D01*
X188052454Y-92041117D01*
X188259741Y-92039220D01*
X188422128Y-92077944D01*
G37*
G36*
X188319555Y-90994510D02*
G01*
X188302925Y-91034661D01*
X188300523Y-91059047D01*
X188302086Y-91136904D01*
X188301504Y-91138651D01*
X188302364Y-91150757D01*
X188302925Y-91178671D01*
X188304643Y-91182819D01*
X188304962Y-91187301D01*
X188313720Y-91210187D01*
X188363803Y-91305920D01*
X188369209Y-91318970D01*
X188373130Y-91323747D01*
X188374393Y-91326162D01*
X188376884Y-91328323D01*
X188384754Y-91337912D01*
X188429963Y-91382171D01*
X188322476Y-91410289D01*
X188020346Y-91412318D01*
X187871858Y-91376908D01*
X187815673Y-91322395D01*
X187788316Y-91270103D01*
X187786846Y-91138629D01*
X187810934Y-91088161D01*
X187868066Y-91029277D01*
X188004760Y-90993518D01*
X188306890Y-90991489D01*
X188319555Y-90994510D01*
G37*
G36*
X189007875Y-92737618D02*
G01*
X187413619Y-92737618D01*
X187413619Y-92154285D01*
X187538619Y-92154285D01*
X187540182Y-92232142D01*
X187539600Y-92233889D01*
X187540460Y-92245995D01*
X187541021Y-92273909D01*
X187542739Y-92278057D01*
X187543058Y-92282539D01*
X187551816Y-92305425D01*
X187601901Y-92401161D01*
X187607305Y-92414207D01*
X187611224Y-92418983D01*
X187612489Y-92421400D01*
X187614983Y-92423563D01*
X187622850Y-92433149D01*
X187674174Y-92481854D01*
X187682218Y-92491129D01*
X187687354Y-92494362D01*
X187689410Y-92496313D01*
X187692460Y-92497576D01*
X187702955Y-92504183D01*
X187792408Y-92546876D01*
X187800703Y-92553022D01*
X187818933Y-92559535D01*
X187821079Y-92560560D01*
X187821978Y-92560623D01*
X187823778Y-92561267D01*
X188008166Y-92605237D01*
X188020185Y-92610216D01*
X188035274Y-92611702D01*
X188038494Y-92612470D01*
X188040316Y-92612198D01*
X188044571Y-92612618D01*
X188275532Y-92610504D01*
X188288742Y-92612470D01*
X188303785Y-92610245D01*
X188307052Y-92610216D01*
X188308753Y-92609511D01*
X188312983Y-92608886D01*
X188494569Y-92561383D01*
X188506158Y-92560560D01*
X188524391Y-92553582D01*
X188526534Y-92553022D01*
X188527258Y-92552485D01*
X188529044Y-92551802D01*
X188624778Y-92501717D01*
X188637825Y-92496314D01*
X188642602Y-92492393D01*
X188645019Y-92491129D01*
X188647182Y-92488634D01*
X188656767Y-92480769D01*
X188705477Y-92429441D01*
X188714749Y-92421400D01*
X188717980Y-92416266D01*
X188719933Y-92414209D01*
X188721197Y-92411155D01*
X188727803Y-92400663D01*
X188766099Y-92320422D01*
X188767553Y-92318969D01*
X188772544Y-92306919D01*
X188784180Y-92282539D01*
X188784498Y-92278058D01*
X188786217Y-92273909D01*
X188788619Y-92249523D01*
X188787055Y-92171662D01*
X188787637Y-92169918D01*
X188786777Y-92157826D01*
X188786217Y-92129899D01*
X188784498Y-92125749D01*
X188784180Y-92121269D01*
X188775422Y-92098383D01*
X188725340Y-92002653D01*
X188719933Y-91989599D01*
X188716011Y-91984820D01*
X188714749Y-91982408D01*
X188712256Y-91980246D01*
X188704387Y-91970658D01*
X188653065Y-91921956D01*
X188645019Y-91912679D01*
X188639879Y-91909443D01*
X188637825Y-91907494D01*
X188634777Y-91906231D01*
X188624281Y-91899624D01*
X188534828Y-91856931D01*
X188526534Y-91850786D01*
X188508303Y-91844272D01*
X188506158Y-91843248D01*
X188505258Y-91843184D01*
X188503459Y-91842541D01*
X188319071Y-91798570D01*
X188307052Y-91793592D01*
X188291960Y-91792105D01*
X188288742Y-91791338D01*
X188286920Y-91791609D01*
X188282666Y-91791190D01*
X188051704Y-91793303D01*
X188038494Y-91791338D01*
X188023451Y-91793562D01*
X188020185Y-91793592D01*
X188018483Y-91794296D01*
X188014254Y-91794922D01*
X187832665Y-91842424D01*
X187821079Y-91843248D01*
X187802845Y-91850225D01*
X187800703Y-91850786D01*
X187799978Y-91851322D01*
X187798193Y-91852006D01*
X187702459Y-91902089D01*
X187689410Y-91907495D01*
X187684632Y-91911416D01*
X187682218Y-91912679D01*
X187680056Y-91915170D01*
X187670468Y-91923040D01*
X187621766Y-91974361D01*
X187612489Y-91982408D01*
X187609253Y-91987547D01*
X187607305Y-91989601D01*
X187606043Y-91992647D01*
X187599434Y-92003146D01*
X187561138Y-92083385D01*
X187559685Y-92084839D01*
X187554694Y-92096887D01*
X187543058Y-92121269D01*
X187542739Y-92125750D01*
X187541021Y-92129899D01*
X187538619Y-92154285D01*
X187413619Y-92154285D01*
X187413619Y-91106666D01*
X187538619Y-91106666D01*
X187540542Y-91278682D01*
X187539600Y-91281508D01*
X187540755Y-91297761D01*
X187541021Y-91321528D01*
X187542739Y-91325676D01*
X187543058Y-91330158D01*
X187551816Y-91353044D01*
X187601901Y-91448780D01*
X187607305Y-91461826D01*
X187611224Y-91466602D01*
X187612489Y-91469019D01*
X187614983Y-91471182D01*
X187622850Y-91480768D01*
X187710305Y-91565621D01*
X187713896Y-91571606D01*
X187724800Y-91579685D01*
X187737030Y-91591551D01*
X187745615Y-91595107D01*
X187753084Y-91600641D01*
X187776159Y-91608886D01*
X187960547Y-91652856D01*
X187972566Y-91657835D01*
X187987655Y-91659321D01*
X187990875Y-91660089D01*
X187992697Y-91659817D01*
X187996952Y-91660237D01*
X188322657Y-91658049D01*
X188336361Y-91660089D01*
X188351460Y-91657856D01*
X188354671Y-91657835D01*
X188356372Y-91657130D01*
X188360602Y-91656505D01*
X188537551Y-91610216D01*
X188545147Y-91610216D01*
X188558168Y-91604822D01*
X188574153Y-91600641D01*
X188581619Y-91595108D01*
X188590207Y-91591552D01*
X188609149Y-91576007D01*
X188613879Y-91571131D01*
X188660108Y-91659495D01*
X188696953Y-91691451D01*
X188743223Y-91706874D01*
X188791873Y-91703416D01*
X188835496Y-91681605D01*
X188867452Y-91644760D01*
X188882875Y-91598489D01*
X188879418Y-91549840D01*
X188870660Y-91526954D01*
X188820574Y-91431217D01*
X188815171Y-91418172D01*
X188811251Y-91413395D01*
X188809987Y-91410979D01*
X188807492Y-91408815D01*
X188799626Y-91399230D01*
X188766779Y-91367361D01*
X188767553Y-91366588D01*
X188772544Y-91354538D01*
X188784180Y-91330158D01*
X188784498Y-91325677D01*
X188786217Y-91321528D01*
X188788619Y-91297142D01*
X188786695Y-91125122D01*
X188787637Y-91122299D01*
X188786482Y-91106056D01*
X188786217Y-91082280D01*
X188784498Y-91078130D01*
X188784180Y-91073650D01*
X188775422Y-91050764D01*
X188725338Y-90955030D01*
X188719933Y-90941981D01*
X188716011Y-90937203D01*
X188714749Y-90934789D01*
X188712257Y-90932627D01*
X188704388Y-90923039D01*
X188616930Y-90838183D01*
X188613341Y-90832202D01*
X188602441Y-90824126D01*
X188590207Y-90812256D01*
X188581619Y-90808699D01*
X188574153Y-90803167D01*
X188551078Y-90794922D01*
X188366690Y-90750951D01*
X188354671Y-90745973D01*
X188339579Y-90744486D01*
X188336361Y-90743719D01*
X188334539Y-90743990D01*
X188330285Y-90743571D01*
X188004579Y-90745758D01*
X187990875Y-90743719D01*
X187975776Y-90745951D01*
X187972566Y-90745973D01*
X187970864Y-90746677D01*
X187966635Y-90747303D01*
X187789686Y-90793592D01*
X187782089Y-90793592D01*
X187769068Y-90798985D01*
X187753084Y-90803167D01*
X187745615Y-90808700D01*
X187737030Y-90812257D01*
X187718088Y-90827802D01*
X187623814Y-90924966D01*
X187612489Y-90934789D01*
X187609172Y-90940057D01*
X187607305Y-90941982D01*
X187606043Y-90945028D01*
X187599434Y-90955527D01*
X187561138Y-91035766D01*
X187559685Y-91037220D01*
X187554694Y-91049268D01*
X187543058Y-91073650D01*
X187542739Y-91078131D01*
X187541021Y-91082280D01*
X187538619Y-91106666D01*
X187413619Y-91106666D01*
X187413619Y-90464386D01*
X187541021Y-90464386D01*
X187559685Y-90509446D01*
X187594173Y-90543934D01*
X187639233Y-90562598D01*
X187663619Y-90565000D01*
X188688005Y-90562598D01*
X188733065Y-90543934D01*
X188767553Y-90509446D01*
X188786217Y-90464386D01*
X188786217Y-90415614D01*
X188767553Y-90370554D01*
X188733065Y-90336066D01*
X188688005Y-90317402D01*
X188663619Y-90315000D01*
X187639233Y-90317402D01*
X187594173Y-90336066D01*
X187559685Y-90370554D01*
X187541021Y-90415614D01*
X187541021Y-90464386D01*
X187413619Y-90464386D01*
X187413619Y-90190000D01*
X189007875Y-90190000D01*
X189007875Y-92737618D01*
G37*
G36*
X188319555Y-106234510D02*
G01*
X188302925Y-106274661D01*
X188300523Y-106299047D01*
X188302086Y-106376904D01*
X188301504Y-106378651D01*
X188302364Y-106390757D01*
X188302925Y-106418671D01*
X188304643Y-106422819D01*
X188304962Y-106427301D01*
X188313720Y-106450187D01*
X188363803Y-106545920D01*
X188369209Y-106558970D01*
X188373130Y-106563747D01*
X188374393Y-106566162D01*
X188376884Y-106568323D01*
X188384754Y-106577912D01*
X188429963Y-106622171D01*
X188322476Y-106650289D01*
X188020346Y-106652318D01*
X187871858Y-106616908D01*
X187815673Y-106562395D01*
X187788316Y-106510103D01*
X187786846Y-106378629D01*
X187810934Y-106328161D01*
X187868066Y-106269277D01*
X188004760Y-106233518D01*
X188306890Y-106231489D01*
X188319555Y-106234510D01*
G37*
G36*
X189007875Y-107977618D02*
G01*
X187413619Y-107977618D01*
X187413619Y-107108571D01*
X187538619Y-107108571D01*
X187540920Y-107725044D01*
X187539670Y-107743796D01*
X187541005Y-107747743D01*
X187541021Y-107752004D01*
X187548789Y-107770758D01*
X187555296Y-107789997D01*
X187558071Y-107793169D01*
X187559685Y-107797064D01*
X187574042Y-107811421D01*
X187587413Y-107826702D01*
X187591191Y-107828570D01*
X187594173Y-107831552D01*
X187612932Y-107839322D01*
X187631131Y-107848322D01*
X187635337Y-107848602D01*
X187639233Y-107850216D01*
X187659536Y-107850216D01*
X187679797Y-107851567D01*
X187683791Y-107850216D01*
X187688005Y-107850216D01*
X187706759Y-107842447D01*
X187725998Y-107835941D01*
X187730859Y-107832465D01*
X187733065Y-107831552D01*
X187735391Y-107829225D01*
X187745932Y-107821690D01*
X187955550Y-107636591D01*
X187982853Y-107688780D01*
X187988257Y-107701826D01*
X187992176Y-107706602D01*
X187993441Y-107709019D01*
X187995935Y-107711182D01*
X188003802Y-107720768D01*
X188055126Y-107769473D01*
X188063170Y-107778748D01*
X188068306Y-107781981D01*
X188070362Y-107783932D01*
X188073412Y-107785195D01*
X188083907Y-107791802D01*
X188164147Y-107830098D01*
X188165601Y-107831552D01*
X188177650Y-107836543D01*
X188202031Y-107848179D01*
X188206511Y-107848497D01*
X188210661Y-107850216D01*
X188235047Y-107852618D01*
X188454428Y-107850610D01*
X188457508Y-107851637D01*
X188474540Y-107850426D01*
X188497528Y-107850216D01*
X188501676Y-107848497D01*
X188506158Y-107848179D01*
X188529044Y-107839421D01*
X188624778Y-107789336D01*
X188637825Y-107783933D01*
X188642602Y-107780012D01*
X188645019Y-107778748D01*
X188647182Y-107776253D01*
X188656767Y-107768388D01*
X188705477Y-107717060D01*
X188714749Y-107709019D01*
X188717980Y-107703885D01*
X188719933Y-107701828D01*
X188721197Y-107698774D01*
X188727803Y-107688282D01*
X188766099Y-107608041D01*
X188767553Y-107606588D01*
X188772544Y-107594538D01*
X188784180Y-107570158D01*
X188784498Y-107565677D01*
X188786217Y-107561528D01*
X188788619Y-107537142D01*
X188786552Y-107270315D01*
X188787637Y-107267061D01*
X188786391Y-107249529D01*
X188786217Y-107227042D01*
X188784498Y-107222892D01*
X188784180Y-107218412D01*
X188775422Y-107195526D01*
X188725340Y-107099796D01*
X188719933Y-107086742D01*
X188716011Y-107081963D01*
X188714749Y-107079551D01*
X188712256Y-107077389D01*
X188704387Y-107067801D01*
X188637825Y-107004637D01*
X188592765Y-106985973D01*
X188543992Y-106985973D01*
X188498933Y-107004638D01*
X188464446Y-107039126D01*
X188445782Y-107084186D01*
X188445782Y-107132959D01*
X188464447Y-107178018D01*
X188479993Y-107196960D01*
X188512338Y-107227654D01*
X188538827Y-107278286D01*
X188540581Y-107504778D01*
X188516053Y-107556170D01*
X188496915Y-107576337D01*
X188446210Y-107602864D01*
X188267246Y-107604502D01*
X188216017Y-107580052D01*
X188195851Y-107560915D01*
X188169180Y-107509934D01*
X188167505Y-107393326D01*
X188168520Y-107378107D01*
X188167232Y-107374299D01*
X188167169Y-107369899D01*
X188159400Y-107351144D01*
X188152894Y-107331906D01*
X188150118Y-107328733D01*
X188148505Y-107324839D01*
X188134147Y-107310481D01*
X188120777Y-107295201D01*
X188116998Y-107293332D01*
X188114017Y-107290351D01*
X188095264Y-107282583D01*
X188077059Y-107273580D01*
X188072849Y-107273299D01*
X188068957Y-107271687D01*
X188048660Y-107271687D01*
X188028393Y-107270336D01*
X188024399Y-107271687D01*
X188020185Y-107271687D01*
X188001430Y-107279455D01*
X187982192Y-107285962D01*
X187977330Y-107289437D01*
X187975125Y-107290351D01*
X187972798Y-107292677D01*
X187962258Y-107300213D01*
X187787599Y-107454440D01*
X187786217Y-107084185D01*
X187767553Y-107039125D01*
X187733065Y-107004637D01*
X187688005Y-106985973D01*
X187639233Y-106985973D01*
X187594173Y-107004637D01*
X187559685Y-107039125D01*
X187541021Y-107084185D01*
X187538619Y-107108571D01*
X187413619Y-107108571D01*
X187413619Y-106346666D01*
X187538619Y-106346666D01*
X187540542Y-106518682D01*
X187539600Y-106521508D01*
X187540755Y-106537761D01*
X187541021Y-106561528D01*
X187542739Y-106565676D01*
X187543058Y-106570158D01*
X187551816Y-106593044D01*
X187601901Y-106688780D01*
X187607305Y-106701826D01*
X187611224Y-106706602D01*
X187612489Y-106709019D01*
X187614983Y-106711182D01*
X187622850Y-106720768D01*
X187710305Y-106805621D01*
X187713896Y-106811606D01*
X187724800Y-106819685D01*
X187737030Y-106831551D01*
X187745615Y-106835107D01*
X187753084Y-106840641D01*
X187776159Y-106848886D01*
X187960547Y-106892856D01*
X187972566Y-106897835D01*
X187987655Y-106899321D01*
X187990875Y-106900089D01*
X187992697Y-106899817D01*
X187996952Y-106900237D01*
X188322657Y-106898049D01*
X188336361Y-106900089D01*
X188351460Y-106897856D01*
X188354671Y-106897835D01*
X188356372Y-106897130D01*
X188360602Y-106896505D01*
X188537551Y-106850216D01*
X188545147Y-106850216D01*
X188558168Y-106844822D01*
X188574153Y-106840641D01*
X188581619Y-106835108D01*
X188590207Y-106831552D01*
X188609149Y-106816007D01*
X188613879Y-106811131D01*
X188660108Y-106899495D01*
X188696953Y-106931451D01*
X188743223Y-106946874D01*
X188791873Y-106943416D01*
X188835496Y-106921605D01*
X188867452Y-106884760D01*
X188882875Y-106838489D01*
X188879418Y-106789840D01*
X188870660Y-106766954D01*
X188820574Y-106671217D01*
X188815171Y-106658172D01*
X188811251Y-106653395D01*
X188809987Y-106650979D01*
X188807492Y-106648815D01*
X188799626Y-106639230D01*
X188766779Y-106607361D01*
X188767553Y-106606588D01*
X188772544Y-106594538D01*
X188784180Y-106570158D01*
X188784498Y-106565677D01*
X188786217Y-106561528D01*
X188788619Y-106537142D01*
X188786695Y-106365122D01*
X188787637Y-106362299D01*
X188786482Y-106346056D01*
X188786217Y-106322280D01*
X188784498Y-106318130D01*
X188784180Y-106313650D01*
X188775422Y-106290764D01*
X188725338Y-106195030D01*
X188719933Y-106181981D01*
X188716011Y-106177203D01*
X188714749Y-106174789D01*
X188712257Y-106172627D01*
X188704388Y-106163039D01*
X188616930Y-106078183D01*
X188613341Y-106072202D01*
X188602441Y-106064126D01*
X188590207Y-106052256D01*
X188581619Y-106048699D01*
X188574153Y-106043167D01*
X188551078Y-106034922D01*
X188366690Y-105990951D01*
X188354671Y-105985973D01*
X188339579Y-105984486D01*
X188336361Y-105983719D01*
X188334539Y-105983990D01*
X188330285Y-105983571D01*
X188004579Y-105985758D01*
X187990875Y-105983719D01*
X187975776Y-105985951D01*
X187972566Y-105985973D01*
X187970864Y-105986677D01*
X187966635Y-105987303D01*
X187789686Y-106033592D01*
X187782089Y-106033592D01*
X187769068Y-106038985D01*
X187753084Y-106043167D01*
X187745615Y-106048700D01*
X187737030Y-106052257D01*
X187718088Y-106067802D01*
X187623814Y-106164966D01*
X187612489Y-106174789D01*
X187609172Y-106180057D01*
X187607305Y-106181982D01*
X187606043Y-106185028D01*
X187599434Y-106195527D01*
X187561138Y-106275766D01*
X187559685Y-106277220D01*
X187554694Y-106289268D01*
X187543058Y-106313650D01*
X187542739Y-106318131D01*
X187541021Y-106322280D01*
X187538619Y-106346666D01*
X187413619Y-106346666D01*
X187413619Y-105704386D01*
X187541021Y-105704386D01*
X187559685Y-105749446D01*
X187594173Y-105783934D01*
X187639233Y-105802598D01*
X187663619Y-105805000D01*
X188688005Y-105802598D01*
X188733065Y-105783934D01*
X188767553Y-105749446D01*
X188786217Y-105704386D01*
X188786217Y-105655614D01*
X188767553Y-105610554D01*
X188733065Y-105576066D01*
X188688005Y-105557402D01*
X188663619Y-105555000D01*
X187639233Y-105557402D01*
X187594173Y-105576066D01*
X187559685Y-105610554D01*
X187541021Y-105655614D01*
X187541021Y-105704386D01*
X187413619Y-105704386D01*
X187413619Y-105430000D01*
X189007875Y-105430000D01*
X189007875Y-107977618D01*
G37*
G36*
X188319555Y-101154510D02*
G01*
X188302925Y-101194661D01*
X188300523Y-101219047D01*
X188302086Y-101296904D01*
X188301504Y-101298651D01*
X188302364Y-101310757D01*
X188302925Y-101338671D01*
X188304643Y-101342819D01*
X188304962Y-101347301D01*
X188313720Y-101370187D01*
X188363803Y-101465920D01*
X188369209Y-101478970D01*
X188373130Y-101483747D01*
X188374393Y-101486162D01*
X188376884Y-101488323D01*
X188384754Y-101497912D01*
X188429963Y-101542171D01*
X188322476Y-101570289D01*
X188020346Y-101572318D01*
X187871858Y-101536908D01*
X187815673Y-101482395D01*
X187788316Y-101430103D01*
X187786846Y-101298629D01*
X187810934Y-101248161D01*
X187868066Y-101189277D01*
X188004760Y-101153518D01*
X188306890Y-101151489D01*
X188319555Y-101154510D01*
G37*
G36*
X189007875Y-102897618D02*
G01*
X187413619Y-102897618D01*
X187413619Y-102219047D01*
X187538619Y-102219047D01*
X187540626Y-102438428D01*
X187539600Y-102441508D01*
X187540810Y-102458540D01*
X187541021Y-102481528D01*
X187542739Y-102485676D01*
X187543058Y-102490158D01*
X187551816Y-102513044D01*
X187601901Y-102608780D01*
X187607305Y-102621826D01*
X187611224Y-102626602D01*
X187612489Y-102629019D01*
X187614983Y-102631182D01*
X187622850Y-102640768D01*
X187674174Y-102689473D01*
X187682218Y-102698748D01*
X187687354Y-102701981D01*
X187689410Y-102703932D01*
X187692460Y-102705195D01*
X187702955Y-102711802D01*
X187783195Y-102750098D01*
X187784649Y-102751552D01*
X187796698Y-102756543D01*
X187821079Y-102768179D01*
X187825559Y-102768497D01*
X187829709Y-102770216D01*
X187854095Y-102772618D01*
X187951314Y-102770665D01*
X187964967Y-102771636D01*
X187970969Y-102770271D01*
X187973719Y-102770216D01*
X187976770Y-102768952D01*
X187988861Y-102766203D01*
X188113930Y-102722597D01*
X188116577Y-102722597D01*
X188130649Y-102716767D01*
X188154093Y-102708594D01*
X188157486Y-102705650D01*
X188161636Y-102703932D01*
X188180578Y-102688387D01*
X188539733Y-102327153D01*
X188541021Y-102672004D01*
X188559685Y-102717064D01*
X188594173Y-102751552D01*
X188639233Y-102770216D01*
X188688005Y-102770216D01*
X188733065Y-102751552D01*
X188767553Y-102717064D01*
X188786217Y-102672004D01*
X188788619Y-102647618D01*
X188786217Y-102004185D01*
X188785829Y-102003249D01*
X188772992Y-101972257D01*
X188767553Y-101959125D01*
X188733065Y-101924637D01*
X188706670Y-101913704D01*
X188688006Y-101905973D01*
X188639232Y-101905973D01*
X188626034Y-101911439D01*
X188594173Y-101924637D01*
X188594167Y-101924642D01*
X188575231Y-101940183D01*
X188028864Y-102489710D01*
X187933574Y-102522934D01*
X187885051Y-102523908D01*
X187835065Y-102500052D01*
X187814899Y-102480915D01*
X187788372Y-102430210D01*
X187786734Y-102251245D01*
X187811184Y-102200016D01*
X187862790Y-102145637D01*
X187881455Y-102100577D01*
X187881455Y-102051804D01*
X187862790Y-102006744D01*
X187828303Y-101972257D01*
X187783243Y-101953592D01*
X187734470Y-101953592D01*
X187689410Y-101972257D01*
X187670468Y-101987802D01*
X187621766Y-102039123D01*
X187612489Y-102047170D01*
X187609253Y-102052309D01*
X187607305Y-102054363D01*
X187606043Y-102057409D01*
X187599434Y-102067908D01*
X187561138Y-102148147D01*
X187559685Y-102149601D01*
X187554694Y-102161649D01*
X187543058Y-102186031D01*
X187542739Y-102190512D01*
X187541021Y-102194661D01*
X187538619Y-102219047D01*
X187413619Y-102219047D01*
X187413619Y-101266666D01*
X187538619Y-101266666D01*
X187540542Y-101438682D01*
X187539600Y-101441508D01*
X187540755Y-101457761D01*
X187541021Y-101481528D01*
X187542739Y-101485676D01*
X187543058Y-101490158D01*
X187551816Y-101513044D01*
X187601901Y-101608780D01*
X187607305Y-101621826D01*
X187611224Y-101626602D01*
X187612489Y-101629019D01*
X187614983Y-101631182D01*
X187622850Y-101640768D01*
X187710305Y-101725621D01*
X187713896Y-101731606D01*
X187724800Y-101739685D01*
X187737030Y-101751551D01*
X187745615Y-101755107D01*
X187753084Y-101760641D01*
X187776159Y-101768886D01*
X187960547Y-101812856D01*
X187972566Y-101817835D01*
X187987655Y-101819321D01*
X187990875Y-101820089D01*
X187992697Y-101819817D01*
X187996952Y-101820237D01*
X188322657Y-101818049D01*
X188336361Y-101820089D01*
X188351460Y-101817856D01*
X188354671Y-101817835D01*
X188356372Y-101817130D01*
X188360602Y-101816505D01*
X188537551Y-101770216D01*
X188545147Y-101770216D01*
X188558168Y-101764822D01*
X188574153Y-101760641D01*
X188581619Y-101755108D01*
X188590207Y-101751552D01*
X188609149Y-101736007D01*
X188613879Y-101731131D01*
X188660108Y-101819495D01*
X188696953Y-101851451D01*
X188743223Y-101866874D01*
X188791873Y-101863416D01*
X188835496Y-101841605D01*
X188867452Y-101804760D01*
X188882875Y-101758489D01*
X188879418Y-101709840D01*
X188870660Y-101686954D01*
X188820574Y-101591217D01*
X188815171Y-101578172D01*
X188811251Y-101573395D01*
X188809987Y-101570979D01*
X188807492Y-101568815D01*
X188799626Y-101559230D01*
X188766779Y-101527361D01*
X188767553Y-101526588D01*
X188772544Y-101514538D01*
X188784180Y-101490158D01*
X188784498Y-101485677D01*
X188786217Y-101481528D01*
X188788619Y-101457142D01*
X188786695Y-101285122D01*
X188787637Y-101282299D01*
X188786482Y-101266056D01*
X188786217Y-101242280D01*
X188784498Y-101238130D01*
X188784180Y-101233650D01*
X188775422Y-101210764D01*
X188725338Y-101115030D01*
X188719933Y-101101981D01*
X188716011Y-101097203D01*
X188714749Y-101094789D01*
X188712257Y-101092627D01*
X188704388Y-101083039D01*
X188616930Y-100998183D01*
X188613341Y-100992202D01*
X188602441Y-100984126D01*
X188590207Y-100972256D01*
X188581619Y-100968699D01*
X188574153Y-100963167D01*
X188551078Y-100954922D01*
X188366690Y-100910951D01*
X188354671Y-100905973D01*
X188339579Y-100904486D01*
X188336361Y-100903719D01*
X188334539Y-100903990D01*
X188330285Y-100903571D01*
X188004579Y-100905758D01*
X187990875Y-100903719D01*
X187975776Y-100905951D01*
X187972566Y-100905973D01*
X187970864Y-100906677D01*
X187966635Y-100907303D01*
X187789686Y-100953592D01*
X187782089Y-100953592D01*
X187769068Y-100958985D01*
X187753084Y-100963167D01*
X187745615Y-100968700D01*
X187737030Y-100972257D01*
X187718088Y-100987802D01*
X187623814Y-101084966D01*
X187612489Y-101094789D01*
X187609172Y-101100057D01*
X187607305Y-101101982D01*
X187606043Y-101105028D01*
X187599434Y-101115527D01*
X187561138Y-101195766D01*
X187559685Y-101197220D01*
X187554694Y-101209268D01*
X187543058Y-101233650D01*
X187542739Y-101238131D01*
X187541021Y-101242280D01*
X187538619Y-101266666D01*
X187413619Y-101266666D01*
X187413619Y-100624386D01*
X187541021Y-100624386D01*
X187559685Y-100669446D01*
X187594173Y-100703934D01*
X187639233Y-100722598D01*
X187663619Y-100725000D01*
X188688005Y-100722598D01*
X188733065Y-100703934D01*
X188767553Y-100669446D01*
X188786217Y-100624386D01*
X188786217Y-100575614D01*
X188767553Y-100530554D01*
X188733065Y-100496066D01*
X188688005Y-100477402D01*
X188663619Y-100475000D01*
X187639233Y-100477402D01*
X187594173Y-100496066D01*
X187559685Y-100530554D01*
X187541021Y-100575614D01*
X187541021Y-100624386D01*
X187413619Y-100624386D01*
X187413619Y-100350000D01*
X189007875Y-100350000D01*
X189007875Y-102897618D01*
G37*
G36*
X188319555Y-116394510D02*
G01*
X188302925Y-116434661D01*
X188300523Y-116459047D01*
X188302086Y-116536904D01*
X188301504Y-116538651D01*
X188302364Y-116550757D01*
X188302925Y-116578671D01*
X188304643Y-116582819D01*
X188304962Y-116587301D01*
X188313720Y-116610187D01*
X188363803Y-116705920D01*
X188369209Y-116718970D01*
X188373130Y-116723747D01*
X188374393Y-116726162D01*
X188376884Y-116728323D01*
X188384754Y-116737912D01*
X188429963Y-116782171D01*
X188322476Y-116810289D01*
X188020346Y-116812318D01*
X187871858Y-116776908D01*
X187815673Y-116722395D01*
X187788316Y-116670103D01*
X187786846Y-116538629D01*
X187810934Y-116488161D01*
X187868066Y-116429277D01*
X188004760Y-116393518D01*
X188306890Y-116391489D01*
X188319555Y-116394510D01*
G37*
G36*
X189007875Y-118137618D02*
G01*
X187413619Y-118137618D01*
X187413619Y-117363809D01*
X187538619Y-117363809D01*
X187541021Y-117864385D01*
X187559685Y-117909445D01*
X187594173Y-117943933D01*
X187639233Y-117962597D01*
X187688005Y-117962597D01*
X187733065Y-117943933D01*
X187767553Y-117909445D01*
X187786217Y-117864385D01*
X187788619Y-117839999D01*
X187786875Y-117476572D01*
X187919604Y-117462658D01*
X187921578Y-117678428D01*
X187920552Y-117681508D01*
X187921762Y-117698540D01*
X187921973Y-117721528D01*
X187923691Y-117725676D01*
X187924010Y-117730158D01*
X187932768Y-117753044D01*
X187982853Y-117848780D01*
X187988257Y-117861826D01*
X187992176Y-117866602D01*
X187993441Y-117869019D01*
X187995935Y-117871182D01*
X188003802Y-117880768D01*
X188055126Y-117929473D01*
X188063170Y-117938748D01*
X188068306Y-117941981D01*
X188070362Y-117943932D01*
X188073412Y-117945195D01*
X188083907Y-117951802D01*
X188164147Y-117990098D01*
X188165601Y-117991552D01*
X188177650Y-117996543D01*
X188202031Y-118008179D01*
X188206511Y-118008497D01*
X188210661Y-118010216D01*
X188235047Y-118012618D01*
X188454428Y-118010610D01*
X188457508Y-118011637D01*
X188474540Y-118010426D01*
X188497528Y-118010216D01*
X188501676Y-118008497D01*
X188506158Y-118008179D01*
X188529044Y-117999421D01*
X188624778Y-117949336D01*
X188637825Y-117943933D01*
X188642602Y-117940012D01*
X188645019Y-117938748D01*
X188647182Y-117936253D01*
X188656767Y-117928388D01*
X188705477Y-117877060D01*
X188714749Y-117869019D01*
X188717980Y-117863885D01*
X188719933Y-117861828D01*
X188721197Y-117858774D01*
X188727803Y-117848282D01*
X188766099Y-117768041D01*
X188767553Y-117766588D01*
X188772544Y-117754538D01*
X188784180Y-117730158D01*
X188784498Y-117725677D01*
X188786217Y-117721528D01*
X188788619Y-117697142D01*
X188786611Y-117477757D01*
X188787637Y-117474680D01*
X188786427Y-117457658D01*
X188786217Y-117434661D01*
X188784498Y-117430511D01*
X188784180Y-117426031D01*
X188775422Y-117403145D01*
X188725340Y-117307415D01*
X188719933Y-117294361D01*
X188716011Y-117289582D01*
X188714749Y-117287170D01*
X188712256Y-117285008D01*
X188704387Y-117275420D01*
X188637825Y-117212256D01*
X188592765Y-117193592D01*
X188543992Y-117193592D01*
X188498933Y-117212257D01*
X188464446Y-117246745D01*
X188445782Y-117291805D01*
X188445782Y-117340578D01*
X188464447Y-117385637D01*
X188479993Y-117404579D01*
X188512338Y-117435273D01*
X188538865Y-117485978D01*
X188540503Y-117664942D01*
X188516053Y-117716170D01*
X188496915Y-117736337D01*
X188446210Y-117762864D01*
X188267246Y-117764502D01*
X188216017Y-117740052D01*
X188195851Y-117720915D01*
X188169324Y-117670210D01*
X188167686Y-117491245D01*
X188192136Y-117440016D01*
X188216827Y-117413998D01*
X188219252Y-117412698D01*
X188226698Y-117403597D01*
X188243742Y-117385637D01*
X188246150Y-117379822D01*
X188250137Y-117374950D01*
X188255414Y-117357457D01*
X188262407Y-117340577D01*
X188262407Y-117334281D01*
X188264225Y-117328256D01*
X188262407Y-117310076D01*
X188262407Y-117291804D01*
X188259998Y-117285989D01*
X188259372Y-117279726D01*
X188250732Y-117263621D01*
X188243742Y-117246744D01*
X188239293Y-117242295D01*
X188236317Y-117236747D01*
X188222170Y-117225172D01*
X188209255Y-117212257D01*
X188203442Y-117209849D01*
X188198569Y-117205862D01*
X188181073Y-117200583D01*
X188164195Y-117193592D01*
X188157901Y-117193592D01*
X188151875Y-117191774D01*
X188127371Y-117191810D01*
X187656108Y-117241211D01*
X187639233Y-117241211D01*
X187633515Y-117243579D01*
X187627155Y-117244246D01*
X187611055Y-117252882D01*
X187594173Y-117259875D01*
X187589722Y-117264325D01*
X187584176Y-117267301D01*
X187572605Y-117281442D01*
X187559685Y-117294363D01*
X187557276Y-117300177D01*
X187553291Y-117305049D01*
X187548013Y-117322541D01*
X187541021Y-117339423D01*
X187540100Y-117348768D01*
X187539203Y-117351743D01*
X187539507Y-117354788D01*
X187538619Y-117363809D01*
X187413619Y-117363809D01*
X187413619Y-116506666D01*
X187538619Y-116506666D01*
X187540542Y-116678682D01*
X187539600Y-116681508D01*
X187540755Y-116697761D01*
X187541021Y-116721528D01*
X187542739Y-116725676D01*
X187543058Y-116730158D01*
X187551816Y-116753044D01*
X187601901Y-116848780D01*
X187607305Y-116861826D01*
X187611224Y-116866602D01*
X187612489Y-116869019D01*
X187614983Y-116871182D01*
X187622850Y-116880768D01*
X187710305Y-116965621D01*
X187713896Y-116971606D01*
X187724800Y-116979685D01*
X187737030Y-116991551D01*
X187745615Y-116995107D01*
X187753084Y-117000641D01*
X187776159Y-117008886D01*
X187960547Y-117052856D01*
X187972566Y-117057835D01*
X187987655Y-117059321D01*
X187990875Y-117060089D01*
X187992697Y-117059817D01*
X187996952Y-117060237D01*
X188322657Y-117058049D01*
X188336361Y-117060089D01*
X188351460Y-117057856D01*
X188354671Y-117057835D01*
X188356372Y-117057130D01*
X188360602Y-117056505D01*
X188537551Y-117010216D01*
X188545147Y-117010216D01*
X188558168Y-117004822D01*
X188574153Y-117000641D01*
X188581619Y-116995108D01*
X188590207Y-116991552D01*
X188609149Y-116976007D01*
X188613879Y-116971131D01*
X188660108Y-117059495D01*
X188696953Y-117091451D01*
X188743223Y-117106874D01*
X188791873Y-117103416D01*
X188835496Y-117081605D01*
X188867452Y-117044760D01*
X188882875Y-116998489D01*
X188879418Y-116949840D01*
X188870660Y-116926954D01*
X188820574Y-116831217D01*
X188815171Y-116818172D01*
X188811251Y-116813395D01*
X188809987Y-116810979D01*
X188807492Y-116808815D01*
X188799626Y-116799230D01*
X188766779Y-116767361D01*
X188767553Y-116766588D01*
X188772544Y-116754538D01*
X188784180Y-116730158D01*
X188784498Y-116725677D01*
X188786217Y-116721528D01*
X188788619Y-116697142D01*
X188786695Y-116525122D01*
X188787637Y-116522299D01*
X188786482Y-116506056D01*
X188786217Y-116482280D01*
X188784498Y-116478130D01*
X188784180Y-116473650D01*
X188775422Y-116450764D01*
X188725338Y-116355030D01*
X188719933Y-116341981D01*
X188716011Y-116337203D01*
X188714749Y-116334789D01*
X188712257Y-116332627D01*
X188704388Y-116323039D01*
X188616930Y-116238183D01*
X188613341Y-116232202D01*
X188602441Y-116224126D01*
X188590207Y-116212256D01*
X188581619Y-116208699D01*
X188574153Y-116203167D01*
X188551078Y-116194922D01*
X188366690Y-116150951D01*
X188354671Y-116145973D01*
X188339579Y-116144486D01*
X188336361Y-116143719D01*
X188334539Y-116143990D01*
X188330285Y-116143571D01*
X188004579Y-116145758D01*
X187990875Y-116143719D01*
X187975776Y-116145951D01*
X187972566Y-116145973D01*
X187970864Y-116146677D01*
X187966635Y-116147303D01*
X187789686Y-116193592D01*
X187782089Y-116193592D01*
X187769068Y-116198985D01*
X187753084Y-116203167D01*
X187745615Y-116208700D01*
X187737030Y-116212257D01*
X187718088Y-116227802D01*
X187623814Y-116324966D01*
X187612489Y-116334789D01*
X187609172Y-116340057D01*
X187607305Y-116341982D01*
X187606043Y-116345028D01*
X187599434Y-116355527D01*
X187561138Y-116435766D01*
X187559685Y-116437220D01*
X187554694Y-116449268D01*
X187543058Y-116473650D01*
X187542739Y-116478131D01*
X187541021Y-116482280D01*
X187538619Y-116506666D01*
X187413619Y-116506666D01*
X187413619Y-115864386D01*
X187541021Y-115864386D01*
X187559685Y-115909446D01*
X187594173Y-115943934D01*
X187639233Y-115962598D01*
X187663619Y-115965000D01*
X188688005Y-115962598D01*
X188733065Y-115943934D01*
X188767553Y-115909446D01*
X188786217Y-115864386D01*
X188786217Y-115815614D01*
X188767553Y-115770554D01*
X188733065Y-115736066D01*
X188688005Y-115717402D01*
X188663619Y-115715000D01*
X187639233Y-115717402D01*
X187594173Y-115736066D01*
X187559685Y-115770554D01*
X187541021Y-115815614D01*
X187541021Y-115864386D01*
X187413619Y-115864386D01*
X187413619Y-115590000D01*
X189007875Y-115590000D01*
X189007875Y-118137618D01*
G37*
G36*
X188913619Y-83433779D02*
G01*
X187366982Y-83433779D01*
X187366982Y-83200395D01*
X187539601Y-83200395D01*
X187555024Y-83246664D01*
X187586979Y-83283510D01*
X187630604Y-83305322D01*
X187679253Y-83308779D01*
X187703147Y-83303346D01*
X188688078Y-82972596D01*
X188696634Y-82971989D01*
X188710429Y-82965091D01*
X188725522Y-82960023D01*
X188732269Y-82954171D01*
X188740258Y-82950177D01*
X188750524Y-82938339D01*
X188762368Y-82928068D01*
X188766363Y-82920076D01*
X188772214Y-82913331D01*
X188777169Y-82898466D01*
X188784180Y-82884444D01*
X188784813Y-82875533D01*
X188787637Y-82867062D01*
X188786526Y-82851428D01*
X188787637Y-82835794D01*
X188784813Y-82827322D01*
X188784180Y-82818412D01*
X188777169Y-82804390D01*
X188772214Y-82789525D01*
X188766363Y-82782779D01*
X188762368Y-82774788D01*
X188750524Y-82764516D01*
X188740258Y-82752679D01*
X188732269Y-82748684D01*
X188725522Y-82742833D01*
X188703147Y-82732842D01*
X187679253Y-82394077D01*
X187630604Y-82397534D01*
X187586979Y-82419346D01*
X187555024Y-82456192D01*
X187539601Y-82502461D01*
X187543058Y-82551110D01*
X187564870Y-82594735D01*
X187601716Y-82626690D01*
X187624091Y-82636680D01*
X188272045Y-82851062D01*
X187601716Y-83076166D01*
X187564870Y-83108121D01*
X187543058Y-83151746D01*
X187539601Y-83200395D01*
X187366982Y-83200395D01*
X187366982Y-81914681D01*
X187491982Y-81914681D01*
X187507405Y-81960950D01*
X187539360Y-81997796D01*
X187582985Y-82019608D01*
X187631634Y-82023065D01*
X187655528Y-82017632D01*
X188205924Y-81832274D01*
X188206601Y-82013730D01*
X187972566Y-82014544D01*
X187927506Y-82033208D01*
X187893018Y-82067696D01*
X187874354Y-82112756D01*
X187874354Y-82161528D01*
X187893018Y-82206588D01*
X187927506Y-82241076D01*
X187972566Y-82259740D01*
X187996952Y-82262142D01*
X188207526Y-82261410D01*
X188207687Y-82304385D01*
X188226351Y-82349445D01*
X188260839Y-82383933D01*
X188305899Y-82402597D01*
X188354671Y-82402597D01*
X188399731Y-82383933D01*
X188434219Y-82349445D01*
X188452883Y-82304385D01*
X188455285Y-82279999D01*
X188455212Y-82260549D01*
X188688005Y-82259740D01*
X188733065Y-82241076D01*
X188767553Y-82206588D01*
X188786217Y-82161528D01*
X188786217Y-82112756D01*
X188767553Y-82067696D01*
X188733065Y-82033208D01*
X188688005Y-82014544D01*
X188663619Y-82012142D01*
X188454287Y-82012869D01*
X188452984Y-81663867D01*
X188454303Y-81645318D01*
X188452899Y-81641108D01*
X188452883Y-81636566D01*
X188445213Y-81618050D01*
X188438880Y-81599049D01*
X188435938Y-81595657D01*
X188434219Y-81591506D01*
X188420046Y-81577333D01*
X188406924Y-81562203D01*
X188402908Y-81560195D01*
X188399731Y-81557018D01*
X188381216Y-81549349D01*
X188363300Y-81540391D01*
X188358820Y-81540072D01*
X188354671Y-81538354D01*
X188334634Y-81538354D01*
X188314650Y-81536934D01*
X188308405Y-81538354D01*
X188305899Y-81538354D01*
X188302849Y-81539617D01*
X188290756Y-81542367D01*
X187554097Y-81790452D01*
X187517251Y-81822407D01*
X187495439Y-81866032D01*
X187491982Y-81914681D01*
X187366982Y-81914681D01*
X187366982Y-80851428D01*
X187538619Y-80851428D01*
X187540626Y-81070809D01*
X187539600Y-81073889D01*
X187540810Y-81090921D01*
X187541021Y-81113909D01*
X187542739Y-81118057D01*
X187543058Y-81122539D01*
X187551816Y-81145425D01*
X187601901Y-81241161D01*
X187607305Y-81254207D01*
X187611224Y-81258983D01*
X187612489Y-81261400D01*
X187614983Y-81263563D01*
X187622850Y-81273149D01*
X187674174Y-81321854D01*
X187682218Y-81331129D01*
X187687354Y-81334362D01*
X187689410Y-81336313D01*
X187692460Y-81337576D01*
X187702955Y-81344183D01*
X187783195Y-81382479D01*
X187784649Y-81383933D01*
X187796698Y-81388924D01*
X187821079Y-81400560D01*
X187825559Y-81400878D01*
X187829709Y-81402597D01*
X187854095Y-81404999D01*
X187951314Y-81403046D01*
X187964967Y-81404017D01*
X187970969Y-81402652D01*
X187973719Y-81402597D01*
X187976770Y-81401333D01*
X187988861Y-81398584D01*
X188113930Y-81354978D01*
X188116577Y-81354978D01*
X188130649Y-81349148D01*
X188154093Y-81340975D01*
X188157486Y-81338031D01*
X188161636Y-81336313D01*
X188180578Y-81320768D01*
X188539733Y-80959534D01*
X188541021Y-81304385D01*
X188559685Y-81349445D01*
X188594173Y-81383933D01*
X188639233Y-81402597D01*
X188688005Y-81402597D01*
X188733065Y-81383933D01*
X188767553Y-81349445D01*
X188786217Y-81304385D01*
X188788619Y-81279999D01*
X188786217Y-80636566D01*
X188785829Y-80635630D01*
X188772992Y-80604638D01*
X188767553Y-80591506D01*
X188733065Y-80557018D01*
X188706670Y-80546085D01*
X188688006Y-80538354D01*
X188639232Y-80538354D01*
X188626034Y-80543820D01*
X188594173Y-80557018D01*
X188594167Y-80557023D01*
X188575231Y-80572564D01*
X188028864Y-81122091D01*
X187933574Y-81155315D01*
X187885051Y-81156289D01*
X187835065Y-81132433D01*
X187814899Y-81113296D01*
X187788372Y-81062591D01*
X187786734Y-80883626D01*
X187811184Y-80832397D01*
X187862790Y-80778018D01*
X187881455Y-80732958D01*
X187881455Y-80684185D01*
X187862790Y-80639125D01*
X187828303Y-80604638D01*
X187783243Y-80585973D01*
X187734470Y-80585973D01*
X187689410Y-80604638D01*
X187670468Y-80620183D01*
X187621766Y-80671504D01*
X187612489Y-80679551D01*
X187609253Y-80684690D01*
X187607305Y-80686744D01*
X187606043Y-80689790D01*
X187599434Y-80700289D01*
X187561138Y-80780528D01*
X187559685Y-80781982D01*
X187554694Y-80794030D01*
X187543058Y-80818412D01*
X187542739Y-80822893D01*
X187541021Y-80827042D01*
X187538619Y-80851428D01*
X187366982Y-80851428D01*
X187366982Y-79923433D01*
X187779116Y-79923433D01*
X187797780Y-79968493D01*
X187832268Y-80002981D01*
X187877328Y-80021645D01*
X187901714Y-80024047D01*
X188159209Y-80023260D01*
X188160068Y-80304386D01*
X188178732Y-80349446D01*
X188213220Y-80383934D01*
X188258280Y-80402598D01*
X188307052Y-80402598D01*
X188352112Y-80383934D01*
X188386600Y-80349446D01*
X188405264Y-80304386D01*
X188407666Y-80280000D01*
X188406879Y-80022503D01*
X188688005Y-80021645D01*
X188733065Y-80002981D01*
X188767553Y-79968493D01*
X188786217Y-79923433D01*
X188786217Y-79874661D01*
X188767553Y-79829601D01*
X188733065Y-79795113D01*
X188688005Y-79776449D01*
X188663619Y-79774047D01*
X188406122Y-79774833D01*
X188405264Y-79493709D01*
X188386600Y-79448649D01*
X188352112Y-79414161D01*
X188307052Y-79395497D01*
X188258280Y-79395497D01*
X188213220Y-79414161D01*
X188178732Y-79448649D01*
X188160068Y-79493709D01*
X188157666Y-79518095D01*
X188158452Y-79775590D01*
X187877328Y-79776449D01*
X187832268Y-79795113D01*
X187797780Y-79829601D01*
X187779116Y-79874661D01*
X187779116Y-79923433D01*
X187366982Y-79923433D01*
X187366982Y-79270497D01*
X188913619Y-79270497D01*
X188913619Y-83433779D01*
G37*
G36*
X157029613Y-57870960D02*
G01*
X157089660Y-57929221D01*
X157122161Y-57991347D01*
X157164449Y-58153000D01*
X157166070Y-58265858D01*
X157127579Y-58427267D01*
X157094399Y-58496789D01*
X157034050Y-58558988D01*
X156940749Y-58591518D01*
X156842615Y-58592416D01*
X156840851Y-57840253D01*
X156930519Y-57839433D01*
X157029613Y-57870960D01*
G37*
G36*
X157539334Y-58966379D02*
G01*
X154372668Y-58966379D01*
X154372668Y-58144951D01*
X154497668Y-58144951D01*
X154499631Y-58281680D01*
X154497816Y-58293884D01*
X154500021Y-58308799D01*
X154500070Y-58312194D01*
X154500774Y-58313895D01*
X154501400Y-58318125D01*
X154548902Y-58499711D01*
X154549726Y-58511300D01*
X154556703Y-58529533D01*
X154557264Y-58531676D01*
X154557800Y-58532400D01*
X154558484Y-58534186D01*
X154608569Y-58629922D01*
X154613973Y-58642968D01*
X154617892Y-58647744D01*
X154619157Y-58650161D01*
X154621651Y-58652324D01*
X154629518Y-58661910D01*
X154713289Y-58743189D01*
X154714395Y-58745400D01*
X154725446Y-58754984D01*
X154743698Y-58772693D01*
X154747847Y-58774411D01*
X154751241Y-58777355D01*
X154773616Y-58787345D01*
X154917412Y-58833094D01*
X154931615Y-58838977D01*
X154937825Y-58839588D01*
X154940366Y-58840397D01*
X154943657Y-58840163D01*
X154956001Y-58841379D01*
X155080790Y-58839586D01*
X155083224Y-58840398D01*
X155098144Y-58839337D01*
X155123244Y-58838977D01*
X155127392Y-58837258D01*
X155131874Y-58836940D01*
X155154760Y-58828182D01*
X155270735Y-58767509D01*
X155302691Y-58730664D01*
X155318114Y-58684394D01*
X155314656Y-58635744D01*
X155292845Y-58592121D01*
X155256000Y-58560165D01*
X155209729Y-58544742D01*
X155161080Y-58548199D01*
X155138194Y-58556957D01*
X155071650Y-58591769D01*
X154980702Y-58593075D01*
X154882388Y-58561797D01*
X154822341Y-58503537D01*
X154789840Y-58441411D01*
X154747552Y-58279758D01*
X154745931Y-58166900D01*
X154784422Y-58005488D01*
X154817602Y-57935970D01*
X154877951Y-57873770D01*
X154971761Y-57841062D01*
X155027368Y-57839945D01*
X155117096Y-57868493D01*
X155118123Y-58021332D01*
X155026853Y-58022353D01*
X154981793Y-58041017D01*
X154947305Y-58075505D01*
X154928641Y-58120565D01*
X154928641Y-58169337D01*
X154947305Y-58214397D01*
X154981793Y-58248885D01*
X155026853Y-58267549D01*
X155051239Y-58269951D01*
X155266101Y-58267549D01*
X155311161Y-58248885D01*
X155345649Y-58214397D01*
X155364313Y-58169337D01*
X155366715Y-58144951D01*
X155364313Y-57787232D01*
X155363730Y-57785825D01*
X155356581Y-57768567D01*
X155345649Y-57742172D01*
X155345648Y-57742171D01*
X155330103Y-57723229D01*
X155322884Y-57716379D01*
X155545287Y-57716379D01*
X155547614Y-58709196D01*
X155545592Y-58725109D01*
X155547670Y-58732729D01*
X155547689Y-58740765D01*
X155554050Y-58756122D01*
X155558425Y-58772164D01*
X155563304Y-58778464D01*
X155566353Y-58785825D01*
X155578108Y-58797580D01*
X155588288Y-58810725D01*
X155595206Y-58814678D01*
X155600841Y-58820313D01*
X155616199Y-58826674D01*
X155630634Y-58834923D01*
X155638540Y-58835928D01*
X155645901Y-58838977D01*
X155662522Y-58838977D01*
X155679017Y-58841074D01*
X155686706Y-58838977D01*
X155694673Y-58838977D01*
X155710030Y-58832615D01*
X155726072Y-58828241D01*
X155732372Y-58823361D01*
X155739733Y-58820313D01*
X155751488Y-58808557D01*
X155764633Y-58798378D01*
X155771886Y-58788159D01*
X155774221Y-58785825D01*
X155775170Y-58783533D01*
X155778817Y-58778396D01*
X156117807Y-58182339D01*
X156119117Y-58740765D01*
X156137781Y-58785825D01*
X156172269Y-58820313D01*
X156217329Y-58838977D01*
X156266101Y-58838977D01*
X156311161Y-58820313D01*
X156345649Y-58785825D01*
X156364313Y-58740765D01*
X156366715Y-58716379D01*
X156364387Y-57723560D01*
X156365300Y-57716379D01*
X156592906Y-57716379D01*
X156595308Y-58740765D01*
X156613972Y-58785825D01*
X156648460Y-58820313D01*
X156693520Y-58838977D01*
X156717906Y-58841379D01*
X156954930Y-58839209D01*
X156971635Y-58840397D01*
X156977774Y-58839000D01*
X156980387Y-58838977D01*
X156983438Y-58837713D01*
X156995529Y-58834964D01*
X157120598Y-58791358D01*
X157123245Y-58791358D01*
X157137317Y-58785528D01*
X157160761Y-58777355D01*
X157164154Y-58774411D01*
X157168304Y-58772693D01*
X157187246Y-58757148D01*
X157281519Y-58659983D01*
X157292845Y-58650161D01*
X157296161Y-58644893D01*
X157298029Y-58642968D01*
X157299291Y-58639920D01*
X157305899Y-58629424D01*
X157348592Y-58539970D01*
X157354738Y-58531676D01*
X157361251Y-58513445D01*
X157362276Y-58511300D01*
X157362339Y-58510400D01*
X157362983Y-58508601D01*
X157406953Y-58324212D01*
X157411932Y-58312194D01*
X157413418Y-58297104D01*
X157414186Y-58293885D01*
X157413914Y-58292062D01*
X157414334Y-58287808D01*
X157412370Y-58151077D01*
X157414186Y-58138874D01*
X157411980Y-58123958D01*
X157411932Y-58120565D01*
X157411227Y-58118863D01*
X157410602Y-58114634D01*
X157363099Y-57933045D01*
X157362276Y-57921459D01*
X157355298Y-57903225D01*
X157354738Y-57901083D01*
X157354201Y-57900358D01*
X157353518Y-57898573D01*
X157303432Y-57802836D01*
X157298029Y-57789791D01*
X157294109Y-57785014D01*
X157292845Y-57782598D01*
X157290350Y-57780434D01*
X157282484Y-57770849D01*
X157198713Y-57689570D01*
X157197608Y-57687360D01*
X157186553Y-57677772D01*
X157168304Y-57660066D01*
X157164156Y-57658347D01*
X157160762Y-57655404D01*
X157138387Y-57645414D01*
X156994590Y-57599664D01*
X156980387Y-57593781D01*
X156974176Y-57593169D01*
X156971636Y-57592361D01*
X156968344Y-57592594D01*
X156956001Y-57591379D01*
X156693520Y-57593781D01*
X156648460Y-57612445D01*
X156613972Y-57646933D01*
X156595308Y-57691993D01*
X156592906Y-57716379D01*
X156365300Y-57716379D01*
X156366410Y-57707648D01*
X156364331Y-57700028D01*
X156364313Y-57691993D01*
X156357952Y-57676636D01*
X156353577Y-57660594D01*
X156348697Y-57654293D01*
X156345649Y-57646933D01*
X156333893Y-57635177D01*
X156323714Y-57622033D01*
X156316795Y-57618079D01*
X156311161Y-57612445D01*
X156295802Y-57606083D01*
X156281368Y-57597835D01*
X156273461Y-57596829D01*
X156266101Y-57593781D01*
X156249480Y-57593781D01*
X156232985Y-57591684D01*
X156225296Y-57593781D01*
X156217329Y-57593781D01*
X156201971Y-57600142D01*
X156185930Y-57604517D01*
X156179629Y-57609396D01*
X156172269Y-57612445D01*
X156160513Y-57624200D01*
X156147369Y-57634380D01*
X156140115Y-57644598D01*
X156137781Y-57646933D01*
X156136831Y-57649224D01*
X156133185Y-57654362D01*
X155794194Y-58250417D01*
X155792885Y-57691993D01*
X155774221Y-57646933D01*
X155739733Y-57612445D01*
X155694673Y-57593781D01*
X155645901Y-57593781D01*
X155600841Y-57612445D01*
X155566353Y-57646933D01*
X155547689Y-57691993D01*
X155545287Y-57716379D01*
X155322884Y-57716379D01*
X155293335Y-57688338D01*
X155292846Y-57687360D01*
X155286551Y-57681901D01*
X155263542Y-57660066D01*
X155259394Y-57658347D01*
X155256000Y-57655404D01*
X155233625Y-57645414D01*
X155089828Y-57599664D01*
X155075625Y-57593781D01*
X155069414Y-57593169D01*
X155066874Y-57592361D01*
X155063582Y-57592594D01*
X155051239Y-57591379D01*
X154954018Y-57593331D01*
X154940366Y-57592361D01*
X154934363Y-57593725D01*
X154931615Y-57593781D01*
X154928565Y-57595044D01*
X154916472Y-57597794D01*
X154791402Y-57641401D01*
X154788757Y-57641401D01*
X154774692Y-57647227D01*
X154751240Y-57655404D01*
X154747845Y-57658347D01*
X154743698Y-57660066D01*
X154724756Y-57675611D01*
X154630482Y-57772775D01*
X154619157Y-57782598D01*
X154615840Y-57787866D01*
X154613973Y-57789791D01*
X154612711Y-57792837D01*
X154606102Y-57803336D01*
X154563409Y-57892788D01*
X154557264Y-57901083D01*
X154550750Y-57919313D01*
X154549726Y-57921459D01*
X154549662Y-57922358D01*
X154549019Y-57924158D01*
X154505048Y-58108545D01*
X154500070Y-58120565D01*
X154498583Y-58135656D01*
X154497816Y-58138875D01*
X154498087Y-58140696D01*
X154497668Y-58144951D01*
X154372668Y-58144951D01*
X154372668Y-57466379D01*
X157539334Y-57466379D01*
X157539334Y-58966379D01*
G37*
G36*
X188492173Y-122543756D02*
G01*
X188512338Y-122562892D01*
X188538921Y-122613704D01*
X188540391Y-122745177D01*
X188516053Y-122796170D01*
X188496915Y-122816337D01*
X188446210Y-122842864D01*
X188267246Y-122844502D01*
X188216017Y-122820052D01*
X188195851Y-122800915D01*
X188169268Y-122750103D01*
X188167798Y-122618629D01*
X188192136Y-122567635D01*
X188211273Y-122547470D01*
X188263447Y-122520175D01*
X188440565Y-122519125D01*
X188492173Y-122543756D01*
G37*
G36*
X188319555Y-121474510D02*
G01*
X188302925Y-121514661D01*
X188300523Y-121539047D01*
X188302086Y-121616904D01*
X188301504Y-121618651D01*
X188302364Y-121630757D01*
X188302925Y-121658671D01*
X188304643Y-121662819D01*
X188304962Y-121667301D01*
X188313720Y-121690187D01*
X188363803Y-121785920D01*
X188369209Y-121798970D01*
X188373130Y-121803747D01*
X188374393Y-121806162D01*
X188376884Y-121808323D01*
X188384754Y-121817912D01*
X188429963Y-121862171D01*
X188322476Y-121890289D01*
X188020346Y-121892318D01*
X187871858Y-121856908D01*
X187815673Y-121802395D01*
X187788316Y-121750103D01*
X187786846Y-121618629D01*
X187810934Y-121568161D01*
X187868066Y-121509277D01*
X188004760Y-121473518D01*
X188306890Y-121471489D01*
X188319555Y-121474510D01*
G37*
G36*
X189007875Y-123217618D02*
G01*
X187413619Y-123217618D01*
X187413619Y-122681904D01*
X187538619Y-122681904D01*
X187541021Y-122896766D01*
X187559685Y-122941826D01*
X187594173Y-122976314D01*
X187639233Y-122994978D01*
X187688005Y-122994978D01*
X187733065Y-122976314D01*
X187767553Y-122941826D01*
X187786217Y-122896766D01*
X187788619Y-122872380D01*
X187786846Y-122713867D01*
X187811184Y-122662873D01*
X187833329Y-122639538D01*
X187920221Y-122580060D01*
X187919571Y-122586666D01*
X187921494Y-122758682D01*
X187920552Y-122761508D01*
X187921707Y-122777761D01*
X187921973Y-122801528D01*
X187923691Y-122805676D01*
X187924010Y-122810158D01*
X187932768Y-122833044D01*
X187982853Y-122928780D01*
X187988257Y-122941826D01*
X187992176Y-122946602D01*
X187993441Y-122949019D01*
X187995935Y-122951182D01*
X188003802Y-122960768D01*
X188055126Y-123009473D01*
X188063170Y-123018748D01*
X188068306Y-123021981D01*
X188070362Y-123023932D01*
X188073412Y-123025195D01*
X188083907Y-123031802D01*
X188164147Y-123070098D01*
X188165601Y-123071552D01*
X188177650Y-123076543D01*
X188202031Y-123088179D01*
X188206511Y-123088497D01*
X188210661Y-123090216D01*
X188235047Y-123092618D01*
X188454428Y-123090610D01*
X188457508Y-123091637D01*
X188474540Y-123090426D01*
X188497528Y-123090216D01*
X188501676Y-123088497D01*
X188506158Y-123088179D01*
X188529044Y-123079421D01*
X188624778Y-123029336D01*
X188637825Y-123023933D01*
X188642602Y-123020012D01*
X188645019Y-123018748D01*
X188647182Y-123016253D01*
X188656767Y-123008388D01*
X188705477Y-122957060D01*
X188714749Y-122949019D01*
X188717980Y-122943885D01*
X188719933Y-122941828D01*
X188721197Y-122938774D01*
X188727803Y-122928282D01*
X188766099Y-122848041D01*
X188767553Y-122846588D01*
X188772544Y-122834538D01*
X188784180Y-122810158D01*
X188784498Y-122805677D01*
X188786217Y-122801528D01*
X188788619Y-122777142D01*
X188786695Y-122605122D01*
X188787637Y-122602299D01*
X188786482Y-122586056D01*
X188786217Y-122562280D01*
X188784498Y-122558130D01*
X188784180Y-122553650D01*
X188775422Y-122530764D01*
X188725340Y-122435034D01*
X188719933Y-122421980D01*
X188716011Y-122417201D01*
X188714749Y-122414789D01*
X188712256Y-122412627D01*
X188704387Y-122403039D01*
X188653065Y-122354337D01*
X188645019Y-122345060D01*
X188639879Y-122341824D01*
X188637825Y-122339875D01*
X188634777Y-122338612D01*
X188624281Y-122332005D01*
X188544041Y-122293709D01*
X188542588Y-122292256D01*
X188530539Y-122287265D01*
X188506158Y-122275629D01*
X188501676Y-122275310D01*
X188497528Y-122273592D01*
X188473142Y-122271190D01*
X188251671Y-122272502D01*
X188250680Y-122272172D01*
X188245516Y-122272538D01*
X188099980Y-122273401D01*
X188086113Y-122271338D01*
X188070996Y-122273573D01*
X188067804Y-122273592D01*
X188066102Y-122274296D01*
X188061873Y-122274922D01*
X187870101Y-122325088D01*
X187853999Y-122328274D01*
X187850218Y-122330289D01*
X187848322Y-122330786D01*
X187845842Y-122332623D01*
X187832377Y-122339803D01*
X187698844Y-122431206D01*
X187689410Y-122435114D01*
X187670683Y-122450482D01*
X187670561Y-122450566D01*
X187670536Y-122450603D01*
X187670468Y-122450659D01*
X187621766Y-122501980D01*
X187612489Y-122510027D01*
X187609253Y-122515166D01*
X187607305Y-122517220D01*
X187606043Y-122520266D01*
X187599434Y-122530765D01*
X187561138Y-122611004D01*
X187559685Y-122612458D01*
X187554694Y-122624506D01*
X187543058Y-122648888D01*
X187542739Y-122653369D01*
X187541021Y-122657518D01*
X187538619Y-122681904D01*
X187413619Y-122681904D01*
X187413619Y-121586666D01*
X187538619Y-121586666D01*
X187540542Y-121758682D01*
X187539600Y-121761508D01*
X187540755Y-121777761D01*
X187541021Y-121801528D01*
X187542739Y-121805676D01*
X187543058Y-121810158D01*
X187551816Y-121833044D01*
X187601901Y-121928780D01*
X187607305Y-121941826D01*
X187611224Y-121946602D01*
X187612489Y-121949019D01*
X187614983Y-121951182D01*
X187622850Y-121960768D01*
X187710305Y-122045621D01*
X187713896Y-122051606D01*
X187724800Y-122059685D01*
X187737030Y-122071551D01*
X187745615Y-122075107D01*
X187753084Y-122080641D01*
X187776159Y-122088886D01*
X187960547Y-122132856D01*
X187972566Y-122137835D01*
X187987655Y-122139321D01*
X187990875Y-122140089D01*
X187992697Y-122139817D01*
X187996952Y-122140237D01*
X188322657Y-122138049D01*
X188336361Y-122140089D01*
X188351460Y-122137856D01*
X188354671Y-122137835D01*
X188356372Y-122137130D01*
X188360602Y-122136505D01*
X188537551Y-122090216D01*
X188545147Y-122090216D01*
X188558168Y-122084822D01*
X188574153Y-122080641D01*
X188581619Y-122075108D01*
X188590207Y-122071552D01*
X188609149Y-122056007D01*
X188613879Y-122051131D01*
X188660108Y-122139495D01*
X188696953Y-122171451D01*
X188743223Y-122186874D01*
X188791873Y-122183416D01*
X188835496Y-122161605D01*
X188867452Y-122124760D01*
X188882875Y-122078489D01*
X188879418Y-122029840D01*
X188870660Y-122006954D01*
X188820574Y-121911217D01*
X188815171Y-121898172D01*
X188811251Y-121893395D01*
X188809987Y-121890979D01*
X188807492Y-121888815D01*
X188799626Y-121879230D01*
X188766779Y-121847361D01*
X188767553Y-121846588D01*
X188772544Y-121834538D01*
X188784180Y-121810158D01*
X188784498Y-121805677D01*
X188786217Y-121801528D01*
X188788619Y-121777142D01*
X188786695Y-121605122D01*
X188787637Y-121602299D01*
X188786482Y-121586056D01*
X188786217Y-121562280D01*
X188784498Y-121558130D01*
X188784180Y-121553650D01*
X188775422Y-121530764D01*
X188725338Y-121435030D01*
X188719933Y-121421981D01*
X188716011Y-121417203D01*
X188714749Y-121414789D01*
X188712257Y-121412627D01*
X188704388Y-121403039D01*
X188616930Y-121318183D01*
X188613341Y-121312202D01*
X188602441Y-121304126D01*
X188590207Y-121292256D01*
X188581619Y-121288699D01*
X188574153Y-121283167D01*
X188551078Y-121274922D01*
X188366690Y-121230951D01*
X188354671Y-121225973D01*
X188339579Y-121224486D01*
X188336361Y-121223719D01*
X188334539Y-121223990D01*
X188330285Y-121223571D01*
X188004579Y-121225758D01*
X187990875Y-121223719D01*
X187975776Y-121225951D01*
X187972566Y-121225973D01*
X187970864Y-121226677D01*
X187966635Y-121227303D01*
X187789686Y-121273592D01*
X187782089Y-121273592D01*
X187769068Y-121278985D01*
X187753084Y-121283167D01*
X187745615Y-121288700D01*
X187737030Y-121292257D01*
X187718088Y-121307802D01*
X187623814Y-121404966D01*
X187612489Y-121414789D01*
X187609172Y-121420057D01*
X187607305Y-121421982D01*
X187606043Y-121425028D01*
X187599434Y-121435527D01*
X187561138Y-121515766D01*
X187559685Y-121517220D01*
X187554694Y-121529268D01*
X187543058Y-121553650D01*
X187542739Y-121558131D01*
X187541021Y-121562280D01*
X187538619Y-121586666D01*
X187413619Y-121586666D01*
X187413619Y-120944386D01*
X187541021Y-120944386D01*
X187559685Y-120989446D01*
X187594173Y-121023934D01*
X187639233Y-121042598D01*
X187663619Y-121045000D01*
X188688005Y-121042598D01*
X188733065Y-121023934D01*
X188767553Y-120989446D01*
X188786217Y-120944386D01*
X188786217Y-120895614D01*
X188767553Y-120850554D01*
X188733065Y-120816066D01*
X188688005Y-120797402D01*
X188663619Y-120795000D01*
X187639233Y-120797402D01*
X187594173Y-120816066D01*
X187559685Y-120850554D01*
X187541021Y-120895614D01*
X187541021Y-120944386D01*
X187413619Y-120944386D01*
X187413619Y-120670000D01*
X189007875Y-120670000D01*
X189007875Y-123217618D01*
G37*
D11*
X152534857Y-96371580D02*
X152582476Y-96419200D01*
X152582476Y-96419200D02*
X152725333Y-96466819D01*
X152725333Y-96466819D02*
X152820571Y-96466819D01*
X152820571Y-96466819D02*
X152963428Y-96419200D01*
X152963428Y-96419200D02*
X153058666Y-96323961D01*
X153058666Y-96323961D02*
X153106285Y-96228723D01*
X153106285Y-96228723D02*
X153153904Y-96038247D01*
X153153904Y-96038247D02*
X153153904Y-95895390D01*
X153153904Y-95895390D02*
X153106285Y-95704914D01*
X153106285Y-95704914D02*
X153058666Y-95609676D01*
X153058666Y-95609676D02*
X152963428Y-95514438D01*
X152963428Y-95514438D02*
X152820571Y-95466819D01*
X152820571Y-95466819D02*
X152725333Y-95466819D01*
X152725333Y-95466819D02*
X152582476Y-95514438D01*
X152582476Y-95514438D02*
X152534857Y-95562057D01*
X151582476Y-96466819D02*
X152153904Y-96466819D01*
X151868190Y-96466819D02*
X151868190Y-95466819D01*
X151868190Y-95466819D02*
X151963428Y-95609676D01*
X151963428Y-95609676D02*
X152058666Y-95704914D01*
X152058666Y-95704914D02*
X152153904Y-95752533D01*
X151106285Y-96466819D02*
X150915809Y-96466819D01*
X150915809Y-96466819D02*
X150820571Y-96419200D01*
X150820571Y-96419200D02*
X150772952Y-96371580D01*
X150772952Y-96371580D02*
X150677714Y-96228723D01*
X150677714Y-96228723D02*
X150630095Y-96038247D01*
X150630095Y-96038247D02*
X150630095Y-95657295D01*
X150630095Y-95657295D02*
X150677714Y-95562057D01*
X150677714Y-95562057D02*
X150725333Y-95514438D01*
X150725333Y-95514438D02*
X150820571Y-95466819D01*
X150820571Y-95466819D02*
X151011047Y-95466819D01*
X151011047Y-95466819D02*
X151106285Y-95514438D01*
X151106285Y-95514438D02*
X151153904Y-95562057D01*
X151153904Y-95562057D02*
X151201523Y-95657295D01*
X151201523Y-95657295D02*
X151201523Y-95895390D01*
X151201523Y-95895390D02*
X151153904Y-95990628D01*
X151153904Y-95990628D02*
X151106285Y-96038247D01*
X151106285Y-96038247D02*
X151011047Y-96085866D01*
X151011047Y-96085866D02*
X150820571Y-96085866D01*
X150820571Y-96085866D02*
X150725333Y-96038247D01*
X150725333Y-96038247D02*
X150677714Y-95990628D01*
X150677714Y-95990628D02*
X150630095Y-95895390D01*
X157868857Y-102308819D02*
X158202190Y-101832628D01*
X158440285Y-102308819D02*
X158440285Y-101308819D01*
X158440285Y-101308819D02*
X158059333Y-101308819D01*
X158059333Y-101308819D02*
X157964095Y-101356438D01*
X157964095Y-101356438D02*
X157916476Y-101404057D01*
X157916476Y-101404057D02*
X157868857Y-101499295D01*
X157868857Y-101499295D02*
X157868857Y-101642152D01*
X157868857Y-101642152D02*
X157916476Y-101737390D01*
X157916476Y-101737390D02*
X157964095Y-101785009D01*
X157964095Y-101785009D02*
X158059333Y-101832628D01*
X158059333Y-101832628D02*
X158440285Y-101832628D01*
X156964095Y-101308819D02*
X157440285Y-101308819D01*
X157440285Y-101308819D02*
X157487904Y-101785009D01*
X157487904Y-101785009D02*
X157440285Y-101737390D01*
X157440285Y-101737390D02*
X157345047Y-101689771D01*
X157345047Y-101689771D02*
X157106952Y-101689771D01*
X157106952Y-101689771D02*
X157011714Y-101737390D01*
X157011714Y-101737390D02*
X156964095Y-101785009D01*
X156964095Y-101785009D02*
X156916476Y-101880247D01*
X156916476Y-101880247D02*
X156916476Y-102118342D01*
X156916476Y-102118342D02*
X156964095Y-102213580D01*
X156964095Y-102213580D02*
X157011714Y-102261200D01*
X157011714Y-102261200D02*
X157106952Y-102308819D01*
X157106952Y-102308819D02*
X157345047Y-102308819D01*
X157345047Y-102308819D02*
X157440285Y-102261200D01*
X157440285Y-102261200D02*
X157487904Y-102213580D01*
X156583142Y-101308819D02*
X155964095Y-101308819D01*
X155964095Y-101308819D02*
X156297428Y-101689771D01*
X156297428Y-101689771D02*
X156154571Y-101689771D01*
X156154571Y-101689771D02*
X156059333Y-101737390D01*
X156059333Y-101737390D02*
X156011714Y-101785009D01*
X156011714Y-101785009D02*
X155964095Y-101880247D01*
X155964095Y-101880247D02*
X155964095Y-102118342D01*
X155964095Y-102118342D02*
X156011714Y-102213580D01*
X156011714Y-102213580D02*
X156059333Y-102261200D01*
X156059333Y-102261200D02*
X156154571Y-102308819D01*
X156154571Y-102308819D02*
X156440285Y-102308819D01*
X156440285Y-102308819D02*
X156535523Y-102261200D01*
X156535523Y-102261200D02*
X156583142Y-102213580D01*
X152534857Y-88751580D02*
X152582476Y-88799200D01*
X152582476Y-88799200D02*
X152725333Y-88846819D01*
X152725333Y-88846819D02*
X152820571Y-88846819D01*
X152820571Y-88846819D02*
X152963428Y-88799200D01*
X152963428Y-88799200D02*
X153058666Y-88703961D01*
X153058666Y-88703961D02*
X153106285Y-88608723D01*
X153106285Y-88608723D02*
X153153904Y-88418247D01*
X153153904Y-88418247D02*
X153153904Y-88275390D01*
X153153904Y-88275390D02*
X153106285Y-88084914D01*
X153106285Y-88084914D02*
X153058666Y-87989676D01*
X153058666Y-87989676D02*
X152963428Y-87894438D01*
X152963428Y-87894438D02*
X152820571Y-87846819D01*
X152820571Y-87846819D02*
X152725333Y-87846819D01*
X152725333Y-87846819D02*
X152582476Y-87894438D01*
X152582476Y-87894438D02*
X152534857Y-87942057D01*
X151582476Y-88846819D02*
X152153904Y-88846819D01*
X151868190Y-88846819D02*
X151868190Y-87846819D01*
X151868190Y-87846819D02*
X151963428Y-87989676D01*
X151963428Y-87989676D02*
X152058666Y-88084914D01*
X152058666Y-88084914D02*
X152153904Y-88132533D01*
X151011047Y-88275390D02*
X151106285Y-88227771D01*
X151106285Y-88227771D02*
X151153904Y-88180152D01*
X151153904Y-88180152D02*
X151201523Y-88084914D01*
X151201523Y-88084914D02*
X151201523Y-88037295D01*
X151201523Y-88037295D02*
X151153904Y-87942057D01*
X151153904Y-87942057D02*
X151106285Y-87894438D01*
X151106285Y-87894438D02*
X151011047Y-87846819D01*
X151011047Y-87846819D02*
X150820571Y-87846819D01*
X150820571Y-87846819D02*
X150725333Y-87894438D01*
X150725333Y-87894438D02*
X150677714Y-87942057D01*
X150677714Y-87942057D02*
X150630095Y-88037295D01*
X150630095Y-88037295D02*
X150630095Y-88084914D01*
X150630095Y-88084914D02*
X150677714Y-88180152D01*
X150677714Y-88180152D02*
X150725333Y-88227771D01*
X150725333Y-88227771D02*
X150820571Y-88275390D01*
X150820571Y-88275390D02*
X151011047Y-88275390D01*
X151011047Y-88275390D02*
X151106285Y-88323009D01*
X151106285Y-88323009D02*
X151153904Y-88370628D01*
X151153904Y-88370628D02*
X151201523Y-88465866D01*
X151201523Y-88465866D02*
X151201523Y-88656342D01*
X151201523Y-88656342D02*
X151153904Y-88751580D01*
X151153904Y-88751580D02*
X151106285Y-88799200D01*
X151106285Y-88799200D02*
X151011047Y-88846819D01*
X151011047Y-88846819D02*
X150820571Y-88846819D01*
X150820571Y-88846819D02*
X150725333Y-88799200D01*
X150725333Y-88799200D02*
X150677714Y-88751580D01*
X150677714Y-88751580D02*
X150630095Y-88656342D01*
X150630095Y-88656342D02*
X150630095Y-88465866D01*
X150630095Y-88465866D02*
X150677714Y-88370628D01*
X150677714Y-88370628D02*
X150725333Y-88323009D01*
X150725333Y-88323009D02*
X150820571Y-88275390D01*
X152534857Y-134471580D02*
X152582476Y-134519200D01*
X152582476Y-134519200D02*
X152725333Y-134566819D01*
X152725333Y-134566819D02*
X152820571Y-134566819D01*
X152820571Y-134566819D02*
X152963428Y-134519200D01*
X152963428Y-134519200D02*
X153058666Y-134423961D01*
X153058666Y-134423961D02*
X153106285Y-134328723D01*
X153106285Y-134328723D02*
X153153904Y-134138247D01*
X153153904Y-134138247D02*
X153153904Y-133995390D01*
X153153904Y-133995390D02*
X153106285Y-133804914D01*
X153106285Y-133804914D02*
X153058666Y-133709676D01*
X153058666Y-133709676D02*
X152963428Y-133614438D01*
X152963428Y-133614438D02*
X152820571Y-133566819D01*
X152820571Y-133566819D02*
X152725333Y-133566819D01*
X152725333Y-133566819D02*
X152582476Y-133614438D01*
X152582476Y-133614438D02*
X152534857Y-133662057D01*
X152153904Y-133662057D02*
X152106285Y-133614438D01*
X152106285Y-133614438D02*
X152011047Y-133566819D01*
X152011047Y-133566819D02*
X151772952Y-133566819D01*
X151772952Y-133566819D02*
X151677714Y-133614438D01*
X151677714Y-133614438D02*
X151630095Y-133662057D01*
X151630095Y-133662057D02*
X151582476Y-133757295D01*
X151582476Y-133757295D02*
X151582476Y-133852533D01*
X151582476Y-133852533D02*
X151630095Y-133995390D01*
X151630095Y-133995390D02*
X152201523Y-134566819D01*
X152201523Y-134566819D02*
X151582476Y-134566819D01*
X150725333Y-133900152D02*
X150725333Y-134566819D01*
X150963428Y-133519200D02*
X151201523Y-134233485D01*
X151201523Y-134233485D02*
X150582476Y-134233485D01*
X150502857Y-85416819D02*
X150836190Y-84940628D01*
X151074285Y-85416819D02*
X151074285Y-84416819D01*
X151074285Y-84416819D02*
X150693333Y-84416819D01*
X150693333Y-84416819D02*
X150598095Y-84464438D01*
X150598095Y-84464438D02*
X150550476Y-84512057D01*
X150550476Y-84512057D02*
X150502857Y-84607295D01*
X150502857Y-84607295D02*
X150502857Y-84750152D01*
X150502857Y-84750152D02*
X150550476Y-84845390D01*
X150550476Y-84845390D02*
X150598095Y-84893009D01*
X150598095Y-84893009D02*
X150693333Y-84940628D01*
X150693333Y-84940628D02*
X151074285Y-84940628D01*
X149645714Y-84416819D02*
X149836190Y-84416819D01*
X149836190Y-84416819D02*
X149931428Y-84464438D01*
X149931428Y-84464438D02*
X149979047Y-84512057D01*
X149979047Y-84512057D02*
X150074285Y-84654914D01*
X150074285Y-84654914D02*
X150121904Y-84845390D01*
X150121904Y-84845390D02*
X150121904Y-85226342D01*
X150121904Y-85226342D02*
X150074285Y-85321580D01*
X150074285Y-85321580D02*
X150026666Y-85369200D01*
X150026666Y-85369200D02*
X149931428Y-85416819D01*
X149931428Y-85416819D02*
X149740952Y-85416819D01*
X149740952Y-85416819D02*
X149645714Y-85369200D01*
X149645714Y-85369200D02*
X149598095Y-85321580D01*
X149598095Y-85321580D02*
X149550476Y-85226342D01*
X149550476Y-85226342D02*
X149550476Y-84988247D01*
X149550476Y-84988247D02*
X149598095Y-84893009D01*
X149598095Y-84893009D02*
X149645714Y-84845390D01*
X149645714Y-84845390D02*
X149740952Y-84797771D01*
X149740952Y-84797771D02*
X149931428Y-84797771D01*
X149931428Y-84797771D02*
X150026666Y-84845390D01*
X150026666Y-84845390D02*
X150074285Y-84893009D01*
X150074285Y-84893009D02*
X150121904Y-84988247D01*
X148693333Y-84416819D02*
X148883809Y-84416819D01*
X148883809Y-84416819D02*
X148979047Y-84464438D01*
X148979047Y-84464438D02*
X149026666Y-84512057D01*
X149026666Y-84512057D02*
X149121904Y-84654914D01*
X149121904Y-84654914D02*
X149169523Y-84845390D01*
X149169523Y-84845390D02*
X149169523Y-85226342D01*
X149169523Y-85226342D02*
X149121904Y-85321580D01*
X149121904Y-85321580D02*
X149074285Y-85369200D01*
X149074285Y-85369200D02*
X148979047Y-85416819D01*
X148979047Y-85416819D02*
X148788571Y-85416819D01*
X148788571Y-85416819D02*
X148693333Y-85369200D01*
X148693333Y-85369200D02*
X148645714Y-85321580D01*
X148645714Y-85321580D02*
X148598095Y-85226342D01*
X148598095Y-85226342D02*
X148598095Y-84988247D01*
X148598095Y-84988247D02*
X148645714Y-84893009D01*
X148645714Y-84893009D02*
X148693333Y-84845390D01*
X148693333Y-84845390D02*
X148788571Y-84797771D01*
X148788571Y-84797771D02*
X148979047Y-84797771D01*
X148979047Y-84797771D02*
X149074285Y-84845390D01*
X149074285Y-84845390D02*
X149121904Y-84893009D01*
X149121904Y-84893009D02*
X149169523Y-84988247D01*
X150502857Y-93036819D02*
X150836190Y-92560628D01*
X151074285Y-93036819D02*
X151074285Y-92036819D01*
X151074285Y-92036819D02*
X150693333Y-92036819D01*
X150693333Y-92036819D02*
X150598095Y-92084438D01*
X150598095Y-92084438D02*
X150550476Y-92132057D01*
X150550476Y-92132057D02*
X150502857Y-92227295D01*
X150502857Y-92227295D02*
X150502857Y-92370152D01*
X150502857Y-92370152D02*
X150550476Y-92465390D01*
X150550476Y-92465390D02*
X150598095Y-92513009D01*
X150598095Y-92513009D02*
X150693333Y-92560628D01*
X150693333Y-92560628D02*
X151074285Y-92560628D01*
X149645714Y-92036819D02*
X149836190Y-92036819D01*
X149836190Y-92036819D02*
X149931428Y-92084438D01*
X149931428Y-92084438D02*
X149979047Y-92132057D01*
X149979047Y-92132057D02*
X150074285Y-92274914D01*
X150074285Y-92274914D02*
X150121904Y-92465390D01*
X150121904Y-92465390D02*
X150121904Y-92846342D01*
X150121904Y-92846342D02*
X150074285Y-92941580D01*
X150074285Y-92941580D02*
X150026666Y-92989200D01*
X150026666Y-92989200D02*
X149931428Y-93036819D01*
X149931428Y-93036819D02*
X149740952Y-93036819D01*
X149740952Y-93036819D02*
X149645714Y-92989200D01*
X149645714Y-92989200D02*
X149598095Y-92941580D01*
X149598095Y-92941580D02*
X149550476Y-92846342D01*
X149550476Y-92846342D02*
X149550476Y-92608247D01*
X149550476Y-92608247D02*
X149598095Y-92513009D01*
X149598095Y-92513009D02*
X149645714Y-92465390D01*
X149645714Y-92465390D02*
X149740952Y-92417771D01*
X149740952Y-92417771D02*
X149931428Y-92417771D01*
X149931428Y-92417771D02*
X150026666Y-92465390D01*
X150026666Y-92465390D02*
X150074285Y-92513009D01*
X150074285Y-92513009D02*
X150121904Y-92608247D01*
X149217142Y-92036819D02*
X148550476Y-92036819D01*
X148550476Y-92036819D02*
X148979047Y-93036819D01*
X161678857Y-109928819D02*
X162012190Y-109452628D01*
X162250285Y-109928819D02*
X162250285Y-108928819D01*
X162250285Y-108928819D02*
X161869333Y-108928819D01*
X161869333Y-108928819D02*
X161774095Y-108976438D01*
X161774095Y-108976438D02*
X161726476Y-109024057D01*
X161726476Y-109024057D02*
X161678857Y-109119295D01*
X161678857Y-109119295D02*
X161678857Y-109262152D01*
X161678857Y-109262152D02*
X161726476Y-109357390D01*
X161726476Y-109357390D02*
X161774095Y-109405009D01*
X161774095Y-109405009D02*
X161869333Y-109452628D01*
X161869333Y-109452628D02*
X162250285Y-109452628D01*
X160821714Y-108928819D02*
X161012190Y-108928819D01*
X161012190Y-108928819D02*
X161107428Y-108976438D01*
X161107428Y-108976438D02*
X161155047Y-109024057D01*
X161155047Y-109024057D02*
X161250285Y-109166914D01*
X161250285Y-109166914D02*
X161297904Y-109357390D01*
X161297904Y-109357390D02*
X161297904Y-109738342D01*
X161297904Y-109738342D02*
X161250285Y-109833580D01*
X161250285Y-109833580D02*
X161202666Y-109881200D01*
X161202666Y-109881200D02*
X161107428Y-109928819D01*
X161107428Y-109928819D02*
X160916952Y-109928819D01*
X160916952Y-109928819D02*
X160821714Y-109881200D01*
X160821714Y-109881200D02*
X160774095Y-109833580D01*
X160774095Y-109833580D02*
X160726476Y-109738342D01*
X160726476Y-109738342D02*
X160726476Y-109500247D01*
X160726476Y-109500247D02*
X160774095Y-109405009D01*
X160774095Y-109405009D02*
X160821714Y-109357390D01*
X160821714Y-109357390D02*
X160916952Y-109309771D01*
X160916952Y-109309771D02*
X161107428Y-109309771D01*
X161107428Y-109309771D02*
X161202666Y-109357390D01*
X161202666Y-109357390D02*
X161250285Y-109405009D01*
X161250285Y-109405009D02*
X161297904Y-109500247D01*
X160345523Y-109024057D02*
X160297904Y-108976438D01*
X160297904Y-108976438D02*
X160202666Y-108928819D01*
X160202666Y-108928819D02*
X159964571Y-108928819D01*
X159964571Y-108928819D02*
X159869333Y-108976438D01*
X159869333Y-108976438D02*
X159821714Y-109024057D01*
X159821714Y-109024057D02*
X159774095Y-109119295D01*
X159774095Y-109119295D02*
X159774095Y-109214533D01*
X159774095Y-109214533D02*
X159821714Y-109357390D01*
X159821714Y-109357390D02*
X160393142Y-109928819D01*
X160393142Y-109928819D02*
X159774095Y-109928819D01*
X106505333Y-79674819D02*
X106505333Y-80389104D01*
X106505333Y-80389104D02*
X106552952Y-80531961D01*
X106552952Y-80531961D02*
X106648190Y-80627200D01*
X106648190Y-80627200D02*
X106791047Y-80674819D01*
X106791047Y-80674819D02*
X106886285Y-80674819D01*
X105552952Y-79674819D02*
X106029142Y-79674819D01*
X106029142Y-79674819D02*
X106076761Y-80151009D01*
X106076761Y-80151009D02*
X106029142Y-80103390D01*
X106029142Y-80103390D02*
X105933904Y-80055771D01*
X105933904Y-80055771D02*
X105695809Y-80055771D01*
X105695809Y-80055771D02*
X105600571Y-80103390D01*
X105600571Y-80103390D02*
X105552952Y-80151009D01*
X105552952Y-80151009D02*
X105505333Y-80246247D01*
X105505333Y-80246247D02*
X105505333Y-80484342D01*
X105505333Y-80484342D02*
X105552952Y-80579580D01*
X105552952Y-80579580D02*
X105600571Y-80627200D01*
X105600571Y-80627200D02*
X105695809Y-80674819D01*
X105695809Y-80674819D02*
X105933904Y-80674819D01*
X105933904Y-80674819D02*
X106029142Y-80627200D01*
X106029142Y-80627200D02*
X106076761Y-80579580D01*
X150502857Y-139010819D02*
X150836190Y-138534628D01*
X151074285Y-139010819D02*
X151074285Y-138010819D01*
X151074285Y-138010819D02*
X150693333Y-138010819D01*
X150693333Y-138010819D02*
X150598095Y-138058438D01*
X150598095Y-138058438D02*
X150550476Y-138106057D01*
X150550476Y-138106057D02*
X150502857Y-138201295D01*
X150502857Y-138201295D02*
X150502857Y-138344152D01*
X150502857Y-138344152D02*
X150550476Y-138439390D01*
X150550476Y-138439390D02*
X150598095Y-138487009D01*
X150598095Y-138487009D02*
X150693333Y-138534628D01*
X150693333Y-138534628D02*
X151074285Y-138534628D01*
X150169523Y-138010819D02*
X149502857Y-138010819D01*
X149502857Y-138010819D02*
X149931428Y-139010819D01*
X149217142Y-138010819D02*
X148598095Y-138010819D01*
X148598095Y-138010819D02*
X148931428Y-138391771D01*
X148931428Y-138391771D02*
X148788571Y-138391771D01*
X148788571Y-138391771D02*
X148693333Y-138439390D01*
X148693333Y-138439390D02*
X148645714Y-138487009D01*
X148645714Y-138487009D02*
X148598095Y-138582247D01*
X148598095Y-138582247D02*
X148598095Y-138820342D01*
X148598095Y-138820342D02*
X148645714Y-138915580D01*
X148645714Y-138915580D02*
X148693333Y-138963200D01*
X148693333Y-138963200D02*
X148788571Y-139010819D01*
X148788571Y-139010819D02*
X149074285Y-139010819D01*
X149074285Y-139010819D02*
X149169523Y-138963200D01*
X149169523Y-138963200D02*
X149217142Y-138915580D01*
X157868857Y-87068819D02*
X158202190Y-86592628D01*
X158440285Y-87068819D02*
X158440285Y-86068819D01*
X158440285Y-86068819D02*
X158059333Y-86068819D01*
X158059333Y-86068819D02*
X157964095Y-86116438D01*
X157964095Y-86116438D02*
X157916476Y-86164057D01*
X157916476Y-86164057D02*
X157868857Y-86259295D01*
X157868857Y-86259295D02*
X157868857Y-86402152D01*
X157868857Y-86402152D02*
X157916476Y-86497390D01*
X157916476Y-86497390D02*
X157964095Y-86545009D01*
X157964095Y-86545009D02*
X158059333Y-86592628D01*
X158059333Y-86592628D02*
X158440285Y-86592628D01*
X156964095Y-86068819D02*
X157440285Y-86068819D01*
X157440285Y-86068819D02*
X157487904Y-86545009D01*
X157487904Y-86545009D02*
X157440285Y-86497390D01*
X157440285Y-86497390D02*
X157345047Y-86449771D01*
X157345047Y-86449771D02*
X157106952Y-86449771D01*
X157106952Y-86449771D02*
X157011714Y-86497390D01*
X157011714Y-86497390D02*
X156964095Y-86545009D01*
X156964095Y-86545009D02*
X156916476Y-86640247D01*
X156916476Y-86640247D02*
X156916476Y-86878342D01*
X156916476Y-86878342D02*
X156964095Y-86973580D01*
X156964095Y-86973580D02*
X157011714Y-87021200D01*
X157011714Y-87021200D02*
X157106952Y-87068819D01*
X157106952Y-87068819D02*
X157345047Y-87068819D01*
X157345047Y-87068819D02*
X157440285Y-87021200D01*
X157440285Y-87021200D02*
X157487904Y-86973580D01*
X155964095Y-87068819D02*
X156535523Y-87068819D01*
X156249809Y-87068819D02*
X156249809Y-86068819D01*
X156249809Y-86068819D02*
X156345047Y-86211676D01*
X156345047Y-86211676D02*
X156440285Y-86306914D01*
X156440285Y-86306914D02*
X156535523Y-86354533D01*
X152534857Y-111611580D02*
X152582476Y-111659200D01*
X152582476Y-111659200D02*
X152725333Y-111706819D01*
X152725333Y-111706819D02*
X152820571Y-111706819D01*
X152820571Y-111706819D02*
X152963428Y-111659200D01*
X152963428Y-111659200D02*
X153058666Y-111563961D01*
X153058666Y-111563961D02*
X153106285Y-111468723D01*
X153106285Y-111468723D02*
X153153904Y-111278247D01*
X153153904Y-111278247D02*
X153153904Y-111135390D01*
X153153904Y-111135390D02*
X153106285Y-110944914D01*
X153106285Y-110944914D02*
X153058666Y-110849676D01*
X153058666Y-110849676D02*
X152963428Y-110754438D01*
X152963428Y-110754438D02*
X152820571Y-110706819D01*
X152820571Y-110706819D02*
X152725333Y-110706819D01*
X152725333Y-110706819D02*
X152582476Y-110754438D01*
X152582476Y-110754438D02*
X152534857Y-110802057D01*
X152153904Y-110802057D02*
X152106285Y-110754438D01*
X152106285Y-110754438D02*
X152011047Y-110706819D01*
X152011047Y-110706819D02*
X151772952Y-110706819D01*
X151772952Y-110706819D02*
X151677714Y-110754438D01*
X151677714Y-110754438D02*
X151630095Y-110802057D01*
X151630095Y-110802057D02*
X151582476Y-110897295D01*
X151582476Y-110897295D02*
X151582476Y-110992533D01*
X151582476Y-110992533D02*
X151630095Y-111135390D01*
X151630095Y-111135390D02*
X152201523Y-111706819D01*
X152201523Y-111706819D02*
X151582476Y-111706819D01*
X150630095Y-111706819D02*
X151201523Y-111706819D01*
X150915809Y-111706819D02*
X150915809Y-110706819D01*
X150915809Y-110706819D02*
X151011047Y-110849676D01*
X151011047Y-110849676D02*
X151106285Y-110944914D01*
X151106285Y-110944914D02*
X151201523Y-110992533D01*
X161678857Y-94688819D02*
X162012190Y-94212628D01*
X162250285Y-94688819D02*
X162250285Y-93688819D01*
X162250285Y-93688819D02*
X161869333Y-93688819D01*
X161869333Y-93688819D02*
X161774095Y-93736438D01*
X161774095Y-93736438D02*
X161726476Y-93784057D01*
X161726476Y-93784057D02*
X161678857Y-93879295D01*
X161678857Y-93879295D02*
X161678857Y-94022152D01*
X161678857Y-94022152D02*
X161726476Y-94117390D01*
X161726476Y-94117390D02*
X161774095Y-94165009D01*
X161774095Y-94165009D02*
X161869333Y-94212628D01*
X161869333Y-94212628D02*
X162250285Y-94212628D01*
X160821714Y-93688819D02*
X161012190Y-93688819D01*
X161012190Y-93688819D02*
X161107428Y-93736438D01*
X161107428Y-93736438D02*
X161155047Y-93784057D01*
X161155047Y-93784057D02*
X161250285Y-93926914D01*
X161250285Y-93926914D02*
X161297904Y-94117390D01*
X161297904Y-94117390D02*
X161297904Y-94498342D01*
X161297904Y-94498342D02*
X161250285Y-94593580D01*
X161250285Y-94593580D02*
X161202666Y-94641200D01*
X161202666Y-94641200D02*
X161107428Y-94688819D01*
X161107428Y-94688819D02*
X160916952Y-94688819D01*
X160916952Y-94688819D02*
X160821714Y-94641200D01*
X160821714Y-94641200D02*
X160774095Y-94593580D01*
X160774095Y-94593580D02*
X160726476Y-94498342D01*
X160726476Y-94498342D02*
X160726476Y-94260247D01*
X160726476Y-94260247D02*
X160774095Y-94165009D01*
X160774095Y-94165009D02*
X160821714Y-94117390D01*
X160821714Y-94117390D02*
X160916952Y-94069771D01*
X160916952Y-94069771D02*
X161107428Y-94069771D01*
X161107428Y-94069771D02*
X161202666Y-94117390D01*
X161202666Y-94117390D02*
X161250285Y-94165009D01*
X161250285Y-94165009D02*
X161297904Y-94260247D01*
X160107428Y-93688819D02*
X160012190Y-93688819D01*
X160012190Y-93688819D02*
X159916952Y-93736438D01*
X159916952Y-93736438D02*
X159869333Y-93784057D01*
X159869333Y-93784057D02*
X159821714Y-93879295D01*
X159821714Y-93879295D02*
X159774095Y-94069771D01*
X159774095Y-94069771D02*
X159774095Y-94307866D01*
X159774095Y-94307866D02*
X159821714Y-94498342D01*
X159821714Y-94498342D02*
X159869333Y-94593580D01*
X159869333Y-94593580D02*
X159916952Y-94641200D01*
X159916952Y-94641200D02*
X160012190Y-94688819D01*
X160012190Y-94688819D02*
X160107428Y-94688819D01*
X160107428Y-94688819D02*
X160202666Y-94641200D01*
X160202666Y-94641200D02*
X160250285Y-94593580D01*
X160250285Y-94593580D02*
X160297904Y-94498342D01*
X160297904Y-94498342D02*
X160345523Y-94307866D01*
X160345523Y-94307866D02*
X160345523Y-94069771D01*
X160345523Y-94069771D02*
X160297904Y-93879295D01*
X160297904Y-93879295D02*
X160250285Y-93784057D01*
X160250285Y-93784057D02*
X160202666Y-93736438D01*
X160202666Y-93736438D02*
X160107428Y-93688819D01*
X150502857Y-131136819D02*
X150836190Y-130660628D01*
X151074285Y-131136819D02*
X151074285Y-130136819D01*
X151074285Y-130136819D02*
X150693333Y-130136819D01*
X150693333Y-130136819D02*
X150598095Y-130184438D01*
X150598095Y-130184438D02*
X150550476Y-130232057D01*
X150550476Y-130232057D02*
X150502857Y-130327295D01*
X150502857Y-130327295D02*
X150502857Y-130470152D01*
X150502857Y-130470152D02*
X150550476Y-130565390D01*
X150550476Y-130565390D02*
X150598095Y-130613009D01*
X150598095Y-130613009D02*
X150693333Y-130660628D01*
X150693333Y-130660628D02*
X151074285Y-130660628D01*
X150169523Y-130136819D02*
X149502857Y-130136819D01*
X149502857Y-130136819D02*
X149931428Y-131136819D01*
X149169523Y-130232057D02*
X149121904Y-130184438D01*
X149121904Y-130184438D02*
X149026666Y-130136819D01*
X149026666Y-130136819D02*
X148788571Y-130136819D01*
X148788571Y-130136819D02*
X148693333Y-130184438D01*
X148693333Y-130184438D02*
X148645714Y-130232057D01*
X148645714Y-130232057D02*
X148598095Y-130327295D01*
X148598095Y-130327295D02*
X148598095Y-130422533D01*
X148598095Y-130422533D02*
X148645714Y-130565390D01*
X148645714Y-130565390D02*
X149217142Y-131136819D01*
X149217142Y-131136819D02*
X148598095Y-131136819D01*
X152534857Y-119231580D02*
X152582476Y-119279200D01*
X152582476Y-119279200D02*
X152725333Y-119326819D01*
X152725333Y-119326819D02*
X152820571Y-119326819D01*
X152820571Y-119326819D02*
X152963428Y-119279200D01*
X152963428Y-119279200D02*
X153058666Y-119183961D01*
X153058666Y-119183961D02*
X153106285Y-119088723D01*
X153106285Y-119088723D02*
X153153904Y-118898247D01*
X153153904Y-118898247D02*
X153153904Y-118755390D01*
X153153904Y-118755390D02*
X153106285Y-118564914D01*
X153106285Y-118564914D02*
X153058666Y-118469676D01*
X153058666Y-118469676D02*
X152963428Y-118374438D01*
X152963428Y-118374438D02*
X152820571Y-118326819D01*
X152820571Y-118326819D02*
X152725333Y-118326819D01*
X152725333Y-118326819D02*
X152582476Y-118374438D01*
X152582476Y-118374438D02*
X152534857Y-118422057D01*
X152153904Y-118422057D02*
X152106285Y-118374438D01*
X152106285Y-118374438D02*
X152011047Y-118326819D01*
X152011047Y-118326819D02*
X151772952Y-118326819D01*
X151772952Y-118326819D02*
X151677714Y-118374438D01*
X151677714Y-118374438D02*
X151630095Y-118422057D01*
X151630095Y-118422057D02*
X151582476Y-118517295D01*
X151582476Y-118517295D02*
X151582476Y-118612533D01*
X151582476Y-118612533D02*
X151630095Y-118755390D01*
X151630095Y-118755390D02*
X152201523Y-119326819D01*
X152201523Y-119326819D02*
X151582476Y-119326819D01*
X151201523Y-118422057D02*
X151153904Y-118374438D01*
X151153904Y-118374438D02*
X151058666Y-118326819D01*
X151058666Y-118326819D02*
X150820571Y-118326819D01*
X150820571Y-118326819D02*
X150725333Y-118374438D01*
X150725333Y-118374438D02*
X150677714Y-118422057D01*
X150677714Y-118422057D02*
X150630095Y-118517295D01*
X150630095Y-118517295D02*
X150630095Y-118612533D01*
X150630095Y-118612533D02*
X150677714Y-118755390D01*
X150677714Y-118755390D02*
X151249142Y-119326819D01*
X151249142Y-119326819D02*
X150630095Y-119326819D01*
X161297857Y-79194819D02*
X161631190Y-78718628D01*
X161869285Y-79194819D02*
X161869285Y-78194819D01*
X161869285Y-78194819D02*
X161488333Y-78194819D01*
X161488333Y-78194819D02*
X161393095Y-78242438D01*
X161393095Y-78242438D02*
X161345476Y-78290057D01*
X161345476Y-78290057D02*
X161297857Y-78385295D01*
X161297857Y-78385295D02*
X161297857Y-78528152D01*
X161297857Y-78528152D02*
X161345476Y-78623390D01*
X161345476Y-78623390D02*
X161393095Y-78671009D01*
X161393095Y-78671009D02*
X161488333Y-78718628D01*
X161488333Y-78718628D02*
X161869285Y-78718628D01*
X160393095Y-78194819D02*
X160869285Y-78194819D01*
X160869285Y-78194819D02*
X160916904Y-78671009D01*
X160916904Y-78671009D02*
X160869285Y-78623390D01*
X160869285Y-78623390D02*
X160774047Y-78575771D01*
X160774047Y-78575771D02*
X160535952Y-78575771D01*
X160535952Y-78575771D02*
X160440714Y-78623390D01*
X160440714Y-78623390D02*
X160393095Y-78671009D01*
X160393095Y-78671009D02*
X160345476Y-78766247D01*
X160345476Y-78766247D02*
X160345476Y-79004342D01*
X160345476Y-79004342D02*
X160393095Y-79099580D01*
X160393095Y-79099580D02*
X160440714Y-79147200D01*
X160440714Y-79147200D02*
X160535952Y-79194819D01*
X160535952Y-79194819D02*
X160774047Y-79194819D01*
X160774047Y-79194819D02*
X160869285Y-79147200D01*
X160869285Y-79147200D02*
X160916904Y-79099580D01*
X159726428Y-78194819D02*
X159631190Y-78194819D01*
X159631190Y-78194819D02*
X159535952Y-78242438D01*
X159535952Y-78242438D02*
X159488333Y-78290057D01*
X159488333Y-78290057D02*
X159440714Y-78385295D01*
X159440714Y-78385295D02*
X159393095Y-78575771D01*
X159393095Y-78575771D02*
X159393095Y-78813866D01*
X159393095Y-78813866D02*
X159440714Y-79004342D01*
X159440714Y-79004342D02*
X159488333Y-79099580D01*
X159488333Y-79099580D02*
X159535952Y-79147200D01*
X159535952Y-79147200D02*
X159631190Y-79194819D01*
X159631190Y-79194819D02*
X159726428Y-79194819D01*
X159726428Y-79194819D02*
X159821666Y-79147200D01*
X159821666Y-79147200D02*
X159869285Y-79099580D01*
X159869285Y-79099580D02*
X159916904Y-79004342D01*
X159916904Y-79004342D02*
X159964523Y-78813866D01*
X159964523Y-78813866D02*
X159964523Y-78575771D01*
X159964523Y-78575771D02*
X159916904Y-78385295D01*
X159916904Y-78385295D02*
X159869285Y-78290057D01*
X159869285Y-78290057D02*
X159821666Y-78242438D01*
X159821666Y-78242438D02*
X159726428Y-78194819D01*
X157868857Y-94688819D02*
X158202190Y-94212628D01*
X158440285Y-94688819D02*
X158440285Y-93688819D01*
X158440285Y-93688819D02*
X158059333Y-93688819D01*
X158059333Y-93688819D02*
X157964095Y-93736438D01*
X157964095Y-93736438D02*
X157916476Y-93784057D01*
X157916476Y-93784057D02*
X157868857Y-93879295D01*
X157868857Y-93879295D02*
X157868857Y-94022152D01*
X157868857Y-94022152D02*
X157916476Y-94117390D01*
X157916476Y-94117390D02*
X157964095Y-94165009D01*
X157964095Y-94165009D02*
X158059333Y-94212628D01*
X158059333Y-94212628D02*
X158440285Y-94212628D01*
X156964095Y-93688819D02*
X157440285Y-93688819D01*
X157440285Y-93688819D02*
X157487904Y-94165009D01*
X157487904Y-94165009D02*
X157440285Y-94117390D01*
X157440285Y-94117390D02*
X157345047Y-94069771D01*
X157345047Y-94069771D02*
X157106952Y-94069771D01*
X157106952Y-94069771D02*
X157011714Y-94117390D01*
X157011714Y-94117390D02*
X156964095Y-94165009D01*
X156964095Y-94165009D02*
X156916476Y-94260247D01*
X156916476Y-94260247D02*
X156916476Y-94498342D01*
X156916476Y-94498342D02*
X156964095Y-94593580D01*
X156964095Y-94593580D02*
X157011714Y-94641200D01*
X157011714Y-94641200D02*
X157106952Y-94688819D01*
X157106952Y-94688819D02*
X157345047Y-94688819D01*
X157345047Y-94688819D02*
X157440285Y-94641200D01*
X157440285Y-94641200D02*
X157487904Y-94593580D01*
X156535523Y-93784057D02*
X156487904Y-93736438D01*
X156487904Y-93736438D02*
X156392666Y-93688819D01*
X156392666Y-93688819D02*
X156154571Y-93688819D01*
X156154571Y-93688819D02*
X156059333Y-93736438D01*
X156059333Y-93736438D02*
X156011714Y-93784057D01*
X156011714Y-93784057D02*
X155964095Y-93879295D01*
X155964095Y-93879295D02*
X155964095Y-93974533D01*
X155964095Y-93974533D02*
X156011714Y-94117390D01*
X156011714Y-94117390D02*
X156583142Y-94688819D01*
X156583142Y-94688819D02*
X155964095Y-94688819D01*
X157868857Y-109928819D02*
X158202190Y-109452628D01*
X158440285Y-109928819D02*
X158440285Y-108928819D01*
X158440285Y-108928819D02*
X158059333Y-108928819D01*
X158059333Y-108928819D02*
X157964095Y-108976438D01*
X157964095Y-108976438D02*
X157916476Y-109024057D01*
X157916476Y-109024057D02*
X157868857Y-109119295D01*
X157868857Y-109119295D02*
X157868857Y-109262152D01*
X157868857Y-109262152D02*
X157916476Y-109357390D01*
X157916476Y-109357390D02*
X157964095Y-109405009D01*
X157964095Y-109405009D02*
X158059333Y-109452628D01*
X158059333Y-109452628D02*
X158440285Y-109452628D01*
X156964095Y-108928819D02*
X157440285Y-108928819D01*
X157440285Y-108928819D02*
X157487904Y-109405009D01*
X157487904Y-109405009D02*
X157440285Y-109357390D01*
X157440285Y-109357390D02*
X157345047Y-109309771D01*
X157345047Y-109309771D02*
X157106952Y-109309771D01*
X157106952Y-109309771D02*
X157011714Y-109357390D01*
X157011714Y-109357390D02*
X156964095Y-109405009D01*
X156964095Y-109405009D02*
X156916476Y-109500247D01*
X156916476Y-109500247D02*
X156916476Y-109738342D01*
X156916476Y-109738342D02*
X156964095Y-109833580D01*
X156964095Y-109833580D02*
X157011714Y-109881200D01*
X157011714Y-109881200D02*
X157106952Y-109928819D01*
X157106952Y-109928819D02*
X157345047Y-109928819D01*
X157345047Y-109928819D02*
X157440285Y-109881200D01*
X157440285Y-109881200D02*
X157487904Y-109833580D01*
X156059333Y-109262152D02*
X156059333Y-109928819D01*
X156297428Y-108881200D02*
X156535523Y-109595485D01*
X156535523Y-109595485D02*
X155916476Y-109595485D01*
X157868857Y-117548819D02*
X158202190Y-117072628D01*
X158440285Y-117548819D02*
X158440285Y-116548819D01*
X158440285Y-116548819D02*
X158059333Y-116548819D01*
X158059333Y-116548819D02*
X157964095Y-116596438D01*
X157964095Y-116596438D02*
X157916476Y-116644057D01*
X157916476Y-116644057D02*
X157868857Y-116739295D01*
X157868857Y-116739295D02*
X157868857Y-116882152D01*
X157868857Y-116882152D02*
X157916476Y-116977390D01*
X157916476Y-116977390D02*
X157964095Y-117025009D01*
X157964095Y-117025009D02*
X158059333Y-117072628D01*
X158059333Y-117072628D02*
X158440285Y-117072628D01*
X156964095Y-116548819D02*
X157440285Y-116548819D01*
X157440285Y-116548819D02*
X157487904Y-117025009D01*
X157487904Y-117025009D02*
X157440285Y-116977390D01*
X157440285Y-116977390D02*
X157345047Y-116929771D01*
X157345047Y-116929771D02*
X157106952Y-116929771D01*
X157106952Y-116929771D02*
X157011714Y-116977390D01*
X157011714Y-116977390D02*
X156964095Y-117025009D01*
X156964095Y-117025009D02*
X156916476Y-117120247D01*
X156916476Y-117120247D02*
X156916476Y-117358342D01*
X156916476Y-117358342D02*
X156964095Y-117453580D01*
X156964095Y-117453580D02*
X157011714Y-117501200D01*
X157011714Y-117501200D02*
X157106952Y-117548819D01*
X157106952Y-117548819D02*
X157345047Y-117548819D01*
X157345047Y-117548819D02*
X157440285Y-117501200D01*
X157440285Y-117501200D02*
X157487904Y-117453580D01*
X156011714Y-116548819D02*
X156487904Y-116548819D01*
X156487904Y-116548819D02*
X156535523Y-117025009D01*
X156535523Y-117025009D02*
X156487904Y-116977390D01*
X156487904Y-116977390D02*
X156392666Y-116929771D01*
X156392666Y-116929771D02*
X156154571Y-116929771D01*
X156154571Y-116929771D02*
X156059333Y-116977390D01*
X156059333Y-116977390D02*
X156011714Y-117025009D01*
X156011714Y-117025009D02*
X155964095Y-117120247D01*
X155964095Y-117120247D02*
X155964095Y-117358342D01*
X155964095Y-117358342D02*
X156011714Y-117453580D01*
X156011714Y-117453580D02*
X156059333Y-117501200D01*
X156059333Y-117501200D02*
X156154571Y-117548819D01*
X156154571Y-117548819D02*
X156392666Y-117548819D01*
X156392666Y-117548819D02*
X156487904Y-117501200D01*
X156487904Y-117501200D02*
X156535523Y-117453580D01*
X150502857Y-100656819D02*
X150836190Y-100180628D01*
X151074285Y-100656819D02*
X151074285Y-99656819D01*
X151074285Y-99656819D02*
X150693333Y-99656819D01*
X150693333Y-99656819D02*
X150598095Y-99704438D01*
X150598095Y-99704438D02*
X150550476Y-99752057D01*
X150550476Y-99752057D02*
X150502857Y-99847295D01*
X150502857Y-99847295D02*
X150502857Y-99990152D01*
X150502857Y-99990152D02*
X150550476Y-100085390D01*
X150550476Y-100085390D02*
X150598095Y-100133009D01*
X150598095Y-100133009D02*
X150693333Y-100180628D01*
X150693333Y-100180628D02*
X151074285Y-100180628D01*
X149645714Y-99656819D02*
X149836190Y-99656819D01*
X149836190Y-99656819D02*
X149931428Y-99704438D01*
X149931428Y-99704438D02*
X149979047Y-99752057D01*
X149979047Y-99752057D02*
X150074285Y-99894914D01*
X150074285Y-99894914D02*
X150121904Y-100085390D01*
X150121904Y-100085390D02*
X150121904Y-100466342D01*
X150121904Y-100466342D02*
X150074285Y-100561580D01*
X150074285Y-100561580D02*
X150026666Y-100609200D01*
X150026666Y-100609200D02*
X149931428Y-100656819D01*
X149931428Y-100656819D02*
X149740952Y-100656819D01*
X149740952Y-100656819D02*
X149645714Y-100609200D01*
X149645714Y-100609200D02*
X149598095Y-100561580D01*
X149598095Y-100561580D02*
X149550476Y-100466342D01*
X149550476Y-100466342D02*
X149550476Y-100228247D01*
X149550476Y-100228247D02*
X149598095Y-100133009D01*
X149598095Y-100133009D02*
X149645714Y-100085390D01*
X149645714Y-100085390D02*
X149740952Y-100037771D01*
X149740952Y-100037771D02*
X149931428Y-100037771D01*
X149931428Y-100037771D02*
X150026666Y-100085390D01*
X150026666Y-100085390D02*
X150074285Y-100133009D01*
X150074285Y-100133009D02*
X150121904Y-100228247D01*
X148979047Y-100085390D02*
X149074285Y-100037771D01*
X149074285Y-100037771D02*
X149121904Y-99990152D01*
X149121904Y-99990152D02*
X149169523Y-99894914D01*
X149169523Y-99894914D02*
X149169523Y-99847295D01*
X149169523Y-99847295D02*
X149121904Y-99752057D01*
X149121904Y-99752057D02*
X149074285Y-99704438D01*
X149074285Y-99704438D02*
X148979047Y-99656819D01*
X148979047Y-99656819D02*
X148788571Y-99656819D01*
X148788571Y-99656819D02*
X148693333Y-99704438D01*
X148693333Y-99704438D02*
X148645714Y-99752057D01*
X148645714Y-99752057D02*
X148598095Y-99847295D01*
X148598095Y-99847295D02*
X148598095Y-99894914D01*
X148598095Y-99894914D02*
X148645714Y-99990152D01*
X148645714Y-99990152D02*
X148693333Y-100037771D01*
X148693333Y-100037771D02*
X148788571Y-100085390D01*
X148788571Y-100085390D02*
X148979047Y-100085390D01*
X148979047Y-100085390D02*
X149074285Y-100133009D01*
X149074285Y-100133009D02*
X149121904Y-100180628D01*
X149121904Y-100180628D02*
X149169523Y-100275866D01*
X149169523Y-100275866D02*
X149169523Y-100466342D01*
X149169523Y-100466342D02*
X149121904Y-100561580D01*
X149121904Y-100561580D02*
X149074285Y-100609200D01*
X149074285Y-100609200D02*
X148979047Y-100656819D01*
X148979047Y-100656819D02*
X148788571Y-100656819D01*
X148788571Y-100656819D02*
X148693333Y-100609200D01*
X148693333Y-100609200D02*
X148645714Y-100561580D01*
X148645714Y-100561580D02*
X148598095Y-100466342D01*
X148598095Y-100466342D02*
X148598095Y-100275866D01*
X148598095Y-100275866D02*
X148645714Y-100180628D01*
X148645714Y-100180628D02*
X148693333Y-100133009D01*
X148693333Y-100133009D02*
X148788571Y-100085390D01*
X161678857Y-117548819D02*
X162012190Y-117072628D01*
X162250285Y-117548819D02*
X162250285Y-116548819D01*
X162250285Y-116548819D02*
X161869333Y-116548819D01*
X161869333Y-116548819D02*
X161774095Y-116596438D01*
X161774095Y-116596438D02*
X161726476Y-116644057D01*
X161726476Y-116644057D02*
X161678857Y-116739295D01*
X161678857Y-116739295D02*
X161678857Y-116882152D01*
X161678857Y-116882152D02*
X161726476Y-116977390D01*
X161726476Y-116977390D02*
X161774095Y-117025009D01*
X161774095Y-117025009D02*
X161869333Y-117072628D01*
X161869333Y-117072628D02*
X162250285Y-117072628D01*
X160821714Y-116548819D02*
X161012190Y-116548819D01*
X161012190Y-116548819D02*
X161107428Y-116596438D01*
X161107428Y-116596438D02*
X161155047Y-116644057D01*
X161155047Y-116644057D02*
X161250285Y-116786914D01*
X161250285Y-116786914D02*
X161297904Y-116977390D01*
X161297904Y-116977390D02*
X161297904Y-117358342D01*
X161297904Y-117358342D02*
X161250285Y-117453580D01*
X161250285Y-117453580D02*
X161202666Y-117501200D01*
X161202666Y-117501200D02*
X161107428Y-117548819D01*
X161107428Y-117548819D02*
X160916952Y-117548819D01*
X160916952Y-117548819D02*
X160821714Y-117501200D01*
X160821714Y-117501200D02*
X160774095Y-117453580D01*
X160774095Y-117453580D02*
X160726476Y-117358342D01*
X160726476Y-117358342D02*
X160726476Y-117120247D01*
X160726476Y-117120247D02*
X160774095Y-117025009D01*
X160774095Y-117025009D02*
X160821714Y-116977390D01*
X160821714Y-116977390D02*
X160916952Y-116929771D01*
X160916952Y-116929771D02*
X161107428Y-116929771D01*
X161107428Y-116929771D02*
X161202666Y-116977390D01*
X161202666Y-116977390D02*
X161250285Y-117025009D01*
X161250285Y-117025009D02*
X161297904Y-117120247D01*
X160393142Y-116548819D02*
X159774095Y-116548819D01*
X159774095Y-116548819D02*
X160107428Y-116929771D01*
X160107428Y-116929771D02*
X159964571Y-116929771D01*
X159964571Y-116929771D02*
X159869333Y-116977390D01*
X159869333Y-116977390D02*
X159821714Y-117025009D01*
X159821714Y-117025009D02*
X159774095Y-117120247D01*
X159774095Y-117120247D02*
X159774095Y-117358342D01*
X159774095Y-117358342D02*
X159821714Y-117453580D01*
X159821714Y-117453580D02*
X159869333Y-117501200D01*
X159869333Y-117501200D02*
X159964571Y-117548819D01*
X159964571Y-117548819D02*
X160250285Y-117548819D01*
X160250285Y-117548819D02*
X160345523Y-117501200D01*
X160345523Y-117501200D02*
X160393142Y-117453580D01*
X152534857Y-126851580D02*
X152582476Y-126899200D01*
X152582476Y-126899200D02*
X152725333Y-126946819D01*
X152725333Y-126946819D02*
X152820571Y-126946819D01*
X152820571Y-126946819D02*
X152963428Y-126899200D01*
X152963428Y-126899200D02*
X153058666Y-126803961D01*
X153058666Y-126803961D02*
X153106285Y-126708723D01*
X153106285Y-126708723D02*
X153153904Y-126518247D01*
X153153904Y-126518247D02*
X153153904Y-126375390D01*
X153153904Y-126375390D02*
X153106285Y-126184914D01*
X153106285Y-126184914D02*
X153058666Y-126089676D01*
X153058666Y-126089676D02*
X152963428Y-125994438D01*
X152963428Y-125994438D02*
X152820571Y-125946819D01*
X152820571Y-125946819D02*
X152725333Y-125946819D01*
X152725333Y-125946819D02*
X152582476Y-125994438D01*
X152582476Y-125994438D02*
X152534857Y-126042057D01*
X152153904Y-126042057D02*
X152106285Y-125994438D01*
X152106285Y-125994438D02*
X152011047Y-125946819D01*
X152011047Y-125946819D02*
X151772952Y-125946819D01*
X151772952Y-125946819D02*
X151677714Y-125994438D01*
X151677714Y-125994438D02*
X151630095Y-126042057D01*
X151630095Y-126042057D02*
X151582476Y-126137295D01*
X151582476Y-126137295D02*
X151582476Y-126232533D01*
X151582476Y-126232533D02*
X151630095Y-126375390D01*
X151630095Y-126375390D02*
X152201523Y-126946819D01*
X152201523Y-126946819D02*
X151582476Y-126946819D01*
X151249142Y-125946819D02*
X150630095Y-125946819D01*
X150630095Y-125946819D02*
X150963428Y-126327771D01*
X150963428Y-126327771D02*
X150820571Y-126327771D01*
X150820571Y-126327771D02*
X150725333Y-126375390D01*
X150725333Y-126375390D02*
X150677714Y-126423009D01*
X150677714Y-126423009D02*
X150630095Y-126518247D01*
X150630095Y-126518247D02*
X150630095Y-126756342D01*
X150630095Y-126756342D02*
X150677714Y-126851580D01*
X150677714Y-126851580D02*
X150725333Y-126899200D01*
X150725333Y-126899200D02*
X150820571Y-126946819D01*
X150820571Y-126946819D02*
X151106285Y-126946819D01*
X151106285Y-126946819D02*
X151201523Y-126899200D01*
X151201523Y-126899200D02*
X151249142Y-126851580D01*
X161678857Y-125168819D02*
X162012190Y-124692628D01*
X162250285Y-125168819D02*
X162250285Y-124168819D01*
X162250285Y-124168819D02*
X161869333Y-124168819D01*
X161869333Y-124168819D02*
X161774095Y-124216438D01*
X161774095Y-124216438D02*
X161726476Y-124264057D01*
X161726476Y-124264057D02*
X161678857Y-124359295D01*
X161678857Y-124359295D02*
X161678857Y-124502152D01*
X161678857Y-124502152D02*
X161726476Y-124597390D01*
X161726476Y-124597390D02*
X161774095Y-124645009D01*
X161774095Y-124645009D02*
X161869333Y-124692628D01*
X161869333Y-124692628D02*
X162250285Y-124692628D01*
X160821714Y-124168819D02*
X161012190Y-124168819D01*
X161012190Y-124168819D02*
X161107428Y-124216438D01*
X161107428Y-124216438D02*
X161155047Y-124264057D01*
X161155047Y-124264057D02*
X161250285Y-124406914D01*
X161250285Y-124406914D02*
X161297904Y-124597390D01*
X161297904Y-124597390D02*
X161297904Y-124978342D01*
X161297904Y-124978342D02*
X161250285Y-125073580D01*
X161250285Y-125073580D02*
X161202666Y-125121200D01*
X161202666Y-125121200D02*
X161107428Y-125168819D01*
X161107428Y-125168819D02*
X160916952Y-125168819D01*
X160916952Y-125168819D02*
X160821714Y-125121200D01*
X160821714Y-125121200D02*
X160774095Y-125073580D01*
X160774095Y-125073580D02*
X160726476Y-124978342D01*
X160726476Y-124978342D02*
X160726476Y-124740247D01*
X160726476Y-124740247D02*
X160774095Y-124645009D01*
X160774095Y-124645009D02*
X160821714Y-124597390D01*
X160821714Y-124597390D02*
X160916952Y-124549771D01*
X160916952Y-124549771D02*
X161107428Y-124549771D01*
X161107428Y-124549771D02*
X161202666Y-124597390D01*
X161202666Y-124597390D02*
X161250285Y-124645009D01*
X161250285Y-124645009D02*
X161297904Y-124740247D01*
X159869333Y-124502152D02*
X159869333Y-125168819D01*
X160107428Y-124121200D02*
X160345523Y-124835485D01*
X160345523Y-124835485D02*
X159726476Y-124835485D01*
X150502857Y-115896819D02*
X150836190Y-115420628D01*
X151074285Y-115896819D02*
X151074285Y-114896819D01*
X151074285Y-114896819D02*
X150693333Y-114896819D01*
X150693333Y-114896819D02*
X150598095Y-114944438D01*
X150598095Y-114944438D02*
X150550476Y-114992057D01*
X150550476Y-114992057D02*
X150502857Y-115087295D01*
X150502857Y-115087295D02*
X150502857Y-115230152D01*
X150502857Y-115230152D02*
X150550476Y-115325390D01*
X150550476Y-115325390D02*
X150598095Y-115373009D01*
X150598095Y-115373009D02*
X150693333Y-115420628D01*
X150693333Y-115420628D02*
X151074285Y-115420628D01*
X150169523Y-114896819D02*
X149502857Y-114896819D01*
X149502857Y-114896819D02*
X149931428Y-115896819D01*
X148931428Y-114896819D02*
X148836190Y-114896819D01*
X148836190Y-114896819D02*
X148740952Y-114944438D01*
X148740952Y-114944438D02*
X148693333Y-114992057D01*
X148693333Y-114992057D02*
X148645714Y-115087295D01*
X148645714Y-115087295D02*
X148598095Y-115277771D01*
X148598095Y-115277771D02*
X148598095Y-115515866D01*
X148598095Y-115515866D02*
X148645714Y-115706342D01*
X148645714Y-115706342D02*
X148693333Y-115801580D01*
X148693333Y-115801580D02*
X148740952Y-115849200D01*
X148740952Y-115849200D02*
X148836190Y-115896819D01*
X148836190Y-115896819D02*
X148931428Y-115896819D01*
X148931428Y-115896819D02*
X149026666Y-115849200D01*
X149026666Y-115849200D02*
X149074285Y-115801580D01*
X149074285Y-115801580D02*
X149121904Y-115706342D01*
X149121904Y-115706342D02*
X149169523Y-115515866D01*
X149169523Y-115515866D02*
X149169523Y-115277771D01*
X149169523Y-115277771D02*
X149121904Y-115087295D01*
X149121904Y-115087295D02*
X149074285Y-114992057D01*
X149074285Y-114992057D02*
X149026666Y-114944438D01*
X149026666Y-114944438D02*
X148931428Y-114896819D01*
X157868857Y-132788819D02*
X158202190Y-132312628D01*
X158440285Y-132788819D02*
X158440285Y-131788819D01*
X158440285Y-131788819D02*
X158059333Y-131788819D01*
X158059333Y-131788819D02*
X157964095Y-131836438D01*
X157964095Y-131836438D02*
X157916476Y-131884057D01*
X157916476Y-131884057D02*
X157868857Y-131979295D01*
X157868857Y-131979295D02*
X157868857Y-132122152D01*
X157868857Y-132122152D02*
X157916476Y-132217390D01*
X157916476Y-132217390D02*
X157964095Y-132265009D01*
X157964095Y-132265009D02*
X158059333Y-132312628D01*
X158059333Y-132312628D02*
X158440285Y-132312628D01*
X156964095Y-131788819D02*
X157440285Y-131788819D01*
X157440285Y-131788819D02*
X157487904Y-132265009D01*
X157487904Y-132265009D02*
X157440285Y-132217390D01*
X157440285Y-132217390D02*
X157345047Y-132169771D01*
X157345047Y-132169771D02*
X157106952Y-132169771D01*
X157106952Y-132169771D02*
X157011714Y-132217390D01*
X157011714Y-132217390D02*
X156964095Y-132265009D01*
X156964095Y-132265009D02*
X156916476Y-132360247D01*
X156916476Y-132360247D02*
X156916476Y-132598342D01*
X156916476Y-132598342D02*
X156964095Y-132693580D01*
X156964095Y-132693580D02*
X157011714Y-132741200D01*
X157011714Y-132741200D02*
X157106952Y-132788819D01*
X157106952Y-132788819D02*
X157345047Y-132788819D01*
X157345047Y-132788819D02*
X157440285Y-132741200D01*
X157440285Y-132741200D02*
X157487904Y-132693580D01*
X156583142Y-131788819D02*
X155916476Y-131788819D01*
X155916476Y-131788819D02*
X156345047Y-132788819D01*
X150502857Y-108276819D02*
X150836190Y-107800628D01*
X151074285Y-108276819D02*
X151074285Y-107276819D01*
X151074285Y-107276819D02*
X150693333Y-107276819D01*
X150693333Y-107276819D02*
X150598095Y-107324438D01*
X150598095Y-107324438D02*
X150550476Y-107372057D01*
X150550476Y-107372057D02*
X150502857Y-107467295D01*
X150502857Y-107467295D02*
X150502857Y-107610152D01*
X150502857Y-107610152D02*
X150550476Y-107705390D01*
X150550476Y-107705390D02*
X150598095Y-107753009D01*
X150598095Y-107753009D02*
X150693333Y-107800628D01*
X150693333Y-107800628D02*
X151074285Y-107800628D01*
X149645714Y-107276819D02*
X149836190Y-107276819D01*
X149836190Y-107276819D02*
X149931428Y-107324438D01*
X149931428Y-107324438D02*
X149979047Y-107372057D01*
X149979047Y-107372057D02*
X150074285Y-107514914D01*
X150074285Y-107514914D02*
X150121904Y-107705390D01*
X150121904Y-107705390D02*
X150121904Y-108086342D01*
X150121904Y-108086342D02*
X150074285Y-108181580D01*
X150074285Y-108181580D02*
X150026666Y-108229200D01*
X150026666Y-108229200D02*
X149931428Y-108276819D01*
X149931428Y-108276819D02*
X149740952Y-108276819D01*
X149740952Y-108276819D02*
X149645714Y-108229200D01*
X149645714Y-108229200D02*
X149598095Y-108181580D01*
X149598095Y-108181580D02*
X149550476Y-108086342D01*
X149550476Y-108086342D02*
X149550476Y-107848247D01*
X149550476Y-107848247D02*
X149598095Y-107753009D01*
X149598095Y-107753009D02*
X149645714Y-107705390D01*
X149645714Y-107705390D02*
X149740952Y-107657771D01*
X149740952Y-107657771D02*
X149931428Y-107657771D01*
X149931428Y-107657771D02*
X150026666Y-107705390D01*
X150026666Y-107705390D02*
X150074285Y-107753009D01*
X150074285Y-107753009D02*
X150121904Y-107848247D01*
X149074285Y-108276819D02*
X148883809Y-108276819D01*
X148883809Y-108276819D02*
X148788571Y-108229200D01*
X148788571Y-108229200D02*
X148740952Y-108181580D01*
X148740952Y-108181580D02*
X148645714Y-108038723D01*
X148645714Y-108038723D02*
X148598095Y-107848247D01*
X148598095Y-107848247D02*
X148598095Y-107467295D01*
X148598095Y-107467295D02*
X148645714Y-107372057D01*
X148645714Y-107372057D02*
X148693333Y-107324438D01*
X148693333Y-107324438D02*
X148788571Y-107276819D01*
X148788571Y-107276819D02*
X148979047Y-107276819D01*
X148979047Y-107276819D02*
X149074285Y-107324438D01*
X149074285Y-107324438D02*
X149121904Y-107372057D01*
X149121904Y-107372057D02*
X149169523Y-107467295D01*
X149169523Y-107467295D02*
X149169523Y-107705390D01*
X149169523Y-107705390D02*
X149121904Y-107800628D01*
X149121904Y-107800628D02*
X149074285Y-107848247D01*
X149074285Y-107848247D02*
X148979047Y-107895866D01*
X148979047Y-107895866D02*
X148788571Y-107895866D01*
X148788571Y-107895866D02*
X148693333Y-107848247D01*
X148693333Y-107848247D02*
X148645714Y-107800628D01*
X148645714Y-107800628D02*
X148598095Y-107705390D01*
X157868857Y-79194819D02*
X158202190Y-78718628D01*
X158440285Y-79194819D02*
X158440285Y-78194819D01*
X158440285Y-78194819D02*
X158059333Y-78194819D01*
X158059333Y-78194819D02*
X157964095Y-78242438D01*
X157964095Y-78242438D02*
X157916476Y-78290057D01*
X157916476Y-78290057D02*
X157868857Y-78385295D01*
X157868857Y-78385295D02*
X157868857Y-78528152D01*
X157868857Y-78528152D02*
X157916476Y-78623390D01*
X157916476Y-78623390D02*
X157964095Y-78671009D01*
X157964095Y-78671009D02*
X158059333Y-78718628D01*
X158059333Y-78718628D02*
X158440285Y-78718628D01*
X156964095Y-78194819D02*
X157440285Y-78194819D01*
X157440285Y-78194819D02*
X157487904Y-78671009D01*
X157487904Y-78671009D02*
X157440285Y-78623390D01*
X157440285Y-78623390D02*
X157345047Y-78575771D01*
X157345047Y-78575771D02*
X157106952Y-78575771D01*
X157106952Y-78575771D02*
X157011714Y-78623390D01*
X157011714Y-78623390D02*
X156964095Y-78671009D01*
X156964095Y-78671009D02*
X156916476Y-78766247D01*
X156916476Y-78766247D02*
X156916476Y-79004342D01*
X156916476Y-79004342D02*
X156964095Y-79099580D01*
X156964095Y-79099580D02*
X157011714Y-79147200D01*
X157011714Y-79147200D02*
X157106952Y-79194819D01*
X157106952Y-79194819D02*
X157345047Y-79194819D01*
X157345047Y-79194819D02*
X157440285Y-79147200D01*
X157440285Y-79147200D02*
X157487904Y-79099580D01*
X156345047Y-78623390D02*
X156440285Y-78575771D01*
X156440285Y-78575771D02*
X156487904Y-78528152D01*
X156487904Y-78528152D02*
X156535523Y-78432914D01*
X156535523Y-78432914D02*
X156535523Y-78385295D01*
X156535523Y-78385295D02*
X156487904Y-78290057D01*
X156487904Y-78290057D02*
X156440285Y-78242438D01*
X156440285Y-78242438D02*
X156345047Y-78194819D01*
X156345047Y-78194819D02*
X156154571Y-78194819D01*
X156154571Y-78194819D02*
X156059333Y-78242438D01*
X156059333Y-78242438D02*
X156011714Y-78290057D01*
X156011714Y-78290057D02*
X155964095Y-78385295D01*
X155964095Y-78385295D02*
X155964095Y-78432914D01*
X155964095Y-78432914D02*
X156011714Y-78528152D01*
X156011714Y-78528152D02*
X156059333Y-78575771D01*
X156059333Y-78575771D02*
X156154571Y-78623390D01*
X156154571Y-78623390D02*
X156345047Y-78623390D01*
X156345047Y-78623390D02*
X156440285Y-78671009D01*
X156440285Y-78671009D02*
X156487904Y-78718628D01*
X156487904Y-78718628D02*
X156535523Y-78813866D01*
X156535523Y-78813866D02*
X156535523Y-79004342D01*
X156535523Y-79004342D02*
X156487904Y-79099580D01*
X156487904Y-79099580D02*
X156440285Y-79147200D01*
X156440285Y-79147200D02*
X156345047Y-79194819D01*
X156345047Y-79194819D02*
X156154571Y-79194819D01*
X156154571Y-79194819D02*
X156059333Y-79147200D01*
X156059333Y-79147200D02*
X156011714Y-79099580D01*
X156011714Y-79099580D02*
X155964095Y-79004342D01*
X155964095Y-79004342D02*
X155964095Y-78813866D01*
X155964095Y-78813866D02*
X156011714Y-78718628D01*
X156011714Y-78718628D02*
X156059333Y-78671009D01*
X156059333Y-78671009D02*
X156154571Y-78623390D01*
X161678857Y-132788819D02*
X162012190Y-132312628D01*
X162250285Y-132788819D02*
X162250285Y-131788819D01*
X162250285Y-131788819D02*
X161869333Y-131788819D01*
X161869333Y-131788819D02*
X161774095Y-131836438D01*
X161774095Y-131836438D02*
X161726476Y-131884057D01*
X161726476Y-131884057D02*
X161678857Y-131979295D01*
X161678857Y-131979295D02*
X161678857Y-132122152D01*
X161678857Y-132122152D02*
X161726476Y-132217390D01*
X161726476Y-132217390D02*
X161774095Y-132265009D01*
X161774095Y-132265009D02*
X161869333Y-132312628D01*
X161869333Y-132312628D02*
X162250285Y-132312628D01*
X160821714Y-131788819D02*
X161012190Y-131788819D01*
X161012190Y-131788819D02*
X161107428Y-131836438D01*
X161107428Y-131836438D02*
X161155047Y-131884057D01*
X161155047Y-131884057D02*
X161250285Y-132026914D01*
X161250285Y-132026914D02*
X161297904Y-132217390D01*
X161297904Y-132217390D02*
X161297904Y-132598342D01*
X161297904Y-132598342D02*
X161250285Y-132693580D01*
X161250285Y-132693580D02*
X161202666Y-132741200D01*
X161202666Y-132741200D02*
X161107428Y-132788819D01*
X161107428Y-132788819D02*
X160916952Y-132788819D01*
X160916952Y-132788819D02*
X160821714Y-132741200D01*
X160821714Y-132741200D02*
X160774095Y-132693580D01*
X160774095Y-132693580D02*
X160726476Y-132598342D01*
X160726476Y-132598342D02*
X160726476Y-132360247D01*
X160726476Y-132360247D02*
X160774095Y-132265009D01*
X160774095Y-132265009D02*
X160821714Y-132217390D01*
X160821714Y-132217390D02*
X160916952Y-132169771D01*
X160916952Y-132169771D02*
X161107428Y-132169771D01*
X161107428Y-132169771D02*
X161202666Y-132217390D01*
X161202666Y-132217390D02*
X161250285Y-132265009D01*
X161250285Y-132265009D02*
X161297904Y-132360247D01*
X159821714Y-131788819D02*
X160297904Y-131788819D01*
X160297904Y-131788819D02*
X160345523Y-132265009D01*
X160345523Y-132265009D02*
X160297904Y-132217390D01*
X160297904Y-132217390D02*
X160202666Y-132169771D01*
X160202666Y-132169771D02*
X159964571Y-132169771D01*
X159964571Y-132169771D02*
X159869333Y-132217390D01*
X159869333Y-132217390D02*
X159821714Y-132265009D01*
X159821714Y-132265009D02*
X159774095Y-132360247D01*
X159774095Y-132360247D02*
X159774095Y-132598342D01*
X159774095Y-132598342D02*
X159821714Y-132693580D01*
X159821714Y-132693580D02*
X159869333Y-132741200D01*
X159869333Y-132741200D02*
X159964571Y-132788819D01*
X159964571Y-132788819D02*
X160202666Y-132788819D01*
X160202666Y-132788819D02*
X160297904Y-132741200D01*
X160297904Y-132741200D02*
X160345523Y-132693580D01*
X161678857Y-87068819D02*
X162012190Y-86592628D01*
X162250285Y-87068819D02*
X162250285Y-86068819D01*
X162250285Y-86068819D02*
X161869333Y-86068819D01*
X161869333Y-86068819D02*
X161774095Y-86116438D01*
X161774095Y-86116438D02*
X161726476Y-86164057D01*
X161726476Y-86164057D02*
X161678857Y-86259295D01*
X161678857Y-86259295D02*
X161678857Y-86402152D01*
X161678857Y-86402152D02*
X161726476Y-86497390D01*
X161726476Y-86497390D02*
X161774095Y-86545009D01*
X161774095Y-86545009D02*
X161869333Y-86592628D01*
X161869333Y-86592628D02*
X162250285Y-86592628D01*
X160774095Y-86068819D02*
X161250285Y-86068819D01*
X161250285Y-86068819D02*
X161297904Y-86545009D01*
X161297904Y-86545009D02*
X161250285Y-86497390D01*
X161250285Y-86497390D02*
X161155047Y-86449771D01*
X161155047Y-86449771D02*
X160916952Y-86449771D01*
X160916952Y-86449771D02*
X160821714Y-86497390D01*
X160821714Y-86497390D02*
X160774095Y-86545009D01*
X160774095Y-86545009D02*
X160726476Y-86640247D01*
X160726476Y-86640247D02*
X160726476Y-86878342D01*
X160726476Y-86878342D02*
X160774095Y-86973580D01*
X160774095Y-86973580D02*
X160821714Y-87021200D01*
X160821714Y-87021200D02*
X160916952Y-87068819D01*
X160916952Y-87068819D02*
X161155047Y-87068819D01*
X161155047Y-87068819D02*
X161250285Y-87021200D01*
X161250285Y-87021200D02*
X161297904Y-86973580D01*
X160250285Y-87068819D02*
X160059809Y-87068819D01*
X160059809Y-87068819D02*
X159964571Y-87021200D01*
X159964571Y-87021200D02*
X159916952Y-86973580D01*
X159916952Y-86973580D02*
X159821714Y-86830723D01*
X159821714Y-86830723D02*
X159774095Y-86640247D01*
X159774095Y-86640247D02*
X159774095Y-86259295D01*
X159774095Y-86259295D02*
X159821714Y-86164057D01*
X159821714Y-86164057D02*
X159869333Y-86116438D01*
X159869333Y-86116438D02*
X159964571Y-86068819D01*
X159964571Y-86068819D02*
X160155047Y-86068819D01*
X160155047Y-86068819D02*
X160250285Y-86116438D01*
X160250285Y-86116438D02*
X160297904Y-86164057D01*
X160297904Y-86164057D02*
X160345523Y-86259295D01*
X160345523Y-86259295D02*
X160345523Y-86497390D01*
X160345523Y-86497390D02*
X160297904Y-86592628D01*
X160297904Y-86592628D02*
X160250285Y-86640247D01*
X160250285Y-86640247D02*
X160155047Y-86687866D01*
X160155047Y-86687866D02*
X159964571Y-86687866D01*
X159964571Y-86687866D02*
X159869333Y-86640247D01*
X159869333Y-86640247D02*
X159821714Y-86592628D01*
X159821714Y-86592628D02*
X159774095Y-86497390D01*
X157868857Y-125168819D02*
X158202190Y-124692628D01*
X158440285Y-125168819D02*
X158440285Y-124168819D01*
X158440285Y-124168819D02*
X158059333Y-124168819D01*
X158059333Y-124168819D02*
X157964095Y-124216438D01*
X157964095Y-124216438D02*
X157916476Y-124264057D01*
X157916476Y-124264057D02*
X157868857Y-124359295D01*
X157868857Y-124359295D02*
X157868857Y-124502152D01*
X157868857Y-124502152D02*
X157916476Y-124597390D01*
X157916476Y-124597390D02*
X157964095Y-124645009D01*
X157964095Y-124645009D02*
X158059333Y-124692628D01*
X158059333Y-124692628D02*
X158440285Y-124692628D01*
X156964095Y-124168819D02*
X157440285Y-124168819D01*
X157440285Y-124168819D02*
X157487904Y-124645009D01*
X157487904Y-124645009D02*
X157440285Y-124597390D01*
X157440285Y-124597390D02*
X157345047Y-124549771D01*
X157345047Y-124549771D02*
X157106952Y-124549771D01*
X157106952Y-124549771D02*
X157011714Y-124597390D01*
X157011714Y-124597390D02*
X156964095Y-124645009D01*
X156964095Y-124645009D02*
X156916476Y-124740247D01*
X156916476Y-124740247D02*
X156916476Y-124978342D01*
X156916476Y-124978342D02*
X156964095Y-125073580D01*
X156964095Y-125073580D02*
X157011714Y-125121200D01*
X157011714Y-125121200D02*
X157106952Y-125168819D01*
X157106952Y-125168819D02*
X157345047Y-125168819D01*
X157345047Y-125168819D02*
X157440285Y-125121200D01*
X157440285Y-125121200D02*
X157487904Y-125073580D01*
X156059333Y-124168819D02*
X156249809Y-124168819D01*
X156249809Y-124168819D02*
X156345047Y-124216438D01*
X156345047Y-124216438D02*
X156392666Y-124264057D01*
X156392666Y-124264057D02*
X156487904Y-124406914D01*
X156487904Y-124406914D02*
X156535523Y-124597390D01*
X156535523Y-124597390D02*
X156535523Y-124978342D01*
X156535523Y-124978342D02*
X156487904Y-125073580D01*
X156487904Y-125073580D02*
X156440285Y-125121200D01*
X156440285Y-125121200D02*
X156345047Y-125168819D01*
X156345047Y-125168819D02*
X156154571Y-125168819D01*
X156154571Y-125168819D02*
X156059333Y-125121200D01*
X156059333Y-125121200D02*
X156011714Y-125073580D01*
X156011714Y-125073580D02*
X155964095Y-124978342D01*
X155964095Y-124978342D02*
X155964095Y-124740247D01*
X155964095Y-124740247D02*
X156011714Y-124645009D01*
X156011714Y-124645009D02*
X156059333Y-124597390D01*
X156059333Y-124597390D02*
X156154571Y-124549771D01*
X156154571Y-124549771D02*
X156345047Y-124549771D01*
X156345047Y-124549771D02*
X156440285Y-124597390D01*
X156440285Y-124597390D02*
X156487904Y-124645009D01*
X156487904Y-124645009D02*
X156535523Y-124740247D01*
X161678857Y-102308819D02*
X162012190Y-101832628D01*
X162250285Y-102308819D02*
X162250285Y-101308819D01*
X162250285Y-101308819D02*
X161869333Y-101308819D01*
X161869333Y-101308819D02*
X161774095Y-101356438D01*
X161774095Y-101356438D02*
X161726476Y-101404057D01*
X161726476Y-101404057D02*
X161678857Y-101499295D01*
X161678857Y-101499295D02*
X161678857Y-101642152D01*
X161678857Y-101642152D02*
X161726476Y-101737390D01*
X161726476Y-101737390D02*
X161774095Y-101785009D01*
X161774095Y-101785009D02*
X161869333Y-101832628D01*
X161869333Y-101832628D02*
X162250285Y-101832628D01*
X160821714Y-101308819D02*
X161012190Y-101308819D01*
X161012190Y-101308819D02*
X161107428Y-101356438D01*
X161107428Y-101356438D02*
X161155047Y-101404057D01*
X161155047Y-101404057D02*
X161250285Y-101546914D01*
X161250285Y-101546914D02*
X161297904Y-101737390D01*
X161297904Y-101737390D02*
X161297904Y-102118342D01*
X161297904Y-102118342D02*
X161250285Y-102213580D01*
X161250285Y-102213580D02*
X161202666Y-102261200D01*
X161202666Y-102261200D02*
X161107428Y-102308819D01*
X161107428Y-102308819D02*
X160916952Y-102308819D01*
X160916952Y-102308819D02*
X160821714Y-102261200D01*
X160821714Y-102261200D02*
X160774095Y-102213580D01*
X160774095Y-102213580D02*
X160726476Y-102118342D01*
X160726476Y-102118342D02*
X160726476Y-101880247D01*
X160726476Y-101880247D02*
X160774095Y-101785009D01*
X160774095Y-101785009D02*
X160821714Y-101737390D01*
X160821714Y-101737390D02*
X160916952Y-101689771D01*
X160916952Y-101689771D02*
X161107428Y-101689771D01*
X161107428Y-101689771D02*
X161202666Y-101737390D01*
X161202666Y-101737390D02*
X161250285Y-101785009D01*
X161250285Y-101785009D02*
X161297904Y-101880247D01*
X159774095Y-102308819D02*
X160345523Y-102308819D01*
X160059809Y-102308819D02*
X160059809Y-101308819D01*
X160059809Y-101308819D02*
X160155047Y-101451676D01*
X160155047Y-101451676D02*
X160250285Y-101546914D01*
X160250285Y-101546914D02*
X160345523Y-101594533D01*
X150502857Y-123516819D02*
X150836190Y-123040628D01*
X151074285Y-123516819D02*
X151074285Y-122516819D01*
X151074285Y-122516819D02*
X150693333Y-122516819D01*
X150693333Y-122516819D02*
X150598095Y-122564438D01*
X150598095Y-122564438D02*
X150550476Y-122612057D01*
X150550476Y-122612057D02*
X150502857Y-122707295D01*
X150502857Y-122707295D02*
X150502857Y-122850152D01*
X150502857Y-122850152D02*
X150550476Y-122945390D01*
X150550476Y-122945390D02*
X150598095Y-122993009D01*
X150598095Y-122993009D02*
X150693333Y-123040628D01*
X150693333Y-123040628D02*
X151074285Y-123040628D01*
X150169523Y-122516819D02*
X149502857Y-122516819D01*
X149502857Y-122516819D02*
X149931428Y-123516819D01*
X148598095Y-123516819D02*
X149169523Y-123516819D01*
X148883809Y-123516819D02*
X148883809Y-122516819D01*
X148883809Y-122516819D02*
X148979047Y-122659676D01*
X148979047Y-122659676D02*
X149074285Y-122754914D01*
X149074285Y-122754914D02*
X149169523Y-122802533D01*
X152534857Y-80877580D02*
X152582476Y-80925200D01*
X152582476Y-80925200D02*
X152725333Y-80972819D01*
X152725333Y-80972819D02*
X152820571Y-80972819D01*
X152820571Y-80972819D02*
X152963428Y-80925200D01*
X152963428Y-80925200D02*
X153058666Y-80829961D01*
X153058666Y-80829961D02*
X153106285Y-80734723D01*
X153106285Y-80734723D02*
X153153904Y-80544247D01*
X153153904Y-80544247D02*
X153153904Y-80401390D01*
X153153904Y-80401390D02*
X153106285Y-80210914D01*
X153106285Y-80210914D02*
X153058666Y-80115676D01*
X153058666Y-80115676D02*
X152963428Y-80020438D01*
X152963428Y-80020438D02*
X152820571Y-79972819D01*
X152820571Y-79972819D02*
X152725333Y-79972819D01*
X152725333Y-79972819D02*
X152582476Y-80020438D01*
X152582476Y-80020438D02*
X152534857Y-80068057D01*
X151582476Y-80972819D02*
X152153904Y-80972819D01*
X151868190Y-80972819D02*
X151868190Y-79972819D01*
X151868190Y-79972819D02*
X151963428Y-80115676D01*
X151963428Y-80115676D02*
X152058666Y-80210914D01*
X152058666Y-80210914D02*
X152153904Y-80258533D01*
X151249142Y-79972819D02*
X150582476Y-79972819D01*
X150582476Y-79972819D02*
X151011047Y-80972819D01*
X152534857Y-103991580D02*
X152582476Y-104039200D01*
X152582476Y-104039200D02*
X152725333Y-104086819D01*
X152725333Y-104086819D02*
X152820571Y-104086819D01*
X152820571Y-104086819D02*
X152963428Y-104039200D01*
X152963428Y-104039200D02*
X153058666Y-103943961D01*
X153058666Y-103943961D02*
X153106285Y-103848723D01*
X153106285Y-103848723D02*
X153153904Y-103658247D01*
X153153904Y-103658247D02*
X153153904Y-103515390D01*
X153153904Y-103515390D02*
X153106285Y-103324914D01*
X153106285Y-103324914D02*
X153058666Y-103229676D01*
X153058666Y-103229676D02*
X152963428Y-103134438D01*
X152963428Y-103134438D02*
X152820571Y-103086819D01*
X152820571Y-103086819D02*
X152725333Y-103086819D01*
X152725333Y-103086819D02*
X152582476Y-103134438D01*
X152582476Y-103134438D02*
X152534857Y-103182057D01*
X152153904Y-103182057D02*
X152106285Y-103134438D01*
X152106285Y-103134438D02*
X152011047Y-103086819D01*
X152011047Y-103086819D02*
X151772952Y-103086819D01*
X151772952Y-103086819D02*
X151677714Y-103134438D01*
X151677714Y-103134438D02*
X151630095Y-103182057D01*
X151630095Y-103182057D02*
X151582476Y-103277295D01*
X151582476Y-103277295D02*
X151582476Y-103372533D01*
X151582476Y-103372533D02*
X151630095Y-103515390D01*
X151630095Y-103515390D02*
X152201523Y-104086819D01*
X152201523Y-104086819D02*
X151582476Y-104086819D01*
X150963428Y-103086819D02*
X150868190Y-103086819D01*
X150868190Y-103086819D02*
X150772952Y-103134438D01*
X150772952Y-103134438D02*
X150725333Y-103182057D01*
X150725333Y-103182057D02*
X150677714Y-103277295D01*
X150677714Y-103277295D02*
X150630095Y-103467771D01*
X150630095Y-103467771D02*
X150630095Y-103705866D01*
X150630095Y-103705866D02*
X150677714Y-103896342D01*
X150677714Y-103896342D02*
X150725333Y-103991580D01*
X150725333Y-103991580D02*
X150772952Y-104039200D01*
X150772952Y-104039200D02*
X150868190Y-104086819D01*
X150868190Y-104086819D02*
X150963428Y-104086819D01*
X150963428Y-104086819D02*
X151058666Y-104039200D01*
X151058666Y-104039200D02*
X151106285Y-103991580D01*
X151106285Y-103991580D02*
X151153904Y-103896342D01*
X151153904Y-103896342D02*
X151201523Y-103705866D01*
X151201523Y-103705866D02*
X151201523Y-103467771D01*
X151201523Y-103467771D02*
X151153904Y-103277295D01*
X151153904Y-103277295D02*
X151106285Y-103182057D01*
X151106285Y-103182057D02*
X151058666Y-103134438D01*
X151058666Y-103134438D02*
X150963428Y-103086819D01*
D12*
%TO.C,C19*%
X153776000Y-96316748D02*
X153776000Y-97739252D01*
X155596000Y-96316748D02*
X155596000Y-97739252D01*
%TO.C,R53*%
X159031000Y-104913564D02*
X159031000Y-104459436D01*
X160501000Y-104913564D02*
X160501000Y-104459436D01*
%TO.C,C18*%
X153776000Y-88696748D02*
X153776000Y-90119252D01*
X155596000Y-88696748D02*
X155596000Y-90119252D01*
%TO.C,C24*%
X153776000Y-134416748D02*
X153776000Y-135839252D01*
X155596000Y-134416748D02*
X155596000Y-135839252D01*
%TO.C,R66*%
X150087064Y-82577000D02*
X149632936Y-82577000D01*
X150087064Y-84047000D02*
X149632936Y-84047000D01*
%TO.C,R67*%
X150087064Y-90197000D02*
X149632936Y-90197000D01*
X150087064Y-91667000D02*
X149632936Y-91667000D01*
%TO.C,R62*%
X156491000Y-112079436D02*
X156491000Y-112533564D01*
X157961000Y-112079436D02*
X157961000Y-112533564D01*
%TO.C,J5*%
X103572000Y-81220000D02*
X108772000Y-81220000D01*
X103572000Y-81790000D02*
X103572000Y-81220000D01*
X103572000Y-84330000D02*
X103572000Y-83310000D01*
X103572000Y-86870000D02*
X103572000Y-85850000D01*
X103572000Y-89410000D02*
X103572000Y-88390000D01*
X103572000Y-91950000D02*
X103572000Y-90930000D01*
X103572000Y-94490000D02*
X103572000Y-93470000D01*
X103572000Y-97030000D02*
X103572000Y-96010000D01*
X103572000Y-99570000D02*
X103572000Y-98550000D01*
X103572000Y-102110000D02*
X103572000Y-101090000D01*
X103572000Y-104650000D02*
X103572000Y-103630000D01*
X103572000Y-107190000D02*
X103572000Y-106170000D01*
X103572000Y-109730000D02*
X103572000Y-108710000D01*
X103572000Y-112270000D02*
X103572000Y-111250000D01*
X103572000Y-114810000D02*
X103572000Y-113790000D01*
X103572000Y-116900000D02*
X103572000Y-116330000D01*
X103572000Y-116900000D02*
X108772000Y-116900000D01*
X108772000Y-81790000D02*
X108772000Y-81220000D01*
X108772000Y-81790000D02*
X110212000Y-81790000D01*
X108772000Y-84330000D02*
X108772000Y-83310000D01*
X108772000Y-86870000D02*
X108772000Y-85850000D01*
X108772000Y-89410000D02*
X108772000Y-88390000D01*
X108772000Y-91950000D02*
X108772000Y-90930000D01*
X108772000Y-94490000D02*
X108772000Y-93470000D01*
X108772000Y-97030000D02*
X108772000Y-96010000D01*
X108772000Y-99570000D02*
X108772000Y-98550000D01*
X108772000Y-102110000D02*
X108772000Y-101090000D01*
X108772000Y-104650000D02*
X108772000Y-103630000D01*
X108772000Y-107190000D02*
X108772000Y-106170000D01*
X108772000Y-109730000D02*
X108772000Y-108710000D01*
X108772000Y-112270000D02*
X108772000Y-111250000D01*
X108772000Y-114810000D02*
X108772000Y-113790000D01*
X108772000Y-116900000D02*
X108772000Y-116330000D01*
%TO.C,R73*%
X150087064Y-136171000D02*
X149632936Y-136171000D01*
X150087064Y-137641000D02*
X149632936Y-137641000D01*
%TO.C,R51*%
X159031000Y-89673564D02*
X159031000Y-89219436D01*
X160501000Y-89673564D02*
X160501000Y-89219436D01*
%TO.C,C21*%
X153776000Y-111556748D02*
X153776000Y-112979252D01*
X155596000Y-111556748D02*
X155596000Y-112979252D01*
%TO.C,R60*%
X156491000Y-96839436D02*
X156491000Y-97293564D01*
X157961000Y-96839436D02*
X157961000Y-97293564D01*
%TO.C,R72*%
X150087064Y-128297000D02*
X149632936Y-128297000D01*
X150087064Y-129767000D02*
X149632936Y-129767000D01*
%TO.C,C22*%
X153776000Y-119176748D02*
X153776000Y-120599252D01*
X155596000Y-119176748D02*
X155596000Y-120599252D01*
%TO.C,R50*%
X158777000Y-82015064D02*
X158777000Y-81560936D01*
X160247000Y-82015064D02*
X160247000Y-81560936D01*
%TO.C,R52*%
X159031000Y-97293564D02*
X159031000Y-96839436D01*
X160501000Y-97293564D02*
X160501000Y-96839436D01*
%TO.C,R54*%
X159031000Y-112533564D02*
X159031000Y-112079436D01*
X160501000Y-112533564D02*
X160501000Y-112079436D01*
%TO.C,R55*%
X159031000Y-120153564D02*
X159031000Y-119699436D01*
X160501000Y-120153564D02*
X160501000Y-119699436D01*
%TO.C,R68*%
X150087064Y-97817000D02*
X149632936Y-97817000D01*
X150087064Y-99287000D02*
X149632936Y-99287000D01*
%TO.C,R63*%
X156491000Y-119699436D02*
X156491000Y-120153564D01*
X157961000Y-119699436D02*
X157961000Y-120153564D01*
%TO.C,C23*%
X153776000Y-126796748D02*
X153776000Y-128219252D01*
X155596000Y-126796748D02*
X155596000Y-128219252D01*
%TO.C,R64*%
X156491000Y-127319436D02*
X156491000Y-127773564D01*
X157961000Y-127319436D02*
X157961000Y-127773564D01*
%TO.C,R70*%
X150087064Y-113057000D02*
X149632936Y-113057000D01*
X150087064Y-114527000D02*
X149632936Y-114527000D01*
%TO.C,R57*%
X159031000Y-135393564D02*
X159031000Y-134939436D01*
X160501000Y-135393564D02*
X160501000Y-134939436D01*
%TO.C,R69*%
X150087064Y-105437000D02*
X149632936Y-105437000D01*
X150087064Y-106907000D02*
X149632936Y-106907000D01*
%TO.C,R58*%
X156491000Y-81560936D02*
X156491000Y-82015064D01*
X157961000Y-81560936D02*
X157961000Y-82015064D01*
%TO.C,R65*%
X156491000Y-134939436D02*
X156491000Y-135393564D01*
X157961000Y-134939436D02*
X157961000Y-135393564D01*
%TO.C,R59*%
X156491000Y-89219436D02*
X156491000Y-89673564D01*
X157961000Y-89219436D02*
X157961000Y-89673564D01*
%TO.C,R56*%
X159031000Y-127773564D02*
X159031000Y-127319436D01*
X160501000Y-127773564D02*
X160501000Y-127319436D01*
%TO.C,R61*%
X156491000Y-104459436D02*
X156491000Y-104913564D01*
X157961000Y-104459436D02*
X157961000Y-104913564D01*
%TO.C,R71*%
X150087064Y-120677000D02*
X149632936Y-120677000D01*
X150087064Y-122147000D02*
X149632936Y-122147000D01*
%TO.C,C17*%
X153776000Y-81076748D02*
X153776000Y-82499252D01*
X155596000Y-81076748D02*
X155596000Y-82499252D01*
%TO.C,C20*%
X153776000Y-103936748D02*
X153776000Y-105359252D01*
X155596000Y-103936748D02*
X155596000Y-105359252D01*
%TD*%
%LPC*%
D13*
%TO.C,H1*%
X106172000Y-62484000D03*
%TD*%
D14*
%TO.C,J2*%
X138938000Y-129794000D03*
D15*
X138938000Y-132334000D03*
X136398000Y-129794000D03*
X136398000Y-132334000D03*
X133858000Y-129794000D03*
X133858000Y-132334000D03*
%TD*%
D13*
%TO.C,H3*%
X184404000Y-62484000D03*
%TD*%
D16*
%TO.C,J3*%
X150871000Y-61976000D03*
D17*
X155951000Y-61976000D03*
%TD*%
D18*
%TO.C,D2*%
X178567000Y-68580000D03*
D19*
X176027000Y-68580000D03*
%TD*%
D18*
%TO.C,D4*%
X178567000Y-74676000D03*
D19*
X176027000Y-74676000D03*
%TD*%
D13*
%TO.C,H4*%
X184404000Y-134620000D03*
%TD*%
%TO.C,H2*%
X106172000Y-134620000D03*
%TD*%
D20*
%TO.C,Y1*%
X123952000Y-124550000D03*
X123952000Y-129450000D03*
%TD*%
D16*
%TO.C,J4*%
X184612000Y-81280000D03*
D17*
X184612000Y-86360000D03*
X184612000Y-91440000D03*
X184612000Y-96520000D03*
X184612000Y-101600000D03*
X184612000Y-106680000D03*
X184612000Y-111760000D03*
X184612000Y-116840000D03*
X184612000Y-121920000D03*
X184612000Y-127000000D03*
%TD*%
D18*
%TO.C,D3*%
X178567000Y-71628000D03*
D19*
X176027000Y-71628000D03*
%TD*%
D21*
%TO.C,C19*%
X154686000Y-98590500D03*
X154686000Y-95465500D03*
%TD*%
D22*
%TO.C,R53*%
X159766000Y-103686500D03*
X159766000Y-105686500D03*
%TD*%
D21*
%TO.C,C18*%
X154686000Y-90970500D03*
X154686000Y-87845500D03*
%TD*%
%TO.C,C24*%
X154686000Y-136690500D03*
X154686000Y-133565500D03*
%TD*%
D23*
%TO.C,R66*%
X148860000Y-83312000D03*
X150860000Y-83312000D03*
%TD*%
%TO.C,R67*%
X148860000Y-90932000D03*
X150860000Y-90932000D03*
%TD*%
D24*
%TO.C,R62*%
X157226000Y-113306500D03*
X157226000Y-111306500D03*
%TD*%
D25*
%TO.C,J5*%
X108697000Y-82550000D03*
X103647000Y-82550000D03*
X108697000Y-85090000D03*
X103647000Y-85090000D03*
X108697000Y-87630000D03*
X103647000Y-87630000D03*
X108697000Y-90170000D03*
X103647000Y-90170000D03*
X108697000Y-92710000D03*
X103647000Y-92710000D03*
X108697000Y-95250000D03*
X103647000Y-95250000D03*
X108697000Y-97790000D03*
X103647000Y-97790000D03*
X108697000Y-100330000D03*
X103647000Y-100330000D03*
X108697000Y-102870000D03*
X103647000Y-102870000D03*
X108697000Y-105410000D03*
X103647000Y-105410000D03*
X108697000Y-107950000D03*
X103647000Y-107950000D03*
X108697000Y-110490000D03*
X103647000Y-110490000D03*
X108697000Y-113030000D03*
X103647000Y-113030000D03*
X108697000Y-115570000D03*
X103647000Y-115570000D03*
%TD*%
D23*
%TO.C,R73*%
X148860000Y-136906000D03*
X150860000Y-136906000D03*
%TD*%
D22*
%TO.C,R51*%
X159766000Y-88446500D03*
X159766000Y-90446500D03*
%TD*%
D21*
%TO.C,C21*%
X154686000Y-113830500D03*
X154686000Y-110705500D03*
%TD*%
D24*
%TO.C,R60*%
X157226000Y-98066500D03*
X157226000Y-96066500D03*
%TD*%
D23*
%TO.C,R72*%
X148860000Y-129032000D03*
X150860000Y-129032000D03*
%TD*%
D21*
%TO.C,C22*%
X154686000Y-121450500D03*
X154686000Y-118325500D03*
%TD*%
D22*
%TO.C,R50*%
X159512000Y-80788000D03*
X159512000Y-82788000D03*
%TD*%
%TO.C,R52*%
X159766000Y-96066500D03*
X159766000Y-98066500D03*
%TD*%
%TO.C,R54*%
X159766000Y-111306500D03*
X159766000Y-113306500D03*
%TD*%
%TO.C,R55*%
X159766000Y-118926500D03*
X159766000Y-120926500D03*
%TD*%
D23*
%TO.C,R68*%
X148860000Y-98552000D03*
X150860000Y-98552000D03*
%TD*%
D24*
%TO.C,R63*%
X157226000Y-120926500D03*
X157226000Y-118926500D03*
%TD*%
D21*
%TO.C,C23*%
X154686000Y-129070500D03*
X154686000Y-125945500D03*
%TD*%
D24*
%TO.C,R64*%
X157226000Y-128546500D03*
X157226000Y-126546500D03*
%TD*%
D23*
%TO.C,R70*%
X148860000Y-113792000D03*
X150860000Y-113792000D03*
%TD*%
D22*
%TO.C,R57*%
X159766000Y-134166500D03*
X159766000Y-136166500D03*
%TD*%
D23*
%TO.C,R69*%
X148860000Y-106172000D03*
X150860000Y-106172000D03*
%TD*%
D24*
%TO.C,R58*%
X157226000Y-82788000D03*
X157226000Y-80788000D03*
%TD*%
%TO.C,R65*%
X157226000Y-136166500D03*
X157226000Y-134166500D03*
%TD*%
%TO.C,R59*%
X157226000Y-90446500D03*
X157226000Y-88446500D03*
%TD*%
D22*
%TO.C,R56*%
X159766000Y-126546500D03*
X159766000Y-128546500D03*
%TD*%
D24*
%TO.C,R61*%
X157226000Y-105686500D03*
X157226000Y-103686500D03*
%TD*%
D23*
%TO.C,R71*%
X148860000Y-121412000D03*
X150860000Y-121412000D03*
%TD*%
D21*
%TO.C,C17*%
X154686000Y-83350500D03*
X154686000Y-80225500D03*
%TD*%
%TO.C,C20*%
X154686000Y-106210500D03*
X154686000Y-103085500D03*
%TD*%
%LPD*%
M02*
