M48
; DRILL file {KiCad 8.0.0} date 2024-05-10T19:51:28+0200
; FORMAT={-:-/ absolute / metric / decimal}
; #@! TF.CreationDate,2024-05-10T19:51:28+02:00
; #@! TF.GenerationSoftware,Kicad,Pcbnew,8.0.0
; #@! TF.FileFunction,Plated,1,4,PTH
FMAT,2
METRIC
; #@! TA.AperFunction,Plated,PTH,ViaDrill
T1C0.254
; #@! TA.AperFunction,Plated,PTH,ViaDrill
T2C0.508
; #@! TA.AperFunction,Plated,PTH,ComponentDrill
T3C0.800
; #@! TA.AperFunction,Plated,PTH,ComponentDrill
T4C0.900
; #@! TA.AperFunction,Plated,PTH,ComponentDrill
T5C1.000
; #@! TA.AperFunction,Plated,PTH,ComponentDrill
T6C1.300
; #@! TA.AperFunction,Plated,PTH,ComponentDrill
T7C1.400
%
G90
G05
T1
X103.607Y-89.052
X103.632Y-84.023
X103.632Y-91.516
X103.632Y-93.929
X103.632Y-101.6
X103.632Y-104.14
X103.632Y-106.68
X103.632Y-108.966
X103.632Y-111.76
X103.632Y-114.3
X103.657Y-81.483
X103.657Y-86.487
X103.657Y-96.647
X106.172Y-115.57
X108.712Y-81.559
X108.712Y-91.669
X108.712Y-96.52
X108.712Y-99.314
X108.712Y-101.6
X108.712Y-104.14
X108.712Y-106.68
X108.712Y-109.22
X108.712Y-112.014
X108.712Y-114.3
X108.737Y-84.074
X110.668Y-90.17
X110.693Y-87.706
X110.795Y-95.275
X111.618Y-92.624
X112.116Y-93.294
X112.319Y-91.059
X113.462Y-82.652
X113.69Y-88.57
X113.716Y-99.619
X113.716Y-104.673
X118.08Y-111.476
X118.11Y-62.484
X118.11Y-116.078
X118.11Y-120.65
X118.364Y-131.318
X118.618Y-122.936
X119.05Y-61.824
X119.355Y-116.078
X119.38Y-111.455
X120.142Y-62.484
X120.65Y-116.078
X120.65Y-120.65
X120.68Y-111.476
X120.955Y-82.652
X121.336Y-91.059
X122.276Y-88.621
X122.453Y-62.382
X123.038Y-99.517
X123.698Y-64.491
X123.698Y-65.913
X124.663Y-97.638
X126.492Y-114.3
X129.032Y-109.652
X129.032Y-110.49
X129.54Y-122.936
X129.769Y-111.379
X130.556Y-67.31
X130.556Y-68.072
X131.318Y-67.31
X131.318Y-68.072
X131.343Y-112.471
X131.572Y-66.04
X131.659Y-109.403
X131.971Y-105.388
X132.08Y-67.31
X132.08Y-68.072
X132.08Y-108.483
X132.309Y-101.397
X132.643Y-104.887
X132.659Y-113.782
X132.664Y-107.061
X132.69Y-107.874
X133.071Y-101.295
X133.401Y-113.182
X133.858Y-104.699
X133.883Y-101.27
X134.112Y-97.536
X134.112Y-98.298
X134.112Y-99.06
X134.798Y-101.168
X135.289Y-110.23
X135.407Y-97.536
X135.407Y-98.298
X135.407Y-99.06
X135.56Y-101.219
X135.765Y-113.637
X136.394Y-101.136
X136.5Y-112.928
X137.389Y-101.219
X137.414Y-106.426
X137.414Y-118.618
X137.516Y-112.852
X137.922Y-111.658
X138.151Y-101.448
X138.557Y-102.083
X138.818Y-93.352
X138.989Y-110.795
X140.106Y-107.315
X140.121Y-105.031
X140.208Y-74.422
X140.208Y-75.184
X140.208Y-75.946
X140.234Y-104.201
X140.716Y-80.264
X140.716Y-98.044
X140.806Y-108.486
X140.818Y-110.342
X140.818Y-109.347
X140.821Y-107.648
X140.894Y-118.212
X141.249Y-119.278
X141.478Y-80.264
X142.24Y-80.264
X143.764Y-103.886
X144.247Y-96.672
X144.526Y-126.619
X144.577Y-133.553
X144.628Y-97.511
X145.009Y-131.394
X145.237Y-89.713
X145.644Y-123.647
X145.72Y-82.398
X145.796Y-77.724
X145.942Y-86.0
X149.86Y-84.836
X149.86Y-92.456
X149.86Y-100.076
X149.86Y-107.696
X149.86Y-115.316
X149.86Y-122.936
X149.86Y-130.556
X149.86Y-138.176
X150.368Y-69.85
X150.876Y-77.216
X152.908Y-80.264
X152.908Y-87.884
X152.908Y-95.504
X152.908Y-103.124
X152.908Y-110.744
X152.908Y-118.364
X152.908Y-125.984
X152.908Y-133.604
X167.005Y-73.101
X169.393Y-73.787
X169.621Y-74.854
T2
X141.986Y-63.5
X141.986Y-65.024
X141.986Y-66.548
X152.4Y-69.596
X161.544Y-84.328
X161.544Y-91.948
X161.544Y-99.568
X161.544Y-107.188
X161.544Y-114.808
X161.544Y-122.428
X161.544Y-130.048
X161.544Y-137.668
X161.798Y-80.264
X161.798Y-81.788
X161.798Y-87.884
X161.798Y-95.504
X161.798Y-97.028
X161.798Y-103.124
X161.798Y-104.648
X161.798Y-110.744
X161.798Y-112.268
X161.798Y-118.364
X161.798Y-119.888
X161.798Y-125.984
X161.798Y-127.508
X161.798Y-133.604
X161.798Y-135.128
X161.801Y-89.366
X163.068Y-84.328
X163.068Y-91.948
X163.068Y-99.568
X163.068Y-107.188
X163.068Y-114.808
X163.068Y-122.428
X163.068Y-130.048
X163.068Y-137.668
X163.322Y-80.264
X163.322Y-81.788
X163.322Y-87.884
X163.322Y-89.408
X163.322Y-95.504
X163.322Y-97.028
X163.322Y-103.124
X163.322Y-104.648
X163.322Y-110.744
X163.322Y-112.268
X163.322Y-118.364
X163.322Y-119.888
X163.322Y-125.984
X163.322Y-127.508
X163.322Y-133.604
X163.322Y-135.128
X172.466Y-130.048
X172.72Y-84.328
X172.72Y-91.948
X172.72Y-99.568
X172.72Y-107.188
X172.72Y-114.808
X172.72Y-122.428
X172.72Y-137.668
X172.974Y-80.264
X172.974Y-81.788
X172.974Y-87.884
X172.974Y-95.504
X172.974Y-97.028
X172.974Y-103.124
X172.974Y-104.648
X172.974Y-110.744
X172.974Y-112.268
X172.974Y-118.364
X172.974Y-119.888
X172.974Y-125.984
X172.974Y-127.508
X172.974Y-133.604
X172.974Y-135.128
X172.977Y-89.366
X173.99Y-130.048
X174.244Y-84.328
X174.244Y-91.948
X174.244Y-99.568
X174.244Y-107.188
X174.244Y-114.808
X174.244Y-122.428
X174.244Y-137.668
X174.498Y-80.264
X174.498Y-81.788
X174.498Y-87.884
X174.498Y-89.408
X174.498Y-95.504
X174.498Y-97.028
X174.498Y-103.124
X174.498Y-104.648
X174.498Y-110.744
X174.498Y-112.268
X174.498Y-118.364
X174.498Y-119.888
X174.498Y-125.984
X174.498Y-127.508
X174.498Y-133.604
X174.498Y-135.128
T3
X123.952Y-124.55
X123.952Y-129.45
T4
X176.027Y-68.58
X176.027Y-71.628
X176.027Y-74.676
X178.567Y-68.58
X178.567Y-71.628
X178.567Y-74.676
T5
X133.858Y-129.794
X133.858Y-132.334
X136.398Y-129.794
X136.398Y-132.334
X138.938Y-129.794
X138.938Y-132.334
T6
X184.612Y-81.28
X184.612Y-86.36
X184.612Y-91.44
X184.612Y-96.52
X184.612Y-101.6
X184.612Y-106.68
X184.612Y-111.76
X184.612Y-116.84
X184.612Y-121.92
X184.612Y-127.0
T7
X150.871Y-61.976
X155.951Y-61.976
M30
