%TF.GenerationSoftware,KiCad,Pcbnew,8.0.0*%
%TF.CreationDate,2024-05-13T12:24:45+02:00*%
%TF.ProjectId,plc_io_module,706c635f-696f-45f6-9d6f-64756c652e6b,1.0.0*%
%TF.SameCoordinates,Original*%
%TF.FileFunction,Paste,Top*%
%TF.FilePolarity,Positive*%
%FSLAX46Y46*%
G04 Gerber Fmt 4.6, Leading zero omitted, Abs format (unit mm)*
G04 Created by KiCad (PCBNEW 8.0.0) date 2024-05-13 12:24:45*
%MOMM*%
%LPD*%
G01*
G04 APERTURE LIST*
G04 Aperture macros list*
%AMRoundRect*
0 Rectangle with rounded corners*
0 $1 Rounding radius*
0 $2 $3 $4 $5 $6 $7 $8 $9 X,Y pos of 4 corners*
0 Add a 4 corners polygon primitive as box body*
4,1,4,$2,$3,$4,$5,$6,$7,$8,$9,$2,$3,0*
0 Add four circle primitives for the rounded corners*
1,1,$1+$1,$2,$3*
1,1,$1+$1,$4,$5*
1,1,$1+$1,$6,$7*
1,1,$1+$1,$8,$9*
0 Add four rect primitives between the rounded corners*
20,1,$1+$1,$2,$3,$4,$5,0*
20,1,$1+$1,$4,$5,$6,$7,0*
20,1,$1+$1,$6,$7,$8,$9,0*
20,1,$1+$1,$8,$9,$2,$3,0*%
G04 Aperture macros list end*
%ADD10RoundRect,0.250000X-0.650000X0.412500X-0.650000X-0.412500X0.650000X-0.412500X0.650000X0.412500X0*%
%ADD11RoundRect,0.250000X0.412500X0.650000X-0.412500X0.650000X-0.412500X-0.650000X0.412500X-0.650000X0*%
%ADD12RoundRect,0.150000X-0.875000X-0.150000X0.875000X-0.150000X0.875000X0.150000X-0.875000X0.150000X0*%
%ADD13RoundRect,0.375000X-0.625000X-0.375000X0.625000X-0.375000X0.625000X0.375000X-0.625000X0.375000X0*%
%ADD14RoundRect,0.500000X-0.500000X-1.400000X0.500000X-1.400000X0.500000X1.400000X-0.500000X1.400000X0*%
%ADD15RoundRect,0.250000X0.450000X-0.262500X0.450000X0.262500X-0.450000X0.262500X-0.450000X-0.262500X0*%
%ADD16R,3.150000X1.000000*%
%ADD17RoundRect,0.250000X0.650000X-0.412500X0.650000X0.412500X-0.650000X0.412500X-0.650000X-0.412500X0*%
%ADD18RoundRect,0.250000X-0.350000X-0.450000X0.350000X-0.450000X0.350000X0.450000X-0.350000X0.450000X0*%
%ADD19RoundRect,0.250000X0.450000X-0.350000X0.450000X0.350000X-0.450000X0.350000X-0.450000X-0.350000X0*%
%ADD20RoundRect,0.250000X-1.750000X-1.000000X1.750000X-1.000000X1.750000X1.000000X-1.750000X1.000000X0*%
%ADD21RoundRect,0.250000X-0.450000X0.262500X-0.450000X-0.262500X0.450000X-0.262500X0.450000X0.262500X0*%
%ADD22RoundRect,0.250000X0.350000X0.450000X-0.350000X0.450000X-0.350000X-0.450000X0.350000X-0.450000X0*%
%ADD23RoundRect,0.075000X0.075000X-0.662500X0.075000X0.662500X-0.075000X0.662500X-0.075000X-0.662500X0*%
%ADD24RoundRect,0.075000X0.662500X-0.075000X0.662500X0.075000X-0.662500X0.075000X-0.662500X-0.075000X0*%
%ADD25RoundRect,0.250000X-0.450000X0.350000X-0.450000X-0.350000X0.450000X-0.350000X0.450000X0.350000X0*%
%ADD26RoundRect,0.150000X-0.825000X-0.150000X0.825000X-0.150000X0.825000X0.150000X-0.825000X0.150000X0*%
%ADD27RoundRect,0.250000X-0.550000X1.500000X-0.550000X-1.500000X0.550000X-1.500000X0.550000X1.500000X0*%
%ADD28RoundRect,0.250000X-0.412500X-0.650000X0.412500X-0.650000X0.412500X0.650000X-0.412500X0.650000X0*%
%ADD29RoundRect,0.162500X-0.162500X0.617500X-0.162500X-0.617500X0.162500X-0.617500X0.162500X0.617500X0*%
%ADD30R,5.400000X2.900000*%
%ADD31RoundRect,0.250000X1.450000X-0.400000X1.450000X0.400000X-1.450000X0.400000X-1.450000X-0.400000X0*%
%ADD32R,1.200000X1.200000*%
%ADD33RoundRect,0.475000X-2.075000X0.475000X-2.075000X-0.475000X2.075000X-0.475000X2.075000X0.475000X0*%
G04 APERTURE END LIST*
D10*
%TO.C,C16*%
X141579600Y-101967900D03*
X141579600Y-105092900D03*
%TD*%
D11*
%TO.C,C15*%
X140246500Y-99568000D03*
X137121500Y-99568000D03*
%TD*%
D12*
%TO.C,U1*%
X113714000Y-89789000D03*
X113714000Y-91059000D03*
X113714000Y-92329000D03*
X113714000Y-93599000D03*
X113714000Y-94869000D03*
X113714000Y-96139000D03*
X113714000Y-97409000D03*
X113714000Y-98679000D03*
X123014000Y-98679000D03*
X123014000Y-97409000D03*
X123014000Y-96139000D03*
X123014000Y-94869000D03*
X123014000Y-93599000D03*
X123014000Y-92329000D03*
X123014000Y-91059000D03*
X123014000Y-89789000D03*
%TD*%
D13*
%TO.C,Q11*%
X159410000Y-94728000D03*
X159410000Y-97028000D03*
D14*
X165710000Y-97028000D03*
D13*
X159410000Y-99328000D03*
%TD*%
%TO.C,Q1*%
X148234000Y-79450500D03*
X148234000Y-81750500D03*
D14*
X154534000Y-81750500D03*
D13*
X148234000Y-84050500D03*
%TD*%
D15*
%TO.C,R24*%
X156972000Y-114704500D03*
X156972000Y-112879500D03*
%TD*%
D13*
%TO.C,Q21*%
X170586000Y-109968000D03*
X170586000Y-112268000D03*
D14*
X176886000Y-112268000D03*
D13*
X170586000Y-114568000D03*
%TD*%
D11*
%TO.C,C4*%
X122314100Y-60452000D03*
X119189100Y-60452000D03*
%TD*%
D15*
%TO.C,R29*%
X156972000Y-134008500D03*
X156972000Y-132183500D03*
%TD*%
%TO.C,R28*%
X156972000Y-129944500D03*
X156972000Y-128119500D03*
%TD*%
D16*
%TO.C,J1*%
X103647000Y-82550000D03*
X108697000Y-82550000D03*
X103647000Y-85090000D03*
X108697000Y-85090000D03*
X103647000Y-87630000D03*
X108697000Y-87630000D03*
X103647000Y-90170000D03*
X108697000Y-90170000D03*
X103647000Y-92710000D03*
X108697000Y-92710000D03*
X103647000Y-95250000D03*
X108697000Y-95250000D03*
X103647000Y-97790000D03*
X108697000Y-97790000D03*
X103647000Y-100330000D03*
X108697000Y-100330000D03*
X103647000Y-102870000D03*
X108697000Y-102870000D03*
X103647000Y-105410000D03*
X108697000Y-105410000D03*
X103647000Y-107950000D03*
X108697000Y-107950000D03*
X103647000Y-110490000D03*
X108697000Y-110490000D03*
X103647000Y-113030000D03*
X108697000Y-113030000D03*
X103647000Y-115570000D03*
X108697000Y-115570000D03*
%TD*%
D17*
%TO.C,C6*%
X127762000Y-111798500D03*
X127762000Y-108673500D03*
%TD*%
D18*
%TO.C,R3*%
X129556000Y-124460000D03*
X131556000Y-124460000D03*
%TD*%
D19*
%TO.C,R13*%
X150368000Y-73390000D03*
X150368000Y-71390000D03*
%TD*%
D13*
%TO.C,Q7*%
X148234000Y-125208000D03*
X148234000Y-127508000D03*
D14*
X154534000Y-127508000D03*
D13*
X148234000Y-129808000D03*
%TD*%
%TO.C,Q18*%
X170586000Y-87108000D03*
X170586000Y-89408000D03*
D14*
X176886000Y-89408000D03*
D13*
X170586000Y-91708000D03*
%TD*%
%TO.C,Q8*%
X148234000Y-132828000D03*
X148234000Y-135128000D03*
D14*
X154534000Y-135128000D03*
D13*
X148234000Y-137428000D03*
%TD*%
D18*
%TO.C,R48*%
X171212000Y-71628000D03*
X173212000Y-71628000D03*
%TD*%
D13*
%TO.C,Q14*%
X159410000Y-117588000D03*
X159410000Y-119888000D03*
D14*
X165710000Y-119888000D03*
D13*
X159410000Y-122188000D03*
%TD*%
D15*
%TO.C,R8*%
X145796000Y-103999000D03*
X145796000Y-102174000D03*
%TD*%
%TO.C,R6*%
X145796000Y-88796500D03*
X145796000Y-86971500D03*
%TD*%
D20*
%TO.C,C11*%
X133668000Y-82804000D03*
X141668000Y-82804000D03*
%TD*%
D21*
%TO.C,R33*%
X168148000Y-86463500D03*
X168148000Y-88288500D03*
%TD*%
%TO.C,R31*%
X168185500Y-78843500D03*
X168185500Y-80668500D03*
%TD*%
D22*
%TO.C,R1*%
X120126000Y-63754000D03*
X118126000Y-63754000D03*
%TD*%
D15*
%TO.C,R25*%
X156972000Y-118768500D03*
X156972000Y-116943500D03*
%TD*%
D23*
%TO.C,U3*%
X131870000Y-111604500D03*
X132370000Y-111604500D03*
X132870000Y-111604500D03*
X133370000Y-111604500D03*
X133870000Y-111604500D03*
X134370000Y-111604500D03*
X134870000Y-111604500D03*
X135370000Y-111604500D03*
X135870000Y-111604500D03*
X136370000Y-111604500D03*
X136870000Y-111604500D03*
X137370000Y-111604500D03*
D24*
X138782500Y-110192000D03*
X138782500Y-109692000D03*
X138782500Y-109192000D03*
X138782500Y-108692000D03*
X138782500Y-108192000D03*
X138782500Y-107692000D03*
X138782500Y-107192000D03*
X138782500Y-106692000D03*
X138782500Y-106192000D03*
X138782500Y-105692000D03*
X138782500Y-105192000D03*
X138782500Y-104692000D03*
D23*
X137370000Y-103279500D03*
X136870000Y-103279500D03*
X136370000Y-103279500D03*
X135870000Y-103279500D03*
X135370000Y-103279500D03*
X134870000Y-103279500D03*
X134370000Y-103279500D03*
X133870000Y-103279500D03*
X133370000Y-103279500D03*
X132870000Y-103279500D03*
X132370000Y-103279500D03*
X131870000Y-103279500D03*
D24*
X130457500Y-104692000D03*
X130457500Y-105192000D03*
X130457500Y-105692000D03*
X130457500Y-106192000D03*
X130457500Y-106692000D03*
X130457500Y-107192000D03*
X130457500Y-107692000D03*
X130457500Y-108192000D03*
X130457500Y-108692000D03*
X130457500Y-109192000D03*
X130457500Y-109692000D03*
X130457500Y-110192000D03*
%TD*%
D15*
%TO.C,R46*%
X168148000Y-137564500D03*
X168148000Y-135739500D03*
%TD*%
%TO.C,R26*%
X156972000Y-122362000D03*
X156972000Y-120537000D03*
%TD*%
D25*
%TO.C,R14*%
X152400000Y-71390000D03*
X152400000Y-73390000D03*
%TD*%
D21*
%TO.C,R37*%
X168148000Y-101666000D03*
X168148000Y-103491000D03*
%TD*%
D26*
%TO.C,U2*%
X125033000Y-62103000D03*
X125033000Y-63373000D03*
X125033000Y-64643000D03*
X125033000Y-65913000D03*
X129983000Y-65913000D03*
X129983000Y-64643000D03*
X129983000Y-63373000D03*
X129983000Y-62103000D03*
%TD*%
D13*
%TO.C,Q2*%
X148234000Y-87108000D03*
X148234000Y-89408000D03*
D14*
X154534000Y-89408000D03*
D13*
X148234000Y-91708000D03*
%TD*%
D27*
%TO.C,C13*%
X138938000Y-69690000D03*
X138938000Y-75090000D03*
%TD*%
D17*
%TO.C,C9*%
X133858000Y-73952500D03*
X133858000Y-70827500D03*
%TD*%
D21*
%TO.C,R39*%
X168148000Y-109323500D03*
X168148000Y-111148500D03*
%TD*%
D13*
%TO.C,Q4*%
X148234000Y-102348000D03*
X148234000Y-104648000D03*
D14*
X154534000Y-104648000D03*
D13*
X148234000Y-106948000D03*
%TD*%
%TO.C,Q20*%
X170586000Y-102348000D03*
X170586000Y-104648000D03*
D14*
X176886000Y-104648000D03*
D13*
X170586000Y-106948000D03*
%TD*%
D28*
%TO.C,C14*%
X137121500Y-92456000D03*
X140246500Y-92456000D03*
%TD*%
D15*
%TO.C,R40*%
X168148000Y-114704500D03*
X168148000Y-112879500D03*
%TD*%
D29*
%TO.C,U4*%
X139634000Y-94662000D03*
X138684000Y-94662000D03*
X137734000Y-94662000D03*
X137734000Y-97362000D03*
X139634000Y-97362000D03*
%TD*%
D17*
%TO.C,C5*%
X120904000Y-87236700D03*
X120904000Y-84111700D03*
%TD*%
D18*
%TO.C,R2*%
X118126000Y-65786000D03*
X120126000Y-65786000D03*
%TD*%
D17*
%TO.C,C1*%
X113512600Y-87236700D03*
X113512600Y-84111700D03*
%TD*%
D13*
%TO.C,Q10*%
X159410000Y-87108000D03*
X159410000Y-89408000D03*
D14*
X165710000Y-89408000D03*
D13*
X159410000Y-91708000D03*
%TD*%
D15*
%TO.C,R30*%
X156972000Y-137564500D03*
X156972000Y-135739500D03*
%TD*%
D13*
%TO.C,Q16*%
X159410000Y-132828000D03*
X159410000Y-135128000D03*
D14*
X165710000Y-135128000D03*
D13*
X159410000Y-137428000D03*
%TD*%
%TO.C,Q19*%
X170586000Y-94728000D03*
X170586000Y-97028000D03*
D14*
X176886000Y-97028000D03*
D13*
X170586000Y-99328000D03*
%TD*%
D30*
%TO.C,L1*%
X123444000Y-69218000D03*
X123444000Y-79118000D03*
%TD*%
D15*
%TO.C,R7*%
X145796000Y-96416500D03*
X145796000Y-94591500D03*
%TD*%
D13*
%TO.C,Q17*%
X170586000Y-79488000D03*
X170586000Y-81788000D03*
D14*
X176886000Y-81788000D03*
D13*
X170586000Y-84088000D03*
%TD*%
D15*
%TO.C,R12*%
X145796000Y-134516500D03*
X145796000Y-132691500D03*
%TD*%
D18*
%TO.C,R47*%
X171212000Y-68580000D03*
X173212000Y-68580000D03*
%TD*%
D15*
%TO.C,R27*%
X156972000Y-126388500D03*
X156972000Y-124563500D03*
%TD*%
%TO.C,R42*%
X168148000Y-122362000D03*
X168148000Y-120537000D03*
%TD*%
D31*
%TO.C,R4*%
X137668000Y-65471000D03*
X137668000Y-61021000D03*
%TD*%
D27*
%TO.C,C8*%
X132080000Y-92296000D03*
X132080000Y-97696000D03*
%TD*%
D15*
%TO.C,R10*%
X145620000Y-119210500D03*
X145620000Y-117385500D03*
%TD*%
D21*
%TO.C,R41*%
X168148000Y-116943500D03*
X168148000Y-118768500D03*
%TD*%
D15*
%TO.C,R11*%
X145796000Y-126896500D03*
X145796000Y-125071500D03*
%TD*%
D32*
%TO.C,D1*%
X131318000Y-72520000D03*
X131318000Y-69720000D03*
%TD*%
D15*
%TO.C,R21*%
X156972000Y-103491000D03*
X156972000Y-101666000D03*
%TD*%
D10*
%TO.C,C12*%
X137414000Y-114007500D03*
X137414000Y-117132500D03*
%TD*%
D15*
%TO.C,R36*%
X168148000Y-99464500D03*
X168148000Y-97639500D03*
%TD*%
D13*
%TO.C,Q3*%
X148234000Y-94728000D03*
X148234000Y-97028000D03*
D14*
X154534000Y-97028000D03*
D13*
X148234000Y-99328000D03*
%TD*%
D15*
%TO.C,R44*%
X168148000Y-129944500D03*
X168148000Y-128119500D03*
%TD*%
D10*
%TO.C,C3*%
X119888000Y-128231500D03*
X119888000Y-131356500D03*
%TD*%
D21*
%TO.C,R43*%
X168148000Y-124526000D03*
X168148000Y-126351000D03*
%TD*%
D15*
%TO.C,R20*%
X157009500Y-99464500D03*
X157009500Y-97639500D03*
%TD*%
D13*
%TO.C,Q9*%
X159410000Y-79488000D03*
X159410000Y-81788000D03*
D14*
X165710000Y-81788000D03*
D13*
X159410000Y-84088000D03*
%TD*%
D15*
%TO.C,R9*%
X145796000Y-111148500D03*
X145796000Y-109323500D03*
%TD*%
%TO.C,R34*%
X168132000Y-91844500D03*
X168132000Y-90019500D03*
%TD*%
%TO.C,R5*%
X145833500Y-81139000D03*
X145833500Y-79314000D03*
%TD*%
D11*
%TO.C,C7*%
X130848500Y-114300000D03*
X127723500Y-114300000D03*
%TD*%
D13*
%TO.C,Q6*%
X148234000Y-117588000D03*
X148234000Y-119888000D03*
D14*
X154534000Y-119888000D03*
D13*
X148234000Y-122188000D03*
%TD*%
D15*
%TO.C,R17*%
X156972000Y-88288500D03*
X156972000Y-86463500D03*
%TD*%
%TO.C,R18*%
X156972000Y-91844500D03*
X156972000Y-90019500D03*
%TD*%
%TO.C,R16*%
X157009500Y-84224500D03*
X157009500Y-82399500D03*
%TD*%
%TO.C,R23*%
X156972000Y-111148500D03*
X156972000Y-109323500D03*
%TD*%
D33*
%TO.C,L2*%
X127508000Y-82990000D03*
X127508000Y-87190000D03*
%TD*%
D13*
%TO.C,Q13*%
X159410000Y-109968000D03*
X159410000Y-112268000D03*
D14*
X165710000Y-112268000D03*
D13*
X159410000Y-114568000D03*
%TD*%
D15*
%TO.C,R32*%
X168185500Y-84224500D03*
X168185500Y-82399500D03*
%TD*%
D21*
%TO.C,R35*%
X168148000Y-94083500D03*
X168148000Y-95908500D03*
%TD*%
D10*
%TO.C,C10*%
X134366000Y-64731500D03*
X134366000Y-67856500D03*
%TD*%
D13*
%TO.C,Q22*%
X170586000Y-117588000D03*
X170586000Y-119888000D03*
D14*
X176886000Y-119888000D03*
D13*
X170586000Y-122188000D03*
%TD*%
%TO.C,Q15*%
X159410000Y-125208000D03*
X159410000Y-127508000D03*
D14*
X165710000Y-127508000D03*
D13*
X159410000Y-129808000D03*
%TD*%
D15*
%TO.C,R19*%
X156972000Y-95908500D03*
X156972000Y-94083500D03*
%TD*%
D13*
%TO.C,Q23*%
X170623500Y-125208000D03*
X170623500Y-127508000D03*
D14*
X176923500Y-127508000D03*
D13*
X170623500Y-129808000D03*
%TD*%
%TO.C,Q5*%
X148234000Y-109968000D03*
X148234000Y-112268000D03*
D14*
X154534000Y-112268000D03*
D13*
X148234000Y-114568000D03*
%TD*%
D21*
%TO.C,R45*%
X168148000Y-132183500D03*
X168148000Y-134008500D03*
%TD*%
D17*
%TO.C,C2*%
X119888000Y-126022500D03*
X119888000Y-122897500D03*
%TD*%
D13*
%TO.C,Q12*%
X159410000Y-102348000D03*
X159410000Y-104648000D03*
D14*
X165710000Y-104648000D03*
D13*
X159410000Y-106948000D03*
%TD*%
%TO.C,Q24*%
X170586000Y-132828000D03*
X170586000Y-135128000D03*
D14*
X176886000Y-135128000D03*
D13*
X170586000Y-137428000D03*
%TD*%
D18*
%TO.C,R49*%
X171212000Y-74676000D03*
X173212000Y-74676000D03*
%TD*%
D15*
%TO.C,R38*%
X168148000Y-107084500D03*
X168148000Y-105259500D03*
%TD*%
%TO.C,R15*%
X157009500Y-80631000D03*
X157009500Y-78806000D03*
%TD*%
%TO.C,R22*%
X156972000Y-107084500D03*
X156972000Y-105259500D03*
%TD*%
M02*
