%TF.GenerationSoftware,KiCad,Pcbnew,8.0.0*%
%TF.CreationDate,2024-05-13T12:24:45+02:00*%
%TF.ProjectId,plc_io_module,706c635f-696f-45f6-9d6f-64756c652e6b,1.0.0*%
%TF.SameCoordinates,Original*%
%TF.FileFunction,Paste,Bot*%
%TF.FilePolarity,Positive*%
%FSLAX46Y46*%
G04 Gerber Fmt 4.6, Leading zero omitted, Abs format (unit mm)*
G04 Created by KiCad (PCBNEW 8.0.0) date 2024-05-13 12:24:45*
%MOMM*%
%LPD*%
G01*
G04 APERTURE LIST*
G04 Aperture macros list*
%AMRoundRect*
0 Rectangle with rounded corners*
0 $1 Rounding radius*
0 $2 $3 $4 $5 $6 $7 $8 $9 X,Y pos of 4 corners*
0 Add a 4 corners polygon primitive as box body*
4,1,4,$2,$3,$4,$5,$6,$7,$8,$9,$2,$3,0*
0 Add four circle primitives for the rounded corners*
1,1,$1+$1,$2,$3*
1,1,$1+$1,$4,$5*
1,1,$1+$1,$6,$7*
1,1,$1+$1,$8,$9*
0 Add four rect primitives between the rounded corners*
20,1,$1+$1,$2,$3,$4,$5,0*
20,1,$1+$1,$4,$5,$6,$7,0*
20,1,$1+$1,$6,$7,$8,$9,0*
20,1,$1+$1,$8,$9,$2,$3,0*%
G04 Aperture macros list end*
%ADD10RoundRect,0.250000X0.650000X-0.412500X0.650000X0.412500X-0.650000X0.412500X-0.650000X-0.412500X0*%
%ADD11RoundRect,0.250000X-0.450000X0.350000X-0.450000X-0.350000X0.450000X-0.350000X0.450000X0.350000X0*%
%ADD12RoundRect,0.250000X-0.350000X-0.450000X0.350000X-0.450000X0.350000X0.450000X-0.350000X0.450000X0*%
%ADD13RoundRect,0.250000X0.450000X-0.350000X0.450000X0.350000X-0.450000X0.350000X-0.450000X-0.350000X0*%
%ADD14R,3.150000X1.000000*%
G04 APERTURE END LIST*
D10*
%TO.C,C19*%
X154686000Y-98590500D03*
X154686000Y-95465500D03*
%TD*%
D11*
%TO.C,R53*%
X159766000Y-103686500D03*
X159766000Y-105686500D03*
%TD*%
D10*
%TO.C,C18*%
X154686000Y-90970500D03*
X154686000Y-87845500D03*
%TD*%
%TO.C,C24*%
X154686000Y-136690500D03*
X154686000Y-133565500D03*
%TD*%
D12*
%TO.C,R66*%
X148860000Y-83312000D03*
X150860000Y-83312000D03*
%TD*%
%TO.C,R67*%
X148860000Y-90932000D03*
X150860000Y-90932000D03*
%TD*%
D13*
%TO.C,R62*%
X157226000Y-113306500D03*
X157226000Y-111306500D03*
%TD*%
D14*
%TO.C,J5*%
X108697000Y-82550000D03*
X103647000Y-82550000D03*
X108697000Y-85090000D03*
X103647000Y-85090000D03*
X108697000Y-87630000D03*
X103647000Y-87630000D03*
X108697000Y-90170000D03*
X103647000Y-90170000D03*
X108697000Y-92710000D03*
X103647000Y-92710000D03*
X108697000Y-95250000D03*
X103647000Y-95250000D03*
X108697000Y-97790000D03*
X103647000Y-97790000D03*
X108697000Y-100330000D03*
X103647000Y-100330000D03*
X108697000Y-102870000D03*
X103647000Y-102870000D03*
X108697000Y-105410000D03*
X103647000Y-105410000D03*
X108697000Y-107950000D03*
X103647000Y-107950000D03*
X108697000Y-110490000D03*
X103647000Y-110490000D03*
X108697000Y-113030000D03*
X103647000Y-113030000D03*
X108697000Y-115570000D03*
X103647000Y-115570000D03*
%TD*%
D12*
%TO.C,R73*%
X148860000Y-136906000D03*
X150860000Y-136906000D03*
%TD*%
D11*
%TO.C,R51*%
X159766000Y-88446500D03*
X159766000Y-90446500D03*
%TD*%
D10*
%TO.C,C21*%
X154686000Y-113830500D03*
X154686000Y-110705500D03*
%TD*%
D13*
%TO.C,R60*%
X157226000Y-98066500D03*
X157226000Y-96066500D03*
%TD*%
D12*
%TO.C,R72*%
X148860000Y-129032000D03*
X150860000Y-129032000D03*
%TD*%
D10*
%TO.C,C22*%
X154686000Y-121450500D03*
X154686000Y-118325500D03*
%TD*%
D11*
%TO.C,R50*%
X159512000Y-80788000D03*
X159512000Y-82788000D03*
%TD*%
%TO.C,R52*%
X159766000Y-96066500D03*
X159766000Y-98066500D03*
%TD*%
%TO.C,R54*%
X159766000Y-111306500D03*
X159766000Y-113306500D03*
%TD*%
%TO.C,R55*%
X159766000Y-118926500D03*
X159766000Y-120926500D03*
%TD*%
D12*
%TO.C,R68*%
X148860000Y-98552000D03*
X150860000Y-98552000D03*
%TD*%
D13*
%TO.C,R63*%
X157226000Y-120926500D03*
X157226000Y-118926500D03*
%TD*%
D10*
%TO.C,C23*%
X154686000Y-129070500D03*
X154686000Y-125945500D03*
%TD*%
D13*
%TO.C,R64*%
X157226000Y-128546500D03*
X157226000Y-126546500D03*
%TD*%
D12*
%TO.C,R70*%
X148860000Y-113792000D03*
X150860000Y-113792000D03*
%TD*%
D11*
%TO.C,R57*%
X159766000Y-134166500D03*
X159766000Y-136166500D03*
%TD*%
D12*
%TO.C,R69*%
X148860000Y-106172000D03*
X150860000Y-106172000D03*
%TD*%
D13*
%TO.C,R58*%
X157226000Y-82788000D03*
X157226000Y-80788000D03*
%TD*%
%TO.C,R65*%
X157226000Y-136166500D03*
X157226000Y-134166500D03*
%TD*%
%TO.C,R59*%
X157226000Y-90446500D03*
X157226000Y-88446500D03*
%TD*%
D11*
%TO.C,R56*%
X159766000Y-126546500D03*
X159766000Y-128546500D03*
%TD*%
D13*
%TO.C,R61*%
X157226000Y-105686500D03*
X157226000Y-103686500D03*
%TD*%
D12*
%TO.C,R71*%
X148860000Y-121412000D03*
X150860000Y-121412000D03*
%TD*%
D10*
%TO.C,C17*%
X154686000Y-83350500D03*
X154686000Y-80225500D03*
%TD*%
%TO.C,C20*%
X154686000Y-106210500D03*
X154686000Y-103085500D03*
%TD*%
M02*
