%TF.GenerationSoftware,KiCad,Pcbnew,8.0.0*%
%TF.CreationDate,2024-05-10T19:48:46+02:00*%
%TF.ProjectId,plc_io_module,706c635f-696f-45f6-9d6f-64756c652e6b,1.0.0*%
%TF.SameCoordinates,Original*%
%TF.FileFunction,Copper,L4,Bot*%
%TF.FilePolarity,Positive*%
%FSLAX46Y46*%
G04 Gerber Fmt 4.6, Leading zero omitted, Abs format (unit mm)*
G04 Created by KiCad (PCBNEW 8.0.0) date 2024-05-10 19:48:46*
%MOMM*%
%LPD*%
G01*
G04 APERTURE LIST*
G04 Aperture macros list*
%AMRoundRect*
0 Rectangle with rounded corners*
0 $1 Rounding radius*
0 $2 $3 $4 $5 $6 $7 $8 $9 X,Y pos of 4 corners*
0 Add a 4 corners polygon primitive as box body*
4,1,4,$2,$3,$4,$5,$6,$7,$8,$9,$2,$3,0*
0 Add four circle primitives for the rounded corners*
1,1,$1+$1,$2,$3*
1,1,$1+$1,$4,$5*
1,1,$1+$1,$6,$7*
1,1,$1+$1,$8,$9*
0 Add four rect primitives between the rounded corners*
20,1,$1+$1,$2,$3,$4,$5,0*
20,1,$1+$1,$4,$5,$6,$7,0*
20,1,$1+$1,$6,$7,$8,$9,0*
20,1,$1+$1,$8,$9,$2,$3,0*%
G04 Aperture macros list end*
%TA.AperFunction,ComponentPad*%
%ADD10RoundRect,0.250000X-0.600000X0.600000X-0.600000X-0.600000X0.600000X-0.600000X0.600000X0.600000X0*%
%TD*%
%TA.AperFunction,ComponentPad*%
%ADD11C,1.700000*%
%TD*%
%TA.AperFunction,ComponentPad*%
%ADD12R,2.600000X2.600000*%
%TD*%
%TA.AperFunction,ComponentPad*%
%ADD13C,2.600000*%
%TD*%
%TA.AperFunction,ComponentPad*%
%ADD14R,1.800000X1.800000*%
%TD*%
%TA.AperFunction,ComponentPad*%
%ADD15C,1.800000*%
%TD*%
%TA.AperFunction,ComponentPad*%
%ADD16C,1.500000*%
%TD*%
%TA.AperFunction,SMDPad,CuDef*%
%ADD17RoundRect,0.250000X0.650000X-0.412500X0.650000X0.412500X-0.650000X0.412500X-0.650000X-0.412500X0*%
%TD*%
%TA.AperFunction,SMDPad,CuDef*%
%ADD18RoundRect,0.250000X-0.450000X0.350000X-0.450000X-0.350000X0.450000X-0.350000X0.450000X0.350000X0*%
%TD*%
%TA.AperFunction,SMDPad,CuDef*%
%ADD19RoundRect,0.250000X-0.350000X-0.450000X0.350000X-0.450000X0.350000X0.450000X-0.350000X0.450000X0*%
%TD*%
%TA.AperFunction,SMDPad,CuDef*%
%ADD20RoundRect,0.250000X0.450000X-0.350000X0.450000X0.350000X-0.450000X0.350000X-0.450000X-0.350000X0*%
%TD*%
%TA.AperFunction,SMDPad,CuDef*%
%ADD21R,3.150000X1.000000*%
%TD*%
%TA.AperFunction,ViaPad*%
%ADD22C,0.508000*%
%TD*%
%TA.AperFunction,ViaPad*%
%ADD23C,1.270000*%
%TD*%
%TA.AperFunction,Conductor*%
%ADD24C,0.254000*%
%TD*%
%TA.AperFunction,Profile*%
%ADD25C,0.050000*%
%TD*%
G04 APERTURE END LIST*
D10*
%TO.P,J2,1,Pin_1*%
%TO.N,+3.3V*%
X138938000Y-129794000D03*
D11*
%TO.P,J2,2,Pin_2*%
%TO.N,SWDIO*%
X138938000Y-132334000D03*
%TO.P,J2,3,Pin_3*%
%TO.N,NRST*%
X136398000Y-129794000D03*
%TO.P,J2,4,Pin_4*%
%TO.N,SWCLK*%
X136398000Y-132334000D03*
%TO.P,J2,5,Pin_5*%
%TO.N,GND*%
X133858000Y-129794000D03*
%TO.P,J2,6,Pin_6*%
%TO.N,SWO*%
X133858000Y-132334000D03*
%TD*%
D12*
%TO.P,J3,1,Pin_1*%
%TO.N,+24V*%
X150871000Y-61976000D03*
D13*
%TO.P,J3,2,Pin_2*%
%TO.N,GND*%
X155951000Y-61976000D03*
%TD*%
D14*
%TO.P,D2,1,K*%
%TO.N,GND*%
X178567000Y-68580000D03*
D15*
%TO.P,D2,2,A*%
%TO.N,Net-(D2-A)*%
X176027000Y-68580000D03*
%TD*%
D14*
%TO.P,D4,1,K*%
%TO.N,GND*%
X178567000Y-74676000D03*
D15*
%TO.P,D4,2,A*%
%TO.N,Net-(D4-A)*%
X176027000Y-74676000D03*
%TD*%
D16*
%TO.P,Y1,1,1*%
%TO.N,Net-(U3-PF0)*%
X123952000Y-124550000D03*
%TO.P,Y1,2,2*%
%TO.N,Net-(U3-PF1)*%
X123952000Y-129450000D03*
%TD*%
D12*
%TO.P,J4,1,Pin_1*%
%TO.N,+24V*%
X184612000Y-81280000D03*
D13*
%TO.P,J4,2,Pin_2*%
%TO.N,GND*%
X184612000Y-86360000D03*
%TO.P,J4,3,Pin_3*%
%TO.N,DIQ0*%
X184612000Y-91440000D03*
%TO.P,J4,4,Pin_4*%
%TO.N,DIQ1*%
X184612000Y-96520000D03*
%TO.P,J4,5,Pin_5*%
%TO.N,DIQ2*%
X184612000Y-101600000D03*
%TO.P,J4,6,Pin_6*%
%TO.N,DIQ3*%
X184612000Y-106680000D03*
%TO.P,J4,7,Pin_7*%
%TO.N,DIQ4*%
X184612000Y-111760000D03*
%TO.P,J4,8,Pin_8*%
%TO.N,DIQ5*%
X184612000Y-116840000D03*
%TO.P,J4,9,Pin_9*%
%TO.N,DIQ6*%
X184612000Y-121920000D03*
%TO.P,J4,10,Pin_10*%
%TO.N,DIQ7*%
X184612000Y-127000000D03*
%TD*%
D14*
%TO.P,D3,1,K*%
%TO.N,GND*%
X178567000Y-71628000D03*
D15*
%TO.P,D3,2,A*%
%TO.N,Net-(D3-A)*%
X176027000Y-71628000D03*
%TD*%
D17*
%TO.P,C19,1*%
%TO.N,Net-(C19-Pad1)*%
X154686000Y-98590500D03*
%TO.P,C19,2*%
%TO.N,GND*%
X154686000Y-95465500D03*
%TD*%
D18*
%TO.P,R53,1*%
%TO.N,DIQ3*%
X159766000Y-103686500D03*
%TO.P,R53,2*%
%TO.N,Net-(C20-Pad1)*%
X159766000Y-105686500D03*
%TD*%
D17*
%TO.P,C18,1*%
%TO.N,Net-(C18-Pad1)*%
X154686000Y-90970500D03*
%TO.P,C18,2*%
%TO.N,GND*%
X154686000Y-87845500D03*
%TD*%
%TO.P,C24,1*%
%TO.N,Net-(C24-Pad1)*%
X154686000Y-136690500D03*
%TO.P,C24,2*%
%TO.N,GND*%
X154686000Y-133565500D03*
%TD*%
D19*
%TO.P,R66,1*%
%TO.N,DI0_input*%
X148860000Y-83312000D03*
%TO.P,R66,2*%
%TO.N,Net-(C17-Pad1)*%
X150860000Y-83312000D03*
%TD*%
%TO.P,R67,1*%
%TO.N,DI1_input*%
X148860000Y-90932000D03*
%TO.P,R67,2*%
%TO.N,Net-(C18-Pad1)*%
X150860000Y-90932000D03*
%TD*%
D20*
%TO.P,R62,1*%
%TO.N,Net-(C21-Pad1)*%
X157226000Y-113306500D03*
%TO.P,R62,2*%
%TO.N,GND*%
X157226000Y-111306500D03*
%TD*%
D21*
%TO.P,J5,1,Pin_1*%
%TO.N,GND isolated*%
X108697000Y-82550000D03*
%TO.P,J5,2,Pin_2*%
%TO.N,+5V isolated*%
X103647000Y-82550000D03*
%TO.P,J5,3,Pin_3*%
%TO.N,GND isolated*%
X108697000Y-85090000D03*
%TO.P,J5,4,Pin_4*%
%TO.N,+3.3V isolated*%
X103647000Y-85090000D03*
%TO.P,J5,5,Pin_5*%
%TO.N,MISO_I*%
X108697000Y-87630000D03*
%TO.P,J5,6,Pin_6*%
%TO.N,SIG0_I*%
X103647000Y-87630000D03*
%TO.P,J5,7,Pin_7*%
%TO.N,MOSI_I*%
X108697000Y-90170000D03*
%TO.P,J5,8,Pin_8*%
%TO.N,SIG1_I*%
X103647000Y-90170000D03*
%TO.P,J5,9,Pin_9*%
%TO.N,SCK_I*%
X108697000Y-92710000D03*
%TO.P,J5,10,Pin_10*%
%TO.N,SIG2_I*%
X103647000Y-92710000D03*
%TO.P,J5,11,Pin_11*%
%TO.N,CS1_I*%
X108697000Y-95250000D03*
%TO.P,J5,12,Pin_12*%
%TO.N,SIG3_I*%
X103647000Y-95250000D03*
%TO.P,J5,13,Pin_13*%
%TO.N,CS2_I*%
X108697000Y-97790000D03*
%TO.P,J5,14,Pin_14*%
%TO.N,SIG4_I*%
X103647000Y-97790000D03*
%TO.P,J5,15,Pin_15*%
%TO.N,CS3_I*%
X108697000Y-100330000D03*
%TO.P,J5,16,Pin_16*%
%TO.N,unconnected-(J5-Pin_16-Pad16)*%
X103647000Y-100330000D03*
%TO.P,J5,17,Pin_17*%
%TO.N,CS4_I*%
X108697000Y-102870000D03*
%TO.P,J5,18,Pin_18*%
%TO.N,CS15_I*%
X103647000Y-102870000D03*
%TO.P,J5,19,Pin_19*%
%TO.N,CS5_I*%
X108697000Y-105410000D03*
%TO.P,J5,20,Pin_20*%
%TO.N,CS14_I*%
X103647000Y-105410000D03*
%TO.P,J5,21,Pin_21*%
%TO.N,CS6_I*%
X108697000Y-107950000D03*
%TO.P,J5,22,Pin_22*%
%TO.N,CS13_I*%
X103647000Y-107950000D03*
%TO.P,J5,23,Pin_23*%
%TO.N,CS7_I*%
X108697000Y-110490000D03*
%TO.P,J5,24,Pin_24*%
%TO.N,CS12_I*%
X103647000Y-110490000D03*
%TO.P,J5,25,Pin_25*%
%TO.N,CS8_I*%
X108697000Y-113030000D03*
%TO.P,J5,26,Pin_26*%
%TO.N,CS11_I*%
X103647000Y-113030000D03*
%TO.P,J5,27,Pin_27*%
%TO.N,CS9_I*%
X108697000Y-115570000D03*
%TO.P,J5,28,Pin_28*%
%TO.N,CS10_I*%
X103647000Y-115570000D03*
%TD*%
D19*
%TO.P,R73,1*%
%TO.N,DI7_input*%
X148860000Y-136906000D03*
%TO.P,R73,2*%
%TO.N,Net-(C24-Pad1)*%
X150860000Y-136906000D03*
%TD*%
D18*
%TO.P,R51,1*%
%TO.N,DIQ1*%
X159766000Y-88446500D03*
%TO.P,R51,2*%
%TO.N,Net-(C18-Pad1)*%
X159766000Y-90446500D03*
%TD*%
D17*
%TO.P,C21,1*%
%TO.N,Net-(C21-Pad1)*%
X154686000Y-113830500D03*
%TO.P,C21,2*%
%TO.N,GND*%
X154686000Y-110705500D03*
%TD*%
D20*
%TO.P,R60,1*%
%TO.N,Net-(C19-Pad1)*%
X157226000Y-98066500D03*
%TO.P,R60,2*%
%TO.N,GND*%
X157226000Y-96066500D03*
%TD*%
D19*
%TO.P,R72,1*%
%TO.N,DI6_input*%
X148860000Y-129032000D03*
%TO.P,R72,2*%
%TO.N,Net-(C23-Pad1)*%
X150860000Y-129032000D03*
%TD*%
D17*
%TO.P,C22,1*%
%TO.N,Net-(C22-Pad1)*%
X154686000Y-121450500D03*
%TO.P,C22,2*%
%TO.N,GND*%
X154686000Y-118325500D03*
%TD*%
D18*
%TO.P,R50,1*%
%TO.N,DIQ0*%
X159512000Y-80788000D03*
%TO.P,R50,2*%
%TO.N,Net-(C17-Pad1)*%
X159512000Y-82788000D03*
%TD*%
%TO.P,R52,1*%
%TO.N,DIQ2*%
X159766000Y-96066500D03*
%TO.P,R52,2*%
%TO.N,Net-(C19-Pad1)*%
X159766000Y-98066500D03*
%TD*%
%TO.P,R54,1*%
%TO.N,DIQ4*%
X159766000Y-111306500D03*
%TO.P,R54,2*%
%TO.N,Net-(C21-Pad1)*%
X159766000Y-113306500D03*
%TD*%
%TO.P,R55,1*%
%TO.N,DIQ5*%
X159766000Y-118926500D03*
%TO.P,R55,2*%
%TO.N,Net-(C22-Pad1)*%
X159766000Y-120926500D03*
%TD*%
D19*
%TO.P,R68,1*%
%TO.N,DI2_input*%
X148860000Y-98552000D03*
%TO.P,R68,2*%
%TO.N,Net-(C19-Pad1)*%
X150860000Y-98552000D03*
%TD*%
D20*
%TO.P,R63,1*%
%TO.N,Net-(C22-Pad1)*%
X157226000Y-120926500D03*
%TO.P,R63,2*%
%TO.N,GND*%
X157226000Y-118926500D03*
%TD*%
D17*
%TO.P,C23,1*%
%TO.N,Net-(C23-Pad1)*%
X154686000Y-129070500D03*
%TO.P,C23,2*%
%TO.N,GND*%
X154686000Y-125945500D03*
%TD*%
D20*
%TO.P,R64,1*%
%TO.N,Net-(C23-Pad1)*%
X157226000Y-128546500D03*
%TO.P,R64,2*%
%TO.N,GND*%
X157226000Y-126546500D03*
%TD*%
D19*
%TO.P,R70,1*%
%TO.N,DI4_input*%
X148860000Y-113792000D03*
%TO.P,R70,2*%
%TO.N,Net-(C21-Pad1)*%
X150860000Y-113792000D03*
%TD*%
D18*
%TO.P,R57,1*%
%TO.N,DIQ7*%
X159766000Y-134166500D03*
%TO.P,R57,2*%
%TO.N,Net-(C24-Pad1)*%
X159766000Y-136166500D03*
%TD*%
D19*
%TO.P,R69,1*%
%TO.N,DI3_input*%
X148860000Y-106172000D03*
%TO.P,R69,2*%
%TO.N,Net-(C20-Pad1)*%
X150860000Y-106172000D03*
%TD*%
D20*
%TO.P,R58,1*%
%TO.N,Net-(C17-Pad1)*%
X157226000Y-82788000D03*
%TO.P,R58,2*%
%TO.N,GND*%
X157226000Y-80788000D03*
%TD*%
%TO.P,R65,1*%
%TO.N,Net-(C24-Pad1)*%
X157226000Y-136166500D03*
%TO.P,R65,2*%
%TO.N,GND*%
X157226000Y-134166500D03*
%TD*%
%TO.P,R59,1*%
%TO.N,Net-(C18-Pad1)*%
X157226000Y-90446500D03*
%TO.P,R59,2*%
%TO.N,GND*%
X157226000Y-88446500D03*
%TD*%
D18*
%TO.P,R56,1*%
%TO.N,DIQ6*%
X159766000Y-126546500D03*
%TO.P,R56,2*%
%TO.N,Net-(C23-Pad1)*%
X159766000Y-128546500D03*
%TD*%
D20*
%TO.P,R61,1*%
%TO.N,Net-(C20-Pad1)*%
X157226000Y-105686500D03*
%TO.P,R61,2*%
%TO.N,GND*%
X157226000Y-103686500D03*
%TD*%
D19*
%TO.P,R71,1*%
%TO.N,DI5_input*%
X148860000Y-121412000D03*
%TO.P,R71,2*%
%TO.N,Net-(C22-Pad1)*%
X150860000Y-121412000D03*
%TD*%
D17*
%TO.P,C17,1*%
%TO.N,Net-(C17-Pad1)*%
X154686000Y-83350500D03*
%TO.P,C17,2*%
%TO.N,GND*%
X154686000Y-80225500D03*
%TD*%
%TO.P,C20,1*%
%TO.N,Net-(C20-Pad1)*%
X154686000Y-106210500D03*
%TO.P,C20,2*%
%TO.N,GND*%
X154686000Y-103085500D03*
%TD*%
D22*
%TO.N,GND*%
X152908000Y-95504000D03*
X131318000Y-68072000D03*
X130556000Y-67310000D03*
X149860000Y-122936000D03*
X149860000Y-84836000D03*
D23*
X172720000Y-137668000D03*
X174244000Y-107188000D03*
D22*
X152908000Y-103124000D03*
X152908000Y-110744000D03*
D23*
X174244000Y-137668000D03*
D22*
X132080000Y-68072000D03*
X137414000Y-118618000D03*
X152908000Y-125984000D03*
X129032000Y-109651997D03*
X123037600Y-99517200D03*
X152908000Y-133604000D03*
X123698000Y-65913000D03*
D23*
X174244000Y-84328000D03*
D22*
X152908000Y-80264000D03*
D23*
X174244000Y-91948000D03*
D22*
X135407200Y-98298000D03*
X152908000Y-118364000D03*
X150368000Y-69850000D03*
D23*
X172720000Y-107188000D03*
D22*
X141478000Y-80264000D03*
D23*
X172720000Y-114808000D03*
D22*
X149860000Y-115316000D03*
X149860000Y-107696000D03*
D23*
X174244000Y-114808000D03*
D22*
X134112000Y-97536000D03*
X132080000Y-67310000D03*
D23*
X174244000Y-122428000D03*
D22*
X118110000Y-120650000D03*
D23*
X172466000Y-130048000D03*
X173990000Y-130048000D03*
D22*
X121335804Y-91059000D03*
X149860000Y-100076000D03*
X140208000Y-74422000D03*
X140120695Y-105031487D03*
D23*
X172720000Y-84328000D03*
D22*
X140208000Y-75946000D03*
X135289272Y-110229966D03*
X118618000Y-122936000D03*
X118110000Y-116078000D03*
X138818454Y-93352454D03*
X134112000Y-98298000D03*
X130556000Y-68072000D03*
D23*
X172720000Y-91948000D03*
D22*
X135407200Y-97536000D03*
X131318000Y-67310000D03*
X140208000Y-75184000D03*
X118079989Y-111475995D03*
X118364000Y-131318000D03*
D23*
X172720000Y-99568000D03*
D22*
X140716000Y-80264000D03*
X149860000Y-130556000D03*
X149860000Y-92456000D03*
X149860000Y-138176000D03*
X119049800Y-61823600D03*
D23*
X174244000Y-99568000D03*
D22*
X126492000Y-114300000D03*
X135407200Y-99060000D03*
X118109986Y-62484000D03*
X134112000Y-99060000D03*
X120954800Y-82651600D03*
X152908000Y-87884000D03*
D23*
X172720000Y-122428000D03*
D22*
X142240000Y-80264000D03*
%TO.N,SCK_I*%
X112115600Y-93294200D03*
X108712000Y-91668600D03*
%TO.N,CS5_I*%
X108712000Y-106680000D03*
%TO.N,+5V isolated*%
X103657400Y-81483200D03*
%TO.N,MOSI_I*%
X110667800Y-90170000D03*
%TO.N,+3.3V isolated*%
X113715800Y-104673400D03*
X103632000Y-84023200D03*
X113690400Y-88569800D03*
%TO.N,CS4_I*%
X108712000Y-104140000D03*
%TO.N,CS13_I*%
X103632000Y-106680000D03*
%TO.N,CS2_I*%
X108712000Y-99314000D03*
%TO.N,MISO_I*%
X110693200Y-87706200D03*
%TO.N,SIG1_I*%
X103606600Y-89052400D03*
%TO.N,SIG3_I*%
X103632000Y-93929200D03*
%TO.N,CS3_I*%
X108712000Y-101600000D03*
%TO.N,CS6_I*%
X108712000Y-109220000D03*
%TO.N,CS7_I*%
X108712000Y-112014000D03*
%TO.N,CS0_I*%
X110794800Y-95275400D03*
X111618000Y-92623753D03*
%TO.N,CS9_I*%
X106172000Y-115570000D03*
%TO.N,GND isolated*%
X113715800Y-99618800D03*
X108712000Y-81559400D03*
X112318800Y-91059000D03*
X113461800Y-82651600D03*
X108737406Y-84074000D03*
%TO.N,CS10_I*%
X103632000Y-114300000D03*
%TO.N,CS8_I*%
X108712000Y-114300000D03*
%TO.N,CS1_I*%
X108712000Y-96520000D03*
%TO.N,CS14_I*%
X103632000Y-104140000D03*
%TO.N,CS15_I*%
X103632000Y-101600000D03*
%TO.N,CS11_I*%
X103632000Y-111760000D03*
%TO.N,CS12_I*%
X103632000Y-108966000D03*
%TO.N,+3.3V*%
X140234400Y-104201234D03*
X129540000Y-122936000D03*
X122275600Y-88620600D03*
X140716000Y-98044016D03*
X120650000Y-120650000D03*
X120679999Y-111476001D03*
X120650000Y-116078000D03*
X135765000Y-113637061D03*
X124663200Y-97637600D03*
X131343400Y-112471200D03*
X129032000Y-110489984D03*
D23*
%TO.N,+24V*%
X161544000Y-91948000D03*
X161544000Y-99568000D03*
X161544000Y-130048000D03*
X163068000Y-130048000D03*
X163068000Y-99568000D03*
X163068000Y-107188000D03*
X163068000Y-114808000D03*
X163068000Y-122428000D03*
X161544000Y-137668000D03*
X163068000Y-91948000D03*
X152400000Y-69596000D03*
X161544000Y-114808000D03*
X161544000Y-84328000D03*
X141986000Y-63500000D03*
X163068000Y-84328000D03*
X141986000Y-65024000D03*
X161544000Y-122428000D03*
X141986000Y-66548000D03*
X163068000Y-137668000D03*
X161544000Y-107188000D03*
%TO.N,DIQ0*%
X172974000Y-81788000D03*
X163322000Y-81788000D03*
X174498000Y-81788000D03*
X161798000Y-81788000D03*
X161798000Y-80264000D03*
X172974000Y-80264000D03*
X163322000Y-80264000D03*
X174498000Y-80264000D03*
%TO.N,DIQ1*%
X172977187Y-89365718D03*
X172974000Y-87884000D03*
X161801187Y-89365718D03*
X174498000Y-89408000D03*
X163322000Y-89408000D03*
X163322000Y-87884000D03*
X174498000Y-87884000D03*
X161798000Y-87884000D03*
%TO.N,DIQ5*%
X174498000Y-118364000D03*
X161798000Y-119888000D03*
X172974000Y-118364000D03*
X172974000Y-119888000D03*
X163322000Y-118364000D03*
X161798000Y-118364000D03*
X174498000Y-119888000D03*
X163322000Y-119888000D03*
%TO.N,DIQ4*%
X172974000Y-112268000D03*
X163322000Y-110744000D03*
X163322000Y-112268000D03*
X172974000Y-110744000D03*
X174498000Y-112268000D03*
X161798000Y-112268000D03*
X174498000Y-110744000D03*
X161798000Y-110744000D03*
%TO.N,DIQ2*%
X174498000Y-97028000D03*
X172974000Y-97028000D03*
X163322000Y-95504000D03*
X174498000Y-95504000D03*
X172974000Y-95504000D03*
X161798000Y-95504000D03*
X163322000Y-97028000D03*
X161798000Y-97028000D03*
%TO.N,DIQ3*%
X161798000Y-104648000D03*
X174498000Y-104648000D03*
X172974000Y-103124000D03*
X172974000Y-104648000D03*
X174498000Y-103124000D03*
X163322000Y-104648000D03*
X163322000Y-103124000D03*
X161798000Y-103124000D03*
%TO.N,DIQ7*%
X161798000Y-135128000D03*
X172974000Y-135128000D03*
X172974000Y-133604000D03*
X163322000Y-133604000D03*
X174498000Y-135128000D03*
X163322000Y-135128000D03*
X174498000Y-133604000D03*
X161798000Y-133604000D03*
%TO.N,DIQ6*%
X161798000Y-127508000D03*
X172974000Y-125984000D03*
X172974000Y-127508000D03*
X174498000Y-125984000D03*
X163322000Y-125984000D03*
X163322000Y-127508000D03*
X174498000Y-127508000D03*
X161798000Y-125984000D03*
D22*
%TO.N,SWDIO*%
X132642949Y-104886834D03*
%TO.N,SWCLK*%
X131971219Y-105387860D03*
%TO.N,DI4_input*%
X138988800Y-110794800D03*
%TO.N,DQ2_High*%
X144627600Y-97510600D03*
X138557000Y-102082600D03*
%TO.N,DI7_input*%
X136499600Y-112928400D03*
%TO.N,DQ0_Low*%
X145796004Y-77724000D03*
X134797806Y-101168200D03*
%TO.N,DQ1_Low*%
X145941807Y-86000499D03*
X136393506Y-101136210D03*
%TO.N,DI3_input*%
X140817598Y-110342351D03*
%TO.N,DQ7_Low*%
X132080000Y-108483400D03*
X145008592Y-131394200D03*
%TO.N,DI6_input*%
X137515600Y-112852202D03*
%TO.N,DQ0_High*%
X145719800Y-82397600D03*
X135559603Y-101219000D03*
%TO.N,DQ7_High*%
X131658747Y-109403000D03*
X144576800Y-133553200D03*
%TO.N,DI5_input*%
X137922000Y-111658400D03*
%TO.N,DI0_input*%
X140821091Y-107648011D03*
%TO.N,DI1_input*%
X140806495Y-108485887D03*
%TO.N,DQ5_Low*%
X140893800Y-118211600D03*
X132664200Y-107061000D03*
%TO.N,DQ5_High*%
X132689600Y-107873800D03*
X141249402Y-119278400D03*
%TO.N,LED_ORANGE*%
X133070600Y-101295200D03*
X169392600Y-73787000D03*
%TO.N,LED_RED*%
X133883400Y-101269800D03*
X169621200Y-74853800D03*
%TO.N,DQ6_High*%
X132659103Y-113781525D03*
X144526000Y-126619000D03*
%TO.N,DI2_input*%
X140817600Y-109347000D03*
%TO.N,DQ2_Low*%
X144246600Y-96672400D03*
X138150600Y-101447600D03*
%TO.N,V_SENSE*%
X150875994Y-77216000D03*
X140106400Y-107315000D03*
%TO.N,DQ1_High*%
X145237200Y-89712800D03*
X137388600Y-101219000D03*
%TO.N,LED_GREEN*%
X132308600Y-101396800D03*
X167005000Y-73101200D03*
%TO.N,DQ6_Low*%
X145643600Y-123647200D03*
X133400800Y-113182400D03*
%TO.N,DQ3_High*%
X137414000Y-106426000D03*
X143764000Y-103886000D03*
%TO.N,Net-(U2-TC)*%
X122453400Y-62382400D03*
X123698000Y-64490997D03*
%TO.N,SIG2_I*%
X103632000Y-91516200D03*
%TO.N,SIG0_I*%
X103657400Y-86487000D03*
%TO.N,CONFIG_0*%
X133858000Y-104698800D03*
X119380000Y-111455154D03*
%TO.N,CONFIG_1*%
X119354600Y-116078000D03*
X129768600Y-111378998D03*
%TO.N,Net-(U2-Vfb)*%
X131571982Y-66040000D03*
X120141996Y-62484000D03*
%TO.N,SIG4_I*%
X103657400Y-96647000D03*
%TD*%
D24*
%TO.N,GND*%
X157226000Y-134166500D02*
X155287000Y-134166500D01*
X155287000Y-126546500D02*
X154686000Y-125945500D01*
X157226000Y-118926500D02*
X155287000Y-118926500D01*
X154686000Y-118325500D02*
X152946500Y-118325500D01*
X155287000Y-134166500D02*
X154686000Y-133565500D01*
X152946500Y-87845500D02*
X152908000Y-87884000D01*
X154686000Y-110705500D02*
X152946500Y-110705500D01*
X154686000Y-133565500D02*
X152946500Y-133565500D01*
X154686000Y-125945500D02*
X152946500Y-125945500D01*
X155287000Y-111306500D02*
X154686000Y-110705500D01*
X155287000Y-118926500D02*
X154686000Y-118325500D01*
X154686000Y-80225500D02*
X155155500Y-80225500D01*
X157226000Y-126546500D02*
X155287000Y-126546500D01*
X152946500Y-110705500D02*
X152908000Y-110744000D01*
X152946500Y-133565500D02*
X152908000Y-133604000D01*
X155287000Y-103686500D02*
X154686000Y-103085500D01*
X157226000Y-103686500D02*
X155287000Y-103686500D01*
X152946500Y-95465500D02*
X152908000Y-95504000D01*
X154686000Y-87845500D02*
X152946500Y-87845500D01*
X152946500Y-80225500D02*
X152908000Y-80264000D01*
X157226000Y-111306500D02*
X155287000Y-111306500D01*
X152946500Y-103085500D02*
X152908000Y-103124000D01*
X152946500Y-125945500D02*
X152908000Y-125984000D01*
X152946500Y-118325500D02*
X152908000Y-118364000D01*
X155287000Y-96066500D02*
X154686000Y-95465500D01*
X154686000Y-103085500D02*
X152946500Y-103085500D01*
X157226000Y-96066500D02*
X155287000Y-96066500D01*
X154686000Y-95465500D02*
X152946500Y-95465500D01*
X155718000Y-80788000D02*
X157226000Y-80788000D01*
X154686000Y-80225500D02*
X152946500Y-80225500D01*
X155287000Y-88446500D02*
X154686000Y-87845500D01*
X157226000Y-88446500D02*
X155287000Y-88446500D01*
X155155500Y-80225500D02*
X155718000Y-80788000D01*
%TO.N,SCK_I*%
X108712000Y-91668600D02*
X108712000Y-92695000D01*
X111488748Y-91668600D02*
X112202000Y-92381852D01*
X112202000Y-93207800D02*
X112115600Y-93294200D01*
X112202000Y-92381852D02*
X112202000Y-93207800D01*
X108712000Y-92695000D02*
X108697000Y-92710000D01*
X108712000Y-91668600D02*
X111488748Y-91668600D01*
%TO.N,CS5_I*%
X108712000Y-105425000D02*
X108697000Y-105410000D01*
X108712000Y-106680000D02*
X108712000Y-105425000D01*
%TO.N,+5V isolated*%
X103647000Y-81493600D02*
X103657400Y-81483200D01*
X103647000Y-82550000D02*
X103647000Y-81493600D01*
%TO.N,MOSI_I*%
X108697000Y-90170000D02*
X110667800Y-90170000D01*
%TO.N,+3.3V isolated*%
X103647000Y-85090000D02*
X103647000Y-84038200D01*
X103647000Y-84038200D02*
X103632000Y-84023200D01*
%TO.N,CS4_I*%
X108712000Y-102885000D02*
X108697000Y-102870000D01*
X108712000Y-104140000D02*
X108712000Y-102885000D01*
%TO.N,CS13_I*%
X103632000Y-107935000D02*
X103647000Y-107950000D01*
X103632000Y-106680000D02*
X103632000Y-107935000D01*
%TO.N,CS2_I*%
X108712000Y-99314000D02*
X108712000Y-97805000D01*
X108712000Y-97805000D02*
X108697000Y-97790000D01*
%TO.N,MISO_I*%
X108697000Y-87630000D02*
X110617000Y-87630000D01*
X110617000Y-87630000D02*
X110693200Y-87706200D01*
%TO.N,SIG1_I*%
X103647000Y-90170000D02*
X103647000Y-89092800D01*
X103647000Y-89092800D02*
X103606600Y-89052400D01*
%TO.N,SIG3_I*%
X103647000Y-95250000D02*
X103647000Y-93944200D01*
X103647000Y-93944200D02*
X103632000Y-93929200D01*
%TO.N,CS3_I*%
X108712000Y-101600000D02*
X108712000Y-100345000D01*
X108712000Y-100345000D02*
X108697000Y-100330000D01*
%TO.N,CS6_I*%
X108712000Y-107965000D02*
X108697000Y-107950000D01*
X108712000Y-109220000D02*
X108712000Y-107965000D01*
%TO.N,CS7_I*%
X108712000Y-112014000D02*
X108712000Y-110505000D01*
X108712000Y-110505000D02*
X108697000Y-110490000D01*
%TO.N,CS0_I*%
X111618000Y-92623753D02*
X110794800Y-93446953D01*
X110794800Y-93446953D02*
X110794800Y-95275400D01*
%TO.N,CS9_I*%
X106172000Y-115570000D02*
X108697000Y-115570000D01*
%TO.N,GND isolated*%
X108697000Y-85090000D02*
X108697000Y-84114406D01*
X108697000Y-84114406D02*
X108737406Y-84074000D01*
X108697000Y-81574400D02*
X108712000Y-81559400D01*
X108697000Y-82550000D02*
X108697000Y-81574400D01*
%TO.N,CS10_I*%
X103632000Y-115555000D02*
X103647000Y-115570000D01*
X103632000Y-114300000D02*
X103632000Y-115555000D01*
%TO.N,CS8_I*%
X108712000Y-113045000D02*
X108697000Y-113030000D01*
X108712000Y-114300000D02*
X108712000Y-113045000D01*
%TO.N,CS1_I*%
X108712000Y-95265000D02*
X108697000Y-95250000D01*
X108712000Y-96520000D02*
X108712000Y-95265000D01*
%TO.N,CS14_I*%
X103632000Y-104140000D02*
X103632000Y-105395000D01*
X103632000Y-105395000D02*
X103647000Y-105410000D01*
%TO.N,CS15_I*%
X103632000Y-102855000D02*
X103647000Y-102870000D01*
X103632000Y-101600000D02*
X103632000Y-102855000D01*
%TO.N,CS11_I*%
X103632000Y-111760000D02*
X103632000Y-113015000D01*
X103632000Y-113015000D02*
X103647000Y-113030000D01*
%TO.N,CS12_I*%
X103632000Y-110475000D02*
X103647000Y-110490000D01*
X103632000Y-108966000D02*
X103632000Y-110475000D01*
%TO.N,SWDIO*%
X137502000Y-124700400D02*
X130759400Y-117957800D01*
X138938000Y-132334000D02*
X137502000Y-130898000D01*
X130759400Y-107605185D02*
X132642949Y-105721636D01*
X137502000Y-130898000D02*
X137502000Y-124700400D01*
X132642949Y-105721636D02*
X132642949Y-104886834D01*
X130759400Y-117957800D02*
X130759400Y-107605185D01*
%TO.N,SWCLK*%
X130378400Y-106980679D02*
X131971219Y-105387860D01*
X135294000Y-123869416D02*
X130378400Y-118953816D01*
X136398000Y-132334000D02*
X135294000Y-131230000D01*
X135294000Y-131230000D02*
X135294000Y-123869416D01*
X130378400Y-118953816D02*
X130378400Y-106980679D01*
%TO.N,DI4_input*%
X148860000Y-113792000D02*
X141986000Y-113792000D01*
X141986000Y-113792000D02*
X138988800Y-110794800D01*
%TO.N,DQ2_High*%
X140055600Y-102082600D02*
X138557000Y-102082600D01*
X144627600Y-97510600D02*
X140055600Y-102082600D01*
%TO.N,DI7_input*%
X142671600Y-118907694D02*
X136692306Y-112928400D01*
X148006000Y-136052000D02*
X148006000Y-124434800D01*
X136692306Y-112928400D02*
X136499600Y-112928400D01*
X142671600Y-119100400D02*
X142671600Y-118907694D01*
X148860000Y-136906000D02*
X148006000Y-136052000D01*
X148006000Y-124434800D02*
X142671600Y-119100400D01*
%TO.N,DQ0_Low*%
X134797806Y-88722194D02*
X145796000Y-77724000D01*
X134797806Y-101168200D02*
X134797806Y-88722194D01*
X145796000Y-77724000D02*
X145796004Y-77724000D01*
%TO.N,DQ1_Low*%
X136393506Y-100967996D02*
X136393506Y-101136210D01*
X144653200Y-92708302D02*
X136393506Y-100967996D01*
X145941807Y-86000499D02*
X144653200Y-87289106D01*
X144653200Y-87289106D02*
X144653200Y-92708302D01*
%TO.N,DI3_input*%
X144689649Y-110342351D02*
X140817598Y-110342351D01*
X148860000Y-106172000D02*
X144689649Y-110342351D01*
%TO.N,DQ7_Low*%
X132511600Y-108915000D02*
X132511600Y-112923522D01*
X132080000Y-108483400D02*
X132511600Y-108915000D01*
X132511600Y-112923522D02*
X131851400Y-113583722D01*
X145008592Y-130240360D02*
X145008592Y-131394200D01*
X131851400Y-117083168D02*
X145008592Y-130240360D01*
X131851400Y-113583722D02*
X131851400Y-117083168D01*
%TO.N,DI6_input*%
X143052600Y-118389202D02*
X137515600Y-112852202D01*
X143052600Y-118866721D02*
X143052600Y-118389202D01*
X148860000Y-129032000D02*
X148860000Y-124674121D01*
X148860000Y-124674121D02*
X143052600Y-118866721D01*
%TO.N,DQ0_High*%
X144056100Y-91935300D02*
X135559603Y-100431797D01*
X145719800Y-82397600D02*
X145719800Y-85396605D01*
X135559603Y-100431797D02*
X135559603Y-101219000D01*
X145719800Y-85396605D02*
X144056100Y-87060305D01*
X144056100Y-87060305D02*
X144056100Y-91935300D01*
%TO.N,DQ7_High*%
X132130600Y-109874853D02*
X132130600Y-112765706D01*
X131470400Y-113425906D02*
X131470400Y-117240985D01*
X132130600Y-112765706D02*
X131470400Y-113425906D01*
X137883000Y-123653585D02*
X137883000Y-125101384D01*
X137883000Y-125101384D02*
X144576800Y-131795184D01*
X144576800Y-131795184D02*
X144576800Y-133553200D01*
X131658747Y-109403000D02*
X132130600Y-109874853D01*
X131470400Y-117240985D02*
X137883000Y-123653585D01*
%TO.N,DI5_input*%
X148860000Y-121412000D02*
X146136694Y-121412000D01*
X146136694Y-121412000D02*
X143815000Y-119090306D01*
X143815000Y-117551400D02*
X137922000Y-111658400D01*
X143815000Y-119090306D02*
X143815000Y-117551400D01*
%TO.N,DI0_input*%
X148860000Y-89087200D02*
X147320000Y-90627200D01*
X147320000Y-102566106D02*
X142238095Y-107648011D01*
X147320000Y-90627200D02*
X147320000Y-102566106D01*
X142238095Y-107648011D02*
X140821091Y-107648011D01*
X148860000Y-83312000D02*
X148860000Y-89087200D01*
%TO.N,DI1_input*%
X147701000Y-102723922D02*
X141939035Y-108485887D01*
X141939035Y-108485887D02*
X140806495Y-108485887D01*
X147701000Y-92091000D02*
X147701000Y-102723922D01*
X148860000Y-90932000D02*
X147701000Y-92091000D01*
%TO.N,DQ5_Low*%
X139877800Y-118211600D02*
X138557000Y-116890800D01*
X132715000Y-107061000D02*
X132664200Y-107061000D01*
X140893800Y-118211600D02*
X139877800Y-118211600D01*
X138192838Y-116890800D02*
X134365800Y-113063762D01*
X134365800Y-113063762D02*
X134365800Y-108711800D01*
X138557000Y-116890800D02*
X138192838Y-116890800D01*
X134365800Y-108711800D02*
X132715000Y-107061000D01*
%TO.N,DQ5_High*%
X133984800Y-113797215D02*
X139465985Y-119278400D01*
X133984800Y-109169000D02*
X133984800Y-113797215D01*
X139465985Y-119278400D02*
X141249402Y-119278400D01*
X132689600Y-107873800D02*
X133984800Y-109169000D01*
%TO.N,LED_ORANGE*%
X133070600Y-86334600D02*
X145618200Y-73787000D01*
X133070600Y-86334600D02*
X133070600Y-101295200D01*
X169392600Y-73787000D02*
X145618200Y-73787000D01*
%TO.N,LED_RED*%
X133883400Y-101269800D02*
X133528000Y-100914400D01*
X133528000Y-86626099D02*
X145300299Y-74853800D01*
X133528000Y-100914400D02*
X133528000Y-86626099D01*
X145300299Y-74853800D02*
X169621200Y-74853800D01*
%TO.N,DQ6_High*%
X132765800Y-113888222D02*
X132659103Y-113781525D01*
X144526000Y-126619000D02*
X132765800Y-114858800D01*
X132765800Y-114858800D02*
X132765800Y-113888222D01*
%TO.N,DI2_input*%
X148860000Y-98552000D02*
X148860000Y-102447600D01*
X141960600Y-109347000D02*
X140817600Y-109347000D01*
X148860000Y-102447600D02*
X141960600Y-109347000D01*
%TO.N,DQ2_Low*%
X139471400Y-101447600D02*
X138150600Y-101447600D01*
X144246600Y-96672400D02*
X139471400Y-101447600D01*
%TO.N,V_SENSE*%
X146685000Y-81406994D02*
X150875994Y-77216000D01*
X146685000Y-102311200D02*
X146685000Y-81406994D01*
X140357389Y-107064011D02*
X141932189Y-107064011D01*
X141932189Y-107064011D02*
X146685000Y-102311200D01*
X140106400Y-107315000D02*
X140357389Y-107064011D01*
%TO.N,DQ1_High*%
X145237200Y-89712800D02*
X145237200Y-92695926D01*
X137388600Y-100544526D02*
X137388600Y-101219000D01*
X145237200Y-92695926D02*
X137388600Y-100544526D01*
%TO.N,LED_GREEN*%
X132308600Y-101396800D02*
X132308600Y-86283800D01*
X145491200Y-73101200D02*
X167005000Y-73101200D01*
X132308600Y-86283800D02*
X145491200Y-73101200D01*
%TO.N,DQ6_Low*%
X133400800Y-114234630D02*
X133400800Y-113182400D01*
X135915400Y-116281200D02*
X135447370Y-116281200D01*
X135447370Y-116281200D02*
X133400800Y-114234630D01*
X145643600Y-123647200D02*
X143281400Y-123647200D01*
X143281400Y-123647200D02*
X135915400Y-116281200D01*
%TO.N,DQ3_High*%
X137414000Y-106426000D02*
X141732000Y-106426000D01*
X143764000Y-104394000D02*
X143764000Y-103886000D01*
X141732000Y-106426000D02*
X143764000Y-104394000D01*
%TO.N,Net-(U2-TC)*%
X123698000Y-64490997D02*
X122428000Y-63220997D01*
X122428000Y-63220997D02*
X122428000Y-62407800D01*
X122428000Y-62407800D02*
X122453400Y-62382400D01*
%TO.N,SIG2_I*%
X103647000Y-91531200D02*
X103632000Y-91516200D01*
X103647000Y-92710000D02*
X103647000Y-91531200D01*
%TO.N,SIG0_I*%
X103647000Y-87630000D02*
X103647000Y-86497400D01*
X103647000Y-86497400D02*
X103657400Y-86487000D01*
%TO.N,CONFIG_0*%
X133858000Y-104698800D02*
X133462034Y-104302834D01*
X133462034Y-104302834D02*
X126532320Y-104302834D01*
X126532320Y-104302834D02*
X119380000Y-111455154D01*
%TO.N,CONFIG_1*%
X123545602Y-111378998D02*
X119354600Y-115570000D01*
X119354600Y-115570000D02*
X119354600Y-116078000D01*
X129768600Y-111378998D02*
X123545602Y-111378998D01*
%TO.N,Net-(C17-Pad1)*%
X154686000Y-83350500D02*
X150898500Y-83350500D01*
X159512000Y-82788000D02*
X157226000Y-82788000D01*
X155248500Y-82788000D02*
X154686000Y-83350500D01*
X150898500Y-83350500D02*
X150860000Y-83312000D01*
X157226000Y-82788000D02*
X155248500Y-82788000D01*
%TO.N,Net-(C18-Pad1)*%
X155210000Y-90446500D02*
X154686000Y-90970500D01*
X150898500Y-90970500D02*
X150860000Y-90932000D01*
X157226000Y-90446500D02*
X155210000Y-90446500D01*
X154686000Y-90970500D02*
X150898500Y-90970500D01*
X159766000Y-90446500D02*
X157226000Y-90446500D01*
%TO.N,Net-(C19-Pad1)*%
X159766000Y-98066500D02*
X157226000Y-98066500D01*
X157226000Y-98066500D02*
X155210000Y-98066500D01*
X155210000Y-98066500D02*
X154686000Y-98590500D01*
X150898500Y-98590500D02*
X150860000Y-98552000D01*
X154686000Y-98590500D02*
X150898500Y-98590500D01*
%TO.N,Net-(C20-Pad1)*%
X154647500Y-106210500D02*
X154609000Y-106172000D01*
X154609000Y-106172000D02*
X150860000Y-106172000D01*
X155210000Y-105686500D02*
X154686000Y-106210500D01*
X157226000Y-105686500D02*
X155210000Y-105686500D01*
X154686000Y-106210500D02*
X154647500Y-106210500D01*
X159766000Y-105686500D02*
X157226000Y-105686500D01*
%TO.N,Net-(C21-Pad1)*%
X155210000Y-113306500D02*
X154686000Y-113830500D01*
X154686000Y-113830500D02*
X150898500Y-113830500D01*
X150898500Y-113830500D02*
X150860000Y-113792000D01*
X159766000Y-113306500D02*
X157226000Y-113306500D01*
X157226000Y-113306500D02*
X155210000Y-113306500D01*
%TO.N,Net-(C22-Pad1)*%
X159766000Y-120926500D02*
X157226000Y-120926500D01*
X157226000Y-120926500D02*
X155210000Y-120926500D01*
X155210000Y-120926500D02*
X154686000Y-121450500D01*
X154686000Y-121450500D02*
X150898500Y-121450500D01*
X150898500Y-121450500D02*
X150860000Y-121412000D01*
%TO.N,Net-(C23-Pad1)*%
X157226000Y-128546500D02*
X155210000Y-128546500D01*
X159766000Y-128546500D02*
X157226000Y-128546500D01*
X150898500Y-129070500D02*
X150860000Y-129032000D01*
X155210000Y-128546500D02*
X154686000Y-129070500D01*
X154686000Y-129070500D02*
X150898500Y-129070500D01*
%TO.N,Net-(C24-Pad1)*%
X154686000Y-136690500D02*
X151075500Y-136690500D01*
X155210000Y-136166500D02*
X154686000Y-136690500D01*
X157226000Y-136166500D02*
X155210000Y-136166500D01*
X151075500Y-136690500D02*
X150860000Y-136906000D01*
X159766000Y-136166500D02*
X157226000Y-136166500D01*
%TO.N,Net-(U2-Vfb)*%
X123941506Y-65278000D02*
X121930494Y-65278000D01*
X124703506Y-66040000D02*
X123941506Y-65278000D01*
X131571982Y-66040000D02*
X124703506Y-66040000D01*
X120141996Y-63489502D02*
X120141996Y-62484000D01*
X121930494Y-65278000D02*
X120141996Y-63489502D01*
%TO.N,SIG4_I*%
X103647000Y-96657400D02*
X103657400Y-96647000D01*
X103647000Y-97790000D02*
X103647000Y-96657400D01*
%TD*%
%TA.AperFunction,Conductor*%
%TO.N,DIQ5*%
G36*
X187268039Y-114319685D02*
G01*
X187313794Y-114372489D01*
X187325000Y-114424000D01*
X187325000Y-119123500D01*
X187305315Y-119190539D01*
X187252511Y-119236294D01*
X187201000Y-119247500D01*
X179121362Y-119247500D01*
X179112863Y-119247955D01*
X179107191Y-119248259D01*
X179080849Y-119251091D01*
X179080829Y-119251095D01*
X179031508Y-119266539D01*
X178970178Y-119300027D01*
X178939998Y-119322619D01*
X178939983Y-119322632D01*
X175108935Y-123153681D01*
X175047612Y-123187166D01*
X175021254Y-123190000D01*
X174931542Y-123190000D01*
X174864503Y-123170315D01*
X174818748Y-123117511D01*
X174808804Y-123048353D01*
X174837829Y-122984797D01*
X174843861Y-122978319D01*
X174883887Y-122938293D01*
X174981394Y-122783110D01*
X175041926Y-122610121D01*
X175062446Y-122428000D01*
X175060743Y-122412889D01*
X175041927Y-122245884D01*
X175041926Y-122245882D01*
X175041926Y-122245879D01*
X174981394Y-122072890D01*
X174883887Y-121917707D01*
X174754293Y-121788113D01*
X174599110Y-121690606D01*
X174599109Y-121690605D01*
X174599108Y-121690605D01*
X174599106Y-121690604D01*
X174426115Y-121630072D01*
X174244004Y-121609554D01*
X174243996Y-121609554D01*
X174061884Y-121630072D01*
X173888893Y-121690604D01*
X173888891Y-121690605D01*
X173733706Y-121788113D01*
X173604113Y-121917706D01*
X173586994Y-121944952D01*
X173534659Y-121991243D01*
X173465605Y-122001891D01*
X173401757Y-121973516D01*
X173377006Y-121944952D01*
X173359887Y-121917707D01*
X173230293Y-121788113D01*
X173075110Y-121690606D01*
X173075109Y-121690605D01*
X173075108Y-121690605D01*
X173075106Y-121690604D01*
X172902115Y-121630072D01*
X172720004Y-121609554D01*
X172719996Y-121609554D01*
X172537884Y-121630072D01*
X172364893Y-121690604D01*
X172364891Y-121690605D01*
X172209706Y-121788113D01*
X172080113Y-121917706D01*
X171982605Y-122072891D01*
X171982604Y-122072893D01*
X171922072Y-122245884D01*
X171901554Y-122427996D01*
X171901554Y-122428003D01*
X171922072Y-122610115D01*
X171982604Y-122783106D01*
X171982605Y-122783108D01*
X172080113Y-122938293D01*
X172120139Y-122978319D01*
X172153624Y-123039642D01*
X172148640Y-123109334D01*
X172106768Y-123165267D01*
X172041304Y-123189684D01*
X172032458Y-123190000D01*
X164166257Y-123190000D01*
X164099218Y-123170315D01*
X164053463Y-123117511D01*
X164043519Y-123048353D01*
X164055257Y-123010728D01*
X164091325Y-122938293D01*
X164138850Y-122842850D01*
X164196845Y-122639018D01*
X164216399Y-122428000D01*
X164196845Y-122216982D01*
X164138850Y-122013150D01*
X164044389Y-121823446D01*
X163916677Y-121654329D01*
X163916675Y-121654326D01*
X163760066Y-121511559D01*
X163760065Y-121511558D01*
X163623676Y-121427109D01*
X163579886Y-121399995D01*
X163579884Y-121399994D01*
X163435392Y-121344018D01*
X163382274Y-121323440D01*
X163173961Y-121284500D01*
X162962039Y-121284500D01*
X162753726Y-121323440D01*
X162753723Y-121323440D01*
X162753723Y-121323441D01*
X162556115Y-121399994D01*
X162556113Y-121399995D01*
X162371278Y-121514441D01*
X162303917Y-121532997D01*
X162240722Y-121514441D01*
X162055886Y-121399995D01*
X162055884Y-121399994D01*
X161911392Y-121344018D01*
X161858274Y-121323440D01*
X161649961Y-121284500D01*
X161438039Y-121284500D01*
X161229726Y-121323440D01*
X161229723Y-121323440D01*
X161229723Y-121323441D01*
X161032115Y-121399994D01*
X161032113Y-121399995D01*
X160851933Y-121511559D01*
X160735957Y-121617285D01*
X160673153Y-121647902D01*
X160631100Y-121642933D01*
X160641257Y-121695267D01*
X160616758Y-121758364D01*
X160567611Y-121823446D01*
X160473151Y-122013146D01*
X160415154Y-122216986D01*
X160395601Y-122427999D01*
X160395601Y-122428000D01*
X160415154Y-122639013D01*
X160415154Y-122639015D01*
X160415155Y-122639018D01*
X160456152Y-122783108D01*
X160473151Y-122842853D01*
X160556743Y-123010728D01*
X160569004Y-123079514D01*
X160542131Y-123144009D01*
X160484655Y-123183736D01*
X160445743Y-123190000D01*
X158493000Y-123190000D01*
X158425961Y-123170315D01*
X158380206Y-123117511D01*
X158369000Y-123066000D01*
X158369000Y-121305000D01*
X158388685Y-121237961D01*
X158441489Y-121192206D01*
X158493000Y-121181000D01*
X158814501Y-121181000D01*
X158881540Y-121200685D01*
X158927295Y-121253489D01*
X158938501Y-121305000D01*
X158938501Y-121312325D01*
X158949191Y-121385704D01*
X159004525Y-121498892D01*
X159093607Y-121587974D01*
X159093608Y-121587974D01*
X159093610Y-121587976D01*
X159206796Y-121643309D01*
X159280173Y-121654000D01*
X160251826Y-121653999D01*
X160325204Y-121643309D01*
X160438390Y-121587976D01*
X160438394Y-121587971D01*
X160445746Y-121582723D01*
X160511744Y-121559786D01*
X160540660Y-121566761D01*
X160528458Y-121528772D01*
X160541019Y-121471187D01*
X160548980Y-121454903D01*
X160582809Y-121385704D01*
X160593500Y-121312327D01*
X160593499Y-120540674D01*
X160582809Y-120467296D01*
X160527476Y-120354110D01*
X160527474Y-120354108D01*
X160527474Y-120354107D01*
X160438392Y-120265025D01*
X160438390Y-120265024D01*
X160379714Y-120236339D01*
X160328133Y-120189212D01*
X160310218Y-120121678D01*
X160331659Y-120055179D01*
X160385648Y-120010829D01*
X160395171Y-120007233D01*
X160535119Y-119960858D01*
X160535124Y-119960856D01*
X160684345Y-119868815D01*
X160808315Y-119744845D01*
X160900356Y-119595624D01*
X160900358Y-119595619D01*
X160955505Y-119429197D01*
X160955506Y-119429190D01*
X160965999Y-119326486D01*
X160966000Y-119326473D01*
X160966000Y-119176500D01*
X159640000Y-119176500D01*
X159572961Y-119156815D01*
X159527206Y-119104011D01*
X159516000Y-119052500D01*
X159516000Y-117826500D01*
X160016000Y-117826500D01*
X160016000Y-118676500D01*
X160965999Y-118676500D01*
X160965999Y-118526528D01*
X160965998Y-118526513D01*
X160955505Y-118423802D01*
X160900358Y-118257380D01*
X160900356Y-118257375D01*
X160808315Y-118108154D01*
X160684345Y-117984184D01*
X160535124Y-117892143D01*
X160535119Y-117892141D01*
X160368697Y-117836994D01*
X160368690Y-117836993D01*
X160265986Y-117826500D01*
X160016000Y-117826500D01*
X159516000Y-117826500D01*
X159266029Y-117826500D01*
X159266012Y-117826501D01*
X159163302Y-117836994D01*
X158996880Y-117892141D01*
X158996875Y-117892143D01*
X158847654Y-117984184D01*
X158723684Y-118108154D01*
X158631643Y-118257375D01*
X158631641Y-118257380D01*
X158610706Y-118320560D01*
X158570933Y-118378005D01*
X158506418Y-118404828D01*
X158437642Y-118392513D01*
X158386442Y-118344970D01*
X158369000Y-118281556D01*
X158369000Y-116964000D01*
X158388685Y-116896961D01*
X158441489Y-116851206D01*
X158493000Y-116840000D01*
X175260000Y-116840000D01*
X182806953Y-116840000D01*
X182827113Y-117109026D01*
X182827113Y-117109028D01*
X182887142Y-117372033D01*
X182887148Y-117372052D01*
X182985709Y-117623181D01*
X182985708Y-117623181D01*
X183120602Y-117856822D01*
X183174294Y-117924151D01*
X183174295Y-117924151D01*
X184010958Y-117087488D01*
X184035978Y-117147890D01*
X184107112Y-117254351D01*
X184197649Y-117344888D01*
X184304110Y-117416022D01*
X184364510Y-117441041D01*
X183526848Y-118278702D01*
X183709483Y-118403220D01*
X183709485Y-118403221D01*
X183952539Y-118520269D01*
X183952537Y-118520269D01*
X184210337Y-118599790D01*
X184210343Y-118599792D01*
X184477101Y-118639999D01*
X184477110Y-118640000D01*
X184746890Y-118640000D01*
X184746898Y-118639999D01*
X185013656Y-118599792D01*
X185013662Y-118599790D01*
X185271461Y-118520269D01*
X185514521Y-118403218D01*
X185697150Y-118278702D01*
X184859488Y-117441041D01*
X184919890Y-117416022D01*
X185026351Y-117344888D01*
X185116888Y-117254351D01*
X185188022Y-117147890D01*
X185213041Y-117087489D01*
X186049703Y-117924151D01*
X186049704Y-117924150D01*
X186103393Y-117856828D01*
X186103400Y-117856817D01*
X186238290Y-117623181D01*
X186336851Y-117372052D01*
X186336857Y-117372033D01*
X186396886Y-117109028D01*
X186396886Y-117109026D01*
X186417047Y-116840000D01*
X186417047Y-116839995D01*
X186396886Y-116570973D01*
X186396886Y-116570971D01*
X186336857Y-116307966D01*
X186336851Y-116307947D01*
X186238290Y-116056818D01*
X186238291Y-116056818D01*
X186103397Y-115823177D01*
X186049704Y-115755847D01*
X185213041Y-116592510D01*
X185188022Y-116532110D01*
X185116888Y-116425649D01*
X185026351Y-116335112D01*
X184919890Y-116263978D01*
X184859488Y-116238958D01*
X185697150Y-115401296D01*
X185514517Y-115276779D01*
X185514516Y-115276778D01*
X185271460Y-115159730D01*
X185271462Y-115159730D01*
X185013662Y-115080209D01*
X185013656Y-115080207D01*
X184746898Y-115040000D01*
X184477101Y-115040000D01*
X184210343Y-115080207D01*
X184210337Y-115080209D01*
X183952538Y-115159730D01*
X183709485Y-115276778D01*
X183709476Y-115276783D01*
X183526848Y-115401296D01*
X184364511Y-116238958D01*
X184304110Y-116263978D01*
X184197649Y-116335112D01*
X184107112Y-116425649D01*
X184035978Y-116532110D01*
X184010958Y-116592511D01*
X183174295Y-115755848D01*
X183120600Y-115823180D01*
X182985709Y-116056818D01*
X182887148Y-116307947D01*
X182887142Y-116307966D01*
X182827113Y-116570971D01*
X182827113Y-116570973D01*
X182806953Y-116839995D01*
X182806953Y-116840000D01*
X175260000Y-116840000D01*
X177763681Y-114336319D01*
X177825004Y-114302834D01*
X177851362Y-114300000D01*
X187201000Y-114300000D01*
X187268039Y-114319685D01*
G37*
%TD.AperFunction*%
%TD*%
%TA.AperFunction,Conductor*%
%TO.N,DIQ0*%
G36*
X178251039Y-78759685D02*
G01*
X178296794Y-78812489D01*
X178308000Y-78864000D01*
X178308000Y-83820000D01*
X180497299Y-86252555D01*
X182880000Y-88900000D01*
X187201000Y-88900000D01*
X187268039Y-88919685D01*
X187313794Y-88972489D01*
X187325000Y-89024000D01*
X187325000Y-93723500D01*
X187305315Y-93790539D01*
X187252511Y-93836294D01*
X187201000Y-93847500D01*
X181730137Y-93847500D01*
X181663098Y-93827815D01*
X181634878Y-93802883D01*
X181132301Y-93199790D01*
X179665813Y-91440004D01*
X182806953Y-91440004D01*
X182827113Y-91709026D01*
X182827113Y-91709028D01*
X182887142Y-91972033D01*
X182887148Y-91972052D01*
X182985709Y-92223181D01*
X182985708Y-92223181D01*
X183120602Y-92456822D01*
X183174294Y-92524151D01*
X183174295Y-92524151D01*
X184010958Y-91687488D01*
X184035978Y-91747890D01*
X184107112Y-91854351D01*
X184197649Y-91944888D01*
X184304110Y-92016022D01*
X184364510Y-92041041D01*
X183526848Y-92878702D01*
X183709483Y-93003220D01*
X183709485Y-93003221D01*
X183952539Y-93120269D01*
X183952537Y-93120269D01*
X184210337Y-93199790D01*
X184210343Y-93199792D01*
X184477101Y-93239999D01*
X184477110Y-93240000D01*
X184746890Y-93240000D01*
X184746898Y-93239999D01*
X185013656Y-93199792D01*
X185013662Y-93199790D01*
X185271461Y-93120269D01*
X185514521Y-93003218D01*
X185697150Y-92878702D01*
X184859488Y-92041041D01*
X184919890Y-92016022D01*
X185026351Y-91944888D01*
X185116888Y-91854351D01*
X185188022Y-91747890D01*
X185213041Y-91687489D01*
X186049703Y-92524151D01*
X186049704Y-92524150D01*
X186103393Y-92456828D01*
X186103400Y-92456817D01*
X186238290Y-92223181D01*
X186336851Y-91972052D01*
X186336857Y-91972033D01*
X186396886Y-91709028D01*
X186396886Y-91709026D01*
X186417047Y-91440004D01*
X186417047Y-91439995D01*
X186396886Y-91170973D01*
X186396886Y-91170971D01*
X186336857Y-90907966D01*
X186336851Y-90907947D01*
X186238290Y-90656818D01*
X186238291Y-90656818D01*
X186103397Y-90423177D01*
X186049704Y-90355847D01*
X185213041Y-91192510D01*
X185188022Y-91132110D01*
X185116888Y-91025649D01*
X185026351Y-90935112D01*
X184919890Y-90863978D01*
X184859488Y-90838958D01*
X185697150Y-90001296D01*
X185514517Y-89876779D01*
X185514516Y-89876778D01*
X185271460Y-89759730D01*
X185271462Y-89759730D01*
X185013662Y-89680209D01*
X185013656Y-89680207D01*
X184746898Y-89640000D01*
X184477101Y-89640000D01*
X184210343Y-89680207D01*
X184210337Y-89680209D01*
X183952538Y-89759730D01*
X183709485Y-89876778D01*
X183709476Y-89876783D01*
X183526848Y-90001296D01*
X184364511Y-90838958D01*
X184304110Y-90863978D01*
X184197649Y-90935112D01*
X184107112Y-91025649D01*
X184035978Y-91132110D01*
X184010958Y-91192511D01*
X183174295Y-90355848D01*
X183120600Y-90423180D01*
X182985709Y-90656818D01*
X182887148Y-90907947D01*
X182887142Y-90907966D01*
X182827113Y-91170971D01*
X182827113Y-91170973D01*
X182806953Y-91439995D01*
X182806953Y-91440004D01*
X179665813Y-91440004D01*
X175398969Y-86319792D01*
X175384908Y-86305318D01*
X175356689Y-86280387D01*
X175356687Y-86280385D01*
X175356686Y-86280385D01*
X175306298Y-86252555D01*
X175306295Y-86252554D01*
X175306292Y-86252552D01*
X175239253Y-86232867D01*
X175239250Y-86232866D01*
X175201925Y-86227500D01*
X175201922Y-86227500D01*
X175022032Y-86227500D01*
X174954993Y-86207815D01*
X174927884Y-86184198D01*
X174208814Y-85345283D01*
X174180132Y-85281574D01*
X174190447Y-85212470D01*
X174236485Y-85159913D01*
X174289080Y-85141367D01*
X174426115Y-85125927D01*
X174426116Y-85125926D01*
X174426121Y-85125926D01*
X174599110Y-85065394D01*
X174754293Y-84967887D01*
X174883887Y-84838293D01*
X174981394Y-84683110D01*
X175041926Y-84510121D01*
X175062446Y-84328000D01*
X175041926Y-84145879D01*
X174981394Y-83972890D01*
X174883887Y-83817707D01*
X174754293Y-83688113D01*
X174599110Y-83590606D01*
X174599109Y-83590605D01*
X174599108Y-83590605D01*
X174599106Y-83590604D01*
X174426115Y-83530072D01*
X174244004Y-83509554D01*
X174243996Y-83509554D01*
X174061884Y-83530072D01*
X173888893Y-83590604D01*
X173888891Y-83590605D01*
X173733706Y-83688113D01*
X173604113Y-83817706D01*
X173586994Y-83844952D01*
X173534659Y-83891243D01*
X173465605Y-83901891D01*
X173401757Y-83873516D01*
X173377006Y-83844952D01*
X173359887Y-83817707D01*
X173230293Y-83688113D01*
X173075110Y-83590606D01*
X173075109Y-83590605D01*
X173075108Y-83590605D01*
X173075106Y-83590604D01*
X172902115Y-83530072D01*
X172720004Y-83509554D01*
X172719996Y-83509554D01*
X172537884Y-83530072D01*
X172364893Y-83590604D01*
X172364891Y-83590605D01*
X172209706Y-83688113D01*
X172080113Y-83817706D01*
X171982605Y-83972891D01*
X171982604Y-83972893D01*
X171922072Y-84145884D01*
X171901554Y-84327996D01*
X171901554Y-84328003D01*
X171922072Y-84510115D01*
X171982604Y-84683106D01*
X171982605Y-84683108D01*
X172080113Y-84838293D01*
X172120139Y-84878319D01*
X172153624Y-84939642D01*
X172148640Y-85009334D01*
X172106768Y-85065267D01*
X172041304Y-85089684D01*
X172032458Y-85090000D01*
X164166257Y-85090000D01*
X164099218Y-85070315D01*
X164053463Y-85017511D01*
X164043519Y-84948353D01*
X164055257Y-84910728D01*
X164091325Y-84838293D01*
X164138850Y-84742850D01*
X164196845Y-84539018D01*
X164216399Y-84328000D01*
X164196845Y-84116982D01*
X164138850Y-83913150D01*
X164044389Y-83723446D01*
X163916677Y-83554329D01*
X163916675Y-83554326D01*
X163760066Y-83411559D01*
X163760065Y-83411558D01*
X163677426Y-83360390D01*
X163579886Y-83299995D01*
X163579884Y-83299994D01*
X163435392Y-83244018D01*
X163382274Y-83223440D01*
X163173961Y-83184500D01*
X162962039Y-83184500D01*
X162753726Y-83223440D01*
X162753723Y-83223440D01*
X162753723Y-83223441D01*
X162556115Y-83299994D01*
X162556113Y-83299995D01*
X162371278Y-83414441D01*
X162303917Y-83432997D01*
X162240722Y-83414441D01*
X162055886Y-83299995D01*
X162055884Y-83299994D01*
X161911392Y-83244018D01*
X161858274Y-83223440D01*
X161649961Y-83184500D01*
X161438039Y-83184500D01*
X161229726Y-83223440D01*
X161229723Y-83223440D01*
X161229723Y-83223441D01*
X161032115Y-83299994D01*
X161032113Y-83299995D01*
X160851933Y-83411559D01*
X160695324Y-83554326D01*
X160567611Y-83723445D01*
X160473151Y-83913146D01*
X160415154Y-84116986D01*
X160395601Y-84327999D01*
X160395601Y-84328000D01*
X160415154Y-84539013D01*
X160415154Y-84539015D01*
X160415155Y-84539018D01*
X160456152Y-84683108D01*
X160473151Y-84742853D01*
X160556743Y-84910728D01*
X160569004Y-84979514D01*
X160542131Y-85044009D01*
X160484655Y-85083736D01*
X160445743Y-85090000D01*
X158493000Y-85090000D01*
X158425961Y-85070315D01*
X158380206Y-85017511D01*
X158369000Y-84966000D01*
X158369000Y-83166500D01*
X158388685Y-83099461D01*
X158441489Y-83053706D01*
X158493000Y-83042500D01*
X158560501Y-83042500D01*
X158627540Y-83062185D01*
X158673295Y-83114989D01*
X158684501Y-83166500D01*
X158684501Y-83173825D01*
X158695191Y-83247204D01*
X158750525Y-83360392D01*
X158839607Y-83449474D01*
X158839608Y-83449474D01*
X158839610Y-83449476D01*
X158952796Y-83504809D01*
X159026173Y-83515500D01*
X159997826Y-83515499D01*
X160071204Y-83504809D01*
X160184390Y-83449476D01*
X160273476Y-83360390D01*
X160328809Y-83247204D01*
X160339500Y-83173827D01*
X160339499Y-82402174D01*
X160328809Y-82328796D01*
X160273476Y-82215610D01*
X160273474Y-82215608D01*
X160273474Y-82215607D01*
X160184392Y-82126525D01*
X160184390Y-82126524D01*
X160125714Y-82097839D01*
X160074133Y-82050712D01*
X160056218Y-81983178D01*
X160077659Y-81916679D01*
X160131648Y-81872329D01*
X160141171Y-81868733D01*
X160281119Y-81822358D01*
X160281124Y-81822356D01*
X160430345Y-81730315D01*
X160554315Y-81606345D01*
X160646356Y-81457124D01*
X160646358Y-81457119D01*
X160701505Y-81290697D01*
X160701506Y-81290690D01*
X160711999Y-81187986D01*
X160712000Y-81187973D01*
X160712000Y-81038000D01*
X159386000Y-81038000D01*
X159318961Y-81018315D01*
X159273206Y-80965511D01*
X159262000Y-80914000D01*
X159262000Y-79688000D01*
X159762000Y-79688000D01*
X159762000Y-80538000D01*
X160711999Y-80538000D01*
X160711999Y-80388028D01*
X160711998Y-80388013D01*
X160701505Y-80285302D01*
X160646358Y-80118880D01*
X160646356Y-80118875D01*
X160554315Y-79969654D01*
X160430345Y-79845684D01*
X160281124Y-79753643D01*
X160281119Y-79753641D01*
X160114697Y-79698494D01*
X160114690Y-79698493D01*
X160011986Y-79688000D01*
X159762000Y-79688000D01*
X159262000Y-79688000D01*
X159012029Y-79688000D01*
X159012012Y-79688001D01*
X158909302Y-79698494D01*
X158742880Y-79753641D01*
X158742875Y-79753643D01*
X158593654Y-79845684D01*
X158580681Y-79858658D01*
X158519358Y-79892143D01*
X158449666Y-79887159D01*
X158393733Y-79845287D01*
X158369316Y-79779823D01*
X158369000Y-79770977D01*
X158369000Y-78864000D01*
X158388685Y-78796961D01*
X158441489Y-78751206D01*
X158493000Y-78740000D01*
X178184000Y-78740000D01*
X178251039Y-78759685D01*
G37*
%TD.AperFunction*%
%TD*%
%TA.AperFunction,Conductor*%
%TO.N,DIQ4*%
G36*
X187268039Y-109239685D02*
G01*
X187313794Y-109292489D01*
X187325000Y-109344000D01*
X187325000Y-114043500D01*
X187305315Y-114110539D01*
X187252511Y-114156294D01*
X187201000Y-114167500D01*
X177851362Y-114167500D01*
X177842863Y-114167955D01*
X177837191Y-114168259D01*
X177810849Y-114171091D01*
X177810829Y-114171095D01*
X177761508Y-114186539D01*
X177700178Y-114220027D01*
X177669998Y-114242619D01*
X177669983Y-114242632D01*
X176378935Y-115533681D01*
X176317612Y-115567166D01*
X176291254Y-115570000D01*
X174931542Y-115570000D01*
X174864503Y-115550315D01*
X174818748Y-115497511D01*
X174808804Y-115428353D01*
X174837829Y-115364797D01*
X174843861Y-115358319D01*
X174883887Y-115318293D01*
X174981394Y-115163110D01*
X175041926Y-114990121D01*
X175062446Y-114808000D01*
X175041926Y-114625879D01*
X174981394Y-114452890D01*
X174883887Y-114297707D01*
X174754293Y-114168113D01*
X174599110Y-114070606D01*
X174599109Y-114070605D01*
X174599108Y-114070605D01*
X174599106Y-114070604D01*
X174426115Y-114010072D01*
X174244004Y-113989554D01*
X174243996Y-113989554D01*
X174061884Y-114010072D01*
X173888893Y-114070604D01*
X173888891Y-114070605D01*
X173733706Y-114168113D01*
X173604113Y-114297706D01*
X173586994Y-114324952D01*
X173534659Y-114371243D01*
X173465605Y-114381891D01*
X173401757Y-114353516D01*
X173377006Y-114324952D01*
X173359886Y-114297706D01*
X173230293Y-114168113D01*
X173182947Y-114138364D01*
X173075110Y-114070606D01*
X173075109Y-114070605D01*
X173075108Y-114070605D01*
X173075106Y-114070604D01*
X172902115Y-114010072D01*
X172720004Y-113989554D01*
X172719996Y-113989554D01*
X172537884Y-114010072D01*
X172364893Y-114070604D01*
X172364891Y-114070605D01*
X172209706Y-114168113D01*
X172080113Y-114297706D01*
X171982605Y-114452891D01*
X171982604Y-114452893D01*
X171922072Y-114625884D01*
X171901554Y-114807996D01*
X171901554Y-114808003D01*
X171922072Y-114990115D01*
X171982604Y-115163106D01*
X171982605Y-115163108D01*
X172080113Y-115318293D01*
X172120139Y-115358319D01*
X172153624Y-115419642D01*
X172148640Y-115489334D01*
X172106768Y-115545267D01*
X172041304Y-115569684D01*
X172032458Y-115570000D01*
X164166257Y-115570000D01*
X164099218Y-115550315D01*
X164053463Y-115497511D01*
X164043519Y-115428353D01*
X164055257Y-115390728D01*
X164108692Y-115283415D01*
X164138850Y-115222850D01*
X164196845Y-115019018D01*
X164216399Y-114808000D01*
X164196845Y-114596982D01*
X164138850Y-114393150D01*
X164044389Y-114203446D01*
X163983118Y-114122311D01*
X163916675Y-114034326D01*
X163760066Y-113891559D01*
X163760065Y-113891558D01*
X163691449Y-113849072D01*
X163579886Y-113779995D01*
X163579884Y-113779994D01*
X163435392Y-113724018D01*
X163382274Y-113703440D01*
X163173961Y-113664500D01*
X162962039Y-113664500D01*
X162753726Y-113703440D01*
X162753723Y-113703440D01*
X162753723Y-113703441D01*
X162556115Y-113779994D01*
X162556113Y-113779995D01*
X162371278Y-113894441D01*
X162303917Y-113912997D01*
X162240722Y-113894441D01*
X162055886Y-113779995D01*
X162055884Y-113779994D01*
X161911392Y-113724018D01*
X161858274Y-113703440D01*
X161649961Y-113664500D01*
X161438039Y-113664500D01*
X161229726Y-113703440D01*
X161229723Y-113703440D01*
X161229723Y-113703441D01*
X161032115Y-113779994D01*
X161032113Y-113779995D01*
X160851933Y-113891559D01*
X160735957Y-113997285D01*
X160673153Y-114027902D01*
X160631100Y-114022933D01*
X160641257Y-114075267D01*
X160616758Y-114138364D01*
X160567611Y-114203446D01*
X160473151Y-114393146D01*
X160415154Y-114596986D01*
X160395601Y-114807999D01*
X160395601Y-114808000D01*
X160415154Y-115019013D01*
X160415154Y-115019015D01*
X160415155Y-115019018D01*
X160473150Y-115222850D01*
X160473151Y-115222853D01*
X160556743Y-115390728D01*
X160569004Y-115459514D01*
X160542131Y-115524009D01*
X160484655Y-115563736D01*
X160445743Y-115570000D01*
X158493000Y-115570000D01*
X158425961Y-115550315D01*
X158380206Y-115497511D01*
X158369000Y-115446000D01*
X158369000Y-113685000D01*
X158388685Y-113617961D01*
X158441489Y-113572206D01*
X158493000Y-113561000D01*
X158814501Y-113561000D01*
X158881540Y-113580685D01*
X158927295Y-113633489D01*
X158938501Y-113685000D01*
X158938501Y-113692325D01*
X158949191Y-113765704D01*
X159004525Y-113878892D01*
X159093607Y-113967974D01*
X159093608Y-113967974D01*
X159093610Y-113967976D01*
X159206796Y-114023309D01*
X159280173Y-114034000D01*
X160251826Y-114033999D01*
X160325204Y-114023309D01*
X160438390Y-113967976D01*
X160438394Y-113967971D01*
X160445746Y-113962723D01*
X160511744Y-113939786D01*
X160540660Y-113946761D01*
X160528458Y-113908772D01*
X160541019Y-113851187D01*
X160582809Y-113765704D01*
X160593500Y-113692327D01*
X160593499Y-112920674D01*
X160582809Y-112847296D01*
X160527476Y-112734110D01*
X160527474Y-112734108D01*
X160527474Y-112734107D01*
X160438392Y-112645025D01*
X160438390Y-112645024D01*
X160379714Y-112616339D01*
X160328133Y-112569212D01*
X160310218Y-112501678D01*
X160331659Y-112435179D01*
X160385648Y-112390829D01*
X160395171Y-112387233D01*
X160535119Y-112340858D01*
X160535124Y-112340856D01*
X160684345Y-112248815D01*
X160808315Y-112124845D01*
X160900356Y-111975624D01*
X160900358Y-111975619D01*
X160955505Y-111809197D01*
X160955506Y-111809190D01*
X160960531Y-111760004D01*
X182806953Y-111760004D01*
X182827113Y-112029026D01*
X182827113Y-112029028D01*
X182887142Y-112292033D01*
X182887148Y-112292052D01*
X182985709Y-112543181D01*
X182985708Y-112543181D01*
X183120602Y-112776822D01*
X183174294Y-112844151D01*
X183174295Y-112844151D01*
X184010958Y-112007488D01*
X184035978Y-112067890D01*
X184107112Y-112174351D01*
X184197649Y-112264888D01*
X184304110Y-112336022D01*
X184364510Y-112361041D01*
X183526848Y-113198702D01*
X183709483Y-113323220D01*
X183709485Y-113323221D01*
X183952539Y-113440269D01*
X183952537Y-113440269D01*
X184210337Y-113519790D01*
X184210343Y-113519792D01*
X184477101Y-113559999D01*
X184477110Y-113560000D01*
X184746890Y-113560000D01*
X184746898Y-113559999D01*
X185013656Y-113519792D01*
X185013662Y-113519790D01*
X185271461Y-113440269D01*
X185514521Y-113323218D01*
X185697150Y-113198702D01*
X184859488Y-112361041D01*
X184919890Y-112336022D01*
X185026351Y-112264888D01*
X185116888Y-112174351D01*
X185188022Y-112067890D01*
X185213041Y-112007489D01*
X186049703Y-112844151D01*
X186049704Y-112844150D01*
X186103393Y-112776828D01*
X186103400Y-112776817D01*
X186238290Y-112543181D01*
X186336851Y-112292052D01*
X186336857Y-112292033D01*
X186396886Y-112029028D01*
X186396886Y-112029026D01*
X186417047Y-111760004D01*
X186417047Y-111759995D01*
X186396886Y-111490973D01*
X186396886Y-111490971D01*
X186336857Y-111227966D01*
X186336851Y-111227947D01*
X186238290Y-110976818D01*
X186238291Y-110976818D01*
X186103397Y-110743177D01*
X186049704Y-110675847D01*
X185213041Y-111512510D01*
X185188022Y-111452110D01*
X185116888Y-111345649D01*
X185026351Y-111255112D01*
X184919890Y-111183978D01*
X184859488Y-111158958D01*
X185697150Y-110321296D01*
X185514517Y-110196779D01*
X185514516Y-110196778D01*
X185271460Y-110079730D01*
X185271462Y-110079730D01*
X185013662Y-110000209D01*
X185013656Y-110000207D01*
X184746898Y-109960000D01*
X184477101Y-109960000D01*
X184210343Y-110000207D01*
X184210337Y-110000209D01*
X183952538Y-110079730D01*
X183709485Y-110196778D01*
X183709476Y-110196783D01*
X183526848Y-110321296D01*
X184364511Y-111158958D01*
X184304110Y-111183978D01*
X184197649Y-111255112D01*
X184107112Y-111345649D01*
X184035978Y-111452110D01*
X184010958Y-111512511D01*
X183174295Y-110675848D01*
X183120600Y-110743180D01*
X182985709Y-110976818D01*
X182887148Y-111227947D01*
X182887142Y-111227966D01*
X182827113Y-111490971D01*
X182827113Y-111490973D01*
X182806953Y-111759995D01*
X182806953Y-111760004D01*
X160960531Y-111760004D01*
X160965999Y-111706486D01*
X160966000Y-111706473D01*
X160966000Y-111556500D01*
X159640000Y-111556500D01*
X159572961Y-111536815D01*
X159527206Y-111484011D01*
X159516000Y-111432500D01*
X159516000Y-110206500D01*
X160016000Y-110206500D01*
X160016000Y-111056500D01*
X160965999Y-111056500D01*
X160965999Y-110906528D01*
X160965998Y-110906513D01*
X160955505Y-110803802D01*
X160900358Y-110637380D01*
X160900356Y-110637375D01*
X160808315Y-110488154D01*
X160684345Y-110364184D01*
X160535124Y-110272143D01*
X160535119Y-110272141D01*
X160368697Y-110216994D01*
X160368690Y-110216993D01*
X160265986Y-110206500D01*
X160016000Y-110206500D01*
X159516000Y-110206500D01*
X159266029Y-110206500D01*
X159266012Y-110206501D01*
X159163302Y-110216994D01*
X158996880Y-110272141D01*
X158996875Y-110272143D01*
X158847654Y-110364184D01*
X158723684Y-110488154D01*
X158631643Y-110637375D01*
X158631641Y-110637380D01*
X158610706Y-110700560D01*
X158570933Y-110758005D01*
X158506418Y-110784828D01*
X158437642Y-110772513D01*
X158386442Y-110724970D01*
X158369000Y-110661556D01*
X158369000Y-109344000D01*
X158388685Y-109276961D01*
X158441489Y-109231206D01*
X158493000Y-109220000D01*
X187201000Y-109220000D01*
X187268039Y-109239685D01*
G37*
%TD.AperFunction*%
%TD*%
%TA.AperFunction,Conductor*%
%TO.N,DIQ2*%
G36*
X176545677Y-93999685D02*
G01*
X176566319Y-94016319D01*
X181610000Y-99060000D01*
X187201000Y-99060000D01*
X187268039Y-99079685D01*
X187313794Y-99132489D01*
X187325000Y-99184000D01*
X187325000Y-103883500D01*
X187305315Y-103950539D01*
X187252511Y-103996294D01*
X187201000Y-104007500D01*
X180446246Y-104007500D01*
X180379207Y-103987815D01*
X180358565Y-103971181D01*
X177987388Y-101600004D01*
X182806953Y-101600004D01*
X182827113Y-101869026D01*
X182827113Y-101869028D01*
X182887142Y-102132033D01*
X182887148Y-102132052D01*
X182985709Y-102383181D01*
X182985708Y-102383181D01*
X183120602Y-102616822D01*
X183174294Y-102684151D01*
X183174295Y-102684151D01*
X184010958Y-101847488D01*
X184035978Y-101907890D01*
X184107112Y-102014351D01*
X184197649Y-102104888D01*
X184304110Y-102176022D01*
X184364510Y-102201041D01*
X183526848Y-103038702D01*
X183709483Y-103163220D01*
X183709485Y-103163221D01*
X183952539Y-103280269D01*
X183952537Y-103280269D01*
X184210337Y-103359790D01*
X184210343Y-103359792D01*
X184477101Y-103399999D01*
X184477110Y-103400000D01*
X184746890Y-103400000D01*
X184746898Y-103399999D01*
X185013656Y-103359792D01*
X185013662Y-103359790D01*
X185271461Y-103280269D01*
X185514521Y-103163218D01*
X185697150Y-103038702D01*
X184859488Y-102201041D01*
X184919890Y-102176022D01*
X185026351Y-102104888D01*
X185116888Y-102014351D01*
X185188022Y-101907890D01*
X185213041Y-101847489D01*
X186049703Y-102684151D01*
X186049704Y-102684150D01*
X186103393Y-102616828D01*
X186103400Y-102616817D01*
X186238290Y-102383181D01*
X186336851Y-102132052D01*
X186336857Y-102132033D01*
X186396886Y-101869028D01*
X186396886Y-101869026D01*
X186417047Y-101600004D01*
X186417047Y-101599995D01*
X186396886Y-101330973D01*
X186396886Y-101330971D01*
X186336857Y-101067966D01*
X186336851Y-101067947D01*
X186238290Y-100816818D01*
X186238291Y-100816818D01*
X186103397Y-100583177D01*
X186049704Y-100515847D01*
X185213041Y-101352510D01*
X185188022Y-101292110D01*
X185116888Y-101185649D01*
X185026351Y-101095112D01*
X184919890Y-101023978D01*
X184859488Y-100998958D01*
X185697150Y-100161296D01*
X185514517Y-100036779D01*
X185514516Y-100036778D01*
X185271460Y-99919730D01*
X185271462Y-99919730D01*
X185013662Y-99840209D01*
X185013656Y-99840207D01*
X184746898Y-99800000D01*
X184477101Y-99800000D01*
X184210343Y-99840207D01*
X184210337Y-99840209D01*
X183952538Y-99919730D01*
X183709485Y-100036778D01*
X183709476Y-100036783D01*
X183526848Y-100161296D01*
X184364511Y-100998958D01*
X184304110Y-101023978D01*
X184197649Y-101095112D01*
X184107112Y-101185649D01*
X184035978Y-101292110D01*
X184010958Y-101352511D01*
X183174295Y-100515848D01*
X183120600Y-100583180D01*
X182985709Y-100816818D01*
X182887148Y-101067947D01*
X182887142Y-101067966D01*
X182827113Y-101330971D01*
X182827113Y-101330973D01*
X182806953Y-101599995D01*
X182806953Y-101600004D01*
X177987388Y-101600004D01*
X177930024Y-101542640D01*
X177930011Y-101542627D01*
X177919458Y-101533148D01*
X177898816Y-101516514D01*
X177898813Y-101516512D01*
X177898810Y-101516510D01*
X177853007Y-101492551D01*
X177853006Y-101492550D01*
X177785967Y-101472866D01*
X177785970Y-101472866D01*
X177748641Y-101467500D01*
X177748638Y-101467500D01*
X177718862Y-101467500D01*
X177651823Y-101447815D01*
X177631181Y-101431181D01*
X176530000Y-100330000D01*
X174931542Y-100330000D01*
X174864503Y-100310315D01*
X174818748Y-100257511D01*
X174808804Y-100188353D01*
X174837829Y-100124797D01*
X174843861Y-100118319D01*
X174883887Y-100078293D01*
X174981394Y-99923110D01*
X175041926Y-99750121D01*
X175062446Y-99568000D01*
X175041926Y-99385879D01*
X174981394Y-99212890D01*
X174883887Y-99057707D01*
X174754293Y-98928113D01*
X174599110Y-98830606D01*
X174599109Y-98830605D01*
X174599108Y-98830605D01*
X174599106Y-98830604D01*
X174426115Y-98770072D01*
X174244004Y-98749554D01*
X174243996Y-98749554D01*
X174061884Y-98770072D01*
X173888893Y-98830604D01*
X173888891Y-98830605D01*
X173733706Y-98928113D01*
X173604113Y-99057706D01*
X173586994Y-99084952D01*
X173534659Y-99131243D01*
X173465605Y-99141891D01*
X173401757Y-99113516D01*
X173377006Y-99084952D01*
X173359887Y-99057707D01*
X173230293Y-98928113D01*
X173075110Y-98830606D01*
X173075109Y-98830605D01*
X173075108Y-98830605D01*
X173075106Y-98830604D01*
X172902115Y-98770072D01*
X172720004Y-98749554D01*
X172719996Y-98749554D01*
X172537884Y-98770072D01*
X172364893Y-98830604D01*
X172364891Y-98830605D01*
X172209706Y-98928113D01*
X172080113Y-99057706D01*
X171982605Y-99212891D01*
X171982604Y-99212893D01*
X171922072Y-99385884D01*
X171901554Y-99567996D01*
X171901554Y-99568003D01*
X171922072Y-99750115D01*
X171982604Y-99923106D01*
X171982605Y-99923108D01*
X172080113Y-100078293D01*
X172120139Y-100118319D01*
X172153624Y-100179642D01*
X172148640Y-100249334D01*
X172106768Y-100305267D01*
X172041304Y-100329684D01*
X172032458Y-100330000D01*
X164166257Y-100330000D01*
X164099218Y-100310315D01*
X164053463Y-100257511D01*
X164043519Y-100188353D01*
X164055257Y-100150728D01*
X164091325Y-100078293D01*
X164138850Y-99982850D01*
X164196845Y-99779018D01*
X164216399Y-99568000D01*
X164196845Y-99356982D01*
X164138850Y-99153150D01*
X164044389Y-98963446D01*
X163916677Y-98794329D01*
X163916675Y-98794326D01*
X163760066Y-98651559D01*
X163760065Y-98651558D01*
X163691449Y-98609072D01*
X163579886Y-98539995D01*
X163579884Y-98539994D01*
X163435392Y-98484018D01*
X163382274Y-98463440D01*
X163173961Y-98424500D01*
X162962039Y-98424500D01*
X162753726Y-98463440D01*
X162753723Y-98463440D01*
X162753723Y-98463441D01*
X162556115Y-98539994D01*
X162556113Y-98539995D01*
X162371278Y-98654441D01*
X162303917Y-98672997D01*
X162240722Y-98654441D01*
X162055886Y-98539995D01*
X162055884Y-98539994D01*
X161911392Y-98484018D01*
X161858274Y-98463440D01*
X161649961Y-98424500D01*
X161438039Y-98424500D01*
X161229726Y-98463440D01*
X161229723Y-98463440D01*
X161229723Y-98463441D01*
X161032115Y-98539994D01*
X161032113Y-98539995D01*
X160851933Y-98651559D01*
X160735957Y-98757285D01*
X160673153Y-98787902D01*
X160631100Y-98782933D01*
X160641257Y-98835267D01*
X160616758Y-98898364D01*
X160567611Y-98963446D01*
X160473151Y-99153146D01*
X160415154Y-99356986D01*
X160395601Y-99567999D01*
X160395601Y-99568000D01*
X160415154Y-99779013D01*
X160415154Y-99779015D01*
X160415155Y-99779018D01*
X160456152Y-99923108D01*
X160473151Y-99982853D01*
X160556743Y-100150728D01*
X160569004Y-100219514D01*
X160542131Y-100284009D01*
X160484655Y-100323736D01*
X160445743Y-100330000D01*
X158493000Y-100330000D01*
X158425961Y-100310315D01*
X158380206Y-100257511D01*
X158369000Y-100206000D01*
X158369000Y-98445000D01*
X158388685Y-98377961D01*
X158441489Y-98332206D01*
X158493000Y-98321000D01*
X158814501Y-98321000D01*
X158881540Y-98340685D01*
X158927295Y-98393489D01*
X158938501Y-98445000D01*
X158938501Y-98452325D01*
X158949191Y-98525704D01*
X159004525Y-98638892D01*
X159093607Y-98727974D01*
X159093608Y-98727974D01*
X159093610Y-98727976D01*
X159206796Y-98783309D01*
X159280173Y-98794000D01*
X160251826Y-98793999D01*
X160325204Y-98783309D01*
X160438390Y-98727976D01*
X160438394Y-98727971D01*
X160445746Y-98722723D01*
X160511744Y-98699786D01*
X160540660Y-98706761D01*
X160528458Y-98668772D01*
X160541019Y-98611187D01*
X160582809Y-98525704D01*
X160593500Y-98452327D01*
X160593499Y-97680674D01*
X160582809Y-97607296D01*
X160527476Y-97494110D01*
X160527474Y-97494108D01*
X160527474Y-97494107D01*
X160438392Y-97405025D01*
X160427690Y-97399793D01*
X160379714Y-97376339D01*
X160328133Y-97329212D01*
X160310218Y-97261678D01*
X160331659Y-97195179D01*
X160385648Y-97150829D01*
X160395171Y-97147233D01*
X160535119Y-97100858D01*
X160535124Y-97100856D01*
X160684345Y-97008815D01*
X160808315Y-96884845D01*
X160900356Y-96735624D01*
X160900358Y-96735619D01*
X160955505Y-96569197D01*
X160955506Y-96569190D01*
X160965999Y-96466486D01*
X160966000Y-96466473D01*
X160966000Y-96316500D01*
X159640000Y-96316500D01*
X159572961Y-96296815D01*
X159527206Y-96244011D01*
X159516000Y-96192500D01*
X159516000Y-94966500D01*
X160016000Y-94966500D01*
X160016000Y-95816500D01*
X160965999Y-95816500D01*
X160965999Y-95666528D01*
X160965998Y-95666513D01*
X160955505Y-95563802D01*
X160900358Y-95397380D01*
X160900356Y-95397375D01*
X160808315Y-95248154D01*
X160684345Y-95124184D01*
X160535124Y-95032143D01*
X160535119Y-95032141D01*
X160368697Y-94976994D01*
X160368690Y-94976993D01*
X160265986Y-94966500D01*
X160016000Y-94966500D01*
X159516000Y-94966500D01*
X159266029Y-94966500D01*
X159266012Y-94966501D01*
X159163302Y-94976994D01*
X158996880Y-95032141D01*
X158996875Y-95032143D01*
X158847654Y-95124184D01*
X158723684Y-95248154D01*
X158631643Y-95397375D01*
X158631641Y-95397380D01*
X158610706Y-95460560D01*
X158570933Y-95518005D01*
X158506418Y-95544828D01*
X158437642Y-95532513D01*
X158386442Y-95484970D01*
X158369000Y-95421556D01*
X158369000Y-94104000D01*
X158388685Y-94036961D01*
X158441489Y-93991206D01*
X158493000Y-93980000D01*
X176478638Y-93980000D01*
X176545677Y-93999685D01*
G37*
%TD.AperFunction*%
%TD*%
%TA.AperFunction,Conductor*%
%TO.N,DIQ7*%
G36*
X187273674Y-124479685D02*
G01*
X187319429Y-124532489D01*
X187330635Y-124584000D01*
X187330635Y-129416000D01*
X187310950Y-129483039D01*
X187258146Y-129528794D01*
X187206635Y-129540000D01*
X182880000Y-129540000D01*
X178308000Y-134619999D01*
X178308000Y-138304409D01*
X178288315Y-138371448D01*
X178235511Y-138417203D01*
X178182420Y-138428399D01*
X174972455Y-138387496D01*
X174905672Y-138366959D01*
X174860593Y-138313576D01*
X174851532Y-138244297D01*
X174879968Y-138184072D01*
X174879546Y-138183736D01*
X174880970Y-138181950D01*
X174881364Y-138181116D01*
X174883120Y-138179254D01*
X174883882Y-138178297D01*
X174883887Y-138178293D01*
X174981394Y-138023110D01*
X175041926Y-137850121D01*
X175062446Y-137668000D01*
X175041926Y-137485879D01*
X174981394Y-137312890D01*
X174883887Y-137157707D01*
X174754293Y-137028113D01*
X174599110Y-136930606D01*
X174599109Y-136930605D01*
X174599108Y-136930605D01*
X174599106Y-136930604D01*
X174426115Y-136870072D01*
X174244004Y-136849554D01*
X174243996Y-136849554D01*
X174061884Y-136870072D01*
X173888893Y-136930604D01*
X173888891Y-136930605D01*
X173733706Y-137028113D01*
X173604113Y-137157706D01*
X173586994Y-137184952D01*
X173534659Y-137231243D01*
X173465605Y-137241891D01*
X173401757Y-137213516D01*
X173377006Y-137184952D01*
X173359886Y-137157706D01*
X173230293Y-137028113D01*
X173075108Y-136930605D01*
X173075106Y-136930604D01*
X172902115Y-136870072D01*
X172720004Y-136849554D01*
X172719996Y-136849554D01*
X172537884Y-136870072D01*
X172364893Y-136930604D01*
X172364891Y-136930605D01*
X172209706Y-137028113D01*
X172080113Y-137157706D01*
X171982605Y-137312891D01*
X171982604Y-137312893D01*
X171922072Y-137485884D01*
X171901554Y-137667996D01*
X171901554Y-137668003D01*
X171922072Y-137850115D01*
X171982604Y-138023106D01*
X171982605Y-138023108D01*
X171982606Y-138023110D01*
X172068096Y-138159168D01*
X172087096Y-138226404D01*
X172066728Y-138293239D01*
X172013460Y-138338453D01*
X171961522Y-138349129D01*
X164253178Y-138250906D01*
X164186395Y-138230369D01*
X164141316Y-138176986D01*
X164132255Y-138107707D01*
X164137443Y-138088410D01*
X164137281Y-138088364D01*
X164155847Y-138023110D01*
X164196845Y-137879018D01*
X164216399Y-137668000D01*
X164196845Y-137456982D01*
X164138850Y-137253150D01*
X164044389Y-137063446D01*
X163916677Y-136894329D01*
X163916675Y-136894326D01*
X163760066Y-136751559D01*
X163760065Y-136751558D01*
X163691449Y-136709072D01*
X163579886Y-136639995D01*
X163579884Y-136639994D01*
X163435392Y-136584018D01*
X163382274Y-136563440D01*
X163173961Y-136524500D01*
X162962039Y-136524500D01*
X162753726Y-136563440D01*
X162753723Y-136563440D01*
X162753723Y-136563441D01*
X162556115Y-136639994D01*
X162556113Y-136639995D01*
X162371278Y-136754441D01*
X162303917Y-136772997D01*
X162240722Y-136754441D01*
X162055886Y-136639995D01*
X162055884Y-136639994D01*
X161911392Y-136584018D01*
X161858274Y-136563440D01*
X161649961Y-136524500D01*
X161438039Y-136524500D01*
X161229726Y-136563440D01*
X161229723Y-136563440D01*
X161229723Y-136563441D01*
X161032115Y-136639994D01*
X161032113Y-136639995D01*
X160851933Y-136751559D01*
X160735957Y-136857285D01*
X160673153Y-136887902D01*
X160631100Y-136882933D01*
X160641257Y-136935267D01*
X160616758Y-136998364D01*
X160567611Y-137063446D01*
X160473151Y-137253146D01*
X160415154Y-137456986D01*
X160395601Y-137667999D01*
X160395601Y-137668000D01*
X160415154Y-137879013D01*
X160461849Y-138043131D01*
X160461261Y-138112999D01*
X160422994Y-138171457D01*
X160359197Y-138199947D01*
X160341002Y-138201055D01*
X158497055Y-138177559D01*
X158430272Y-138157022D01*
X158385193Y-138103639D01*
X158374635Y-138053569D01*
X158374635Y-136545000D01*
X158394320Y-136477961D01*
X158447124Y-136432206D01*
X158498635Y-136421000D01*
X158814501Y-136421000D01*
X158881540Y-136440685D01*
X158927295Y-136493489D01*
X158938501Y-136545000D01*
X158938501Y-136552325D01*
X158949191Y-136625704D01*
X159004525Y-136738892D01*
X159093607Y-136827974D01*
X159093608Y-136827974D01*
X159093610Y-136827976D01*
X159206796Y-136883309D01*
X159280173Y-136894000D01*
X160251826Y-136893999D01*
X160325204Y-136883309D01*
X160438390Y-136827976D01*
X160438394Y-136827971D01*
X160445746Y-136822723D01*
X160511744Y-136799786D01*
X160540660Y-136806761D01*
X160528458Y-136768772D01*
X160541019Y-136711187D01*
X160572796Y-136646186D01*
X160582809Y-136625704D01*
X160593500Y-136552327D01*
X160593499Y-135780674D01*
X160582809Y-135707296D01*
X160527476Y-135594110D01*
X160527474Y-135594108D01*
X160527474Y-135594107D01*
X160438392Y-135505025D01*
X160438390Y-135505024D01*
X160379714Y-135476339D01*
X160328133Y-135429212D01*
X160310218Y-135361678D01*
X160331659Y-135295179D01*
X160385648Y-135250829D01*
X160395171Y-135247233D01*
X160535119Y-135200858D01*
X160535124Y-135200856D01*
X160684345Y-135108815D01*
X160808315Y-134984845D01*
X160900356Y-134835624D01*
X160900358Y-134835619D01*
X160955505Y-134669197D01*
X160955506Y-134669190D01*
X160965999Y-134566486D01*
X160966000Y-134566473D01*
X160966000Y-134416500D01*
X159640000Y-134416500D01*
X159572961Y-134396815D01*
X159527206Y-134344011D01*
X159516000Y-134292500D01*
X159516000Y-133066500D01*
X160016000Y-133066500D01*
X160016000Y-133916500D01*
X160965999Y-133916500D01*
X160965999Y-133766528D01*
X160965998Y-133766513D01*
X160955505Y-133663802D01*
X160900358Y-133497380D01*
X160900356Y-133497375D01*
X160808315Y-133348154D01*
X160684345Y-133224184D01*
X160535124Y-133132143D01*
X160535119Y-133132141D01*
X160368697Y-133076994D01*
X160368690Y-133076993D01*
X160265986Y-133066500D01*
X160016000Y-133066500D01*
X159516000Y-133066500D01*
X159266029Y-133066500D01*
X159266012Y-133066501D01*
X159163302Y-133076994D01*
X158996880Y-133132141D01*
X158996875Y-133132143D01*
X158847654Y-133224184D01*
X158723684Y-133348154D01*
X158631643Y-133497375D01*
X158631641Y-133497380D01*
X158616341Y-133543554D01*
X158576568Y-133600999D01*
X158512052Y-133627822D01*
X158443276Y-133615507D01*
X158392077Y-133567964D01*
X158374635Y-133504550D01*
X158374635Y-131951879D01*
X158394320Y-131884840D01*
X158447124Y-131839085D01*
X158500498Y-131827893D01*
X175260000Y-132080000D01*
X179493329Y-127000004D01*
X182806953Y-127000004D01*
X182827113Y-127269026D01*
X182827113Y-127269028D01*
X182887142Y-127532033D01*
X182887148Y-127532052D01*
X182985709Y-127783181D01*
X182985708Y-127783181D01*
X183120602Y-128016822D01*
X183174294Y-128084151D01*
X183174295Y-128084151D01*
X184010958Y-127247488D01*
X184035978Y-127307890D01*
X184107112Y-127414351D01*
X184197649Y-127504888D01*
X184304110Y-127576022D01*
X184364510Y-127601041D01*
X183526848Y-128438702D01*
X183709483Y-128563220D01*
X183709485Y-128563221D01*
X183952539Y-128680269D01*
X183952537Y-128680269D01*
X184210337Y-128759790D01*
X184210343Y-128759792D01*
X184477101Y-128799999D01*
X184477110Y-128800000D01*
X184746890Y-128800000D01*
X184746898Y-128799999D01*
X185013656Y-128759792D01*
X185013662Y-128759790D01*
X185271461Y-128680269D01*
X185514521Y-128563218D01*
X185697150Y-128438702D01*
X184859488Y-127601041D01*
X184919890Y-127576022D01*
X185026351Y-127504888D01*
X185116888Y-127414351D01*
X185188022Y-127307890D01*
X185213041Y-127247489D01*
X186049703Y-128084151D01*
X186049704Y-128084150D01*
X186103393Y-128016828D01*
X186103400Y-128016817D01*
X186238290Y-127783181D01*
X186336851Y-127532052D01*
X186336857Y-127532033D01*
X186396886Y-127269028D01*
X186396886Y-127269026D01*
X186417047Y-127000004D01*
X186417047Y-126999995D01*
X186396886Y-126730973D01*
X186396886Y-126730971D01*
X186336857Y-126467966D01*
X186336851Y-126467947D01*
X186238290Y-126216818D01*
X186238291Y-126216818D01*
X186103397Y-125983177D01*
X186049704Y-125915847D01*
X185213041Y-126752510D01*
X185188022Y-126692110D01*
X185116888Y-126585649D01*
X185026351Y-126495112D01*
X184919890Y-126423978D01*
X184859488Y-126398958D01*
X185697150Y-125561296D01*
X185514517Y-125436779D01*
X185514516Y-125436778D01*
X185271460Y-125319730D01*
X185271462Y-125319730D01*
X185013662Y-125240209D01*
X185013656Y-125240207D01*
X184746898Y-125200000D01*
X184477101Y-125200000D01*
X184210343Y-125240207D01*
X184210337Y-125240209D01*
X183952538Y-125319730D01*
X183709485Y-125436778D01*
X183709476Y-125436783D01*
X183526848Y-125561296D01*
X184364511Y-126398958D01*
X184304110Y-126423978D01*
X184197649Y-126495112D01*
X184107112Y-126585649D01*
X184035978Y-126692110D01*
X184010958Y-126752511D01*
X183174295Y-125915848D01*
X183120600Y-125983180D01*
X182985709Y-126216818D01*
X182887148Y-126467947D01*
X182887142Y-126467966D01*
X182827113Y-126730971D01*
X182827113Y-126730973D01*
X182806953Y-126999995D01*
X182806953Y-127000004D01*
X179493329Y-127000004D01*
X181572819Y-124504616D01*
X181630858Y-124465718D01*
X181668078Y-124460000D01*
X187206635Y-124460000D01*
X187273674Y-124479685D01*
G37*
%TD.AperFunction*%
%TD*%
%TA.AperFunction,Conductor*%
%TO.N,DIQ3*%
G36*
X177815677Y-101619685D02*
G01*
X177836319Y-101636319D01*
X180340000Y-104140000D01*
X187201000Y-104140000D01*
X187268039Y-104159685D01*
X187313794Y-104212489D01*
X187325000Y-104264000D01*
X187325000Y-108963500D01*
X187305315Y-109030539D01*
X187252511Y-109076294D01*
X187201000Y-109087500D01*
X178988862Y-109087500D01*
X178921823Y-109067815D01*
X178901181Y-109051181D01*
X177800000Y-107950000D01*
X174931542Y-107950000D01*
X174864503Y-107930315D01*
X174818748Y-107877511D01*
X174808804Y-107808353D01*
X174837829Y-107744797D01*
X174843861Y-107738319D01*
X174883887Y-107698293D01*
X174981394Y-107543110D01*
X175041926Y-107370121D01*
X175062446Y-107188000D01*
X175062095Y-107184888D01*
X175041927Y-107005884D01*
X175041926Y-107005882D01*
X175041926Y-107005879D01*
X174981394Y-106832890D01*
X174885330Y-106680004D01*
X182806953Y-106680004D01*
X182827113Y-106949026D01*
X182827113Y-106949028D01*
X182887142Y-107212033D01*
X182887148Y-107212052D01*
X182985709Y-107463181D01*
X182985708Y-107463181D01*
X183120602Y-107696822D01*
X183174294Y-107764151D01*
X183174295Y-107764151D01*
X184010958Y-106927488D01*
X184035978Y-106987890D01*
X184107112Y-107094351D01*
X184197649Y-107184888D01*
X184304110Y-107256022D01*
X184364510Y-107281041D01*
X183526848Y-108118702D01*
X183709483Y-108243220D01*
X183709485Y-108243221D01*
X183952539Y-108360269D01*
X183952537Y-108360269D01*
X184210337Y-108439790D01*
X184210343Y-108439792D01*
X184477101Y-108479999D01*
X184477110Y-108480000D01*
X184746890Y-108480000D01*
X184746898Y-108479999D01*
X185013656Y-108439792D01*
X185013662Y-108439790D01*
X185271461Y-108360269D01*
X185514521Y-108243218D01*
X185697150Y-108118702D01*
X184859488Y-107281041D01*
X184919890Y-107256022D01*
X185026351Y-107184888D01*
X185116888Y-107094351D01*
X185188022Y-106987890D01*
X185213041Y-106927489D01*
X186049703Y-107764151D01*
X186049704Y-107764150D01*
X186103393Y-107696828D01*
X186103400Y-107696817D01*
X186238290Y-107463181D01*
X186336851Y-107212052D01*
X186336857Y-107212033D01*
X186396886Y-106949028D01*
X186396886Y-106949026D01*
X186417047Y-106680004D01*
X186417047Y-106679995D01*
X186396886Y-106410973D01*
X186396886Y-106410971D01*
X186336857Y-106147966D01*
X186336851Y-106147947D01*
X186238290Y-105896818D01*
X186238291Y-105896818D01*
X186103397Y-105663177D01*
X186049704Y-105595847D01*
X185213041Y-106432510D01*
X185188022Y-106372110D01*
X185116888Y-106265649D01*
X185026351Y-106175112D01*
X184919890Y-106103978D01*
X184859488Y-106078958D01*
X185697150Y-105241296D01*
X185514517Y-105116779D01*
X185514516Y-105116778D01*
X185271460Y-104999730D01*
X185271462Y-104999730D01*
X185013662Y-104920209D01*
X185013656Y-104920207D01*
X184746898Y-104880000D01*
X184477101Y-104880000D01*
X184210343Y-104920207D01*
X184210337Y-104920209D01*
X183952538Y-104999730D01*
X183709485Y-105116778D01*
X183709476Y-105116783D01*
X183526848Y-105241296D01*
X184364511Y-106078958D01*
X184304110Y-106103978D01*
X184197649Y-106175112D01*
X184107112Y-106265649D01*
X184035978Y-106372110D01*
X184010958Y-106432511D01*
X183174295Y-105595848D01*
X183120600Y-105663180D01*
X182985709Y-105896818D01*
X182887148Y-106147947D01*
X182887142Y-106147966D01*
X182827113Y-106410971D01*
X182827113Y-106410973D01*
X182806953Y-106679995D01*
X182806953Y-106680004D01*
X174885330Y-106680004D01*
X174883887Y-106677707D01*
X174754293Y-106548113D01*
X174599110Y-106450606D01*
X174599109Y-106450605D01*
X174599108Y-106450605D01*
X174599106Y-106450604D01*
X174426115Y-106390072D01*
X174244004Y-106369554D01*
X174243996Y-106369554D01*
X174061884Y-106390072D01*
X173888893Y-106450604D01*
X173888891Y-106450605D01*
X173733706Y-106548113D01*
X173604113Y-106677706D01*
X173586994Y-106704952D01*
X173534659Y-106751243D01*
X173465605Y-106761891D01*
X173401757Y-106733516D01*
X173377006Y-106704952D01*
X173361328Y-106680001D01*
X173359887Y-106677707D01*
X173230293Y-106548113D01*
X173075110Y-106450606D01*
X173075109Y-106450605D01*
X173075108Y-106450605D01*
X173075106Y-106450604D01*
X172902115Y-106390072D01*
X172720004Y-106369554D01*
X172719996Y-106369554D01*
X172537884Y-106390072D01*
X172364893Y-106450604D01*
X172364891Y-106450605D01*
X172209706Y-106548113D01*
X172080113Y-106677706D01*
X171982605Y-106832891D01*
X171982604Y-106832893D01*
X171922072Y-107005884D01*
X171901554Y-107187996D01*
X171901554Y-107188003D01*
X171922072Y-107370115D01*
X171982604Y-107543106D01*
X171982605Y-107543108D01*
X172080113Y-107698293D01*
X172120139Y-107738319D01*
X172153624Y-107799642D01*
X172148640Y-107869334D01*
X172106768Y-107925267D01*
X172041304Y-107949684D01*
X172032458Y-107950000D01*
X164166257Y-107950000D01*
X164099218Y-107930315D01*
X164053463Y-107877511D01*
X164043519Y-107808353D01*
X164055257Y-107770728D01*
X164091325Y-107698293D01*
X164138850Y-107602850D01*
X164196845Y-107399018D01*
X164216399Y-107188000D01*
X164196845Y-106976982D01*
X164138850Y-106773150D01*
X164044389Y-106583446D01*
X163916677Y-106414329D01*
X163916675Y-106414326D01*
X163760066Y-106271559D01*
X163760065Y-106271558D01*
X163691449Y-106229072D01*
X163579886Y-106159995D01*
X163579884Y-106159994D01*
X163435289Y-106103978D01*
X163382274Y-106083440D01*
X163173961Y-106044500D01*
X162962039Y-106044500D01*
X162753726Y-106083440D01*
X162753723Y-106083440D01*
X162753723Y-106083441D01*
X162556115Y-106159994D01*
X162556113Y-106159995D01*
X162371278Y-106274441D01*
X162303917Y-106292997D01*
X162240722Y-106274441D01*
X162055886Y-106159995D01*
X162055884Y-106159994D01*
X161911289Y-106103978D01*
X161858274Y-106083440D01*
X161649961Y-106044500D01*
X161438039Y-106044500D01*
X161229726Y-106083440D01*
X161229723Y-106083440D01*
X161229723Y-106083441D01*
X161032115Y-106159994D01*
X161032113Y-106159995D01*
X160851933Y-106271559D01*
X160735957Y-106377285D01*
X160673153Y-106407902D01*
X160631100Y-106402933D01*
X160641257Y-106455267D01*
X160616758Y-106518364D01*
X160567611Y-106583446D01*
X160473151Y-106773146D01*
X160415154Y-106976986D01*
X160395601Y-107187999D01*
X160395601Y-107188000D01*
X160415154Y-107399013D01*
X160415154Y-107399015D01*
X160415155Y-107399018D01*
X160456152Y-107543108D01*
X160473151Y-107602853D01*
X160556743Y-107770728D01*
X160569004Y-107839514D01*
X160542131Y-107904009D01*
X160484655Y-107943736D01*
X160445743Y-107950000D01*
X158493000Y-107950000D01*
X158425961Y-107930315D01*
X158380206Y-107877511D01*
X158369000Y-107826000D01*
X158369000Y-106065000D01*
X158388685Y-105997961D01*
X158441489Y-105952206D01*
X158493000Y-105941000D01*
X158814501Y-105941000D01*
X158881540Y-105960685D01*
X158927295Y-106013489D01*
X158938501Y-106065000D01*
X158938501Y-106072325D01*
X158949191Y-106145704D01*
X159004525Y-106258892D01*
X159093607Y-106347974D01*
X159093608Y-106347974D01*
X159093610Y-106347976D01*
X159206796Y-106403309D01*
X159280173Y-106414000D01*
X160251826Y-106413999D01*
X160325204Y-106403309D01*
X160438390Y-106347976D01*
X160438394Y-106347971D01*
X160445746Y-106342723D01*
X160511744Y-106319786D01*
X160540660Y-106326761D01*
X160528458Y-106288772D01*
X160541019Y-106231187D01*
X160568432Y-106175112D01*
X160582809Y-106145704D01*
X160593500Y-106072327D01*
X160593499Y-105300674D01*
X160582809Y-105227296D01*
X160527476Y-105114110D01*
X160527474Y-105114108D01*
X160527474Y-105114107D01*
X160438392Y-105025025D01*
X160438390Y-105025024D01*
X160379714Y-104996339D01*
X160328133Y-104949212D01*
X160310218Y-104881678D01*
X160331659Y-104815179D01*
X160385648Y-104770829D01*
X160395171Y-104767233D01*
X160535119Y-104720858D01*
X160535124Y-104720856D01*
X160684345Y-104628815D01*
X160808315Y-104504845D01*
X160900356Y-104355624D01*
X160900358Y-104355619D01*
X160955505Y-104189197D01*
X160955506Y-104189190D01*
X160965999Y-104086486D01*
X160966000Y-104086473D01*
X160966000Y-103936500D01*
X159640000Y-103936500D01*
X159572961Y-103916815D01*
X159527206Y-103864011D01*
X159516000Y-103812500D01*
X159516000Y-102586500D01*
X160016000Y-102586500D01*
X160016000Y-103436500D01*
X160965999Y-103436500D01*
X160965999Y-103286528D01*
X160965998Y-103286513D01*
X160955505Y-103183802D01*
X160900358Y-103017380D01*
X160900356Y-103017375D01*
X160808315Y-102868154D01*
X160684345Y-102744184D01*
X160535124Y-102652143D01*
X160535119Y-102652141D01*
X160368697Y-102596994D01*
X160368690Y-102596993D01*
X160265986Y-102586500D01*
X160016000Y-102586500D01*
X159516000Y-102586500D01*
X159266029Y-102586500D01*
X159266012Y-102586501D01*
X159163302Y-102596994D01*
X158996880Y-102652141D01*
X158996875Y-102652143D01*
X158847654Y-102744184D01*
X158723684Y-102868154D01*
X158631643Y-103017375D01*
X158631641Y-103017380D01*
X158610706Y-103080560D01*
X158570933Y-103138005D01*
X158506418Y-103164828D01*
X158437642Y-103152513D01*
X158386442Y-103104970D01*
X158369000Y-103041556D01*
X158369000Y-101724000D01*
X158388685Y-101656961D01*
X158441489Y-101611206D01*
X158493000Y-101600000D01*
X177748638Y-101600000D01*
X177815677Y-101619685D01*
G37*
%TD.AperFunction*%
%TD*%
%TA.AperFunction,Conductor*%
%TO.N,DIQ6*%
G36*
X187268039Y-119399685D02*
G01*
X187313794Y-119452489D01*
X187325000Y-119504000D01*
X187325000Y-124203500D01*
X187305315Y-124270539D01*
X187252511Y-124316294D01*
X187201000Y-124327500D01*
X181668075Y-124327500D01*
X181647971Y-124329035D01*
X181647958Y-124329036D01*
X181647955Y-124329036D01*
X181647938Y-124329038D01*
X181610739Y-124334753D01*
X181557093Y-124355650D01*
X181557089Y-124355652D01*
X181499050Y-124394550D01*
X181499048Y-124394551D01*
X181471029Y-124419791D01*
X181471026Y-124419795D01*
X179528546Y-126750773D01*
X179391540Y-126915180D01*
X179320854Y-127000003D01*
X176206265Y-130737511D01*
X176183038Y-130765383D01*
X176124999Y-130804282D01*
X176087779Y-130810000D01*
X174677542Y-130810000D01*
X174610503Y-130790315D01*
X174564748Y-130737511D01*
X174554804Y-130668353D01*
X174583829Y-130604797D01*
X174589861Y-130598319D01*
X174629887Y-130558293D01*
X174727394Y-130403110D01*
X174787926Y-130230121D01*
X174808446Y-130048000D01*
X174787926Y-129865879D01*
X174727394Y-129692890D01*
X174629887Y-129537707D01*
X174500293Y-129408113D01*
X174345110Y-129310606D01*
X174345109Y-129310605D01*
X174345108Y-129310605D01*
X174345106Y-129310604D01*
X174172115Y-129250072D01*
X173990004Y-129229554D01*
X173989996Y-129229554D01*
X173807884Y-129250072D01*
X173634893Y-129310604D01*
X173634891Y-129310605D01*
X173479706Y-129408113D01*
X173350113Y-129537706D01*
X173332994Y-129564952D01*
X173280659Y-129611243D01*
X173211605Y-129621891D01*
X173147757Y-129593516D01*
X173123006Y-129564952D01*
X173105886Y-129537706D01*
X172976293Y-129408113D01*
X172821108Y-129310605D01*
X172821106Y-129310604D01*
X172648115Y-129250072D01*
X172466004Y-129229554D01*
X172465996Y-129229554D01*
X172283884Y-129250072D01*
X172110893Y-129310604D01*
X172110891Y-129310605D01*
X171955706Y-129408113D01*
X171826113Y-129537706D01*
X171728605Y-129692891D01*
X171728604Y-129692893D01*
X171668072Y-129865884D01*
X171647554Y-130047996D01*
X171647554Y-130048003D01*
X171668072Y-130230115D01*
X171728604Y-130403106D01*
X171728605Y-130403108D01*
X171826113Y-130558293D01*
X171866139Y-130598319D01*
X171899624Y-130659642D01*
X171894640Y-130729334D01*
X171852768Y-130785267D01*
X171787304Y-130809684D01*
X171778458Y-130810000D01*
X164166257Y-130810000D01*
X164099218Y-130790315D01*
X164053463Y-130737511D01*
X164043519Y-130668353D01*
X164055257Y-130630728D01*
X164091325Y-130558293D01*
X164138850Y-130462850D01*
X164196845Y-130259018D01*
X164216399Y-130048000D01*
X164196845Y-129836982D01*
X164138850Y-129633150D01*
X164044389Y-129443446D01*
X163916677Y-129274329D01*
X163916675Y-129274326D01*
X163760066Y-129131559D01*
X163760065Y-129131558D01*
X163691449Y-129089072D01*
X163579886Y-129019995D01*
X163579884Y-129019994D01*
X163435392Y-128964018D01*
X163382274Y-128943440D01*
X163173961Y-128904500D01*
X162962039Y-128904500D01*
X162753726Y-128943440D01*
X162753723Y-128943440D01*
X162753723Y-128943441D01*
X162556115Y-129019994D01*
X162556113Y-129019995D01*
X162371278Y-129134441D01*
X162303917Y-129152997D01*
X162240722Y-129134441D01*
X162055886Y-129019995D01*
X162055884Y-129019994D01*
X161911392Y-128964018D01*
X161858274Y-128943440D01*
X161649961Y-128904500D01*
X161438039Y-128904500D01*
X161229726Y-128943440D01*
X161229723Y-128943440D01*
X161229723Y-128943441D01*
X161032115Y-129019994D01*
X161032113Y-129019995D01*
X160851933Y-129131559D01*
X160735957Y-129237285D01*
X160673153Y-129267902D01*
X160631100Y-129262933D01*
X160641257Y-129315267D01*
X160616758Y-129378364D01*
X160567611Y-129443446D01*
X160473151Y-129633146D01*
X160415154Y-129836986D01*
X160395601Y-130047999D01*
X160395601Y-130048000D01*
X160415154Y-130259013D01*
X160415154Y-130259015D01*
X160415155Y-130259018D01*
X160456152Y-130403108D01*
X160473151Y-130462853D01*
X160556743Y-130630728D01*
X160569004Y-130699514D01*
X160542131Y-130764009D01*
X160484655Y-130803736D01*
X160445743Y-130810000D01*
X158493000Y-130810000D01*
X158425961Y-130790315D01*
X158380206Y-130737511D01*
X158369000Y-130686000D01*
X158369000Y-128925000D01*
X158388685Y-128857961D01*
X158441489Y-128812206D01*
X158493000Y-128801000D01*
X158814501Y-128801000D01*
X158881540Y-128820685D01*
X158927295Y-128873489D01*
X158938501Y-128925000D01*
X158938501Y-128932325D01*
X158949191Y-129005704D01*
X159004525Y-129118892D01*
X159093607Y-129207974D01*
X159093608Y-129207974D01*
X159093610Y-129207976D01*
X159206796Y-129263309D01*
X159280173Y-129274000D01*
X160251826Y-129273999D01*
X160325204Y-129263309D01*
X160438390Y-129207976D01*
X160438394Y-129207971D01*
X160445746Y-129202723D01*
X160511744Y-129179786D01*
X160540660Y-129186761D01*
X160528458Y-129148772D01*
X160541019Y-129091187D01*
X160582809Y-129005704D01*
X160593500Y-128932327D01*
X160593499Y-128160674D01*
X160582809Y-128087296D01*
X160527476Y-127974110D01*
X160527474Y-127974108D01*
X160527474Y-127974107D01*
X160438392Y-127885025D01*
X160423517Y-127877753D01*
X160379714Y-127856339D01*
X160328133Y-127809212D01*
X160310218Y-127741678D01*
X160331659Y-127675179D01*
X160385648Y-127630829D01*
X160395171Y-127627233D01*
X160535119Y-127580858D01*
X160535124Y-127580856D01*
X160684345Y-127488815D01*
X160808315Y-127364845D01*
X160900356Y-127215624D01*
X160900358Y-127215619D01*
X160955505Y-127049197D01*
X160955506Y-127049190D01*
X160965999Y-126946486D01*
X160966000Y-126946473D01*
X160966000Y-126796500D01*
X159640000Y-126796500D01*
X159572961Y-126776815D01*
X159527206Y-126724011D01*
X159516000Y-126672500D01*
X159516000Y-125446500D01*
X160016000Y-125446500D01*
X160016000Y-126296500D01*
X160965999Y-126296500D01*
X160965999Y-126146528D01*
X160965998Y-126146513D01*
X160955505Y-126043802D01*
X160900358Y-125877380D01*
X160900356Y-125877375D01*
X160808315Y-125728154D01*
X160684345Y-125604184D01*
X160535124Y-125512143D01*
X160535119Y-125512141D01*
X160368697Y-125456994D01*
X160368690Y-125456993D01*
X160265986Y-125446500D01*
X160016000Y-125446500D01*
X159516000Y-125446500D01*
X159266029Y-125446500D01*
X159266012Y-125446501D01*
X159163302Y-125456994D01*
X158996880Y-125512141D01*
X158996875Y-125512143D01*
X158847654Y-125604184D01*
X158723684Y-125728154D01*
X158631643Y-125877375D01*
X158631641Y-125877380D01*
X158610706Y-125940560D01*
X158570933Y-125998005D01*
X158506418Y-126024828D01*
X158437642Y-126012513D01*
X158386442Y-125964970D01*
X158369000Y-125901556D01*
X158369000Y-124584000D01*
X158388685Y-124516961D01*
X158441489Y-124471206D01*
X158493000Y-124460000D01*
X173990000Y-124460000D01*
X176529996Y-121920004D01*
X182806953Y-121920004D01*
X182827113Y-122189026D01*
X182827113Y-122189028D01*
X182887142Y-122452033D01*
X182887148Y-122452052D01*
X182985709Y-122703181D01*
X182985708Y-122703181D01*
X183120602Y-122936822D01*
X183174294Y-123004151D01*
X183174295Y-123004151D01*
X184010958Y-122167488D01*
X184035978Y-122227890D01*
X184107112Y-122334351D01*
X184197649Y-122424888D01*
X184304110Y-122496022D01*
X184364510Y-122521041D01*
X183526848Y-123358702D01*
X183709483Y-123483220D01*
X183709485Y-123483221D01*
X183952539Y-123600269D01*
X183952537Y-123600269D01*
X184210337Y-123679790D01*
X184210343Y-123679792D01*
X184477101Y-123719999D01*
X184477110Y-123720000D01*
X184746890Y-123720000D01*
X184746898Y-123719999D01*
X185013656Y-123679792D01*
X185013662Y-123679790D01*
X185271461Y-123600269D01*
X185514521Y-123483218D01*
X185697150Y-123358702D01*
X184859488Y-122521041D01*
X184919890Y-122496022D01*
X185026351Y-122424888D01*
X185116888Y-122334351D01*
X185188022Y-122227890D01*
X185213041Y-122167489D01*
X186049703Y-123004151D01*
X186049704Y-123004150D01*
X186103393Y-122936828D01*
X186103400Y-122936817D01*
X186238290Y-122703181D01*
X186336851Y-122452052D01*
X186336857Y-122452033D01*
X186396886Y-122189028D01*
X186396886Y-122189026D01*
X186417047Y-121920004D01*
X186417047Y-121919995D01*
X186396886Y-121650973D01*
X186396886Y-121650971D01*
X186336857Y-121387966D01*
X186336851Y-121387947D01*
X186238290Y-121136818D01*
X186238291Y-121136818D01*
X186103397Y-120903177D01*
X186049704Y-120835847D01*
X185213041Y-121672510D01*
X185188022Y-121612110D01*
X185116888Y-121505649D01*
X185026351Y-121415112D01*
X184919890Y-121343978D01*
X184859488Y-121318958D01*
X185697150Y-120481296D01*
X185514517Y-120356779D01*
X185514516Y-120356778D01*
X185271460Y-120239730D01*
X185271462Y-120239730D01*
X185013662Y-120160209D01*
X185013656Y-120160207D01*
X184746898Y-120120000D01*
X184477101Y-120120000D01*
X184210343Y-120160207D01*
X184210337Y-120160209D01*
X183952538Y-120239730D01*
X183709485Y-120356778D01*
X183709476Y-120356783D01*
X183526848Y-120481296D01*
X184364511Y-121318958D01*
X184304110Y-121343978D01*
X184197649Y-121415112D01*
X184107112Y-121505649D01*
X184035978Y-121612110D01*
X184010958Y-121672511D01*
X183174295Y-120835848D01*
X183120600Y-120903180D01*
X182985709Y-121136818D01*
X182887148Y-121387947D01*
X182887142Y-121387966D01*
X182827113Y-121650971D01*
X182827113Y-121650973D01*
X182806953Y-121919995D01*
X182806953Y-121920004D01*
X176529996Y-121920004D01*
X179033681Y-119416319D01*
X179095004Y-119382834D01*
X179121362Y-119380000D01*
X187201000Y-119380000D01*
X187268039Y-119399685D01*
G37*
%TD.AperFunction*%
%TD*%
%TA.AperFunction,Conductor*%
%TO.N,DIQ1*%
G36*
X175268961Y-86379685D02*
G01*
X175297180Y-86404616D01*
X178282747Y-89987296D01*
X181469317Y-93811181D01*
X181610000Y-93980000D01*
X187201000Y-93980000D01*
X187268039Y-93999685D01*
X187313794Y-94052489D01*
X187325000Y-94104000D01*
X187325000Y-98803500D01*
X187305315Y-98870539D01*
X187252511Y-98916294D01*
X187201000Y-98927500D01*
X181716246Y-98927500D01*
X181649207Y-98907815D01*
X181628565Y-98891181D01*
X179257388Y-96520004D01*
X182806953Y-96520004D01*
X182827113Y-96789026D01*
X182827113Y-96789028D01*
X182887142Y-97052033D01*
X182887148Y-97052052D01*
X182985709Y-97303181D01*
X182985708Y-97303181D01*
X183120602Y-97536822D01*
X183174294Y-97604151D01*
X183174295Y-97604151D01*
X184010958Y-96767488D01*
X184035978Y-96827890D01*
X184107112Y-96934351D01*
X184197649Y-97024888D01*
X184304110Y-97096022D01*
X184364510Y-97121041D01*
X183526848Y-97958702D01*
X183709483Y-98083220D01*
X183709485Y-98083221D01*
X183952539Y-98200269D01*
X183952537Y-98200269D01*
X184210337Y-98279790D01*
X184210343Y-98279792D01*
X184477101Y-98319999D01*
X184477110Y-98320000D01*
X184746890Y-98320000D01*
X184746898Y-98319999D01*
X185013656Y-98279792D01*
X185013662Y-98279790D01*
X185271461Y-98200269D01*
X185514521Y-98083218D01*
X185697150Y-97958702D01*
X184859488Y-97121041D01*
X184919890Y-97096022D01*
X185026351Y-97024888D01*
X185116888Y-96934351D01*
X185188022Y-96827890D01*
X185213041Y-96767489D01*
X186049703Y-97604151D01*
X186049704Y-97604150D01*
X186103393Y-97536828D01*
X186103400Y-97536817D01*
X186238290Y-97303181D01*
X186336851Y-97052052D01*
X186336857Y-97052033D01*
X186396886Y-96789028D01*
X186396886Y-96789026D01*
X186417047Y-96520004D01*
X186417047Y-96519995D01*
X186396886Y-96250973D01*
X186396886Y-96250971D01*
X186336857Y-95987966D01*
X186336851Y-95987947D01*
X186238290Y-95736818D01*
X186238291Y-95736818D01*
X186103397Y-95503177D01*
X186049704Y-95435847D01*
X185213041Y-96272510D01*
X185188022Y-96212110D01*
X185116888Y-96105649D01*
X185026351Y-96015112D01*
X184919890Y-95943978D01*
X184859488Y-95918958D01*
X185697150Y-95081296D01*
X185514517Y-94956779D01*
X185514516Y-94956778D01*
X185271460Y-94839730D01*
X185271462Y-94839730D01*
X185013662Y-94760209D01*
X185013656Y-94760207D01*
X184746898Y-94720000D01*
X184477101Y-94720000D01*
X184210343Y-94760207D01*
X184210337Y-94760209D01*
X183952538Y-94839730D01*
X183709485Y-94956778D01*
X183709476Y-94956783D01*
X183526848Y-95081296D01*
X184364511Y-95918958D01*
X184304110Y-95943978D01*
X184197649Y-96015112D01*
X184107112Y-96105649D01*
X184035978Y-96212110D01*
X184010958Y-96272511D01*
X183174295Y-95435848D01*
X183120600Y-95503180D01*
X182985709Y-95736818D01*
X182887148Y-95987947D01*
X182887142Y-95987966D01*
X182827113Y-96250971D01*
X182827113Y-96250973D01*
X182806953Y-96519995D01*
X182806953Y-96520004D01*
X179257388Y-96520004D01*
X176660024Y-93922640D01*
X176660011Y-93922627D01*
X176649458Y-93913148D01*
X176628816Y-93896514D01*
X176628813Y-93896512D01*
X176628810Y-93896510D01*
X176583007Y-93872551D01*
X176583006Y-93872550D01*
X176515967Y-93852866D01*
X176515970Y-93852866D01*
X176478641Y-93847500D01*
X176478638Y-93847500D01*
X176448862Y-93847500D01*
X176381823Y-93827815D01*
X176361181Y-93811181D01*
X175260000Y-92710000D01*
X174931542Y-92710000D01*
X174864503Y-92690315D01*
X174818748Y-92637511D01*
X174808804Y-92568353D01*
X174837829Y-92504797D01*
X174843861Y-92498319D01*
X174848335Y-92493845D01*
X174883887Y-92458293D01*
X174981394Y-92303110D01*
X175041926Y-92130121D01*
X175062446Y-91948000D01*
X175041926Y-91765879D01*
X174981394Y-91592890D01*
X174883887Y-91437707D01*
X174754293Y-91308113D01*
X174599110Y-91210606D01*
X174599109Y-91210605D01*
X174599108Y-91210605D01*
X174599106Y-91210604D01*
X174426115Y-91150072D01*
X174244004Y-91129554D01*
X174243996Y-91129554D01*
X174061884Y-91150072D01*
X173888893Y-91210604D01*
X173888891Y-91210605D01*
X173733706Y-91308113D01*
X173604113Y-91437706D01*
X173586994Y-91464952D01*
X173534659Y-91511243D01*
X173465605Y-91521891D01*
X173401757Y-91493516D01*
X173377006Y-91464952D01*
X173359887Y-91437707D01*
X173230293Y-91308113D01*
X173075110Y-91210606D01*
X173075109Y-91210605D01*
X173075108Y-91210605D01*
X173075106Y-91210604D01*
X172902115Y-91150072D01*
X172720004Y-91129554D01*
X172719996Y-91129554D01*
X172537884Y-91150072D01*
X172364893Y-91210604D01*
X172364891Y-91210605D01*
X172209706Y-91308113D01*
X172080113Y-91437706D01*
X171982605Y-91592891D01*
X171982604Y-91592893D01*
X171922072Y-91765884D01*
X171901554Y-91947996D01*
X171901554Y-91948003D01*
X171922072Y-92130115D01*
X171982604Y-92303106D01*
X171982605Y-92303108D01*
X172080113Y-92458293D01*
X172120139Y-92498319D01*
X172153624Y-92559642D01*
X172148640Y-92629334D01*
X172106768Y-92685267D01*
X172041304Y-92709684D01*
X172032458Y-92710000D01*
X164166257Y-92710000D01*
X164099218Y-92690315D01*
X164053463Y-92637511D01*
X164043519Y-92568353D01*
X164055257Y-92530728D01*
X164091325Y-92458293D01*
X164138850Y-92362850D01*
X164196845Y-92159018D01*
X164216399Y-91948000D01*
X164196845Y-91736982D01*
X164138850Y-91533150D01*
X164044389Y-91343446D01*
X163916677Y-91174329D01*
X163916675Y-91174326D01*
X163760066Y-91031559D01*
X163760065Y-91031558D01*
X163668564Y-90974903D01*
X163579886Y-90919995D01*
X163579884Y-90919994D01*
X163435392Y-90864018D01*
X163382274Y-90843440D01*
X163173961Y-90804500D01*
X162962039Y-90804500D01*
X162753726Y-90843440D01*
X162753723Y-90843440D01*
X162753723Y-90843441D01*
X162556115Y-90919994D01*
X162556113Y-90919995D01*
X162371278Y-91034441D01*
X162303917Y-91052997D01*
X162240722Y-91034441D01*
X162055886Y-90919995D01*
X162055884Y-90919994D01*
X161911392Y-90864018D01*
X161858274Y-90843440D01*
X161649961Y-90804500D01*
X161438039Y-90804500D01*
X161229726Y-90843440D01*
X161229723Y-90843440D01*
X161229723Y-90843441D01*
X161032115Y-90919994D01*
X161032113Y-90919995D01*
X160851933Y-91031559D01*
X160735957Y-91137285D01*
X160673153Y-91167902D01*
X160631100Y-91162933D01*
X160641257Y-91215267D01*
X160616758Y-91278364D01*
X160567611Y-91343446D01*
X160473151Y-91533146D01*
X160415154Y-91736986D01*
X160395601Y-91947999D01*
X160395601Y-91948000D01*
X160415154Y-92159013D01*
X160415154Y-92159015D01*
X160415155Y-92159018D01*
X160456152Y-92303108D01*
X160473151Y-92362853D01*
X160556743Y-92530728D01*
X160569004Y-92599514D01*
X160542131Y-92664009D01*
X160484655Y-92703736D01*
X160445743Y-92710000D01*
X158493000Y-92710000D01*
X158425961Y-92690315D01*
X158380206Y-92637511D01*
X158369000Y-92586000D01*
X158369000Y-90825000D01*
X158388685Y-90757961D01*
X158441489Y-90712206D01*
X158493000Y-90701000D01*
X158814501Y-90701000D01*
X158881540Y-90720685D01*
X158927295Y-90773489D01*
X158938501Y-90825000D01*
X158938501Y-90832325D01*
X158949191Y-90905704D01*
X159004525Y-91018892D01*
X159093607Y-91107974D01*
X159093608Y-91107974D01*
X159093610Y-91107976D01*
X159206796Y-91163309D01*
X159280173Y-91174000D01*
X160251826Y-91173999D01*
X160325204Y-91163309D01*
X160438390Y-91107976D01*
X160438394Y-91107971D01*
X160445746Y-91102723D01*
X160511744Y-91079786D01*
X160540660Y-91086761D01*
X160528458Y-91048772D01*
X160541019Y-90991187D01*
X160548980Y-90974903D01*
X160582809Y-90905704D01*
X160593500Y-90832327D01*
X160593499Y-90060674D01*
X160582809Y-89987296D01*
X160527476Y-89874110D01*
X160527474Y-89874108D01*
X160527474Y-89874107D01*
X160438392Y-89785025D01*
X160438390Y-89785024D01*
X160379714Y-89756339D01*
X160328133Y-89709212D01*
X160310218Y-89641678D01*
X160331659Y-89575179D01*
X160385648Y-89530829D01*
X160395171Y-89527233D01*
X160535119Y-89480858D01*
X160535124Y-89480856D01*
X160684345Y-89388815D01*
X160808315Y-89264845D01*
X160900356Y-89115624D01*
X160900358Y-89115619D01*
X160955505Y-88949197D01*
X160955506Y-88949190D01*
X160965999Y-88846486D01*
X160966000Y-88846473D01*
X160966000Y-88696500D01*
X159640000Y-88696500D01*
X159572961Y-88676815D01*
X159527206Y-88624011D01*
X159516000Y-88572500D01*
X159516000Y-87346500D01*
X160016000Y-87346500D01*
X160016000Y-88196500D01*
X160965999Y-88196500D01*
X160965999Y-88046528D01*
X160965998Y-88046513D01*
X160955505Y-87943802D01*
X160900358Y-87777380D01*
X160900356Y-87777375D01*
X160808315Y-87628154D01*
X160684345Y-87504184D01*
X160535124Y-87412143D01*
X160535119Y-87412141D01*
X160368697Y-87356994D01*
X160368690Y-87356993D01*
X160265986Y-87346500D01*
X160016000Y-87346500D01*
X159516000Y-87346500D01*
X159266029Y-87346500D01*
X159266012Y-87346501D01*
X159163302Y-87356994D01*
X158996880Y-87412141D01*
X158996875Y-87412143D01*
X158847654Y-87504184D01*
X158723684Y-87628154D01*
X158631643Y-87777375D01*
X158631641Y-87777380D01*
X158610706Y-87840560D01*
X158570933Y-87898005D01*
X158506418Y-87924828D01*
X158437642Y-87912513D01*
X158386442Y-87864970D01*
X158369000Y-87801556D01*
X158369000Y-86484000D01*
X158388685Y-86416961D01*
X158441489Y-86371206D01*
X158493000Y-86360000D01*
X175201922Y-86360000D01*
X175268961Y-86379685D01*
G37*
%TD.AperFunction*%
%TD*%
D25*
X99060000Y-55880000D02*
X191516000Y-55880000D01*
X191516000Y-142240000D01*
X99060000Y-142240000D01*
X99060000Y-55880000D01*
M02*
