%TF.GenerationSoftware,KiCad,Pcbnew,8.0.0*%
%TF.CreationDate,2024-05-13T12:24:45+02:00*%
%TF.ProjectId,plc_io_module,706c635f-696f-45f6-9d6f-64756c652e6b,1.0.0*%
%TF.SameCoordinates,Original*%
%TF.FileFunction,Copper,L1,Top*%
%TF.FilePolarity,Positive*%
%FSLAX46Y46*%
G04 Gerber Fmt 4.6, Leading zero omitted, Abs format (unit mm)*
G04 Created by KiCad (PCBNEW 8.0.0) date 2024-05-13 12:24:45*
%MOMM*%
%LPD*%
G01*
G04 APERTURE LIST*
G04 Aperture macros list*
%AMRoundRect*
0 Rectangle with rounded corners*
0 $1 Rounding radius*
0 $2 $3 $4 $5 $6 $7 $8 $9 X,Y pos of 4 corners*
0 Add a 4 corners polygon primitive as box body*
4,1,4,$2,$3,$4,$5,$6,$7,$8,$9,$2,$3,0*
0 Add four circle primitives for the rounded corners*
1,1,$1+$1,$2,$3*
1,1,$1+$1,$4,$5*
1,1,$1+$1,$6,$7*
1,1,$1+$1,$8,$9*
0 Add four rect primitives between the rounded corners*
20,1,$1+$1,$2,$3,$4,$5,0*
20,1,$1+$1,$4,$5,$6,$7,0*
20,1,$1+$1,$6,$7,$8,$9,0*
20,1,$1+$1,$8,$9,$2,$3,0*%
G04 Aperture macros list end*
%TA.AperFunction,EtchedComponent*%
%ADD10C,0.000000*%
%TD*%
%TA.AperFunction,SMDPad,CuDef*%
%ADD11RoundRect,0.250000X-0.650000X0.412500X-0.650000X-0.412500X0.650000X-0.412500X0.650000X0.412500X0*%
%TD*%
%TA.AperFunction,SMDPad,CuDef*%
%ADD12RoundRect,0.250000X0.412500X0.650000X-0.412500X0.650000X-0.412500X-0.650000X0.412500X-0.650000X0*%
%TD*%
%TA.AperFunction,SMDPad,CuDef*%
%ADD13RoundRect,0.150000X-0.875000X-0.150000X0.875000X-0.150000X0.875000X0.150000X-0.875000X0.150000X0*%
%TD*%
%TA.AperFunction,SMDPad,CuDef*%
%ADD14RoundRect,0.375000X-0.625000X-0.375000X0.625000X-0.375000X0.625000X0.375000X-0.625000X0.375000X0*%
%TD*%
%TA.AperFunction,SMDPad,CuDef*%
%ADD15RoundRect,0.500000X-0.500000X-1.400000X0.500000X-1.400000X0.500000X1.400000X-0.500000X1.400000X0*%
%TD*%
%TA.AperFunction,SMDPad,CuDef*%
%ADD16RoundRect,0.250000X0.450000X-0.262500X0.450000X0.262500X-0.450000X0.262500X-0.450000X-0.262500X0*%
%TD*%
%TA.AperFunction,SMDPad,CuDef*%
%ADD17R,1.000000X1.500000*%
%TD*%
%TA.AperFunction,SMDPad,CuDef*%
%ADD18R,3.150000X1.000000*%
%TD*%
%TA.AperFunction,SMDPad,CuDef*%
%ADD19RoundRect,0.250000X0.650000X-0.412500X0.650000X0.412500X-0.650000X0.412500X-0.650000X-0.412500X0*%
%TD*%
%TA.AperFunction,SMDPad,CuDef*%
%ADD20RoundRect,0.250000X-0.350000X-0.450000X0.350000X-0.450000X0.350000X0.450000X-0.350000X0.450000X0*%
%TD*%
%TA.AperFunction,SMDPad,CuDef*%
%ADD21RoundRect,0.250000X0.450000X-0.350000X0.450000X0.350000X-0.450000X0.350000X-0.450000X-0.350000X0*%
%TD*%
%TA.AperFunction,ComponentPad*%
%ADD22RoundRect,0.250000X-0.600000X0.600000X-0.600000X-0.600000X0.600000X-0.600000X0.600000X0.600000X0*%
%TD*%
%TA.AperFunction,ComponentPad*%
%ADD23C,1.700000*%
%TD*%
%TA.AperFunction,SMDPad,CuDef*%
%ADD24RoundRect,0.250000X-1.750000X-1.000000X1.750000X-1.000000X1.750000X1.000000X-1.750000X1.000000X0*%
%TD*%
%TA.AperFunction,SMDPad,CuDef*%
%ADD25RoundRect,0.250000X-0.450000X0.262500X-0.450000X-0.262500X0.450000X-0.262500X0.450000X0.262500X0*%
%TD*%
%TA.AperFunction,SMDPad,CuDef*%
%ADD26RoundRect,0.250000X0.350000X0.450000X-0.350000X0.450000X-0.350000X-0.450000X0.350000X-0.450000X0*%
%TD*%
%TA.AperFunction,ComponentPad*%
%ADD27R,2.600000X2.600000*%
%TD*%
%TA.AperFunction,ComponentPad*%
%ADD28C,2.600000*%
%TD*%
%TA.AperFunction,ComponentPad*%
%ADD29R,1.800000X1.800000*%
%TD*%
%TA.AperFunction,ComponentPad*%
%ADD30C,1.800000*%
%TD*%
%TA.AperFunction,SMDPad,CuDef*%
%ADD31RoundRect,0.075000X0.075000X-0.662500X0.075000X0.662500X-0.075000X0.662500X-0.075000X-0.662500X0*%
%TD*%
%TA.AperFunction,SMDPad,CuDef*%
%ADD32RoundRect,0.075000X0.662500X-0.075000X0.662500X0.075000X-0.662500X0.075000X-0.662500X-0.075000X0*%
%TD*%
%TA.AperFunction,SMDPad,CuDef*%
%ADD33RoundRect,0.250000X-0.450000X0.350000X-0.450000X-0.350000X0.450000X-0.350000X0.450000X0.350000X0*%
%TD*%
%TA.AperFunction,SMDPad,CuDef*%
%ADD34RoundRect,0.150000X-0.825000X-0.150000X0.825000X-0.150000X0.825000X0.150000X-0.825000X0.150000X0*%
%TD*%
%TA.AperFunction,SMDPad,CuDef*%
%ADD35RoundRect,0.250000X-0.550000X1.500000X-0.550000X-1.500000X0.550000X-1.500000X0.550000X1.500000X0*%
%TD*%
%TA.AperFunction,SMDPad,CuDef*%
%ADD36RoundRect,0.250000X-0.412500X-0.650000X0.412500X-0.650000X0.412500X0.650000X-0.412500X0.650000X0*%
%TD*%
%TA.AperFunction,SMDPad,CuDef*%
%ADD37RoundRect,0.162500X-0.162500X0.617500X-0.162500X-0.617500X0.162500X-0.617500X0.162500X0.617500X0*%
%TD*%
%TA.AperFunction,SMDPad,CuDef*%
%ADD38R,5.400000X2.900000*%
%TD*%
%TA.AperFunction,SMDPad,CuDef*%
%ADD39RoundRect,0.250000X1.450000X-0.400000X1.450000X0.400000X-1.450000X0.400000X-1.450000X-0.400000X0*%
%TD*%
%TA.AperFunction,SMDPad,CuDef*%
%ADD40R,1.200000X1.200000*%
%TD*%
%TA.AperFunction,ComponentPad*%
%ADD41C,1.500000*%
%TD*%
%TA.AperFunction,SMDPad,CuDef*%
%ADD42R,1.500000X1.000000*%
%TD*%
%TA.AperFunction,SMDPad,CuDef*%
%ADD43RoundRect,0.475000X-2.075000X0.475000X-2.075000X-0.475000X2.075000X-0.475000X2.075000X0.475000X0*%
%TD*%
%TA.AperFunction,ViaPad*%
%ADD44C,0.508000*%
%TD*%
%TA.AperFunction,ViaPad*%
%ADD45C,1.270000*%
%TD*%
%TA.AperFunction,Conductor*%
%ADD46C,0.254000*%
%TD*%
%TA.AperFunction,Conductor*%
%ADD47C,1.016000*%
%TD*%
G04 APERTURE END LIST*
D10*
%TA.AperFunction,EtchedComponent*%
%TO.C,JP4*%
G36*
X118980000Y-119680000D02*
G01*
X118480000Y-119680000D01*
X118480000Y-119080000D01*
X118980000Y-119080000D01*
X118980000Y-119680000D01*
G37*
%TD.AperFunction*%
%TA.AperFunction,EtchedComponent*%
%TO.C,JP2*%
G36*
X118980000Y-110536000D02*
G01*
X118480000Y-110536000D01*
X118480000Y-109936000D01*
X118980000Y-109936000D01*
X118980000Y-110536000D01*
G37*
%TD.AperFunction*%
%TA.AperFunction,EtchedComponent*%
%TO.C,JP3*%
G36*
X118980000Y-115108000D02*
G01*
X118480000Y-115108000D01*
X118480000Y-114508000D01*
X118980000Y-114508000D01*
X118980000Y-115108000D01*
G37*
%TD.AperFunction*%
%TA.AperFunction,EtchedComponent*%
%TO.C,JP1*%
G36*
X114015800Y-103084200D02*
G01*
X113415800Y-103084200D01*
X113415800Y-102584200D01*
X114015800Y-102584200D01*
X114015800Y-103084200D01*
G37*
%TD.AperFunction*%
%TD*%
D11*
%TO.P,C16,1*%
%TO.N,+3.3V*%
X141579600Y-101967900D03*
%TO.P,C16,2*%
%TO.N,GND*%
X141579600Y-105092900D03*
%TD*%
D12*
%TO.P,C15,1*%
%TO.N,+3.3V*%
X140246500Y-99568000D03*
%TO.P,C15,2*%
%TO.N,GND*%
X137121500Y-99568000D03*
%TD*%
D13*
%TO.P,U1,1,V_{CC1}*%
%TO.N,+3.3V isolated*%
X113714000Y-89789000D03*
%TO.P,U1,2,GND1*%
%TO.N,GND isolated*%
X113714000Y-91059000D03*
%TO.P,U1,3,INA*%
%TO.N,CS0_I*%
X113714000Y-92329000D03*
%TO.P,U1,4,INB*%
%TO.N,SCK_I*%
X113714000Y-93599000D03*
%TO.P,U1,5,INC*%
%TO.N,MISO_I*%
X113714000Y-94869000D03*
%TO.P,U1,6,OUTD*%
%TO.N,MOSI_I*%
X113714000Y-96139000D03*
%TO.P,U1,7,EN1*%
%TO.N,Net-(JP1-C)*%
X113714000Y-97409000D03*
%TO.P,U1,8,GND1*%
%TO.N,GND isolated*%
X113714000Y-98679000D03*
%TO.P,U1,9,GND2*%
%TO.N,GND*%
X123014000Y-98679000D03*
%TO.P,U1,10,EN2*%
%TO.N,+3.3V*%
X123014000Y-97409000D03*
%TO.P,U1,11,IND*%
%TO.N,SPI_MOSI*%
X123014000Y-96139000D03*
%TO.P,U1,12,OUTC*%
%TO.N,SPI_MISO*%
X123014000Y-94869000D03*
%TO.P,U1,13,OUTB*%
%TO.N,SPI_SCK*%
X123014000Y-93599000D03*
%TO.P,U1,14,OUTA*%
%TO.N,SPI_CS0*%
X123014000Y-92329000D03*
%TO.P,U1,15,GND2*%
%TO.N,GND*%
X123014000Y-91059000D03*
%TO.P,U1,16,V_{CC2}*%
%TO.N,+3.3V*%
X123014000Y-89789000D03*
%TD*%
D14*
%TO.P,Q11,1,B*%
%TO.N,Net-(Q11-B)*%
X159410000Y-94728000D03*
%TO.P,Q11,2,C*%
%TO.N,DIQ2*%
X159410000Y-97028000D03*
D15*
X165710000Y-97028000D03*
D14*
%TO.P,Q11,3,E*%
%TO.N,+24V*%
X159410000Y-99328000D03*
%TD*%
%TO.P,Q1,1,B*%
%TO.N,Net-(Q1-B)*%
X148234000Y-79450500D03*
%TO.P,Q1,2,C*%
%TO.N,Net-(Q1-C-Pad2)*%
X148234000Y-81750500D03*
D15*
X154534000Y-81750500D03*
D14*
%TO.P,Q1,3,E*%
%TO.N,GND*%
X148234000Y-84050500D03*
%TD*%
D16*
%TO.P,R24,1*%
%TO.N,+24V*%
X156972000Y-114704500D03*
%TO.P,R24,2*%
%TO.N,Net-(Q13-B)*%
X156972000Y-112879500D03*
%TD*%
D14*
%TO.P,Q21,1,B*%
%TO.N,Net-(Q21-B)*%
X170586000Y-109968000D03*
%TO.P,Q21,2,C*%
%TO.N,DIQ4*%
X170586000Y-112268000D03*
D15*
X176886000Y-112268000D03*
D14*
%TO.P,Q21,3,E*%
%TO.N,GND*%
X170586000Y-114568000D03*
%TD*%
D12*
%TO.P,C4,1*%
%TO.N,Net-(U2-TC)*%
X122314100Y-60452000D03*
%TO.P,C4,2*%
%TO.N,GND*%
X119189100Y-60452000D03*
%TD*%
D16*
%TO.P,R29,1*%
%TO.N,Net-(Q16-B)*%
X156972000Y-134008500D03*
%TO.P,R29,2*%
%TO.N,Net-(Q8-C-Pad2)*%
X156972000Y-132183500D03*
%TD*%
%TO.P,R28,1*%
%TO.N,+24V*%
X156972000Y-129944500D03*
%TO.P,R28,2*%
%TO.N,Net-(Q15-B)*%
X156972000Y-128119500D03*
%TD*%
D17*
%TO.P,JP4,1,A*%
%TO.N,GND*%
X118080000Y-119380000D03*
%TO.P,JP4,2,C*%
%TO.N,Net-(JP4-C)*%
X119380000Y-119380000D03*
%TO.P,JP4,3,B*%
%TO.N,+3.3V*%
X120680000Y-119380000D03*
%TD*%
D18*
%TO.P,J1,1,Pin_1*%
%TO.N,+5V isolated*%
X103647000Y-82550000D03*
%TO.P,J1,2,Pin_2*%
%TO.N,GND isolated*%
X108697000Y-82550000D03*
%TO.P,J1,3,Pin_3*%
%TO.N,+3.3V isolated*%
X103647000Y-85090000D03*
%TO.P,J1,4,Pin_4*%
%TO.N,GND isolated*%
X108697000Y-85090000D03*
%TO.P,J1,5,Pin_5*%
%TO.N,SIG0_I*%
X103647000Y-87630000D03*
%TO.P,J1,6,Pin_6*%
%TO.N,MISO_I*%
X108697000Y-87630000D03*
%TO.P,J1,7,Pin_7*%
%TO.N,SIG1_I*%
X103647000Y-90170000D03*
%TO.P,J1,8,Pin_8*%
%TO.N,MOSI_I*%
X108697000Y-90170000D03*
%TO.P,J1,9,Pin_9*%
%TO.N,SIG2_I*%
X103647000Y-92710000D03*
%TO.P,J1,10,Pin_10*%
%TO.N,SCK_I*%
X108697000Y-92710000D03*
%TO.P,J1,11,Pin_11*%
%TO.N,SIG3_I*%
X103647000Y-95250000D03*
%TO.P,J1,12,Pin_12*%
%TO.N,CS0_I*%
X108697000Y-95250000D03*
%TO.P,J1,13,Pin_13*%
%TO.N,SIG4_I*%
X103647000Y-97790000D03*
%TO.P,J1,14,Pin_14*%
%TO.N,CS1_I*%
X108697000Y-97790000D03*
%TO.P,J1,15,Pin_15*%
%TO.N,CS15_I*%
X103647000Y-100330000D03*
%TO.P,J1,16,Pin_16*%
%TO.N,CS2_I*%
X108697000Y-100330000D03*
%TO.P,J1,17,Pin_17*%
%TO.N,CS14_I*%
X103647000Y-102870000D03*
%TO.P,J1,18,Pin_18*%
%TO.N,CS3_I*%
X108697000Y-102870000D03*
%TO.P,J1,19,Pin_19*%
%TO.N,CS13_I*%
X103647000Y-105410000D03*
%TO.P,J1,20,Pin_20*%
%TO.N,CS4_I*%
X108697000Y-105410000D03*
%TO.P,J1,21,Pin_21*%
%TO.N,CS12_I*%
X103647000Y-107950000D03*
%TO.P,J1,22,Pin_22*%
%TO.N,CS5_I*%
X108697000Y-107950000D03*
%TO.P,J1,23,Pin_23*%
%TO.N,CS11_I*%
X103647000Y-110490000D03*
%TO.P,J1,24,Pin_24*%
%TO.N,CS6_I*%
X108697000Y-110490000D03*
%TO.P,J1,25,Pin_25*%
%TO.N,CS10_I*%
X103647000Y-113030000D03*
%TO.P,J1,26,Pin_26*%
%TO.N,CS7_I*%
X108697000Y-113030000D03*
%TO.P,J1,27,Pin_27*%
%TO.N,CS9_I*%
X103647000Y-115570000D03*
%TO.P,J1,28,Pin_28*%
%TO.N,CS8_I*%
X108697000Y-115570000D03*
%TD*%
D19*
%TO.P,C6,1*%
%TO.N,+3.3V*%
X127762000Y-111798500D03*
%TO.P,C6,2*%
%TO.N,GND*%
X127762000Y-108673500D03*
%TD*%
D20*
%TO.P,R3,1*%
%TO.N,+3.3V*%
X129556000Y-124460000D03*
%TO.P,R3,2*%
%TO.N,NRST*%
X131556000Y-124460000D03*
%TD*%
D21*
%TO.P,R13,1*%
%TO.N,V_SENSE*%
X150368000Y-73390000D03*
%TO.P,R13,2*%
%TO.N,GND*%
X150368000Y-71390000D03*
%TD*%
D14*
%TO.P,Q7,1,B*%
%TO.N,Net-(Q7-B)*%
X148234000Y-125208000D03*
%TO.P,Q7,2,C*%
%TO.N,Net-(Q7-C-Pad2)*%
X148234000Y-127508000D03*
D15*
X154534000Y-127508000D03*
D14*
%TO.P,Q7,3,E*%
%TO.N,GND*%
X148234000Y-129808000D03*
%TD*%
D22*
%TO.P,J2,1,Pin_1*%
%TO.N,+3.3V*%
X138938000Y-129794000D03*
D23*
%TO.P,J2,2,Pin_2*%
%TO.N,SWDIO*%
X138938000Y-132334000D03*
%TO.P,J2,3,Pin_3*%
%TO.N,NRST*%
X136398000Y-129794000D03*
%TO.P,J2,4,Pin_4*%
%TO.N,SWCLK*%
X136398000Y-132334000D03*
%TO.P,J2,5,Pin_5*%
%TO.N,GND*%
X133858000Y-129794000D03*
%TO.P,J2,6,Pin_6*%
%TO.N,SWO*%
X133858000Y-132334000D03*
%TD*%
D14*
%TO.P,Q18,1,B*%
%TO.N,Net-(Q18-B)*%
X170586000Y-87108000D03*
%TO.P,Q18,2,C*%
%TO.N,DIQ1*%
X170586000Y-89408000D03*
D15*
X176886000Y-89408000D03*
D14*
%TO.P,Q18,3,E*%
%TO.N,GND*%
X170586000Y-91708000D03*
%TD*%
%TO.P,Q8,1,B*%
%TO.N,Net-(Q8-B)*%
X148234000Y-132828000D03*
%TO.P,Q8,2,C*%
%TO.N,Net-(Q8-C-Pad2)*%
X148234000Y-135128000D03*
D15*
X154534000Y-135128000D03*
D14*
%TO.P,Q8,3,E*%
%TO.N,GND*%
X148234000Y-137428000D03*
%TD*%
D20*
%TO.P,R48,1*%
%TO.N,LED_ORANGE*%
X171212000Y-71628000D03*
%TO.P,R48,2*%
%TO.N,Net-(D3-A)*%
X173212000Y-71628000D03*
%TD*%
D14*
%TO.P,Q14,1,B*%
%TO.N,Net-(Q14-B)*%
X159410000Y-117588000D03*
%TO.P,Q14,2,C*%
%TO.N,DIQ5*%
X159410000Y-119888000D03*
D15*
X165710000Y-119888000D03*
D14*
%TO.P,Q14,3,E*%
%TO.N,+24V*%
X159410000Y-122188000D03*
%TD*%
D16*
%TO.P,R8,1*%
%TO.N,DQ3_High*%
X145796000Y-103999000D03*
%TO.P,R8,2*%
%TO.N,Net-(Q4-B)*%
X145796000Y-102174000D03*
%TD*%
%TO.P,R6,1*%
%TO.N,DQ1_High*%
X145796000Y-88796500D03*
%TO.P,R6,2*%
%TO.N,Net-(Q2-B)*%
X145796000Y-86971500D03*
%TD*%
D24*
%TO.P,C11,1*%
%TO.N,Net-(C11-Pad1)*%
X133668000Y-82804000D03*
%TO.P,C11,2*%
%TO.N,GND*%
X141668000Y-82804000D03*
%TD*%
D25*
%TO.P,R33,1*%
%TO.N,DQ1_Low*%
X168148000Y-86463500D03*
%TO.P,R33,2*%
%TO.N,Net-(Q18-B)*%
X168148000Y-88288500D03*
%TD*%
%TO.P,R31,1*%
%TO.N,DQ0_Low*%
X168185500Y-78843500D03*
%TO.P,R31,2*%
%TO.N,Net-(Q17-B)*%
X168185500Y-80668500D03*
%TD*%
D26*
%TO.P,R1,1*%
%TO.N,Net-(U2-Vfb)*%
X120126000Y-63754000D03*
%TO.P,R1,2*%
%TO.N,GND*%
X118126000Y-63754000D03*
%TD*%
D27*
%TO.P,J3,1,Pin_1*%
%TO.N,+24V*%
X150871000Y-61976000D03*
D28*
%TO.P,J3,2,Pin_2*%
%TO.N,GND*%
X155951000Y-61976000D03*
%TD*%
D29*
%TO.P,D2,1,K*%
%TO.N,GND*%
X178567000Y-68580000D03*
D30*
%TO.P,D2,2,A*%
%TO.N,Net-(D2-A)*%
X176027000Y-68580000D03*
%TD*%
D16*
%TO.P,R25,1*%
%TO.N,Net-(Q14-B)*%
X156972000Y-118768500D03*
%TO.P,R25,2*%
%TO.N,Net-(Q6-C-Pad2)*%
X156972000Y-116943500D03*
%TD*%
D31*
%TO.P,U3,1,VDD*%
%TO.N,+3.3V*%
X131870000Y-111604500D03*
%TO.P,U3,2,PC13*%
%TO.N,CONFIG_1*%
X132370000Y-111604500D03*
%TO.P,U3,3,PC14*%
%TO.N,DQ6_High*%
X132870000Y-111604500D03*
%TO.P,U3,4,PC15*%
%TO.N,DQ6_Low*%
X133370000Y-111604500D03*
%TO.P,U3,5,PF0*%
%TO.N,Net-(U3-PF0)*%
X133870000Y-111604500D03*
%TO.P,U3,6,PF1*%
%TO.N,Net-(U3-PF1)*%
X134370000Y-111604500D03*
%TO.P,U3,7,NRST*%
%TO.N,NRST*%
X134870000Y-111604500D03*
%TO.P,U3,8,VSSA*%
%TO.N,GND*%
X135370000Y-111604500D03*
%TO.P,U3,9,VDDA*%
%TO.N,+3.3V*%
X135870000Y-111604500D03*
%TO.P,U3,10,PA0*%
%TO.N,DI7_input*%
X136370000Y-111604500D03*
%TO.P,U3,11,PA1*%
%TO.N,DI6_input*%
X136870000Y-111604500D03*
%TO.P,U3,12,PA2*%
%TO.N,DI5_input*%
X137370000Y-111604500D03*
D32*
%TO.P,U3,13,PA3*%
%TO.N,DI4_input*%
X138782500Y-110192000D03*
%TO.P,U3,14,PA4*%
%TO.N,DI3_input*%
X138782500Y-109692000D03*
%TO.P,U3,15,PA5*%
%TO.N,DI2_input*%
X138782500Y-109192000D03*
%TO.P,U3,16,PA6*%
%TO.N,DI1_input*%
X138782500Y-108692000D03*
%TO.P,U3,17,PA7*%
%TO.N,DI0_input*%
X138782500Y-108192000D03*
%TO.P,U3,18,PB0*%
%TO.N,V_SENSE*%
X138782500Y-107692000D03*
%TO.P,U3,19,PB1*%
%TO.N,CONFIG_0*%
X138782500Y-107192000D03*
%TO.P,U3,20,PB2*%
%TO.N,DQ4_High*%
X138782500Y-106692000D03*
%TO.P,U3,21,PB10*%
%TO.N,DQ4_Low*%
X138782500Y-106192000D03*
%TO.P,U3,22,PB11*%
%TO.N,DQ3_High*%
X138782500Y-105692000D03*
%TO.P,U3,23,VSS*%
%TO.N,GND*%
X138782500Y-105192000D03*
%TO.P,U3,24,VDD*%
%TO.N,+3.3V*%
X138782500Y-104692000D03*
D31*
%TO.P,U3,25,PB12*%
%TO.N,DQ3_Low*%
X137370000Y-103279500D03*
%TO.P,U3,26,PB13*%
%TO.N,DQ2_High*%
X136870000Y-103279500D03*
%TO.P,U3,27,PB14*%
%TO.N,DQ2_Low*%
X136370000Y-103279500D03*
%TO.P,U3,28,PB15*%
%TO.N,DQ1_High*%
X135870000Y-103279500D03*
%TO.P,U3,29,PA8*%
%TO.N,DQ1_Low*%
X135370000Y-103279500D03*
%TO.P,U3,30,PA9*%
%TO.N,DQ0_High*%
X134870000Y-103279500D03*
%TO.P,U3,31,PA10*%
%TO.N,DQ0_Low*%
X134370000Y-103279500D03*
%TO.P,U3,32,PA11*%
%TO.N,LED_RED*%
X133870000Y-103279500D03*
%TO.P,U3,33,PA12*%
%TO.N,LED_ORANGE*%
X133370000Y-103279500D03*
%TO.P,U3,34,PA13*%
%TO.N,SWDIO*%
X132870000Y-103279500D03*
%TO.P,U3,35,PF6*%
%TO.N,LED_GREEN*%
X132370000Y-103279500D03*
%TO.P,U3,36,PF7*%
%TO.N,unconnected-(U3-PF7-Pad36)*%
X131870000Y-103279500D03*
D32*
%TO.P,U3,37,PA14*%
%TO.N,SWCLK*%
X130457500Y-104692000D03*
%TO.P,U3,38,PA15*%
%TO.N,SPI_CS0*%
X130457500Y-105192000D03*
%TO.P,U3,39,PB3*%
%TO.N,SPI_SCK*%
X130457500Y-105692000D03*
%TO.P,U3,40,PB4*%
%TO.N,SPI_MISO*%
X130457500Y-106192000D03*
%TO.P,U3,41,PB5*%
%TO.N,SPI_MOSI*%
X130457500Y-106692000D03*
%TO.P,U3,42,PB6*%
%TO.N,DQ5_Low*%
X130457500Y-107192000D03*
%TO.P,U3,43,PB7*%
%TO.N,DQ5_High*%
X130457500Y-107692000D03*
%TO.P,U3,44,BOOT0*%
%TO.N,Net-(JP4-C)*%
X130457500Y-108192000D03*
%TO.P,U3,45,PB8*%
%TO.N,DQ7_Low*%
X130457500Y-108692000D03*
%TO.P,U3,46,PB9*%
%TO.N,DQ7_High*%
X130457500Y-109192000D03*
%TO.P,U3,47,VSS*%
%TO.N,GND*%
X130457500Y-109692000D03*
%TO.P,U3,48,VDD*%
%TO.N,+3.3V*%
X130457500Y-110192000D03*
%TD*%
D16*
%TO.P,R46,1*%
%TO.N,GND*%
X168148000Y-137564500D03*
%TO.P,R46,2*%
%TO.N,Net-(Q24-B)*%
X168148000Y-135739500D03*
%TD*%
%TO.P,R26,1*%
%TO.N,+24V*%
X156972000Y-122362000D03*
%TO.P,R26,2*%
%TO.N,Net-(Q14-B)*%
X156972000Y-120537000D03*
%TD*%
D33*
%TO.P,R14,1*%
%TO.N,+24V*%
X152400000Y-71390000D03*
%TO.P,R14,2*%
%TO.N,V_SENSE*%
X152400000Y-73390000D03*
%TD*%
D25*
%TO.P,R37,1*%
%TO.N,DQ3_Low*%
X168148000Y-101666000D03*
%TO.P,R37,2*%
%TO.N,Net-(Q20-B)*%
X168148000Y-103491000D03*
%TD*%
D34*
%TO.P,U2,1,SwC*%
%TO.N,Net-(U2-DC)*%
X125033000Y-62103000D03*
%TO.P,U2,2,SwE*%
%TO.N,Net-(D1-K)*%
X125033000Y-63373000D03*
%TO.P,U2,3,TC*%
%TO.N,Net-(U2-TC)*%
X125033000Y-64643000D03*
%TO.P,U2,4,GND*%
%TO.N,GND*%
X125033000Y-65913000D03*
%TO.P,U2,5,Vfb*%
%TO.N,Net-(U2-Vfb)*%
X129983000Y-65913000D03*
%TO.P,U2,6,Vin*%
%TO.N,+24V*%
X129983000Y-64643000D03*
%TO.P,U2,7,Ipk*%
%TO.N,Net-(U2-DC)*%
X129983000Y-63373000D03*
%TO.P,U2,8,DC*%
X129983000Y-62103000D03*
%TD*%
D14*
%TO.P,Q2,1,B*%
%TO.N,Net-(Q2-B)*%
X148234000Y-87108000D03*
%TO.P,Q2,2,C*%
%TO.N,Net-(Q2-C-Pad2)*%
X148234000Y-89408000D03*
D15*
X154534000Y-89408000D03*
D14*
%TO.P,Q2,3,E*%
%TO.N,GND*%
X148234000Y-91708000D03*
%TD*%
D35*
%TO.P,C13,1*%
%TO.N,+24V*%
X138938000Y-69690000D03*
%TO.P,C13,2*%
%TO.N,GND*%
X138938000Y-75090000D03*
%TD*%
D19*
%TO.P,C9,1*%
%TO.N,Net-(C11-Pad1)*%
X133858000Y-73952500D03*
%TO.P,C9,2*%
%TO.N,GND*%
X133858000Y-70827500D03*
%TD*%
D25*
%TO.P,R39,1*%
%TO.N,DQ4_Low*%
X168148000Y-109323500D03*
%TO.P,R39,2*%
%TO.N,Net-(Q21-B)*%
X168148000Y-111148500D03*
%TD*%
D14*
%TO.P,Q4,1,B*%
%TO.N,Net-(Q4-B)*%
X148234000Y-102348000D03*
%TO.P,Q4,2,C*%
%TO.N,Net-(Q4-C-Pad2)*%
X148234000Y-104648000D03*
D15*
X154534000Y-104648000D03*
D14*
%TO.P,Q4,3,E*%
%TO.N,GND*%
X148234000Y-106948000D03*
%TD*%
D29*
%TO.P,D4,1,K*%
%TO.N,GND*%
X178567000Y-74676000D03*
D30*
%TO.P,D4,2,A*%
%TO.N,Net-(D4-A)*%
X176027000Y-74676000D03*
%TD*%
D17*
%TO.P,JP2,1,A*%
%TO.N,GND*%
X118080000Y-110236000D03*
%TO.P,JP2,2,C*%
%TO.N,CONFIG_0*%
X119380000Y-110236000D03*
%TO.P,JP2,3,B*%
%TO.N,+3.3V*%
X120680000Y-110236000D03*
%TD*%
D14*
%TO.P,Q20,1,B*%
%TO.N,Net-(Q20-B)*%
X170586000Y-102348000D03*
%TO.P,Q20,2,C*%
%TO.N,DIQ3*%
X170586000Y-104648000D03*
D15*
X176886000Y-104648000D03*
D14*
%TO.P,Q20,3,E*%
%TO.N,GND*%
X170586000Y-106948000D03*
%TD*%
D36*
%TO.P,C14,1*%
%TO.N,+5V*%
X137121500Y-92456000D03*
%TO.P,C14,2*%
%TO.N,GND*%
X140246500Y-92456000D03*
%TD*%
D16*
%TO.P,R40,1*%
%TO.N,GND*%
X168148000Y-114704500D03*
%TO.P,R40,2*%
%TO.N,Net-(Q21-B)*%
X168148000Y-112879500D03*
%TD*%
D37*
%TO.P,U4,1,IN*%
%TO.N,+5V*%
X139634000Y-94662000D03*
%TO.P,U4,2,GND*%
%TO.N,GND*%
X138684000Y-94662000D03*
%TO.P,U4,3,EN*%
%TO.N,+5V*%
X137734000Y-94662000D03*
%TO.P,U4,4,NC*%
%TO.N,unconnected-(U4-NC-Pad4)*%
X137734000Y-97362000D03*
%TO.P,U4,5,OUT*%
%TO.N,+3.3V*%
X139634000Y-97362000D03*
%TD*%
D19*
%TO.P,C5,1*%
%TO.N,+3.3V*%
X120904000Y-87236700D03*
%TO.P,C5,2*%
%TO.N,GND*%
X120904000Y-84111700D03*
%TD*%
D20*
%TO.P,R2,1*%
%TO.N,Net-(C11-Pad1)*%
X118126000Y-65786000D03*
%TO.P,R2,2*%
%TO.N,Net-(U2-Vfb)*%
X120126000Y-65786000D03*
%TD*%
D19*
%TO.P,C1,1*%
%TO.N,+3.3V isolated*%
X113512600Y-87236700D03*
%TO.P,C1,2*%
%TO.N,GND isolated*%
X113512600Y-84111700D03*
%TD*%
D14*
%TO.P,Q10,1,B*%
%TO.N,Net-(Q10-B)*%
X159410000Y-87108000D03*
%TO.P,Q10,2,C*%
%TO.N,DIQ1*%
X159410000Y-89408000D03*
D15*
X165710000Y-89408000D03*
D14*
%TO.P,Q10,3,E*%
%TO.N,+24V*%
X159410000Y-91708000D03*
%TD*%
D16*
%TO.P,R30,1*%
%TO.N,+24V*%
X156972000Y-137564500D03*
%TO.P,R30,2*%
%TO.N,Net-(Q16-B)*%
X156972000Y-135739500D03*
%TD*%
D14*
%TO.P,Q16,1,B*%
%TO.N,Net-(Q16-B)*%
X159410000Y-132828000D03*
%TO.P,Q16,2,C*%
%TO.N,DIQ7*%
X159410000Y-135128000D03*
D15*
X165710000Y-135128000D03*
D14*
%TO.P,Q16,3,E*%
%TO.N,+24V*%
X159410000Y-137428000D03*
%TD*%
%TO.P,Q19,1,B*%
%TO.N,Net-(Q19-B)*%
X170586000Y-94728000D03*
%TO.P,Q19,2,C*%
%TO.N,DIQ2*%
X170586000Y-97028000D03*
D15*
X176886000Y-97028000D03*
D14*
%TO.P,Q19,3,E*%
%TO.N,GND*%
X170586000Y-99328000D03*
%TD*%
D38*
%TO.P,L1,1,1*%
%TO.N,Net-(D1-K)*%
X123444000Y-69218000D03*
%TO.P,L1,2,2*%
%TO.N,Net-(C11-Pad1)*%
X123444000Y-79118000D03*
%TD*%
D16*
%TO.P,R7,1*%
%TO.N,DQ2_High*%
X145796000Y-96416500D03*
%TO.P,R7,2*%
%TO.N,Net-(Q3-B)*%
X145796000Y-94591500D03*
%TD*%
D14*
%TO.P,Q17,1,B*%
%TO.N,Net-(Q17-B)*%
X170586000Y-79488000D03*
%TO.P,Q17,2,C*%
%TO.N,DIQ0*%
X170586000Y-81788000D03*
D15*
X176886000Y-81788000D03*
D14*
%TO.P,Q17,3,E*%
%TO.N,GND*%
X170586000Y-84088000D03*
%TD*%
D16*
%TO.P,R12,1*%
%TO.N,DQ7_High*%
X145796000Y-134516500D03*
%TO.P,R12,2*%
%TO.N,Net-(Q8-B)*%
X145796000Y-132691500D03*
%TD*%
D20*
%TO.P,R47,1*%
%TO.N,LED_GREEN*%
X171212000Y-68580000D03*
%TO.P,R47,2*%
%TO.N,Net-(D2-A)*%
X173212000Y-68580000D03*
%TD*%
D16*
%TO.P,R27,1*%
%TO.N,Net-(Q15-B)*%
X156972000Y-126388500D03*
%TO.P,R27,2*%
%TO.N,Net-(Q7-C-Pad2)*%
X156972000Y-124563500D03*
%TD*%
%TO.P,R42,1*%
%TO.N,GND*%
X168148000Y-122362000D03*
%TO.P,R42,2*%
%TO.N,Net-(Q22-B)*%
X168148000Y-120537000D03*
%TD*%
D39*
%TO.P,R4,1*%
%TO.N,+24V*%
X137668000Y-65471000D03*
%TO.P,R4,2*%
%TO.N,Net-(U2-DC)*%
X137668000Y-61021000D03*
%TD*%
D35*
%TO.P,C8,1*%
%TO.N,+5V*%
X132080000Y-92296000D03*
%TO.P,C8,2*%
%TO.N,GND*%
X132080000Y-97696000D03*
%TD*%
D16*
%TO.P,R10,1*%
%TO.N,DQ5_High*%
X145620000Y-119210500D03*
%TO.P,R10,2*%
%TO.N,Net-(Q6-B)*%
X145620000Y-117385500D03*
%TD*%
D25*
%TO.P,R41,1*%
%TO.N,DQ5_Low*%
X168148000Y-116943500D03*
%TO.P,R41,2*%
%TO.N,Net-(Q22-B)*%
X168148000Y-118768500D03*
%TD*%
D16*
%TO.P,R11,1*%
%TO.N,DQ6_High*%
X145796000Y-126896500D03*
%TO.P,R11,2*%
%TO.N,Net-(Q7-B)*%
X145796000Y-125071500D03*
%TD*%
D40*
%TO.P,D1,1,K*%
%TO.N,Net-(D1-K)*%
X131318000Y-72520000D03*
%TO.P,D1,2,A*%
%TO.N,GND*%
X131318000Y-69720000D03*
%TD*%
D16*
%TO.P,R21,1*%
%TO.N,Net-(Q12-B)*%
X156972000Y-103491000D03*
%TO.P,R21,2*%
%TO.N,Net-(Q4-C-Pad2)*%
X156972000Y-101666000D03*
%TD*%
D17*
%TO.P,JP3,1,A*%
%TO.N,GND*%
X118080000Y-114808000D03*
%TO.P,JP3,2,C*%
%TO.N,CONFIG_1*%
X119380000Y-114808000D03*
%TO.P,JP3,3,B*%
%TO.N,+3.3V*%
X120680000Y-114808000D03*
%TD*%
D11*
%TO.P,C12,1*%
%TO.N,+3.3V*%
X137414000Y-114007500D03*
%TO.P,C12,2*%
%TO.N,GND*%
X137414000Y-117132500D03*
%TD*%
D16*
%TO.P,R36,1*%
%TO.N,GND*%
X168148000Y-99464500D03*
%TO.P,R36,2*%
%TO.N,Net-(Q19-B)*%
X168148000Y-97639500D03*
%TD*%
D14*
%TO.P,Q3,1,B*%
%TO.N,Net-(Q3-B)*%
X148234000Y-94728000D03*
%TO.P,Q3,2,C*%
%TO.N,Net-(Q3-C-Pad2)*%
X148234000Y-97028000D03*
D15*
X154534000Y-97028000D03*
D14*
%TO.P,Q3,3,E*%
%TO.N,GND*%
X148234000Y-99328000D03*
%TD*%
D16*
%TO.P,R44,1*%
%TO.N,GND*%
X168148000Y-129944500D03*
%TO.P,R44,2*%
%TO.N,Net-(Q23-B)*%
X168148000Y-128119500D03*
%TD*%
D11*
%TO.P,C3,1*%
%TO.N,Net-(U3-PF1)*%
X119888000Y-128231500D03*
%TO.P,C3,2*%
%TO.N,GND*%
X119888000Y-131356500D03*
%TD*%
D41*
%TO.P,Y1,1,1*%
%TO.N,Net-(U3-PF0)*%
X123952000Y-124550000D03*
%TO.P,Y1,2,2*%
%TO.N,Net-(U3-PF1)*%
X123952000Y-129450000D03*
%TD*%
D25*
%TO.P,R43,1*%
%TO.N,DQ6_Low*%
X168148000Y-124526000D03*
%TO.P,R43,2*%
%TO.N,Net-(Q23-B)*%
X168148000Y-126351000D03*
%TD*%
D42*
%TO.P,JP1,1,A*%
%TO.N,+3.3V isolated*%
X113715800Y-103484200D03*
%TO.P,JP1,2,C*%
%TO.N,Net-(JP1-C)*%
X113715800Y-102184200D03*
%TO.P,JP1,3,B*%
%TO.N,CS0_I*%
X113715800Y-100884200D03*
%TD*%
D16*
%TO.P,R20,1*%
%TO.N,+24V*%
X157009500Y-99464500D03*
%TO.P,R20,2*%
%TO.N,Net-(Q11-B)*%
X157009500Y-97639500D03*
%TD*%
D14*
%TO.P,Q9,1,B*%
%TO.N,Net-(Q9-B)*%
X159410000Y-79488000D03*
%TO.P,Q9,2,C*%
%TO.N,DIQ0*%
X159410000Y-81788000D03*
D15*
X165710000Y-81788000D03*
D14*
%TO.P,Q9,3,E*%
%TO.N,+24V*%
X159410000Y-84088000D03*
%TD*%
D27*
%TO.P,J4,1,Pin_1*%
%TO.N,+24V*%
X184612000Y-81280000D03*
D28*
%TO.P,J4,2,Pin_2*%
%TO.N,GND*%
X184612000Y-86360000D03*
%TO.P,J4,3,Pin_3*%
%TO.N,DIQ0*%
X184612000Y-91440000D03*
%TO.P,J4,4,Pin_4*%
%TO.N,DIQ1*%
X184612000Y-96520000D03*
%TO.P,J4,5,Pin_5*%
%TO.N,DIQ2*%
X184612000Y-101600000D03*
%TO.P,J4,6,Pin_6*%
%TO.N,DIQ3*%
X184612000Y-106680000D03*
%TO.P,J4,7,Pin_7*%
%TO.N,DIQ4*%
X184612000Y-111760000D03*
%TO.P,J4,8,Pin_8*%
%TO.N,DIQ5*%
X184612000Y-116840000D03*
%TO.P,J4,9,Pin_9*%
%TO.N,DIQ6*%
X184612000Y-121920000D03*
%TO.P,J4,10,Pin_10*%
%TO.N,DIQ7*%
X184612000Y-127000000D03*
%TD*%
D16*
%TO.P,R9,1*%
%TO.N,DQ4_High*%
X145796000Y-111148500D03*
%TO.P,R9,2*%
%TO.N,Net-(Q5-B)*%
X145796000Y-109323500D03*
%TD*%
%TO.P,R34,1*%
%TO.N,GND*%
X168132000Y-91844500D03*
%TO.P,R34,2*%
%TO.N,Net-(Q18-B)*%
X168132000Y-90019500D03*
%TD*%
%TO.P,R5,1*%
%TO.N,DQ0_High*%
X145833500Y-81139000D03*
%TO.P,R5,2*%
%TO.N,Net-(Q1-B)*%
X145833500Y-79314000D03*
%TD*%
D12*
%TO.P,C7,1*%
%TO.N,+3.3V*%
X130848500Y-114300000D03*
%TO.P,C7,2*%
%TO.N,GND*%
X127723500Y-114300000D03*
%TD*%
D14*
%TO.P,Q6,1,B*%
%TO.N,Net-(Q6-B)*%
X148234000Y-117588000D03*
%TO.P,Q6,2,C*%
%TO.N,Net-(Q6-C-Pad2)*%
X148234000Y-119888000D03*
D15*
X154534000Y-119888000D03*
D14*
%TO.P,Q6,3,E*%
%TO.N,GND*%
X148234000Y-122188000D03*
%TD*%
D16*
%TO.P,R17,1*%
%TO.N,Net-(Q10-B)*%
X156972000Y-88288500D03*
%TO.P,R17,2*%
%TO.N,Net-(Q2-C-Pad2)*%
X156972000Y-86463500D03*
%TD*%
D29*
%TO.P,D3,1,K*%
%TO.N,GND*%
X178567000Y-71628000D03*
D30*
%TO.P,D3,2,A*%
%TO.N,Net-(D3-A)*%
X176027000Y-71628000D03*
%TD*%
D16*
%TO.P,R18,1*%
%TO.N,+24V*%
X156972000Y-91844500D03*
%TO.P,R18,2*%
%TO.N,Net-(Q10-B)*%
X156972000Y-90019500D03*
%TD*%
%TO.P,R16,1*%
%TO.N,+24V*%
X157009500Y-84224500D03*
%TO.P,R16,2*%
%TO.N,Net-(Q9-B)*%
X157009500Y-82399500D03*
%TD*%
%TO.P,R23,1*%
%TO.N,Net-(Q13-B)*%
X156972000Y-111148500D03*
%TO.P,R23,2*%
%TO.N,Net-(Q5-C-Pad2)*%
X156972000Y-109323500D03*
%TD*%
D43*
%TO.P,L2,1,1*%
%TO.N,Net-(C11-Pad1)*%
X127508000Y-82990000D03*
%TO.P,L2,2,2*%
%TO.N,+5V*%
X127508000Y-87190000D03*
%TD*%
D14*
%TO.P,Q13,1,B*%
%TO.N,Net-(Q13-B)*%
X159410000Y-109968000D03*
%TO.P,Q13,2,C*%
%TO.N,DIQ4*%
X159410000Y-112268000D03*
D15*
X165710000Y-112268000D03*
D14*
%TO.P,Q13,3,E*%
%TO.N,+24V*%
X159410000Y-114568000D03*
%TD*%
D16*
%TO.P,R32,1*%
%TO.N,GND*%
X168185500Y-84224500D03*
%TO.P,R32,2*%
%TO.N,Net-(Q17-B)*%
X168185500Y-82399500D03*
%TD*%
D25*
%TO.P,R35,1*%
%TO.N,DQ2_Low*%
X168148000Y-94083500D03*
%TO.P,R35,2*%
%TO.N,Net-(Q19-B)*%
X168148000Y-95908500D03*
%TD*%
D11*
%TO.P,C10,1*%
%TO.N,+24V*%
X134366000Y-64731500D03*
%TO.P,C10,2*%
%TO.N,GND*%
X134366000Y-67856500D03*
%TD*%
D14*
%TO.P,Q22,1,B*%
%TO.N,Net-(Q22-B)*%
X170586000Y-117588000D03*
%TO.P,Q22,2,C*%
%TO.N,DIQ5*%
X170586000Y-119888000D03*
D15*
X176886000Y-119888000D03*
D14*
%TO.P,Q22,3,E*%
%TO.N,GND*%
X170586000Y-122188000D03*
%TD*%
%TO.P,Q15,1,B*%
%TO.N,Net-(Q15-B)*%
X159410000Y-125208000D03*
%TO.P,Q15,2,C*%
%TO.N,DIQ6*%
X159410000Y-127508000D03*
D15*
X165710000Y-127508000D03*
D14*
%TO.P,Q15,3,E*%
%TO.N,+24V*%
X159410000Y-129808000D03*
%TD*%
D16*
%TO.P,R19,1*%
%TO.N,Net-(Q11-B)*%
X156972000Y-95908500D03*
%TO.P,R19,2*%
%TO.N,Net-(Q3-C-Pad2)*%
X156972000Y-94083500D03*
%TD*%
D14*
%TO.P,Q23,1,B*%
%TO.N,Net-(Q23-B)*%
X170623500Y-125208000D03*
%TO.P,Q23,2,C*%
%TO.N,DIQ6*%
X170623500Y-127508000D03*
D15*
X176923500Y-127508000D03*
D14*
%TO.P,Q23,3,E*%
%TO.N,GND*%
X170623500Y-129808000D03*
%TD*%
%TO.P,Q5,1,B*%
%TO.N,Net-(Q5-B)*%
X148234000Y-109968000D03*
%TO.P,Q5,2,C*%
%TO.N,Net-(Q5-C-Pad2)*%
X148234000Y-112268000D03*
D15*
X154534000Y-112268000D03*
D14*
%TO.P,Q5,3,E*%
%TO.N,GND*%
X148234000Y-114568000D03*
%TD*%
D25*
%TO.P,R45,1*%
%TO.N,DQ7_Low*%
X168148000Y-132183500D03*
%TO.P,R45,2*%
%TO.N,Net-(Q24-B)*%
X168148000Y-134008500D03*
%TD*%
D19*
%TO.P,C2,1*%
%TO.N,Net-(U3-PF0)*%
X119888000Y-126022500D03*
%TO.P,C2,2*%
%TO.N,GND*%
X119888000Y-122897500D03*
%TD*%
D14*
%TO.P,Q12,1,B*%
%TO.N,Net-(Q12-B)*%
X159410000Y-102348000D03*
%TO.P,Q12,2,C*%
%TO.N,DIQ3*%
X159410000Y-104648000D03*
D15*
X165710000Y-104648000D03*
D14*
%TO.P,Q12,3,E*%
%TO.N,+24V*%
X159410000Y-106948000D03*
%TD*%
%TO.P,Q24,1,B*%
%TO.N,Net-(Q24-B)*%
X170586000Y-132828000D03*
%TO.P,Q24,2,C*%
%TO.N,DIQ7*%
X170586000Y-135128000D03*
D15*
X176886000Y-135128000D03*
D14*
%TO.P,Q24,3,E*%
%TO.N,GND*%
X170586000Y-137428000D03*
%TD*%
D20*
%TO.P,R49,1*%
%TO.N,LED_RED*%
X171212000Y-74676000D03*
%TO.P,R49,2*%
%TO.N,Net-(D4-A)*%
X173212000Y-74676000D03*
%TD*%
D16*
%TO.P,R38,1*%
%TO.N,GND*%
X168148000Y-107084500D03*
%TO.P,R38,2*%
%TO.N,Net-(Q20-B)*%
X168148000Y-105259500D03*
%TD*%
%TO.P,R15,1*%
%TO.N,Net-(Q9-B)*%
X157009500Y-80631000D03*
%TO.P,R15,2*%
%TO.N,Net-(Q1-C-Pad2)*%
X157009500Y-78806000D03*
%TD*%
%TO.P,R22,1*%
%TO.N,+24V*%
X156972000Y-107084500D03*
%TO.P,R22,2*%
%TO.N,Net-(Q12-B)*%
X156972000Y-105259500D03*
%TD*%
D44*
%TO.N,GND*%
X152908000Y-95504000D03*
X131318000Y-68072000D03*
X130556000Y-67310000D03*
X149860000Y-122936000D03*
X149860000Y-84836000D03*
D45*
X172720000Y-137668000D03*
X174244000Y-107188000D03*
D44*
X152908000Y-103124000D03*
X152908000Y-110744000D03*
D45*
X174244000Y-137668000D03*
D44*
X132080000Y-68072000D03*
X137414000Y-118618000D03*
X152908000Y-125984000D03*
X129032000Y-109651997D03*
X123037600Y-99517200D03*
X152908000Y-133604000D03*
X123698000Y-65913000D03*
D45*
X174244000Y-84328000D03*
D44*
X152908000Y-80264000D03*
D45*
X174244000Y-91948000D03*
D44*
X135407200Y-98298000D03*
X152908000Y-118364000D03*
X150368000Y-69850000D03*
D45*
X172720000Y-107188000D03*
D44*
X141478000Y-80264000D03*
D45*
X172720000Y-114808000D03*
D44*
X149860000Y-115316000D03*
X149860000Y-107696000D03*
D45*
X174244000Y-114808000D03*
D44*
X134112000Y-97536000D03*
X132080000Y-67310000D03*
D45*
X174244000Y-122428000D03*
D44*
X118110000Y-120650000D03*
D45*
X172466000Y-130048000D03*
X173990000Y-130048000D03*
D44*
X121335804Y-91059000D03*
X149860000Y-100076000D03*
X140208000Y-74422000D03*
X140120695Y-105031487D03*
D45*
X172720000Y-84328000D03*
D44*
X140208000Y-75946000D03*
X135289272Y-110229966D03*
X118618000Y-122936000D03*
X118110000Y-116078000D03*
X138818454Y-93352454D03*
X134112000Y-98298000D03*
X130556000Y-68072000D03*
D45*
X172720000Y-91948000D03*
D44*
X135407200Y-97536000D03*
X131318000Y-67310000D03*
X140208000Y-75184000D03*
X118079989Y-111475995D03*
X118364000Y-131318000D03*
D45*
X172720000Y-99568000D03*
D44*
X140716000Y-80264000D03*
X149860000Y-130556000D03*
X149860000Y-92456000D03*
X149860000Y-138176000D03*
X119049800Y-61823600D03*
D45*
X174244000Y-99568000D03*
D44*
X126492000Y-114300000D03*
X135407200Y-99060000D03*
X118109986Y-62484000D03*
X134112000Y-99060000D03*
X120954800Y-82651600D03*
X152908000Y-87884000D03*
D45*
X172720000Y-122428000D03*
D44*
X142240000Y-80264000D03*
%TO.N,SCK_I*%
X112115600Y-93294200D03*
X108712000Y-91668600D03*
%TO.N,CS5_I*%
X108712000Y-106680000D03*
%TO.N,+5V isolated*%
X103657400Y-81483200D03*
%TO.N,MOSI_I*%
X110667800Y-90170000D03*
%TO.N,+3.3V isolated*%
X113715800Y-104673400D03*
X103632000Y-84023200D03*
X113690400Y-88569800D03*
%TO.N,CS4_I*%
X108712000Y-104140000D03*
%TO.N,CS13_I*%
X103632000Y-106680000D03*
%TO.N,CS2_I*%
X108712000Y-99314000D03*
%TO.N,MISO_I*%
X110693200Y-87706200D03*
%TO.N,SIG1_I*%
X103606600Y-89052400D03*
%TO.N,SIG3_I*%
X103632000Y-93929200D03*
%TO.N,CS3_I*%
X108712000Y-101600000D03*
%TO.N,CS6_I*%
X108712000Y-109220000D03*
%TO.N,CS7_I*%
X108712000Y-112014000D03*
%TO.N,CS0_I*%
X110794800Y-95275400D03*
X111618000Y-92623753D03*
%TO.N,CS9_I*%
X106172000Y-115570000D03*
%TO.N,GND isolated*%
X113715800Y-99618800D03*
X108712000Y-81559400D03*
X112318800Y-91059000D03*
X113461800Y-82651600D03*
X108737406Y-84074000D03*
%TO.N,CS10_I*%
X103632000Y-114300000D03*
%TO.N,CS8_I*%
X108712000Y-114300000D03*
%TO.N,CS1_I*%
X108712000Y-96520000D03*
%TO.N,CS14_I*%
X103632000Y-104140000D03*
%TO.N,CS15_I*%
X103632000Y-101600000D03*
%TO.N,CS11_I*%
X103632000Y-111760000D03*
%TO.N,CS12_I*%
X103632000Y-108966000D03*
%TO.N,+3.3V*%
X140234400Y-104201234D03*
X129540000Y-122936000D03*
X122275600Y-88620600D03*
X140716000Y-98044016D03*
X120650000Y-120650000D03*
X120679999Y-111476001D03*
X120650000Y-116078000D03*
X135765000Y-113637061D03*
X124663200Y-97637600D03*
X131343400Y-112471200D03*
X129032000Y-110489984D03*
D45*
%TO.N,+24V*%
X161544000Y-91948000D03*
X161544000Y-99568000D03*
X161544000Y-130048000D03*
X163068000Y-130048000D03*
X163068000Y-99568000D03*
X163068000Y-107188000D03*
X163068000Y-114808000D03*
X163068000Y-122428000D03*
X161544000Y-137668000D03*
X163068000Y-91948000D03*
X152400000Y-69596000D03*
X161544000Y-114808000D03*
X161544000Y-84328000D03*
X141986000Y-63500000D03*
X163068000Y-84328000D03*
X141986000Y-65024000D03*
X161544000Y-122428000D03*
X141986000Y-66548000D03*
X163068000Y-137668000D03*
X161544000Y-107188000D03*
%TO.N,DIQ0*%
X172974000Y-81788000D03*
X163322000Y-81788000D03*
X174498000Y-81788000D03*
X161798000Y-81788000D03*
X161798000Y-80264000D03*
X172974000Y-80264000D03*
X163322000Y-80264000D03*
X174498000Y-80264000D03*
%TO.N,DIQ1*%
X172977187Y-89365718D03*
X172974000Y-87884000D03*
X161801187Y-89365718D03*
X174498000Y-89408000D03*
X163322000Y-89408000D03*
X163322000Y-87884000D03*
X174498000Y-87884000D03*
X161798000Y-87884000D03*
%TO.N,DIQ5*%
X174498000Y-118364000D03*
X161798000Y-119888000D03*
X172974000Y-118364000D03*
X172974000Y-119888000D03*
X163322000Y-118364000D03*
X161798000Y-118364000D03*
X174498000Y-119888000D03*
X163322000Y-119888000D03*
%TO.N,DIQ4*%
X172974000Y-112268000D03*
X163322000Y-110744000D03*
X163322000Y-112268000D03*
X172974000Y-110744000D03*
X174498000Y-112268000D03*
X161798000Y-112268000D03*
X174498000Y-110744000D03*
X161798000Y-110744000D03*
%TO.N,DIQ2*%
X174498000Y-97028000D03*
X172974000Y-97028000D03*
X163322000Y-95504000D03*
X174498000Y-95504000D03*
X172974000Y-95504000D03*
X161798000Y-95504000D03*
X163322000Y-97028000D03*
X161798000Y-97028000D03*
%TO.N,DIQ3*%
X161798000Y-104648000D03*
X174498000Y-104648000D03*
X172974000Y-103124000D03*
X172974000Y-104648000D03*
X174498000Y-103124000D03*
X163322000Y-104648000D03*
X163322000Y-103124000D03*
X161798000Y-103124000D03*
%TO.N,DIQ7*%
X161798000Y-135128000D03*
X172974000Y-135128000D03*
X172974000Y-133604000D03*
X163322000Y-133604000D03*
X174498000Y-135128000D03*
X163322000Y-135128000D03*
X174498000Y-133604000D03*
X161798000Y-133604000D03*
%TO.N,DIQ6*%
X161798000Y-127508000D03*
X172974000Y-125984000D03*
X172974000Y-127508000D03*
X174498000Y-125984000D03*
X163322000Y-125984000D03*
X163322000Y-127508000D03*
X174498000Y-127508000D03*
X161798000Y-125984000D03*
D44*
%TO.N,SWDIO*%
X132642949Y-104886834D03*
%TO.N,SWCLK*%
X131971219Y-105387860D03*
%TO.N,DI4_input*%
X138988800Y-110794800D03*
%TO.N,DQ2_High*%
X144627600Y-97510600D03*
X138557000Y-102082600D03*
%TO.N,DI7_input*%
X136499600Y-112928400D03*
%TO.N,DQ0_Low*%
X145796004Y-77724000D03*
X134797806Y-101168200D03*
%TO.N,DQ1_Low*%
X145941807Y-86000499D03*
X136393506Y-101136210D03*
%TO.N,DI3_input*%
X140817598Y-110342351D03*
%TO.N,DQ7_Low*%
X132080000Y-108483400D03*
X145008592Y-131394200D03*
%TO.N,DI6_input*%
X137515600Y-112852202D03*
%TO.N,DQ0_High*%
X145719800Y-82397600D03*
X135559603Y-101219000D03*
%TO.N,DQ7_High*%
X131658747Y-109403000D03*
X144576800Y-133553200D03*
%TO.N,DI5_input*%
X137922000Y-111658400D03*
%TO.N,DI0_input*%
X140821091Y-107648011D03*
%TO.N,DI1_input*%
X140806495Y-108485887D03*
%TO.N,DQ5_Low*%
X140893800Y-118211600D03*
X132664200Y-107061000D03*
%TO.N,DQ5_High*%
X132689600Y-107873800D03*
X141249402Y-119278400D03*
%TO.N,LED_ORANGE*%
X133070600Y-101295200D03*
X169392600Y-73787000D03*
%TO.N,LED_RED*%
X133883400Y-101269800D03*
X169621200Y-74853800D03*
%TO.N,DQ6_High*%
X132659103Y-113781525D03*
X144526000Y-126619000D03*
%TO.N,DI2_input*%
X140817600Y-109347000D03*
%TO.N,DQ2_Low*%
X144246600Y-96672400D03*
X138150600Y-101447600D03*
%TO.N,V_SENSE*%
X150875994Y-77216000D03*
X140106400Y-107315000D03*
%TO.N,DQ1_High*%
X145237200Y-89712800D03*
X137388600Y-101219000D03*
%TO.N,LED_GREEN*%
X132308600Y-101396800D03*
X167005000Y-73101200D03*
%TO.N,DQ6_Low*%
X145643600Y-123647200D03*
X133400800Y-113182400D03*
%TO.N,DQ3_High*%
X137414000Y-106426000D03*
X143764000Y-103886000D03*
%TO.N,Net-(U2-TC)*%
X122453400Y-62382400D03*
X123698000Y-64490997D03*
%TO.N,SIG2_I*%
X103632000Y-91516200D03*
%TO.N,SIG0_I*%
X103657400Y-86487000D03*
%TO.N,CONFIG_0*%
X133858000Y-104698800D03*
X119380000Y-111455154D03*
%TO.N,CONFIG_1*%
X119354600Y-116078000D03*
X129768600Y-111378998D03*
%TO.N,Net-(U2-Vfb)*%
X131571982Y-66040000D03*
X120141996Y-62484000D03*
%TO.N,SIG4_I*%
X103657400Y-96647000D03*
%TD*%
D46*
%TO.N,GND*%
X148234000Y-84050500D02*
X149074500Y-84050500D01*
X135370000Y-111604500D02*
X135370000Y-110310694D01*
X129072003Y-109692000D02*
X129032000Y-109651997D01*
X139960182Y-105192000D02*
X140120695Y-105031487D01*
X149112000Y-106948000D02*
X149860000Y-107696000D01*
X120904000Y-84111700D02*
X120954800Y-84060900D01*
X118402500Y-131356500D02*
X118364000Y-131318000D01*
X148234000Y-114568000D02*
X149112000Y-114568000D01*
X141518187Y-105031487D02*
X140120695Y-105031487D01*
X127762000Y-108673500D02*
X128053503Y-108673500D01*
X119189100Y-61684300D02*
X119049800Y-61823600D01*
X149112000Y-122188000D02*
X149860000Y-122936000D01*
X128053503Y-108673500D02*
X129032000Y-109651997D01*
X135370000Y-110310694D02*
X135289272Y-110229966D01*
X149112000Y-99328000D02*
X149860000Y-100076000D01*
X123014000Y-99493600D02*
X123037600Y-99517200D01*
X118126000Y-63754000D02*
X118126000Y-62500014D01*
X118126000Y-62500014D02*
X118109986Y-62484000D01*
X118080000Y-120620000D02*
X118110000Y-120650000D01*
X141579600Y-105092900D02*
X141518187Y-105031487D01*
X138782500Y-105192000D02*
X139960182Y-105192000D01*
X119189100Y-60452000D02*
X119189100Y-61684300D01*
X148234000Y-91708000D02*
X149112000Y-91708000D01*
X148234000Y-122188000D02*
X149112000Y-122188000D01*
X123014000Y-98679000D02*
X123014000Y-99493600D01*
X127723500Y-114300000D02*
X126492000Y-114300000D01*
X118080000Y-114808000D02*
X118080000Y-116048000D01*
X138684000Y-94662000D02*
X138684000Y-93486908D01*
X130457500Y-109692000D02*
X129072003Y-109692000D01*
X138684000Y-93486908D02*
X138818454Y-93352454D01*
X149112000Y-137428000D02*
X149860000Y-138176000D01*
X118080000Y-116048000D02*
X118110000Y-116078000D01*
X119888000Y-131356500D02*
X118402500Y-131356500D01*
X150368000Y-71390000D02*
X150368000Y-69850000D01*
X120954800Y-84060900D02*
X120954800Y-82651600D01*
X118656500Y-122897500D02*
X118618000Y-122936000D01*
X148234000Y-137428000D02*
X149112000Y-137428000D01*
X148234000Y-99328000D02*
X149112000Y-99328000D01*
X118080000Y-119380000D02*
X118080000Y-120620000D01*
X119888000Y-122897500D02*
X118656500Y-122897500D01*
X118080000Y-110236000D02*
X118080000Y-111475984D01*
X149074500Y-84050500D02*
X149860000Y-84836000D01*
X148234000Y-129808000D02*
X149112000Y-129808000D01*
X148234000Y-106948000D02*
X149112000Y-106948000D01*
X149112000Y-114568000D02*
X149860000Y-115316000D01*
X137414000Y-117132500D02*
X137414000Y-118618000D01*
X149112000Y-129808000D02*
X149860000Y-130556000D01*
X123014000Y-91059000D02*
X121335804Y-91059000D01*
X118080000Y-111475984D02*
X118079989Y-111475995D01*
X149112000Y-91708000D02*
X149860000Y-92456000D01*
X139714908Y-92456000D02*
X138818454Y-93352454D01*
X125033000Y-65913000D02*
X123698000Y-65913000D01*
X140246500Y-92456000D02*
X139714908Y-92456000D01*
%TO.N,SCK_I*%
X113714000Y-93599000D02*
X112420400Y-93599000D01*
X108697000Y-92710000D02*
X108697000Y-91683600D01*
X108697000Y-91683600D02*
X108712000Y-91668600D01*
X112420400Y-93599000D02*
X112115600Y-93294200D01*
%TO.N,CS5_I*%
X108697000Y-106695000D02*
X108712000Y-106680000D01*
X108697000Y-107950000D02*
X108697000Y-106695000D01*
%TO.N,+5V isolated*%
X103647000Y-81493600D02*
X103657400Y-81483200D01*
X103647000Y-82550000D02*
X103647000Y-81493600D01*
%TO.N,MOSI_I*%
X113222706Y-96139000D02*
X110591600Y-93507894D01*
X110591600Y-90246200D02*
X110667800Y-90170000D01*
X108697000Y-90170000D02*
X110667800Y-90170000D01*
X113714000Y-96139000D02*
X113222706Y-96139000D01*
X110591600Y-93507894D02*
X110591600Y-90246200D01*
%TO.N,+3.3V isolated*%
X113512600Y-87236700D02*
X113512600Y-88392000D01*
X103647000Y-84038200D02*
X103632000Y-84023200D01*
X113714000Y-89789000D02*
X113714000Y-88593400D01*
X113512600Y-88392000D02*
X113690400Y-88569800D01*
X113714000Y-88593400D02*
X113690400Y-88569800D01*
X113715800Y-103484200D02*
X113715800Y-104673400D01*
X103647000Y-85090000D02*
X103647000Y-84038200D01*
%TO.N,CS4_I*%
X108697000Y-104155000D02*
X108712000Y-104140000D01*
X108697000Y-105410000D02*
X108697000Y-104155000D01*
%TO.N,CS13_I*%
X103647000Y-106665000D02*
X103632000Y-106680000D01*
X103647000Y-105410000D02*
X103647000Y-106665000D01*
%TO.N,CS2_I*%
X108697000Y-99329000D02*
X108712000Y-99314000D01*
X108697000Y-100330000D02*
X108697000Y-99329000D01*
%TO.N,MISO_I*%
X110617000Y-87630000D02*
X110693200Y-87706200D01*
X111252200Y-88265200D02*
X110693200Y-87706200D01*
X110972600Y-93350079D02*
X110972600Y-92192353D01*
X108697000Y-87630000D02*
X110617000Y-87630000D01*
X111252200Y-91912753D02*
X111252200Y-88265200D01*
X110972600Y-92192353D02*
X111252200Y-91912753D01*
X113714000Y-94869000D02*
X112491521Y-94869000D01*
X112491521Y-94869000D02*
X110972600Y-93350079D01*
%TO.N,SIG1_I*%
X103647000Y-89092800D02*
X103606600Y-89052400D01*
X103647000Y-90170000D02*
X103647000Y-89092800D01*
%TO.N,SIG3_I*%
X103632000Y-93929200D02*
X103632000Y-95235000D01*
X103632000Y-95235000D02*
X103647000Y-95250000D01*
%TO.N,CS3_I*%
X108697000Y-101615000D02*
X108712000Y-101600000D01*
X108697000Y-102870000D02*
X108697000Y-101615000D01*
%TO.N,CS6_I*%
X108697000Y-109235000D02*
X108712000Y-109220000D01*
X108697000Y-110490000D02*
X108697000Y-109235000D01*
%TO.N,CS7_I*%
X108697000Y-113030000D02*
X108697000Y-112029000D01*
X108697000Y-112029000D02*
X108712000Y-112014000D01*
%TO.N,CS0_I*%
X112384200Y-96864800D02*
X112384200Y-99552600D01*
X112384200Y-99552600D02*
X113715800Y-100884200D01*
X111912753Y-92329000D02*
X111618000Y-92623753D01*
X108697000Y-95250000D02*
X110769400Y-95250000D01*
X110769400Y-95250000D02*
X110794800Y-95275400D01*
X113714000Y-92329000D02*
X111912753Y-92329000D01*
X110794800Y-95275400D02*
X112384200Y-96864800D01*
%TO.N,CS9_I*%
X103647000Y-115570000D02*
X106172000Y-115570000D01*
%TO.N,GND isolated*%
X108697000Y-81574400D02*
X108712000Y-81559400D01*
X113714000Y-99617000D02*
X113715800Y-99618800D01*
X108697000Y-84114406D02*
X108737406Y-84074000D01*
X113512600Y-84111700D02*
X113512600Y-82702400D01*
X108697000Y-82550000D02*
X108697000Y-81574400D01*
X113714000Y-98679000D02*
X113714000Y-99617000D01*
X113714000Y-91059000D02*
X112318800Y-91059000D01*
X113512600Y-82702400D02*
X113461800Y-82651600D01*
X108697000Y-85090000D02*
X108697000Y-84114406D01*
%TO.N,CS10_I*%
X103647000Y-114285000D02*
X103632000Y-114300000D01*
X103647000Y-113030000D02*
X103647000Y-114285000D01*
%TO.N,CS8_I*%
X108697000Y-114315000D02*
X108712000Y-114300000D01*
X108697000Y-115570000D02*
X108697000Y-114315000D01*
%TO.N,CS1_I*%
X108697000Y-97790000D02*
X108697000Y-96535000D01*
X108697000Y-96535000D02*
X108712000Y-96520000D01*
%TO.N,CS14_I*%
X103647000Y-102870000D02*
X103647000Y-104125000D01*
X103647000Y-104125000D02*
X103632000Y-104140000D01*
%TO.N,CS15_I*%
X103647000Y-100330000D02*
X103647000Y-101585000D01*
X103647000Y-101585000D02*
X103632000Y-101600000D01*
%TO.N,CS11_I*%
X103647000Y-111745000D02*
X103632000Y-111760000D01*
X103647000Y-110490000D02*
X103647000Y-111745000D01*
%TO.N,CS12_I*%
X103647000Y-107950000D02*
X103647000Y-108951000D01*
X103647000Y-108951000D02*
X103632000Y-108966000D01*
%TO.N,+3.3V*%
X135870000Y-113532061D02*
X135765000Y-113637061D01*
X140246500Y-98513516D02*
X140716000Y-98044016D01*
X120680000Y-119380000D02*
X120680000Y-120620000D01*
X130848500Y-114300000D02*
X130848500Y-112966100D01*
X140316016Y-98044016D02*
X140716000Y-98044016D01*
X120680000Y-120620000D02*
X120650000Y-120650000D01*
X129556000Y-122952000D02*
X129540000Y-122936000D01*
X136135439Y-114007500D02*
X135765000Y-113637061D01*
X123014000Y-89789000D02*
X123014000Y-89359000D01*
X120904000Y-87236700D02*
X120904000Y-87249000D01*
X138782500Y-104692000D02*
X139273266Y-104201234D01*
X130457500Y-110192000D02*
X129329984Y-110192000D01*
X120680000Y-114808000D02*
X120680000Y-116048000D01*
X127762000Y-111798500D02*
X129032000Y-110528500D01*
X130848500Y-112966100D02*
X131343400Y-112471200D01*
X135870000Y-111604500D02*
X135870000Y-113532061D01*
X139273266Y-104201234D02*
X140234400Y-104201234D01*
X120904000Y-87249000D02*
X122275600Y-88620600D01*
X131870000Y-111604500D02*
X131870000Y-111944600D01*
X129032000Y-110528500D02*
X129032000Y-110489984D01*
X141579600Y-102856034D02*
X140234400Y-104201234D01*
X129556000Y-124460000D02*
X129556000Y-122952000D01*
X124434600Y-97409000D02*
X124663200Y-97637600D01*
X140246500Y-99568000D02*
X140246500Y-98513516D01*
X131870000Y-111944600D02*
X131343400Y-112471200D01*
X123014000Y-97409000D02*
X124434600Y-97409000D01*
X129329984Y-110192000D02*
X129032000Y-110489984D01*
X137414000Y-114007500D02*
X136135439Y-114007500D01*
X123014000Y-89359000D02*
X122275600Y-88620600D01*
X141579600Y-101967900D02*
X141579600Y-102856034D01*
X120680000Y-110236000D02*
X120679999Y-111476001D01*
X139634000Y-97362000D02*
X140316016Y-98044016D01*
X120680000Y-116048000D02*
X120650000Y-116078000D01*
D47*
%TO.N,+24V*%
X152400000Y-71390000D02*
X152400000Y-69596000D01*
D46*
%TO.N,NRST*%
X134873800Y-111608300D02*
X134873800Y-121142200D01*
X131556000Y-124952000D02*
X131556000Y-124460000D01*
X136398000Y-129794000D02*
X131556000Y-124952000D01*
X134873800Y-121142200D02*
X131556000Y-124460000D01*
X134870000Y-111604500D02*
X134873800Y-111608300D01*
%TO.N,SWDIO*%
X132870000Y-104659783D02*
X132642949Y-104886834D01*
X132870000Y-103279500D02*
X132870000Y-104659783D01*
%TO.N,SWCLK*%
X130457500Y-104692000D02*
X131275359Y-104692000D01*
X131275359Y-104692000D02*
X131971219Y-105387860D01*
%TO.N,DI4_input*%
X138988800Y-110398300D02*
X138988800Y-110794800D01*
X138782500Y-110192000D02*
X138988800Y-110398300D01*
%TO.N,DQ2_High*%
X144701900Y-97510600D02*
X145796000Y-96416500D01*
X144627600Y-97510600D02*
X144701900Y-97510600D01*
X136870000Y-102574644D02*
X137156644Y-102288000D01*
X137156644Y-102288000D02*
X138351600Y-102288000D01*
X138351600Y-102288000D02*
X138557000Y-102082600D01*
X136870000Y-103279500D02*
X136870000Y-102574644D01*
%TO.N,DI7_input*%
X136370000Y-112798800D02*
X136370000Y-111604500D01*
X136499600Y-112928400D02*
X136370000Y-112798800D01*
%TO.N,DQ0_Low*%
X134370000Y-103279500D02*
X134370000Y-101596006D01*
X134370000Y-101596006D02*
X134797806Y-101168200D01*
X168185500Y-78843500D02*
X167381500Y-78039500D01*
X167381500Y-78039500D02*
X146111504Y-78039500D01*
X146111504Y-78039500D02*
X145796004Y-77724000D01*
%TO.N,DQ1_Low*%
X136393506Y-101390603D02*
X136393506Y-101136210D01*
X135370000Y-102414109D02*
X136393506Y-101390603D01*
X135370000Y-103279500D02*
X135370000Y-102414109D01*
X168148000Y-86463500D02*
X167381505Y-85697005D01*
X146245301Y-85697005D02*
X145941807Y-86000499D01*
X167381505Y-85697005D02*
X146245301Y-85697005D01*
%TO.N,DI3_input*%
X140167247Y-109692000D02*
X140817598Y-110342351D01*
X138782500Y-109692000D02*
X140167247Y-109692000D01*
%TO.N,DQ7_Low*%
X167358700Y-131394200D02*
X145008592Y-131394200D01*
X168148000Y-132183500D02*
X167358700Y-131394200D01*
X131871400Y-108692000D02*
X132080000Y-108483400D01*
X130457500Y-108692000D02*
X131871400Y-108692000D01*
%TO.N,DI6_input*%
X136870000Y-111604500D02*
X136870000Y-112341999D01*
X137380203Y-112852202D02*
X137515600Y-112852202D01*
X136870000Y-112341999D02*
X137380203Y-112852202D01*
%TO.N,DQ0_High*%
X134870000Y-102101506D02*
X135559603Y-101411903D01*
X134870000Y-103279500D02*
X134870000Y-102101506D01*
X145719800Y-82397600D02*
X145719800Y-81252700D01*
X135559603Y-101411903D02*
X135559603Y-101219000D01*
X145719800Y-81252700D02*
X145833500Y-81139000D01*
%TO.N,DQ7_High*%
X130457500Y-109192000D02*
X131447747Y-109192000D01*
X131447747Y-109192000D02*
X131658747Y-109403000D01*
X145796000Y-134516500D02*
X145540100Y-134516500D01*
X145540100Y-134516500D02*
X144576800Y-133553200D01*
%TO.N,DI5_input*%
X137370000Y-111604500D02*
X137868100Y-111604500D01*
X137868100Y-111604500D02*
X137922000Y-111658400D01*
%TO.N,DI0_input*%
X138782500Y-108192000D02*
X140095495Y-108192000D01*
X140639484Y-107648011D02*
X140821091Y-107648011D01*
X140095495Y-108192000D02*
X140639484Y-107648011D01*
%TO.N,DI1_input*%
X140600382Y-108692000D02*
X140806495Y-108485887D01*
X138782500Y-108692000D02*
X140600382Y-108692000D01*
%TO.N,DQ5_Low*%
X132664200Y-107061000D02*
X132533200Y-107192000D01*
X167381500Y-116177000D02*
X142928400Y-116177000D01*
X168148000Y-116943500D02*
X167381500Y-116177000D01*
X132533200Y-107192000D02*
X130457500Y-107192000D01*
X142928400Y-116177000D02*
X140893800Y-118211600D01*
%TO.N,DQ5_High*%
X132507800Y-107692000D02*
X132689600Y-107873800D01*
X141317302Y-119210500D02*
X141249402Y-119278400D01*
X145620000Y-119210500D02*
X141317302Y-119210500D01*
X130457500Y-107692000D02*
X132507800Y-107692000D01*
%TO.N,LED_ORANGE*%
X133070600Y-101295200D02*
X133370000Y-101594600D01*
X171212000Y-71967600D02*
X169392600Y-73787000D01*
X171212000Y-71628000D02*
X171212000Y-71967600D01*
X133370000Y-101594600D02*
X133370000Y-103279500D01*
%TO.N,LED_RED*%
X133870000Y-101283200D02*
X133883400Y-101269800D01*
X171034200Y-74853800D02*
X171212000Y-74676000D01*
X169621200Y-74853800D02*
X171034200Y-74853800D01*
X133870000Y-103279500D02*
X133870000Y-101283200D01*
%TO.N,DQ6_High*%
X132870000Y-112887299D02*
X132659103Y-113098196D01*
X132659103Y-113098196D02*
X132659103Y-113781525D01*
X144803500Y-126896500D02*
X144526000Y-126619000D01*
X145796000Y-126896500D02*
X144803500Y-126896500D01*
X132870000Y-111604500D02*
X132870000Y-112887299D01*
%TO.N,DI2_input*%
X140662600Y-109192000D02*
X140817600Y-109347000D01*
X138782500Y-109192000D02*
X140662600Y-109192000D01*
%TO.N,DQ2_Low*%
X137691200Y-101907000D02*
X138150600Y-101447600D01*
X144246600Y-94708708D02*
X144246600Y-96672400D01*
X168148000Y-94083500D02*
X167381500Y-93317000D01*
X167381500Y-93317000D02*
X145638308Y-93317000D01*
X136998829Y-101907000D02*
X137691200Y-101907000D01*
X136370000Y-102535829D02*
X136998829Y-101907000D01*
X136370000Y-103279500D02*
X136370000Y-102535829D01*
X145638308Y-93317000D02*
X144246600Y-94708708D01*
%TO.N,V_SENSE*%
X139729400Y-107692000D02*
X140106400Y-107315000D01*
X150368000Y-73390000D02*
X150368000Y-76708006D01*
X150368000Y-76708006D02*
X150875994Y-77216000D01*
X138782500Y-107692000D02*
X139729400Y-107692000D01*
X152400000Y-73390000D02*
X150368000Y-73390000D01*
%TO.N,DQ4_Low*%
X143253400Y-108557000D02*
X167381500Y-108557000D01*
X138782500Y-106192000D02*
X140888400Y-106192000D01*
X140888400Y-106192000D02*
X143253400Y-108557000D01*
X167381500Y-108557000D02*
X168148000Y-109323500D01*
%TO.N,DQ1_High*%
X145237200Y-89355300D02*
X145237200Y-89712800D01*
X135870000Y-102497014D02*
X137148014Y-101219000D01*
X145796000Y-88796500D02*
X145237200Y-89355300D01*
X137148014Y-101219000D02*
X137388600Y-101219000D01*
X135870000Y-103279500D02*
X135870000Y-102497014D01*
%TO.N,DQ4_High*%
X145306084Y-111148500D02*
X140849584Y-106692000D01*
X145796000Y-111148500D02*
X145306084Y-111148500D01*
X140849584Y-106692000D02*
X138782500Y-106692000D01*
%TO.N,LED_GREEN*%
X132370000Y-103279500D02*
X132370000Y-101458200D01*
X132370000Y-101458200D02*
X132308600Y-101396800D01*
X171212000Y-68894200D02*
X171212000Y-68580000D01*
X167005000Y-73101200D02*
X171212000Y-68894200D01*
%TO.N,DQ6_Low*%
X145694400Y-123698000D02*
X167320000Y-123698000D01*
X133370000Y-113151600D02*
X133400800Y-113182400D01*
X167320000Y-123698000D02*
X168148000Y-124526000D01*
X145643600Y-123647200D02*
X145694400Y-123698000D01*
X133370000Y-111604500D02*
X133370000Y-113151600D01*
%TO.N,DQ3_Low*%
X168148000Y-101666000D02*
X167381500Y-100899500D01*
X140771006Y-100899500D02*
X138391006Y-103279500D01*
X138391006Y-103279500D02*
X137370000Y-103279500D01*
X167381500Y-100899500D02*
X140771006Y-100899500D01*
%TO.N,DQ3_High*%
X137414000Y-106426000D02*
X137414000Y-106355644D01*
X138077644Y-105692000D02*
X138782500Y-105692000D01*
X143877000Y-103999000D02*
X143764000Y-103886000D01*
X137414000Y-106355644D02*
X138077644Y-105692000D01*
X145796000Y-103999000D02*
X143877000Y-103999000D01*
%TO.N,Net-(U2-TC)*%
X125033000Y-64643000D02*
X123850003Y-64643000D01*
X123850003Y-64643000D02*
X123698000Y-64490997D01*
X122212500Y-62141500D02*
X122453400Y-62382400D01*
X122314100Y-60452000D02*
X122212500Y-60553600D01*
X122212500Y-60553600D02*
X122212500Y-62141500D01*
%TO.N,SIG2_I*%
X103647000Y-91531200D02*
X103632000Y-91516200D01*
X103647000Y-92710000D02*
X103647000Y-91531200D01*
%TO.N,SIG0_I*%
X103657400Y-86487000D02*
X103657400Y-87619600D01*
X103657400Y-87619600D02*
X103647000Y-87630000D01*
%TO.N,Net-(Q1-B)*%
X145970000Y-79450500D02*
X145833500Y-79314000D01*
X148234000Y-79450500D02*
X145970000Y-79450500D01*
%TO.N,Net-(Q1-C-Pad2)*%
X154534000Y-81750500D02*
X148234000Y-81750500D01*
X157009500Y-78806000D02*
X154534000Y-81281500D01*
X154534000Y-81281500D02*
X154534000Y-81750500D01*
%TO.N,Net-(Q2-C-Pad2)*%
X156972000Y-86463500D02*
X154534000Y-88901500D01*
X154534000Y-88901500D02*
X154534000Y-89408000D01*
X154534000Y-89408000D02*
X148234000Y-89408000D01*
%TO.N,Net-(Q2-B)*%
X148234000Y-87108000D02*
X145932500Y-87108000D01*
X145932500Y-87108000D02*
X145796000Y-86971500D01*
%TO.N,Net-(Q3-B)*%
X145932500Y-94728000D02*
X145796000Y-94591500D01*
X148234000Y-94728000D02*
X145932500Y-94728000D01*
%TO.N,Net-(Q3-C-Pad2)*%
X154534000Y-96521500D02*
X154534000Y-97028000D01*
X156972000Y-94083500D02*
X154534000Y-96521500D01*
X154534000Y-97028000D02*
X148234000Y-97028000D01*
%TO.N,Net-(Q4-C-Pad2)*%
X154534000Y-104104000D02*
X154534000Y-104648000D01*
X156972000Y-101666000D02*
X154534000Y-104104000D01*
X154534000Y-104648000D02*
X148234000Y-104648000D01*
%TO.N,Net-(Q4-B)*%
X145970000Y-102348000D02*
X145796000Y-102174000D01*
X148234000Y-102348000D02*
X145970000Y-102348000D01*
%TO.N,Net-(Q5-C-Pad2)*%
X154534000Y-111761500D02*
X154534000Y-112268000D01*
X154534000Y-112268000D02*
X148234000Y-112268000D01*
X156972000Y-109323500D02*
X154534000Y-111761500D01*
%TO.N,Net-(Q5-B)*%
X148234000Y-109968000D02*
X146440500Y-109968000D01*
X146440500Y-109968000D02*
X145796000Y-109323500D01*
%TO.N,Net-(Q6-C-Pad2)*%
X154534000Y-119888000D02*
X148234000Y-119888000D01*
X154534000Y-119381500D02*
X154534000Y-119888000D01*
X156972000Y-116943500D02*
X154534000Y-119381500D01*
%TO.N,Net-(Q6-B)*%
X145822500Y-117588000D02*
X145620000Y-117385500D01*
X148234000Y-117588000D02*
X145822500Y-117588000D01*
%TO.N,Net-(Q7-B)*%
X148234000Y-125208000D02*
X145932500Y-125208000D01*
X145932500Y-125208000D02*
X145796000Y-125071500D01*
%TO.N,Net-(Q7-C-Pad2)*%
X156972000Y-124563500D02*
X154534000Y-127001500D01*
X154534000Y-127508000D02*
X148234000Y-127508000D01*
X154534000Y-127001500D02*
X154534000Y-127508000D01*
%TO.N,Net-(Q8-C-Pad2)*%
X154534000Y-135128000D02*
X148234000Y-135128000D01*
X154534000Y-134621500D02*
X154534000Y-135128000D01*
X156972000Y-132183500D02*
X154534000Y-134621500D01*
%TO.N,Net-(Q8-B)*%
X148234000Y-132828000D02*
X145932500Y-132828000D01*
X145932500Y-132828000D02*
X145796000Y-132691500D01*
%TO.N,Net-(Q9-B)*%
X157009500Y-80631000D02*
X157009500Y-82399500D01*
X158152500Y-79488000D02*
X157009500Y-80631000D01*
X159410000Y-79488000D02*
X158152500Y-79488000D01*
%TO.N,Net-(Q10-B)*%
X156972000Y-88288500D02*
X156972000Y-90019500D01*
X158152500Y-87108000D02*
X156972000Y-88288500D01*
X159410000Y-87108000D02*
X158152500Y-87108000D01*
%TO.N,Net-(Q11-B)*%
X156972000Y-97602000D02*
X157009500Y-97639500D01*
X156972000Y-95908500D02*
X156972000Y-97602000D01*
X158152500Y-94728000D02*
X156972000Y-95908500D01*
X159410000Y-94728000D02*
X158152500Y-94728000D01*
%TO.N,Net-(Q12-B)*%
X156972000Y-103491000D02*
X156972000Y-105259500D01*
X158115000Y-102348000D02*
X156972000Y-103491000D01*
X159410000Y-102348000D02*
X158115000Y-102348000D01*
%TO.N,Net-(Q13-B)*%
X159410000Y-109968000D02*
X158152500Y-109968000D01*
X158152500Y-109968000D02*
X156972000Y-111148500D01*
X156972000Y-112879500D02*
X156972000Y-111148500D01*
%TO.N,Net-(Q14-B)*%
X158152500Y-117588000D02*
X156972000Y-118768500D01*
X156972000Y-118768500D02*
X156972000Y-120537000D01*
X159410000Y-117588000D02*
X158152500Y-117588000D01*
%TO.N,Net-(Q15-B)*%
X159410000Y-125208000D02*
X158152500Y-125208000D01*
X158152500Y-125208000D02*
X156972000Y-126388500D01*
X156972000Y-128119500D02*
X156972000Y-126388500D01*
%TO.N,Net-(Q16-B)*%
X156972000Y-134008500D02*
X156972000Y-135739500D01*
X159410000Y-132828000D02*
X158152500Y-132828000D01*
X158152500Y-132828000D02*
X156972000Y-134008500D01*
%TO.N,Net-(Q17-B)*%
X170586000Y-79488000D02*
X169366000Y-79488000D01*
X168185500Y-80668500D02*
X168185500Y-82399500D01*
X169366000Y-79488000D02*
X168185500Y-80668500D01*
%TO.N,Net-(Q18-B)*%
X170586000Y-87108000D02*
X169328500Y-87108000D01*
X169328500Y-87108000D02*
X168148000Y-88288500D01*
X168148000Y-90003500D02*
X168132000Y-90019500D01*
X168148000Y-88288500D02*
X168148000Y-90003500D01*
%TO.N,Net-(Q19-B)*%
X168148000Y-95908500D02*
X168148000Y-97639500D01*
X170586000Y-94728000D02*
X169328500Y-94728000D01*
X169328500Y-94728000D02*
X168148000Y-95908500D01*
%TO.N,Net-(Q20-B)*%
X170586000Y-102348000D02*
X169291000Y-102348000D01*
X168148000Y-103491000D02*
X168148000Y-105259500D01*
X169291000Y-102348000D02*
X168148000Y-103491000D01*
%TO.N,Net-(Q21-B)*%
X170586000Y-109968000D02*
X169328500Y-109968000D01*
X168148000Y-111148500D02*
X168148000Y-112879500D01*
X169328500Y-109968000D02*
X168148000Y-111148500D01*
%TO.N,Net-(Q22-B)*%
X170586000Y-117588000D02*
X169328500Y-117588000D01*
X169328500Y-117588000D02*
X168148000Y-118768500D01*
X168148000Y-118768500D02*
X168148000Y-120537000D01*
%TO.N,Net-(Q23-B)*%
X170623500Y-125208000D02*
X169291000Y-125208000D01*
X169291000Y-125208000D02*
X168148000Y-126351000D01*
X168148000Y-126351000D02*
X168148000Y-128119500D01*
%TO.N,Net-(Q24-B)*%
X169328500Y-132828000D02*
X168148000Y-134008500D01*
X170586000Y-132828000D02*
X169328500Y-132828000D01*
X168148000Y-134008500D02*
X168148000Y-135739500D01*
%TO.N,CONFIG_0*%
X119380000Y-110236000D02*
X119380000Y-111455154D01*
X136351200Y-107192000D02*
X133858000Y-104698800D01*
X138782500Y-107192000D02*
X136351200Y-107192000D01*
%TO.N,CONFIG_1*%
X130547200Y-111378998D02*
X129768600Y-111378998D01*
X132370000Y-110827802D02*
X132104398Y-110562200D01*
X119380000Y-116052600D02*
X119354600Y-116078000D01*
X131363998Y-110562200D02*
X130547200Y-111378998D01*
X119380000Y-114808000D02*
X119380000Y-116052600D01*
X132104398Y-110562200D02*
X131363998Y-110562200D01*
X132370000Y-111604500D02*
X132370000Y-110827802D01*
%TO.N,Net-(U3-PF0)*%
X123952000Y-124550000D02*
X122479500Y-126022500D01*
X134111800Y-112887894D02*
X134111800Y-114390200D01*
X133870000Y-112646094D02*
X134111800Y-112887894D01*
X133870000Y-111604500D02*
X133870000Y-112646094D01*
X134111800Y-114390200D02*
X123952000Y-124550000D01*
X122479500Y-126022500D02*
X119888000Y-126022500D01*
%TO.N,Net-(U3-PF1)*%
X123952000Y-129450000D02*
X123952000Y-126593600D01*
X122733500Y-128231500D02*
X123952000Y-129450000D01*
X134492800Y-116052800D02*
X134492800Y-112730078D01*
X123952000Y-126593600D02*
X134492800Y-116052800D01*
X134492800Y-112730078D02*
X134370000Y-112607278D01*
X119888000Y-128231500D02*
X122733500Y-128231500D01*
X134370000Y-112607278D02*
X134370000Y-111604500D01*
D47*
%TO.N,Net-(C11-Pad1)*%
X118126000Y-73800000D02*
X123444000Y-79118000D01*
X118126000Y-65786000D02*
X118126000Y-73800000D01*
D46*
%TO.N,SPI_SCK*%
X129517200Y-105692000D02*
X127406400Y-103581200D01*
X127406400Y-103581200D02*
X127406400Y-96469200D01*
X127406400Y-96469200D02*
X124536200Y-93599000D01*
X130457500Y-105692000D02*
X129517200Y-105692000D01*
X124536200Y-93599000D02*
X123014000Y-93599000D01*
%TO.N,SPI_MOSI*%
X126644400Y-104317800D02*
X126644400Y-98018600D01*
X129018600Y-106692000D02*
X126644400Y-104317800D01*
X126644400Y-98018600D02*
X124764800Y-96139000D01*
X130457500Y-106692000D02*
X129018600Y-106692000D01*
X124764800Y-96139000D02*
X123014000Y-96139000D01*
%TO.N,SPI_MISO*%
X129255200Y-106192000D02*
X130457500Y-106192000D01*
X127025400Y-97383600D02*
X127025400Y-103962200D01*
X124510800Y-94869000D02*
X127025400Y-97383600D01*
X123014000Y-94869000D02*
X124510800Y-94869000D01*
X127025400Y-103962200D02*
X129255200Y-106192000D01*
%TO.N,SPI_CS0*%
X129752645Y-105192000D02*
X130457500Y-105192000D01*
X127787400Y-103226755D02*
X129752645Y-105192000D01*
X127787400Y-95732600D02*
X127787400Y-103226755D01*
X124383800Y-92329000D02*
X127787400Y-95732600D01*
X123014000Y-92329000D02*
X124383800Y-92329000D01*
%TO.N,Net-(D2-A)*%
X173212000Y-68580000D02*
X176027000Y-68580000D01*
%TO.N,Net-(D3-A)*%
X176027000Y-71628000D02*
X173212000Y-71628000D01*
%TO.N,Net-(D4-A)*%
X176027000Y-74676000D02*
X173212000Y-74676000D01*
%TO.N,Net-(JP4-C)*%
X129134534Y-108192000D02*
X128648734Y-107706200D01*
X119380000Y-118353506D02*
X119380000Y-119380000D01*
X121666000Y-116067506D02*
X119380000Y-118353506D01*
X126875266Y-107706200D02*
X121666000Y-112915466D01*
X128648734Y-107706200D02*
X126875266Y-107706200D01*
X130457500Y-108192000D02*
X129134534Y-108192000D01*
X121666000Y-112915466D02*
X121666000Y-116067506D01*
%TO.N,Net-(U2-Vfb)*%
X131444982Y-65913000D02*
X131571982Y-66040000D01*
X129983000Y-65913000D02*
X131444982Y-65913000D01*
X120126000Y-65786000D02*
X120126000Y-62499996D01*
X120126000Y-63754000D02*
X120126000Y-65786000D01*
X120126000Y-62499996D02*
X120141996Y-62484000D01*
%TO.N,Net-(JP1-C)*%
X114719800Y-102184200D02*
X115062000Y-101842000D01*
X115062000Y-97713800D02*
X114757200Y-97409000D01*
X113715800Y-102184200D02*
X114719800Y-102184200D01*
X114757200Y-97409000D02*
X113714000Y-97409000D01*
X115062000Y-101842000D02*
X115062000Y-97713800D01*
%TO.N,SIG4_I*%
X103657400Y-96647000D02*
X103657400Y-97779600D01*
X103657400Y-97779600D02*
X103647000Y-97790000D01*
%TD*%
%TA.AperFunction,Conductor*%
%TO.N,+24V*%
G36*
X142945039Y-62757685D02*
G01*
X142990794Y-62810489D01*
X143002000Y-62862000D01*
X143002000Y-72006500D01*
X142982315Y-72073539D01*
X142929511Y-72119294D01*
X142878000Y-72130500D01*
X139802560Y-72130500D01*
X139735521Y-72110815D01*
X139689766Y-72058011D01*
X139679822Y-71988853D01*
X139708847Y-71925297D01*
X139763556Y-71888794D01*
X139807119Y-71874358D01*
X139807124Y-71874356D01*
X139956345Y-71782315D01*
X140080315Y-71658345D01*
X140172356Y-71509124D01*
X140172358Y-71509119D01*
X140227505Y-71342697D01*
X140227506Y-71342690D01*
X140237999Y-71239986D01*
X140238000Y-71239973D01*
X140238000Y-69940000D01*
X137638001Y-69940000D01*
X137638001Y-71239986D01*
X137648494Y-71342697D01*
X137703641Y-71509119D01*
X137703643Y-71509124D01*
X137795684Y-71658345D01*
X137919654Y-71782315D01*
X138068875Y-71874356D01*
X138068880Y-71874358D01*
X138112444Y-71888794D01*
X138169889Y-71928567D01*
X138196712Y-71993083D01*
X138184397Y-72061858D01*
X138136854Y-72113058D01*
X138073440Y-72130500D01*
X136776000Y-72130500D01*
X136775991Y-72130500D01*
X136775990Y-72130501D01*
X136731457Y-72135289D01*
X136718202Y-72136000D01*
X136061623Y-72136000D01*
X136043977Y-72134738D01*
X136014501Y-72130500D01*
X136014500Y-72130500D01*
X135506000Y-72130500D01*
X135438961Y-72110815D01*
X135393206Y-72058011D01*
X135382000Y-72006500D01*
X135382000Y-70260026D01*
X135401685Y-70192987D01*
X135424798Y-70166312D01*
X135444586Y-70149166D01*
X135540297Y-70038711D01*
X135601014Y-69905763D01*
X135620699Y-69838724D01*
X135620700Y-69838720D01*
X135641500Y-69694050D01*
X135641500Y-69440000D01*
X137638000Y-69440000D01*
X138688000Y-69440000D01*
X138688000Y-67440000D01*
X139188000Y-67440000D01*
X139188000Y-69440000D01*
X140237999Y-69440000D01*
X140237999Y-68140028D01*
X140237998Y-68140013D01*
X140227505Y-68037302D01*
X140172358Y-67870880D01*
X140172356Y-67870875D01*
X140080315Y-67721654D01*
X139956345Y-67597684D01*
X139807124Y-67505643D01*
X139807119Y-67505641D01*
X139640697Y-67450494D01*
X139640690Y-67450493D01*
X139537986Y-67440000D01*
X139188000Y-67440000D01*
X138688000Y-67440000D01*
X138338028Y-67440000D01*
X138338012Y-67440001D01*
X138235302Y-67450494D01*
X138068880Y-67505641D01*
X138068875Y-67505643D01*
X137919654Y-67597684D01*
X137795684Y-67721654D01*
X137703643Y-67870875D01*
X137703641Y-67870880D01*
X137648494Y-68037302D01*
X137648493Y-68037309D01*
X137638000Y-68140013D01*
X137638000Y-69440000D01*
X135641500Y-69440000D01*
X135641500Y-69142999D01*
X135629764Y-69033842D01*
X135618558Y-68982331D01*
X135583890Y-68878172D01*
X135583889Y-68878171D01*
X135582014Y-68872536D01*
X135579520Y-68802711D01*
X135611990Y-68745691D01*
X135615030Y-68742652D01*
X135708115Y-68591738D01*
X135763887Y-68423426D01*
X135774500Y-68319545D01*
X135774499Y-67393456D01*
X135763887Y-67289574D01*
X135708115Y-67121262D01*
X135615030Y-66970348D01*
X135489652Y-66844970D01*
X135489651Y-66844969D01*
X135440902Y-66814900D01*
X135394178Y-66762952D01*
X135382000Y-66709362D01*
X135382000Y-66548000D01*
X133574596Y-66548000D01*
X133507557Y-66528315D01*
X133480882Y-66505202D01*
X133463735Y-66485413D01*
X133353284Y-66389705D01*
X133353278Y-66389701D01*
X133220336Y-66328987D01*
X133153291Y-66309300D01*
X133105066Y-66302366D01*
X133008620Y-66288500D01*
X133008618Y-66288500D01*
X132450064Y-66288500D01*
X132383025Y-66268815D01*
X132337270Y-66216011D01*
X132326844Y-66150617D01*
X132339307Y-66040003D01*
X132339307Y-66039996D01*
X132320070Y-65869261D01*
X132320068Y-65869251D01*
X132263318Y-65707070D01*
X132263316Y-65707067D01*
X132207093Y-65617589D01*
X132171901Y-65561581D01*
X132050401Y-65440081D01*
X131904912Y-65348664D01*
X131904913Y-65348664D01*
X131904911Y-65348663D01*
X131742730Y-65291913D01*
X131742720Y-65291911D01*
X131571986Y-65272675D01*
X131571978Y-65272675D01*
X131532098Y-65277168D01*
X131513663Y-65277298D01*
X131513663Y-65277500D01*
X131494025Y-65277500D01*
X131426986Y-65257815D01*
X131381231Y-65205011D01*
X131371287Y-65135853D01*
X131387293Y-65090379D01*
X131409281Y-65053198D01*
X131430111Y-64981500D01*
X132966001Y-64981500D01*
X132966001Y-65193986D01*
X132976494Y-65296697D01*
X133031641Y-65463119D01*
X133031643Y-65463124D01*
X133123684Y-65612345D01*
X133247654Y-65736315D01*
X133396875Y-65828356D01*
X133396880Y-65828358D01*
X133563302Y-65883505D01*
X133563309Y-65883506D01*
X133666019Y-65893999D01*
X134115999Y-65893999D01*
X134116000Y-65893998D01*
X134116000Y-64981500D01*
X132966001Y-64981500D01*
X131430111Y-64981500D01*
X131455100Y-64895486D01*
X131455295Y-64893001D01*
X131455295Y-64893000D01*
X129857000Y-64893000D01*
X129789961Y-64873315D01*
X129744206Y-64820511D01*
X129733000Y-64769000D01*
X129733000Y-64517000D01*
X129743424Y-64481500D01*
X132966000Y-64481500D01*
X134116000Y-64481500D01*
X134116000Y-63569000D01*
X134616000Y-63569000D01*
X134616000Y-65893999D01*
X135065972Y-65893999D01*
X135065986Y-65893998D01*
X135168695Y-65883506D01*
X135307836Y-65837398D01*
X135377664Y-65834996D01*
X135437707Y-65870727D01*
X135468900Y-65933247D01*
X135470199Y-65942502D01*
X135478494Y-66023696D01*
X135533641Y-66190119D01*
X135533643Y-66190124D01*
X135625684Y-66339345D01*
X135749654Y-66463315D01*
X135898875Y-66555356D01*
X135898880Y-66555358D01*
X136065302Y-66610505D01*
X136065309Y-66610506D01*
X136168019Y-66620999D01*
X137417999Y-66620999D01*
X137418000Y-66620998D01*
X137418000Y-65721000D01*
X137918000Y-65721000D01*
X137918000Y-66620999D01*
X139167972Y-66620999D01*
X139167986Y-66620998D01*
X139270697Y-66610505D01*
X139437119Y-66555358D01*
X139437124Y-66555356D01*
X139586345Y-66463315D01*
X139710315Y-66339345D01*
X139802356Y-66190124D01*
X139802358Y-66190119D01*
X139857505Y-66023697D01*
X139857506Y-66023690D01*
X139867999Y-65920986D01*
X139868000Y-65920973D01*
X139868000Y-65721000D01*
X137918000Y-65721000D01*
X137418000Y-65721000D01*
X137418000Y-64321000D01*
X137918000Y-64321000D01*
X137918000Y-65221000D01*
X139867999Y-65221000D01*
X139867999Y-65021028D01*
X139867998Y-65021013D01*
X139857505Y-64918302D01*
X139802358Y-64751880D01*
X139802356Y-64751875D01*
X139710315Y-64602654D01*
X139586345Y-64478684D01*
X139437124Y-64386643D01*
X139437119Y-64386641D01*
X139270697Y-64331494D01*
X139270690Y-64331493D01*
X139167986Y-64321000D01*
X137918000Y-64321000D01*
X137418000Y-64321000D01*
X136168028Y-64321000D01*
X136168012Y-64321001D01*
X136065302Y-64331494D01*
X135928632Y-64376782D01*
X135858803Y-64379184D01*
X135798762Y-64343452D01*
X135767569Y-64280931D01*
X135766270Y-64271677D01*
X135755506Y-64166303D01*
X135700358Y-63999880D01*
X135700356Y-63999875D01*
X135608315Y-63850654D01*
X135484345Y-63726684D01*
X135335124Y-63634643D01*
X135335119Y-63634641D01*
X135168697Y-63579494D01*
X135168690Y-63579493D01*
X135065986Y-63569000D01*
X134616000Y-63569000D01*
X134116000Y-63569000D01*
X133666028Y-63569000D01*
X133666012Y-63569001D01*
X133563302Y-63579494D01*
X133396880Y-63634641D01*
X133396875Y-63634643D01*
X133247654Y-63726684D01*
X133123684Y-63850654D01*
X133031643Y-63999875D01*
X133031641Y-63999880D01*
X132976494Y-64166302D01*
X132976493Y-64166309D01*
X132966000Y-64269013D01*
X132966000Y-64481500D01*
X129743424Y-64481500D01*
X129752685Y-64449961D01*
X129805489Y-64404206D01*
X129857000Y-64393000D01*
X131455295Y-64393000D01*
X131455295Y-64392998D01*
X131455100Y-64390511D01*
X131443159Y-64349412D01*
X131443358Y-64279542D01*
X131481299Y-64220872D01*
X131544937Y-64192028D01*
X131571193Y-64191139D01*
X131573731Y-64191323D01*
X131643427Y-64186402D01*
X131643434Y-64186401D01*
X131786279Y-64155462D01*
X131914621Y-64085531D01*
X131970592Y-64043710D01*
X132074032Y-63940456D01*
X132553549Y-63301100D01*
X132609520Y-63259279D01*
X132652749Y-63251500D01*
X140337990Y-63251500D01*
X140338000Y-63251500D01*
X140447157Y-63239764D01*
X140498668Y-63228558D01*
X140533440Y-63216984D01*
X140602820Y-63193893D01*
X140602824Y-63193890D01*
X140602827Y-63193890D01*
X140725782Y-63114871D01*
X140778586Y-63069116D01*
X140874297Y-62958661D01*
X140935014Y-62825713D01*
X140935014Y-62825711D01*
X140935017Y-62825706D01*
X140936560Y-62821569D01*
X140937841Y-62822046D01*
X140972393Y-62768285D01*
X141035950Y-62739262D01*
X141053594Y-62738000D01*
X142878000Y-62738000D01*
X142945039Y-62757685D01*
G37*
%TD.AperFunction*%
%TD*%
%TA.AperFunction,Conductor*%
%TO.N,DIQ3*%
G36*
X166882539Y-101554685D02*
G01*
X166928294Y-101607489D01*
X166939500Y-101659000D01*
X166939500Y-101979036D01*
X166939501Y-101979053D01*
X166950113Y-102082927D01*
X167005884Y-102251235D01*
X167005886Y-102251240D01*
X167060827Y-102340312D01*
X167079267Y-102407704D01*
X167058345Y-102474368D01*
X167004703Y-102519138D01*
X166935372Y-102527799D01*
X166876927Y-102501511D01*
X166763129Y-102408721D01*
X166582861Y-102314557D01*
X166387328Y-102258609D01*
X166387325Y-102258608D01*
X166268000Y-102248000D01*
X165960000Y-102248000D01*
X165960000Y-104774000D01*
X165940315Y-104841039D01*
X165887511Y-104886794D01*
X165836000Y-104898000D01*
X164210000Y-104898000D01*
X164210000Y-105551340D01*
X164190315Y-105618379D01*
X164137511Y-105664134D01*
X164068354Y-105674078D01*
X163960001Y-105658500D01*
X163960000Y-105658500D01*
X160995543Y-105658500D01*
X160969646Y-105659153D01*
X160969629Y-105659153D01*
X160969623Y-105659154D01*
X160957155Y-105659783D01*
X160931296Y-105661744D01*
X160931291Y-105661745D01*
X160921749Y-105664118D01*
X160851941Y-105661191D01*
X160794797Y-105620987D01*
X160768461Y-105556271D01*
X160780742Y-105488687D01*
X160861169Y-105326521D01*
X160907102Y-105141824D01*
X160910000Y-105099096D01*
X160910000Y-104898000D01*
X159284000Y-104898000D01*
X159216961Y-104878315D01*
X159171206Y-104825511D01*
X159160000Y-104774000D01*
X159160000Y-104522000D01*
X159179685Y-104454961D01*
X159232489Y-104409206D01*
X159284000Y-104398000D01*
X160910000Y-104398000D01*
X164210000Y-104398000D01*
X165460000Y-104398000D01*
X165460000Y-102248000D01*
X165151999Y-102248000D01*
X165032674Y-102258608D01*
X165032671Y-102258609D01*
X164837138Y-102314557D01*
X164656870Y-102408721D01*
X164499246Y-102537246D01*
X164370721Y-102694870D01*
X164276557Y-102875138D01*
X164220609Y-103070671D01*
X164220608Y-103070674D01*
X164210000Y-103189999D01*
X164210000Y-104398000D01*
X160910000Y-104398000D01*
X160910000Y-104196903D01*
X160907102Y-104154175D01*
X160861168Y-103969476D01*
X160776609Y-103798977D01*
X160776607Y-103798974D01*
X160657369Y-103650635D01*
X160594483Y-103600087D01*
X160554564Y-103542744D01*
X160551984Y-103472922D01*
X160587562Y-103412789D01*
X160594110Y-103407093D01*
X160663170Y-103351170D01*
X160780047Y-103206839D01*
X160864362Y-103041362D01*
X160912430Y-102861971D01*
X160918500Y-102784843D01*
X160918499Y-101911158D01*
X160912430Y-101834029D01*
X160874130Y-101691092D01*
X160875793Y-101621244D01*
X160914955Y-101563381D01*
X160979184Y-101535877D01*
X160993905Y-101535000D01*
X166815500Y-101535000D01*
X166882539Y-101554685D01*
G37*
%TD.AperFunction*%
%TA.AperFunction,Conductor*%
G36*
X178251039Y-101365685D02*
G01*
X178296794Y-101418489D01*
X178308000Y-101470000D01*
X178308000Y-102449131D01*
X178288315Y-102516170D01*
X178235511Y-102561925D01*
X178166353Y-102571869D01*
X178102797Y-102542844D01*
X178097017Y-102537462D01*
X177939129Y-102408721D01*
X177758861Y-102314557D01*
X177563328Y-102258609D01*
X177563325Y-102258608D01*
X177444000Y-102248000D01*
X177136000Y-102248000D01*
X177136000Y-104774000D01*
X177116315Y-104841039D01*
X177063511Y-104886794D01*
X177012000Y-104898000D01*
X175386000Y-104898000D01*
X175386000Y-105551340D01*
X175366315Y-105618379D01*
X175313511Y-105664134D01*
X175244354Y-105674078D01*
X175136001Y-105658500D01*
X175136000Y-105658500D01*
X172171543Y-105658500D01*
X172145646Y-105659153D01*
X172145629Y-105659153D01*
X172145623Y-105659154D01*
X172133155Y-105659783D01*
X172107296Y-105661744D01*
X172107291Y-105661745D01*
X172097749Y-105664118D01*
X172027941Y-105661191D01*
X171970797Y-105620987D01*
X171944461Y-105556271D01*
X171956742Y-105488687D01*
X172037169Y-105326521D01*
X172083102Y-105141824D01*
X172086000Y-105099096D01*
X172086000Y-104898000D01*
X170460000Y-104898000D01*
X170392961Y-104878315D01*
X170347206Y-104825511D01*
X170336000Y-104774000D01*
X170336000Y-104522000D01*
X170355685Y-104454961D01*
X170408489Y-104409206D01*
X170460000Y-104398000D01*
X172086000Y-104398000D01*
X175386000Y-104398000D01*
X176636000Y-104398000D01*
X176636000Y-102248000D01*
X176327999Y-102248000D01*
X176208674Y-102258608D01*
X176208671Y-102258609D01*
X176013138Y-102314557D01*
X175832870Y-102408721D01*
X175675246Y-102537246D01*
X175546721Y-102694870D01*
X175452557Y-102875138D01*
X175396609Y-103070671D01*
X175396608Y-103070674D01*
X175386000Y-103189999D01*
X175386000Y-104398000D01*
X172086000Y-104398000D01*
X172086000Y-104196903D01*
X172083102Y-104154175D01*
X172037168Y-103969476D01*
X171952609Y-103798977D01*
X171952607Y-103798974D01*
X171833369Y-103650635D01*
X171770483Y-103600087D01*
X171730564Y-103542744D01*
X171727984Y-103472922D01*
X171763562Y-103412789D01*
X171770110Y-103407093D01*
X171839170Y-103351170D01*
X171956047Y-103206839D01*
X172040362Y-103041362D01*
X172088430Y-102861971D01*
X172094500Y-102784843D01*
X172094499Y-101911158D01*
X172088430Y-101834029D01*
X172040362Y-101654638D01*
X171974966Y-101526292D01*
X171962071Y-101457626D01*
X171988347Y-101392886D01*
X172045453Y-101352628D01*
X172085452Y-101346000D01*
X178184000Y-101346000D01*
X178251039Y-101365685D01*
G37*
%TD.AperFunction*%
%TD*%
%TA.AperFunction,Conductor*%
%TO.N,GND*%
G36*
X137611039Y-95777685D02*
G01*
X137656794Y-95830489D01*
X137668000Y-95882000D01*
X137668000Y-96279700D01*
X137648315Y-96346739D01*
X137595511Y-96392494D01*
X137544008Y-96403700D01*
X137531571Y-96403700D01*
X137481938Y-96410234D01*
X137481930Y-96410236D01*
X137373009Y-96461027D01*
X137288027Y-96546009D01*
X137237234Y-96654935D01*
X137230701Y-96704561D01*
X137230700Y-96704577D01*
X137230700Y-98019430D01*
X137237234Y-98069061D01*
X137237236Y-98069069D01*
X137288027Y-98177990D01*
X137335181Y-98225144D01*
X137368666Y-98286467D01*
X137371500Y-98312825D01*
X137371500Y-99694000D01*
X137351815Y-99761039D01*
X137299011Y-99806794D01*
X137247500Y-99818000D01*
X135959001Y-99818000D01*
X135959001Y-100267986D01*
X135969494Y-100370697D01*
X136024641Y-100537119D01*
X136024646Y-100537130D01*
X136093589Y-100648903D01*
X136112030Y-100716295D01*
X136091108Y-100782959D01*
X136037466Y-100827729D01*
X135988051Y-100838000D01*
X135849383Y-100838000D01*
X135782345Y-100818316D01*
X135751610Y-100798564D01*
X135751608Y-100798563D01*
X135751606Y-100798562D01*
X135625384Y-100761500D01*
X135625382Y-100761500D01*
X135493824Y-100761500D01*
X135493822Y-100761500D01*
X135367599Y-100798562D01*
X135367596Y-100798564D01*
X135336860Y-100818316D01*
X135269823Y-100838000D01*
X135166633Y-100838000D01*
X135099594Y-100818316D01*
X135099592Y-100818315D01*
X134989813Y-100747764D01*
X134989810Y-100747762D01*
X134863587Y-100710700D01*
X134863585Y-100710700D01*
X134732027Y-100710700D01*
X134732025Y-100710700D01*
X134605801Y-100747762D01*
X134526752Y-100798564D01*
X134496020Y-100818315D01*
X134496018Y-100818316D01*
X134428979Y-100838000D01*
X134054533Y-100838000D01*
X134019598Y-100832977D01*
X133949180Y-100812300D01*
X133949179Y-100812300D01*
X133817621Y-100812300D01*
X133817620Y-100812300D01*
X133747202Y-100832977D01*
X133712267Y-100838000D01*
X133147332Y-100838000D01*
X133143138Y-100837700D01*
X133136379Y-100837700D01*
X133004821Y-100837700D01*
X132998062Y-100837700D01*
X132993868Y-100838000D01*
X131188000Y-100838000D01*
X131120961Y-100818315D01*
X131075206Y-100765511D01*
X131064000Y-100714000D01*
X131064000Y-100003407D01*
X131083685Y-99936368D01*
X131136489Y-99890613D01*
X131205647Y-99880669D01*
X131227004Y-99885701D01*
X131377302Y-99935505D01*
X131377309Y-99935506D01*
X131480019Y-99945999D01*
X131829999Y-99945999D01*
X131830000Y-99945998D01*
X131830000Y-97946000D01*
X132330000Y-97946000D01*
X132330000Y-99945999D01*
X132679972Y-99945999D01*
X132679986Y-99945998D01*
X132782697Y-99935505D01*
X132949119Y-99880358D01*
X132949124Y-99880356D01*
X133098345Y-99788315D01*
X133222315Y-99664345D01*
X133314356Y-99515124D01*
X133314358Y-99515119D01*
X133369505Y-99348697D01*
X133369506Y-99348690D01*
X133372642Y-99318000D01*
X135959000Y-99318000D01*
X136871500Y-99318000D01*
X136871500Y-98168000D01*
X136659029Y-98168000D01*
X136659012Y-98168001D01*
X136556302Y-98178494D01*
X136389880Y-98233641D01*
X136389875Y-98233643D01*
X136240654Y-98325684D01*
X136116684Y-98449654D01*
X136024643Y-98598875D01*
X136024641Y-98598880D01*
X135969494Y-98765302D01*
X135969493Y-98765309D01*
X135959000Y-98868013D01*
X135959000Y-99318000D01*
X133372642Y-99318000D01*
X133379999Y-99245986D01*
X133380000Y-99245973D01*
X133380000Y-97946000D01*
X132330000Y-97946000D01*
X131830000Y-97946000D01*
X131830000Y-97570000D01*
X131849685Y-97502961D01*
X131902489Y-97457206D01*
X131954000Y-97446000D01*
X133379999Y-97446000D01*
X133379999Y-96146028D01*
X133379998Y-96146013D01*
X133369505Y-96043302D01*
X133328980Y-95921004D01*
X133326578Y-95851176D01*
X133362310Y-95791134D01*
X133424830Y-95759941D01*
X133446686Y-95758000D01*
X137544000Y-95758000D01*
X137611039Y-95777685D01*
G37*
%TD.AperFunction*%
%TD*%
%TA.AperFunction,Conductor*%
%TO.N,GND*%
G36*
X133075659Y-66821685D02*
G01*
X133121414Y-66874489D01*
X133131358Y-66943647D01*
X133114159Y-66991097D01*
X133031643Y-67124875D01*
X133031641Y-67124880D01*
X132976494Y-67291302D01*
X132976493Y-67291309D01*
X132966000Y-67394013D01*
X132966000Y-67606500D01*
X134492000Y-67606500D01*
X134559039Y-67626185D01*
X134604794Y-67678989D01*
X134616000Y-67730500D01*
X134616000Y-69018999D01*
X135004000Y-69018999D01*
X135071039Y-69038684D01*
X135116794Y-69091488D01*
X135128000Y-69142999D01*
X135128000Y-69694050D01*
X135108315Y-69761089D01*
X135055511Y-69806844D01*
X134986353Y-69816788D01*
X134938904Y-69799589D01*
X134827128Y-69730645D01*
X134827119Y-69730641D01*
X134660697Y-69675494D01*
X134660690Y-69675493D01*
X134557986Y-69665000D01*
X134108000Y-69665000D01*
X134108000Y-70953500D01*
X134088315Y-71020539D01*
X134035511Y-71066294D01*
X133984000Y-71077500D01*
X133732000Y-71077500D01*
X133664961Y-71057815D01*
X133619206Y-71005011D01*
X133608000Y-70953500D01*
X133608000Y-69665000D01*
X133158028Y-69665000D01*
X133158012Y-69665001D01*
X133055302Y-69675494D01*
X132888880Y-69730641D01*
X132888875Y-69730643D01*
X132739654Y-69822684D01*
X132615683Y-69946655D01*
X132615682Y-69946657D01*
X132613684Y-69949896D01*
X132611735Y-69951647D01*
X132611202Y-69952323D01*
X132611086Y-69952231D01*
X132561731Y-69996615D01*
X132492768Y-70007831D01*
X132428688Y-69979982D01*
X132420470Y-69972470D01*
X132418000Y-69970000D01*
X130218000Y-69970000D01*
X130218000Y-69980000D01*
X130198315Y-70047039D01*
X130145511Y-70092794D01*
X130094000Y-70104000D01*
X128902000Y-70104000D01*
X128834961Y-70084315D01*
X128789206Y-70031511D01*
X128778000Y-69980000D01*
X128778000Y-69470000D01*
X130218000Y-69470000D01*
X131068000Y-69470000D01*
X131068000Y-68620000D01*
X131568000Y-68620000D01*
X131568000Y-69470000D01*
X132418000Y-69470000D01*
X132418000Y-69072172D01*
X132417999Y-69072155D01*
X132411598Y-69012627D01*
X132411596Y-69012620D01*
X132361354Y-68877913D01*
X132361350Y-68877906D01*
X132275190Y-68762812D01*
X132275187Y-68762809D01*
X132160093Y-68676649D01*
X132160086Y-68676645D01*
X132025379Y-68626403D01*
X132025372Y-68626401D01*
X131965844Y-68620000D01*
X131568000Y-68620000D01*
X131068000Y-68620000D01*
X130670155Y-68620000D01*
X130610627Y-68626401D01*
X130610620Y-68626403D01*
X130475913Y-68676645D01*
X130475906Y-68676649D01*
X130360812Y-68762809D01*
X130360809Y-68762812D01*
X130274649Y-68877906D01*
X130274645Y-68877913D01*
X130224403Y-69012620D01*
X130224401Y-69012627D01*
X130218000Y-69072155D01*
X130218000Y-69470000D01*
X128778000Y-69470000D01*
X128778000Y-68106500D01*
X132966001Y-68106500D01*
X132966001Y-68318986D01*
X132976494Y-68421697D01*
X133031641Y-68588119D01*
X133031643Y-68588124D01*
X133123684Y-68737345D01*
X133247654Y-68861315D01*
X133396875Y-68953356D01*
X133396880Y-68953358D01*
X133563302Y-69008505D01*
X133563309Y-69008506D01*
X133666019Y-69018999D01*
X134115999Y-69018999D01*
X134116000Y-69018998D01*
X134116000Y-68106500D01*
X132966001Y-68106500D01*
X128778000Y-68106500D01*
X128778000Y-66926000D01*
X128797685Y-66858961D01*
X128850489Y-66813206D01*
X128902000Y-66802000D01*
X133008620Y-66802000D01*
X133075659Y-66821685D01*
G37*
%TD.AperFunction*%
%TD*%
%TA.AperFunction,Conductor*%
%TO.N,DIQ1*%
G36*
X166882539Y-86379685D02*
G01*
X166928294Y-86432489D01*
X166939500Y-86484000D01*
X166939500Y-86776536D01*
X166939501Y-86776553D01*
X166950113Y-86880426D01*
X167005885Y-87048738D01*
X167011077Y-87057157D01*
X167014293Y-87062370D01*
X167032732Y-87129763D01*
X167011808Y-87196426D01*
X166958165Y-87241195D01*
X166888834Y-87249855D01*
X166830392Y-87223567D01*
X166763129Y-87168721D01*
X166582861Y-87074557D01*
X166387328Y-87018609D01*
X166387325Y-87018608D01*
X166268000Y-87008000D01*
X165960000Y-87008000D01*
X165960000Y-89534000D01*
X165940315Y-89601039D01*
X165887511Y-89646794D01*
X165836000Y-89658000D01*
X164210000Y-89658000D01*
X164210000Y-90300000D01*
X164190315Y-90367039D01*
X164137511Y-90412794D01*
X164086000Y-90424000D01*
X160893707Y-90424000D01*
X160826668Y-90404315D01*
X160780913Y-90351511D01*
X160770969Y-90282353D01*
X160782619Y-90244906D01*
X160861168Y-90086523D01*
X160907102Y-89901824D01*
X160910000Y-89859096D01*
X160910000Y-89658000D01*
X159284000Y-89658000D01*
X159216961Y-89638315D01*
X159171206Y-89585511D01*
X159160000Y-89534000D01*
X159160000Y-89282000D01*
X159179685Y-89214961D01*
X159232489Y-89169206D01*
X159284000Y-89158000D01*
X160910000Y-89158000D01*
X164210000Y-89158000D01*
X165460000Y-89158000D01*
X165460000Y-87008000D01*
X165151999Y-87008000D01*
X165032674Y-87018608D01*
X165032671Y-87018609D01*
X164837138Y-87074557D01*
X164656870Y-87168721D01*
X164499246Y-87297246D01*
X164370721Y-87454870D01*
X164276557Y-87635138D01*
X164220609Y-87830671D01*
X164220608Y-87830674D01*
X164210000Y-87949999D01*
X164210000Y-89158000D01*
X160910000Y-89158000D01*
X160910000Y-88956903D01*
X160907102Y-88914175D01*
X160861168Y-88729476D01*
X160776609Y-88558977D01*
X160776607Y-88558974D01*
X160657369Y-88410635D01*
X160594483Y-88360087D01*
X160554564Y-88302744D01*
X160551984Y-88232922D01*
X160587562Y-88172789D01*
X160594110Y-88167093D01*
X160663170Y-88111170D01*
X160780047Y-87966839D01*
X160864362Y-87801362D01*
X160912430Y-87621971D01*
X160918500Y-87544843D01*
X160918499Y-86671158D01*
X160912430Y-86594029D01*
X160891547Y-86516093D01*
X160893210Y-86446243D01*
X160932373Y-86388381D01*
X160996601Y-86360877D01*
X161011322Y-86360000D01*
X166815500Y-86360000D01*
X166882539Y-86379685D01*
G37*
%TD.AperFunction*%
%TA.AperFunction,Conductor*%
G36*
X178251039Y-86379685D02*
G01*
X178296794Y-86432489D01*
X178308000Y-86484000D01*
X178308000Y-87209131D01*
X178288315Y-87276170D01*
X178235511Y-87321925D01*
X178166353Y-87331869D01*
X178102797Y-87302844D01*
X178097017Y-87297462D01*
X177939129Y-87168721D01*
X177758861Y-87074557D01*
X177563328Y-87018609D01*
X177563325Y-87018608D01*
X177444000Y-87008000D01*
X177136000Y-87008000D01*
X177136000Y-89534000D01*
X177116315Y-89601039D01*
X177063511Y-89646794D01*
X177012000Y-89658000D01*
X175386000Y-89658000D01*
X175386000Y-90300000D01*
X175366315Y-90367039D01*
X175313511Y-90412794D01*
X175262000Y-90424000D01*
X172069707Y-90424000D01*
X172002668Y-90404315D01*
X171956913Y-90351511D01*
X171946969Y-90282353D01*
X171958619Y-90244906D01*
X172037168Y-90086523D01*
X172083102Y-89901824D01*
X172086000Y-89859096D01*
X172086000Y-89658000D01*
X170460000Y-89658000D01*
X170392961Y-89638315D01*
X170347206Y-89585511D01*
X170336000Y-89534000D01*
X170336000Y-89282000D01*
X170355685Y-89214961D01*
X170408489Y-89169206D01*
X170460000Y-89158000D01*
X172086000Y-89158000D01*
X175386000Y-89158000D01*
X176636000Y-89158000D01*
X176636000Y-87008000D01*
X176327999Y-87008000D01*
X176208674Y-87018608D01*
X176208671Y-87018609D01*
X176013138Y-87074557D01*
X175832870Y-87168721D01*
X175675246Y-87297246D01*
X175546721Y-87454870D01*
X175452557Y-87635138D01*
X175396609Y-87830671D01*
X175396608Y-87830674D01*
X175386000Y-87949999D01*
X175386000Y-89158000D01*
X172086000Y-89158000D01*
X172086000Y-88956903D01*
X172083102Y-88914175D01*
X172037168Y-88729476D01*
X171952609Y-88558977D01*
X171952607Y-88558974D01*
X171833369Y-88410635D01*
X171770483Y-88360087D01*
X171730564Y-88302744D01*
X171727984Y-88232922D01*
X171763562Y-88172789D01*
X171770110Y-88167093D01*
X171839170Y-88111170D01*
X171956047Y-87966839D01*
X172040362Y-87801362D01*
X172088430Y-87621971D01*
X172094500Y-87544843D01*
X172094499Y-86671158D01*
X172088430Y-86594029D01*
X172067547Y-86516093D01*
X172069210Y-86446243D01*
X172108373Y-86388381D01*
X172172601Y-86360877D01*
X172187322Y-86360000D01*
X178184000Y-86360000D01*
X178251039Y-86379685D01*
G37*
%TD.AperFunction*%
%TD*%
%TA.AperFunction,Conductor*%
%TO.N,Net-(U2-DC)*%
G36*
X140405039Y-59455685D02*
G01*
X140450794Y-59508489D01*
X140462000Y-59560000D01*
X140462000Y-62614000D01*
X140442315Y-62681039D01*
X140389511Y-62726794D01*
X140338000Y-62738000D01*
X132333999Y-62738000D01*
X131663232Y-63632356D01*
X131607261Y-63674177D01*
X131537565Y-63679098D01*
X131476272Y-63645558D01*
X131472976Y-63642127D01*
X131455295Y-63623000D01*
X129857000Y-63623000D01*
X129789961Y-63603315D01*
X129744206Y-63550511D01*
X129733000Y-63499000D01*
X129733000Y-62353000D01*
X130233000Y-62353000D01*
X130233000Y-63123000D01*
X131455295Y-63123000D01*
X131455295Y-63122998D01*
X131455100Y-63120513D01*
X131409281Y-62962801D01*
X131325685Y-62821447D01*
X131320900Y-62815278D01*
X131323252Y-62813453D01*
X131296445Y-62764405D01*
X131301402Y-62694712D01*
X131322465Y-62661936D01*
X131320900Y-62660722D01*
X131325685Y-62654552D01*
X131409281Y-62513198D01*
X131455100Y-62355486D01*
X131455295Y-62353001D01*
X131455295Y-62353000D01*
X130233000Y-62353000D01*
X129733000Y-62353000D01*
X128510705Y-62353000D01*
X128510704Y-62353001D01*
X128510899Y-62355486D01*
X128556718Y-62513198D01*
X128640314Y-62654552D01*
X128645100Y-62660722D01*
X128642753Y-62662542D01*
X128669564Y-62711642D01*
X128664580Y-62781334D01*
X128643541Y-62814069D01*
X128645100Y-62815278D01*
X128640314Y-62821447D01*
X128556717Y-62962803D01*
X128556716Y-62962804D01*
X128536034Y-63033994D01*
X128498428Y-63092879D01*
X128434955Y-63122085D01*
X128365768Y-63112339D01*
X128329277Y-63087079D01*
X127907433Y-62665235D01*
X127907418Y-62665220D01*
X127866520Y-62628483D01*
X127854134Y-62618502D01*
X127845876Y-62611847D01*
X127801299Y-62579703D01*
X127668354Y-62518987D01*
X127601311Y-62499300D01*
X127532470Y-62489402D01*
X127514721Y-62484000D01*
X127508000Y-62484000D01*
X127503761Y-62484000D01*
X127486115Y-62482738D01*
X127456639Y-62478500D01*
X127456638Y-62478500D01*
X126629561Y-62478500D01*
X126562522Y-62458815D01*
X126516767Y-62406011D01*
X126507893Y-62355811D01*
X126505295Y-62353000D01*
X124907000Y-62353000D01*
X124839961Y-62333315D01*
X124794206Y-62280511D01*
X124783000Y-62229000D01*
X124783000Y-61303000D01*
X125283000Y-61303000D01*
X125283000Y-61853000D01*
X126505295Y-61853000D01*
X126505295Y-61852998D01*
X128510704Y-61852998D01*
X128510705Y-61853000D01*
X129733000Y-61853000D01*
X129733000Y-61303000D01*
X130233000Y-61303000D01*
X130233000Y-61853000D01*
X131455295Y-61853000D01*
X131455295Y-61852998D01*
X131455100Y-61850513D01*
X131409281Y-61692801D01*
X131325685Y-61551447D01*
X131325678Y-61551438D01*
X131209561Y-61435321D01*
X131209552Y-61435314D01*
X131068196Y-61351717D01*
X131068193Y-61351716D01*
X130910495Y-61305900D01*
X130910489Y-61305899D01*
X130873649Y-61303000D01*
X130233000Y-61303000D01*
X129733000Y-61303000D01*
X129092350Y-61303000D01*
X129055510Y-61305899D01*
X129055504Y-61305900D01*
X128897806Y-61351716D01*
X128897803Y-61351717D01*
X128756447Y-61435314D01*
X128756438Y-61435321D01*
X128640321Y-61551438D01*
X128640314Y-61551447D01*
X128556718Y-61692801D01*
X128510899Y-61850513D01*
X128510704Y-61852998D01*
X126505295Y-61852998D01*
X126505100Y-61850513D01*
X126459281Y-61692801D01*
X126375685Y-61551447D01*
X126375678Y-61551438D01*
X126259561Y-61435321D01*
X126259552Y-61435314D01*
X126118196Y-61351717D01*
X126118193Y-61351716D01*
X125960495Y-61305900D01*
X125960489Y-61305899D01*
X125923649Y-61303000D01*
X125283000Y-61303000D01*
X124783000Y-61303000D01*
X124142350Y-61303000D01*
X124105510Y-61305899D01*
X124105504Y-61305900D01*
X123947806Y-61351716D01*
X123947799Y-61351719D01*
X123885120Y-61388787D01*
X123817396Y-61405970D01*
X123751134Y-61383810D01*
X123707371Y-61329343D01*
X123698000Y-61282055D01*
X123698000Y-61271000D01*
X135468001Y-61271000D01*
X135468001Y-61470986D01*
X135478494Y-61573697D01*
X135533641Y-61740119D01*
X135533643Y-61740124D01*
X135625684Y-61889345D01*
X135749654Y-62013315D01*
X135898875Y-62105356D01*
X135898880Y-62105358D01*
X136065302Y-62160505D01*
X136065309Y-62160506D01*
X136168019Y-62170999D01*
X137417999Y-62170999D01*
X137418000Y-62170998D01*
X137418000Y-61271000D01*
X137918000Y-61271000D01*
X137918000Y-62170999D01*
X139167972Y-62170999D01*
X139167986Y-62170998D01*
X139270697Y-62160505D01*
X139437119Y-62105358D01*
X139437124Y-62105356D01*
X139586345Y-62013315D01*
X139710315Y-61889345D01*
X139802356Y-61740124D01*
X139802358Y-61740119D01*
X139857505Y-61573697D01*
X139857506Y-61573690D01*
X139867999Y-61470986D01*
X139868000Y-61470973D01*
X139868000Y-61271000D01*
X137918000Y-61271000D01*
X137418000Y-61271000D01*
X135468001Y-61271000D01*
X123698000Y-61271000D01*
X123698000Y-60771000D01*
X135468000Y-60771000D01*
X137418000Y-60771000D01*
X137418000Y-59871000D01*
X137918000Y-59871000D01*
X137918000Y-60771000D01*
X139867999Y-60771000D01*
X139867999Y-60571028D01*
X139867998Y-60571013D01*
X139857505Y-60468302D01*
X139802358Y-60301880D01*
X139802356Y-60301875D01*
X139710315Y-60152654D01*
X139586345Y-60028684D01*
X139437124Y-59936643D01*
X139437119Y-59936641D01*
X139270697Y-59881494D01*
X139270690Y-59881493D01*
X139167986Y-59871000D01*
X137918000Y-59871000D01*
X137418000Y-59871000D01*
X136168028Y-59871000D01*
X136168012Y-59871001D01*
X136065302Y-59881494D01*
X135898880Y-59936641D01*
X135898875Y-59936643D01*
X135749654Y-60028684D01*
X135625684Y-60152654D01*
X135533643Y-60301875D01*
X135533641Y-60301880D01*
X135478494Y-60468302D01*
X135478493Y-60468309D01*
X135468000Y-60571013D01*
X135468000Y-60771000D01*
X123698000Y-60771000D01*
X123698000Y-59560000D01*
X123717685Y-59492961D01*
X123770489Y-59447206D01*
X123822000Y-59436000D01*
X140338000Y-59436000D01*
X140405039Y-59455685D01*
G37*
%TD.AperFunction*%
%TD*%
%TA.AperFunction,Conductor*%
%TO.N,GND*%
G36*
X138157077Y-72663685D02*
G01*
X138202832Y-72716489D01*
X138212776Y-72785647D01*
X138183751Y-72849203D01*
X138129042Y-72885706D01*
X138068880Y-72905641D01*
X138068875Y-72905643D01*
X137919654Y-72997684D01*
X137795684Y-73121654D01*
X137703643Y-73270875D01*
X137703641Y-73270880D01*
X137648494Y-73437302D01*
X137648493Y-73437309D01*
X137638000Y-73540013D01*
X137638000Y-74840000D01*
X140237999Y-74840000D01*
X140237999Y-73540028D01*
X140237998Y-73540013D01*
X140227505Y-73437302D01*
X140172358Y-73270880D01*
X140172356Y-73270875D01*
X140080315Y-73121654D01*
X139956345Y-72997684D01*
X139807124Y-72905643D01*
X139807119Y-72905641D01*
X139746958Y-72885706D01*
X139689513Y-72845933D01*
X139662690Y-72781417D01*
X139675005Y-72712642D01*
X139722548Y-72661442D01*
X139785962Y-72644000D01*
X144148000Y-72644000D01*
X144215039Y-72663685D01*
X144260794Y-72716489D01*
X144272000Y-72768000D01*
X144272000Y-81322673D01*
X144252315Y-81389712D01*
X144199511Y-81435467D01*
X144130353Y-81445411D01*
X144066797Y-81416386D01*
X144042462Y-81387770D01*
X144010319Y-81335659D01*
X144010316Y-81335655D01*
X143886345Y-81211684D01*
X143737124Y-81119643D01*
X143737119Y-81119641D01*
X143570697Y-81064494D01*
X143570690Y-81064493D01*
X143467986Y-81054000D01*
X141918000Y-81054000D01*
X141918000Y-84553999D01*
X143467972Y-84553999D01*
X143467986Y-84553998D01*
X143570697Y-84543505D01*
X143737119Y-84488358D01*
X143737124Y-84488356D01*
X143886345Y-84396315D01*
X144010317Y-84272343D01*
X144042461Y-84220230D01*
X144094409Y-84173505D01*
X144163371Y-84162282D01*
X144227454Y-84190126D01*
X144266310Y-84248194D01*
X144272000Y-84285326D01*
X144272000Y-85982000D01*
X144252315Y-86049039D01*
X144199511Y-86094794D01*
X144148000Y-86106000D01*
X136776000Y-86106000D01*
X136708961Y-86086315D01*
X136663206Y-86033511D01*
X136652000Y-85982000D01*
X136652000Y-83054000D01*
X139168001Y-83054000D01*
X139168001Y-83853986D01*
X139178494Y-83956697D01*
X139233641Y-84123119D01*
X139233643Y-84123124D01*
X139325684Y-84272345D01*
X139449654Y-84396315D01*
X139598875Y-84488356D01*
X139598880Y-84488358D01*
X139765302Y-84543505D01*
X139765309Y-84543506D01*
X139868019Y-84553999D01*
X141417999Y-84553999D01*
X141418000Y-84553998D01*
X141418000Y-83054000D01*
X139168001Y-83054000D01*
X136652000Y-83054000D01*
X136652000Y-82554000D01*
X139168000Y-82554000D01*
X141418000Y-82554000D01*
X141418000Y-81054000D01*
X139868028Y-81054000D01*
X139868012Y-81054001D01*
X139765302Y-81064494D01*
X139598880Y-81119641D01*
X139598875Y-81119643D01*
X139449654Y-81211684D01*
X139325684Y-81335654D01*
X139233643Y-81484875D01*
X139233641Y-81484880D01*
X139178494Y-81651302D01*
X139178493Y-81651309D01*
X139168000Y-81754013D01*
X139168000Y-82554000D01*
X136652000Y-82554000D01*
X136652000Y-75340000D01*
X137638001Y-75340000D01*
X137638001Y-76639986D01*
X137648494Y-76742697D01*
X137703641Y-76909119D01*
X137703643Y-76909124D01*
X137795684Y-77058345D01*
X137919654Y-77182315D01*
X138068875Y-77274356D01*
X138068880Y-77274358D01*
X138235302Y-77329505D01*
X138235309Y-77329506D01*
X138338019Y-77339999D01*
X138687999Y-77339999D01*
X138688000Y-77339998D01*
X138688000Y-75340000D01*
X139188000Y-75340000D01*
X139188000Y-77339999D01*
X139537972Y-77339999D01*
X139537986Y-77339998D01*
X139640697Y-77329505D01*
X139807119Y-77274358D01*
X139807124Y-77274356D01*
X139956345Y-77182315D01*
X140080315Y-77058345D01*
X140172356Y-76909124D01*
X140172358Y-76909119D01*
X140227505Y-76742697D01*
X140227506Y-76742690D01*
X140237999Y-76639986D01*
X140238000Y-76639973D01*
X140238000Y-75340000D01*
X139188000Y-75340000D01*
X138688000Y-75340000D01*
X137638001Y-75340000D01*
X136652000Y-75340000D01*
X136652000Y-72768000D01*
X136671685Y-72700961D01*
X136724489Y-72655206D01*
X136776000Y-72644000D01*
X138090038Y-72644000D01*
X138157077Y-72663685D01*
G37*
%TD.AperFunction*%
%TD*%
%TA.AperFunction,Conductor*%
%TO.N,GND*%
G36*
X175203039Y-113811685D02*
G01*
X175248794Y-113864489D01*
X175260000Y-113916000D01*
X175260000Y-115700000D01*
X175240315Y-115767039D01*
X175187511Y-115812794D01*
X175136000Y-115824000D01*
X171863797Y-115824000D01*
X171796758Y-115804315D01*
X171751003Y-115751511D01*
X171741059Y-115682353D01*
X171770084Y-115618797D01*
X171786110Y-115603352D01*
X171833369Y-115565364D01*
X171952607Y-115417025D01*
X171952609Y-115417022D01*
X172037168Y-115246523D01*
X172083102Y-115061824D01*
X172086000Y-115019096D01*
X172086000Y-114818000D01*
X169391000Y-114818000D01*
X169391000Y-114830500D01*
X169371315Y-114897539D01*
X169318511Y-114943294D01*
X169267000Y-114954500D01*
X168022000Y-114954500D01*
X167954961Y-114934815D01*
X167909206Y-114882011D01*
X167898000Y-114830500D01*
X167898000Y-114578500D01*
X167917685Y-114511461D01*
X167970489Y-114465706D01*
X168022000Y-114454500D01*
X169043000Y-114454500D01*
X169043000Y-114442000D01*
X169062685Y-114374961D01*
X169115489Y-114329206D01*
X169167000Y-114318000D01*
X172086000Y-114318000D01*
X172086000Y-114116903D01*
X172083102Y-114074173D01*
X172051208Y-113945926D01*
X172054132Y-113876118D01*
X172094332Y-113818972D01*
X172159047Y-113792631D01*
X172171543Y-113792000D01*
X175136000Y-113792000D01*
X175203039Y-113811685D01*
G37*
%TD.AperFunction*%
%TD*%
%TA.AperFunction,Conductor*%
%TO.N,+24V*%
G36*
X164027039Y-121431685D02*
G01*
X164072794Y-121484489D01*
X164084000Y-121536000D01*
X164084000Y-122938500D01*
X164064315Y-123005539D01*
X164011511Y-123051294D01*
X163960000Y-123062500D01*
X160963884Y-123062500D01*
X160896845Y-123042815D01*
X160851090Y-122990011D01*
X160841146Y-122920853D01*
X160852795Y-122883407D01*
X160861169Y-122866521D01*
X160907102Y-122681824D01*
X160910000Y-122639096D01*
X160910000Y-122438000D01*
X158215000Y-122438000D01*
X158215000Y-122488000D01*
X158195315Y-122555039D01*
X158142511Y-122600794D01*
X158091000Y-122612000D01*
X156846000Y-122612000D01*
X156778961Y-122592315D01*
X156733206Y-122539511D01*
X156722000Y-122488000D01*
X156722000Y-122236000D01*
X156741685Y-122168961D01*
X156794489Y-122123206D01*
X156846000Y-122112000D01*
X157867000Y-122112000D01*
X157867000Y-122062000D01*
X157886685Y-121994961D01*
X157939489Y-121949206D01*
X157991000Y-121938000D01*
X160910000Y-121938000D01*
X160910000Y-121736903D01*
X160907102Y-121694173D01*
X160875208Y-121565926D01*
X160878132Y-121496118D01*
X160918332Y-121438972D01*
X160983047Y-121412631D01*
X160995543Y-121412000D01*
X163960000Y-121412000D01*
X164027039Y-121431685D01*
G37*
%TD.AperFunction*%
%TD*%
%TA.AperFunction,Conductor*%
%TO.N,Net-(D1-K)*%
G36*
X122020636Y-63011006D02*
G01*
X122120467Y-63073734D01*
X122120470Y-63073736D01*
X122261257Y-63123000D01*
X122282654Y-63130487D01*
X122282658Y-63130487D01*
X122282661Y-63130488D01*
X122453396Y-63149725D01*
X122453400Y-63149725D01*
X122453404Y-63149725D01*
X122624138Y-63130488D01*
X122624139Y-63130487D01*
X122624146Y-63130487D01*
X122786330Y-63073736D01*
X122886164Y-63011005D01*
X122952136Y-62992000D01*
X123436872Y-62992000D01*
X123503911Y-63011685D01*
X123549666Y-63064489D01*
X123559843Y-63122067D01*
X123560705Y-63123000D01*
X126505295Y-63123000D01*
X126506314Y-63121896D01*
X126519875Y-63057350D01*
X126568927Y-63007594D01*
X126629128Y-62992000D01*
X127456638Y-62992000D01*
X127523677Y-63011685D01*
X127544319Y-63028319D01*
X128233681Y-63717681D01*
X128267166Y-63779004D01*
X128270000Y-63805362D01*
X128270000Y-66878877D01*
X128268738Y-66896523D01*
X128264500Y-66925999D01*
X128264500Y-69980008D01*
X128269289Y-70024542D01*
X128270000Y-70037798D01*
X128270000Y-70358000D01*
X128336024Y-70358000D01*
X128403063Y-70377685D01*
X128429738Y-70400798D01*
X128446884Y-70420586D01*
X128557335Y-70516294D01*
X128557341Y-70516298D01*
X128601655Y-70536536D01*
X128690287Y-70577014D01*
X128757326Y-70596699D01*
X128757330Y-70596700D01*
X128902000Y-70617500D01*
X128902003Y-70617500D01*
X130093990Y-70617500D01*
X130094000Y-70617500D01*
X130203157Y-70605764D01*
X130205739Y-70605202D01*
X130206353Y-70605246D01*
X130206446Y-70605231D01*
X130206449Y-70605252D01*
X130275428Y-70610178D01*
X130331367Y-70652042D01*
X130331376Y-70652053D01*
X130354735Y-70683257D01*
X130354737Y-70683258D01*
X130354739Y-70683261D01*
X130471796Y-70770889D01*
X130608799Y-70821989D01*
X130636050Y-70824918D01*
X130669345Y-70828499D01*
X130669362Y-70828500D01*
X131702000Y-70828500D01*
X131769039Y-70848185D01*
X131814794Y-70900989D01*
X131826000Y-70952500D01*
X131826000Y-71296000D01*
X131806315Y-71363039D01*
X131753511Y-71408794D01*
X131702000Y-71420000D01*
X131568000Y-71420000D01*
X131568000Y-73620000D01*
X131702000Y-73620000D01*
X131769039Y-73639685D01*
X131814794Y-73692489D01*
X131826000Y-73744000D01*
X131826000Y-73790000D01*
X131806315Y-73857039D01*
X131753511Y-73902794D01*
X131702000Y-73914000D01*
X119728910Y-73914000D01*
X119661871Y-73894315D01*
X119641229Y-73877681D01*
X119416319Y-73652771D01*
X119382834Y-73591448D01*
X119380000Y-73565090D01*
X119380000Y-72770000D01*
X130218000Y-72770000D01*
X130218000Y-73167844D01*
X130224401Y-73227372D01*
X130224403Y-73227379D01*
X130274645Y-73362086D01*
X130274649Y-73362093D01*
X130360809Y-73477187D01*
X130360812Y-73477190D01*
X130475906Y-73563350D01*
X130475913Y-73563354D01*
X130610620Y-73613596D01*
X130610627Y-73613598D01*
X130670155Y-73619999D01*
X130670172Y-73620000D01*
X131068000Y-73620000D01*
X131068000Y-72770000D01*
X130218000Y-72770000D01*
X119380000Y-72770000D01*
X119380000Y-72270000D01*
X130218000Y-72270000D01*
X131068000Y-72270000D01*
X131068000Y-71420000D01*
X130670155Y-71420000D01*
X130610627Y-71426401D01*
X130610620Y-71426403D01*
X130475913Y-71476645D01*
X130475906Y-71476649D01*
X130360812Y-71562809D01*
X130360809Y-71562812D01*
X130274649Y-71677906D01*
X130274645Y-71677913D01*
X130224403Y-71812620D01*
X130224401Y-71812627D01*
X130218000Y-71872155D01*
X130218000Y-72270000D01*
X119380000Y-72270000D01*
X119380000Y-69468000D01*
X120244000Y-69468000D01*
X120244000Y-70715844D01*
X120250401Y-70775372D01*
X120250403Y-70775379D01*
X120300645Y-70910086D01*
X120300649Y-70910093D01*
X120386809Y-71025187D01*
X120386812Y-71025190D01*
X120501906Y-71111350D01*
X120501913Y-71111354D01*
X120636620Y-71161596D01*
X120636627Y-71161598D01*
X120696155Y-71167999D01*
X120696172Y-71168000D01*
X123194000Y-71168000D01*
X123194000Y-69468000D01*
X123694000Y-69468000D01*
X123694000Y-71168000D01*
X126191828Y-71168000D01*
X126191844Y-71167999D01*
X126251372Y-71161598D01*
X126251379Y-71161596D01*
X126386086Y-71111354D01*
X126386093Y-71111350D01*
X126501187Y-71025190D01*
X126501190Y-71025187D01*
X126587350Y-70910093D01*
X126587354Y-70910086D01*
X126637596Y-70775379D01*
X126637598Y-70775372D01*
X126643999Y-70715844D01*
X126644000Y-70715827D01*
X126644000Y-69468000D01*
X123694000Y-69468000D01*
X123194000Y-69468000D01*
X120244000Y-69468000D01*
X119380000Y-69468000D01*
X119380000Y-68968000D01*
X120244000Y-68968000D01*
X123194000Y-68968000D01*
X123194000Y-67268000D01*
X123694000Y-67268000D01*
X123694000Y-68968000D01*
X126644000Y-68968000D01*
X126644000Y-67720172D01*
X126643999Y-67720155D01*
X126637598Y-67660627D01*
X126637596Y-67660620D01*
X126587354Y-67525913D01*
X126587350Y-67525906D01*
X126501190Y-67410812D01*
X126501187Y-67410809D01*
X126386093Y-67324649D01*
X126386086Y-67324645D01*
X126251379Y-67274403D01*
X126251372Y-67274401D01*
X126191844Y-67268000D01*
X123694000Y-67268000D01*
X123194000Y-67268000D01*
X120696155Y-67268000D01*
X120636627Y-67274401D01*
X120636620Y-67274403D01*
X120501913Y-67324645D01*
X120501906Y-67324649D01*
X120386812Y-67410809D01*
X120386809Y-67410812D01*
X120300649Y-67525906D01*
X120300645Y-67525913D01*
X120250403Y-67660620D01*
X120250401Y-67660627D01*
X120244000Y-67720155D01*
X120244000Y-68968000D01*
X119380000Y-68968000D01*
X119380000Y-67075557D01*
X119399685Y-67008518D01*
X119452489Y-66962763D01*
X119521647Y-66952819D01*
X119542991Y-66957847D01*
X119621574Y-66983887D01*
X119725455Y-66994500D01*
X120526544Y-66994499D01*
X120630426Y-66983887D01*
X120798738Y-66928115D01*
X120949652Y-66835030D01*
X121075030Y-66709652D01*
X121168115Y-66558738D01*
X121223887Y-66390426D01*
X121234500Y-66286545D01*
X121234500Y-65913003D01*
X122930675Y-65913003D01*
X122949911Y-66083738D01*
X122949913Y-66083748D01*
X123006663Y-66245929D01*
X123006665Y-66245932D01*
X123046482Y-66309300D01*
X123098081Y-66391419D01*
X123219581Y-66512919D01*
X123365070Y-66604336D01*
X123527254Y-66661087D01*
X123527258Y-66661087D01*
X123527261Y-66661088D01*
X123697996Y-66680325D01*
X123698000Y-66680325D01*
X123698004Y-66680325D01*
X123875667Y-66660308D01*
X123876071Y-66663902D01*
X123929296Y-66666066D01*
X123938803Y-66669724D01*
X123944394Y-66672143D01*
X123944397Y-66672143D01*
X123944399Y-66672145D01*
X124104169Y-66718562D01*
X124141498Y-66721500D01*
X124141504Y-66721500D01*
X125924496Y-66721500D01*
X125924502Y-66721500D01*
X125961831Y-66718562D01*
X125961833Y-66718561D01*
X125961835Y-66718561D01*
X126003962Y-66706321D01*
X126121601Y-66672145D01*
X126264807Y-66587453D01*
X126382453Y-66469807D01*
X126467145Y-66326601D01*
X126513562Y-66166831D01*
X126516500Y-66129502D01*
X126516500Y-65696498D01*
X126513562Y-65659169D01*
X126467145Y-65499399D01*
X126428811Y-65434580D01*
X126382456Y-65356197D01*
X126380755Y-65354005D01*
X126379956Y-65351970D01*
X126378482Y-65349478D01*
X126378883Y-65349240D01*
X126355217Y-65288970D01*
X126368894Y-65220452D01*
X126380755Y-65201995D01*
X126382449Y-65199810D01*
X126382453Y-65199807D01*
X126467145Y-65056601D01*
X126513562Y-64896831D01*
X126516500Y-64859502D01*
X126516500Y-64426498D01*
X126513562Y-64389169D01*
X126504630Y-64358426D01*
X126479385Y-64271530D01*
X126467145Y-64229399D01*
X126382453Y-64086193D01*
X126382451Y-64086191D01*
X126377670Y-64080027D01*
X126379583Y-64078542D01*
X126351848Y-64027749D01*
X126356832Y-63958057D01*
X126371748Y-63931292D01*
X126371712Y-63931271D01*
X126372545Y-63929862D01*
X126375042Y-63925382D01*
X126375684Y-63924553D01*
X126459281Y-63783198D01*
X126505100Y-63625486D01*
X126505295Y-63623001D01*
X126505295Y-63623000D01*
X123560704Y-63623000D01*
X123561397Y-63631808D01*
X123558779Y-63632013D01*
X123552653Y-63690008D01*
X123508913Y-63744493D01*
X123478959Y-63759809D01*
X123365071Y-63799660D01*
X123365067Y-63799662D01*
X123219580Y-63891078D01*
X123098081Y-64012577D01*
X123006665Y-64158064D01*
X123006663Y-64158067D01*
X122949913Y-64320248D01*
X122949911Y-64320258D01*
X122930675Y-64490993D01*
X122930675Y-64491000D01*
X122949911Y-64661735D01*
X122949913Y-64661745D01*
X123006663Y-64823926D01*
X123006665Y-64823929D01*
X123052471Y-64896829D01*
X123098081Y-64969416D01*
X123219581Y-65090916D01*
X123229269Y-65097003D01*
X123275561Y-65149337D01*
X123286211Y-65218390D01*
X123257837Y-65282239D01*
X123229274Y-65306990D01*
X123219582Y-65313079D01*
X123098081Y-65434580D01*
X123006665Y-65580067D01*
X123006663Y-65580070D01*
X122949913Y-65742251D01*
X122949911Y-65742261D01*
X122930675Y-65912996D01*
X122930675Y-65913003D01*
X121234500Y-65913003D01*
X121234499Y-65285456D01*
X121223887Y-65181574D01*
X121168115Y-65013262D01*
X121075030Y-64862348D01*
X121070363Y-64857681D01*
X121036878Y-64796358D01*
X121041862Y-64726666D01*
X121070363Y-64682319D01*
X121075030Y-64677652D01*
X121168115Y-64526738D01*
X121223887Y-64358426D01*
X121234500Y-64254545D01*
X121234499Y-63253456D01*
X121223887Y-63149574D01*
X121223886Y-63149572D01*
X121223886Y-63149568D01*
X121222470Y-63142951D01*
X121225244Y-63142357D01*
X121223296Y-63085135D01*
X121259048Y-63025105D01*
X121321579Y-62993934D01*
X121343393Y-62992000D01*
X121954664Y-62992000D01*
X122020636Y-63011006D01*
G37*
%TD.AperFunction*%
%TD*%
%TA.AperFunction,Conductor*%
%TO.N,GND*%
G36*
X175203039Y-106191685D02*
G01*
X175248794Y-106244489D01*
X175260000Y-106296000D01*
X175260000Y-108080000D01*
X175240315Y-108147039D01*
X175187511Y-108192794D01*
X175136000Y-108204000D01*
X171863797Y-108204000D01*
X171796758Y-108184315D01*
X171751003Y-108131511D01*
X171741059Y-108062353D01*
X171770084Y-107998797D01*
X171786110Y-107983352D01*
X171833369Y-107945364D01*
X171952607Y-107797025D01*
X171952609Y-107797022D01*
X172037168Y-107626523D01*
X172083102Y-107441824D01*
X172086000Y-107399096D01*
X172086000Y-107198000D01*
X169391000Y-107198000D01*
X169391000Y-107210500D01*
X169371315Y-107277539D01*
X169318511Y-107323294D01*
X169267000Y-107334500D01*
X168022000Y-107334500D01*
X167954961Y-107314815D01*
X167909206Y-107262011D01*
X167898000Y-107210500D01*
X167898000Y-106958500D01*
X167917685Y-106891461D01*
X167970489Y-106845706D01*
X168022000Y-106834500D01*
X169043000Y-106834500D01*
X169043000Y-106822000D01*
X169062685Y-106754961D01*
X169115489Y-106709206D01*
X169167000Y-106698000D01*
X172086000Y-106698000D01*
X172086000Y-106496903D01*
X172083102Y-106454173D01*
X172051208Y-106325926D01*
X172054132Y-106256118D01*
X172094332Y-106198972D01*
X172159047Y-106172631D01*
X172171543Y-106172000D01*
X175136000Y-106172000D01*
X175203039Y-106191685D01*
G37*
%TD.AperFunction*%
%TD*%
%TA.AperFunction,Conductor*%
%TO.N,+24V*%
G36*
X164027039Y-129051685D02*
G01*
X164072794Y-129104489D01*
X164084000Y-129156000D01*
X164084000Y-130634700D01*
X164064315Y-130701739D01*
X164011511Y-130747494D01*
X163960000Y-130758700D01*
X160926092Y-130758700D01*
X160859053Y-130739015D01*
X160813298Y-130686211D01*
X160803354Y-130617053D01*
X160815004Y-130579605D01*
X160861169Y-130486521D01*
X160907102Y-130301824D01*
X160910000Y-130259096D01*
X160910000Y-130058000D01*
X158215000Y-130058000D01*
X158215000Y-130070500D01*
X158195315Y-130137539D01*
X158142511Y-130183294D01*
X158091000Y-130194500D01*
X156846000Y-130194500D01*
X156778961Y-130174815D01*
X156733206Y-130122011D01*
X156722000Y-130070500D01*
X156722000Y-129818500D01*
X156741685Y-129751461D01*
X156794489Y-129705706D01*
X156846000Y-129694500D01*
X157867000Y-129694500D01*
X157867000Y-129682000D01*
X157886685Y-129614961D01*
X157939489Y-129569206D01*
X157991000Y-129558000D01*
X160910000Y-129558000D01*
X160910000Y-129356903D01*
X160907102Y-129314173D01*
X160875208Y-129185926D01*
X160878132Y-129116118D01*
X160918332Y-129058972D01*
X160983047Y-129032631D01*
X160995543Y-129032000D01*
X163960000Y-129032000D01*
X164027039Y-129051685D01*
G37*
%TD.AperFunction*%
%TD*%
%TA.AperFunction,Conductor*%
%TO.N,DIQ6*%
G36*
X178251039Y-124479685D02*
G01*
X178296794Y-124532489D01*
X178308000Y-124584000D01*
X178308000Y-125277812D01*
X178288315Y-125344851D01*
X178235511Y-125390606D01*
X178166353Y-125400550D01*
X178105639Y-125373914D01*
X177976629Y-125268721D01*
X177796361Y-125174557D01*
X177600828Y-125118609D01*
X177600825Y-125118608D01*
X177481500Y-125108000D01*
X177173500Y-125108000D01*
X177173500Y-127634000D01*
X177153815Y-127701039D01*
X177101011Y-127746794D01*
X177049500Y-127758000D01*
X175423500Y-127758000D01*
X175423500Y-128519114D01*
X175403815Y-128586153D01*
X175351011Y-128631908D01*
X175281853Y-128641852D01*
X175232461Y-128623430D01*
X175226662Y-128619703D01*
X175093716Y-128558987D01*
X175087017Y-128557020D01*
X175026674Y-128539301D01*
X175026676Y-128539301D01*
X175026671Y-128539300D01*
X174978446Y-128532366D01*
X174882000Y-128518500D01*
X172209043Y-128518500D01*
X172183146Y-128519153D01*
X172183129Y-128519153D01*
X172183123Y-128519154D01*
X172170655Y-128519783D01*
X172144796Y-128521744D01*
X172144791Y-128521745D01*
X172135249Y-128524118D01*
X172065441Y-128521191D01*
X172008297Y-128480987D01*
X171981961Y-128416271D01*
X171994242Y-128348687D01*
X172074669Y-128186521D01*
X172120602Y-128001824D01*
X172123500Y-127959096D01*
X172123500Y-127758000D01*
X170497500Y-127758000D01*
X170430461Y-127738315D01*
X170384706Y-127685511D01*
X170373500Y-127634000D01*
X170373500Y-127382000D01*
X170393185Y-127314961D01*
X170445989Y-127269206D01*
X170497500Y-127258000D01*
X172123500Y-127258000D01*
X175423500Y-127258000D01*
X176673500Y-127258000D01*
X176673500Y-125108000D01*
X176365499Y-125108000D01*
X176246174Y-125118608D01*
X176246171Y-125118609D01*
X176050638Y-125174557D01*
X175870370Y-125268721D01*
X175712746Y-125397246D01*
X175584221Y-125554870D01*
X175490057Y-125735138D01*
X175434109Y-125930671D01*
X175434108Y-125930674D01*
X175423500Y-126049999D01*
X175423500Y-127258000D01*
X172123500Y-127258000D01*
X172123500Y-127056903D01*
X172120602Y-127014175D01*
X172074668Y-126829476D01*
X171990109Y-126658977D01*
X171990107Y-126658974D01*
X171870869Y-126510635D01*
X171807983Y-126460087D01*
X171768064Y-126402744D01*
X171765484Y-126332922D01*
X171801062Y-126272789D01*
X171807610Y-126267093D01*
X171876670Y-126211170D01*
X171993547Y-126066839D01*
X172077862Y-125901362D01*
X172125930Y-125721971D01*
X172132000Y-125644843D01*
X172131999Y-124771158D01*
X172125930Y-124694029D01*
X172105047Y-124616093D01*
X172106710Y-124546243D01*
X172145873Y-124488381D01*
X172210101Y-124460877D01*
X172224822Y-124460000D01*
X178184000Y-124460000D01*
X178251039Y-124479685D01*
G37*
%TD.AperFunction*%
%TA.AperFunction,Conductor*%
G36*
X166882539Y-124479685D02*
G01*
X166928294Y-124532489D01*
X166939500Y-124584000D01*
X166939500Y-124839036D01*
X166939501Y-124839053D01*
X166950113Y-124942927D01*
X167005884Y-125111235D01*
X167005886Y-125111240D01*
X167060827Y-125200312D01*
X167079267Y-125267704D01*
X167058345Y-125334368D01*
X167004703Y-125379138D01*
X166935372Y-125387799D01*
X166876927Y-125361511D01*
X166763129Y-125268721D01*
X166582861Y-125174557D01*
X166387328Y-125118609D01*
X166387325Y-125118608D01*
X166268000Y-125108000D01*
X165960000Y-125108000D01*
X165960000Y-127634000D01*
X165940315Y-127701039D01*
X165887511Y-127746794D01*
X165836000Y-127758000D01*
X164210000Y-127758000D01*
X164210000Y-128411340D01*
X164190315Y-128478379D01*
X164137511Y-128524134D01*
X164068354Y-128534078D01*
X163960001Y-128518500D01*
X163960000Y-128518500D01*
X160995543Y-128518500D01*
X160969646Y-128519153D01*
X160969629Y-128519153D01*
X160969623Y-128519154D01*
X160957155Y-128519783D01*
X160931296Y-128521744D01*
X160931291Y-128521745D01*
X160921749Y-128524118D01*
X160851941Y-128521191D01*
X160794797Y-128480987D01*
X160768461Y-128416271D01*
X160780742Y-128348687D01*
X160861169Y-128186521D01*
X160907102Y-128001824D01*
X160910000Y-127959096D01*
X160910000Y-127758000D01*
X159284000Y-127758000D01*
X159216961Y-127738315D01*
X159171206Y-127685511D01*
X159160000Y-127634000D01*
X159160000Y-127382000D01*
X159179685Y-127314961D01*
X159232489Y-127269206D01*
X159284000Y-127258000D01*
X160910000Y-127258000D01*
X164210000Y-127258000D01*
X165460000Y-127258000D01*
X165460000Y-125108000D01*
X165151999Y-125108000D01*
X165032674Y-125118608D01*
X165032671Y-125118609D01*
X164837138Y-125174557D01*
X164656870Y-125268721D01*
X164499246Y-125397246D01*
X164370721Y-125554870D01*
X164276557Y-125735138D01*
X164220609Y-125930671D01*
X164220608Y-125930674D01*
X164210000Y-126049999D01*
X164210000Y-127258000D01*
X160910000Y-127258000D01*
X160910000Y-127056903D01*
X160907102Y-127014175D01*
X160861168Y-126829476D01*
X160776609Y-126658977D01*
X160776607Y-126658974D01*
X160657369Y-126510635D01*
X160594483Y-126460087D01*
X160554564Y-126402744D01*
X160551984Y-126332922D01*
X160587562Y-126272789D01*
X160594110Y-126267093D01*
X160663170Y-126211170D01*
X160780047Y-126066839D01*
X160864362Y-125901362D01*
X160912430Y-125721971D01*
X160918500Y-125644843D01*
X160918499Y-124771158D01*
X160912430Y-124694029D01*
X160891547Y-124616093D01*
X160893210Y-124546243D01*
X160932373Y-124488381D01*
X160996601Y-124460877D01*
X161011322Y-124460000D01*
X166815500Y-124460000D01*
X166882539Y-124479685D01*
G37*
%TD.AperFunction*%
%TD*%
%TA.AperFunction,Conductor*%
%TO.N,GND*%
G36*
X175203039Y-136671685D02*
G01*
X175248794Y-136724489D01*
X175260000Y-136776000D01*
X175260000Y-138560000D01*
X175240315Y-138627039D01*
X175187511Y-138672794D01*
X175136000Y-138684000D01*
X171863797Y-138684000D01*
X171796758Y-138664315D01*
X171751003Y-138611511D01*
X171741059Y-138542353D01*
X171770084Y-138478797D01*
X171786110Y-138463352D01*
X171833369Y-138425364D01*
X171952607Y-138277025D01*
X171952609Y-138277022D01*
X172037168Y-138106523D01*
X172083102Y-137921824D01*
X172086000Y-137879096D01*
X172086000Y-137678000D01*
X169391000Y-137678000D01*
X169391000Y-137690500D01*
X169371315Y-137757539D01*
X169318511Y-137803294D01*
X169267000Y-137814500D01*
X168022000Y-137814500D01*
X167954961Y-137794815D01*
X167909206Y-137742011D01*
X167898000Y-137690500D01*
X167898000Y-137438500D01*
X167917685Y-137371461D01*
X167970489Y-137325706D01*
X168022000Y-137314500D01*
X169043000Y-137314500D01*
X169043000Y-137302000D01*
X169062685Y-137234961D01*
X169115489Y-137189206D01*
X169167000Y-137178000D01*
X172086000Y-137178000D01*
X172086000Y-136976903D01*
X172083102Y-136934173D01*
X172051208Y-136805926D01*
X172054132Y-136736118D01*
X172094332Y-136678972D01*
X172159047Y-136652631D01*
X172171543Y-136652000D01*
X175136000Y-136652000D01*
X175203039Y-136671685D01*
G37*
%TD.AperFunction*%
%TD*%
%TA.AperFunction,Conductor*%
%TO.N,+24V*%
G36*
X164027039Y-83331685D02*
G01*
X164072794Y-83384489D01*
X164084000Y-83436000D01*
X164084000Y-84937505D01*
X164064315Y-85004544D01*
X164011511Y-85050299D01*
X163960000Y-85061505D01*
X160914782Y-85061505D01*
X160847743Y-85041820D01*
X160801988Y-84989016D01*
X160792044Y-84919858D01*
X160803694Y-84882411D01*
X160861168Y-84766523D01*
X160907102Y-84581824D01*
X160910000Y-84539096D01*
X160910000Y-84338000D01*
X158252500Y-84338000D01*
X158252500Y-84350500D01*
X158232815Y-84417539D01*
X158180011Y-84463294D01*
X158128500Y-84474500D01*
X156883500Y-84474500D01*
X156816461Y-84454815D01*
X156770706Y-84402011D01*
X156759500Y-84350500D01*
X156759500Y-84098500D01*
X156779185Y-84031461D01*
X156831989Y-83985706D01*
X156883500Y-83974500D01*
X157867000Y-83974500D01*
X157867000Y-83962000D01*
X157886685Y-83894961D01*
X157939489Y-83849206D01*
X157991000Y-83838000D01*
X160910000Y-83838000D01*
X160910000Y-83636903D01*
X160907102Y-83594173D01*
X160875208Y-83465926D01*
X160878132Y-83396118D01*
X160918332Y-83338972D01*
X160983047Y-83312631D01*
X160995543Y-83312000D01*
X163960000Y-83312000D01*
X164027039Y-83331685D01*
G37*
%TD.AperFunction*%
%TD*%
%TA.AperFunction,Conductor*%
%TO.N,GND*%
G36*
X175203039Y-98571685D02*
G01*
X175248794Y-98624489D01*
X175260000Y-98676000D01*
X175260000Y-100460000D01*
X175240315Y-100527039D01*
X175187511Y-100572794D01*
X175136000Y-100584000D01*
X171863797Y-100584000D01*
X171796758Y-100564315D01*
X171751003Y-100511511D01*
X171741059Y-100442353D01*
X171770084Y-100378797D01*
X171786110Y-100363352D01*
X171833369Y-100325364D01*
X171952607Y-100177025D01*
X171952609Y-100177022D01*
X172037168Y-100006523D01*
X172083102Y-99821824D01*
X172086000Y-99779096D01*
X172086000Y-99578000D01*
X169391000Y-99578000D01*
X169391000Y-99590500D01*
X169371315Y-99657539D01*
X169318511Y-99703294D01*
X169267000Y-99714500D01*
X168022000Y-99714500D01*
X167954961Y-99694815D01*
X167909206Y-99642011D01*
X167898000Y-99590500D01*
X167898000Y-99338500D01*
X167917685Y-99271461D01*
X167970489Y-99225706D01*
X168022000Y-99214500D01*
X169043000Y-99214500D01*
X169043000Y-99202000D01*
X169062685Y-99134961D01*
X169115489Y-99089206D01*
X169167000Y-99078000D01*
X172086000Y-99078000D01*
X172086000Y-98876903D01*
X172083102Y-98834173D01*
X172051208Y-98705926D01*
X172054132Y-98636118D01*
X172094332Y-98578972D01*
X172159047Y-98552631D01*
X172171543Y-98552000D01*
X175136000Y-98552000D01*
X175203039Y-98571685D01*
G37*
%TD.AperFunction*%
%TD*%
%TA.AperFunction,Conductor*%
%TO.N,DIQ4*%
G36*
X166882539Y-109239685D02*
G01*
X166928294Y-109292489D01*
X166939500Y-109344000D01*
X166939500Y-109636536D01*
X166939501Y-109636553D01*
X166950113Y-109740426D01*
X167005885Y-109908738D01*
X167011077Y-109917157D01*
X167014293Y-109922370D01*
X167032732Y-109989763D01*
X167011808Y-110056426D01*
X166958165Y-110101195D01*
X166888834Y-110109855D01*
X166830392Y-110083567D01*
X166763129Y-110028721D01*
X166582861Y-109934557D01*
X166387328Y-109878609D01*
X166387325Y-109878608D01*
X166268000Y-109868000D01*
X165960000Y-109868000D01*
X165960000Y-112394000D01*
X165940315Y-112461039D01*
X165887511Y-112506794D01*
X165836000Y-112518000D01*
X164210000Y-112518000D01*
X164210000Y-113171340D01*
X164190315Y-113238379D01*
X164137511Y-113284134D01*
X164068354Y-113294078D01*
X163960001Y-113278500D01*
X163960000Y-113278500D01*
X160995543Y-113278500D01*
X160969646Y-113279153D01*
X160969629Y-113279153D01*
X160969623Y-113279154D01*
X160957155Y-113279783D01*
X160931296Y-113281744D01*
X160931291Y-113281745D01*
X160921749Y-113284118D01*
X160851941Y-113281191D01*
X160794797Y-113240987D01*
X160768461Y-113176271D01*
X160780742Y-113108687D01*
X160861169Y-112946521D01*
X160907102Y-112761824D01*
X160910000Y-112719096D01*
X160910000Y-112518000D01*
X159284000Y-112518000D01*
X159216961Y-112498315D01*
X159171206Y-112445511D01*
X159160000Y-112394000D01*
X159160000Y-112142000D01*
X159179685Y-112074961D01*
X159232489Y-112029206D01*
X159284000Y-112018000D01*
X160910000Y-112018000D01*
X164210000Y-112018000D01*
X165460000Y-112018000D01*
X165460000Y-109868000D01*
X165151999Y-109868000D01*
X165032674Y-109878608D01*
X165032671Y-109878609D01*
X164837138Y-109934557D01*
X164656870Y-110028721D01*
X164499246Y-110157246D01*
X164370721Y-110314870D01*
X164276557Y-110495138D01*
X164220609Y-110690671D01*
X164220608Y-110690674D01*
X164210000Y-110809999D01*
X164210000Y-112018000D01*
X160910000Y-112018000D01*
X160910000Y-111816903D01*
X160907102Y-111774175D01*
X160861168Y-111589476D01*
X160776609Y-111418977D01*
X160776607Y-111418974D01*
X160657369Y-111270635D01*
X160594483Y-111220087D01*
X160554564Y-111162744D01*
X160551984Y-111092922D01*
X160587562Y-111032789D01*
X160594110Y-111027093D01*
X160663170Y-110971170D01*
X160780047Y-110826839D01*
X160864362Y-110661362D01*
X160912430Y-110481971D01*
X160918500Y-110404843D01*
X160918499Y-109531158D01*
X160912430Y-109454029D01*
X160891547Y-109376093D01*
X160893210Y-109306243D01*
X160932373Y-109248381D01*
X160996601Y-109220877D01*
X161011322Y-109220000D01*
X166815500Y-109220000D01*
X166882539Y-109239685D01*
G37*
%TD.AperFunction*%
%TA.AperFunction,Conductor*%
G36*
X178251039Y-109239685D02*
G01*
X178296794Y-109292489D01*
X178308000Y-109344000D01*
X178308000Y-110069131D01*
X178288315Y-110136170D01*
X178235511Y-110181925D01*
X178166353Y-110191869D01*
X178102797Y-110162844D01*
X178097017Y-110157462D01*
X177939129Y-110028721D01*
X177758861Y-109934557D01*
X177563328Y-109878609D01*
X177563325Y-109878608D01*
X177444000Y-109868000D01*
X177136000Y-109868000D01*
X177136000Y-112394000D01*
X177116315Y-112461039D01*
X177063511Y-112506794D01*
X177012000Y-112518000D01*
X175386000Y-112518000D01*
X175386000Y-113171340D01*
X175366315Y-113238379D01*
X175313511Y-113284134D01*
X175244354Y-113294078D01*
X175136001Y-113278500D01*
X175136000Y-113278500D01*
X172171543Y-113278500D01*
X172145646Y-113279153D01*
X172145629Y-113279153D01*
X172145623Y-113279154D01*
X172133155Y-113279783D01*
X172107296Y-113281744D01*
X172107291Y-113281745D01*
X172097749Y-113284118D01*
X172027941Y-113281191D01*
X171970797Y-113240987D01*
X171944461Y-113176271D01*
X171956742Y-113108687D01*
X172037169Y-112946521D01*
X172083102Y-112761824D01*
X172086000Y-112719096D01*
X172086000Y-112518000D01*
X170460000Y-112518000D01*
X170392961Y-112498315D01*
X170347206Y-112445511D01*
X170336000Y-112394000D01*
X170336000Y-112142000D01*
X170355685Y-112074961D01*
X170408489Y-112029206D01*
X170460000Y-112018000D01*
X172086000Y-112018000D01*
X175386000Y-112018000D01*
X176636000Y-112018000D01*
X176636000Y-109868000D01*
X176327999Y-109868000D01*
X176208674Y-109878608D01*
X176208671Y-109878609D01*
X176013138Y-109934557D01*
X175832870Y-110028721D01*
X175675246Y-110157246D01*
X175546721Y-110314870D01*
X175452557Y-110495138D01*
X175396609Y-110690671D01*
X175396608Y-110690674D01*
X175386000Y-110809999D01*
X175386000Y-112018000D01*
X172086000Y-112018000D01*
X172086000Y-111816903D01*
X172083102Y-111774175D01*
X172037168Y-111589476D01*
X171952609Y-111418977D01*
X171952607Y-111418974D01*
X171833369Y-111270635D01*
X171770483Y-111220087D01*
X171730564Y-111162744D01*
X171727984Y-111092922D01*
X171763562Y-111032789D01*
X171770110Y-111027093D01*
X171839170Y-110971170D01*
X171956047Y-110826839D01*
X172040362Y-110661362D01*
X172088430Y-110481971D01*
X172094500Y-110404843D01*
X172094499Y-109531158D01*
X172088430Y-109454029D01*
X172067547Y-109376093D01*
X172069210Y-109306243D01*
X172108373Y-109248381D01*
X172172601Y-109220877D01*
X172187322Y-109220000D01*
X178184000Y-109220000D01*
X178251039Y-109239685D01*
G37*
%TD.AperFunction*%
%TD*%
%TA.AperFunction,Conductor*%
%TO.N,+24V*%
G36*
X164027039Y-90951685D02*
G01*
X164072794Y-91004489D01*
X164084000Y-91056000D01*
X164084000Y-92557500D01*
X164064315Y-92624539D01*
X164011511Y-92670294D01*
X163960000Y-92681500D01*
X160914785Y-92681500D01*
X160847746Y-92661815D01*
X160801991Y-92609011D01*
X160792047Y-92539853D01*
X160803697Y-92502406D01*
X160861168Y-92386523D01*
X160907102Y-92201824D01*
X160910000Y-92159096D01*
X160910000Y-91958000D01*
X158215000Y-91958000D01*
X158215000Y-91970500D01*
X158195315Y-92037539D01*
X158142511Y-92083294D01*
X158091000Y-92094500D01*
X156846000Y-92094500D01*
X156778961Y-92074815D01*
X156733206Y-92022011D01*
X156722000Y-91970500D01*
X156722000Y-91718500D01*
X156741685Y-91651461D01*
X156794489Y-91605706D01*
X156846000Y-91594500D01*
X157867000Y-91594500D01*
X157867000Y-91582000D01*
X157886685Y-91514961D01*
X157939489Y-91469206D01*
X157991000Y-91458000D01*
X160910000Y-91458000D01*
X160910000Y-91256903D01*
X160907102Y-91214173D01*
X160875208Y-91085926D01*
X160878132Y-91016118D01*
X160918332Y-90958972D01*
X160983047Y-90932631D01*
X160995543Y-90932000D01*
X163960000Y-90932000D01*
X164027039Y-90951685D01*
G37*
%TD.AperFunction*%
%TD*%
%TA.AperFunction,Conductor*%
%TO.N,+24V*%
G36*
X164027039Y-113811685D02*
G01*
X164072794Y-113864489D01*
X164084000Y-113916000D01*
X164084000Y-115417500D01*
X164064315Y-115484539D01*
X164011511Y-115530294D01*
X163960000Y-115541500D01*
X160914785Y-115541500D01*
X160847746Y-115521815D01*
X160801991Y-115469011D01*
X160792047Y-115399853D01*
X160803697Y-115362406D01*
X160861168Y-115246523D01*
X160907102Y-115061824D01*
X160910000Y-115019096D01*
X160910000Y-114818000D01*
X158215000Y-114818000D01*
X158215000Y-114830500D01*
X158195315Y-114897539D01*
X158142511Y-114943294D01*
X158091000Y-114954500D01*
X156846000Y-114954500D01*
X156778961Y-114934815D01*
X156733206Y-114882011D01*
X156722000Y-114830500D01*
X156722000Y-114578500D01*
X156741685Y-114511461D01*
X156794489Y-114465706D01*
X156846000Y-114454500D01*
X157867000Y-114454500D01*
X157867000Y-114442000D01*
X157886685Y-114374961D01*
X157939489Y-114329206D01*
X157991000Y-114318000D01*
X160910000Y-114318000D01*
X160910000Y-114116903D01*
X160907102Y-114074173D01*
X160875208Y-113945926D01*
X160878132Y-113876118D01*
X160918332Y-113818972D01*
X160983047Y-113792631D01*
X160995543Y-113792000D01*
X163960000Y-113792000D01*
X164027039Y-113811685D01*
G37*
%TD.AperFunction*%
%TD*%
%TA.AperFunction,Conductor*%
%TO.N,DIQ5*%
G36*
X166882539Y-116859685D02*
G01*
X166928294Y-116912489D01*
X166939500Y-116964000D01*
X166939500Y-117256536D01*
X166939501Y-117256553D01*
X166950113Y-117360426D01*
X167005885Y-117528738D01*
X167011077Y-117537157D01*
X167014293Y-117542370D01*
X167032732Y-117609763D01*
X167011808Y-117676426D01*
X166958165Y-117721195D01*
X166888834Y-117729855D01*
X166830392Y-117703567D01*
X166763129Y-117648721D01*
X166582861Y-117554557D01*
X166387328Y-117498609D01*
X166387325Y-117498608D01*
X166268000Y-117488000D01*
X165960000Y-117488000D01*
X165960000Y-120014000D01*
X165940315Y-120081039D01*
X165887511Y-120126794D01*
X165836000Y-120138000D01*
X164210000Y-120138000D01*
X164210000Y-120791340D01*
X164190315Y-120858379D01*
X164137511Y-120904134D01*
X164068354Y-120914078D01*
X163960001Y-120898500D01*
X163960000Y-120898500D01*
X160995543Y-120898500D01*
X160969646Y-120899153D01*
X160969629Y-120899153D01*
X160969623Y-120899154D01*
X160957155Y-120899783D01*
X160931296Y-120901744D01*
X160931291Y-120901745D01*
X160921749Y-120904118D01*
X160851941Y-120901191D01*
X160794797Y-120860987D01*
X160768461Y-120796271D01*
X160780742Y-120728687D01*
X160861169Y-120566521D01*
X160907102Y-120381824D01*
X160910000Y-120339096D01*
X160910000Y-120138000D01*
X159284000Y-120138000D01*
X159216961Y-120118315D01*
X159171206Y-120065511D01*
X159160000Y-120014000D01*
X159160000Y-119762000D01*
X159179685Y-119694961D01*
X159232489Y-119649206D01*
X159284000Y-119638000D01*
X160910000Y-119638000D01*
X164210000Y-119638000D01*
X165460000Y-119638000D01*
X165460000Y-117488000D01*
X165151999Y-117488000D01*
X165032674Y-117498608D01*
X165032671Y-117498609D01*
X164837138Y-117554557D01*
X164656870Y-117648721D01*
X164499246Y-117777246D01*
X164370721Y-117934870D01*
X164276557Y-118115138D01*
X164220609Y-118310671D01*
X164220608Y-118310674D01*
X164210000Y-118429999D01*
X164210000Y-119638000D01*
X160910000Y-119638000D01*
X160910000Y-119436903D01*
X160907102Y-119394175D01*
X160861168Y-119209476D01*
X160776609Y-119038977D01*
X160776607Y-119038974D01*
X160657369Y-118890635D01*
X160594483Y-118840087D01*
X160554564Y-118782744D01*
X160551984Y-118712922D01*
X160587562Y-118652789D01*
X160594110Y-118647093D01*
X160663170Y-118591170D01*
X160780047Y-118446839D01*
X160864362Y-118281362D01*
X160912430Y-118101971D01*
X160918500Y-118024843D01*
X160918499Y-117151158D01*
X160912430Y-117074029D01*
X160891547Y-116996093D01*
X160893210Y-116926243D01*
X160932373Y-116868381D01*
X160996601Y-116840877D01*
X161011322Y-116840000D01*
X166815500Y-116840000D01*
X166882539Y-116859685D01*
G37*
%TD.AperFunction*%
%TA.AperFunction,Conductor*%
G36*
X178251039Y-116859685D02*
G01*
X178296794Y-116912489D01*
X178308000Y-116964000D01*
X178308000Y-117689131D01*
X178288315Y-117756170D01*
X178235511Y-117801925D01*
X178166353Y-117811869D01*
X178102797Y-117782844D01*
X178097017Y-117777462D01*
X177939129Y-117648721D01*
X177758861Y-117554557D01*
X177563328Y-117498609D01*
X177563325Y-117498608D01*
X177444000Y-117488000D01*
X177136000Y-117488000D01*
X177136000Y-120014000D01*
X177116315Y-120081039D01*
X177063511Y-120126794D01*
X177012000Y-120138000D01*
X175386000Y-120138000D01*
X175386000Y-120791340D01*
X175366315Y-120858379D01*
X175313511Y-120904134D01*
X175244354Y-120914078D01*
X175136001Y-120898500D01*
X175136000Y-120898500D01*
X172171543Y-120898500D01*
X172145646Y-120899153D01*
X172145629Y-120899153D01*
X172145623Y-120899154D01*
X172133155Y-120899783D01*
X172107296Y-120901744D01*
X172107291Y-120901745D01*
X172097749Y-120904118D01*
X172027941Y-120901191D01*
X171970797Y-120860987D01*
X171944461Y-120796271D01*
X171956742Y-120728687D01*
X172037169Y-120566521D01*
X172083102Y-120381824D01*
X172086000Y-120339096D01*
X172086000Y-120138000D01*
X170460000Y-120138000D01*
X170392961Y-120118315D01*
X170347206Y-120065511D01*
X170336000Y-120014000D01*
X170336000Y-119762000D01*
X170355685Y-119694961D01*
X170408489Y-119649206D01*
X170460000Y-119638000D01*
X172086000Y-119638000D01*
X175386000Y-119638000D01*
X176636000Y-119638000D01*
X176636000Y-117488000D01*
X176327999Y-117488000D01*
X176208674Y-117498608D01*
X176208671Y-117498609D01*
X176013138Y-117554557D01*
X175832870Y-117648721D01*
X175675246Y-117777246D01*
X175546721Y-117934870D01*
X175452557Y-118115138D01*
X175396609Y-118310671D01*
X175396608Y-118310674D01*
X175386000Y-118429999D01*
X175386000Y-119638000D01*
X172086000Y-119638000D01*
X172086000Y-119436903D01*
X172083102Y-119394175D01*
X172037168Y-119209476D01*
X171952609Y-119038977D01*
X171952607Y-119038974D01*
X171833369Y-118890635D01*
X171770483Y-118840087D01*
X171730564Y-118782744D01*
X171727984Y-118712922D01*
X171763562Y-118652789D01*
X171770110Y-118647093D01*
X171839170Y-118591170D01*
X171956047Y-118446839D01*
X172040362Y-118281362D01*
X172088430Y-118101971D01*
X172094500Y-118024843D01*
X172094499Y-117151158D01*
X172088430Y-117074029D01*
X172067547Y-116996093D01*
X172069210Y-116926243D01*
X172108373Y-116868381D01*
X172172601Y-116840877D01*
X172187322Y-116840000D01*
X178184000Y-116840000D01*
X178251039Y-116859685D01*
G37*
%TD.AperFunction*%
%TD*%
%TA.AperFunction,Conductor*%
%TO.N,GND*%
G36*
X175203039Y-90951685D02*
G01*
X175248794Y-91004489D01*
X175260000Y-91056000D01*
X175260000Y-92840000D01*
X175240315Y-92907039D01*
X175187511Y-92952794D01*
X175136000Y-92964000D01*
X171863797Y-92964000D01*
X171796758Y-92944315D01*
X171751003Y-92891511D01*
X171741059Y-92822353D01*
X171770084Y-92758797D01*
X171786110Y-92743352D01*
X171833369Y-92705364D01*
X171952607Y-92557025D01*
X171952609Y-92557022D01*
X172037168Y-92386523D01*
X172083102Y-92201824D01*
X172086000Y-92159096D01*
X172086000Y-91958000D01*
X169375000Y-91958000D01*
X169375000Y-91970500D01*
X169355315Y-92037539D01*
X169302511Y-92083294D01*
X169251000Y-92094500D01*
X168006000Y-92094500D01*
X167938961Y-92074815D01*
X167893206Y-92022011D01*
X167882000Y-91970500D01*
X167882000Y-91718500D01*
X167901685Y-91651461D01*
X167954489Y-91605706D01*
X168006000Y-91594500D01*
X169043000Y-91594500D01*
X169043000Y-91582000D01*
X169062685Y-91514961D01*
X169115489Y-91469206D01*
X169167000Y-91458000D01*
X172086000Y-91458000D01*
X172086000Y-91256903D01*
X172083102Y-91214173D01*
X172051208Y-91085926D01*
X172054132Y-91016118D01*
X172094332Y-90958972D01*
X172159047Y-90932631D01*
X172171543Y-90932000D01*
X175136000Y-90932000D01*
X175203039Y-90951685D01*
G37*
%TD.AperFunction*%
%TD*%
%TA.AperFunction,Conductor*%
%TO.N,GND*%
G36*
X175203039Y-83331685D02*
G01*
X175248794Y-83384489D01*
X175260000Y-83436000D01*
X175260000Y-85220000D01*
X175240315Y-85287039D01*
X175187511Y-85332794D01*
X175136000Y-85344000D01*
X171863797Y-85344000D01*
X171796758Y-85324315D01*
X171751003Y-85271511D01*
X171741059Y-85202353D01*
X171770084Y-85138797D01*
X171786110Y-85123352D01*
X171833369Y-85085364D01*
X171952607Y-84937025D01*
X171952609Y-84937022D01*
X172037168Y-84766523D01*
X172083102Y-84581824D01*
X172086000Y-84539096D01*
X172086000Y-84338000D01*
X169428500Y-84338000D01*
X169428500Y-84350500D01*
X169408815Y-84417539D01*
X169356011Y-84463294D01*
X169304500Y-84474500D01*
X168059500Y-84474500D01*
X167992461Y-84454815D01*
X167946706Y-84402011D01*
X167935500Y-84350500D01*
X167935500Y-84098500D01*
X167955185Y-84031461D01*
X168007989Y-83985706D01*
X168059500Y-83974500D01*
X169043000Y-83974500D01*
X169043000Y-83962000D01*
X169062685Y-83894961D01*
X169115489Y-83849206D01*
X169167000Y-83838000D01*
X172086000Y-83838000D01*
X172086000Y-83636903D01*
X172083102Y-83594173D01*
X172051208Y-83465926D01*
X172054132Y-83396118D01*
X172094332Y-83338972D01*
X172159047Y-83312631D01*
X172171543Y-83312000D01*
X175136000Y-83312000D01*
X175203039Y-83331685D01*
G37*
%TD.AperFunction*%
%TD*%
%TA.AperFunction,Conductor*%
%TO.N,+5V*%
G36*
X142183039Y-86633685D02*
G01*
X142228794Y-86686489D01*
X142240000Y-86738000D01*
X142240000Y-95380000D01*
X142220315Y-95447039D01*
X142167511Y-95492794D01*
X142116000Y-95504000D01*
X140579244Y-95504000D01*
X140512205Y-95484315D01*
X140466450Y-95431511D01*
X140455753Y-95368779D01*
X140459000Y-95333044D01*
X140459000Y-94912000D01*
X139508000Y-94912000D01*
X139440961Y-94892315D01*
X139395206Y-94839511D01*
X139384000Y-94788000D01*
X139384000Y-94536000D01*
X139403685Y-94468961D01*
X139456489Y-94423206D01*
X139508000Y-94412000D01*
X140459000Y-94412000D01*
X140459000Y-93990956D01*
X140452934Y-93924207D01*
X140405069Y-93770602D01*
X140375960Y-93722450D01*
X140358123Y-93654896D01*
X140379640Y-93588422D01*
X140433680Y-93544133D01*
X140482074Y-93534299D01*
X140710592Y-93534299D01*
X140739525Y-93531587D01*
X140861392Y-93488944D01*
X140965275Y-93412275D01*
X141041944Y-93308392D01*
X141084587Y-93186525D01*
X141087300Y-93157593D01*
X141087299Y-91754408D01*
X141084587Y-91725475D01*
X141041944Y-91603608D01*
X140965275Y-91499725D01*
X140861392Y-91423056D01*
X140861390Y-91423055D01*
X140739532Y-91380414D01*
X140739520Y-91380412D01*
X140710597Y-91377700D01*
X139782409Y-91377700D01*
X139753479Y-91380412D01*
X139753476Y-91380412D01*
X139753475Y-91380413D01*
X139631608Y-91423056D01*
X139631607Y-91423056D01*
X139631606Y-91423057D01*
X139527725Y-91499725D01*
X139451055Y-91603609D01*
X139408414Y-91725467D01*
X139408412Y-91725479D01*
X139405700Y-91754402D01*
X139405700Y-92282086D01*
X139386015Y-92349125D01*
X139369381Y-92369767D01*
X138880514Y-92858635D01*
X138819191Y-92892120D01*
X138792833Y-92894954D01*
X138752673Y-92894954D01*
X138626449Y-92932016D01*
X138515774Y-93003143D01*
X138501711Y-93019372D01*
X138442932Y-93057145D01*
X138373062Y-93057143D01*
X138314285Y-93019368D01*
X138285262Y-92955811D01*
X138284000Y-92938167D01*
X138284000Y-92706000D01*
X135959001Y-92706000D01*
X135959001Y-93155986D01*
X135969494Y-93258697D01*
X136024641Y-93425119D01*
X136024643Y-93425124D01*
X136116684Y-93574345D01*
X136240654Y-93698315D01*
X136389875Y-93790356D01*
X136389880Y-93790358D01*
X136556302Y-93845505D01*
X136556309Y-93845506D01*
X136659019Y-93855999D01*
X136785483Y-93855999D01*
X136852523Y-93875683D01*
X136898278Y-93928487D01*
X136908459Y-93988126D01*
X136908841Y-93988144D01*
X136909000Y-93988144D01*
X136909000Y-93988151D01*
X136909127Y-93988157D01*
X136909000Y-93990952D01*
X136909000Y-94412000D01*
X137860000Y-94412000D01*
X137927039Y-94431685D01*
X137972794Y-94484489D01*
X137984000Y-94536000D01*
X137984000Y-94788000D01*
X137964315Y-94855039D01*
X137911511Y-94900794D01*
X137860000Y-94912000D01*
X136909000Y-94912000D01*
X136909000Y-95333044D01*
X136912247Y-95368779D01*
X136898710Y-95437325D01*
X136850263Y-95487670D01*
X136788756Y-95504000D01*
X131115362Y-95504000D01*
X131048323Y-95484315D01*
X131027681Y-95467681D01*
X128106000Y-92546000D01*
X130780001Y-92546000D01*
X130780001Y-93845986D01*
X130790494Y-93948697D01*
X130845641Y-94115119D01*
X130845643Y-94115124D01*
X130937684Y-94264345D01*
X131061654Y-94388315D01*
X131210875Y-94480356D01*
X131210880Y-94480358D01*
X131377302Y-94535505D01*
X131377309Y-94535506D01*
X131480019Y-94545999D01*
X131829999Y-94545999D01*
X131830000Y-94545998D01*
X131830000Y-92546000D01*
X132330000Y-92546000D01*
X132330000Y-94545999D01*
X132679972Y-94545999D01*
X132679986Y-94545998D01*
X132782697Y-94535505D01*
X132949119Y-94480358D01*
X132949124Y-94480356D01*
X133098345Y-94388315D01*
X133222315Y-94264345D01*
X133314356Y-94115124D01*
X133314358Y-94115119D01*
X133369505Y-93948697D01*
X133369506Y-93948690D01*
X133379999Y-93845986D01*
X133380000Y-93845973D01*
X133380000Y-92546000D01*
X132330000Y-92546000D01*
X131830000Y-92546000D01*
X130780001Y-92546000D01*
X128106000Y-92546000D01*
X127766000Y-92206000D01*
X135959000Y-92206000D01*
X136871500Y-92206000D01*
X136871500Y-91056000D01*
X137371500Y-91056000D01*
X137371500Y-92206000D01*
X138283999Y-92206000D01*
X138283999Y-91756028D01*
X138283998Y-91756013D01*
X138273505Y-91653302D01*
X138218358Y-91486880D01*
X138218356Y-91486875D01*
X138126315Y-91337654D01*
X138002345Y-91213684D01*
X137853124Y-91121643D01*
X137853119Y-91121641D01*
X137686697Y-91066494D01*
X137686690Y-91066493D01*
X137583986Y-91056000D01*
X137371500Y-91056000D01*
X136871500Y-91056000D01*
X136659029Y-91056000D01*
X136659012Y-91056001D01*
X136556302Y-91066494D01*
X136389880Y-91121641D01*
X136389875Y-91121643D01*
X136240654Y-91213684D01*
X136116684Y-91337654D01*
X136024643Y-91486875D01*
X136024641Y-91486880D01*
X135969494Y-91653302D01*
X135969493Y-91653309D01*
X135959000Y-91756013D01*
X135959000Y-92206000D01*
X127766000Y-92206000D01*
X127606000Y-92046000D01*
X130780000Y-92046000D01*
X131830000Y-92046000D01*
X131830000Y-90046000D01*
X132330000Y-90046000D01*
X132330000Y-92046000D01*
X133379999Y-92046000D01*
X133379999Y-90746028D01*
X133379998Y-90746013D01*
X133369505Y-90643302D01*
X133314358Y-90476880D01*
X133314356Y-90476875D01*
X133222315Y-90327654D01*
X133098345Y-90203684D01*
X132949124Y-90111643D01*
X132949119Y-90111641D01*
X132782697Y-90056494D01*
X132782690Y-90056493D01*
X132679986Y-90046000D01*
X132330000Y-90046000D01*
X131830000Y-90046000D01*
X131480028Y-90046000D01*
X131480012Y-90046001D01*
X131377302Y-90056494D01*
X131210880Y-90111641D01*
X131210875Y-90111643D01*
X131061654Y-90203684D01*
X130937684Y-90327654D01*
X130845643Y-90476875D01*
X130845641Y-90476880D01*
X130790494Y-90643302D01*
X130790493Y-90643309D01*
X130780000Y-90746013D01*
X130780000Y-92046000D01*
X127606000Y-92046000D01*
X126020319Y-90460319D01*
X125986834Y-90398996D01*
X125984000Y-90372638D01*
X125984000Y-88764000D01*
X126003685Y-88696961D01*
X126056489Y-88651206D01*
X126108000Y-88640000D01*
X127258000Y-88640000D01*
X127258000Y-87440000D01*
X127758000Y-87440000D01*
X127758000Y-88640000D01*
X129639546Y-88640000D01*
X129639548Y-88639999D01*
X129755891Y-88629656D01*
X129755894Y-88629655D01*
X129946539Y-88575106D01*
X130122300Y-88483296D01*
X130275984Y-88357984D01*
X130401296Y-88204300D01*
X130493106Y-88028539D01*
X130547655Y-87837894D01*
X130547656Y-87837891D01*
X130557999Y-87721548D01*
X130558000Y-87721546D01*
X130558000Y-87440000D01*
X127758000Y-87440000D01*
X127258000Y-87440000D01*
X127258000Y-87064000D01*
X127277685Y-86996961D01*
X127330489Y-86951206D01*
X127382000Y-86940000D01*
X130558000Y-86940000D01*
X130558000Y-86738000D01*
X130577685Y-86670961D01*
X130630489Y-86625206D01*
X130682000Y-86614000D01*
X142116000Y-86614000D01*
X142183039Y-86633685D01*
G37*
%TD.AperFunction*%
%TD*%
%TA.AperFunction,Conductor*%
%TO.N,DIQ2*%
G36*
X166882539Y-93972185D02*
G01*
X166928294Y-94024989D01*
X166939500Y-94076500D01*
X166939500Y-94396536D01*
X166939501Y-94396553D01*
X166950113Y-94500426D01*
X167005885Y-94668738D01*
X167011077Y-94677157D01*
X167014293Y-94682370D01*
X167032732Y-94749763D01*
X167011808Y-94816426D01*
X166958165Y-94861195D01*
X166888834Y-94869855D01*
X166830392Y-94843567D01*
X166763129Y-94788721D01*
X166582861Y-94694557D01*
X166387328Y-94638609D01*
X166387325Y-94638608D01*
X166268000Y-94628000D01*
X165960000Y-94628000D01*
X165960000Y-97154000D01*
X165940315Y-97221039D01*
X165887511Y-97266794D01*
X165836000Y-97278000D01*
X164210000Y-97278000D01*
X164210000Y-97931340D01*
X164190315Y-97998379D01*
X164137511Y-98044134D01*
X164068354Y-98054078D01*
X163960001Y-98038500D01*
X163960000Y-98038500D01*
X160995543Y-98038500D01*
X160969646Y-98039153D01*
X160969629Y-98039153D01*
X160969623Y-98039154D01*
X160957155Y-98039783D01*
X160931296Y-98041744D01*
X160931291Y-98041745D01*
X160921749Y-98044118D01*
X160851941Y-98041191D01*
X160794797Y-98000987D01*
X160768461Y-97936271D01*
X160780742Y-97868687D01*
X160861169Y-97706521D01*
X160907102Y-97521824D01*
X160910000Y-97479096D01*
X160910000Y-97278000D01*
X159284000Y-97278000D01*
X159216961Y-97258315D01*
X159171206Y-97205511D01*
X159160000Y-97154000D01*
X159160000Y-96902000D01*
X159179685Y-96834961D01*
X159232489Y-96789206D01*
X159284000Y-96778000D01*
X160910000Y-96778000D01*
X164210000Y-96778000D01*
X165460000Y-96778000D01*
X165460000Y-94628000D01*
X165151999Y-94628000D01*
X165032674Y-94638608D01*
X165032671Y-94638609D01*
X164837138Y-94694557D01*
X164656870Y-94788721D01*
X164499246Y-94917246D01*
X164370721Y-95074870D01*
X164276557Y-95255138D01*
X164220609Y-95450671D01*
X164220608Y-95450674D01*
X164210000Y-95569999D01*
X164210000Y-96778000D01*
X160910000Y-96778000D01*
X160910000Y-96576903D01*
X160907102Y-96534175D01*
X160861168Y-96349476D01*
X160776609Y-96178977D01*
X160776607Y-96178974D01*
X160657369Y-96030635D01*
X160594483Y-95980087D01*
X160554564Y-95922744D01*
X160551984Y-95852922D01*
X160587562Y-95792789D01*
X160594110Y-95787093D01*
X160663170Y-95731170D01*
X160780047Y-95586839D01*
X160864362Y-95421362D01*
X160912430Y-95241971D01*
X160918500Y-95164843D01*
X160918499Y-94291158D01*
X160912430Y-94214029D01*
X160884178Y-94108591D01*
X160885841Y-94038744D01*
X160925003Y-93980881D01*
X160989232Y-93953377D01*
X161003953Y-93952500D01*
X166815500Y-93952500D01*
X166882539Y-93972185D01*
G37*
%TD.AperFunction*%
%TA.AperFunction,Conductor*%
G36*
X178251039Y-93745685D02*
G01*
X178296794Y-93798489D01*
X178308000Y-93850000D01*
X178308000Y-94829131D01*
X178288315Y-94896170D01*
X178235511Y-94941925D01*
X178166353Y-94951869D01*
X178102797Y-94922844D01*
X178097017Y-94917462D01*
X177939129Y-94788721D01*
X177758861Y-94694557D01*
X177563328Y-94638609D01*
X177563325Y-94638608D01*
X177444000Y-94628000D01*
X177136000Y-94628000D01*
X177136000Y-97154000D01*
X177116315Y-97221039D01*
X177063511Y-97266794D01*
X177012000Y-97278000D01*
X175386000Y-97278000D01*
X175386000Y-97931340D01*
X175366315Y-97998379D01*
X175313511Y-98044134D01*
X175244354Y-98054078D01*
X175136001Y-98038500D01*
X175136000Y-98038500D01*
X172171543Y-98038500D01*
X172145646Y-98039153D01*
X172145629Y-98039153D01*
X172145623Y-98039154D01*
X172133155Y-98039783D01*
X172107296Y-98041744D01*
X172107291Y-98041745D01*
X172097749Y-98044118D01*
X172027941Y-98041191D01*
X171970797Y-98000987D01*
X171944461Y-97936271D01*
X171956742Y-97868687D01*
X172037169Y-97706521D01*
X172083102Y-97521824D01*
X172086000Y-97479096D01*
X172086000Y-97278000D01*
X170460000Y-97278000D01*
X170392961Y-97258315D01*
X170347206Y-97205511D01*
X170336000Y-97154000D01*
X170336000Y-96902000D01*
X170355685Y-96834961D01*
X170408489Y-96789206D01*
X170460000Y-96778000D01*
X172086000Y-96778000D01*
X175386000Y-96778000D01*
X176636000Y-96778000D01*
X176636000Y-94628000D01*
X176327999Y-94628000D01*
X176208674Y-94638608D01*
X176208671Y-94638609D01*
X176013138Y-94694557D01*
X175832870Y-94788721D01*
X175675246Y-94917246D01*
X175546721Y-95074870D01*
X175452557Y-95255138D01*
X175396609Y-95450671D01*
X175396608Y-95450674D01*
X175386000Y-95569999D01*
X175386000Y-96778000D01*
X172086000Y-96778000D01*
X172086000Y-96576903D01*
X172083102Y-96534175D01*
X172037168Y-96349476D01*
X171952609Y-96178977D01*
X171952607Y-96178974D01*
X171833369Y-96030635D01*
X171770483Y-95980087D01*
X171730564Y-95922744D01*
X171727984Y-95852922D01*
X171763562Y-95792789D01*
X171770110Y-95787093D01*
X171839170Y-95731170D01*
X171956047Y-95586839D01*
X172040362Y-95421362D01*
X172088430Y-95241971D01*
X172094500Y-95164843D01*
X172094499Y-94291158D01*
X172088430Y-94214029D01*
X172040362Y-94034638D01*
X171974966Y-93906292D01*
X171962071Y-93837626D01*
X171988347Y-93772886D01*
X172045453Y-93732628D01*
X172085452Y-93726000D01*
X178184000Y-93726000D01*
X178251039Y-93745685D01*
G37*
%TD.AperFunction*%
%TD*%
%TA.AperFunction,Conductor*%
%TO.N,DIQ0*%
G36*
X166920039Y-78759685D02*
G01*
X166965794Y-78812489D01*
X166977000Y-78864000D01*
X166977000Y-79156536D01*
X166977001Y-79156553D01*
X166987613Y-79260427D01*
X167043384Y-79428735D01*
X167043388Y-79428744D01*
X167089736Y-79503886D01*
X167108176Y-79571278D01*
X167087253Y-79637942D01*
X167033611Y-79682711D01*
X166964280Y-79691372D01*
X166905836Y-79665084D01*
X166763129Y-79548721D01*
X166582861Y-79454557D01*
X166387328Y-79398609D01*
X166387325Y-79398608D01*
X166268000Y-79388000D01*
X165960000Y-79388000D01*
X165960000Y-81914000D01*
X165940315Y-81981039D01*
X165887511Y-82026794D01*
X165836000Y-82038000D01*
X164210000Y-82038000D01*
X164210000Y-82680000D01*
X164190315Y-82747039D01*
X164137511Y-82792794D01*
X164086000Y-82804000D01*
X164007123Y-82804000D01*
X163989477Y-82802738D01*
X163960001Y-82798500D01*
X163960000Y-82798500D01*
X160995543Y-82798500D01*
X160969646Y-82799153D01*
X160969629Y-82799153D01*
X160969623Y-82799154D01*
X160957155Y-82799783D01*
X160931296Y-82801744D01*
X160927106Y-82802420D01*
X160907375Y-82804000D01*
X160893707Y-82804000D01*
X160826668Y-82784315D01*
X160780913Y-82731511D01*
X160770969Y-82662353D01*
X160782619Y-82624906D01*
X160861168Y-82466523D01*
X160907102Y-82281824D01*
X160910000Y-82239096D01*
X160910000Y-82038000D01*
X159284000Y-82038000D01*
X159216961Y-82018315D01*
X159171206Y-81965511D01*
X159160000Y-81914000D01*
X159160000Y-81662000D01*
X159179685Y-81594961D01*
X159232489Y-81549206D01*
X159284000Y-81538000D01*
X160910000Y-81538000D01*
X164210000Y-81538000D01*
X165460000Y-81538000D01*
X165460000Y-79388000D01*
X165151999Y-79388000D01*
X165032674Y-79398608D01*
X165032671Y-79398609D01*
X164837138Y-79454557D01*
X164656870Y-79548721D01*
X164499246Y-79677246D01*
X164370721Y-79834870D01*
X164276557Y-80015138D01*
X164220609Y-80210671D01*
X164220608Y-80210674D01*
X164210000Y-80329999D01*
X164210000Y-81538000D01*
X160910000Y-81538000D01*
X160910000Y-81336903D01*
X160907102Y-81294175D01*
X160861168Y-81109476D01*
X160776609Y-80938977D01*
X160776607Y-80938974D01*
X160657369Y-80790635D01*
X160594483Y-80740087D01*
X160554564Y-80682744D01*
X160551984Y-80612922D01*
X160587562Y-80552789D01*
X160594110Y-80547093D01*
X160663170Y-80491170D01*
X160780047Y-80346839D01*
X160864362Y-80181362D01*
X160912430Y-80001971D01*
X160918500Y-79924843D01*
X160918499Y-79051158D01*
X160912430Y-78974029D01*
X160891547Y-78896093D01*
X160893210Y-78826243D01*
X160932373Y-78768381D01*
X160996601Y-78740877D01*
X161011322Y-78740000D01*
X166853000Y-78740000D01*
X166920039Y-78759685D01*
G37*
%TD.AperFunction*%
%TA.AperFunction,Conductor*%
G36*
X178251039Y-78759685D02*
G01*
X178296794Y-78812489D01*
X178308000Y-78864000D01*
X178308000Y-79589131D01*
X178288315Y-79656170D01*
X178235511Y-79701925D01*
X178166353Y-79711869D01*
X178102797Y-79682844D01*
X178097017Y-79677462D01*
X177939129Y-79548721D01*
X177758861Y-79454557D01*
X177563328Y-79398609D01*
X177563325Y-79398608D01*
X177444000Y-79388000D01*
X177136000Y-79388000D01*
X177136000Y-81914000D01*
X177116315Y-81981039D01*
X177063511Y-82026794D01*
X177012000Y-82038000D01*
X175386000Y-82038000D01*
X175386000Y-82680000D01*
X175366315Y-82747039D01*
X175313511Y-82792794D01*
X175262000Y-82804000D01*
X172069707Y-82804000D01*
X172002668Y-82784315D01*
X171956913Y-82731511D01*
X171946969Y-82662353D01*
X171958619Y-82624906D01*
X172037168Y-82466523D01*
X172083102Y-82281824D01*
X172086000Y-82239096D01*
X172086000Y-82038000D01*
X170460000Y-82038000D01*
X170392961Y-82018315D01*
X170347206Y-81965511D01*
X170336000Y-81914000D01*
X170336000Y-81662000D01*
X170355685Y-81594961D01*
X170408489Y-81549206D01*
X170460000Y-81538000D01*
X172086000Y-81538000D01*
X175386000Y-81538000D01*
X176636000Y-81538000D01*
X176636000Y-79388000D01*
X176327999Y-79388000D01*
X176208674Y-79398608D01*
X176208671Y-79398609D01*
X176013138Y-79454557D01*
X175832870Y-79548721D01*
X175675246Y-79677246D01*
X175546721Y-79834870D01*
X175452557Y-80015138D01*
X175396609Y-80210671D01*
X175396608Y-80210674D01*
X175386000Y-80329999D01*
X175386000Y-81538000D01*
X172086000Y-81538000D01*
X172086000Y-81336903D01*
X172083102Y-81294175D01*
X172037168Y-81109476D01*
X171952609Y-80938977D01*
X171952607Y-80938974D01*
X171833369Y-80790635D01*
X171770483Y-80740087D01*
X171730564Y-80682744D01*
X171727984Y-80612922D01*
X171763562Y-80552789D01*
X171770110Y-80547093D01*
X171839170Y-80491170D01*
X171956047Y-80346839D01*
X172040362Y-80181362D01*
X172088430Y-80001971D01*
X172094500Y-79924843D01*
X172094499Y-79051158D01*
X172088430Y-78974029D01*
X172067547Y-78896093D01*
X172069210Y-78826243D01*
X172108373Y-78768381D01*
X172172601Y-78740877D01*
X172187322Y-78740000D01*
X178184000Y-78740000D01*
X178251039Y-78759685D01*
G37*
%TD.AperFunction*%
%TD*%
%TA.AperFunction,Conductor*%
%TO.N,DIQ7*%
G36*
X166882539Y-132099685D02*
G01*
X166928294Y-132152489D01*
X166939500Y-132204000D01*
X166939500Y-132496536D01*
X166939501Y-132496553D01*
X166950113Y-132600426D01*
X167005885Y-132768738D01*
X167011077Y-132777157D01*
X167014293Y-132782370D01*
X167032732Y-132849763D01*
X167011808Y-132916426D01*
X166958165Y-132961195D01*
X166888834Y-132969855D01*
X166830392Y-132943567D01*
X166763129Y-132888721D01*
X166582861Y-132794557D01*
X166387328Y-132738609D01*
X166387325Y-132738608D01*
X166268000Y-132728000D01*
X165960000Y-132728000D01*
X165960000Y-135254000D01*
X165940315Y-135321039D01*
X165887511Y-135366794D01*
X165836000Y-135378000D01*
X164210000Y-135378000D01*
X164210000Y-136031340D01*
X164190315Y-136098379D01*
X164137511Y-136144134D01*
X164068354Y-136154078D01*
X163960001Y-136138500D01*
X163960000Y-136138500D01*
X160995543Y-136138500D01*
X160969646Y-136139153D01*
X160969629Y-136139153D01*
X160969623Y-136139154D01*
X160957155Y-136139783D01*
X160931296Y-136141744D01*
X160931291Y-136141745D01*
X160921749Y-136144118D01*
X160851941Y-136141191D01*
X160794797Y-136100987D01*
X160768461Y-136036271D01*
X160780742Y-135968687D01*
X160861169Y-135806521D01*
X160907102Y-135621824D01*
X160910000Y-135579096D01*
X160910000Y-135378000D01*
X159284000Y-135378000D01*
X159216961Y-135358315D01*
X159171206Y-135305511D01*
X159160000Y-135254000D01*
X159160000Y-135002000D01*
X159179685Y-134934961D01*
X159232489Y-134889206D01*
X159284000Y-134878000D01*
X160910000Y-134878000D01*
X164210000Y-134878000D01*
X165460000Y-134878000D01*
X165460000Y-132728000D01*
X165151999Y-132728000D01*
X165032674Y-132738608D01*
X165032671Y-132738609D01*
X164837138Y-132794557D01*
X164656870Y-132888721D01*
X164499246Y-133017246D01*
X164370721Y-133174870D01*
X164276557Y-133355138D01*
X164220609Y-133550671D01*
X164220608Y-133550674D01*
X164210000Y-133669999D01*
X164210000Y-134878000D01*
X160910000Y-134878000D01*
X160910000Y-134676903D01*
X160907102Y-134634175D01*
X160861168Y-134449476D01*
X160776609Y-134278977D01*
X160776607Y-134278974D01*
X160657369Y-134130635D01*
X160594483Y-134080087D01*
X160554564Y-134022744D01*
X160551984Y-133952922D01*
X160587562Y-133892789D01*
X160594110Y-133887093D01*
X160663170Y-133831170D01*
X160780047Y-133686839D01*
X160864362Y-133521362D01*
X160912430Y-133341971D01*
X160918500Y-133264843D01*
X160918499Y-132391158D01*
X160912430Y-132314029D01*
X160891547Y-132236093D01*
X160893210Y-132166243D01*
X160932373Y-132108381D01*
X160996601Y-132080877D01*
X161011322Y-132080000D01*
X166815500Y-132080000D01*
X166882539Y-132099685D01*
G37*
%TD.AperFunction*%
%TA.AperFunction,Conductor*%
G36*
X177997039Y-132099685D02*
G01*
X178042794Y-132152489D01*
X178054000Y-132204000D01*
X178054000Y-132744054D01*
X178034315Y-132811093D01*
X177981511Y-132856848D01*
X177912353Y-132866792D01*
X177872589Y-132853963D01*
X177758861Y-132794557D01*
X177563328Y-132738609D01*
X177563325Y-132738608D01*
X177444000Y-132728000D01*
X177136000Y-132728000D01*
X177136000Y-135254000D01*
X177116315Y-135321039D01*
X177063511Y-135366794D01*
X177012000Y-135378000D01*
X175386000Y-135378000D01*
X175386000Y-136031340D01*
X175366315Y-136098379D01*
X175313511Y-136144134D01*
X175244354Y-136154078D01*
X175136001Y-136138500D01*
X175136000Y-136138500D01*
X172171543Y-136138500D01*
X172145646Y-136139153D01*
X172145629Y-136139153D01*
X172145623Y-136139154D01*
X172133155Y-136139783D01*
X172107296Y-136141744D01*
X172107291Y-136141745D01*
X172097749Y-136144118D01*
X172027941Y-136141191D01*
X171970797Y-136100987D01*
X171944461Y-136036271D01*
X171956742Y-135968687D01*
X172037169Y-135806521D01*
X172083102Y-135621824D01*
X172086000Y-135579096D01*
X172086000Y-135378000D01*
X170460000Y-135378000D01*
X170392961Y-135358315D01*
X170347206Y-135305511D01*
X170336000Y-135254000D01*
X170336000Y-135002000D01*
X170355685Y-134934961D01*
X170408489Y-134889206D01*
X170460000Y-134878000D01*
X172086000Y-134878000D01*
X175386000Y-134878000D01*
X176636000Y-134878000D01*
X176636000Y-132728000D01*
X176327999Y-132728000D01*
X176208674Y-132738608D01*
X176208671Y-132738609D01*
X176013138Y-132794557D01*
X175832870Y-132888721D01*
X175675246Y-133017246D01*
X175546721Y-133174870D01*
X175452557Y-133355138D01*
X175396609Y-133550671D01*
X175396608Y-133550674D01*
X175386000Y-133669999D01*
X175386000Y-134878000D01*
X172086000Y-134878000D01*
X172086000Y-134676903D01*
X172083102Y-134634175D01*
X172037168Y-134449476D01*
X171952609Y-134278977D01*
X171952607Y-134278974D01*
X171833369Y-134130635D01*
X171770483Y-134080087D01*
X171730564Y-134022744D01*
X171727984Y-133952922D01*
X171763562Y-133892789D01*
X171770110Y-133887093D01*
X171839170Y-133831170D01*
X171956047Y-133686839D01*
X172040362Y-133521362D01*
X172088430Y-133341971D01*
X172094500Y-133264843D01*
X172094499Y-132391158D01*
X172088430Y-132314029D01*
X172067547Y-132236093D01*
X172069210Y-132166243D01*
X172108373Y-132108381D01*
X172172601Y-132080877D01*
X172187322Y-132080000D01*
X177930000Y-132080000D01*
X177997039Y-132099685D01*
G37*
%TD.AperFunction*%
%TD*%
%TA.AperFunction,Conductor*%
%TO.N,+24V*%
G36*
X164027039Y-136671685D02*
G01*
X164072794Y-136724489D01*
X164084000Y-136776000D01*
X164084000Y-138560000D01*
X164064315Y-138627039D01*
X164011511Y-138672794D01*
X163960000Y-138684000D01*
X160687797Y-138684000D01*
X160620758Y-138664315D01*
X160575003Y-138611511D01*
X160565059Y-138542353D01*
X160594084Y-138478797D01*
X160610110Y-138463352D01*
X160657369Y-138425364D01*
X160776607Y-138277025D01*
X160776609Y-138277022D01*
X160861168Y-138106523D01*
X160907102Y-137921824D01*
X160910000Y-137879096D01*
X160910000Y-137678000D01*
X158215000Y-137678000D01*
X158215000Y-137690500D01*
X158195315Y-137757539D01*
X158142511Y-137803294D01*
X158091000Y-137814500D01*
X156846000Y-137814500D01*
X156778961Y-137794815D01*
X156733206Y-137742011D01*
X156722000Y-137690500D01*
X156722000Y-137438500D01*
X156741685Y-137371461D01*
X156794489Y-137325706D01*
X156846000Y-137314500D01*
X157867000Y-137314500D01*
X157867000Y-137302000D01*
X157886685Y-137234961D01*
X157939489Y-137189206D01*
X157991000Y-137178000D01*
X160910000Y-137178000D01*
X160910000Y-136976903D01*
X160907102Y-136934173D01*
X160875208Y-136805926D01*
X160878132Y-136736118D01*
X160918332Y-136678972D01*
X160983047Y-136652631D01*
X160995543Y-136652000D01*
X163960000Y-136652000D01*
X164027039Y-136671685D01*
G37*
%TD.AperFunction*%
%TD*%
%TA.AperFunction,Conductor*%
%TO.N,+24V*%
G36*
X164027039Y-98571685D02*
G01*
X164072794Y-98624489D01*
X164084000Y-98676000D01*
X164084000Y-100140000D01*
X164064315Y-100207039D01*
X164011511Y-100252794D01*
X163960000Y-100264000D01*
X160933383Y-100264000D01*
X160866344Y-100244315D01*
X160820589Y-100191511D01*
X160810645Y-100122353D01*
X160822295Y-100084906D01*
X160861168Y-100006523D01*
X160907102Y-99821824D01*
X160910000Y-99779096D01*
X160910000Y-99578000D01*
X158252500Y-99578000D01*
X158252500Y-99590500D01*
X158232815Y-99657539D01*
X158180011Y-99703294D01*
X158128500Y-99714500D01*
X156883500Y-99714500D01*
X156816461Y-99694815D01*
X156770706Y-99642011D01*
X156759500Y-99590500D01*
X156759500Y-99338500D01*
X156779185Y-99271461D01*
X156831989Y-99225706D01*
X156883500Y-99214500D01*
X157867000Y-99214500D01*
X157867000Y-99202000D01*
X157886685Y-99134961D01*
X157939489Y-99089206D01*
X157991000Y-99078000D01*
X160910000Y-99078000D01*
X160910000Y-98876903D01*
X160907102Y-98834173D01*
X160875208Y-98705926D01*
X160878132Y-98636118D01*
X160918332Y-98578972D01*
X160983047Y-98552631D01*
X160995543Y-98552000D01*
X163960000Y-98552000D01*
X164027039Y-98571685D01*
G37*
%TD.AperFunction*%
%TD*%
%TA.AperFunction,Conductor*%
%TO.N,GND*%
G36*
X175203039Y-121431685D02*
G01*
X175248794Y-121484489D01*
X175260000Y-121536000D01*
X175260000Y-123320000D01*
X175240315Y-123387039D01*
X175187511Y-123432794D01*
X175136000Y-123444000D01*
X171863797Y-123444000D01*
X171796758Y-123424315D01*
X171751003Y-123371511D01*
X171741059Y-123302353D01*
X171770084Y-123238797D01*
X171786110Y-123223352D01*
X171833369Y-123185364D01*
X171952607Y-123037025D01*
X171952609Y-123037022D01*
X172037168Y-122866523D01*
X172083102Y-122681824D01*
X172086000Y-122639096D01*
X172086000Y-122438000D01*
X169391000Y-122438000D01*
X169391000Y-122488000D01*
X169371315Y-122555039D01*
X169318511Y-122600794D01*
X169267000Y-122612000D01*
X168022000Y-122612000D01*
X167954961Y-122592315D01*
X167909206Y-122539511D01*
X167898000Y-122488000D01*
X167898000Y-122236000D01*
X167917685Y-122168961D01*
X167970489Y-122123206D01*
X168022000Y-122112000D01*
X169043000Y-122112000D01*
X169043000Y-122062000D01*
X169062685Y-121994961D01*
X169115489Y-121949206D01*
X169167000Y-121938000D01*
X172086000Y-121938000D01*
X172086000Y-121736903D01*
X172083102Y-121694173D01*
X172051208Y-121565926D01*
X172054132Y-121496118D01*
X172094332Y-121438972D01*
X172159047Y-121412631D01*
X172171543Y-121412000D01*
X175136000Y-121412000D01*
X175203039Y-121431685D01*
G37*
%TD.AperFunction*%
%TD*%
%TA.AperFunction,Conductor*%
%TO.N,Net-(C11-Pad1)*%
G36*
X136081539Y-72663685D02*
G01*
X136127294Y-72716489D01*
X136138500Y-72768000D01*
X136138500Y-81164477D01*
X136118815Y-81231516D01*
X136066011Y-81277271D01*
X135996853Y-81287215D01*
X135933297Y-81258190D01*
X135926819Y-81252158D01*
X135886345Y-81211684D01*
X135737124Y-81119643D01*
X135737119Y-81119641D01*
X135570697Y-81064494D01*
X135570690Y-81064493D01*
X135467986Y-81054000D01*
X133918000Y-81054000D01*
X133918000Y-84553999D01*
X135467972Y-84553999D01*
X135467986Y-84553998D01*
X135570697Y-84543505D01*
X135737119Y-84488358D01*
X135737124Y-84488356D01*
X135886345Y-84396315D01*
X135926819Y-84355842D01*
X135988142Y-84322357D01*
X136057834Y-84327341D01*
X136113767Y-84369213D01*
X136138184Y-84434677D01*
X136138500Y-84443523D01*
X136138500Y-85474000D01*
X136118815Y-85541039D01*
X136066011Y-85586794D01*
X136014500Y-85598000D01*
X120266000Y-85598000D01*
X120198961Y-85578315D01*
X120153206Y-85525511D01*
X120142000Y-85474000D01*
X120142000Y-85406699D01*
X120161685Y-85339660D01*
X120214489Y-85293905D01*
X120265995Y-85282699D01*
X121604544Y-85282699D01*
X121708426Y-85272087D01*
X121876738Y-85216315D01*
X122027652Y-85123230D01*
X122153030Y-84997852D01*
X122246115Y-84846938D01*
X122301887Y-84678626D01*
X122312500Y-84574745D01*
X122312499Y-83648656D01*
X122301887Y-83544774D01*
X122246115Y-83376462D01*
X122161944Y-83240000D01*
X124458000Y-83240000D01*
X124458000Y-83521548D01*
X124468343Y-83637891D01*
X124468344Y-83637894D01*
X124522893Y-83828539D01*
X124614703Y-84004300D01*
X124740015Y-84157984D01*
X124893699Y-84283296D01*
X125069460Y-84375106D01*
X125260105Y-84429655D01*
X125260108Y-84429656D01*
X125376451Y-84439999D01*
X125376454Y-84440000D01*
X127258000Y-84440000D01*
X127258000Y-83240000D01*
X127758000Y-83240000D01*
X127758000Y-84440000D01*
X129639546Y-84440000D01*
X129639548Y-84439999D01*
X129755891Y-84429656D01*
X129755894Y-84429655D01*
X129946539Y-84375106D01*
X130122300Y-84283296D01*
X130275984Y-84157984D01*
X130401296Y-84004300D01*
X130493106Y-83828539D01*
X130547655Y-83637894D01*
X130547656Y-83637891D01*
X130557999Y-83521548D01*
X130558000Y-83521546D01*
X130558000Y-83240000D01*
X127758000Y-83240000D01*
X127258000Y-83240000D01*
X124458000Y-83240000D01*
X122161944Y-83240000D01*
X122153030Y-83225548D01*
X122027652Y-83100170D01*
X121952799Y-83054000D01*
X131168001Y-83054000D01*
X131168001Y-83853986D01*
X131178494Y-83956697D01*
X131233641Y-84123119D01*
X131233643Y-84123124D01*
X131325684Y-84272345D01*
X131449654Y-84396315D01*
X131598875Y-84488356D01*
X131598880Y-84488358D01*
X131765302Y-84543505D01*
X131765309Y-84543506D01*
X131868019Y-84553999D01*
X133417999Y-84553999D01*
X133418000Y-84553998D01*
X133418000Y-83054000D01*
X131168001Y-83054000D01*
X121952799Y-83054000D01*
X121876738Y-83007085D01*
X121782702Y-82975925D01*
X121725257Y-82936152D01*
X121698434Y-82871637D01*
X121703262Y-82829570D01*
X121701338Y-82829131D01*
X121702885Y-82822350D01*
X121702887Y-82822346D01*
X121712165Y-82740000D01*
X124458000Y-82740000D01*
X127258000Y-82740000D01*
X127258000Y-81540000D01*
X127758000Y-81540000D01*
X127758000Y-82740000D01*
X130558000Y-82740000D01*
X130558000Y-82554000D01*
X131168000Y-82554000D01*
X133418000Y-82554000D01*
X133418000Y-81054000D01*
X131868028Y-81054000D01*
X131868012Y-81054001D01*
X131765302Y-81064494D01*
X131598880Y-81119641D01*
X131598875Y-81119643D01*
X131449654Y-81211684D01*
X131325684Y-81335654D01*
X131233643Y-81484875D01*
X131233641Y-81484880D01*
X131178494Y-81651302D01*
X131178493Y-81651309D01*
X131168000Y-81754013D01*
X131168000Y-82554000D01*
X130558000Y-82554000D01*
X130558000Y-82458454D01*
X130557999Y-82458451D01*
X130547656Y-82342108D01*
X130547655Y-82342105D01*
X130493106Y-82151460D01*
X130401296Y-81975699D01*
X130275984Y-81822015D01*
X130122300Y-81696703D01*
X129946539Y-81604893D01*
X129755894Y-81550344D01*
X129755891Y-81550343D01*
X129639548Y-81540000D01*
X127758000Y-81540000D01*
X127258000Y-81540000D01*
X125376451Y-81540000D01*
X125260108Y-81550343D01*
X125260105Y-81550344D01*
X125069460Y-81604893D01*
X124893699Y-81696703D01*
X124740015Y-81822015D01*
X124614703Y-81975699D01*
X124522893Y-82151460D01*
X124468344Y-82342105D01*
X124468343Y-82342108D01*
X124458000Y-82458451D01*
X124458000Y-82740000D01*
X121712165Y-82740000D01*
X121722125Y-82651600D01*
X121711128Y-82554000D01*
X121702888Y-82480861D01*
X121702886Y-82480851D01*
X121646136Y-82318670D01*
X121646134Y-82318667D01*
X121554718Y-82173180D01*
X121433219Y-82051681D01*
X121287732Y-81960265D01*
X121287729Y-81960263D01*
X121125548Y-81903513D01*
X121125538Y-81903511D01*
X120954804Y-81884275D01*
X120954796Y-81884275D01*
X120784061Y-81903511D01*
X120784051Y-81903513D01*
X120621870Y-81960263D01*
X120621867Y-81960265D01*
X120476380Y-82051681D01*
X120353681Y-82174381D01*
X120292358Y-82207866D01*
X120222666Y-82202882D01*
X120166733Y-82161010D01*
X120142316Y-82095546D01*
X120142000Y-82086700D01*
X120142000Y-80970720D01*
X120161685Y-80903681D01*
X120214489Y-80857926D01*
X120283647Y-80847982D01*
X120347203Y-80877007D01*
X120365267Y-80896409D01*
X120386813Y-80925190D01*
X120501906Y-81011350D01*
X120501913Y-81011354D01*
X120636620Y-81061596D01*
X120636627Y-81061598D01*
X120696155Y-81067999D01*
X120696172Y-81068000D01*
X123194000Y-81068000D01*
X123194000Y-79368000D01*
X123694000Y-79368000D01*
X123694000Y-81068000D01*
X126191828Y-81068000D01*
X126191844Y-81067999D01*
X126251372Y-81061598D01*
X126251379Y-81061596D01*
X126386086Y-81011354D01*
X126386093Y-81011350D01*
X126501187Y-80925190D01*
X126501190Y-80925187D01*
X126587350Y-80810093D01*
X126587354Y-80810086D01*
X126637596Y-80675379D01*
X126637598Y-80675372D01*
X126643999Y-80615844D01*
X126644000Y-80615827D01*
X126644000Y-79368000D01*
X123694000Y-79368000D01*
X123194000Y-79368000D01*
X123194000Y-77168000D01*
X123694000Y-77168000D01*
X123694000Y-78868000D01*
X126644000Y-78868000D01*
X126644000Y-77620172D01*
X126643999Y-77620155D01*
X126637598Y-77560627D01*
X126637596Y-77560620D01*
X126587354Y-77425913D01*
X126587350Y-77425906D01*
X126501190Y-77310812D01*
X126501187Y-77310809D01*
X126386093Y-77224649D01*
X126386086Y-77224645D01*
X126251379Y-77174403D01*
X126251372Y-77174401D01*
X126191844Y-77168000D01*
X123694000Y-77168000D01*
X123194000Y-77168000D01*
X120696155Y-77168000D01*
X120636627Y-77174401D01*
X120636620Y-77174403D01*
X120501913Y-77224645D01*
X120501906Y-77224649D01*
X120386812Y-77310809D01*
X120365266Y-77339591D01*
X120309331Y-77381462D01*
X120239640Y-77386445D01*
X120178317Y-77352959D01*
X120144833Y-77291635D01*
X120142000Y-77265279D01*
X120142000Y-75308000D01*
X120161685Y-75240961D01*
X120214489Y-75195206D01*
X120266000Y-75184000D01*
X132334000Y-75184000D01*
X132334000Y-74813901D01*
X132353685Y-74746862D01*
X132406489Y-74701107D01*
X132475647Y-74691163D01*
X132539203Y-74720188D01*
X132563539Y-74748804D01*
X132615684Y-74833345D01*
X132739654Y-74957315D01*
X132888875Y-75049356D01*
X132888880Y-75049358D01*
X133055302Y-75104505D01*
X133055309Y-75104506D01*
X133158019Y-75114999D01*
X133607999Y-75114999D01*
X133608000Y-75114998D01*
X133608000Y-74202500D01*
X134108000Y-74202500D01*
X134108000Y-75114999D01*
X134557972Y-75114999D01*
X134557986Y-75114998D01*
X134660697Y-75104505D01*
X134827119Y-75049358D01*
X134827124Y-75049356D01*
X134976345Y-74957315D01*
X135100315Y-74833345D01*
X135192356Y-74684124D01*
X135192358Y-74684119D01*
X135247505Y-74517697D01*
X135247506Y-74517690D01*
X135257999Y-74414986D01*
X135258000Y-74414973D01*
X135258000Y-74202500D01*
X134108000Y-74202500D01*
X133608000Y-74202500D01*
X133608000Y-73826500D01*
X133627685Y-73759461D01*
X133680489Y-73713706D01*
X133732000Y-73702500D01*
X135257999Y-73702500D01*
X135257999Y-73490028D01*
X135257998Y-73490013D01*
X135247505Y-73387302D01*
X135192358Y-73220880D01*
X135192356Y-73220875D01*
X135100315Y-73071654D01*
X134976345Y-72947684D01*
X134856137Y-72873539D01*
X134809413Y-72821591D01*
X134798190Y-72752628D01*
X134826034Y-72688546D01*
X134884103Y-72649690D01*
X134921234Y-72644000D01*
X136014500Y-72644000D01*
X136081539Y-72663685D01*
G37*
%TD.AperFunction*%
%TD*%
%TA.AperFunction,Conductor*%
%TO.N,GND*%
G36*
X174949039Y-129051685D02*
G01*
X174994794Y-129104489D01*
X175006000Y-129156000D01*
X175006000Y-130940000D01*
X174986315Y-131007039D01*
X174933511Y-131052794D01*
X174882000Y-131064000D01*
X171901297Y-131064000D01*
X171834258Y-131044315D01*
X171788503Y-130991511D01*
X171778559Y-130922353D01*
X171807584Y-130858797D01*
X171823610Y-130843352D01*
X171870869Y-130805364D01*
X171990107Y-130657025D01*
X171990109Y-130657022D01*
X172074668Y-130486523D01*
X172120602Y-130301824D01*
X172123500Y-130259096D01*
X172123500Y-130058000D01*
X169391000Y-130058000D01*
X169391000Y-130070500D01*
X169371315Y-130137539D01*
X169318511Y-130183294D01*
X169267000Y-130194500D01*
X168022000Y-130194500D01*
X167954961Y-130174815D01*
X167909206Y-130122011D01*
X167898000Y-130070500D01*
X167898000Y-129818500D01*
X167917685Y-129751461D01*
X167970489Y-129705706D01*
X168022000Y-129694500D01*
X169080500Y-129694500D01*
X169080500Y-129682000D01*
X169100185Y-129614961D01*
X169152989Y-129569206D01*
X169204500Y-129558000D01*
X172123500Y-129558000D01*
X172123500Y-129356903D01*
X172120602Y-129314173D01*
X172088708Y-129185926D01*
X172091632Y-129116118D01*
X172131832Y-129058972D01*
X172196547Y-129032631D01*
X172209043Y-129032000D01*
X174882000Y-129032000D01*
X174949039Y-129051685D01*
G37*
%TD.AperFunction*%
%TD*%
%TA.AperFunction,Conductor*%
%TO.N,+24V*%
G36*
X164027039Y-106191685D02*
G01*
X164072794Y-106244489D01*
X164084000Y-106296000D01*
X164084000Y-107797500D01*
X164064315Y-107864539D01*
X164011511Y-107910294D01*
X163960000Y-107921500D01*
X160914785Y-107921500D01*
X160847746Y-107901815D01*
X160801991Y-107849011D01*
X160792047Y-107779853D01*
X160803697Y-107742406D01*
X160861168Y-107626523D01*
X160907102Y-107441824D01*
X160910000Y-107399096D01*
X160910000Y-107198000D01*
X158215000Y-107198000D01*
X158215000Y-107210500D01*
X158195315Y-107277539D01*
X158142511Y-107323294D01*
X158091000Y-107334500D01*
X156846000Y-107334500D01*
X156778961Y-107314815D01*
X156733206Y-107262011D01*
X156722000Y-107210500D01*
X156722000Y-106958500D01*
X156741685Y-106891461D01*
X156794489Y-106845706D01*
X156846000Y-106834500D01*
X157867000Y-106834500D01*
X157867000Y-106822000D01*
X157886685Y-106754961D01*
X157939489Y-106709206D01*
X157991000Y-106698000D01*
X160910000Y-106698000D01*
X160910000Y-106496903D01*
X160907102Y-106454173D01*
X160875208Y-106325926D01*
X160878132Y-106256118D01*
X160918332Y-106198972D01*
X160983047Y-106172631D01*
X160995543Y-106172000D01*
X163960000Y-106172000D01*
X164027039Y-106191685D01*
G37*
%TD.AperFunction*%
%TD*%
M02*
