%TF.GenerationSoftware,KiCad,Pcbnew,8.0.0*%
%TF.CreationDate,2024-05-13T12:24:45+02:00*%
%TF.ProjectId,plc_io_module,706c635f-696f-45f6-9d6f-64756c652e6b,1.0.0*%
%TF.SameCoordinates,Original*%
%TF.FileFunction,OtherDrawing,Comment*%
%FSLAX46Y46*%
G04 Gerber Fmt 4.6, Leading zero omitted, Abs format (unit mm)*
G04 Created by KiCad (PCBNEW 8.0.0) date 2024-05-13 12:24:45*
%MOMM*%
%LPD*%
G01*
G04 APERTURE LIST*
%ADD10C,0.300000*%
%ADD11C,0.200000*%
G04 APERTURE END LIST*
D10*
X138502287Y-156612328D02*
X138788001Y-156612328D01*
X138788001Y-156612328D02*
X138930858Y-156540900D01*
X138930858Y-156540900D02*
X139002287Y-156469471D01*
X139002287Y-156469471D02*
X139145144Y-156255185D01*
X139145144Y-156255185D02*
X139216573Y-155969471D01*
X139216573Y-155969471D02*
X139216573Y-155398042D01*
X139216573Y-155398042D02*
X139145144Y-155255185D01*
X139145144Y-155255185D02*
X139073716Y-155183757D01*
X139073716Y-155183757D02*
X138930858Y-155112328D01*
X138930858Y-155112328D02*
X138645144Y-155112328D01*
X138645144Y-155112328D02*
X138502287Y-155183757D01*
X138502287Y-155183757D02*
X138430858Y-155255185D01*
X138430858Y-155255185D02*
X138359430Y-155398042D01*
X138359430Y-155398042D02*
X138359430Y-155755185D01*
X138359430Y-155755185D02*
X138430858Y-155898042D01*
X138430858Y-155898042D02*
X138502287Y-155969471D01*
X138502287Y-155969471D02*
X138645144Y-156040900D01*
X138645144Y-156040900D02*
X138930858Y-156040900D01*
X138930858Y-156040900D02*
X139073716Y-155969471D01*
X139073716Y-155969471D02*
X139145144Y-155898042D01*
X139145144Y-155898042D02*
X139216573Y-155755185D01*
X139788001Y-155255185D02*
X139859429Y-155183757D01*
X139859429Y-155183757D02*
X140002287Y-155112328D01*
X140002287Y-155112328D02*
X140359429Y-155112328D01*
X140359429Y-155112328D02*
X140502287Y-155183757D01*
X140502287Y-155183757D02*
X140573715Y-155255185D01*
X140573715Y-155255185D02*
X140645144Y-155398042D01*
X140645144Y-155398042D02*
X140645144Y-155540900D01*
X140645144Y-155540900D02*
X140573715Y-155755185D01*
X140573715Y-155755185D02*
X139716572Y-156612328D01*
X139716572Y-156612328D02*
X140645144Y-156612328D01*
X141288000Y-156469471D02*
X141359429Y-156540900D01*
X141359429Y-156540900D02*
X141288000Y-156612328D01*
X141288000Y-156612328D02*
X141216572Y-156540900D01*
X141216572Y-156540900D02*
X141288000Y-156469471D01*
X141288000Y-156469471D02*
X141288000Y-156612328D01*
X142645144Y-155612328D02*
X142645144Y-156612328D01*
X142288001Y-155040900D02*
X141930858Y-156112328D01*
X141930858Y-156112328D02*
X142859429Y-156112328D01*
X144145143Y-155112328D02*
X143430857Y-155112328D01*
X143430857Y-155112328D02*
X143359429Y-155826614D01*
X143359429Y-155826614D02*
X143430857Y-155755185D01*
X143430857Y-155755185D02*
X143573715Y-155683757D01*
X143573715Y-155683757D02*
X143930857Y-155683757D01*
X143930857Y-155683757D02*
X144073715Y-155755185D01*
X144073715Y-155755185D02*
X144145143Y-155826614D01*
X144145143Y-155826614D02*
X144216572Y-155969471D01*
X144216572Y-155969471D02*
X144216572Y-156326614D01*
X144216572Y-156326614D02*
X144145143Y-156469471D01*
X144145143Y-156469471D02*
X144073715Y-156540900D01*
X144073715Y-156540900D02*
X143930857Y-156612328D01*
X143930857Y-156612328D02*
X143573715Y-156612328D01*
X143573715Y-156612328D02*
X143430857Y-156540900D01*
X143430857Y-156540900D02*
X143359429Y-156469471D01*
X145502286Y-155112328D02*
X145216571Y-155112328D01*
X145216571Y-155112328D02*
X145073714Y-155183757D01*
X145073714Y-155183757D02*
X145002286Y-155255185D01*
X145002286Y-155255185D02*
X144859428Y-155469471D01*
X144859428Y-155469471D02*
X144788000Y-155755185D01*
X144788000Y-155755185D02*
X144788000Y-156326614D01*
X144788000Y-156326614D02*
X144859428Y-156469471D01*
X144859428Y-156469471D02*
X144930857Y-156540900D01*
X144930857Y-156540900D02*
X145073714Y-156612328D01*
X145073714Y-156612328D02*
X145359428Y-156612328D01*
X145359428Y-156612328D02*
X145502286Y-156540900D01*
X145502286Y-156540900D02*
X145573714Y-156469471D01*
X145573714Y-156469471D02*
X145645143Y-156326614D01*
X145645143Y-156326614D02*
X145645143Y-155969471D01*
X145645143Y-155969471D02*
X145573714Y-155826614D01*
X145573714Y-155826614D02*
X145502286Y-155755185D01*
X145502286Y-155755185D02*
X145359428Y-155683757D01*
X145359428Y-155683757D02*
X145073714Y-155683757D01*
X145073714Y-155683757D02*
X144930857Y-155755185D01*
X144930857Y-155755185D02*
X144859428Y-155826614D01*
X144859428Y-155826614D02*
X144788000Y-155969471D01*
X146573714Y-155112328D02*
X146716571Y-155112328D01*
X146716571Y-155112328D02*
X146859428Y-155183757D01*
X146859428Y-155183757D02*
X146930857Y-155255185D01*
X146930857Y-155255185D02*
X147002285Y-155398042D01*
X147002285Y-155398042D02*
X147073714Y-155683757D01*
X147073714Y-155683757D02*
X147073714Y-156040900D01*
X147073714Y-156040900D02*
X147002285Y-156326614D01*
X147002285Y-156326614D02*
X146930857Y-156469471D01*
X146930857Y-156469471D02*
X146859428Y-156540900D01*
X146859428Y-156540900D02*
X146716571Y-156612328D01*
X146716571Y-156612328D02*
X146573714Y-156612328D01*
X146573714Y-156612328D02*
X146430857Y-156540900D01*
X146430857Y-156540900D02*
X146359428Y-156469471D01*
X146359428Y-156469471D02*
X146287999Y-156326614D01*
X146287999Y-156326614D02*
X146216571Y-156040900D01*
X146216571Y-156040900D02*
X146216571Y-155683757D01*
X146216571Y-155683757D02*
X146287999Y-155398042D01*
X146287999Y-155398042D02*
X146359428Y-155255185D01*
X146359428Y-155255185D02*
X146430857Y-155183757D01*
X146430857Y-155183757D02*
X146573714Y-155112328D01*
X148859427Y-156612328D02*
X148859427Y-155612328D01*
X148859427Y-155755185D02*
X148930856Y-155683757D01*
X148930856Y-155683757D02*
X149073713Y-155612328D01*
X149073713Y-155612328D02*
X149287999Y-155612328D01*
X149287999Y-155612328D02*
X149430856Y-155683757D01*
X149430856Y-155683757D02*
X149502285Y-155826614D01*
X149502285Y-155826614D02*
X149502285Y-156612328D01*
X149502285Y-155826614D02*
X149573713Y-155683757D01*
X149573713Y-155683757D02*
X149716570Y-155612328D01*
X149716570Y-155612328D02*
X149930856Y-155612328D01*
X149930856Y-155612328D02*
X150073713Y-155683757D01*
X150073713Y-155683757D02*
X150145142Y-155826614D01*
X150145142Y-155826614D02*
X150145142Y-156612328D01*
X150859427Y-156612328D02*
X150859427Y-155612328D01*
X150859427Y-155755185D02*
X150930856Y-155683757D01*
X150930856Y-155683757D02*
X151073713Y-155612328D01*
X151073713Y-155612328D02*
X151287999Y-155612328D01*
X151287999Y-155612328D02*
X151430856Y-155683757D01*
X151430856Y-155683757D02*
X151502285Y-155826614D01*
X151502285Y-155826614D02*
X151502285Y-156612328D01*
X151502285Y-155826614D02*
X151573713Y-155683757D01*
X151573713Y-155683757D02*
X151716570Y-155612328D01*
X151716570Y-155612328D02*
X151930856Y-155612328D01*
X151930856Y-155612328D02*
X152073713Y-155683757D01*
X152073713Y-155683757D02*
X152145142Y-155826614D01*
X152145142Y-155826614D02*
X152145142Y-156612328D01*
D11*
X99060000Y-142740000D02*
X99060000Y-158320420D01*
X191516000Y-142740000D02*
X191516000Y-158320420D01*
X99060000Y-157734000D02*
X191516000Y-157734000D01*
X99060000Y-157734000D02*
X191516000Y-157734000D01*
X99060000Y-157734000D02*
X100186504Y-157147579D01*
X99060000Y-157734000D02*
X100186504Y-158320421D01*
X191516000Y-157734000D02*
X190389496Y-158320421D01*
X191516000Y-157734000D02*
X190389496Y-157147579D01*
D10*
X136502287Y-148762328D02*
X137430859Y-148762328D01*
X137430859Y-148762328D02*
X136930859Y-149333757D01*
X136930859Y-149333757D02*
X137145144Y-149333757D01*
X137145144Y-149333757D02*
X137288002Y-149405185D01*
X137288002Y-149405185D02*
X137359430Y-149476614D01*
X137359430Y-149476614D02*
X137430859Y-149619471D01*
X137430859Y-149619471D02*
X137430859Y-149976614D01*
X137430859Y-149976614D02*
X137359430Y-150119471D01*
X137359430Y-150119471D02*
X137288002Y-150190900D01*
X137288002Y-150190900D02*
X137145144Y-150262328D01*
X137145144Y-150262328D02*
X136716573Y-150262328D01*
X136716573Y-150262328D02*
X136573716Y-150190900D01*
X136573716Y-150190900D02*
X136502287Y-150119471D01*
X138359430Y-148762328D02*
X138502287Y-148762328D01*
X138502287Y-148762328D02*
X138645144Y-148833757D01*
X138645144Y-148833757D02*
X138716573Y-148905185D01*
X138716573Y-148905185D02*
X138788001Y-149048042D01*
X138788001Y-149048042D02*
X138859430Y-149333757D01*
X138859430Y-149333757D02*
X138859430Y-149690900D01*
X138859430Y-149690900D02*
X138788001Y-149976614D01*
X138788001Y-149976614D02*
X138716573Y-150119471D01*
X138716573Y-150119471D02*
X138645144Y-150190900D01*
X138645144Y-150190900D02*
X138502287Y-150262328D01*
X138502287Y-150262328D02*
X138359430Y-150262328D01*
X138359430Y-150262328D02*
X138216573Y-150190900D01*
X138216573Y-150190900D02*
X138145144Y-150119471D01*
X138145144Y-150119471D02*
X138073715Y-149976614D01*
X138073715Y-149976614D02*
X138002287Y-149690900D01*
X138002287Y-149690900D02*
X138002287Y-149333757D01*
X138002287Y-149333757D02*
X138073715Y-149048042D01*
X138073715Y-149048042D02*
X138145144Y-148905185D01*
X138145144Y-148905185D02*
X138216573Y-148833757D01*
X138216573Y-148833757D02*
X138359430Y-148762328D01*
X139716572Y-149405185D02*
X139573715Y-149333757D01*
X139573715Y-149333757D02*
X139502286Y-149262328D01*
X139502286Y-149262328D02*
X139430858Y-149119471D01*
X139430858Y-149119471D02*
X139430858Y-149048042D01*
X139430858Y-149048042D02*
X139502286Y-148905185D01*
X139502286Y-148905185D02*
X139573715Y-148833757D01*
X139573715Y-148833757D02*
X139716572Y-148762328D01*
X139716572Y-148762328D02*
X140002286Y-148762328D01*
X140002286Y-148762328D02*
X140145144Y-148833757D01*
X140145144Y-148833757D02*
X140216572Y-148905185D01*
X140216572Y-148905185D02*
X140288001Y-149048042D01*
X140288001Y-149048042D02*
X140288001Y-149119471D01*
X140288001Y-149119471D02*
X140216572Y-149262328D01*
X140216572Y-149262328D02*
X140145144Y-149333757D01*
X140145144Y-149333757D02*
X140002286Y-149405185D01*
X140002286Y-149405185D02*
X139716572Y-149405185D01*
X139716572Y-149405185D02*
X139573715Y-149476614D01*
X139573715Y-149476614D02*
X139502286Y-149548042D01*
X139502286Y-149548042D02*
X139430858Y-149690900D01*
X139430858Y-149690900D02*
X139430858Y-149976614D01*
X139430858Y-149976614D02*
X139502286Y-150119471D01*
X139502286Y-150119471D02*
X139573715Y-150190900D01*
X139573715Y-150190900D02*
X139716572Y-150262328D01*
X139716572Y-150262328D02*
X140002286Y-150262328D01*
X140002286Y-150262328D02*
X140145144Y-150190900D01*
X140145144Y-150190900D02*
X140216572Y-150119471D01*
X140216572Y-150119471D02*
X140288001Y-149976614D01*
X140288001Y-149976614D02*
X140288001Y-149690900D01*
X140288001Y-149690900D02*
X140216572Y-149548042D01*
X140216572Y-149548042D02*
X140145144Y-149476614D01*
X140145144Y-149476614D02*
X140002286Y-149405185D01*
X141216572Y-148762328D02*
X141359429Y-148762328D01*
X141359429Y-148762328D02*
X141502286Y-148833757D01*
X141502286Y-148833757D02*
X141573715Y-148905185D01*
X141573715Y-148905185D02*
X141645143Y-149048042D01*
X141645143Y-149048042D02*
X141716572Y-149333757D01*
X141716572Y-149333757D02*
X141716572Y-149690900D01*
X141716572Y-149690900D02*
X141645143Y-149976614D01*
X141645143Y-149976614D02*
X141573715Y-150119471D01*
X141573715Y-150119471D02*
X141502286Y-150190900D01*
X141502286Y-150190900D02*
X141359429Y-150262328D01*
X141359429Y-150262328D02*
X141216572Y-150262328D01*
X141216572Y-150262328D02*
X141073715Y-150190900D01*
X141073715Y-150190900D02*
X141002286Y-150119471D01*
X141002286Y-150119471D02*
X140930857Y-149976614D01*
X140930857Y-149976614D02*
X140859429Y-149690900D01*
X140859429Y-149690900D02*
X140859429Y-149333757D01*
X140859429Y-149333757D02*
X140930857Y-149048042D01*
X140930857Y-149048042D02*
X141002286Y-148905185D01*
X141002286Y-148905185D02*
X141073715Y-148833757D01*
X141073715Y-148833757D02*
X141216572Y-148762328D01*
X142359428Y-150119471D02*
X142430857Y-150190900D01*
X142430857Y-150190900D02*
X142359428Y-150262328D01*
X142359428Y-150262328D02*
X142288000Y-150190900D01*
X142288000Y-150190900D02*
X142359428Y-150119471D01*
X142359428Y-150119471D02*
X142359428Y-150262328D01*
X143359429Y-148762328D02*
X143502286Y-148762328D01*
X143502286Y-148762328D02*
X143645143Y-148833757D01*
X143645143Y-148833757D02*
X143716572Y-148905185D01*
X143716572Y-148905185D02*
X143788000Y-149048042D01*
X143788000Y-149048042D02*
X143859429Y-149333757D01*
X143859429Y-149333757D02*
X143859429Y-149690900D01*
X143859429Y-149690900D02*
X143788000Y-149976614D01*
X143788000Y-149976614D02*
X143716572Y-150119471D01*
X143716572Y-150119471D02*
X143645143Y-150190900D01*
X143645143Y-150190900D02*
X143502286Y-150262328D01*
X143502286Y-150262328D02*
X143359429Y-150262328D01*
X143359429Y-150262328D02*
X143216572Y-150190900D01*
X143216572Y-150190900D02*
X143145143Y-150119471D01*
X143145143Y-150119471D02*
X143073714Y-149976614D01*
X143073714Y-149976614D02*
X143002286Y-149690900D01*
X143002286Y-149690900D02*
X143002286Y-149333757D01*
X143002286Y-149333757D02*
X143073714Y-149048042D01*
X143073714Y-149048042D02*
X143145143Y-148905185D01*
X143145143Y-148905185D02*
X143216572Y-148833757D01*
X143216572Y-148833757D02*
X143359429Y-148762328D01*
X144788000Y-148762328D02*
X144930857Y-148762328D01*
X144930857Y-148762328D02*
X145073714Y-148833757D01*
X145073714Y-148833757D02*
X145145143Y-148905185D01*
X145145143Y-148905185D02*
X145216571Y-149048042D01*
X145216571Y-149048042D02*
X145288000Y-149333757D01*
X145288000Y-149333757D02*
X145288000Y-149690900D01*
X145288000Y-149690900D02*
X145216571Y-149976614D01*
X145216571Y-149976614D02*
X145145143Y-150119471D01*
X145145143Y-150119471D02*
X145073714Y-150190900D01*
X145073714Y-150190900D02*
X144930857Y-150262328D01*
X144930857Y-150262328D02*
X144788000Y-150262328D01*
X144788000Y-150262328D02*
X144645143Y-150190900D01*
X144645143Y-150190900D02*
X144573714Y-150119471D01*
X144573714Y-150119471D02*
X144502285Y-149976614D01*
X144502285Y-149976614D02*
X144430857Y-149690900D01*
X144430857Y-149690900D02*
X144430857Y-149333757D01*
X144430857Y-149333757D02*
X144502285Y-149048042D01*
X144502285Y-149048042D02*
X144573714Y-148905185D01*
X144573714Y-148905185D02*
X144645143Y-148833757D01*
X144645143Y-148833757D02*
X144788000Y-148762328D01*
X146216571Y-148762328D02*
X146359428Y-148762328D01*
X146359428Y-148762328D02*
X146502285Y-148833757D01*
X146502285Y-148833757D02*
X146573714Y-148905185D01*
X146573714Y-148905185D02*
X146645142Y-149048042D01*
X146645142Y-149048042D02*
X146716571Y-149333757D01*
X146716571Y-149333757D02*
X146716571Y-149690900D01*
X146716571Y-149690900D02*
X146645142Y-149976614D01*
X146645142Y-149976614D02*
X146573714Y-150119471D01*
X146573714Y-150119471D02*
X146502285Y-150190900D01*
X146502285Y-150190900D02*
X146359428Y-150262328D01*
X146359428Y-150262328D02*
X146216571Y-150262328D01*
X146216571Y-150262328D02*
X146073714Y-150190900D01*
X146073714Y-150190900D02*
X146002285Y-150119471D01*
X146002285Y-150119471D02*
X145930856Y-149976614D01*
X145930856Y-149976614D02*
X145859428Y-149690900D01*
X145859428Y-149690900D02*
X145859428Y-149333757D01*
X145859428Y-149333757D02*
X145930856Y-149048042D01*
X145930856Y-149048042D02*
X146002285Y-148905185D01*
X146002285Y-148905185D02*
X146073714Y-148833757D01*
X146073714Y-148833757D02*
X146216571Y-148762328D01*
X147645142Y-148762328D02*
X147787999Y-148762328D01*
X147787999Y-148762328D02*
X147930856Y-148833757D01*
X147930856Y-148833757D02*
X148002285Y-148905185D01*
X148002285Y-148905185D02*
X148073713Y-149048042D01*
X148073713Y-149048042D02*
X148145142Y-149333757D01*
X148145142Y-149333757D02*
X148145142Y-149690900D01*
X148145142Y-149690900D02*
X148073713Y-149976614D01*
X148073713Y-149976614D02*
X148002285Y-150119471D01*
X148002285Y-150119471D02*
X147930856Y-150190900D01*
X147930856Y-150190900D02*
X147787999Y-150262328D01*
X147787999Y-150262328D02*
X147645142Y-150262328D01*
X147645142Y-150262328D02*
X147502285Y-150190900D01*
X147502285Y-150190900D02*
X147430856Y-150119471D01*
X147430856Y-150119471D02*
X147359427Y-149976614D01*
X147359427Y-149976614D02*
X147287999Y-149690900D01*
X147287999Y-149690900D02*
X147287999Y-149333757D01*
X147287999Y-149333757D02*
X147359427Y-149048042D01*
X147359427Y-149048042D02*
X147430856Y-148905185D01*
X147430856Y-148905185D02*
X147502285Y-148833757D01*
X147502285Y-148833757D02*
X147645142Y-148762328D01*
X149930855Y-150262328D02*
X149930855Y-149262328D01*
X149930855Y-149405185D02*
X150002284Y-149333757D01*
X150002284Y-149333757D02*
X150145141Y-149262328D01*
X150145141Y-149262328D02*
X150359427Y-149262328D01*
X150359427Y-149262328D02*
X150502284Y-149333757D01*
X150502284Y-149333757D02*
X150573713Y-149476614D01*
X150573713Y-149476614D02*
X150573713Y-150262328D01*
X150573713Y-149476614D02*
X150645141Y-149333757D01*
X150645141Y-149333757D02*
X150787998Y-149262328D01*
X150787998Y-149262328D02*
X151002284Y-149262328D01*
X151002284Y-149262328D02*
X151145141Y-149333757D01*
X151145141Y-149333757D02*
X151216570Y-149476614D01*
X151216570Y-149476614D02*
X151216570Y-150262328D01*
X151930855Y-150262328D02*
X151930855Y-149262328D01*
X151930855Y-148762328D02*
X151859427Y-148833757D01*
X151859427Y-148833757D02*
X151930855Y-148905185D01*
X151930855Y-148905185D02*
X152002284Y-148833757D01*
X152002284Y-148833757D02*
X151930855Y-148762328D01*
X151930855Y-148762328D02*
X151930855Y-148905185D01*
X152859427Y-150262328D02*
X152716570Y-150190900D01*
X152716570Y-150190900D02*
X152645141Y-150048042D01*
X152645141Y-150048042D02*
X152645141Y-148762328D01*
X153359427Y-150190900D02*
X153502284Y-150262328D01*
X153502284Y-150262328D02*
X153787998Y-150262328D01*
X153787998Y-150262328D02*
X153930855Y-150190900D01*
X153930855Y-150190900D02*
X154002284Y-150048042D01*
X154002284Y-150048042D02*
X154002284Y-149976614D01*
X154002284Y-149976614D02*
X153930855Y-149833757D01*
X153930855Y-149833757D02*
X153787998Y-149762328D01*
X153787998Y-149762328D02*
X153573713Y-149762328D01*
X153573713Y-149762328D02*
X153430855Y-149690900D01*
X153430855Y-149690900D02*
X153359427Y-149548042D01*
X153359427Y-149548042D02*
X153359427Y-149476614D01*
X153359427Y-149476614D02*
X153430855Y-149333757D01*
X153430855Y-149333757D02*
X153573713Y-149262328D01*
X153573713Y-149262328D02*
X153787998Y-149262328D01*
X153787998Y-149262328D02*
X153930855Y-149333757D01*
D11*
X106172000Y-135120000D02*
X106172000Y-151970420D01*
X184404000Y-135120000D02*
X184404000Y-151970420D01*
X106172000Y-151384000D02*
X184404000Y-151384000D01*
X106172000Y-151384000D02*
X184404000Y-151384000D01*
X106172000Y-151384000D02*
X107298504Y-150797579D01*
X106172000Y-151384000D02*
X107298504Y-151970421D01*
X184404000Y-151384000D02*
X183277496Y-151970421D01*
X184404000Y-151384000D02*
X183277496Y-150797579D01*
D10*
X81190328Y-83684284D02*
X82190328Y-83684284D01*
X80618900Y-84041426D02*
X81690328Y-84398569D01*
X81690328Y-84398569D02*
X81690328Y-83469998D01*
X80690328Y-83041427D02*
X80690328Y-82112855D01*
X80690328Y-82112855D02*
X81261757Y-82612855D01*
X81261757Y-82612855D02*
X81261757Y-82398570D01*
X81261757Y-82398570D02*
X81333185Y-82255713D01*
X81333185Y-82255713D02*
X81404614Y-82184284D01*
X81404614Y-82184284D02*
X81547471Y-82112855D01*
X81547471Y-82112855D02*
X81904614Y-82112855D01*
X81904614Y-82112855D02*
X82047471Y-82184284D01*
X82047471Y-82184284D02*
X82118900Y-82255713D01*
X82118900Y-82255713D02*
X82190328Y-82398570D01*
X82190328Y-82398570D02*
X82190328Y-82827141D01*
X82190328Y-82827141D02*
X82118900Y-82969998D01*
X82118900Y-82969998D02*
X82047471Y-83041427D01*
X82047471Y-81469999D02*
X82118900Y-81398570D01*
X82118900Y-81398570D02*
X82190328Y-81469999D01*
X82190328Y-81469999D02*
X82118900Y-81541427D01*
X82118900Y-81541427D02*
X82047471Y-81469999D01*
X82047471Y-81469999D02*
X82190328Y-81469999D01*
X82190328Y-79969998D02*
X82190328Y-80827141D01*
X82190328Y-80398570D02*
X80690328Y-80398570D01*
X80690328Y-80398570D02*
X80904614Y-80541427D01*
X80904614Y-80541427D02*
X81047471Y-80684284D01*
X81047471Y-80684284D02*
X81118900Y-80827141D01*
X81333185Y-79112856D02*
X81261757Y-79255713D01*
X81261757Y-79255713D02*
X81190328Y-79327142D01*
X81190328Y-79327142D02*
X81047471Y-79398570D01*
X81047471Y-79398570D02*
X80976042Y-79398570D01*
X80976042Y-79398570D02*
X80833185Y-79327142D01*
X80833185Y-79327142D02*
X80761757Y-79255713D01*
X80761757Y-79255713D02*
X80690328Y-79112856D01*
X80690328Y-79112856D02*
X80690328Y-78827142D01*
X80690328Y-78827142D02*
X80761757Y-78684285D01*
X80761757Y-78684285D02*
X80833185Y-78612856D01*
X80833185Y-78612856D02*
X80976042Y-78541427D01*
X80976042Y-78541427D02*
X81047471Y-78541427D01*
X81047471Y-78541427D02*
X81190328Y-78612856D01*
X81190328Y-78612856D02*
X81261757Y-78684285D01*
X81261757Y-78684285D02*
X81333185Y-78827142D01*
X81333185Y-78827142D02*
X81333185Y-79112856D01*
X81333185Y-79112856D02*
X81404614Y-79255713D01*
X81404614Y-79255713D02*
X81476042Y-79327142D01*
X81476042Y-79327142D02*
X81618900Y-79398570D01*
X81618900Y-79398570D02*
X81904614Y-79398570D01*
X81904614Y-79398570D02*
X82047471Y-79327142D01*
X82047471Y-79327142D02*
X82118900Y-79255713D01*
X82118900Y-79255713D02*
X82190328Y-79112856D01*
X82190328Y-79112856D02*
X82190328Y-78827142D01*
X82190328Y-78827142D02*
X82118900Y-78684285D01*
X82118900Y-78684285D02*
X82047471Y-78612856D01*
X82047471Y-78612856D02*
X81904614Y-78541427D01*
X81904614Y-78541427D02*
X81618900Y-78541427D01*
X81618900Y-78541427D02*
X81476042Y-78612856D01*
X81476042Y-78612856D02*
X81404614Y-78684285D01*
X81404614Y-78684285D02*
X81333185Y-78827142D01*
X80690328Y-77612856D02*
X80690328Y-77469999D01*
X80690328Y-77469999D02*
X80761757Y-77327142D01*
X80761757Y-77327142D02*
X80833185Y-77255714D01*
X80833185Y-77255714D02*
X80976042Y-77184285D01*
X80976042Y-77184285D02*
X81261757Y-77112856D01*
X81261757Y-77112856D02*
X81618900Y-77112856D01*
X81618900Y-77112856D02*
X81904614Y-77184285D01*
X81904614Y-77184285D02*
X82047471Y-77255714D01*
X82047471Y-77255714D02*
X82118900Y-77327142D01*
X82118900Y-77327142D02*
X82190328Y-77469999D01*
X82190328Y-77469999D02*
X82190328Y-77612856D01*
X82190328Y-77612856D02*
X82118900Y-77755714D01*
X82118900Y-77755714D02*
X82047471Y-77827142D01*
X82047471Y-77827142D02*
X81904614Y-77898571D01*
X81904614Y-77898571D02*
X81618900Y-77969999D01*
X81618900Y-77969999D02*
X81261757Y-77969999D01*
X81261757Y-77969999D02*
X80976042Y-77898571D01*
X80976042Y-77898571D02*
X80833185Y-77827142D01*
X80833185Y-77827142D02*
X80761757Y-77755714D01*
X80761757Y-77755714D02*
X80690328Y-77612856D01*
X80690328Y-76184285D02*
X80690328Y-76041428D01*
X80690328Y-76041428D02*
X80761757Y-75898571D01*
X80761757Y-75898571D02*
X80833185Y-75827143D01*
X80833185Y-75827143D02*
X80976042Y-75755714D01*
X80976042Y-75755714D02*
X81261757Y-75684285D01*
X81261757Y-75684285D02*
X81618900Y-75684285D01*
X81618900Y-75684285D02*
X81904614Y-75755714D01*
X81904614Y-75755714D02*
X82047471Y-75827143D01*
X82047471Y-75827143D02*
X82118900Y-75898571D01*
X82118900Y-75898571D02*
X82190328Y-76041428D01*
X82190328Y-76041428D02*
X82190328Y-76184285D01*
X82190328Y-76184285D02*
X82118900Y-76327143D01*
X82118900Y-76327143D02*
X82047471Y-76398571D01*
X82047471Y-76398571D02*
X81904614Y-76470000D01*
X81904614Y-76470000D02*
X81618900Y-76541428D01*
X81618900Y-76541428D02*
X81261757Y-76541428D01*
X81261757Y-76541428D02*
X80976042Y-76470000D01*
X80976042Y-76470000D02*
X80833185Y-76398571D01*
X80833185Y-76398571D02*
X80761757Y-76327143D01*
X80761757Y-76327143D02*
X80690328Y-76184285D01*
X82190328Y-73898572D02*
X81190328Y-73898572D01*
X81333185Y-73898572D02*
X81261757Y-73827143D01*
X81261757Y-73827143D02*
X81190328Y-73684286D01*
X81190328Y-73684286D02*
X81190328Y-73470000D01*
X81190328Y-73470000D02*
X81261757Y-73327143D01*
X81261757Y-73327143D02*
X81404614Y-73255715D01*
X81404614Y-73255715D02*
X82190328Y-73255715D01*
X81404614Y-73255715D02*
X81261757Y-73184286D01*
X81261757Y-73184286D02*
X81190328Y-73041429D01*
X81190328Y-73041429D02*
X81190328Y-72827143D01*
X81190328Y-72827143D02*
X81261757Y-72684286D01*
X81261757Y-72684286D02*
X81404614Y-72612857D01*
X81404614Y-72612857D02*
X82190328Y-72612857D01*
X82190328Y-71898572D02*
X81190328Y-71898572D01*
X81333185Y-71898572D02*
X81261757Y-71827143D01*
X81261757Y-71827143D02*
X81190328Y-71684286D01*
X81190328Y-71684286D02*
X81190328Y-71470000D01*
X81190328Y-71470000D02*
X81261757Y-71327143D01*
X81261757Y-71327143D02*
X81404614Y-71255715D01*
X81404614Y-71255715D02*
X82190328Y-71255715D01*
X81404614Y-71255715D02*
X81261757Y-71184286D01*
X81261757Y-71184286D02*
X81190328Y-71041429D01*
X81190328Y-71041429D02*
X81190328Y-70827143D01*
X81190328Y-70827143D02*
X81261757Y-70684286D01*
X81261757Y-70684286D02*
X81404614Y-70612857D01*
X81404614Y-70612857D02*
X82190328Y-70612857D01*
D11*
X98560000Y-55880000D02*
X82725580Y-55880000D01*
X98560000Y-99060000D02*
X82725580Y-99060000D01*
X83312000Y-55880000D02*
X83312000Y-99060000D01*
X83312000Y-55880000D02*
X83312000Y-99060000D01*
X83312000Y-55880000D02*
X83898421Y-57006504D01*
X83312000Y-55880000D02*
X82725579Y-57006504D01*
X83312000Y-99060000D02*
X82725579Y-97933496D01*
X83312000Y-99060000D02*
X83898421Y-97933496D01*
D10*
X60759185Y-105702855D02*
X60687757Y-105845712D01*
X60687757Y-105845712D02*
X60616328Y-105917141D01*
X60616328Y-105917141D02*
X60473471Y-105988569D01*
X60473471Y-105988569D02*
X60402042Y-105988569D01*
X60402042Y-105988569D02*
X60259185Y-105917141D01*
X60259185Y-105917141D02*
X60187757Y-105845712D01*
X60187757Y-105845712D02*
X60116328Y-105702855D01*
X60116328Y-105702855D02*
X60116328Y-105417141D01*
X60116328Y-105417141D02*
X60187757Y-105274284D01*
X60187757Y-105274284D02*
X60259185Y-105202855D01*
X60259185Y-105202855D02*
X60402042Y-105131426D01*
X60402042Y-105131426D02*
X60473471Y-105131426D01*
X60473471Y-105131426D02*
X60616328Y-105202855D01*
X60616328Y-105202855D02*
X60687757Y-105274284D01*
X60687757Y-105274284D02*
X60759185Y-105417141D01*
X60759185Y-105417141D02*
X60759185Y-105702855D01*
X60759185Y-105702855D02*
X60830614Y-105845712D01*
X60830614Y-105845712D02*
X60902042Y-105917141D01*
X60902042Y-105917141D02*
X61044900Y-105988569D01*
X61044900Y-105988569D02*
X61330614Y-105988569D01*
X61330614Y-105988569D02*
X61473471Y-105917141D01*
X61473471Y-105917141D02*
X61544900Y-105845712D01*
X61544900Y-105845712D02*
X61616328Y-105702855D01*
X61616328Y-105702855D02*
X61616328Y-105417141D01*
X61616328Y-105417141D02*
X61544900Y-105274284D01*
X61544900Y-105274284D02*
X61473471Y-105202855D01*
X61473471Y-105202855D02*
X61330614Y-105131426D01*
X61330614Y-105131426D02*
X61044900Y-105131426D01*
X61044900Y-105131426D02*
X60902042Y-105202855D01*
X60902042Y-105202855D02*
X60830614Y-105274284D01*
X60830614Y-105274284D02*
X60759185Y-105417141D01*
X60116328Y-103845713D02*
X60116328Y-104131427D01*
X60116328Y-104131427D02*
X60187757Y-104274284D01*
X60187757Y-104274284D02*
X60259185Y-104345713D01*
X60259185Y-104345713D02*
X60473471Y-104488570D01*
X60473471Y-104488570D02*
X60759185Y-104559998D01*
X60759185Y-104559998D02*
X61330614Y-104559998D01*
X61330614Y-104559998D02*
X61473471Y-104488570D01*
X61473471Y-104488570D02*
X61544900Y-104417141D01*
X61544900Y-104417141D02*
X61616328Y-104274284D01*
X61616328Y-104274284D02*
X61616328Y-103988570D01*
X61616328Y-103988570D02*
X61544900Y-103845713D01*
X61544900Y-103845713D02*
X61473471Y-103774284D01*
X61473471Y-103774284D02*
X61330614Y-103702855D01*
X61330614Y-103702855D02*
X60973471Y-103702855D01*
X60973471Y-103702855D02*
X60830614Y-103774284D01*
X60830614Y-103774284D02*
X60759185Y-103845713D01*
X60759185Y-103845713D02*
X60687757Y-103988570D01*
X60687757Y-103988570D02*
X60687757Y-104274284D01*
X60687757Y-104274284D02*
X60759185Y-104417141D01*
X60759185Y-104417141D02*
X60830614Y-104488570D01*
X60830614Y-104488570D02*
X60973471Y-104559998D01*
X61473471Y-103059999D02*
X61544900Y-102988570D01*
X61544900Y-102988570D02*
X61616328Y-103059999D01*
X61616328Y-103059999D02*
X61544900Y-103131427D01*
X61544900Y-103131427D02*
X61473471Y-103059999D01*
X61473471Y-103059999D02*
X61616328Y-103059999D01*
X60116328Y-102488570D02*
X60116328Y-101559998D01*
X60116328Y-101559998D02*
X60687757Y-102059998D01*
X60687757Y-102059998D02*
X60687757Y-101845713D01*
X60687757Y-101845713D02*
X60759185Y-101702856D01*
X60759185Y-101702856D02*
X60830614Y-101631427D01*
X60830614Y-101631427D02*
X60973471Y-101559998D01*
X60973471Y-101559998D02*
X61330614Y-101559998D01*
X61330614Y-101559998D02*
X61473471Y-101631427D01*
X61473471Y-101631427D02*
X61544900Y-101702856D01*
X61544900Y-101702856D02*
X61616328Y-101845713D01*
X61616328Y-101845713D02*
X61616328Y-102274284D01*
X61616328Y-102274284D02*
X61544900Y-102417141D01*
X61544900Y-102417141D02*
X61473471Y-102488570D01*
X60116328Y-100274285D02*
X60116328Y-100559999D01*
X60116328Y-100559999D02*
X60187757Y-100702856D01*
X60187757Y-100702856D02*
X60259185Y-100774285D01*
X60259185Y-100774285D02*
X60473471Y-100917142D01*
X60473471Y-100917142D02*
X60759185Y-100988570D01*
X60759185Y-100988570D02*
X61330614Y-100988570D01*
X61330614Y-100988570D02*
X61473471Y-100917142D01*
X61473471Y-100917142D02*
X61544900Y-100845713D01*
X61544900Y-100845713D02*
X61616328Y-100702856D01*
X61616328Y-100702856D02*
X61616328Y-100417142D01*
X61616328Y-100417142D02*
X61544900Y-100274285D01*
X61544900Y-100274285D02*
X61473471Y-100202856D01*
X61473471Y-100202856D02*
X61330614Y-100131427D01*
X61330614Y-100131427D02*
X60973471Y-100131427D01*
X60973471Y-100131427D02*
X60830614Y-100202856D01*
X60830614Y-100202856D02*
X60759185Y-100274285D01*
X60759185Y-100274285D02*
X60687757Y-100417142D01*
X60687757Y-100417142D02*
X60687757Y-100702856D01*
X60687757Y-100702856D02*
X60759185Y-100845713D01*
X60759185Y-100845713D02*
X60830614Y-100917142D01*
X60830614Y-100917142D02*
X60973471Y-100988570D01*
X60116328Y-99202856D02*
X60116328Y-99059999D01*
X60116328Y-99059999D02*
X60187757Y-98917142D01*
X60187757Y-98917142D02*
X60259185Y-98845714D01*
X60259185Y-98845714D02*
X60402042Y-98774285D01*
X60402042Y-98774285D02*
X60687757Y-98702856D01*
X60687757Y-98702856D02*
X61044900Y-98702856D01*
X61044900Y-98702856D02*
X61330614Y-98774285D01*
X61330614Y-98774285D02*
X61473471Y-98845714D01*
X61473471Y-98845714D02*
X61544900Y-98917142D01*
X61544900Y-98917142D02*
X61616328Y-99059999D01*
X61616328Y-99059999D02*
X61616328Y-99202856D01*
X61616328Y-99202856D02*
X61544900Y-99345714D01*
X61544900Y-99345714D02*
X61473471Y-99417142D01*
X61473471Y-99417142D02*
X61330614Y-99488571D01*
X61330614Y-99488571D02*
X61044900Y-99559999D01*
X61044900Y-99559999D02*
X60687757Y-99559999D01*
X60687757Y-99559999D02*
X60402042Y-99488571D01*
X60402042Y-99488571D02*
X60259185Y-99417142D01*
X60259185Y-99417142D02*
X60187757Y-99345714D01*
X60187757Y-99345714D02*
X60116328Y-99202856D01*
X60116328Y-97774285D02*
X60116328Y-97631428D01*
X60116328Y-97631428D02*
X60187757Y-97488571D01*
X60187757Y-97488571D02*
X60259185Y-97417143D01*
X60259185Y-97417143D02*
X60402042Y-97345714D01*
X60402042Y-97345714D02*
X60687757Y-97274285D01*
X60687757Y-97274285D02*
X61044900Y-97274285D01*
X61044900Y-97274285D02*
X61330614Y-97345714D01*
X61330614Y-97345714D02*
X61473471Y-97417143D01*
X61473471Y-97417143D02*
X61544900Y-97488571D01*
X61544900Y-97488571D02*
X61616328Y-97631428D01*
X61616328Y-97631428D02*
X61616328Y-97774285D01*
X61616328Y-97774285D02*
X61544900Y-97917143D01*
X61544900Y-97917143D02*
X61473471Y-97988571D01*
X61473471Y-97988571D02*
X61330614Y-98060000D01*
X61330614Y-98060000D02*
X61044900Y-98131428D01*
X61044900Y-98131428D02*
X60687757Y-98131428D01*
X60687757Y-98131428D02*
X60402042Y-98060000D01*
X60402042Y-98060000D02*
X60259185Y-97988571D01*
X60259185Y-97988571D02*
X60187757Y-97917143D01*
X60187757Y-97917143D02*
X60116328Y-97774285D01*
X61616328Y-95488572D02*
X60616328Y-95488572D01*
X60759185Y-95488572D02*
X60687757Y-95417143D01*
X60687757Y-95417143D02*
X60616328Y-95274286D01*
X60616328Y-95274286D02*
X60616328Y-95060000D01*
X60616328Y-95060000D02*
X60687757Y-94917143D01*
X60687757Y-94917143D02*
X60830614Y-94845715D01*
X60830614Y-94845715D02*
X61616328Y-94845715D01*
X60830614Y-94845715D02*
X60687757Y-94774286D01*
X60687757Y-94774286D02*
X60616328Y-94631429D01*
X60616328Y-94631429D02*
X60616328Y-94417143D01*
X60616328Y-94417143D02*
X60687757Y-94274286D01*
X60687757Y-94274286D02*
X60830614Y-94202857D01*
X60830614Y-94202857D02*
X61616328Y-94202857D01*
X61616328Y-93488572D02*
X60616328Y-93488572D01*
X60759185Y-93488572D02*
X60687757Y-93417143D01*
X60687757Y-93417143D02*
X60616328Y-93274286D01*
X60616328Y-93274286D02*
X60616328Y-93060000D01*
X60616328Y-93060000D02*
X60687757Y-92917143D01*
X60687757Y-92917143D02*
X60830614Y-92845715D01*
X60830614Y-92845715D02*
X61616328Y-92845715D01*
X60830614Y-92845715D02*
X60687757Y-92774286D01*
X60687757Y-92774286D02*
X60616328Y-92631429D01*
X60616328Y-92631429D02*
X60616328Y-92417143D01*
X60616328Y-92417143D02*
X60687757Y-92274286D01*
X60687757Y-92274286D02*
X60830614Y-92202857D01*
X60830614Y-92202857D02*
X61616328Y-92202857D01*
D11*
X98560000Y-55880000D02*
X62151580Y-55880000D01*
X98560000Y-142240000D02*
X62151580Y-142240000D01*
X62738000Y-55880000D02*
X62738000Y-142240000D01*
X62738000Y-55880000D02*
X62738000Y-142240000D01*
X62738000Y-55880000D02*
X63324421Y-57006504D01*
X62738000Y-55880000D02*
X62151579Y-57006504D01*
X62738000Y-142240000D02*
X62151579Y-141113496D01*
X62738000Y-142240000D02*
X63324421Y-141113496D01*
D10*
X207833185Y-107266283D02*
X207761757Y-107194855D01*
X207761757Y-107194855D02*
X207690328Y-107051998D01*
X207690328Y-107051998D02*
X207690328Y-106694855D01*
X207690328Y-106694855D02*
X207761757Y-106551998D01*
X207761757Y-106551998D02*
X207833185Y-106480569D01*
X207833185Y-106480569D02*
X207976042Y-106409140D01*
X207976042Y-106409140D02*
X208118900Y-106409140D01*
X208118900Y-106409140D02*
X208333185Y-106480569D01*
X208333185Y-106480569D02*
X209190328Y-107337712D01*
X209190328Y-107337712D02*
X209190328Y-106409140D01*
X208333185Y-105551998D02*
X208261757Y-105694855D01*
X208261757Y-105694855D02*
X208190328Y-105766284D01*
X208190328Y-105766284D02*
X208047471Y-105837712D01*
X208047471Y-105837712D02*
X207976042Y-105837712D01*
X207976042Y-105837712D02*
X207833185Y-105766284D01*
X207833185Y-105766284D02*
X207761757Y-105694855D01*
X207761757Y-105694855D02*
X207690328Y-105551998D01*
X207690328Y-105551998D02*
X207690328Y-105266284D01*
X207690328Y-105266284D02*
X207761757Y-105123427D01*
X207761757Y-105123427D02*
X207833185Y-105051998D01*
X207833185Y-105051998D02*
X207976042Y-104980569D01*
X207976042Y-104980569D02*
X208047471Y-104980569D01*
X208047471Y-104980569D02*
X208190328Y-105051998D01*
X208190328Y-105051998D02*
X208261757Y-105123427D01*
X208261757Y-105123427D02*
X208333185Y-105266284D01*
X208333185Y-105266284D02*
X208333185Y-105551998D01*
X208333185Y-105551998D02*
X208404614Y-105694855D01*
X208404614Y-105694855D02*
X208476042Y-105766284D01*
X208476042Y-105766284D02*
X208618900Y-105837712D01*
X208618900Y-105837712D02*
X208904614Y-105837712D01*
X208904614Y-105837712D02*
X209047471Y-105766284D01*
X209047471Y-105766284D02*
X209118900Y-105694855D01*
X209118900Y-105694855D02*
X209190328Y-105551998D01*
X209190328Y-105551998D02*
X209190328Y-105266284D01*
X209190328Y-105266284D02*
X209118900Y-105123427D01*
X209118900Y-105123427D02*
X209047471Y-105051998D01*
X209047471Y-105051998D02*
X208904614Y-104980569D01*
X208904614Y-104980569D02*
X208618900Y-104980569D01*
X208618900Y-104980569D02*
X208476042Y-105051998D01*
X208476042Y-105051998D02*
X208404614Y-105123427D01*
X208404614Y-105123427D02*
X208333185Y-105266284D01*
X208190328Y-103694856D02*
X209190328Y-103694856D01*
X207618900Y-104051998D02*
X208690328Y-104409141D01*
X208690328Y-104409141D02*
X208690328Y-103480570D01*
X207690328Y-102623427D02*
X207690328Y-102480570D01*
X207690328Y-102480570D02*
X207761757Y-102337713D01*
X207761757Y-102337713D02*
X207833185Y-102266285D01*
X207833185Y-102266285D02*
X207976042Y-102194856D01*
X207976042Y-102194856D02*
X208261757Y-102123427D01*
X208261757Y-102123427D02*
X208618900Y-102123427D01*
X208618900Y-102123427D02*
X208904614Y-102194856D01*
X208904614Y-102194856D02*
X209047471Y-102266285D01*
X209047471Y-102266285D02*
X209118900Y-102337713D01*
X209118900Y-102337713D02*
X209190328Y-102480570D01*
X209190328Y-102480570D02*
X209190328Y-102623427D01*
X209190328Y-102623427D02*
X209118900Y-102766285D01*
X209118900Y-102766285D02*
X209047471Y-102837713D01*
X209047471Y-102837713D02*
X208904614Y-102909142D01*
X208904614Y-102909142D02*
X208618900Y-102980570D01*
X208618900Y-102980570D02*
X208261757Y-102980570D01*
X208261757Y-102980570D02*
X207976042Y-102909142D01*
X207976042Y-102909142D02*
X207833185Y-102837713D01*
X207833185Y-102837713D02*
X207761757Y-102766285D01*
X207761757Y-102766285D02*
X207690328Y-102623427D01*
X209047471Y-101480571D02*
X209118900Y-101409142D01*
X209118900Y-101409142D02*
X209190328Y-101480571D01*
X209190328Y-101480571D02*
X209118900Y-101551999D01*
X209118900Y-101551999D02*
X209047471Y-101480571D01*
X209047471Y-101480571D02*
X209190328Y-101480571D01*
X207690328Y-100480570D02*
X207690328Y-100337713D01*
X207690328Y-100337713D02*
X207761757Y-100194856D01*
X207761757Y-100194856D02*
X207833185Y-100123428D01*
X207833185Y-100123428D02*
X207976042Y-100051999D01*
X207976042Y-100051999D02*
X208261757Y-99980570D01*
X208261757Y-99980570D02*
X208618900Y-99980570D01*
X208618900Y-99980570D02*
X208904614Y-100051999D01*
X208904614Y-100051999D02*
X209047471Y-100123428D01*
X209047471Y-100123428D02*
X209118900Y-100194856D01*
X209118900Y-100194856D02*
X209190328Y-100337713D01*
X209190328Y-100337713D02*
X209190328Y-100480570D01*
X209190328Y-100480570D02*
X209118900Y-100623428D01*
X209118900Y-100623428D02*
X209047471Y-100694856D01*
X209047471Y-100694856D02*
X208904614Y-100766285D01*
X208904614Y-100766285D02*
X208618900Y-100837713D01*
X208618900Y-100837713D02*
X208261757Y-100837713D01*
X208261757Y-100837713D02*
X207976042Y-100766285D01*
X207976042Y-100766285D02*
X207833185Y-100694856D01*
X207833185Y-100694856D02*
X207761757Y-100623428D01*
X207761757Y-100623428D02*
X207690328Y-100480570D01*
X207690328Y-99051999D02*
X207690328Y-98909142D01*
X207690328Y-98909142D02*
X207761757Y-98766285D01*
X207761757Y-98766285D02*
X207833185Y-98694857D01*
X207833185Y-98694857D02*
X207976042Y-98623428D01*
X207976042Y-98623428D02*
X208261757Y-98551999D01*
X208261757Y-98551999D02*
X208618900Y-98551999D01*
X208618900Y-98551999D02*
X208904614Y-98623428D01*
X208904614Y-98623428D02*
X209047471Y-98694857D01*
X209047471Y-98694857D02*
X209118900Y-98766285D01*
X209118900Y-98766285D02*
X209190328Y-98909142D01*
X209190328Y-98909142D02*
X209190328Y-99051999D01*
X209190328Y-99051999D02*
X209118900Y-99194857D01*
X209118900Y-99194857D02*
X209047471Y-99266285D01*
X209047471Y-99266285D02*
X208904614Y-99337714D01*
X208904614Y-99337714D02*
X208618900Y-99409142D01*
X208618900Y-99409142D02*
X208261757Y-99409142D01*
X208261757Y-99409142D02*
X207976042Y-99337714D01*
X207976042Y-99337714D02*
X207833185Y-99266285D01*
X207833185Y-99266285D02*
X207761757Y-99194857D01*
X207761757Y-99194857D02*
X207690328Y-99051999D01*
X207690328Y-97623428D02*
X207690328Y-97480571D01*
X207690328Y-97480571D02*
X207761757Y-97337714D01*
X207761757Y-97337714D02*
X207833185Y-97266286D01*
X207833185Y-97266286D02*
X207976042Y-97194857D01*
X207976042Y-97194857D02*
X208261757Y-97123428D01*
X208261757Y-97123428D02*
X208618900Y-97123428D01*
X208618900Y-97123428D02*
X208904614Y-97194857D01*
X208904614Y-97194857D02*
X209047471Y-97266286D01*
X209047471Y-97266286D02*
X209118900Y-97337714D01*
X209118900Y-97337714D02*
X209190328Y-97480571D01*
X209190328Y-97480571D02*
X209190328Y-97623428D01*
X209190328Y-97623428D02*
X209118900Y-97766286D01*
X209118900Y-97766286D02*
X209047471Y-97837714D01*
X209047471Y-97837714D02*
X208904614Y-97909143D01*
X208904614Y-97909143D02*
X208618900Y-97980571D01*
X208618900Y-97980571D02*
X208261757Y-97980571D01*
X208261757Y-97980571D02*
X207976042Y-97909143D01*
X207976042Y-97909143D02*
X207833185Y-97837714D01*
X207833185Y-97837714D02*
X207761757Y-97766286D01*
X207761757Y-97766286D02*
X207690328Y-97623428D01*
X207690328Y-96194857D02*
X207690328Y-96052000D01*
X207690328Y-96052000D02*
X207761757Y-95909143D01*
X207761757Y-95909143D02*
X207833185Y-95837715D01*
X207833185Y-95837715D02*
X207976042Y-95766286D01*
X207976042Y-95766286D02*
X208261757Y-95694857D01*
X208261757Y-95694857D02*
X208618900Y-95694857D01*
X208618900Y-95694857D02*
X208904614Y-95766286D01*
X208904614Y-95766286D02*
X209047471Y-95837715D01*
X209047471Y-95837715D02*
X209118900Y-95909143D01*
X209118900Y-95909143D02*
X209190328Y-96052000D01*
X209190328Y-96052000D02*
X209190328Y-96194857D01*
X209190328Y-96194857D02*
X209118900Y-96337715D01*
X209118900Y-96337715D02*
X209047471Y-96409143D01*
X209047471Y-96409143D02*
X208904614Y-96480572D01*
X208904614Y-96480572D02*
X208618900Y-96552000D01*
X208618900Y-96552000D02*
X208261757Y-96552000D01*
X208261757Y-96552000D02*
X207976042Y-96480572D01*
X207976042Y-96480572D02*
X207833185Y-96409143D01*
X207833185Y-96409143D02*
X207761757Y-96337715D01*
X207761757Y-96337715D02*
X207690328Y-96194857D01*
X209190328Y-93909144D02*
X208190328Y-93909144D01*
X208333185Y-93909144D02*
X208261757Y-93837715D01*
X208261757Y-93837715D02*
X208190328Y-93694858D01*
X208190328Y-93694858D02*
X208190328Y-93480572D01*
X208190328Y-93480572D02*
X208261757Y-93337715D01*
X208261757Y-93337715D02*
X208404614Y-93266287D01*
X208404614Y-93266287D02*
X209190328Y-93266287D01*
X208404614Y-93266287D02*
X208261757Y-93194858D01*
X208261757Y-93194858D02*
X208190328Y-93052001D01*
X208190328Y-93052001D02*
X208190328Y-92837715D01*
X208190328Y-92837715D02*
X208261757Y-92694858D01*
X208261757Y-92694858D02*
X208404614Y-92623429D01*
X208404614Y-92623429D02*
X209190328Y-92623429D01*
X209190328Y-91909144D02*
X208190328Y-91909144D01*
X207690328Y-91909144D02*
X207761757Y-91980572D01*
X207761757Y-91980572D02*
X207833185Y-91909144D01*
X207833185Y-91909144D02*
X207761757Y-91837715D01*
X207761757Y-91837715D02*
X207690328Y-91909144D01*
X207690328Y-91909144D02*
X207833185Y-91909144D01*
X209190328Y-90980572D02*
X209118900Y-91123429D01*
X209118900Y-91123429D02*
X208976042Y-91194858D01*
X208976042Y-91194858D02*
X207690328Y-91194858D01*
X209118900Y-90480572D02*
X209190328Y-90337715D01*
X209190328Y-90337715D02*
X209190328Y-90052001D01*
X209190328Y-90052001D02*
X209118900Y-89909144D01*
X209118900Y-89909144D02*
X208976042Y-89837715D01*
X208976042Y-89837715D02*
X208904614Y-89837715D01*
X208904614Y-89837715D02*
X208761757Y-89909144D01*
X208761757Y-89909144D02*
X208690328Y-90052001D01*
X208690328Y-90052001D02*
X208690328Y-90266287D01*
X208690328Y-90266287D02*
X208618900Y-90409144D01*
X208618900Y-90409144D02*
X208476042Y-90480572D01*
X208476042Y-90480572D02*
X208404614Y-90480572D01*
X208404614Y-90480572D02*
X208261757Y-90409144D01*
X208261757Y-90409144D02*
X208190328Y-90266287D01*
X208190328Y-90266287D02*
X208190328Y-90052001D01*
X208190328Y-90052001D02*
X208261757Y-89909144D01*
D11*
X184904000Y-62484000D02*
X210898420Y-62484000D01*
X184904000Y-134620000D02*
X210898420Y-134620000D01*
X210312000Y-62484000D02*
X210312000Y-134620000D01*
X210312000Y-62484000D02*
X210312000Y-134620000D01*
X210312000Y-62484000D02*
X210898421Y-63610504D01*
X210312000Y-62484000D02*
X209725579Y-63610504D01*
X210312000Y-134620000D02*
X209725579Y-133493496D01*
X210312000Y-134620000D02*
X210898421Y-133493496D01*
M02*
